<svg fill="none" height="24" viewBox="0 0 24 24" width="24" xmlns="http://www.w3.org/2000/svg"><path clip-rule="evenodd" d="m6.375 4c-1.31168 0-2.375 1.06332-2.375 2.37498v11.25002c0 1.3117 1.06332 2.375 2.375 2.375h11.25c1.3117 0 2.375-1.0633 2.375-2.375v-11.25002c0-1.31166-1.0633-2.37498-2.375-2.37498zm-4.375 2.37498c0-2.41624 1.95876-4.37498 4.375-4.37498h11.25c2.4162 0 4.375 1.95874 4.375 4.37498v11.25002c0 2.4163-1.9588 4.375-4.375 4.375h-11.25c-2.41624 0-4.375-1.9587-4.375-4.375zm10 .12499c.5523 0 1 .44772 1 1v3.49993h3.5c.5523 0 1 .4478 1 1 0 .5523-.4477 1-1 1h-3.5v3.5c0 .5523-.4477 1-1 1s-1-.4477-1-1v-3.5h-3.5c-.55228 0-1-.4477-1-1 0-.5522.44772-1 1-1h3.5v-3.49993c0-.55228.4477-1 1-1z" fill="currentColor" fill-rule="evenodd"/></svg>