<svg fill="none" height="24" viewBox="0 0 24 24" width="24" xmlns="http://www.w3.org/2000/svg"><path clip-rule="evenodd" d="m15.9919 2.40002c0-.55228.4477-1 1-1h.768c2.6731 0 4.84 2.16695 4.84 4.84v.768c0 .55229-.4477 1-1 1s-1-.44771-1-1v-.768c0-1.56848-1.2715-2.84-2.84-2.84h-.768c-.5523 0-1-.44771-1-1zm-13.13048.37435c.39949-.38135 1.03248-.36663 1.41383.03286l17.27995 18.10227c.3814.3995.3667 1.0325-.0328 1.4139-.3995.3813-1.0325.3666-1.4138-.0329l-2.1167-2.2174c-1.6301 1.3385-3.718 2.1429-5.992 2.1429-2.24878 0-4.31406-.7856-5.93634-2.0974l-2.18855 2.1885c-.39053.3906-1.02369.3906-1.41421 0-.39053-.3905-.39053-1.0237 0-1.4142l2.18855-2.1885c-1.3118-1.6223-2.09745-3.6876-2.09745-5.9364 0-2.4318.92003-4.65089 2.42924-6.32478l-1.32386-1.38686c-.16531.35993-.25738.76042-.25738 1.18366v.768c0 .55229-.44771 1-1 1-.55228 0-1-.44771-1-1v-.768c0-1.08865.36062-2.09595.96851-2.90504.07682-.10226.16947-.1856.27199-.2492.05139-.11383.12512-.21987.22102-.31141zm3.50562 5.1207c-1.13164 1.30675-1.81514 3.00903-1.81514 4.87293 0 4.1134 3.33458 7.448 7.448 7.448 1.7396 0 3.3383-.5953 4.6062-1.5947zm5.63286-2.57505c-.7367 0-1.4467.10666-2.11639.30472-.5296.15663-1.08591-.14572-1.24255-.67533-.15663-.52961.14572-1.08592.67533-1.24255.85191-.25195 1.75291-.38684 2.68361-.38684 5.218 0 9.448 4.23002 9.448 9.44798 0 1.4934-.3472 2.9086-.9662 4.1666-.2439.4955-.8433.6996-1.3388.4557-.4955-.2438-.6996-.8432-.4557-1.3387.4868-.9894.7607-2.1031.7607-3.2836 0-4.11339-3.3346-7.44798-7.448-7.44798z" fill="currentColor" fill-rule="evenodd"/></svg>