<svg fill="none" height="24" viewBox="0 0 24 24" width="24" xmlns="http://www.w3.org/2000/svg"><path clip-rule="evenodd" d="m18.4929 1.69292c.3906-.39053 1.0237-.39053 1.4143 0l3 3c.3905.39052.3905 1.02369 0 1.41421-.3906.39053-1.0237.39053-1.4143 0l-3-3c-.3905-.39052-.3905-1.02369 0-1.41421zm-15.19004 1.20711c.26619.00075.5211.1076.70826.29688l14.84008 15.00799.0039.004 2.6841 2.684c.3905.3905.3905 1.0237 0 1.4142-.3906.3906-1.0237.3906-1.4143 0l-2.1885-2.1886c-1.622 1.3114-3.6886 2.0975-5.9364 2.0975-2.24873 0-4.31401-.7856-5.93629-2.0974l-2.18855 2.1885c-.39053.3906-1.02369.3906-1.41422 0-.39052-.3905-.39052-1.0237 0-1.4142l2.18856-2.1885c-1.3118-1.6223-2.09745-3.6876-2.09745-5.9364 0-2.2847.81214-4.38194 2.16223-6.0155l-1.41822-1.43427-.7889.7889c-.39053.39052-1.02369.39052-1.41422 0-.390522-.39052-.390522-1.02369 0-1.41421l1.5-1.5c.18823-.18823.44373-.29364.70992-.29289zm2.82667 5.28374c-.98891 1.26427-1.57748 2.85453-1.57748 4.58423 0 4.1134 3.33458 7.448 7.44795 7.448 1.6999 0 3.2647-.5683 4.518-1.5262zm5.87047-2.86375c-.7366 0-1.4467.10666-2.11634.30472-.52961.15663-1.08591-.14572-1.24255-.67533-.15663-.52961.14572-1.08592.67533-1.24255.85186-.25195 1.75286-.38684 2.68356-.38684 5.218 0 9.448 4.23002 9.448 9.44798 0 .8625-.1158 1.6995-.3333 2.4956-.1456.5327-.6954.8466-1.2282.7011-.5328-.1456-.8466-.6955-.7011-1.2282.171-.626.2626-1.2857.2626-1.9685 0-4.11339-3.3345-7.44798-7.448-7.44798z" fill="currentColor" fill-rule="evenodd"/></svg>