<svg fill="none" height="24" viewBox="0 0 24 24" width="24" xmlns="http://www.w3.org/2000/svg"><path clip-rule="evenodd" d="m9.96388 6.10986-5.65671 10.20004c-.00813.0146-.01663.0291-.02549.0433-.27116.4358-.31638.7476-.25964.9408.28779.98 1.2082 1.706 2.30793 1.706h11.33983c1.0998 0 2.0202-.726 2.308-1.706.0567-.1932.0115-.505-.2597-.9408-.0089-.0142-.0173-.0287-.0255-.0433l-5.6567-10.20004c-.9399-1.47981-3.1321-1.47981-4.07202 0zm-1.71033-1.03718c1.71976-2.76358 5.77295-2.76357 7.49265 0 .0089.01424.0174.02869.0255.04336l5.6584 10.20306c.384.6245.7575 1.5478.4666 2.5383-.5347 1.8211-2.2287 3.1426-4.2269 3.1426h-11.33983c-1.99821 0-3.69216-1.3215-4.22691-3.1425-.29086-.9906.08266-1.9139.46658-2.5384l5.65843-10.20307c.00813-.01466.01663-.02911.02548-.04335zm3.74635 2.34179c.5523 0 1 .44772 1 1v4.48553c0 .5523-.4477 1-1 1s-1-.4477-1-1v-4.48553c0-.55228.4477-1 1-1zm0 7.81033c.5523 0 1 .4477 1 1v.0394c0 .5523-.4477 1-1 1s-1-.4477-1-1v-.0394c0-.5523.4477-1 1-1z" fill="currentColor" fill-rule="evenodd"/></svg>