<svg fill="none" height="24" viewBox="0 0 24 24" width="24" xmlns="http://www.w3.org/2000/svg"><path clip-rule="evenodd" d="m2.3999 1.40003 19.2-.00001c.5523 0 1 .44772 1 1 0 .55229-.4477 1-1 1l-19.2.00001c-.55228 0-1-.44772-1-1 0-.55229.44772-1 1-1zm8.9029 5.083c.3881-.37734 1.0061-.37734 1.3942 0l6 5.83337c.396.3849.4049 1.018.0199 1.414s-1.0181.4049-1.4141.02l-4.3029-4.18344v12.03304c0 .5523-.4477 1-1 1s-1-.4477-1-1v-12.03304l-4.30292 4.18344c-.39598.3849-1.02909.376-1.41407-.02-.38499-.3959-.37607-1.0291.01991-1.414z" fill="currentColor" fill-rule="evenodd"/></svg>