<svg fill="none" height="24" viewBox="0 0 24 24" width="24" xmlns="http://www.w3.org/2000/svg"><path clip-rule="evenodd" d="m11.9999 1.40002c.5523 0 1 .44772 1 1v12.03308l4.3029-4.1834c.396-.38499 1.0291-.37607 1.4141.0199.385.396.3761 1.0291-.0199 1.4141l-6 5.8333c-.3881.3774-1.0061.3774-1.3942 0l-5.99998-5.8333c-.39598-.385-.4049-1.0181-.01991-1.4141.38498-.39597 1.01808-.40489 1.41407-.0199l4.30292 4.1834v-12.03308c0-.55228.4477-1 1-1zm-10.6 20.19998c0-.5523.44772-1 1-1h19.2c.5523 0 1 .4477 1 1s-.4477 1-1 1h-19.2c-.55228 0-1-.4477-1-1z" fill="currentColor" fill-rule="evenodd"/></svg>