<svg fill="none" height="24" viewBox="0 0 24 24" width="24" xmlns="http://www.w3.org/2000/svg"><path clip-rule="evenodd" d="m2.3999 1.40002c.55229 0 1 .44772 1 1v19.19998c0 .5523-.44771 1-1 1-.55228 0-1-.4477-1-1v-19.19998c0-.55228.44772-1 1-1zm7.2 7.4c-.7732 0-1.4.62681-1.4 1.39998v3.6c0 .7732.6268 1.4 1.4 1.4h9.6c.7732 0 1.4-.6268 1.4-1.4v-3.6c0-.77317-.6268-1.39997-1.4-1.39997zm-3.4 1.39998c0-1.87774 1.52224-3.39998 3.4-3.39998l9.6.00001c1.8778 0 3.4 1.52223 3.4 3.39997v3.6c0 1.8778-1.5222 3.4-3.4 3.4h-9.6c-1.87777 0-3.4-1.5222-3.4-3.4z" fill="currentColor" fill-rule="evenodd"/></svg>