<svg fill="none" height="24" viewBox="0 0 24 24" width="24" xmlns="http://www.w3.org/2000/svg"><path clip-rule="evenodd" d="m22.6001 19.2c0 .5523-.4477 1-1 1h-19.2c-.55228 0-1-.4477-1-1s.44772-1 1-1h19.2c.5523 0 1 .4477 1 1zm0-5.2c0 .5523-.4477 1-1 1h-19.2c-.55228 0-1-.4477-1-1s.44772-1 1-1h19.2c.5523 0 1 .4477 1 1zm0-5.20002c0 .55228-.4477 1-1 1l-19.2-.00001c-.55228 0-1-.44771-1-1 0-.55228.44772-1 1-1l19.2.00001c.5523 0 1 .44771 1 1zm0-5.2c0 .55228-.4477 1-1 1h-19.2c-.55228 0-1-.44772-1-1.00001 0-.55228.44772-.99999 1-.99999h19.2c.5523 0 1 .44771 1 1z" fill="currentColor" fill-rule="evenodd"/></svg>