<svg fill="none" height="24" viewBox="0 0 24 24" width="24" xmlns="http://www.w3.org/2000/svg"><path clip-rule="evenodd" d="m10.3378 3.59998c0-.55229.4477-1 1-1h10.2621c.5523 0 1 .44771 1 1 0 .55228-.4477 1-1 1h-10.2621c-.5523 0-1-.44772-1-1zm-8.9379 5.19999c0-.55228.44772-1 1-1h19.2c.5523 0 1 .44772 1 1 0 .55229-.4477 1-1 1h-19.2c-.55228 0-1-.44771-1-1zm5.07586 5.20003c0-.5523.44772-1 1-1h14.12414c.5523 0 1 .4477 1 1s-.4477 1-1 1h-14.12414c-.55228 0-1-.4477-1-1zm-5.07586 5.2c0-.5523.44772-1 1-1h19.2c.5523 0 1 .4477 1 1s-.4477 1-1 1h-19.2c-.55228 0-1-.4477-1-1z" fill="currentColor" fill-rule="evenodd"/></svg>