<svg fill="none" height="24" viewBox="0 0 24 24" width="24" xmlns="http://www.w3.org/2000/svg"><path clip-rule="evenodd" d="m11.9999 1.40002c.5523 0 1 .44772 1 1v4.23378l.8977-.93265c.383-.3979 1.0161-.40999 1.414-.02699.3979.38301.41 1.01606.027 1.41396l-2.6182 2.72007c-.1885.19581-.4487.30651-.7205.30651s-.532-.1107-.7205-.30651l-2.61815-2.72007c-.383-.3979-.37092-1.03095.02699-1.41395.3979-.383 1.03095-.37092 1.41396.02698l.8977.93265v-4.23378c0-.55228.4477-1 1-1zm-10.6 10.59968c0-.5523.44772-1 1-1h19.2c.5523 0 1 .4477 1 1s-.4477 1-1 1h-19.2c-.55228 0-1-.4477-1-1zm10.6 1.8856c.2718 0 .532.1107.7205.3066l2.6182 2.72c.383.3979.3709 1.031-.027 1.414s-1.031.3709-1.414-.027l-.8977-.9327v4.2338c0 .5523-.4477 1-1 1s-1-.4477-1-1v-4.2338l-.8977.9327c-.38301.3979-1.01606.41-1.41396.027-.39791-.383-.40999-1.0161-.02699-1.414l2.61815-2.72c.1885-.1959.4487-.3066.7205-.3066z" fill="currentColor" fill-rule="evenodd"/></svg>