<svg fill="none" height="24" viewBox="0 0 24 24" width="24" xmlns="http://www.w3.org/2000/svg"><path clip-rule="evenodd" d="m5 4c-.55229 0-1 .44771-1 1v9.3043c0 .5523.44772 1 1 1h4.75c.3848 0 .7355.2209.9018.5679l1.3855 2.8914 1.5214-2.9212c.1723-.3307.5141-.5381.887-.5381h4.5543c.5523 0 1-.4477 1-1v-9.3043c0-.55228-.4477-1-1-1zm-3 1c0-1.65686 1.34315-3 3-3h14c1.6569 0 3 1.34315 3 3v9.3043c0 1.6569-1.3431 3-3 3h-3.9477l-2.1654 4.1576c-.175.336-.5248.5443-.9036.538-.3787-.0064-.7214-.2262-.8851-.5678l-1.97791-4.1278h-4.12029c-1.65685 0-3-1.3431-3-3z" fill="currentColor" fill-rule="evenodd"/></svg>