<svg fill="none" height="24" viewBox="0 0 24 24" width="24" xmlns="http://www.w3.org/2000/svg"><path clip-rule="evenodd" d="m12 4c-4.41828 0-8 3.58172-8 8 0 4.4183 3.58172 8 8 8 4.4183 0 8-3.5817 8-8 0-4.41828-3.5817-8-8-8zm-10 8c0-5.52285 4.47715-10 10-10 5.5228 0 10 4.47715 10 10 0 5.5228-4.4772 10-10 10-5.52285 0-10-4.4772-10-10zm6.66034-3.37185c.05-.55001.53641-.95536 1.08643-.90536l5.15633.46876c.4807.0437.8616.4246.9053.90536l.4688 5.15629c.05.55-.3554 1.0364-.9054 1.0864s-1.0364-.3553-1.0864-.9053l-.2755-3.03-4.11531 4.1153c-.39053.3905-1.02369.3905-1.41422 0-.39052-.3905-.39052-1.0237 0-1.4142l4.11533-4.11536-3.03-.27546c-.55002-.05-.95536-.53641-.90536-1.08643z" fill="currentColor" fill-rule="evenodd"/></svg>