<svg fill="none" height="24" viewBox="0 0 24 24" width="24" xmlns="http://www.w3.org/2000/svg"><path clip-rule="evenodd" d="m12 4c-4.41828 0-8 3.58172-8 8 0 4.4183 3.58172 8 8 8 4.4183 0 8-3.5817 8-8 0-4.41828-3.5817-8-8-8zm-10 8c0-5.52285 4.47715-10 10-10 5.5228 0 10 4.47715 10 10 0 5.5228-4.4772 10-10 10-5.52285 0-10-4.4772-10-10zm9.5602-3.01877c.3709-.30904.9095-.30904 1.2804 0l3.9775 3.31457c.4243.3536.4816.9841.128 1.4084-.3535.4243-.9841.4816-1.4084.1281l-3.3373-2.7811-3.33732 2.7811c-.42427.3535-1.05484.2962-1.4084-.1281s-.29624-1.0548.12804-1.4084z" fill="currentColor" fill-rule="evenodd"/></svg>