<svg fill="none" height="24" viewBox="0 0 24 24" width="24" xmlns="http://www.w3.org/2000/svg"><path clip-rule="evenodd" d="m2 6.375c0-2.41624 1.95874-4.375 4.37498-4.375h11.25002c2.4163 0 4.375 1.95876 4.375 4.375v11.25c0 2.4162-1.9587 4.375-4.375 4.375h-11.25002c-2.41624 0-4.37498-1.9588-4.37498-4.375zm4.37498-2.375c-1.31166 0-2.37498 1.06332-2.37498 2.375v11.25c0 1.3117 1.06332 2.375 2.37498 2.375h11.25002c1.3117 0 2.375-1.0633 2.375-2.375v-11.25c0-1.31168-1.0633-2.375-2.375-2.375zm2.28127 4.75772c0-.55229.44771-1 1-1h5.62505c.5522 0 1 .44771 1 1v5.62508c0 .5522-.4478 1-1 1-.5523 0-1-.4478-1-1v-3.2109l-4.38669 4.3867c-.39053.3905-1.02369.3905-1.41422 0-.39052-.3905-.39052-1.0237 0-1.4142l4.38671-4.38668h-3.21085c-.55229 0-1-.44772-1-1z" fill="currentColor" fill-rule="evenodd"/></svg>