<svg fill="none" height="24" viewBox="0 0 24 24" width="24" xmlns="http://www.w3.org/2000/svg"><path clip-rule="evenodd" d="m7.45792 7.08066c0-.55229.4477-1.00001.99999-1.00001l8.52199-.00013c.2652 0 .5196.10536.7071.29289.1876.18754.2929.4419.2929.70711v8.40078c0 .5523-.4477 1-1 1s-1-.4477-1-1v-5.98656l-8.19237 8.19236c-.39052.3905-1.02369.3905-1.41421 0-.39053-.3905-.39053-1.0237 0-1.4142l8.19238-8.19234-6.10776.00009c-.55229 0-1.00001-.44771-1.00002-.99999z" fill="currentColor" fill-rule="evenodd"/></svg>