<svg fill="none" height="24" viewBox="0 0 24 24" width="24" xmlns="http://www.w3.org/2000/svg"><path clip-rule="evenodd" d="m6.69603 8h1.18276c.55228 0 1 .44772 1 1s-.44772 1-1 1h-3.87879c-.55228 0-1-.44772-1-1v-4c0-.55228.44772-1 1-1s1 .44772 1 1v1.93861c1.57023-2.36832 4.22151-3.93861 7.2424-3.93861 4.8655 0 8.7576 4.05867 8.7576 9 0 4.9413-3.8921 9-8.7576 9-3.90244 0-7.183-2.6163-8.32402-6.1963-.16772-.5262.1229-1.0888.6491-1.2565.52621-.1677 1.08874.1229 1.25645.6491.89494 2.8079 3.44538 4.8037 6.41847 4.8037 3.7033 0 6.7576-3.1048 6.7576-7 0-3.89522-3.0543-7-6.7576-7-2.28609 0-4.31927 1.17758-5.54637 3z" fill="currentColor" fill-rule="evenodd"/></svg>