<svg fill="none" height="24" viewBox="0 0 24 24" width="24" xmlns="http://www.w3.org/2000/svg"><path clip-rule="evenodd" d="m18.2399 8.01736h-1.2593c-.5523 0-1 .44772-1 1 0 .55229.4477 1.00004 1 1.00004h4.0194c.5523 0 1-.44775 1-1.00004v-4.01389c0-.55228-.4477-1-1-1s-1 .44772-1 1v2.04586c-1.6169-2.43868-4.3905-4.04933-7.5412-4.04933-3.7941 0-7.04074 2.33468-8.38122 5.6417-.20747.51184.03926 1.09495.5511 1.30242.51183.20748 1.09494-.03927 1.30241-.5511 1.04458-2.577 3.57447-4.39302 6.52771-4.39302 2.3935 0 4.5085 1.19225 5.7811 3.01736zm2.1314 6.09404c-.5118-.2074-1.0949.0393-1.3024.5511-1.0446 2.577-3.5745 4.3931-6.5277 4.3931-2.3935 0-4.50852-1.1923-5.78108-3.0174h1.25927c.55229 0 1-.4477 1-1s-.44771-1-1-1h-4.01939c-.55228 0-1 .4477-1 1v4.0139c0 .5523.44772 1 1 1 .55229 0 1-.4477 1-1v-2.0459c1.61694 2.4387 4.39049 4.0494 7.5412 4.0494 3.7941 0 7.0407-2.3347 8.3812-5.6417.2075-.5119-.0392-1.095-.5511-1.3025z" fill="currentColor" fill-rule="evenodd"/></svg>