<svg fill="none" height="24" viewBox="0 0 24 24" width="24" xmlns="http://www.w3.org/2000/svg"><path clip-rule="evenodd" d="m2 6.375c0-2.41624 1.95874-4.375 4.37498-4.375h11.25002c2.4163 0 4.375 1.95876 4.375 4.375v11.25c0 2.4162-1.9587 4.375-4.375 4.375h-11.25002c-2.41624 0-4.37498-1.9588-4.37498-4.375zm4.37498-2.375c-1.31166 0-2.37498 1.06332-2.37498 2.375v11.25c0 1.3117 1.06332 2.375 2.37498 2.375h11.25002c1.3117 0 2.375-1.0633 2.375-2.375v-11.25c0-1.31168-1.0633-2.375-2.375-2.375zm1.34331 4.75758c0-.55228.44772-1 1-1h5.62501c.5523 0 1 .44772 1 1 0 .55229-.4477 1-1 1h-3.2108l4.3867 4.38672c.3905.3905.3905 1.0237 0 1.4142-.3906.3905-1.0237.3905-1.4143 0l-4.38661-4.3867v3.2108c0 .5523-.44771 1-1 1-.55228 0-1-.4477-1-1z" fill="currentColor" fill-rule="evenodd"/></svg>