<svg fill="none" height="24" viewBox="0 0 24 24" width="24" xmlns="http://www.w3.org/2000/svg"><path clip-rule="evenodd" d="m3.29289 3.29289c.18754-.18753.44189-.29289.70711-.29289h4c.55228 0 1 .44772 1 1s-.44772 1-1 1h-1.58579l2.7929 2.79289c.39052.39053.39052 1.02369 0 1.41422-.39053.39052-1.02369.39052-1.41422 0l-2.79289-2.7929v1.58579c0 .55228-.44772 1-1 1s-1-.44772-1-1v-4c0-.26522.10536-.51957.29289-.70711zm14.29291 1.70711h-1.5858c-.5523 0-1-.44772-1-1s.4477-1 1-1h4c.5523 0 1 .44772 1 1v4c0 .55228-.4477 1-1 1s-1-.44772-1-1v-1.58579l-2.7929 2.7929c-.3905.39052-1.0237.39052-1.4142 0-.3905-.39053-.3905-1.02369 0-1.41422zm-8.37869 9.7929c.39052.3905.39052 1.0237 0 1.4142l-2.7929 2.7929h1.58579c.55228 0 1 .4477 1 1s-.44772 1-1 1h-4c-.55228 0-1-.4477-1-1v-4c0-.5523.44772-1 1-1s1 .4477 1 1v1.5858l2.79289-2.7929c.39053-.3905 1.02369-.3905 1.41422 0zm5.58579 0c.3905-.3905 1.0237-.3905 1.4142 0l2.7929 2.7929v-1.5858c0-.5523.4477-1 1-1s1 .4477 1 1v4c0 .5523-.4477 1-1 1h-4c-.5523 0-1-.4477-1-1s.4477-1 1-1h1.5858l-2.7929-2.7929c-.3905-.3905-.3905-1.0237 0-1.4142z" fill="currentColor" fill-rule="evenodd"/></svg>