<svg fill="none" height="24" viewBox="0 0 24 24" width="24" xmlns="http://www.w3.org/2000/svg"><path clip-rule="evenodd" d="m6.375 2c.55229 0 1 .44772 1 1v15.5858l1.66789-1.6679c.39053-.3905 1.02371-.3905 1.41421 0s.3905 1.0237 0 1.4142l-3.37499 3.375c-.39053.3905-1.02369.3905-1.41422 0l-3.375-3.375c-.39052-.3905-.39052-1.0237 0-1.4142.39053-.3905 1.02369-.3905 1.41422 0l1.66789 1.6679v-15.5858c0-.55228.44772-1 1-1zm11.25 0c.2652 0 .5196.10536.7071.29289l3.375 3.375c.3905.39053.3905 1.02369 0 1.41422-.3905.39052-1.0237.39052-1.4142 0l-1.6679-1.6679v15.58579c0 .5523-.4477 1-1 1s-1-.4477-1-1v-15.58578l-1.6679 1.66789c-.3905.39052-1.0237.39052-1.4142 0-.3905-.39053-.3905-1.02369 0-1.41422l3.375-3.375c.1875-.18753.4419-.29289.7071-.29289z" fill="currentColor" fill-rule="evenodd"/></svg>