<svg fill="none" height="24" viewBox="0 0 24 24" width="24" xmlns="http://www.w3.org/2000/svg"><path clip-rule="evenodd" d="m17.6569 6.34315c-3.1242-3.1242-8.18956-3.1242-11.31375 0-3.1242 3.12419-3.1242 8.18955 0 11.31375 3.12419 3.1241 8.18955 3.1241 11.31375 0 3.1241-3.1242 3.1241-8.18956 0-11.31375zm-12.72797-1.41422c3.90525-3.90524 10.23687-3.90524 14.14217 0 3.9052 3.90525 3.9052 10.23687 0 14.14217-3.9053 3.9052-10.23692 3.9052-14.14217 0-3.90524-3.9053-3.90524-10.23692 0-14.14217zm6.43087 2.32532c.3708-.30904.9095-.30904 1.2804 0l3.9775 3.31455c.4242.3536.4816.9842.128 1.4084-.3536.4243-.9841.4816-1.4084.1281l-2.3373-1.9478v5.82c0 .5523-.4477 1-1 1s-1-.4477-1-1v-5.82l-2.33735 1.9478c-.42427.3535-1.05484.2962-1.4084-.1281-.35357-.4242-.29624-1.0548.12803-1.4084z" fill="currentColor" fill-rule="evenodd"/></svg>