<svg fill="none" height="24" viewBox="0 0 24 24" width="24" xmlns="http://www.w3.org/2000/svg"><path clip-rule="evenodd" d="m16 6.75719v1.24829c0 .55229-.4477 1-1 1s-1-.44771-1-1v-4.00549c0-.55228.4477-1 1-1h4c.5523 0 1 .44772 1 1 0 .55229-.4477 1-1 1h-2.0273c2.4258 1.61287 4.0273 4.37475 4.0273 7.51171 0 3.7824-2.3275 7.019-5.6243 8.3554-.5119.2074-1.095-.0393-1.3025-.5511-.2074-.5119.0393-1.095.5511-1.3024 2.5669-1.0405 4.3757-3.5604 4.3757-6.5019 0-2.3817-1.1852-4.48656-3-5.75451zm-6.07324-2.132c.20744.51184-.03927 1.09495-.5511 1.30242-2.56682 1.04045-4.37566 3.56035-4.37566 6.50189 0 2.3816 1.18516 4.4865 3 5.7545v-1.2483c0-.5523.44772-1 1-1 .55229 0 1 .4477 1 1v4.0055c0 .2652-.10536.5195-.29289.7071-.18754.1875-.44189.2929-.70711.2929h-4c-.55228 0-1-.4477-1-1s.44772-1 1-1h2.02731c-2.42582-1.6129-4.02731-4.3748-4.02731-7.5117 0-3.78241 2.3275-7.01905 5.62434-8.35541.51184-.20747 1.09495.03927 1.30242.5511z" fill="currentColor" fill-rule="evenodd"/></svg>