<svg fill="none" height="24" viewBox="0 0 24 24" width="24" xmlns="http://www.w3.org/2000/svg"><path clip-rule="evenodd" d="m6.70107 7.3125h1.31832c.55229 0 1 .44772 1 1 0 .55229-.44771 1-1 1h-4.01939c-.55228 0-1-.44771-1-1v-4.25c0-.55228.44772-1 1-1s1 .44772 1 1v2.19821c1.6078-2.55123 4.37288-4.26071 7.5412-4.26071 3.8284 0 7.0627 2.49211 8.3884 5.95498.1974.51578-.0606 1.09397-.5764 1.29143-.5158.19745-1.094-.06061-1.2914-.57639-1.0594-2.76727-3.6017-4.67002-6.5206-4.67002-2.4133 0-4.56536 1.298-5.84013 3.3125zm-2.05426 6.4411c.51578-.1975 1.09397.0606 1.29143.5764 1.05938 2.7673 3.60164 4.67 6.52056 4.67 2.4133 0 4.5654-1.298 5.8401-3.3125h-1.3183c-.5523 0-1-.4477-1-1s.4477-1 1-1h4.0194c.5523 0 1 .4477 1 1v4.25c0 .5523-.4477 1-1 1s-1-.4477-1-1v-2.1982c-1.6078 2.5512-4.3729 4.2607-7.5412 4.2607-3.82842 0-7.0627-2.4921-8.38837-5.955-.19746-.5158.0606-1.094.57638-1.2914z" fill="currentColor" fill-rule="evenodd"/></svg>