<svg fill="none" height="24" viewBox="0 0 24 24" width="24" xmlns="http://www.w3.org/2000/svg"><path clip-rule="evenodd" d="m2 6.375c0-2.41625 1.95876-4.375 4.375-4.375h11.2501c2.4162 0 4.375 1.95876 4.375 4.375v11.25c0 2.4162-1.9588 4.375-4.375 4.375h-11.2501c-2.41625 0-4.375-1.9588-4.375-4.375zm4.375-2.375c-1.31168 0-2.375 1.06332-2.375 2.375v11.25c0 1.3117 1.06332 2.375 2.375 2.375h11.2501c1.3117 0 2.375-1.0633 2.375-2.375v-11.25c0-1.31168-1.0633-2.375-2.375-2.375zm5.625 2.9835c.5523 0 1 .44771 1 1v6.1457l2.2796-2.2215c.3956-.3854 1.0287-.3772 1.4141.0183.3855.3955.3773 1.0287-.0182 1.4141l-3.9775 3.8761c-.3884.3784-1.0075.3784-1.3959 0l-3.97747-3.8761c-.39553-.3855-.40371-1.0186-.01826-1.4141s1.01856-.4037 1.41409-.0183l2.27954 2.2215v-6.1457c0-.55229.4478-1 1-1z" fill="currentColor" fill-rule="evenodd"/></svg>