<svg fill="none" height="24" viewBox="0 0 24 24" width="24" xmlns="http://www.w3.org/2000/svg"><path clip-rule="evenodd" d="m17.304 8h-1.1828c-.5523 0-1 .44772-1 1s.4477 1 1 1h3.8788c.5523 0 1-.44772 1-1v-4c0-.55228-.4477-1-1-1s-1 .44772-1 1v1.93861c-1.5702-2.36832-4.2215-3.93861-7.2424-3.93861-4.86548 0-8.7576 4.05867-8.7576 9 0 4.9413 3.89212 9 8.7576 9 3.9024 0 7.183-2.6163 8.324-6.1963.1677-.5262-.1229-1.0888-.6491-1.2565s-1.0887.1229-1.2564.6491c-.895 2.8079-3.4454 4.8037-6.4185 4.8037-3.70335 0-6.7576-3.1048-6.7576-7 0-3.89522 3.05425-7 6.7576-7 2.2861 0 4.3193 1.17758 5.5464 3z" fill="currentColor" fill-rule="evenodd"/></svg>