<svg fill="none" height="24" viewBox="0 0 24 24" width="24" xmlns="http://www.w3.org/2000/svg"><path clip-rule="evenodd" d="m12 4c-4.41828 0-8 3.58172-8 8 0 4.4183 3.58172 8 8 8 4.4183 0 8-3.5817 8-8 0-4.41828-3.5817-8-8-8zm-10 8c0-5.52285 4.47715-10 10-10 5.5228 0 10 4.47715 10 10 0 5.5228-4.4772 10-10 10-5.52285 0-10-4.4772-10-10zm13.3396-3.37181c.05.55002-.3553 1.03643-.9053 1.08643l-3.03.27546 4.1153 4.11532c.3905.3905.3905 1.0237 0 1.4142-.3905.3906-1.0237.3906-1.4142 0l-4.11536-4.1153-.27546 3.03c-.05.55-.53641.9554-1.08643.9054-.55001-.05-.95536-.5365-.90536-1.0865l.46876-5.15626c.0437-.48075.4246-.86165.90536-.90535l5.15629-.46876c.55-.05 1.0364.35535 1.0864.90536z" fill="currentColor" fill-rule="evenodd"/></svg>