<svg fill="none" height="24" viewBox="0 0 24 24" width="24" xmlns="http://www.w3.org/2000/svg"><path clip-rule="evenodd" d="m7.42278 7.09326 1.17391 1.21059c.27961.28836.35957.71603.20301 1.08593-.15656.36989-.51925.61022-.92091.61022h-3.87879c-.55228 0-1-.44772-1-1v-4c0-.40726.24698-.77384.62443-.9268.37745-.15295.80996-.06172 1.09347.23065l1.312 1.353c1.58216-1.63638 3.77723-2.65685 6.2125-2.65685 4.8655 0 8.7576 4.05867 8.7576 9 0 4.9413-3.8921 9-8.7576 9-3.90244 0-7.183-2.6163-8.32402-6.1963-.16772-.5262.1229-1.0888.6491-1.2565.52621-.1677 1.08874.1229 1.25645.6491.89494 2.8079 3.44538 4.8037 6.41847 4.8037 3.7033 0 6.7576-3.1048 6.7576-7 0-3.89522-3.0543-7-6.7576-7-1.8802 0-3.58932.79654-4.81962 2.09326z" fill="currentColor" fill-rule="evenodd"/></svg>