<svg fill="none" height="24" viewBox="0 0 24 24" width="24" xmlns="http://www.w3.org/2000/svg"><path clip-rule="evenodd" d="m8.19995 4.68084v12.60036c0 2.6684 1.66797 4.5188 4.06265 4.5188 2.4788 0 4.2183-1.9371 4.2183-4.5188v-11.20924c0-.55228.4477-1 1-1 .5522 0 1 .44772 1 1v11.20924c0 3.5201-2.4759 6.5188-6.2183 6.5188-3.7072 0-6.06265-2.9659-6.06265-6.5188v-12.60036c0-2.48075 2.00004-4.48079 4.48075-4.48079 2.4808 0 4.4808 2.00004 4.4808 4.48079v12.82166c0 1.5134-1.2269 2.7403-2.7404 2.7403-1.5134 0-2.74036-1.2269-2.74036-2.7403v-11.43054c0-.55228.44776-1 .99996-1 .5523 0 1 .44772 1 1v11.43054c0 .4089.3315.7403.7404.7403.409 0 .7404-.3314.7404-.7403v-12.82166c0-1.37618-1.1046-2.48079-2.4808-2.48079-1.37614 0-2.48075 1.10461-2.48075 2.48079z" fill="currentColor" fill-rule="evenodd"/></svg>