<svg fill="none" height="24" viewBox="0 0 24 24" width="24" xmlns="http://www.w3.org/2000/svg"><path clip-rule="evenodd" d="m14.7194 4.69494-8.90978 8.90976c-1.88683 1.8869-2.01587 4.3748-.32259 6.0681 1.75277 1.7527 4.35255 1.613 6.17807-.2126l7.9261-7.9261c.3906-.3905 1.0237-.3905 1.4143 0 .3905.3905.3905 1.0237 0 1.4142l-7.9262 7.9261c-2.4891 2.4892-6.36017 2.8589-9.00649.2126-2.62137-2.6214-2.18965-6.3842.3226-8.8965l8.90979-8.90977c1.7542-1.75416 4.5826-1.75416 6.3368 0 1.7542 1.75415 1.7542 4.58264 0 6.3368l-9.0662 9.06627c-1.07023 1.0702-2.80536 1.0702-3.87555 0s-1.07019-2.8053 0-3.8755l8.08255-8.08261c.3906-.39052 1.0237-.39052 1.4142 0 .3906.39053.3906 1.02369 0 1.41422l-8.08253 8.08259c-.28915.2891-.28915.7579 0 1.0471.28914.2891.75793.2891 1.04707 0l9.06626-9.06629c.9731-.9731.9731-2.53526 0-3.50837s-2.5353-.97311-3.5084 0z" fill="currentColor" fill-rule="evenodd"/></svg>