<svg fill="none" height="24" viewBox="0 0 24 24" width="24" xmlns="http://www.w3.org/2000/svg"><path clip-rule="evenodd" d="m7.3999 6.51594v1.88405c0 .55228.44772 1 1 1 .55229 0 1-.44772 1-1v-1.88405h5.2v1.88405c0 .55228.4477 1 1 1s1-.44772 1-1v-1.88405h1.1818c.7508 0 1.3273.59248 1.3273 1.28402 0 .04082.0025.08161.0075.12213l1.4823 12.04621c-.0282.6688-.5944 1.2317-1.3262 1.2317h-14.54543c-.73549 0-1.30369-.5686-1.32655-1.2419l1.19441-12.05958c.00325-.03276.00487-.06565.00487-.09856 0-.69154.57647-1.28402 1.32727-1.28402zm9.1151-2h1.2667c1.7977 0 3.2905 1.41754 3.3266 3.21729l1.4841 12.06057c.005.0406.0075.0813.0075.1222 0 1.8313-1.5074 3.284-3.3273 3.284h-14.54543c-1.81983 0-3.32727-1.4527-3.32727-3.284 0-.0329.00163-.0658.00487-.0986l1.19557-12.07123c.02917-1.80589 1.52486-3.23023 3.32683-3.23023h1.5576c.41221-2.11755 2.27701-3.715952 4.51513-3.715952 2.2381 0 4.1029 1.598402 4.5151 3.715952zm-6.96094 0h4.89164c-.3617-1.00074-1.3202-1.71595-2.4458-1.71595-1.1255 0-2.08405.71521-2.44584 1.71595z" fill="currentColor" fill-rule="evenodd"/></svg>