<svg fill="none" height="24" viewBox="0 0 24 24" width="24" xmlns="http://www.w3.org/2000/svg"><path clip-rule="evenodd" d="m7.20501 5.55134c.46553-2.36638 2.5515-4.15135 5.05439-4.15135 2.5028 0 4.5888 1.78497 5.0543 4.15135h1.1727c1.6987 0 3.0757 1.37703 3.0757 3.07568v10.89728c0 1.6987-1.377 3.0757-3.0757 3.0757h-12.97298c-1.69865 0-3.07568-1.377-3.07568-3.0757v-10.89728c0-1.69865 1.37703-3.07568 3.07568-3.07568zm-1.69159 2c-.59408 0-1.07568.4816-1.07568 1.07568v10.89728c0 .5941.4816 1.0757 1.07568 1.0757h12.97298c.5941 0 1.0757-.4816 1.0757-1.0757v-10.89728c0-.59408-.4816-1.07568-1.0757-1.07568zm9.73538-2h-5.97881c.41805-1.25025 1.59851-2.15135 2.98941-2.15135s2.5713.9011 2.9894 2.15135zm-7.84438 4.44072c.39247-.38856 1.02563-.3854 1.41419.00707l.00612.00617c.38857.3925.3854 1.0256-.00707 1.4142s-1.02563.3854-1.4142-.0071l-.00611-.0061c-.38857-.3925-.3854-1.0257.00707-1.41424zm8.28958 1.41414c-.3886-.3924-.3854-1.0256.0071-1.41416.3924-.38855 1.0256-.38537 1.4142.00711l.0061.00615c.3885.3925.3854 1.0257-.0071 1.4142-.3925.3886-1.0257.3854-1.4142-.0071z" fill="currentColor" fill-rule="evenodd"/></svg>