<svg fill="none" height="24" viewBox="0 0 24 24" width="24" xmlns="http://www.w3.org/2000/svg"><path clip-rule="evenodd" d="m2.60026 5.29304c.02658-1.80818 1.52333-3.23506 3.32691-3.23506h11.85453c1.7997 0 3.2938 1.42067 3.3267 3.22325l1.4853 13.26547c.0041.037.0062.0741.0062.1113 0 1.8313-1.5074 3.284-3.3273 3.284h-14.54543c-1.81983 0-3.32727-1.4527-3.32727-3.284 0-.0299.00135-.0599.00404-.0897zm3.32691-1.23506c-.7508 0-1.32727.59248-1.32727 1.28402 0 .02996-.00134.05991-.00403.08975l-1.19537 13.26465c.02086.6749.5898 1.2456 1.32667 1.2456h14.54543c.7335 0 1.3006-.5655 1.3264-1.2363l-1.4838-13.25243c-.0041-.03695-.0062-.0741-.0062-.11127 0-.69154-.5765-1.28402-1.3273-1.28402zm2.47273 3.28405c.55229 0 1 .44771 1 1 0 1.43594 1.1641 2.59997 2.6 2.59997s2.6-1.16403 2.6-2.59997c0-.55229.4477-1 1-1s1 .44771 1 1c0 2.54047-2.0595 4.59997-4.6 4.59997-2.54051 0-4.6-2.0595-4.6-4.59997 0-.55229.44772-1 1-1z" fill="currentColor" fill-rule="evenodd"/></svg>