<svg fill="none" height="24" viewBox="0 0 24 24" width="24" xmlns="http://www.w3.org/2000/svg"><path clip-rule="evenodd" d="m1.3999 4.20012c0-1.5464 1.2536-2.8 2.8-2.8h15.6c1.5464 0 2.8 1.2536 2.8 2.8v8.39998c0 1.5464-1.2536 2.8-2.8 2.8h-2.4c-.5523 0-1-.4477-1-1s.4477-1 1-1h2.4c.4418 0 .8-.3582.8-.8v-8.39998c0-.44183-.3582-.8-.8-.8h-15.6c-.44183 0-.8.35817-.8.8v8.39998c0 .4418.35817.8.8.8h2.4c.55229 0 1 .4477 1 1s-.44771 1-1 1h-2.4c-1.5464 0-2.8-1.2536-2.8-2.8zm4.6.8c.55229 0 1 .44771 1 1v4.19998c0 .5523-.44771 1-1 1-.55228 0-1-.4477-1-1v-4.19998c0-.55229.44772-1 1-1zm6 2c-.7732 0-1.4.6268-1.4 1.4s.6268 1.4 1.4 1.4 1.4-.6268 1.4-1.4-.6268-1.4-1.4-1.4zm-3.4 1.4c0-1.87777 1.5222-3.4 3.4-3.4s3.4 1.52223 3.4 3.4c0 1.87778-1.5222 3.39998-3.4 3.39998s-3.4-1.5222-3.4-3.39998zm9.4-3.4c.5523 0 1 .44771 1 1v4.19998c0 .5523-.4477 1-1 1s-1-.4477-1-1v-4.19998c0-.55229.4477-1 1-1zm-6.0008 8.65748c.5523 0 1 .4477 1 1l-.0001 4.528 1.4583-1.4583c.3905-.3905 1.0237-.3905 1.4142 0 .3905.3906.3905 1.0237 0 1.4143l-3.1654 3.1654c-.1876.1875-.4419.2929-.7072.2929-.2652 0-.5195-.1054-.7071-.2929l-3.39407-3.3941c-.39053-.3905-.39052-1.0237 0-1.4142s1.02369-.3905 1.41421 0l1.68706 1.687.0001-4.5282c0-.5522.4477-.9999 1-.9999z" fill="currentColor" fill-rule="evenodd"/></svg>