<svg fill="none" height="24" viewBox="0 0 24 24" width="24" xmlns="http://www.w3.org/2000/svg"><path clip-rule="evenodd" d="m1.3999 7.8c0-1.5464 1.2536-2.8 2.8-2.8h15.6c1.5464 0 2.8 1.2536 2.8 2.8v8.4c0 1.5464-1.2536 2.8-2.8 2.8h-15.6c-1.5464 0-2.8-1.2536-2.8-2.8zm2.8-.8c-.44183 0-.8.35817-.8.8v8.4c0 .4418.35817.8.8.8h15.6c.4418 0 .8-.3582.8-.8v-8.4c0-.44183-.3582-.8-.8-.8zm7.8 3.6c-.7732 0-1.4.6268-1.4 1.4s.6268 1.4 1.4 1.4 1.4-.6268 1.4-1.4-.6268-1.4-1.4-1.4zm-3.4 1.4c0-1.8778 1.5222-3.4 3.4-3.4s3.4 1.5222 3.4 3.4-1.5222 3.4-3.4 3.4-3.4-1.5222-3.4-3.4z" fill="currentColor" fill-rule="evenodd"/></svg>