<svg fill="none" height="24" viewBox="0 0 24 24" width="24" xmlns="http://www.w3.org/2000/svg"><path clip-rule="evenodd" d="m20.6001 6.49167c-2.5778-.88889-5.412-.93568-8.028-.12634-2.86453.88624-5.95937.88624-8.82391 0l-.34807-.10768-.0002 11.08645.93915.2906c2.47946.7671 5.16221.7671 7.64163 0 2.8024-.867 5.8186-.884 8.6192-.0617zm-8.6191-2.03698c3.1308-.96864 6.5285-.87627 9.5944.26198l.3728.13838c.3919.1455.652.51944.652.9375l-.0003 12.78235c0 .8895-.8869 1.5063-1.7208 1.1967-2.6513-.9843-5.5964-1.0649-8.3072-.2263-2.86458.8863-5.95942.8863-8.82395 0l.29556-.9553-.29556.9553-1.64361-.5085c-.41885-.1296-.70445-.5169-.70444-.9553l.00022-11.82389c.00003-1.34688 1.30441-2.3087 2.59112-1.91061l.34807.10769c2.47946.7671 5.16222.7671 7.64169 0zm.0189 6.13531c-.7732 0-1.4.6268-1.4 1.4s.6268 1.4 1.4 1.4 1.4-.6268 1.4-1.4-.6268-1.4-1.4-1.4zm-3.4 1.4c0-1.8778 1.5222-3.39999 3.4-3.39999s3.4 1.52219 3.4 3.39999-1.5222 3.4-3.4 3.4-3.4-1.5222-3.4-3.4z" fill="currentColor" fill-rule="evenodd"/></svg>