<svg fill="none" height="24" viewBox="0 0 24 24" width="24" xmlns="http://www.w3.org/2000/svg"><path clip-rule="evenodd" d="m4.7999 3.40002c-.7732 0-1.4.62681-1.4 1.4v2.62013c.30638-.06227.63727.01967.88301.24947l3.16675 2.96128 2.06682-1.93273c.3844-.35945.98162-.35945 1.36602 0l4.9174 4.59833v-2.0603c0-.5523.4477-1 1-1s1 .4477 1 1v4.3638c0 .5523-.4477 1-1 1h-4.6666c-.5523 0-1-.4477-1-1s.4477-1 1-1h2.1324l-4.0662-3.8023-2.06683 1.9327c-.3844.3594-.98162.3594-1.36602 0l-3.36675-3.1483v9.6179c0 .7732.6268 1.4 1.4 1.4h14.4c.7732 0 1.4-.6268 1.4-1.4v-14.39998c0-.77319-.6268-1.4-1.4-1.4zm-3.4 1.4c0-1.87776 1.52223-3.4 3.4-3.4h14.4c1.8778 0 3.4 1.52224 3.4 3.4v14.39998c0 1.8778-1.5222 3.4-3.4 3.4h-14.4c-1.87777 0-3.4-1.5222-3.4-3.4z" fill="currentColor" fill-rule="evenodd"/></svg>