<svg fill="none" height="24" viewBox="0 0 24 24" width="24" xmlns="http://www.w3.org/2000/svg"><path clip-rule="evenodd" d="m15.1999 2.30005c.5523 0 1 .44771 1 1v17.40005c0 .5522-.4477 1-1 1s-1-.4478-1-1v-17.40005c0-.55229.4477-1 1-1zm-12.8 4.6c.55229 0 1 .44771 1 1v12.80005c0 .5522-.44771 1-1 1-.55228 0-1-.4478-1-1v-12.80005c0-.55229.44772-1 1-1zm19.2 0c.5523 0 1 .44771 1 1v12.80005c0 .5522-.4477 1-1 1s-1-.4478-1-1v-12.80005c0-.55229.4477-1 1-1zm-12.8 5.33335c.55229 0 1 .4477 1 1v7.4667c0 .5522-.44771 1-1 1-.55228 0-1-.4478-1-1v-7.4667c0-.5523.44772-1 1-1z" fill="currentColor" fill-rule="evenodd"/></svg>