<svg fill="none" height="24" viewBox="0 0 24 24" width="24" xmlns="http://www.w3.org/2000/svg"><path clip-rule="evenodd" d="m21.5999 1.40002c.5523 0 1 .44772 1 1v19.19998c0 .5523-.4477 1-1 1s-1-.4477-1-1v-19.19998c0-.55228.4477-1 1-1zm-6.4 6.4c.5523 0 1 .44772 1 1v12.79998c0 .5523-.4477 1-1 1s-1-.4477-1-1v-12.79998c0-.55228.4477-1 1-1zm-6.4 5.33338c.55229 0 1 .4477 1 1v7.4666c0 .5523-.44771 1-1 1-.55228 0-1-.4477-1-1v-7.4666c0-.5523.44772-1 1-1zm-6.4 5.3333c.55229 0 1 .4477 1 1v2.1333c0 .5523-.44771 1-1 1-.55228 0-1-.4477-1-1v-2.1333c0-.5523.44772-1 1-1z" fill="currentColor" fill-rule="evenodd"/></svg>