<svg fill="none" height="24" viewBox="0 0 24 24" width="24" xmlns="http://www.w3.org/2000/svg"><path clip-rule="evenodd" d="m4.7999 3.40002c-.7732 0-1.4.62681-1.4 1.4v14.39998c0 .7732.6268 1.4 1.4 1.4h14.4c.7732 0 1.4-.6268 1.4-1.4v-14.39998c0-.77319-.6268-1.4-1.4-1.4zm-3.4 1.4c0-1.87776 1.52223-3.4 3.4-3.4h14.4c1.8778 0 3.4 1.52224 3.4 3.4v14.39998c0 1.8778-1.5222 3.4-3.4 3.4h-14.4c-1.87777 0-3.4-1.5222-3.4-3.4zm10.6 1.4c.5523 0 1 .44772 1 1v9.59998c0 .5523-.4477 1-1 1s-1-.4477-1-1v-9.59998c0-.55228.4477-1 1-1zm4.8 3.6c.5523 0 1 .44768 1 .99998v6c0 .5523-.4477 1-1 1s-1-.4477-1-1v-6c0-.5523.4477-.99998 1-.99998zm-9.6 3.59998c.55229 0 1 .4477 1 1v2.4c0 .5523-.44771 1-1 1-.55228 0-1-.4477-1-1v-2.4c0-.5523.44772-1 1-1z" fill="currentColor" fill-rule="evenodd"/></svg>