<svg fill="none" height="24" viewBox="0 0 24 24" width="24" xmlns="http://www.w3.org/2000/svg"><path clip-rule="evenodd" d="m4.7999 3.40002c-.7732 0-1.4.62681-1.4 1.4v9.61788l3.36675-3.1482c.3844-.3595.98162-.3595 1.36602 0l2.06683 1.9327 4.0662-3.80238h-2.1324c-.5523 0-1-.44771-1-1 0-.55228.4477-1 1-1h4.6666c.5523 0 1 .44772 1 1v4.36378c0 .5523-.4477 1-1 1s-1-.4477-1-1v-2.0602l-4.9174 4.5983c-.3844.3594-.98162.3594-1.36602 0l-2.06682-1.9327-3.16675 2.9612c-.24574.2298-.57663.3118-.88301.2495v2.6201c0 .7732.6268 1.4 1.4 1.4h14.4c.7732 0 1.4-.6268 1.4-1.4v-14.39998c0-.77319-.6268-1.4-1.4-1.4zm-3.4 1.4c0-1.87776 1.52223-3.4 3.4-3.4h14.4c1.8778 0 3.4 1.52224 3.4 3.4v14.39998c0 1.8778-1.5222 3.4-3.4 3.4h-14.4c-1.87777 0-3.4-1.5222-3.4-3.4z" fill="currentColor" fill-rule="evenodd"/></svg>