<svg fill="none" height="24" viewBox="0 0 24 24" width="24" xmlns="http://www.w3.org/2000/svg"><path clip-rule="evenodd" d="m4.7999 3.40002c-.7732 0-1.4.62681-1.4 1.4v14.39998c0 .7732.6268 1.4 1.4 1.4h14.4c.7732 0 1.4-.6268 1.4-1.4v-14.39998c0-.77319-.6268-1.4-1.4-1.4zm-3.4 1.4c0-1.87776 1.52223-3.4 3.4-3.4h14.4c1.8778 0 3.4 1.52224 3.4 3.4v14.39998c0 1.8778-1.5222 3.4-3.4 3.4h-14.4c-1.87777 0-3.4-1.5222-3.4-3.4zm5.09289 4.0929c.39053-.39053 1.02369-.39053 1.41422 0l2.89289 2.89288 2.2929-2.29288c.3905-.39053 1.0237-.39053 1.4142 0l3.6 3.59998c.3905.3905.3905 1.0237 0 1.4142-.3905.3906-1.0237.3906-1.4142 0l-2.8929-2.8929-2.2929 2.2929c-.3905.3906-1.0237.3906-1.4142 0l-3.60001-3.6c-.39052-.39049-.39052-1.02366 0-1.41418z" fill="currentColor" fill-rule="evenodd"/></svg>