<svg fill="none" height="24" viewBox="0 0 24 24" width="24" xmlns="http://www.w3.org/2000/svg"><path clip-rule="evenodd" d="m11.9999 4c-3.06749 0-5.70701 2.75539-5.70701 6.3517v.0111h-.00006l-.02435 2.18c-.00121 1.4596-.45905 2.7026-.99951 3.639h13.47043c-.519-.9383-.958-2.1838-.958-3.6448v-.0118l.0244-2.071c-.0028-3.65325-2.6854-6.4542-5.8059-6.4542zm-7.707 6.3459c.00285-4.52163 3.368-8.3459 7.707-8.3459 4.3955 0 7.8059 3.876 7.8059 8.4599v.0118h-.0001l-.0243 2.0709c.0013 1.2722.4647 2.3397.952 3.0729.3467.5217.3098 1.1327.1438 1.5602-.1602.4125-.5996 1.0061-1.3839 1.0061h-14.98573c-.79708 0-1.23489-.6113-1.3906-1.0247-.16198-.4301-.19631-1.0516.16662-1.5753.50904-.7345.9849-1.7916.9849-3.0448v-.0112h.00006zm4.25907 9.1208c.34471-.4315.97395-.5018 1.40545-.1571.52798.4218 1.24168.6904 2.04248.6904s1.5145-.2686 2.0425-.6904c.4315-.3447 1.0608-.2744 1.4055.1571s.2744 1.0608-.1571 1.4055c-.8874.7089-2.0427 1.1278-3.2909 1.1278-1.2481 0-2.40344-.4189-3.29079-1.1278-.4315-.3447-.50186-.974-.15714-1.4055z" fill="currentColor" fill-rule="evenodd"/></svg>