<svg fill="none" height="24" viewBox="0 0 24 24" width="24" xmlns="http://www.w3.org/2000/svg"><path clip-rule="evenodd" d="m5.03254 2.18355c.45093-.31888 1.07498-.21184 1.39386.23909l12.3433 17.45456c.3189.4509.2119 1.075-.2391 1.3938-.4509.3189-1.0749.2119-1.3938-.239l-1.6299-2.3048h-10.99617c-.79471 0-1.23494-.6065-1.3927-1.0228-.16351-.4314-.19795-1.055.16789-1.5796l.80582.562.01442.01m-.01442-.01-.80582-.562c.51228-.7346.99049-1.7909.99049-3.0424v-.0112h.00006l.0245-2.1799c.00124-1.96519.63321-3.78129 1.6997-5.21531.04706-.06328.10017-.11939.15793-.16815l-1.36515-1.93044c-.31888-.45092-.21183-1.07497.23909-1.39385m2.33335 5.03151 6.72671 9.51214h-8.82111c.54334-.9363 1.00369-2.1793 1.00491-3.639l.02451-2.1799h.00006v-.0112c0-1.37921.39723-2.64794 1.06492-3.68204zm4.68401-2.66958c-.3424 0-.6771.03299-1.0018.09604-.5421.10529-1.06699-.24887-1.17227-.79103-.10528-.54215.24887-1.06701.79107-1.17229.4494-.08727.9117-.13272 1.383-.13272 4.4133 0 7.8484 3.86986 7.8484 8.45992v.0118h-.0001l-.0245 2.0708c.0014 1.2705.4671 2.3372.9575 3.0705.307.4591.1837 1.0801-.2754 1.3871s-1.0801.1838-1.3871-.2753c-.6515-.9742-1.295-2.4239-1.295-4.1879v-.0118h.0001l.0245-2.071c-.0029-3.64712-2.6989-6.45412-5.8484-6.45412zm-3.68331 16.45452c0-.5523.44771-1 1-1h5.36661c.5523 0 1 .4477 1 1s-.4477 1-1 1h-5.36661c-.55229 0-1-.4477-1-1z" fill="currentColor" fill-rule="evenodd"/></svg>