<svg fill="none" height="24" viewBox="0 0 24 24" width="24" xmlns="http://www.w3.org/2000/svg"><path clip-rule="evenodd" d="m7.6856 2.50598c.27284.48019.10474 1.09063-.37544 1.36347-1.0637.60437-1.90168 1.61875-2.37537 2.86507-.19622.51626-.77379.7757-1.29004.57948-.51626-.19621-.7757-.77378-.57948-1.29004.62142-1.63499 1.74768-3.03594 3.25687-3.89343.48019-.27283 1.09063-.10474 1.36346.37545zm8.6145-.00037c.278-.47718.8903-.6386 1.3675-.36053 1.4851.86543 2.6599 2.22095 3.2708 3.87928.1909.51824-.0745 1.09311-.5927 1.28402-.5183.1909-1.0931-.07446-1.284-.5927-.4445-1.20649-1.3028-2.20259-2.4011-2.84259-.4772-.27806-.6386-.8903-.3605-1.36748zm-4.2984 2.69895c-2.81187 0-5.28637 2.6052-5.28637 6.07404v.0109h-.00006l-.02282 2.0976c-.00113 1.3825-.41636 2.5646-.91352 3.4637h12.45467c-.4775-.9008-.8758-2.0853-.8758-3.4694v-.0114h.0001l.0228-1.9927c-.0027-3.52365-2.5175-6.17274-5.379-6.17274zm-7.28637 6.06844c.00271-4.34253 3.15629-8.06844 7.28637-8.06844 4.183 0 7.379 3.77577 7.379 8.17824v.0115h-.0001l-.0228 1.9926c.0013 1.2215.4347 2.245.8885 2.9459.3304.5105.2942 1.1033.1375 1.5177-.1486.3928-.5721 1.0003-1.3587 1.0003h-14.04584c-.79936 0-1.22087-.6254-1.36506-1.0185-.15282-.4165-.18678-1.0196.15939-1.5324.47386-.702.91886-1.7154.91886-2.9185v-.0109h.00006zm3.78696 9.727c0-.5523.44771-1 1-1h4.99881c.5523 0 1 .4477 1 1s-.4477 1-1 1h-4.99881c-.55229 0-1-.4477-1-1z" fill="currentColor" fill-rule="evenodd"/></svg>