<svg fill="none" height="24" viewBox="0 0 24 24" width="24" xmlns="http://www.w3.org/2000/svg"><path clip-rule="evenodd" d="m11.1562 2.10392c.3407-.16873.7475-.12975 1.0499.10058l6.4 4.875c.2591.19736.4058.50854.3933.834-.0126.32547-.1828.62443-.4563.80127l-5.0812 3.28523 5.0812 3.2852c.2735.1769.4437.4758.4563.8013.0125.3255-.1342.6367-.3933.834l-6.4 4.875c-.3024.2303-.7092.2693-1.0499.1006-.3406-.1687-.5561-.516-.5561-.8961v-7.1497l-4.05703 2.6231c-.46379.2999-1.08285.167-1.38271-.2968-.29987-.4638-.16698-1.0829.29681-1.3827l4.32116-2.7939-4.32116-2.79385c-.46379-.29986-.59668-.91893-.29681-1.38272.29986-.46378.91892-.59667 1.38271-.29681l4.05703 2.62308v-7.14969c0-.38012.2155-.72737.5561-.89609zm1.4439 11.72048 3.6618 2.3676-3.6618 2.7892zm0-3.6488v-5.15681l3.6618 2.78925z" fill="currentColor" fill-rule="evenodd"/></svg>