<svg fill="none" height="24" viewBox="0 0 24 24" width="24" xmlns="http://www.w3.org/2000/svg"><path clip-rule="evenodd" d="m1.3999 4.86863c0-1.15822.93892-2.09715 2.09715-2.09715h4.21647c1.42914 0 2.79978.56773 3.81028 1.57828l.0754.07536c.0414-.00523.0836-.00792.1264-.00792s.085.00269.1265.00792l.0753-.07536c1.0106-1.01055 2.3812-1.57828 3.8103-1.57828h4.7651c1.1582 0 2.0971.93893 2.0971 2.09715v11.51997c0 1.1582-.9389 2.0972-2.0971 2.0972h-4.2165c-.8987 0-1.7606.357-2.3961.9925l-1.4575 1.4574c-.1875.1876-.4419.2929-.7071.2929s-.5196-.1053-.7071-.2929l-1.45747-1.4574c-.63556-.6356-1.49699-.9925-2.39558-.9925h-3.66936c-1.15935 0-2.09619-.9401-2.09619-2.0972zm9.3257 1.51135-.616-.61601c-.63548-.63548-1.49737-.99249-2.39608-.99249h-4.21647c-.05365 0-.09715.0435-.09715.09715v11.51997c0 .0548.04367.0972.09619.0972h3.66936c1.31475 0 2.57942.4804 3.56015 1.344zm2 11.44982c.9809-.8636 2.246-1.344 3.5607-1.344h4.2165c.0536 0 .0971-.0435.0971-.0972v-11.51997c0-.05365-.0435-.09715-.0971-.09715h-4.7651c-.8987 0-1.7606.35701-2.3961.99249l-.616.61601z" fill="currentColor" fill-rule="evenodd"/></svg>