<svg fill="none" height="24" viewBox="0 0 24 24" width="24" xmlns="http://www.w3.org/2000/svg"><path clip-rule="evenodd" d="m2.77133 5.14288c0-2.06712 1.67573-3.74286 3.74286-3.74286h12.34281c2.0672 0 3.7429 1.67574 3.7429 3.74286v13.71432c0 2.0671-1.6757 3.7428-3.7429 3.7428h-12.34281c-2.06713 0-3.74286-1.6757-3.74286-3.7428v-3.1143h-.37143c-.55228 0-1-.4477-1-1s.44772-1 1-1h.37143v-2.1143h-.37143c-.55228 0-1-.4477-1-1s.44772-1.00001 1-1.00001h.37143v-2.11428h-.37143c-.55228 0-1-.44772-1-1 0-.55229.44772-1 1-1h.37143zm2 2.37143h.37143c.55228 0 1-.44772 1-1 0-.55229-.44772-1-1-1h-.37143v-.37143c0-.96255.7803-1.74286 1.74286-1.74286h1.05714v17.19998h-1.05714c-.96256 0-1.74286-.7803-1.74286-1.7428v-3.1143h.37143c.55228 0 1-.4477 1-1s-.44772-1-1-1h-.37143v-2.1143h.37143c.55228 0 1-.4477 1-1s-.44772-1.00001-1-1.00001h-.37143zm4.8 13.08569h9.28567c.9626 0 1.7429-.7803 1.7429-1.7428v-13.71432c0-.96255-.7803-1.74286-1.7429-1.74286h-9.28567zm2.11427-14.08569c0-.55229.4477-1 1-1h4.8c.5523 0 1 .44771 1 1 0 .55228-.4477 1-1 1h-4.8c-.5523 0-1-.44772-1-1zm0 4.11429c0-.5523.4477-1.00001 1-1.00001h4.8c.5523 0 1 .44771 1 1.00001s-.4477 1-1 1h-4.8c-.5523 0-1-.4477-1-1z" fill="currentColor" fill-rule="evenodd"/></svg>