<svg fill="none" height="24" viewBox="0 0 24 24" width="24" xmlns="http://www.w3.org/2000/svg"><path clip-rule="evenodd" d="m3.39997 5.41013v13.41367c1.80523-.7216 4.50114-1.124 7.46083.0641v-13.42699c0-.00024 0-.00048 0-.00073-3.2338-1.63398-6.11062-.81426-7.46083-.05005zm9.46083.17043v13.36004c1.7997-.7915 4.6232-1.3035 7.7392-.0527v-13.42772c-3.4771-1.75687-6.5414-.67707-7.7392.12038zm9.7267-.55628c.0082.05158.0125.10447.0125.15837v15.30435c0 .3575-.1909.6878-.5006.8663-.3096.1786-.6911.1782-1.0005-.0009-3.8159-2.2092-7.2265-.8964-8.3684-.059-.2189.1605-.4814.2189-.7305.1839-.2179.0306-.4436-.011-.6402-.1249-3.81593-2.2092-7.22649-.8964-8.36847-.059-.30388.2229-.70723.256-1.04338.0856-.33614-.1703-.54798-.5152-.54798-.892v-15.58261c0-.00586.00005-.0117.00015-.01754-.00656-.31482.13528-.62777.40849-.82812 1.59395-1.1689 5.66925-2.6596 10.15789-.2783 1.8732-1.13514 5.8443-2.26453 10.1345.21928.3691.21368.5505.62718.4865 1.02457z" fill="currentColor" fill-rule="evenodd"/></svg>