<svg fill="none" height="24" viewBox="0 0 24 24" width="24" xmlns="http://www.w3.org/2000/svg"><path clip-rule="evenodd" d="m6.46166 3.40002c-1.07908 0-1.95385.87477-1.95385 1.95385v9.85413c.57632-.3282 1.24319-.5157 1.95385-.5157h.84615v-11.29228zm2.84615 0v11.29228h10.18459v-10.81535c0-.2634-.2135-.47693-.4769-.47693zm10.18459 13.29228h-13.03074c-1.07908 0-1.95385.8748-1.95385 1.9539s.87477 1.9538 1.95385 1.9538h12.55384c.2634 0 .4769-.2135.4769-.4769zm-16.98459 1.9539v-13.29233c0-2.18365 1.7702-3.95385 3.95385-3.95385h12.55384c1.368 0 2.4769 1.10896 2.4769 2.47693v16.24615c0 1.368-1.1089 2.4769-2.4769 2.4769h-12.55384c-2.18365 0-3.95385-1.7702-3.95385-3.9538z" fill="currentColor" fill-rule="evenodd"/></svg>