<svg fill="none" height="24" viewBox="0 0 24 24" width="24" xmlns="http://www.w3.org/2000/svg"><path clip-rule="evenodd" d="m4.29007 3.93379c.43936-.87872 1.33748-1.43379 2.31992-1.43379h10.78001c.9824 0 1.8806.55507 2.3199 1.43379l1.4602 2.92031c.1014.20274.18.4152.2351.63353.0045.01662.0086.03342.0122.05037.0547.23314.0826.47257.0826.71364v10.12336c0 1.7259-1.3991 3.125-3.125 3.125h-12.75c-1.72589 0-3.125-1.3991-3.125-3.125v-10.12336c0-.24106.02789-.48048.08257-.7136.00366-.01698.00776-.0338.01227-.05045.05505-.21831.13371-.43076.23508-.63349zm.20993 4.81621v9.625c0 .6213.50368 1.125 1.125 1.125h12.75c.6213 0 1.125-.5037 1.125-1.125v-9.625zm14.382-2h-13.76397l.9609-1.92178c.10057-.20116.30617-.32822.53106-.32822h10.78001c.2249 0 .4305.12706.5311.32822zm-10.382 4.75c0-.5523.44772-1 1-1v1 1c-.55228 0-1-.4477-1-1zm1 0v1h5c.5523 0 1-.4477 1-1s-.4477-1-1-1h-5z" fill="currentColor" fill-rule="evenodd"/></svg>