<svg fill="none" height="24" viewBox="0 0 24 24" width="24" xmlns="http://www.w3.org/2000/svg"><path clip-rule="evenodd" d="m3.04743 6.29698c0-1.95213 1.58252-3.53465 3.53465-3.53465h.50693c.55229 0 1 .44771 1 1 0 .55228-.44771 1-1 1h-.50693c-.84756 0-1.53465.68709-1.53465 1.53465v4.05542c0 .5-.22142.8855-.46544 1.1524.23482.2536.46544.631.46544 1.1288v5.0693c0 .8476.68709 1.5347 1.53465 1.5347h.50693c.55229 0 1 .4477 1 1s-.44771 1-1 1h-.50693c-1.95213 0-3.53465-1.5825-3.53465-3.5347v-4.8924c-.05329-.0364-.13183-.0815-.23816-.1299-.15054-.0685-.30982-.1228-.43696-.1606-.06198-.0185-.11269-.0319-.14617-.0404-.01667-.0042-.02883-.0071-.03573-.0087l-.00528-.0012c-.46435-.1026-.79328-.5182-.78508-.9939.0082-.4755.35007-.8793.81736-.966l.00535-.001c.00639-.0013.018-.0037.03408-.0072.03233-.0071.08166-.0186.1421-.0347.12434-.0333.27892-.0819.42398-.1454.1025-.0448.17606-.0866.22451-.1197zm-.64753 5.19602c-.21333.977-.21354.977-.21375.9769-.00013 0 .00014 0 0 0zm13.5109-7.73067c0-.55229.4477-1 1-1h.5069c1.9522 0 3.5347 1.58252 3.5347 3.53465v4.89242c.0533.0364.1318.0815.2381.1299.1506.0685.3099.1228.437.1606.062.0185.1127.0319.1462.0404.0166.0042.0288.0071.0357.0087l.0038.0009c.0002.0001.0013.0003.0015.0003.4643.1026.7933.5182.7851.9939-.0082.4755-.3501.8793-.8174.966-.0003.0001.0003-.0001 0 0-.0004.0001-.0016.0003-.002.0004l-.0034.0006c-.0063.0013-.018.0037-.034.0072-.0324.0071-.0817.0186-.1421.0347-.1244.0333-.279.082-.424.1454-.1025.0448-.1761.0867-.2245.1197v3.9048c0 1.9522-1.5825 3.5347-3.5347 3.5347h-.5069c-.5523 0-1-.4477-1-1s.4477-1 1-1h.5069c.8476 0 1.5347-.6871 1.5347-1.5347v-4.0554c0-.5.2214-.8854.4654-1.1524-.2348-.2536-.4654-.631-.4654-1.1288v-5.06932c0-.84756-.6871-1.53465-1.5347-1.53465h-.5069c-.5523 0-1-.44772-1-1z" fill="currentColor" fill-rule="evenodd"/></svg>