<svg fill="none" height="24" viewBox="0 0 24 24" width="24" xmlns="http://www.w3.org/2000/svg"><path clip-rule="evenodd" d="m1 4.7027c0-2.04494 1.65776-3.7027 3.7027-3.7027h14.5946c2.0449 0 3.7027 1.65776 3.7027 3.7027v14.5946c0 2.0449-1.6578 3.7027-3.7027 3.7027h-14.5946c-2.04494 0-3.7027-1.6578-3.7027-3.7027zm3.7027-1.7027c-.94037 0-1.7027.76233-1.7027 1.7027v14.5946c0 .9404.76233 1.7027 1.7027 1.7027h14.5946c.9404 0 1.7027-.7623 1.7027-1.7027v-14.5946c0-.94037-.7623-1.7027-1.7027-1.7027zm3.5473 1.75c.55228 0 1 .44772 1 1v1.5h1.5c.5523 0 1 .44772 1 1s-.4477 1-1 1h-1.5v1.5c0 .5523-.44772 1-1 1s-1-.4477-1-1v-1.5h-1.5c-.55228 0-1-.44772-1-1s.44772-1 1-1h1.5v-1.5c0-.55228.44772-1 1-1zm10.0821.91789c.3905.39053.3905 1.02369 0 1.41422l-11.24999 11.24999c-.39053.3905-1.02369.3905-1.41422 0-.39052-.3905-.39052-1.0237 0-1.4142l11.25001-11.25001c.3905-.39052 1.0237-.39052 1.4142 0zm-6.0821 10.70711c0-.5523.4477-1 1-1h5c.5523 0 1 .4477 1 1s-.4477 1-1 1h-5c-.5523 0-1-.4477-1-1z" fill="currentColor" fill-rule="evenodd"/></svg>