<svg fill="none" height="24" viewBox="0 0 24 24" width="24" xmlns="http://www.w3.org/2000/svg"><path clip-rule="evenodd" d="m7.30952 2c.55229 0 1 .44772 1 1v.54285h8.19048v-.54285c0-.55228.4477-1 1-1s1 .44772 1 1v.6709c1.7397.45582 3 2.07326 3 3.95765v10.28575c0 2.2297-1.7645 4.0857-4 4.0857h-10c-2.2355 0-4-1.856-4-4.0857v-10.28575c0-1.8149 1.16902-3.38218 2.80952-3.90252v-.72603c0-.55228.44772-1 1-1zm.19048 3.54285c-1.07821 0-2 .90706-2 2.0857v.2857h14v-.2857c0-1.17864-.9218-2.0857-2-2.0857zm12 4.3714h-14v8.00005c0 1.1786.92179 2.0857 2 2.0857h10c1.0782 0 2-.9071 2-2.0857zm-6.1238 1.15915c.3771.1532.6238.5196.6238.9266v4.1428h.5c.5523 0 1 .4477 1 1s-.4477 1-1 1h-3c-.5523 0-1-.4477-1-1s.4477-1 1-1h.5v-1.7336c-.3777.2182-.8689.1698-1.1971-.1494-.396-.3849-.4049-1.018-.0199-1.414l1.5-1.5429c.2837-.2918.716-.3826 1.0932-.2295z" fill="currentColor" fill-rule="evenodd"/></svg>