<svg fill="none" height="24" viewBox="0 0 24 24" width="24" xmlns="http://www.w3.org/2000/svg"><path clip-rule="evenodd" d="m6.6875 4.5c-1.20812 0-2.1875.97938-2.1875 2.1875v10.625c0 1.2081.97938 2.1875 2.1875 2.1875h10.625c1.2081 0 2.1875-.9794 2.1875-2.1875v-10.625c0-1.20812-.9794-2.1875-2.1875-2.1875zm-4.1875 2.1875c0-2.31269 1.87481-4.1875 4.1875-4.1875h10.625c2.3127 0 4.1875 1.87481 4.1875 4.1875v10.625c0 2.3127-1.8748 4.1875-4.1875 4.1875h-10.625c-2.31269 0-4.1875-1.8748-4.1875-4.1875zm4.25.53177c0-.55229.44772-1 1-1h8.8542c.5523 0 1 .44771 1 1 0 .55228-.4477 1-1 1h-8.8542c-.55228 0-1-.44772-1-1zm7.537 2.97083c.4128-.36693 1.0449-.32975 1.4118.083l2.3611 2.6563c.3368.3789.3368.9498 0 1.3287l-2.3611 2.6563c-.3669.4127-.999.4499-1.4118.083s-.4499-.999-.083-1.4118l.8817-.9918h-7.3357c-.55228 0-1-.4478-1-1 0-.5523.44772-1 1-1h7.3357l-.8817-.9919c-.3669-.4128-.3298-1.0449.083-1.4118z" fill="currentColor" fill-rule="evenodd"/></svg>