<svg fill="none" height="24" viewBox="0 0 24 24" width="24" xmlns="http://www.w3.org/2000/svg"><path clip-rule="evenodd" d="m6.55952 2c.55229 0 1 .44772 1 1v.54285h8.19048v-.54285c0-.55228.4477-1 1-1s1 .44772 1 1v.6709c1.7397.45582 3 2.07326 3 3.95765v7.45545.0017.0017 2.8269c0 2.2297-1.7645 4.0857-4 4.0857h-10c-2.2355 0-4-1.856-4-4.0857v-10.28575c0-1.8149 1.16902-3.38218 2.80952-3.90252v-.72603c0-.55228.44772-1 1-1zm-1.80952 14.0857v1.8286c0 1.1786.92179 2.0857 2 2.0857h1.5v-3.9143zm3.5-2h-3.5v-4.17145h3.5zm2 2v3.9143h3v-3.9143zm3-2h-3v-4.17145h3zm2 2v3.9143h1.5c1.0782 0 2-.9071 2-2.0857v-1.8286zm3.5-2h-3.5v-4.17145h3.5zm0-6.17145v-.2857c0-1.17864-.9218-2.0857-2-2.0857h-10c-1.07821 0-2 .90706-2 2.0857v.2857z" fill="currentColor" fill-rule="evenodd"/></svg>