<svg fill="none" height="24" viewBox="0 0 24 24" width="24" xmlns="http://www.w3.org/2000/svg"><path clip-rule="evenodd" d="m4.5789 2.02462c.78721-.39946 1.67781-.6246 2.621-.6246h9.6c3.2033 0 5.8 2.59675 5.8 5.8v9.59998c0 3.2033-2.5967 5.8-5.8 5.8h-9.6c-3.20325 0-5.8-2.5967-5.8-5.8v-9.59998c0-2.05044 1.06401-3.85238 2.67002-4.88379.10072-.10769.22691-.19467.37399-.25069.04463-.01701.08972-.0306.13499-.04092zm-.21335 2.64425c-.60056.67203-.96565 1.55896-.96565 2.53115v7.39998h4.74894zm5.21138 11.93113c.0154.0004.03085.0004.04632 0h3.82845l-1.1765 4h-5.0753c-2.09868 0-3.8-1.7013-3.8-3.8v-.2zm4.78297 4h2.44c2.0987 0 3.8-1.7013 3.8-3.8v-2.6833c-.0531-.0232-.1048-.0514-.1547-.0846l-3.4726-2.3151zm.8697-10.045-3.2237-2.14912-.5973.45894c-.01.00773-.0202.01528-.0306.02262l-2.57041 1.82376 1.48151 3.8888h3.7508zm-7.15743-1.77429-1.98655-5.2147c.35238-.10792.72655-.16599 1.11428-.16599h8.0382l-5.0329 3.8673zm10.08753-5.13017c-.0443.05157-.0945.09938-.1505.14243l-4.3283 3.32586 6.919 4.61267v-4.53148c0-1.61954-1.0132-3.00245-2.4402-3.54948z" fill="currentColor" fill-rule="evenodd"/></svg>