<svg fill="none" height="24" viewBox="0 0 24 24" width="24" xmlns="http://www.w3.org/2000/svg"><path clip-rule="evenodd" d="m2.30448 1.98141c.39687-.38407 1.02995-.37369 1.41402.02318l2.49235 2.57542h.41468l1.39059-2.38387c.17921-.30722.50811-.49613.86378-.49613h6.24c.3557 0 .6846.18891.8638.49613l1.3906 2.38387h1.8256c1.8778 0 3.4 1.52223 3.4 3.4v9.83999c0 1.0053-.4367 1.9079-1.1282 2.5295l.2468.2551c.3841.3969.3737 1.0299-.0232 1.414s-1.0299.3737-1.414-.0232l-11.10052-11.4705c-.12052-.0555-.23188-.1361-.32601-.2413-.07579-.0847-.13449-.1787-.17636-.2778l-6.39711-6.61037c-.38407-.39687-.37369-1.02995.02318-1.41402zm8.96232 7.82313 3.2032 3.30996c.0844-.256.1299-.5297.1299-.8145 0-1.4359-1.1641-2.59999-2.6-2.59999-.2548 0-.5007.03646-.7331.10453zm4.6885 4.84476c.4092-.6877.6446-1.4916.6446-2.3493 0-2.5405-2.0595-4.59999-4.6-4.59999-.8038 0-1.5605.2068-2.21848.5696l-1.89717-1.96041c.06944-.06516.13011-.14076.17943-.22532l1.39059-2.38387h5.09123l1.3906 2.38387c.1792.30722.5081.49613.8638.49613h2.4c.7732 0 1.4.6268 1.4 1.4v9.83999c0 .4394-.202.8325-.5212 1.0901zm-13.5554-7.66929c.55229 0 1 .44772 1 1v9.83999c0 .7732.6268 1.4 1.4 1.4h9.6c.5523 0 1 .4477 1 1s-.4477 1-1 1h-9.6c-1.87777 0-3.4-1.5222-3.4-3.4v-9.83999c0-.55228.44772-1 1-1zm5.90415 4.77739c.54805-.0683 1.0477.3206 1.11599.8687.14179 1.1377 1.02226 2.0495 2.14536 2.2379.5446.0914.9121.607.8207 1.1517s-.607.9121-1.1517.8208c-1.99135-.3341-3.54742-1.9443-3.799-3.9631-.0683-.548.32061-1.0477.86865-1.116z" fill="currentColor" fill-rule="evenodd"/></svg>