<svg fill="none" height="24" viewBox="0 0 24 24" width="24" xmlns="http://www.w3.org/2000/svg"><path clip-rule="evenodd" d="m8.01612 2.73612c.17921-.30722.50811-.49613.86378-.49613h6.24c.3557 0 .6846.18891.8638.49613l1.3906 2.38387h1.8256c1.8778 0 3.4 1.52223 3.4 3.4v9.84001c0 1.8778-1.5222 3.4-3.4 3.4h-14.4c-1.87777 0-3.4-1.5222-3.4-3.4v-9.84001c0-1.87777 1.52223-3.4 3.4-3.4h1.82563zm1.43815 1.50387-1.39059 2.38387c-.17921.30722-.50811.49613-.86378.49613h-2.4c-.7732 0-1.4.6268-1.4 1.4v9.84001c0 .7732.6268 1.4 1.4 1.4h14.4c.7732 0 1.4-.6268 1.4-1.4v-9.84001c0-.7732-.6268-1.4-1.4-1.4h-2.4c-.3557 0-.6846-.18891-.8638-.49613l-1.3906-2.38387zm2.54563 6.00001c-1.4359 0-2.6 1.164-2.6 2.6 0 1.4359 1.1641 2.6 2.6 2.6s2.6-1.1641 2.6-2.6c0-1.436-1.1641-2.6-2.6-2.6zm-4.6 2.6c0-2.5405 2.05949-4.60001 4.6-4.60001 2.5405 0 4.6 2.05951 4.6 4.60001s-2.0595 4.6-4.6 4.6c-2.54051 0-4.6-2.0595-4.6-4.6z" fill="currentColor" fill-rule="evenodd"/></svg>