<svg fill="none" height="24" viewBox="0 0 24 24" width="24" xmlns="http://www.w3.org/2000/svg"><path clip-rule="evenodd" d="m12 4c-4.41828 0-8 3.58172-8 8 0 4.4183 3.58172 8 8 8 4.4183 0 8-3.5817 8-8 0-4.41828-3.5817-8-8-8zm-10 8c0-5.52285 4.47715-10 10-10 5.5228 0 10 4.47715 10 10 0 5.5228-4.4772 10-10 10-5.52285 0-10-4.4772-10-10zm5.91789-4.08211c.39053-.39052 1.02369-.39052 1.41422 0l6.74999 6.75001c.3905.3905.3905 1.0237 0 1.4142s-1.0237.3905-1.4142 0l-6.75001-6.74999c-.39052-.39053-.39052-1.02369 0-1.41422z" fill="currentColor" fill-rule="evenodd" opacity=".9"/></svg>