<svg fill="none" height="24" viewBox="0 0 24 24" width="24" xmlns="http://www.w3.org/2000/svg"><path clip-rule="evenodd" d="m20 12c0-4.41828-3.5817-8-8-8-4.41828 0-8 3.58172-8 8 0 4.4183 3.58172 8 8 8 4.4183 0 8-3.5817 8-8zm-8-10c5.5228 0 10 4.47715 10 10 0 5.5228-4.4772 10-10 10-5.52285 0-10-4.4772-10-10 0-5.52285 4.47715-10 10-10zm4.0821 5.91789c.3905.39053.3905 1.02369 0 1.41422l-6.74999 6.74999c-.39053.3905-1.02369.3905-1.41422 0-.39052-.3905-.39052-1.0237 0-1.4142l6.75001-6.75001c.3905-.39052 1.0237-.39052 1.4142 0z" fill="currentColor" fill-rule="evenodd" opacity=".9"/></svg>