<svg fill="none" height="24" viewBox="0 0 24 24" width="24" xmlns="http://www.w3.org/2000/svg"><path clip-rule="evenodd" d="m8.3577 6c-.13421 0-.27589.09423-.32056.26585l-.7435 2.8561h9.66266l-.9367-2.87859c-.0515-.15836-.186-.24336-.3139-.24336zm10.7747 3.34573-1.2109-3.72122c-.3115-.95712-1.1959-1.62451-2.2158-1.62451h-7.348c-1.07392 0-1.98944.7378-2.25606 1.762l-.90313 3.46936c-1.2796.35838-2.19851 1.55384-2.19851 2.93934v5.4634c0 1.2838 1.02209 2.3659 2.33333 2.3659h1.33334c1.31124 0 2.33333-1.0821 2.33333-2.3659v-.0853h6v.0853c0 1.2838 1.0221 2.3659 2.3333 2.3659h1.3334c1.3112 0 2.3333-1.0821 2.3333-2.3659v-5.4634c0-1.2629-.7635-2.36787-1.8676-2.82497zm-.1324 8.03037v.258c0 .225-.1718.3659-.3333.3659h-1.3334c-.1615 0-.3333-.1409-.3333-.3659v-.0853h1c.3521 0 .6883-.061 1-.1727zm-1-1.8273c.5297 0 1-.4467 1-1.0488v-2.3293c0-.602-.4703-1.0487-1-1.0487h-12c-.5297 0-1 .4467-1 1.0487v2.3293c0 .6021.4703 1.0488 1 1.0488zm-11 2h-1c-.35206 0-.68834-.061-1-.1727v.258c0 .225.17182.3659.33333.3659h1.33334c.16151 0 .33333-.1409.33333-.3659zm-1.66667-4.3537c0-.5523.44772-1 1-1h2.33334c.55228 0 1 .4477 1 1s-.44772 1-1 1h-2.33334c-.55228 0-1-.4477-1-1zm8.99997 0c0-.5523.4477-1 1-1h2.3334c.5523 0 1 .4477 1 1s-.4477 1-1 1h-2.3334c-.5523 0-1-.4477-1-1z" fill="currentColor" fill-rule="evenodd"/></svg>