<svg fill="none" height="24" viewBox="0 0 24 24" width="24" xmlns="http://www.w3.org/2000/svg"><path clip-rule="evenodd" d="m1.40015 7.5001c-.00006-1.8778 1.52219-3.40009 3.4-3.40009h14.39965c1.8773 0 3.3999 1.52094 3.4 3.39909l.0002 9.0019c.0001 1.8783-1.5227 3.399-3.4 3.399l-14.39963-.0002c-1.87772 0-3.39991-1.5221-3.39997-3.3999zm3.4-1.40009c-.77322 0-1.40003.62682-1.4 1.40003l.00002.79982h17.19963v-.80069c-.0001-.77275-.6264-1.39916-1.4-1.39916zm15.79965 4.19989h-17.19957l.00017 6.2c.00003.7732.62681 1.3999 1.39999 1.3999l14.39971.0002c.7737 0 1.3999-.6263 1.3999-1.399zm-15.00012 3.2c0-.5523.44772-1 1-1h3c.55232 0 1.00002.4477 1.00002 1 0 .5522-.4477 1-1.00002 1h-3c-.55228 0-1-.4478-1-1z" fill="currentColor" fill-rule="evenodd"/></svg>