<svg fill="none" height="24" viewBox="0 0 24 24" width="24" xmlns="http://www.w3.org/2000/svg"><path clip-rule="evenodd" d="m.800293 7.50019c-.000054-1.8778 1.522197-3.40009 3.399997-3.40009h14.39941c1.8775 0 3.4001 1.52126 3.4001 3.39942v4.20058c0 .5523-.4477 1-1 1-.5522 0-1-.4477-1-1v-1.4002h-17.19943l.00018 6.2c.00002.7732.62682 1.4 1.4 1.4h9.59965c.5523 0 1 .4477 1 1s-.4477 1-1 1h-9.59965c-1.87773 0-3.399947-1.5222-3.4-3.3999zm2.000027.79976h17.19948v-.80044c0-.77288-.6265-1.39941-1.4001-1.39941h-14.39941c-.77321 0-1.40002.62682-1.4 1.40004zm20.10658 5.69285c.3906.3905.3906 1.0237.0001 1.4142l-3.2915 3.2916c-.1875.1875-.4419.2929-.7071.2929s-.5196-.1053-.7071-.2929l-1.5086-1.5086c-.3905-.3905-.3905-1.0236 0-1.4142.3906-.3905 1.0237-.3905 1.4142 0l.8015.8015 2.5843-2.5844c.3905-.3906 1.0237-.3906 1.4142-.0001z" fill="currentColor" fill-rule="evenodd"/></svg>