<svg fill="none" height="24" viewBox="0 0 24 24" width="24" xmlns="http://www.w3.org/2000/svg"><path clip-rule="evenodd" d="m.800293 6.90007c-.000054-1.87781 1.522197-3.4001 3.399997-3.4001h14.39891c1.8777 0 3.4006 1.5216 3.4006 3.39991v1.80007c0 .55228-.4477 1.00001-.9999 1.00002-.1047 0-.2055-.01606-.3003-.04586-.0946.0297-.1953.04571-.2998.04571h-17.59943l.00018 6.20008c.00002.7731.6268 1.3999 1.39998 1.3999l7.79967.0002c.5523 0 1 .4477 1 1s-.4477 1-1 1l-7.79971-.0002c-1.87771 0-3.399887-1.5222-3.39994-3.3999zm2.000027.79975h17.19948v-.79991c0-.77312-.6268-1.39994-1.4006-1.39994h-14.39891c-.77321 0-1.40002.62682-1.4 1.40004zm16.39948 5.80018c-.2761 0-.5.2239-.5.5v.5h1v-.5c0-.2761-.2238-.5-.5-.5zm2.5 1.063v-.563c0-1.3807-1.1193-2.5-2.5-2.5s-2.5 1.1193-2.5 2.5v.563c-.8626.222-1.5 1.0051-1.5 1.937v2c0 1.1046.8955 2 2 2h4c1.1046 0 2-.8954 2-2v-2c0-.9319-.6374-1.715-1.5-1.937zm-4.5 1.937v2h4v-2z" fill="currentColor" fill-rule="evenodd"/></svg>