<svg fill="none" height="24" viewBox="0 0 24 24" width="24" xmlns="http://www.w3.org/2000/svg"><path clip-rule="evenodd" d="m.800293 6.41264c-.000054-1.87781 1.522197-3.4001 3.399997-3.4001h14.39891c1.8777 0 3.4006 1.52161 3.4006 3.39991v1.80007l-.6.00001c0 .55222-.4477.99986-1 .99986h-17.59943l.00018 6.20001c.00002.7732.6268 1.4 1.39998 1.4l7.79967.0001c.5523.0001 1 .4478 1 1.0001 0 .5522-.4477 1-1 .9999l-7.79971-.0001c-1.87771 0-3.399887-1.5222-3.39994-3.3999zm2.000027.79975h17.19948v-.79991c0-.77311-.6268-1.39994-1.4006-1.39994h-14.39891c-.77321 0-1.40002.62683-1.4 1.40004zm17.56228 6.47451c-.732-.366-1.5936-.366-2.3255 0l-.8373.4186v2.727c0 .059.0445.3013.4925.7622.3426.3525.843.7521 1.5125 1.2028.6905-.4481 1.1847-.8022 1.5244-1.1308.3949-.382.4706-.623.4706-.8342v-2.727zm-3.2199-1.7889c1.295-.6475 2.8193-.6475 4.1143 0l1.39.695c.3388.1694.5528.5157.5528.8945v3.345c0 .9438-.4581 1.6701-1.0801 2.2717-.5946.5752-1.4336 1.1274-2.3859 1.7288-.3262.206-.7418.206-1.0679 0-.9915-.6262-1.8184-1.2379-2.4078-1.8443-.5689-.5853-1.0583-1.3103-1.0583-2.1562v-3.345c0-.3788.214-.7251.5528-.8945z" fill="currentColor" fill-rule="evenodd"/></svg>