<svg fill="none" height="24" viewBox="0 0 24 24" width="24" xmlns="http://www.w3.org/2000/svg"><path clip-rule="evenodd" d="m1.21021 7.50019c-.00006-1.8778 1.52219-3.40009 3.39999-3.40009h14.3994c1.8775 0 3.4001 1.52126 3.4001 3.39942v4.20058c0 .5523-.4477 1-.9999 1-.5523 0-1.0001-.4477-1.0001-1v-1.4002h-17.19942l.00018 6.2c.00002.7732.62682 1.4 1.4 1.4h9.59964c.5523 0 1 .4477 1 1s-.4477 1-1 1h-9.59964c-1.87773 0-3.39994-1.5222-3.4-3.3999zm2.00002.79976h17.19947v-.80044c0-.77288-.6265-1.39941-1.4001-1.39941h-14.3994c-.77321 0-1.40002.62682-1.39999 1.40004zm14.29987 6.10055c.3905-.3905 1.0237-.3905 1.4142 0l1.0792 1.0792 1.0792-1.0792c.3905-.3905 1.0237-.3905 1.4142 0s.3905 1.0237 0 1.4142l-1.0792 1.0792 1.0792 1.0792c.3905.3905.3905 1.0237 0 1.4142s-1.0237.3905-1.4142 0l-1.0792-1.0792-1.0792 1.0792c-.3905.3905-1.0237.3905-1.4142 0s-.3905-1.0237 0-1.4142l1.0792-1.0792-1.0792-1.0792c-.3905-.3905-.3905-1.0237 0-1.4142z" fill="currentColor" fill-rule="evenodd"/></svg>