<svg fill="none" height="24" viewBox="0 0 24 24" width="24" xmlns="http://www.w3.org/2000/svg"><path clip-rule="evenodd" d="m1.10034 7.17887c-.00005-1.8778 1.5222-3.40009 3.4-3.40009h14.39946c1.8774 0 3.4001 1.52126 3.4 3.39942l.0001 4.2006c0 .5523-.4477 1-1 1s-1-.4477-1-1v-1.40017h-17.19948l.00018 6.19997c.00002.7732.62682 1.4 1.4 1.4h9.5997c.5523 0 1 .4477 1 1s-.4477 1-1 1h-9.5997c-1.87773 0-3.39995-1.5222-3.4-3.3999zm2.00002.79976h17.19944v-.80044c0-.77288-.6264-1.39941-1.4-1.39941h-14.39946c-.77321 0-1.40002.62682-1.4 1.40004zm15.74834 5.09117c.39-.3881 1.0203-.3883 1.4105-.0003l2.3457 2.3321c.3917.3894.3935 1.0226.0041 1.4142-.3894.3917-1.0225.3935-1.4142.0041l-.6406-.6369v3.0382c0 .5523-.4478 1-1 1-.5523 0-1-.4477-1-1v-3.0365l-.7489.7453c-.3915.3896-1.0246.3881-1.4142-.0034-.3896-.3914-.3881-1.0246.0034-1.4142z" fill="currentColor" fill-rule="evenodd"/></svg>