<svg fill="none" height="24" viewBox="0 0 24 24" width="24" xmlns="http://www.w3.org/2000/svg"><path clip-rule="evenodd" d="m6.375 4c-1.31168 0-2.375 1.06332-2.375 2.37498v11.25002c0 1.3117 1.06332 2.375 2.375 2.375h11.25c1.3117 0 2.375-1.0633 2.375-2.375v-6.1875c0-.5523.4477-1 1-1s1 .4477 1 1v6.1875c0 2.4163-1.9588 4.375-4.375 4.375h-11.25c-2.41624 0-4.375-1.9587-4.375-4.375v-11.25002c0-2.41624 1.95876-4.37498 4.375-4.37498h7.875c.5523 0 1 .44772 1 1s-.4477 1-1 1zm14.2071 1.10538c.3905.39052.3905 1.02369 0 1.41421l-7.875 7.87491c-.3905.3906-1.0237.3906-1.4142 0l-2.25-2.2499c-.39053-.3906-.39053-1.0237-.00001-1.4143.39052-.3905 1.02371-.3905 1.41421 0l1.5429 1.5429 7.1679-7.16782c.3905-.39053 1.0237-.39053 1.4142 0z" fill="currentColor" fill-rule="evenodd"/></svg>