<svg fill="none" height="24" viewBox="0 0 24 24" width="24" xmlns="http://www.w3.org/2000/svg"><path clip-rule="evenodd" d="m17.2809 6.37531c.345.43126.2751 1.06056-.1561 1.40556-1.1473.91779-2.3158 2.46803-3.338 4.11203-1.01 1.6243-1.825 3.254-2.2831 4.2535-.1546.3373-.4832.5613-.8537.5818s-.72192-.1658-.91283-.484c-.32805-.5467-.93122-1.2753-1.59872-1.9741-.66517-.6963-1.32444-1.2905-1.72655-1.583-.44665-.3248-.5454-.9502-.22057-1.3969.32484-.4466.95026-.5454 1.39691-.2206.53934.3923 1.29222 1.0819 1.99643 1.8191.27994.293.56333.6052.83093.9214.4556-.8921 1.0251-1.9316 1.6728-2.9733 1.0532-1.69381 2.3666-3.48139 3.787-4.61766.4312-.34501 1.0605-.27509 1.4055.15617z" fill="currentColor" fill-rule="evenodd"/></svg>