<svg fill="none" height="24" viewBox="0 0 24 24" width="24" xmlns="http://www.w3.org/2000/svg"><path clip-rule="evenodd" d="m5.29289 4.29289c.39053-.39052 1.02369-.39052 1.41422 0l4.89289 4.8929 4.8929-4.8929c.3905-.39052 1.0237-.39052 1.4142 0 .3905.39053.3905 1.02369 0 1.41422l-5.6 5.59999c-.1875.1875-.4419.2929-.7071.2929s-.5196-.1054-.7071-.2929l-5.60001-5.59999c-.39052-.39053-.39052-1.02369 0-1.41422zm0 8.40001c.39053-.3905 1.02369-.3905 1.41422 0l4.89289 4.8929 4.8929-4.8929c.3905-.3905 1.0237-.3905 1.4142 0s.3905 1.0237 0 1.4142l-5.6 5.6c-.3905.3905-1.0237.3905-1.4142 0l-5.60001-5.6c-.39052-.3905-.39052-1.0237 0-1.4142z" fill="currentColor" fill-rule="evenodd"/></svg>