<svg fill="none" height="24" viewBox="0 0 24 24" width="24" xmlns="http://www.w3.org/2000/svg"><path clip-rule="evenodd" d="m19.7071 5.29269c.3905.39053.3905 1.02369 0 1.41422l-4.8929 4.89289 4.8929 4.8929c.3905.3905.3905 1.0237 0 1.4142s-1.0237.3905-1.4142 0l-5.6-5.6c-.1875-.1875-.2929-.4419-.2929-.7071s.1054-.5196.2929-.7071l5.6-5.60001c.3905-.39052 1.0237-.39052 1.4142 0zm-8.4 0c.3905.39053.3905 1.02369 0 1.41422l-4.89289 4.89289 4.89289 4.8929c.3905.3905.3905 1.0237 0 1.4142s-1.0237.3905-1.41421 0l-5.6-5.6c-.39052-.3905-.39052-1.0237 0-1.4142l5.6-5.60001c.39051-.39052 1.02371-.39052 1.41421 0z" fill="currentColor" fill-rule="evenodd"/></svg>