<svg fill="none" height="24" viewBox="0 0 24 24" width="24" xmlns="http://www.w3.org/2000/svg"><path clip-rule="evenodd" d="m4.29289 17.7073c-.39052-.3905-.39052-1.0237 0-1.4142l4.8929-4.8929-4.8929-4.89289c-.39052-.39053-.39052-1.02369 0-1.41422.39053-.39052 1.02369-.39052 1.41422 0l5.59999 5.60001c.1875.1875.2929.4419.2929.7071s-.1054.5196-.2929.7071l-5.59999 5.6c-.39053.3905-1.02369.3905-1.41422 0zm8.40001 0c-.3905-.3905-.3905-1.0237 0-1.4142l4.8929-4.8929-4.8929-4.8929c-.3905-.39052-.3905-1.02368 0-1.41421.3905-.39052 1.0237-.39052 1.4142 0l5.6 5.60001c.3905.3905.3905 1.0237 0 1.4142l-5.6 5.6c-.3905.3905-1.0237.3905-1.4142 0z" fill="currentColor" fill-rule="evenodd"/></svg>