<svg fill="none" height="24" viewBox="0 0 24 24" width="24" xmlns="http://www.w3.org/2000/svg"><path clip-rule="evenodd" d="m11.25 4c-4.41828 0-8 3.58172-8 8 0 4.4183 3.58172 8 8 8 2.9599 0 5.5456-1.6069 6.9304-4.0007.2765-.4781.8882-.6414 1.3663-.3649.478.2765.6414.8883.3649 1.3663-1.7276 2.9864-4.9589 4.9993-8.6616 4.9993-5.52285 0-10-4.4772-10-10 0-5.52285 4.47715-10 10-10 5.0862 0 9.2856 3.79723 9.9177 8.7114l.4062-.4062c.3906-.39049 1.0237-.39049 1.4143 0 .3905.3906.3905 1.0237 0 1.4143l-2.25 2.25c-.3906.3905-1.0237.3905-1.4143 0l-2.25-2.25c-.3905-.3906-.3905-1.0237 0-1.4143.3906-.39049 1.0237-.39049 1.4143 0l.7006.7007c-.4894-3.94916-3.8571-7.0059-7.9388-7.0059zm0 3.42087c.5523 0 1 .44771 1 1v3.98333l2.6912.8971c.524.1747.8071.741.6325 1.2649-.1747.524-.741.8071-1.2649.6325l-3.375-1.125c-.4084-.1361-.6838-.5183-.6838-.9487v-4.70413c0-.55229.4477-1 1-1z" fill="currentColor" fill-rule="evenodd"/></svg>