<svg fill="none" height="24" viewBox="0 0 24 24" width="24" xmlns="http://www.w3.org/2000/svg"><path clip-rule="evenodd" d="m.5 12c0-5.52309 4.47844-10 10.0023-10 3.7034 0 6.9356 2.01276 8.6636 4.99918.2766.47803.1133 1.08977-.3648 1.36637-.478.2766-1.0897.1133-1.3663-.36473-1.3851-2.39379-3.9716-4.00082-6.9325-4.00082-4.41978 0-8.0023 3.58197-8.0023 8 0 4.418 3.58252 8 8.0023 8 4.0833 0 7.4519-3.0572 7.9413-7.0064l-.7015.7013c-.3906.3904-1.0237.3903-1.4142-.0002-.3905-.3906-.3904-1.0238.0002-1.4142l2.2506-2.25c.3905-.39044 1.0235-.39045 1.414 0l2.2506 2.25c.3905.3904.3906 1.0236.0002 1.4142-.3905.3905-1.0237.3906-1.4143.0002l-.4067-.4067c-.6322 4.9146-4.8328 8.7118-9.9202 8.7118-5.52386 0-10.0023-4.4769-10.0023-10zm10-4.375c.5523 0 1 .44772 1 1v3.9834l2.6912.897c.524.1747.8071.741.6325 1.265-.1747.5239-.741.8071-1.2649.6324l-3.375-1.125c-.40837-.1361-.6838-.5182-.6838-.9487v-4.7041c0-.55228.44771-1 1-1z" fill="currentColor" fill-rule="evenodd"/></svg>