<svg fill="none" height="24" viewBox="0 0 24 24" width="24" xmlns="http://www.w3.org/2000/svg"><path clip-rule="evenodd" d="m11.5 4c-4.41828 0-8 3.58172-8 8 0 4.4183 3.58172 8 8 8 .5139 0 1.0157-.0483 1.5011-.1404.5426-.103 1.066.2535 1.1689.7961s-.2535 1.0659-.7961 1.1688c-.6078.1153-1.2343.1755-1.8739.1755-5.52285 0-10-4.4772-10-10 0-5.52285 4.47715-10 10-10 5.5229 0 10 4.47715 10 10 0 .5523-.4477 1-1 1s-1-.4477-1-1c0-4.41828-3.5817-8-8-8zm0 3.42087c.5523 0 1 .44771 1 1v3.98333l2.6912.8971c.524.1747.8071.741.6325 1.2649-.1747.524-.741.8071-1.2649.6325l-3.375-1.125c-.4084-.1361-.6838-.5183-.6838-.9487v-4.70413c0-.55229.4477-1 1-1zm10.8321 7.24703c.3905.3905.3905 1.0237 0 1.4142l-4.5 4.5c-.3905.3905-1.0237.3905-1.4142 0l-1.6875-1.6875c-.3905-.3905-.3905-1.0237 0-1.4142s1.0237-.3905 1.4142 0l.9804.9804 3.7929-3.7929c.3905-.3905 1.0237-.3905 1.4142 0z" fill="currentColor" fill-rule="evenodd"/></svg>