<svg fill="none" height="24" viewBox="0 0 24 24" width="24" xmlns="http://www.w3.org/2000/svg"><path clip-rule="evenodd" d="m12.5 4c-4.41828 0-8 3.58172-8 8 0 4.4183 3.58172 8 8 8 4.4183 0 8-3.5817 8-8 0-4.41828-3.5817-8-8-8zm-10 8c0-5.52285 4.47715-10 10-10 5.5228 0 10 4.47715 10 10 0 5.5228-4.4772 10-10 10-5.52285 0-10-4.4772-10-10zm10-4.57913c.5523 0 1 .44771 1 1v3.98333l2.6912.8971c.524.1747.8071.741.6325 1.2649-.1747.524-.741.8071-1.2649.6325l-3.375-1.125c-.4084-.1361-.6838-.5183-.6838-.9487v-4.70413c0-.55229.4477-1 1-1z" fill="currentColor" fill-rule="evenodd"/></svg>