<svg fill="none" height="15" viewBox="0 0 16 15" width="16" xmlns="http://www.w3.org/2000/svg" xmlns:xlink="http://www.w3.org/1999/xlink"><filter id="a" color-interpolation-filters="sRGB" filterUnits="userSpaceOnUse" height="14.1254" width="15.173" x=".33916" y=".625"><feFlood flood-opacity="0" result="BackgroundImageFix"/><feColorMatrix in="SourceAlpha" result="hardAlpha" type="matrix" values="0 0 0 0 0 0 0 0 0 0 0 0 0 0 0 0 0 0 127 0"/><feOffset dy="1"/><feGaussianBlur stdDeviation=".4"/><feColorMatrix type="matrix" values="0 0 0 0 0 0 0 0 0 0 0 0 0 0 0 0 0 0 0.5 0"/><feBlend in2="BackgroundImageFix" mode="normal" result="effect1_dropShadow_525_2806"/><feBlend in="SourceGraphic" in2="effect1_dropShadow_525_2806" mode="normal" result="shape"/></filter><g filter="url(#a)"><path d="m4.08425 1.77983c.48-.18 1.43-.07 1.68.47s.4 1.24.41 1.07c-.01913-.5167.02452-1.03381.13-1.54.11115-.32418.36582-.57885.69-.69.29732-.094025.61299-.114613.92-.06.31042.0639.58535.24243.77.5.23395.58313.36587 1.20216.39 1.83.02488-.53574.11556-1.06639.27-1.58.16711-.23545.41114-.40521.69005-.48.3305-.06044.6694-.06044 1 0 .2713.09006.5086.26106.68.49.2123.53015.3406 1.09025.38 1.66 0 .14.07-.39.29-.74.1767-.52467.7453-.80673 1.27-.63.5246.17673.8067.74533.63 1.27v1.06 1.2c-.0361.58522-.1163 1.16688-.24 1.74-.1736.50732-.4159.98846-.72 1.43-.4855.54006-.8867 1.15026-1.19 1.80997-.0741.328-.1076.6639-.1 1-.001.3107.0393.6201.12.92-.4089.0437-.8212.0437-1.23 0-.39-.06-.87-.84-1.00005-1.08-.06432-.1288-.19597-.2103-.34-.2103-.14402 0-.27567.0815-.34.2103-.22.38-.71 1.07-1 1.11-.67.08-2.06 0-3.14 0 0 0 .19-1-.23-1.36s-.83-.78-1.14-1.06l-.83-.91997c-.58531-.54332-1.01361-1.23414-1.24-2-.21-.94-.19-1.39 0-1.77.19379-.31379.4964-.54519.85-.65.29377-.05329.59619-.03267.88.06.19627.08217.36589.21718.49.39.23.31.31.46.21.12s-.32-.59-.43-1c-.21414-.4842-.34272-1.00187-.38-1.53.04099-.47383.37183-.87243.83-1" fill="currentColor"/><path clip-rule="evenodd" d="m4.08425 1.77983c.48-.18 1.43-.07 1.68.47s.4 1.24.41 1.07c-.01913-.5167.02452-1.03381.13-1.54.11115-.32418.36582-.57885.69-.69.29732-.094025.61299-.114613.92-.06.31042.0639.58535.24243.77.5.23395.58313.36587 1.20216.39 1.83.02488-.53574.11556-1.06639.27-1.58.16711-.23545.41114-.40521.69005-.48.3305-.06044.6694-.06044 1 0 .2713.09006.5086.26106.68.49.2123.53015.3406 1.09025.38 1.66 0 .14.07-.39.29-.74.1767-.52467.7453-.80673 1.27-.63.5246.17673.8067.74533.63 1.27v1.06 1.2c-.0361.58522-.1163 1.16688-.24 1.74-.1736.50732-.4159.98846-.72 1.43-.4855.54006-.8867 1.15026-1.19 1.80997-.0741.328-.1076.6639-.1 1-.001.3107.0393.6201.12.92-.4089.0437-.8212.0437-1.23 0-.39-.06-.87-.84-1.00005-1.08-.06432-.1288-.19597-.2103-.34-.2103-.14402 0-.27567.0815-.34.2103-.22.38-.71 1.07-1 1.11-.67.08-2.06 0-3.14 0 0 0 .19-1-.23-1.36s-.83-.78-1.14-1.06l-.83-.91997c-.58531-.54332-1.01361-1.23414-1.24-2-.21-.94-.19-1.39 0-1.77.19379-.31379.4964-.54519.85-.65.29377-.05329.59619-.03267.88.06.19627.08217.36589.21718.49.39.23.31.31.46.21.12s-.32-.59-.43-1c-.21414-.4842-.34272-1.00187-.38-1.53.02045-.48076.34057-.89692.8-1.04z" fill-rule="evenodd" stroke="#fff" stroke-linejoin="round" stroke-width=".75"/><g fill="currentColor"><path d="m11.8342 9.45577v-3.45178c0-.20661-.1679-.37411-.375-.37411s-.375.1675-.375.37411v3.45178c0 .20662.1679.37411.375.37411s.375-.16749.375-.37411z"/><path d="m9.85422 9.45451-.02-3.45356c-.00119-.20612-.17005-.37225-.37715-.37106-.20711.00119-.37403.16924-.37284.37537l.02 3.45355c.0012.20612.17006.37225.37716.37107.2071-.00119.37403-.16925.37283-.37537z"/><path d="m7.08424 6.00979.02 3.4446c.00121.2086.17008.37671.37718.37549s.37401-.17131.3728-.3799l-.02-3.44461c-.00121-.20859-.17008-.3767-.37718-.37548-.20711.00122-.37402.17131-.3728.3799z"/></g></g></svg>