<svg fill="none" height="24" viewBox="0 0 24 24" width="24" xmlns="http://www.w3.org/2000/svg"><path clip-rule="evenodd" d="m15 3.40002c-1.8053 0-3.3881.95607-4.2683 2.39428-.268.43784-.82401.60166-1.28658.37907-.49659-.23896-1.05376-.37335-1.64512-.37335-2.09868 0-3.8 1.70132-3.8 3.80001 0 2.09867 1.70132 3.79997 3.8 3.79997h3.5998l.0002 1v1h-3.6c-3.20325 0-5.8-2.5967-5.8-5.79997 0-3.20326 2.59675-5.80001 5.8-5.80001.59432 0 1.16891.0897 1.71027.25656 1.28103-1.61694 3.26363-2.65656 5.48973-2.65656 3.866 0 7 3.13401 7 7 0 3.86598-3.134 6.99998-7 6.99998h-3.6v-1l-.0002-1h3.6002c2.7614 0 5-2.2386 5-4.99998 0-2.76142-2.2386-5-5-5zm-9.45625 14.59998c0-.5523.44772-1 1-1h.05625c.55229 0 1 .4477 1 1s-.44771 1-1 1h-.05625c-.55228 0-1-.4477-1-1zm5.45625 0c0-.5523.4477-1 1-1h.0563c.5522 0 1 .4477 1 1s-.4478 1-1 1h-.0563c-.5523 0-1-.4477-1-1zm5.3438 0c0-.5523.4477-1 1-1h.0562c.5523 0 1 .4477 1 1s-.4477 1-1 1h-.0562c-.5523 0-1-.4477-1-1zm-7.7438 3.6c0-.5523.44772-1 1-1h.05625c.55225 0 .99995.4477.99995 1s-.4477 1-.99995 1h-.05625c-.55228 0-1-.4477-1-1zm5.4 0c0-.5523.4477-1 1-1h.0563c.5522 0 1 .4477 1 1s-.4478 1-1 1h-.0563c-.5523 0-1-.4477-1-1z" fill="currentColor" fill-rule="evenodd"/></svg>