<svg fill="none" height="24" viewBox="0 0 24 24" width="24" xmlns="http://www.w3.org/2000/svg"><path clip-rule="evenodd" d="m10.9876 2.6632c.5125.20576.7612.78804.5555 1.30056l-.6147 1.53123c.2177.16464.4217.34946.609.55315.0713.07759.1281.16341.1704.25409.9337-.39138 1.959-.60769 3.035-.60769 4.3398 0 7.8571 3.51809 7.8571 7.85716 0 4.339-3.5173 7.8571-7.8571 7.8571h-7.5429c-3.20416 0-5.8-2.5967-5.8-5.8 0-1.9659.97773-3.7034 2.47376-4.7523-.28952-.7296-.37911-1.49146-.29374-2.22331l-1.53098-.61462c-.51252-.20576-.76121-.78804-.55545-1.30057.20576-.51252.78804-.76121 1.30057-.55545l1.44364.57956c.31354-.50792.72768-.95823 1.22897-1.31747l-.59268-1.38773c-.21692-.5079.01897-1.09549.52687-1.31241.50791-.21691 1.09549.01898 1.31241.52688l.59267 1.38772c.60629-.11378 1.21793-.10149 1.80153.02326l.57959-1.44371c.20575-.51252.78804-.76121 1.30054-.55545zm-5.29639 7.3437c.48103-.12918.98679-.19808 1.50869-.19808.20742 0 .41249.01085.61467.03215.53216-.99093 1.27098-1.85485 2.15891-2.53389-.73012-.71711-1.84746-.96196-2.84445-.53616-1.26216.53905-1.87825 1.95849-1.43782 3.23598zm9.05159-2.31236c-2.4489 0-4.5506 1.50396-5.42539 3.64226-.18917.4624-.69061.7142-1.17449.5899-.29877-.0768-.61422-.1179-.94302-.1179-2.09941 0-3.8 1.7011-3.8 3.8s1.70059 3.8 3.8 3.8h7.5429c3.2351 0 5.8571-2.6225 5.8571-5.8571s-2.622-5.85716-5.8571-5.85716z" fill="currentColor" fill-rule="evenodd"/></svg>