<svg fill="none" height="24" viewBox="0 0 24 24" width="24" xmlns="http://www.w3.org/2000/svg"><path clip-rule="evenodd" d="m11.9999 6.28003c-2.34442 0-4.36303 1.41154-5.24662 3.43596-.11814.27067-.34988.47531-.6331.55901-1.5739.4651-2.72028 1.9226-2.72028 3.645 0 2.0986 1.7011 3.8 3.8 3.8h4.8v1 1h-4.8c-3.2036 0-5.8-2.597-5.8-5.8 0-2.4686 1.54136-4.57582 3.71365-5.41351 1.27478-2.50658 3.87935-4.22646 6.88635-4.22646 3.7082 0 6.8058 2.61495 7.5493 6.10227 1.7869.7116 3.0507 2.456 3.0507 4.4977 0 2.6729-2.1671 4.84-4.84 4.84h-5.76v-1-1h5.76c1.5683 0 2.84-1.2716 2.84-2.84 0-1.3359-.9239-2.4589-2.1695-2.7602-.4036-.0976-.7049-.4346-.757-.8466-.3557-2.81526-2.7617-4.99317-5.6735-4.99317z" fill="currentColor" fill-rule="evenodd"/></svg>