<svg fill="none" height="24" viewBox="0 0 24 24" width="24" xmlns="http://www.w3.org/2000/svg"><path clip-rule="evenodd" d="m15 3.40002c-1.8053 0-3.3881.95607-4.2683 2.39428-.268.43784-.82401.60166-1.28658.37907-.49659-.23896-1.05376-.37335-1.64512-.37335-2.09868 0-3.8 1.70132-3.8 3.80001 0 2.09867 1.70132 3.79997 3.8 3.79997h3.5998l.0002 1v.3997-.3997l-.0002-1h3.6002c2.7614 0 5-2.2386 5-4.99998 0-2.76142-2.2386-5-5-5zm-2.0202 11.99998h2.0202c3.866 0 7-3.134 7-6.99998 0-3.86599-3.134-7-7-7-2.2261 0-4.2087 1.03962-5.48973 2.65656-.54136-.16686-1.11595-.25656-1.71027-.25656-3.20325 0-5.8 2.59675-5.8 5.80001 0 3.20327 2.59675 5.79997 5.8 5.79997h3.1537l-1.61119 2.6855c-.18536.309-.19022.6937-.01271 1.0072s.50993.5073.8702.5073h1.8338l-.8913 1.4855c-.2841.4736-.1306 1.0879.343 1.372.4736.2842 1.0878.1306 1.372-.343l1.8-3c.1854-.3089.1902-.6937.0127-1.0072s-.5099-.5073-.8702-.5073h-1.8338l.8913-1.4855c.134-.2233.1707-.4779.1223-.7145z" fill="currentColor" fill-rule="evenodd"/></svg>