<svg fill="none" height="24" viewBox="0 0 24 24" width="24" xmlns="http://www.w3.org/2000/svg"><path clip-rule="evenodd" d="m11.9999 5.20001c-2.33962 0-4.35967 1.42068-5.2454 3.46707-.11742.27128-.34884.47672-.63213.56114-1.57035.46796-2.72247 1.93798-2.72247 3.68438 0 1.4243.76614 2.6654 1.90386 3.3291.47706.2782.6382.8905.35993 1.3676-.27828.4771-.89059.6382-1.36765.3599-1.73186-1.0102-2.89614-2.8978-2.89614-5.0566 0-2.4806 1.53642-4.60475 3.71113-5.45022 1.27248-2.52469 3.87655-4.26237 6.88887-4.26237 3.7163 0 6.8105 2.64265 7.5506 6.15347 1.7898.71792 3.0494 2.47662 3.0494 4.52722 0 1.6902-.8563 3.1816-2.1558 4.0548-.4584.308-1.0798.1861-1.3878-.2723-.308-.4585-.1861-1.0798.2723-1.3878.7664-.5149 1.2713-1.394 1.2713-2.3947 0-1.3571-.93-2.4892-2.1714-2.7921-.4031-.0983-.7036-.4354-.7552-.8471-.357-2.8491-2.7684-5.04149-5.6734-5.04149zm-3.6 7.59999c.55229 0 1 .4477 1 1v6c0 .5523-.44771 1-1 1-.55228 0-1-.4477-1-1v-6c0-.5523.44772-1 1-1zm4.2 0c.5523 0 1 .4477 1 1v6c0 .5523-.4477 1-1 1s-1-.4477-1-1v-6c0-.5523.4477-1 1-1zm4.2 0c.5523 0 1 .4477 1 1v6c0 .5523-.4477 1-1 1s-1-.4477-1-1v-6c0-.5523.4477-1 1-1z" fill="currentColor" fill-rule="evenodd"/></svg>