<svg fill="none" height="24" viewBox="0 0 24 24" width="24" xmlns="http://www.w3.org/2000/svg"><path clip-rule="evenodd" d="m6.99961 6.99765c-3.24511 1.01302-5.60044 4.04175-5.60044 7.62055 0 4.4082 3.57358 7.9818 7.98182 7.9818 3.58351 0 6.61541-2.3615 7.62451-5.6132.0564-.0087.1128-.0223.1687-.0412 3.1538-1.0651 5.4266-4.0477 5.4266-7.56379 0-4.40823-3.5736-7.98182-7.9818-7.98182-3.5788 0-6.60542 2.3545-7.61939 5.59766zm2.30288-.36091c.02613-.00026.0523-.00038.0785-.00038 4.40821 0 7.98181 3.57354 7.98181 7.98184 0 .027-.0001.054-.0004.0809 1.9244-.9949 3.2384-3.0036 3.2384-5.31729 0-3.30367-2.6781-5.98182-5.9818-5.98182-2.3133 0-4.3215 1.31377-5.31651 3.23675zm.0785 1.99962c-3.30367 0-5.98182 2.67814-5.98182 5.98184 0 3.3036 2.67815 5.9818 5.98182 5.9818 3.30371 0 5.98181-2.6782 5.98181-5.9818 0-3.3037-2.6781-5.98184-5.98181-5.98184z" fill="currentColor" fill-rule="evenodd"/></svg>