<svg fill="none" height="24" viewBox="0 0 24 24" width="24" xmlns="http://www.w3.org/2000/svg"><path clip-rule="evenodd" d="m8.25334 7c-2.94072 0-5.25334 2.27715-5.25334 5 0 2.7228 2.31262 5 5.25334 5 .36068 0 .71188-.0345 1.05046-.0998.54228-.1047 1.0667.2501 1.1714.7923.1047.5423-.2501 1.0668-.79236 1.1714-.46299.0894-.94111.1361-1.4295.1361-3.96653 0-7.25334-3.0954-7.25334-7 0-3.90457 3.28681-7 7.25334-7 .48839 0 .96651.04671 1.4295.13607.54226.10467.89706.62912.79236 1.1714-.1047.54227-.62912.89703-1.1714.79236-.33858-.06536-.68978-.09983-1.05046-.09983zm7.49336 0c-2.9408 0-5.2534 2.27715-5.2534 5 0 2.7228 2.3126 5 5.2534 5 2.9407 0 5.2533-2.2772 5.2533-5 0-2.72285-2.3126-5-5.2533-5zm-7.25338 5c0-3.90457 3.28678-7 7.25338-7 3.9665 0 7.2533 3.09543 7.2533 7 0 3.9046-3.2868 7-7.2533 7-3.9666 0-7.25338-3.0954-7.25338-7z" fill="currentColor" fill-rule="evenodd"/></svg>