<svg fill="none" height="24" viewBox="0 0 24 24" width="24" xmlns="http://www.w3.org/2000/svg"><path clip-rule="evenodd" d="m19.9374 4.06255c-.8834-.88337-2.3156-.88337-3.199.00001l-3.6979 3.69785 3.199 3.19899 3.6979-3.69786c.8833-.88337.8833-2.31561 0-3.19899zm-2.2837 8.31105 3.6979-3.69784c1.6644-1.66443 1.6644-4.36299 0-6.02742l-.7071.70711.7071-.70711c-1.6644-1.664424-4.363-1.664419-6.0274 0l-3.6979 3.69786-.4462-.44619c-.3905-.39053-1.0237-.39053-1.4142 0-.39052.39052-.39052 1.02369 0 1.41421l.4462.44619-8.5193 8.51929c-.18754.1875-.2929.4419-.2929.7071v4.6132c0 .5523.44772 1 1 1h4.6132c.26522 0 .51957-.1053.70711-.2929l8.51929-8.5193.4462.4462c.3905.3905 1.0237.3905 1.4142 0s.3905-1.0237 0-1.4142zm-2.8284 0-3.199-3.19897-8.2264 8.22637v3.199h3.19899z" fill="currentColor" fill-rule="evenodd"/></svg>