<svg fill="none" height="24" viewBox="0 0 24 24" width="24" xmlns="http://www.w3.org/2000/svg"><path clip-rule="evenodd" d="m12.9843 2.31776c.5876-.58762 1.3846-.91774 2.2156-.91774h4.2667c.831 0 1.628.33012 2.2156.91774.5876.58761.9177 1.38459.9177 2.2156v12.80004c0 1.3968-.5549 2.7364-1.5426 3.724-.9877.9877-2.3273 1.5426-3.7241 1.5426h-12.79996c-.83102 0-1.62799-.3301-2.21561-.9177-.58761-.5876-.91773-1.3846-.91773-2.2156v-4.2667c0-.831.33012-1.628.91773-2.2156.58762-.5876 1.38459-.9177 2.21561-.9177h.07965l-.41983-.4198c-.58741-.5876-.9175-1.3846-.9175-2.21541 0-.83085.32999-1.62768.9174-2.21527l3.01663-3.01664c.58759-.58741 1.38453-.9175 2.21538-.9175.83083 0 1.62763.32999 2.21523.9174l.4264.42633v-.09245c0-.83101.3301-1.62799.9177-2.2156zm-.9177 5.13648-1.8404-1.84034c0-.00003.0001.00004 0 0-.2125-.2124-.50076-.33182-.80123-.33182s-.58864.11932-.80116.33172m0 0-3.01643 3.01642c-.00003.00004.00004-.00003 0 0-.2124.21252-.33182.5008-.33182.80127s.11931.58861.33172.80111c.00003.0001-.00004 0 0 0l6.45932 6.4593v-9.23766m1.0796 13.14576-6.53331-6.5333h-2.07965c-.30058 0-.58885.1194-.80139.3319-.21254.2126-.33195.5008-.33195.8014v4.2667c0 .3006.11941.5888.33195.8014.21254.2125.50081.3319.80139.3319zm2.0537-17.19998c-.3006 0-.5888.11941-.8014.33195-.2125.21254-.3319.50081-.3319.80139v12.80004c0 .8663.3441 1.6972.9568 2.3098.6126.6127 1.4435.9568 2.3098.9568.8664 0 1.6973-.3441 2.3099-.9568.6126-.6126.9568-1.4435.9568-2.3098v-12.80004c0-.30058-.1194-.58885-.3319-.80139-.2126-.21254-.5009-.33195-.8014-.33195zm2.1333 12.93338c.5523 0 1 .4477 1 1v.0106c0 .5523-.4477 1-1 1s-1-.4477-1-1v-.0106c0-.5523.4477-1 1-1z" fill="currentColor" fill-rule="evenodd"/></svg>