<svg fill="none" height="24" viewBox="0 0 24 24" width="24" xmlns="http://www.w3.org/2000/svg"><path clip-rule="evenodd" d="m4.94221 2h13.83829c1.6395 0 2.9422 1.34557 2.9422 2.9726v14.0548c0 1.627-1.3027 2.9726-2.9422 2.9726h-13.83828c-1.63952 0-2.94222-1.3456-2.94222-2.9726v-14.0548c0-1.62703 1.30269-2.9726 2.94221-2.9726zm13.83829 2h-13.83829c-.50579 0-.94221.42076-.94221.9726v3.03758h15.7227v-3.03758c0-.55184-.4364-.9726-.9422-.9726zm.9422 6.0102h-15.7227v4.0103h15.7227zm0 6.0103h-15.7227v3.0069c0 .5518.43642.9726.94222.9726h13.83828c.5058 0 .9422-.4208.9422-.9726z" fill="currentColor" fill-rule="evenodd"/></svg>