<svg fill="none" height="24" viewBox="0 0 24 24" width="24" xmlns="http://www.w3.org/2000/svg"><path clip-rule="evenodd" d="m12.2631 1.40002c.5523 0 1 .44772 1 1v.45455c1.5186.43423 2.6302 1.83263 2.6302 3.49066 0 1.00701-.4101 1.91825-1.0723 2.57587l3.5022 6.6002c.3568-.4019.6937-.8404 1.0076-1.3129.3056-.4601.9262-.5853 1.3863-.2797.46.3055.5852.9262.2797 1.3862-.5024.7565-1.0667 1.4517-1.6844 2.0707l1.9875 3.7457c.2589.4879.0732 1.0932-.4146 1.3521-.4879.2588-1.0932.0732-1.3521-.4147l-1.7846-3.3633c-1.6131 1.1314-3.4764 1.7905-5.4852 1.7905-2.1241 0-4.08534-.7368-5.76014-1.9896l-2.05135 3.5899c-.27401.4795-.88486.6461-1.36438.3721s-.64612-.8849-.37211-1.3644l2.2633-3.9608c-.52617-.5563-1.01096-1.169-1.44877-1.8282-.30557-.46-.18033-1.0807.27972-1.3862.46005-.3056 1.0807-.1804 1.38627.2797.26071.3925.53729.7615.82801 1.1056l3.66333-6.41086c-.65167-.6562-1.0543-1.56004-1.0543-2.55791 0-1.65803 1.11157-3.05643 2.63012-3.49066v-.45455c0-.55228.4477-1 1-1zm-.8305 8.47991-3.92837 6.87467c1.42192 1.1222 3.05397 1.7413 4.75917 1.7413 1.6179 0 3.17-.5574 4.5393-1.5731l-3.734-7.03714c-.2591.05871-.5287.08971-.8056.08971-.2857 0-.5638-.03302-.8305-.09544zm.8305-5.16484c-.9003 0-1.6301.72984-1.6301 1.63014s.7298 1.63014 1.6301 1.63014 1.6302-.72984 1.6302-1.63014-.7299-1.63014-1.6302-1.63014z" fill="currentColor" fill-rule="evenodd"/></svg>