<svg fill="none" height="24" viewBox="0 0 24 24" width="24" xmlns="http://www.w3.org/2000/svg"><path clip-rule="evenodd" d="m11.9999 3.3999c-4.74965 0-8.6 3.85035-8.6 8.6 0 4.7496 3.85035 8.6 8.6 8.6 4.7496 0 8.6-3.8504 8.6-8.6 0-4.74965-3.8504-8.6-8.6-8.6zm-10.6 8.6c0-5.85422 4.74578-10.6 10.6-10.6 5.8542 0 10.6 4.74578 10.6 10.6 0 5.8542-4.7458 10.6-10.6 10.6-5.85422 0-10.6-4.7458-10.6-10.6zm14.8047-4.20405c.2244.22436.3289.54189.2818.85566l-.8485 5.64849c-.0653.4343-.4061.7752-.8404.8404l-5.6485.8485c-.31378.0472-.6313-.0574-.85566-.2818-.22436-.2243-.32894-.5419-.2818-.8556l.84853-5.64857c.06523-.43424.40611-.77512.84035-.84035l5.64848-.84853c.3138-.04713.6313.05744.8557.2818zm-5.4765 2.43475-.5377 3.5794 3.5794-.5377.5377-3.57936z" fill="currentColor" fill-rule="evenodd"/></svg>