<svg fill="none" height="24" viewBox="0 0 24 24" width="24" xmlns="http://www.w3.org/2000/svg"><path clip-rule="evenodd" d="m17 3.99991c1.1046-.00001 2 .89542 2 2v7.12509c0 .5523.4477 1 1 1s1-.4477 1-1v-7.12509c0-2.20916-1.7909-4.00003-4-4l-7.12501.00008c-.55229.00001-1 .44773-.99999 1.00001.00001.55229.44773 1 1.00001.99999zm.25 5.00008c0-1.79493-1.4551-3.25-3.25-3.25h-6.75c-1.79493 0-3.25 1.45507-3.25 3.25v9.75001c0 1.7949 1.45508 3.25 3.25 3.25h6.75c1.7949 0 3.25-1.4551 3.25-3.25zm-3.25-1.25c.6904 0 1.25.55964 1.25 1.25v9.75001c0 .6903-.5596 1.25-1.25 1.25h-6.75c-.69035 0-1.25-.5597-1.25-1.25v-9.75001c0-.69036.55964-1.25 1.25-1.25z" fill="currentColor" fill-rule="evenodd"/></svg>