<svg fill="none" height="24" viewBox="0 0 24 24" width="24" xmlns="http://www.w3.org/2000/svg"><path clip-rule="evenodd" d="m8 4c-1.65685 0-3 1.34314-3 3v6.125c0 .5523-.44772 1-1 1-.55229 0-1-.4477-1-1v-6.125c0-2.76142 2.23858-5 5-5h6.125c.5523 0 1 .44772 1 1 0 .55229-.4477 1-1 1zm-1.25 5c0-1.79493 1.45508-3.25 3.25-3.25h6.75c1.7949 0 3.25 1.45508 3.25 3.25v9.75c0 1.7949-1.4551 3.25-3.25 3.25h-6.75c-1.79493 0-3.25-1.4551-3.25-3.25zm3.25-1.25c-.69035 0-1.25.55964-1.25 1.25v9.75c0 .6904.55964 1.25 1.25 1.25h6.75c.6904 0 1.25-.5596 1.25-1.25v-9.75c0-.69036-.5596-1.25-1.25-1.25z" fill="currentColor" fill-rule="evenodd"/></svg>