<svg fill="none" height="24" viewBox="0 0 24 24" width="24" xmlns="http://www.w3.org/2000/svg"><path clip-rule="evenodd" d="m6.87113 1.40002c.55229 0 1 .44772 1 1v13.15068c0 .0288.02331.0521.05206.0521h13.67671c.5523 0 1 .4477 1 1 0 .5522-.4477 1-1 1h-2.9452v4.2602c0 .5523-.4477 1-1 1s-1-.4477-1-1v-4.2602h-8.73151c-1.13332 0-2.05206-.9188-2.05206-2.0521v-7.94246h-3.47123c-.55228 0-1-.44771-1-1 0-.55228.44772-1 1-1h3.47123v-3.20822c0-.55228.44772-1 1-1zm2.94521 5.20822c0-.55228.44776-1 .99996-1h5.5233c1.1333 0 2.0521.91874 2.0521 2.05206v5.7863c0 .5523-.4477 1-1 1s-1-.4477-1-1v-5.7863c0-.02875-.0233-.05206-.0521-.05206h-5.5233c-.5522 0-.99996-.44771-.99996-1z" fill="currentColor" fill-rule="evenodd"/></svg>