<svg fill="none" height="24" viewBox="0 0 24 24" width="24" xmlns="http://www.w3.org/2000/svg"><path clip-rule="evenodd" d="m6.87113 1.40002c.55229 0 1 .44772 1 1v3.2019l8.73147-.05504c1.1334 0 2.0521.91875 2.0521 2.05207v8.00385h2.9452c.5523 0 1 .4477 1 1 0 .5522-.4477 1-1 1h-2.9452v4.2602c0 .5523-.4477 1-1 1s-1-.4477-1-1v-4.2602h-8.73151c-1.13332 0-2.05206-.9188-2.05206-2.0521v-7.94246h-3.47123c-.55228 0-1-.44771-1-1 0-.55228.44772-1 1-1h3.47123v-3.20822c0-.55228.44772-1 1-1zm1 6.20194v7.94874c0 .0288.02331.0521.05206.0521h8.73151v-8.00385c0-.02836-.0227-.05143-.0509-.05204z" fill="currentColor" fill-rule="evenodd"/></svg>