<svg fill="none" height="24" viewBox="0 0 24 24" width="24" xmlns="http://www.w3.org/2000/svg"><path clip-rule="evenodd" d="m14.1876 6.21334c-.608-.24919-1.281-.29188-1.9156-.12152-.6345.17036-1.1957.54435-1.5971 1.06452-.4009.51944-.6204 1.15595-.6249 1.81202v2.99674h3.9c.5522 0 1 .4477 1 1s-.4478 1-1 1h-3.9v2.5c0 .0373-.0021.0746-.0063.1117-.0214.1901-.05627.3778-.10414.5616.82694-.0181 1.65214.1106 2.43674.3815.0306.0106.0608.0226.0903.0362.6537.2996 1.3643.4547 2.0834.4547.719 0 1.4296-.1551 2.0833-.4547.502-.2302 1.0956-.0097 1.3257.4924.2301.502.0097 1.0956-.4924 1.3257-.9151.4194-1.91.6366-2.9166.6366-.9891 0-1.9668-.2096-2.8686-.6148-.671-.2249-1.3823-.3049-2.08681-.2345-.47023.047-.93015.1604-1.36635.3356-.26513.17-.55068.309-.85121.413-.48564.1681-1.01962-.0593-1.23501-.5259s-.04205-1.0204.4009-1.281c.23378-.1375.47481-.261.72179-.3701.13581-.1013.25885-.22.36574-.3536.22547-.2818.37027-.6191.4195-.9761v-2.4383h-1.1c-.55228 0-1-.4477-1-1s.44772-1 1-1h1.1v-3.006c.0066-1.09509.37256-2.15773 1.04163-3.02468s1.60422-1.49027 2.66192-1.77421c1.0577-.28393 2.1793-.21278 3.1926.20253s1.8622 1.15181 2.4164 2.09636c.2794.47635.1198 1.08907-.3565 1.36854-.4764.27947-1.0891.11987-1.3686-.35649-.3325-.56673-.8418-1.00863-1.4498-1.25781z" fill="currentColor" fill-rule="evenodd"/></svg>