<svg fill="none" height="24" viewBox="0 0 24 24" width="24" xmlns="http://www.w3.org/2000/svg"><path clip-rule="evenodd" d="m11.9999 3.39999c-4.74965 0-8.6 3.85035-8.6 8.60001 0 4.7496 3.85035 8.6 8.6 8.6 4.7496 0 8.6-3.8504 8.6-8.6 0-4.74966-3.8504-8.60001-8.6-8.60001zm-10.6 8.60001c0-5.85423 4.74578-10.60001 10.6-10.60001 5.8542 0 10.6 4.74578 10.6 10.60001 0 5.8542-4.7458 10.6-10.6 10.6-5.85422 0-10.6-4.7458-10.6-10.6zm10.5569-7.00001c.5523.00028.9998.44822.9995 1.0005l-.0003.60881c1.0052.18374 1.9468.64382 2.7146 1.33785.4097.37036.4416 1.00272.0712 1.41242-.3703.4097-1.0027.44159-1.4124.07123-.6503-.58783-1.496-.91277-2.3726-.91161h-.0006c-.4668.00031-.929.09256-1.3601.27148-.4311.17893-.82282.44101-1.15267.77131-.32985.33029-.59142.72232-.76977 1.15372-.17834.4314-.26997.8936-.26966 1.3604v.0007c0 1.9663 1.59083 3.5576 3.5515 3.5576h.0014c.8755.0012 1.7202-.3228 2.3702-.9092.4101-.37 1.0424-.3375 1.4124.0726.3699.4101.3374 1.0424-.0727 1.4123-.7671.6921-1.7073 1.1509-2.7108 1.3342l.0003.6088c.0003.5523-.4472 1.0002-.9995 1.0005s-1.0002-.4472-1.0005-.9995l-.0003-.6095c-2.5902-.4712-4.552-2.7408-4.552-5.4678h.99928l-.99928.0007c0-.0003 0-.0005 0-.0007-.0004-.7292.14279-1.4514.42139-2.12526.2787-.6741.68743-1.2867 1.20288-1.80283.51544-.51614 1.1275-.92569 1.80123-1.20528.3635-.15087.7412-.2623 1.1265-.33301l.0003-.61093c.0003-.55228.4482-.99977 1.0005-.9995zm-.002 12.63441c-.0002 0-.0004 0-.0007 0l.0014-1v1c-.0002 0-.0004 0-.0007 0z" fill="currentColor" fill-rule="evenodd"/></svg>