<svg fill="none" height="24" viewBox="0 0 24 24" width="24" xmlns="http://www.w3.org/2000/svg"><path clip-rule="evenodd" d="m11.9999 3.39999c-4.74965 0-8.6 3.85035-8.6 8.60001 0 4.7496 3.85035 8.6 8.6 8.6 4.7496 0 8.6-3.8504 8.6-8.6 0-4.74966-3.8504-8.60001-8.6-8.60001zm-10.6 8.60001c0-5.85423 4.74578-10.60001 10.6-10.60001 5.8542 0 10.6 4.74578 10.6 10.60001 0 5.8542-4.7458 10.6-10.6 10.6-5.85422 0-10.6-4.7458-10.6-10.6zm9.0193-7.00001c.5523 0 1 .44772 1 1v1.01928h.6923v-1.01928c0-.55228.4477-1 1-1s1 .44772 1 1v1.03701c.6806.0741 1.3194.37796 1.8081.86659.5662.56622.8843 1.33419.8843 2.13491 0 .7475-.2772 1.4664-.7746 2.0193.4974.5529.7746 1.2718.7746 2.0193 0 .8007-.3181 1.5687-.8843 2.1349-.4887.4887-1.1275.7925-1.8081.8666v1.037c0 .5523-.4477 1-1 1s-1-.4477-1-1v-1.0192h-.6923v1.0192c0 .5523-.4477 1-1 1-.55231 0-1.00003-.4477-1.00003-1v-1.0192h-1.01927c-.55228 0-1-.4478-1-1 0-.5523.44772-1 1-1h.34618v-6.07713h-.34618c-.55228 0-1-.44772-1-1 0-.55229.44772-1 1-1h1.01927v-1.01928c0-.55228.44772-1 1.00003-1zm.3269 4.01928v2.03853h3.0385c.2704 0 .5296-.1074.7208-.2985.1911-.1912.2985-.4504.2985-.7208 0-.27029-.1074-.52955-.2985-.7207-.1912-.19115-.4504-.29853-.7208-.29853zm3.0385 4.03853h-3.0385v2.0386h3.0385c.2704 0 .5296-.1074.7208-.2986.1911-.1911.2985-.4504.2985-.7207s-.1074-.5296-.2985-.7208c-.1912-.1911-.4504-.2985-.7208-.2985z" fill="currentColor" fill-rule="evenodd"/></svg>