<svg fill="none" height="24" viewBox="0 0 24 24" width="24" xmlns="http://www.w3.org/2000/svg"><path clip-rule="evenodd" d="m5.50003 5c0-.55228.44771-1 1-1h10.99997c.5523 0 1 .44772 1 1s-.4477 1-1 1h-3.9999c.4446.59279.7512 1.27631.8989 2h3.101c.5523 0 1 .44772 1 1 0 .55229-.4477 1-1 1h-3.101c-.1946.9534-.6651 1.8372-1.3634 2.5355-.9377.9377-2.2095 1.4645-3.53557 1.4645h-.58579l4.29286 4.2929c.3906.3905.3906 1.0237 0 1.4142-.3905.3905-1.0237.3905-1.4142 0l-5.99998-6c-.286-.286-.37155-.7161-.21677-1.0898s.51942-.6173.92388-.6173h3c.79567 0 1.55867-.3161 2.12127-.8787.3195-.3194.5594-.7034.7072-1.1213h-5.82847c-.55229 0-1-.44771-1-1 0-.55228.44771-1 1-1h5.82847c-.1478-.4179-.3877-.80192-.7072-1.12132-.5626-.56261-1.3256-.87868-2.12127-.87868h-3c-.55229 0-1-.44772-1-1z" fill="currentColor" fill-rule="evenodd"/></svg>