<svg fill="none" height="24" viewBox="0 0 24 24" width="24" xmlns="http://www.w3.org/2000/svg"><path clip-rule="evenodd" d="m7.5 5c0-.55228.44772-1 1-1h6c1.0609 0 2.0783.42143 2.8284 1.17157.7502.75015 1.1716 1.76756 1.1716 2.82843s-.4214 2.0783-1.1716 2.8284c-.7501.7502-1.7675 1.1716-2.8284 1.1716h-5v2h5c.5523 0 1 .4477 1 1s-.4477 1-1 1h-5v3c0 .5523-.44772 1-1 1s-1-.4477-1-1v-3h-1c-.55228 0-1-.4477-1-1s.44772-1 1-1h1v-2h-1c-.55228 0-1-.4477-1-1s.44772-1 1-1h1zm2 5h5c.5304 0 1.0391-.21071 1.4142-.58579.3751-.37507.5858-.88378.5858-1.41421s-.2107-1.03914-.5858-1.41421c-.3751-.37508-.8838-.58579-1.4142-.58579h-5z" fill="currentColor" fill-rule="evenodd"/></svg>