<svg fill="none" height="24" viewBox="0 0 24 24" width="24" xmlns="http://www.w3.org/2000/svg"><path clip-rule="evenodd" d="m11.9999 3.39999c-4.74965 0-8.6 3.85035-8.6 8.60001 0 4.7496 3.85035 8.6 8.6 8.6 4.7496 0 8.6-3.8504 8.6-8.6 0-4.74966-3.8504-8.60001-8.6-8.60001zm-10.6 8.60001c0-5.85423 4.74578-10.60001 10.6-10.60001 5.8542 0 10.6 4.74578 10.6 10.60001 0 5.8542-4.7458 10.6-10.6 10.6-5.85422 0-10.6-4.7458-10.6-10.6zm8.6682-5.27531c.9495-.46545 2.0074-.59746 3.033-.36896 1.0232.22797 1.9419.79806 2.6514 1.60914.3637.41568.3215 1.04744-.0942 1.41107-.4156.36364-1.0474.32146-1.411-.09421-.4526-.51731-1.0063-.84578-1.5812-.97386-.5724-.12754-1.1671-.05723-1.7176.21263-.4923.24134-.9402.63879-1.28669 1.16837h2.44629c.5523 0 1 .44773 1 1.00003s-.4477 1-1 1h-3.11514c-.01022.1247-.01541.2505-.01541.377s.00519.2524.01541.3771h3.11514c.5523 0 1 .4477 1 1s-.4477 1-1 1h-2.44629c.34649.5296.79439.927 1.28669 1.1683.5505.2699 1.1452.3402 1.7176.2127.5749-.1281 1.1286-.4566 1.5812-.9739.3636-.4157.9954-.4578 1.411-.0942.4157.3636.4579.9954.0942 1.4111-.7095.8111-1.6282 1.3811-2.6514 1.6091-1.0256.2285-2.0835.0965-3.033-.3689-.94611-.4639-1.72888-1.2304-2.26911-2.1789-.14347-.2519-.26871-.5146-.37526-.7853h-.82383c-.55228 0-1-.4477-1-1s.44772-1 1-1h.3884c-.00715-.1254-.01075-.2511-.01075-.3771 0-.1259.0036-.2517.01075-.377h-.3884c-.55228 0-1-.4477-1-1s.44772-1.00003 1-1.00003h.82383c.10655-.27077.23179-.53339.37526-.7853.54023-.94848 1.323-1.71504 2.26911-2.17888z" fill="currentColor" fill-rule="evenodd"/></svg>