<svg fill="none" height="24" viewBox="0 0 24 24" width="24" xmlns="http://www.w3.org/2000/svg"><path clip-rule="evenodd" d="m11.5556 1c.5522 0 1 .44772 1 1v2.33333h1.2222c.0144 0 .0287.00031.0431.00093.8642.03732 1.6974.33238 2.3924.84722s1.2201 1.2259 1.5076 2.04167c.1836.52088-.0898 1.09196-.6107 1.27554s-1.092-.08985-1.2756-.61073c-.1548-.43926-.4375-.82214-.8117-1.09936-.369-.27332-.8103-.43161-1.2686-.45527h-4.42097c-.61884 0-1.21233.24584-1.64991.68342-.43759.43759-.68342 1.03108-.68342 1.64992s.24583 1.21233.68342 1.64993c.43758.4376 1.03107.6834 1.64991.6834h4.44447c1.1492 0 2.2514.4565 3.0641 1.2692s1.2692 1.9149 1.2692 3.0641c0 1.1493-.4565 2.2515-1.2692 3.0642-.8127.8126-1.9149 1.2692-3.0641 1.2692h-1.2222v2.3333c0 .5523-.4478 1-1 1-.5523 0-1-.4477-1-1v-2.3333h-1.22227c-.01438 0-.02876-.0003-.04313-.001-.86415-.0373-1.69736-.3323-2.39239-.8472-.69504-.5148-1.2201-1.2259-1.50761-2.0417-.18358-.5208.08985-1.0919.61073-1.2755s1.09196.0899 1.27554.6107c.15482.4393.43754.8222.81179 1.0994.36899.2733.81029.4316 1.26857.4553h4.42097c.6188 0 1.2123-.2459 1.6499-.6835.4376-.4375.6834-1.031.6834-1.6499 0-.6188-.2458-1.2123-.6834-1.6499s-1.0311-.6834-1.6499-.6834h-4.44447c-1.14927 0-2.25147-.4565-3.06413-1.2692-.81265-.8127-1.2692-1.91486-1.2692-3.06413s.45655-2.25148 1.2692-3.06413c.81266-.81266 1.91486-1.26921 3.06413-1.26921h1.22227v-2.33333c0-.55228.4477-1 1-1z" fill="currentColor" fill-rule="evenodd"/></svg>