<svg fill="none" height="24" viewBox="0 0 24 24" width="24" xmlns="http://www.w3.org/2000/svg"><path clip-rule="evenodd" d="m2 6c0-1.10457.89543-2 2-2h10.7931c.5523 0 1 .44772 1 1v2.18182h2.1035c.2695 0 .5276.10881.7158.30176l3.1035 3.18182c.1821.1868.2841.4373.2841.6982v5.0909c0 .4671-.3202.8594-.753.9693-.412 1.4749-1.7408 2.5762-3.3504 2.5762-1.5985 0-2.92-1.086-3.3417-2.5455h-4.4891c-.42173 1.4595-1.74319 2.5455-3.34166 2.5455s-2.91993-1.086-3.34167-2.5455h-.38247c-.55228 0-1-.4477-1-1zm2 8.2459c.63424-.8112 1.61216-1.3368 2.72414-1.3368 1.59847 0 2.91993 1.086 3.34166 2.5454h3.7273v-9.4545h-9.7931zm11.7931-.6181v-4.44598h1.6819l2.525 2.58878v1.8572c-.5815-.4499-1.3082-.7187-2.1034-.7187-.7953 0-1.522.2688-2.1035.7187zm-9.06896 1.2813c-.79554 0-1.48276.6683-1.48276 1.5454 0 .8772.68722 1.5455 1.48276 1.5455s1.48276-.6683 1.48276-1.5455c0-.8771-.68722-1.5454-1.48276-1.5454zm11.17246 0c-.7956 0-1.4828.6683-1.4828 1.5454 0 .8772.6872 1.5455 1.4828 1.5455.7955 0 1.4827-.6683 1.4827-1.5455 0-.8771-.6872-1.5454-1.4827-1.5454z" fill="currentColor" fill-rule="evenodd"/></svg>