<svg fill="none" height="24" viewBox="0 0 24 24" width="24" xmlns="http://www.w3.org/2000/svg"><path clip-rule="evenodd" d="m4.7999 3.39999c-.7732 0-1.4.62681-1.4 1.4v14.40001c0 .7732.6268 1.4 1.4 1.4h14.4c.7732 0 1.4-.6268 1.4-1.4v-14.40001c0-.77319-.6268-1.4-1.4-1.4zm-3.4 1.4c0-1.87776 1.52223-3.4 3.4-3.4h14.4c1.8778 0 3.4 1.52224 3.4 3.4v14.40001c0 1.8778-1.5222 3.4-3.4 3.4h-14.4c-1.87777 0-3.4-1.5222-3.4-3.4zm14.9071 2.8929c.3905.39052.3905 1.02369 0 1.41421l-7.19999 7.2c-.39053.3905-1.02369.3905-1.41422 0-.39052-.3905-.39052-1.0237 0-1.4142l7.20001-7.20001c.3905-.39053 1.0237-.39053 1.4142 0zm-8.07087.53149c.39249-.38855 1.02564-.38535 1.41419.00714l.01415.01429c.38853.39249.38533 1.02565-.00714 1.41419-.39249.3886-1.02565.3854-1.4142-.00714l-.01415-.01429c-.38854-.39249-.38534-1.02565.00715-1.41419zm6.11057 6.17332c.3925-.3885 1.0256-.3853 1.4142.0072l.0141.0143c.3885.3925.3853 1.0256-.0072 1.4142-.3925.3885-1.0256.3853-1.4142-.0072l-.0141-.0143c-.3886-.3925-.3853-1.0257.0072-1.4142z" fill="currentColor" fill-rule="evenodd"/></svg>