<svg fill="none" height="24" viewBox="0 0 24 24" width="24" xmlns="http://www.w3.org/2000/svg"><path clip-rule="evenodd" d="m11.9999 3.39999c-4.74965 0-8.6 3.85035-8.6 8.60001 0 4.7496 3.85035 8.6 8.6 8.6 4.7496 0 8.6-3.8504 8.6-8.6 0-4.74966-3.8504-8.60001-8.6-8.60001zm-10.6 8.60001c0-5.85423 4.74578-10.60001 10.6-10.60001 5.8542 0 10.6 4.74578 10.6 10.60001 0 5.8542-4.7458 10.6-10.6 10.6-5.85422 0-10.6-4.7458-10.6-10.6zm14.9071-4.30711c.3905.39052.3905 1.02369 0 1.41421l-7.19999 7.2c-.39053.3905-1.02369.3905-1.41422 0-.39052-.3905-.39052-1.0237 0-1.4142l7.20001-7.20001c.3905-.39053 1.0237-.39053 1.4142 0zm-8.07087.53149c.39249-.38855 1.02564-.38535 1.41419.00714l.01415.01429c.38853.39249.38533 1.02565-.00714 1.41419-.39249.3886-1.02565.3854-1.4142-.00714l-.01415-.01429c-.38854-.39249-.38534-1.02565.00715-1.41419zm6.11057 6.17332c.3925-.3885 1.0256-.3853 1.4142.0072l.0141.0143c.3885.3925.3853 1.0256-.0072 1.4142-.3925.3885-1.0256.3853-1.4142-.0072l-.0141-.0143c-.3886-.3925-.3853-1.0257.0072-1.4142z" fill="currentColor" fill-rule="evenodd"/></svg>