<svg fill="none" height="24" viewBox="0 0 25 24" width="25" xmlns="http://www.w3.org/2000/svg"><path clip-rule="evenodd" d="m4.43964 13.7327v7.1632h8.08446c1.9321 0 3.6354-.3644 5.1099-1.0932 1.4745-.7458 2.627-1.7796 3.4575-3.1016.8305-1.3389 1.2457-2.9066 1.2457-4.7032 0-1.8135-.4152-3.3812-1.2457-4.70318s-1.983-2.34736-3.4575-3.07615c-1.4745-.74573-3.1778-1.11859-5.1099-1.11859h-8.08446v7.07352h-2.10248v3.5592zm4.11848 0v3.7819h3.76258c1.1864 0 2.2117-.2203 3.0761-.661.8813-.4576 1.5593-1.1016 2.0338-1.9321.4915-.8304.7373-1.805.7373-2.9236 0-1.1355-.2458-2.11007-.7373-2.92359-.4745-.83048-1.1525-1.46604-2.0338-1.9067-.8644-.45761-1.8897-.68642-3.0761-.68642h-3.76258v3.69231h3.56678v3.5592z" fill="currentColor" fill-rule="evenodd"/></svg>