<svg fill="none" height="24" viewBox="0 0 24 24" width="24" xmlns="http://www.w3.org/2000/svg"><path clip-rule="evenodd" d="m12.0001 3.39999c-.7732 0-1.4.62681-1.4 1.4 0 .7732.6268 1.4 1.4 1.4s1.4-.6268 1.4-1.4c0-.77319-.6268-1.4-1.4-1.4zm-3.4 1.4c0-1.87776 1.5222-3.4 3.4-3.4s3.4 1.52224 3.4 3.4c0 1.87777-1.5222 3.4-3.4 3.4s-3.4-1.52223-3.4-3.4zm3.4 5.80001c-.7732 0-1.4.6268-1.4 1.4s.6268 1.4 1.4 1.4 1.4-.6268 1.4-1.4-.6268-1.4-1.4-1.4zm-3.4 1.4c0-1.8778 1.5222-3.40001 3.4-3.40001s3.4 1.52221 3.4 3.40001-1.5222 3.4-3.4 3.4-3.4-1.5222-3.4-3.4zm3.4 5.8c-.7732 0-1.4.6268-1.4 1.4s.6268 1.4 1.4 1.4 1.4-.6268 1.4-1.4-.6268-1.4-1.4-1.4zm-3.4 1.4c0-1.8778 1.5222-3.4 3.4-3.4s3.4 1.5222 3.4 3.4-1.5222 3.4-3.4 3.4-3.4-1.5222-3.4-3.4z" fill="currentColor" fill-rule="evenodd"/></svg>