<svg fill="none" height="24" viewBox="0 0 24 24" width="24" xmlns="http://www.w3.org/2000/svg"><path clip-rule="evenodd" d="m12.7073 1.69292-.7071.7071-.7071-.70711c.1875-.18753.4418-.29289.7071-.29289.2652.00001.5195.10537.7071.2929zm-.7072 2.16068c-.1154.12577-.2423.26576-.3788.41872-.6603.7401-1.5388 1.77801-2.41505 2.97176-.87838 1.19669-1.74038 2.531-2.37935 3.86462-.64472 1.3457-1.02685 2.618-1.02685 3.71 0 3.1313 2.72498 5.7813 6.20005 5.7813 3.4751 0 6.1999-2.6499 6.1999-5.7813 0-1.092-.3821-2.3643-1.0268-3.71-.6389-1.33363-1.5009-2.66794-2.3793-3.86463-.8761-1.19375-1.7546-2.23166-2.4149-2.97176-.1365-.15295-.2634-.29294-.3789-.41871zm.0001-1.45358c-.7071-.70711-.707-.70729-.7071-.70711l-.0073.00727-.0175.01767c-.015.01519-.0367.03718-.0645.06569-.0557.057-.1361.14008-.2377.247-.2033.21378-.4918.52321-.8371.91027-.68971.77299-1.61123 1.86124-2.53504 3.11984-.92165 1.25564-1.85968 2.69984-2.57073 4.18395-.7053 1.4721-1.22318 3.0568-1.22318 4.5741 0 4.3471 3.73502 7.7813 8.20005 7.7813 4.465 0 8.1999-3.4341 8.1999-7.7813 0-1.5173-.5178-3.102-1.2231-4.5741-.711-1.4841-1.649-2.92829-2.5706-4.18394-.9238-1.25859-1.8453-2.34685-2.535-3.11984-.3453-.38706-.6338-.69649-.8371-.91027-.1016-.10692-.182-.19-.2377-.247-.0278-.02851-.0495-.0505-.0645-.06569l-.0175-.01767-.0049-.00494-.0015-.0015c-.0002-.00018-.0008-.00083-.7079.70627zm3.9043 11.04748c.5261.1681.8162.7309.6481 1.257-.6367 1.992-2.2269 3.5619-4.231 4.2424-.523.1776-1.0909-.1024-1.2685-.6254-.1775-.5229.1025-1.0908.6254-1.2684 1.431-.4859 2.5341-1.5968 2.969-2.9575.1681-.5261.7309-.8162 1.257-.6481z" fill="currentColor" fill-rule="evenodd"/></svg>