<svg fill="none" height="24" viewBox="0 0 24 24" width="24" xmlns="http://www.w3.org/2000/svg"><path clip-rule="evenodd" d="m14.4761 4.0932c.8588-.85921 2.2514-.8598 3.1108-.0013l2.0705 2.06807c.8598.85885.8604 2.25216.0013 3.11172l-9.77372 9.77901c-.30642.3066-.69658.5159-1.1215.6015l-4.36599.8797c-.32836.0662-.66805-.0365-.90483-.2734-.23679-.2369-.33923-.5767-.27288-.905l.88131-4.3608c.08569-.4241.29451-.8135.60034-1.1194zm1.6974 1.41371c-.0781-.07805-.2047-.07799-.2828.00012l-9.77467 9.78007c-.0278.0278-.04678.0632-.05458.1017l-.58305 2.8851 2.89003-.5823c.03863-.0078.0741-.0268.10195-.0547l9.77372-9.77903c.0781-.07814.078-.20481-.0002-.28288zm-3.3736 14.04469c0-.5523.4477-1 1-1h6c.5523 0 1 .4477 1 1s-.4477 1-1 1h-6c-.5523 0-1-.4477-1-1z" fill="currentColor" fill-rule="evenodd"/></svg>