<svg fill="none" height="24" viewBox="0 0 24 24" width="24" xmlns="http://www.w3.org/2000/svg"><path clip-rule="evenodd" d="m13.2549 4.0117c.8588-.85921 2.2514-.85979 3.1108-.0013l2.0705 2.06807c.8598.85885.8604 2.25216.0013 3.11173l-9.77371 9.779c-.30642.3066-.69658.5159-1.12151.6015l-4.36598.8797c-.32836.0662-.66805-.0365-.90483-.2734-.23679-.2369-.33923-.5767-.27288-.905l.88131-4.3608c.08569-.4241.29451-.8134.60034-1.1194zm1.6974 1.41371c-.0781-.07804-.2047-.07799-.2828.00012l-9.77466 9.78007c-.0278.0278-.04679.0632-.05458.1017l-.58305 2.8851 2.89003-.5823c.03863-.0078.07409-.0268.10195-.0547l9.77371-9.77903c.0781-.07814.078-.2048-.0002-.28288zm.7615 13.78869c-.3781-.5946-1.2198-.663-1.689-.1372l-.7422.8319c-.3677.4121-.9999.4481-1.412.0804-.412-.3677-.448-.9998-.0804-1.4119l.7423-.8319c1.3524-1.5157 3.7788-1.3187 4.8689.3953.3523.5539 1.1176.6589 1.6061.2204l1.3454-1.208c.411-.369 1.0432-.335 1.4122.076.369.4109.3349 1.0432-.076 1.4121l-1.3455 1.2081c-1.408 1.2642-3.6142.9615-4.6298-.6352z" fill="currentColor" fill-rule="evenodd"/></svg>