<svg fill="none" height="24" viewBox="0 0 24 24" width="24" xmlns="http://www.w3.org/2000/svg"><path clip-rule="evenodd" d="m13.9514 5.036c.5324.14687.845.69753.6981 1.22993l-1.6851 6.10837-.0007.0025-1.6077 5.8866c-.1455.5328-.6953.8468-1.2281.7013-.53275-.1455-.8467-.6954-.70119-1.2282l1.60839-5.8891.0006-.0025 1.6858-6.11084c.1469-.5324.6975-.84493 1.2299-.69806zm2.9581 3.08266c.3858-.39522 1.0189-.40288 1.4141-.0171l3.3749 3.29424c.1928.1882.3015.4462.3015.7156s-.1087.5274-.3015.7156l-3.3749 3.2942c-.3952.3858-1.0283.3781-1.4141-.0171s-.3781-1.0283.0171-1.4141l2.6418-2.5786-2.6418-2.57863c-.3952-.38577-.4029-1.01889-.0171-1.41411zm-9.819 0c.38578.39522.37812 1.02834-.0171 1.41411l-2.64177 2.57863 2.64177 2.5786c.39522.3858.40288 1.0189.0171 1.4141-.38577.3952-1.01889.4029-1.41411.0171l-3.37489-3.2942c-.19279-.1882-.3015-.4462-.3015-.7156s.10871-.5274.3015-.7156l3.37489-3.29424c.39522-.38577 1.02834-.37812 1.41411.0171z" fill="currentColor" fill-rule="evenodd"/></svg>