<svg fill="none" height="24" viewBox="0 0 24 24" width="24" xmlns="http://www.w3.org/2000/svg"><path clip-rule="evenodd" d="m14.6415 3.40131c0 .00004.0001-.00004 0 0l-10.03992 10.03999c-.00004 0 .00004-.0001 0 0-.00074.0008-.00128.002-.00128.0031s.00041.0021.00115.003c.00005 0-.00004-.0001 0 0l3.7228 3.7228h2.59665l8.7447-8.74479c.0001-.00004 0 .00004 0 0 .0008-.00081.0013-.002.0013-.00311 0-.00112-.0004-.00219-.0011-.003-.0001-.00004 0 .00004 0 0l-5.018-5.01799c-.0001-.00004 0 .00004 0 0-.0008-.00074-.002-.00129-.0031-.00129-.0012 0-.0023.00054-.0032.00129zm-1.41-1.41842c.3756-.37332.8836-.58287 1.4132-.58287.5295 0 1.0375.20955 1.4131.58287l.0021.0021 5.0242 5.02419c.3733.37556.5828.88359.5828 1.41312s-.2095 1.03756-.5828 1.41311l-.0021.00211-9.0398 9.03978c-.1875.1875-.4419.2929-.7071.2929h-3.42506c-.26522 0-.51957-.1054-.70711-.2929l-4.01766-4.0177-.0021-.0021c-.37333-.3756-.58287-.8836-.58287-1.4131 0-.5296.20954-1.0376.58287-1.4131l.0021-.0021 10.04413-10.04421zm-10.6314 19.61711c0-.5523.44771-1 1-1h17.6c.5522 0 1 .4477 1 1s-.4478 1-1 1h-17.6c-.55229 0-1-.4477-1-1z" fill="currentColor" fill-rule="evenodd"/></svg>