<svg fill="none" height="24" viewBox="0 0 24 24" width="24" xmlns="http://www.w3.org/2000/svg"><path clip-rule="evenodd" d="m14.7334 4.63765c-.0001.00017.0002-.00018 0 0l-3.3829 3.38298 6.0261 5.63167 3.1857-3.1857c.0002-.0002-.0001.0001 0 0 .024-.0243.0378-.0575.0378-.0917 0-.0341-.0134-.0669-.0373-.0912-.0002-.0001.0001.0002 0 0l-5.6461-5.64605c-.0002-.00018.0002.00017 0 0-.0243-.02388-.0575-.0378-.0916-.0378s-.0674.01392-.0917.0378zm1.2282 10.42965-6.02615-5.63165-6.49751 6.49755c-.00017.0001.00018-.0002 0 0-.02388.0243-.03779.0575-.03779.0916s.01339.0668.03727.0911c.00017.0002-.00018-.0002 0 0l4.22541 4.2254h3.02477zm-2.4456 5.274 8.4627-8.4626.0021-.0021c.3967-.3991.6193-.939.6193-1.5017 0-.56268-.2226-1.10252-.6193-1.50161l-5.652-5.65196-.0021-.0021c-.3991-.3967-.9389-.61938-1.5016-.61938s-1.1026.22268-1.5017.61938l-.0021.0021-4.11275 4.11279c-.00221.00219-.00441.00439-.0066.0066l-7.18032 7.18028-.0021.0022c-.39671.399-.61938.9389-.61938 1.5016s.22267 1.1025.61938 1.5016l.0021.0021 4.51988 4.5199c.18754.1875.44189.2929.70711.2929h12.42968c.5523 0 1-.4477 1-1s-.4477-1-1-1z" fill="currentColor" fill-rule="evenodd"/></svg>