<svg fill="none" height="24" viewBox="0 0 24 24" width="24" xmlns="http://www.w3.org/2000/svg"><path clip-rule="evenodd" d="m2 5c0-1.65685 1.34315-3 3-3h4c.55228 0 1 .44772 1 1s-.44772 1-1 1h-4c-.55228 0-1 .44772-1 1v4c0 .55228-.44772 1-1 1s-1-.44772-1-1zm12-2c0-.55228.4477-1 1-1h4c1.6569 0 3 1.34315 3 3v4c0 .55228-.4477 1-1 1s-1-.44772-1-1v-4c0-.55228-.4477-1-1-1h-4c-.5523 0-1-.44772-1-1zm-11 11c.55228 0 1 .4477 1 1v4c0 .5523.44772 1 1 1h4c.55228 0 1 .4477 1 1s-.44772 1-1 1h-4c-1.65685 0-3-1.3431-3-3v-4c0-.5523.44772-1 1-1zm18 0c.5523 0 1 .4477 1 1v4c0 1.6569-1.3431 3-3 3h-4c-.5523 0-1-.4477-1-1s.4477-1 1-1h4c.5523 0 1-.4477 1-1v-4c0-.5523.4477-1 1-1z" fill="currentColor" fill-rule="evenodd"/></svg>