<svg fill="none" height="24" viewBox="0 0 24 24" width="24" xmlns="http://www.w3.org/2000/svg"><path clip-rule="evenodd" d="m3.47139 12.103c.06523-.1622.15863-.3789.2836-.6338.294-.5996.75662-1.398 1.4281-2.19302 1.33107-1.5759 3.47063-3.13333 6.81681-3.13333 3.3462 0 5.4857 1.55743 6.8168 3.13333.6715.79502 1.1341 1.59342 1.4281 2.19302.1267.2584.2209.4775.2863.6405-.0672.1592-.1633.3725-.2917.6233-.3003.587-.7704 1.3675-1.4464 2.1412-1.34 1.5337-3.4767 3.0355-6.7767 2.9815-3.32162-.0543-5.47254-1.5682-6.81534-3.0779-.6769-.7611-1.14671-1.521-1.44619-2.0893-.1234-.2341-.21694-.434-.28338-.5855zm18.12851.016c.9543-.2989.9542-.2993.954-.2998l-.0004-.0012-.0008-.0028-.0024-.0074-.0073-.0225c-.0061-.0182-.0144-.043-.0252-.0738-.0215-.0617-.0527-.1478-.0943-.2549-.0832-.2139-.2087-.5126-.3829-.8679-.3474-.70841-.8944-1.654-1.696-2.60305-1.6151-1.91216-4.2755-3.8428-8.3447-3.8428s-6.72964 1.93064-8.34472 3.8428c-.8016.94905-1.34859 1.89464-1.69594 2.60305-.1742.3553-.29969.654-.38293.8679-.04165.1071-.07284.1932-.09434.2549-.01075.0308-.01909.0556-.02512.0738l-.00732.0225-.00238.0074-.00088.0028-.00036.0012c-.00016.0005-.00031.0009.95399.2998l-.9543-.2989-.09819.3136.10691.3107.94558-.3254c-.94558.3254-.94541.3258-.94524.3264l.00039.0011.00096.0027.00255.0073.00777.0217c.00636.0176.01513.0414.02639.071.0225.0591.055.1414.0982.2436.08634.2043.21588.4892.3945.8281.35629.6761.91341 1.5779 1.72112 2.4861 1.62643 1.8286 4.2755 3.683 8.27706 3.7485 4.023.0657 6.6863-1.8007 8.3155-3.6653.8086-.9254 1.3654-1.8515 1.7209-2.5463.1782-.3485.3074-.6418.3934-.8521.043-.1052.0753-.1899.0976-.2506.0112-.0303.0199-.0547.0262-.0727l.0076-.0221.0025-.0074.0009-.0027.0004-.0012c.0002-.0005.0003-.001-.9487-.3161zm0 0 .949.3151.1017-.3061-.0964-.3079zm-9.6-1.4252c-.7991 0-1.4.6234-1.4 1.3354 0 .7119.6009 1.3353 1.4 1.3353s1.4-.6234 1.4-1.3353c0-.712-.6009-1.3354-1.4-1.3354zm8.6464 1.7263c.0002.0004.0002.0005 0 .0001zm-12.0464-.3909c0-1.8677 1.5481-3.3354 3.4-3.3354s3.4 1.4677 3.4 3.3354c0 1.8676-1.5481 3.3353-3.4 3.3353s-3.4-1.4677-3.4-3.3353z" fill="currentColor" fill-rule="evenodd"/></svg>