<svg fill="none" height="24" viewBox="0 0 24 24" width="24" xmlns="http://www.w3.org/2000/svg"><path clip-rule="evenodd" d="m1.3999 4.53336c0-1.73049 1.40284-3.13334 3.13334-3.13334h4.26666c.55229 0 1 .44772 1 1 0 .55229-.44771 1-1 1h-4.26666c-.62593 0-1.13334.50741-1.13334 1.13334v4.26666c0 .55229-.44771 1-1 1-.55228 0-1-.44771-1-1zm12.8-2.13334c0-.55228.4477-1 1-1h4.2667c1.7305 0 3.1333 1.40285 3.1333 3.13334v4.26666c0 .55229-.4477 1-1 1s-1-.44771-1-1v-4.26666c0-.62592-.5074-1.13334-1.1333-1.13334h-4.2667c-.5523 0-1-.44771-1-1zm-6.4 4.59524c.55229 0 1 .44771 1 1v1.17c0 .55228-.44771 1.00004-1 1.00004-.55228 0-1-.44776-1-1.00004v-1.17c0-.55229.44772-1 1-1zm8.4 0c.5523 0 1 .44771 1 1v1.17c0 .55228-.4477 1.00004-1 1.00004s-1-.44776-1-1.00004v-1.17c0-.55229.4477-1 1-1zm-4.2.585c.5523 0 1 .44771 1 1v3.02534c0 .5838-.2381 1.1384-.6534 1.5433l-.6981-.716.6981.716-.2485.2424c-.3954.3855-1.0286.3775-1.4141-.018-.3856-.3954-.3775-1.0285.0179-1.4141l.2485-.2423c.0348-.0339.0496-.0745.0496-.1113v-3.02534c0-.55229.4477-1 1-1zm-9.6 6.61974c.55229 0 1 .4477 1 1v4.2667c0 .6259.50741 1.1333 1.13334 1.1333h4.26666c.55229 0 1 .4477 1 1s-.44771 1-1 1h-4.26666c-1.7305 0-3.13334-1.4028-3.13334-3.1333v-4.2667c0-.5523.44772-1 1-1zm19.2 0c.5523 0 1 .4477 1 1v4.2667c0 1.7305-1.4028 3.1333-3.1333 3.1333h-4.2667c-.5523 0-1-.4477-1-1s.4477-1 1-1h4.2667c.6259 0 1.1333-.5074 1.1333-1.1333v-4.2667c0-.5523.4477-1 1-1zm-5.7248.9153c.2678.483.0934 1.0916-.3896 1.3594-1.1359.6299-2.5564.9206-3.8628.9206-1.281 0-2.64864-.281-3.58262-1.0046-.43658-.3383-.51627-.9664-.178-1.403.33826-.4366.96639-.5163 1.40296-.178.43418.3364 1.28466.5856 2.35766.5856 1.0476 0 2.117-.2394 2.8929-.6697.483-.2678 1.0917-.0933 1.3595.3897z" fill="currentColor" fill-rule="evenodd"/></svg>