<svg fill="none" height="24" viewBox="0 0 24 24" width="24" xmlns="http://www.w3.org/2000/svg"><path clip-rule="evenodd" d="m9.28022 6.25218-5.74784 5.74782 5.74783 5.7479zm-.86824-1.96019c1.05845-1.05845 2.86822-.30882 2.86822 1.18806v13.03995c0 1.4969-1.80977 2.2465-2.86822 1.1881l-6.51997-6.52c-.65614-.6562-.65614-1.72 0-2.3761zm12.18792 1.96019-5.7478 5.74782 5.7478 5.7479zm-.8682-1.96019c1.0584-1.05845 2.8682-.30882 2.8682 1.18806v13.03995c0 1.4969-1.8098 2.2465-2.8682 1.1881l-6.52-6.52c-.6561-.6562-.6561-1.72 0-2.3761z" fill="currentColor" fill-rule="evenodd"/></svg>