<svg fill="none" height="24" viewBox="0 0 24 24" width="24" xmlns="http://www.w3.org/2000/svg"><path clip-rule="evenodd" d="m11.7413 4.84462c2.1312-2.13114 5.5864-2.13114 7.7176 0 2.1311 2.13115 2.1311 5.58638 0 7.71758l-5.0912 5.0912c-.1875.1875-.4419.2928-.7071.2928h-5.88913l-1.88904 1.8891c-.39052.3905-1.02369.3905-1.41421 0s-.39052-1.0237 0-1.4142l1.88903-1.8891v-5.8891c0-.2652.10536-.5196.2929-.70711zm-1.96983 11.10158h3.47493l1.3941-1.3941h-3.4043c-.0229 0-.0457-.0007-.0683-.0023zm3.39413-3.3941 2.8992-2.89915c.3905-.39053.3905-1.02369 0-1.41422-.3906-.39052-1.0237-.39052-1.4142 0l-6.29335 6.29327v-3.4749l4.79825-4.79826c1.3501-1.3501 3.5391-1.3501 4.8892 0 1.3501 1.35009 1.3501 3.53904 0 4.88916l-1.4065 1.4064c-.0226-.0015-.0454-.0023-.0684-.0023z" fill="currentColor" fill-rule="evenodd"/></svg>