<svg fill="none" height="24" viewBox="0 0 24 24" width="24" xmlns="http://www.w3.org/2000/svg"><path clip-rule="evenodd" d="m2.2999 4.8c.00001-1.87775 1.52224-3.39998 3.4-3.39998h10.8003c1.8777 0 3.4 1.52223 3.4 3.4v4.8c0 .55228-.4477.99998-1 .99998s-1-.4477-1-.99998v-4.8c0-.77319-.6268-1.4-1.4-1.4h-10.8003c-.7732 0-1.4.6268-1.4 1.4l-.0001 14.39998c0 .7732.6268 1.4 1.4 1.4h6c.5523 0 1 .4477 1 1s-.4477 1-1 1h-6.00001c-1.87777 0-3.4-1.5223-3.39999-3.4001zm14.8003 9.4c-1.1046 0-2 .8955-2 2 0 1.1046.8954 2 2 2s2-.8954 2-2c0-1.1045-.8954-2-2-2zm-4 2c0-2.2091 1.7908-4 4-4 2.2091 0 4 1.7909 4 4 0 .7418-.2019 1.4365-.5538 2.032l.8609.8609c.3905.3905.3905 1.0237 0 1.4142-.3905.3906-1.0237.3906-1.4142 0l-.861-.8609c-.5955.3519-1.2901.5538-2.0319.5538-2.2092 0-4-1.7908-4-4z" fill="currentColor" fill-rule="evenodd"/></svg>