<svg fill="none" height="24" viewBox="0 0 24 24" width="24" xmlns="http://www.w3.org/2000/svg"><path clip-rule="evenodd" d="m7.20005 3.40002c-.7732 0-1.4.62681-1.4 1.4v14.39998c0 .7732.6268 1.4 1.4 1.4h9.60005c.7731 0 1.4-.6268 1.4-1.4v-9.79998h-3.8c-1.2151 0-2.2-.98497-2.2-2.2v-3.8zm7.00005.24701v3.55299c0 .11046.0895.2.2.2h3.5529c-.0479-.06962-.1024-.13522-.163-.19583l-3.3941-3.39411c-.0606-.06062-.1262-.1151-.1958-.16305zm-10.40005 1.15299c0-1.87776 1.52223-3.4 3.4-3.4h6.20585c.9018 0 1.7666.35822 2.4042.99584l3.3941 3.39411c.6376.63763.9959 1.50243.9959 2.40417v11.00586c0 1.8778-1.5223 3.4-3.4 3.4h-9.60005c-1.87777 0-3.4-1.5222-3.4-3.4zm7.30715 6.49288c.3905.3905.3905 1.0237 0 1.4142l-1.29294 1.2929 1.29294 1.2929c.3905.3905.3905 1.0237 0 1.4142-.3906.3906-1.0237.3906-1.41426 0l-2-2c-.18753-.1875-.29289-.4419-.29289-.7071s.10536-.5195.29289-.7071l2-2c.39056-.3905 1.02366-.3905 1.41426 0zm1.7857 0c.3906-.3905 1.0237-.3905 1.4143 0l2 2c.1875.1876.2928.4419.2928.7071s-.1053.5196-.2928.7071l-2 2c-.3906.3906-1.0237.3906-1.4143 0-.3905-.3905-.3905-1.0237 0-1.4142l1.2929-1.2929-1.2929-1.2929c-.3905-.3905-.3905-1.0237 0-1.4142z" fill="currentColor" fill-rule="evenodd"/></svg>