<svg fill="none" height="24" viewBox="0 0 24 24" width="24" xmlns="http://www.w3.org/2000/svg"><path clip-rule="evenodd" d="m1.09995 4.8c.00001-1.87775 1.52224-3.39998 3.4-3.39998h10.80025c1.8778 0 3.4 1.52223 3.4 3.4v4.8c0 .55228-.4477.99998-1 .99998s-1-.4477-1-.99998v-4.8c0-.77319-.6268-1.4-1.4-1.4h-10.80025c-.7732 0-1.4.6268-1.4 1.4l-.0001 14.39998c0 .7732.6268 1.4 1.4 1.4h6.00005c.5522 0 1 .4477 1 1s-.4478 1-1 1h-6.00006c-1.87777 0-3.4-1.5223-3.39999-3.4001zm4.20028 2.40002c0-.55228.44771-1 1-1h7.19997c.5523 0 1 .44772 1 1 0 .55229-.4477 1-1 1h-7.19997c-.55229 0-1-.44771-1-1zm0 3.59998c0-.5523.44771-.99998 1-.99998h7.19997c.5523 0 1 .44768 1 .99998s-.4477 1-1 1h-7.19997c-.55229 0-1-.4477-1-1zm0 3.6c0-.5523.44771-1 1-1h3.6c.55227 0 .99997.4477.99997 1s-.4477 1-.99997 1h-3.6c-.55229 0-1-.4477-1-1zm11.39997 0c0-.5523.4477-1 1-1h2.4272c1.5314 0 2.7728 1.2415 2.7728 2.7729s-1.2414 2.7729-2.7728 2.7729h-4.8211l.7453.7488c.3896.3915.3881 1.0246-.0034 1.4142-.3914.3896-1.0246.3881-1.4142-.0034l-2.4426-2.4542c-.3881-.39-.3883-1.0203-.0003-1.4105l2.3321-2.3457c.3894-.3917 1.0226-.3935 1.4142-.0041.3917.3894.3935 1.0225.0041 1.4142l-.6369.6407h4.8228c.4268 0 .7728-.3461.7728-.7729 0-.4269-.346-.7729-.7728-.7729h-2.4272c-.5523 0-1-.4477-1-1z" fill="currentColor" fill-rule="evenodd"/></svg>