<svg fill="none" height="24" viewBox="0 0 24 24" width="24" xmlns="http://www.w3.org/2000/svg"><path clip-rule="evenodd" d="m2.59995 4.7549c.00001-1.87776 1.52224-3.39998 3.4-3.39998h10.80025c1.8778 0 3.4 1.52223 3.4 3.4v4.2c0 .55228-.4477 1-1 1s-1-.44772-1-1v-4.2c0-.7732-.6268-1.4-1.4-1.4h-10.80025c-.7732 0-1.4.6268-1.4 1.39999l-.0001 14.39999c0 .7732.6268 1.4 1.4 1.4h6.00005c.5522 0 1 .4477 1 1 0 .5522-.4478 1-1 1h-6.00006c-1.87777 0-3.4-1.5223-3.39999-3.4001zm4.20028 2.40002c0-.55229.44771-1 1-1h7.19997c.5523 0 1 .44771 1 1 0 .55228-.4477 1-1 1h-7.19997c-.55229 0-1-.44772-1-1zm0 3.59998c0-.5523.44771-.99998 1-.99998h7.19997c.5523 0 1 .44768 1 .99998s-.4477 1-1 1h-7.19997c-.55229 0-1-.4477-1-1zm11.19997 3.9097c-.794 0-1.4.6241-1.4 1.3479 0 .5523-.4477 1-1 1s-1-.4477-1-1c0-1.8696 1.5431-3.3479 3.4-3.3479 1.857 0 3.4 1.4783 3.4 3.3479s-1.543 3.3479-3.4 3.3479c-.5523 0-1-.4477-1-1s.4477-1 1-1c.794 0 1.4-.6241 1.4-1.3479s-.606-1.3479-1.4-1.3479zm-11.19997-.3097c0-.5523.44771-1 1-1h3.59997c.5523 0 1 .4477 1 1s-.4477 1-1 1h-3.59997c-.55229 0-1-.4477-1-1zm11.19997 6.2c.5523 0 1 .4477 1 1v.0902c0 .5523-.4477 1-1 1s-1-.4477-1-1v-.0902c0-.5523.4477-1 1-1z" fill="currentColor" fill-rule="evenodd"/></svg>