<svg fill="none" height="24" viewBox="0 0 24 24" width="24" xmlns="http://www.w3.org/2000/svg"><path clip-rule="evenodd" d="m3.1998 4.8c.00001-1.87775 1.52224-3.39998 3.4-3.39998h10.8003c1.8777 0 3.4 1.52223 3.4 3.4v5.39998c0 .5523-.4477 1-1 1s-1-.4477-1-1v-5.39998c0-.77319-.6268-1.4-1.4-1.4h-10.8003c-.77319 0-1.4.6268-1.4 1.4l-.00009 14.39998c-.00001.7732.62679 1.4 1.39999 1.4h4.2c.5523 0 1 .4477 1 1s-.4477 1-1 1h-4.20001c-1.87777 0-3.4-1.5223-3.39998-3.4001zm13.2475 8.2495c.4605-.5171 1.1297-.8221 1.925-.8221.7885 0 1.4353.3275 1.8635.8617.4048.505.5643 1.1284.5643 1.6903v3.7192c0 1.081-.5634 2.0295-1.2782 2.6799-.7158.6513-1.6956 1.1095-2.7154 1.1095-1.0191 0-2.0014-.4576-2.7198-1.1076-.7173-.649-1.2866-1.5978-1.2866-2.6818v-2.9444c0-.5523.4477-1 1-1s1 .4477 1 1v2.9444c0 .3709.2063.8168.6285 1.1988.421.3809.942.5906 1.3779.5906.435 0 .9521-.209 1.3694-.5888.4182-.3805.6242-.8267.6242-1.2006v-3.7192c0-.2085-.062-.361-.1248-.4394-.0281-.0351-.0578-.0583-.0926-.0748s-.0992-.0378-.2104-.0378c-.2585 0-.3723.0859-.4313.1521-.0758.0852-.1345.2267-.1345.3998v3.5643c0 .5523-.4478 1-1 1-.5523 0-1-.4477-1-1v-3.5643c0-.5971.1972-1.2315.6408-1.7298z" fill="currentColor" fill-rule="evenodd"/></svg>