<svg fill="none" height="24" viewBox="0 0 24 24" width="24" xmlns="http://www.w3.org/2000/svg"><path clip-rule="evenodd" d="m1.4 4.8c.00001-1.87775 1.52223-3.39998 3.39999-3.39998h10.80031c1.8777 0 3.4 1.52224 3.4 3.4v4.8c0 .55228-.4478.99998-1 .99998-.5523 0-1-.4477-1-.99998v-4.8c0-.77319-.6268-1.4-1.4-1.4h-10.80031c-.77319 0-1.39999.6268-1.39999 1.4l-.0001 14.39998c0 .7732.6268 1.4 1.4 1.4h6c.5523 0 1 .4477 1 1s-.4477 1-1 1h-6.00001c-1.87777 0-3.4-1.5223-3.39999-3.4001zm4.20028 2.40002c0-.55228.44771-1 1-1h7.20002c.5523 0 1 .44772 1 1 0 .55229-.4477 1-1 1h-7.20002c-.55229 0-1-.44771-1-1zm0 3.59998c0-.5523.44771-.99998 1-.99998h7.20002c.5523 0 1 .44768 1 .99998s-.4477 1-1 1h-7.20002c-.55229 0-1-.4477-1-1zm0 3.6c0-.5523.44771-1 1-1h3.60002c.5523 0 1 .4477 1 1s-.4477 1-1 1h-3.60002c-.55229 0-1-.4477-1-1zm8.69262 2.9827c.1145.211.2926.4909.5461.7702.5051.5565 1.3075 1.1152 2.5769 1.1356 1.2485.02 2.0369-.5273 2.539-1.0905.2575-.2888.4378-.5819.5528-.8022.001-.0019.0019-.0037.0029-.0056-.0017-.0033-.0033-.0067-.005-.0101-.1128-.2254-.2905-.5256-.5466-.8227-.4995-.5796-1.2905-1.1484-2.5591-1.1484s-2.0596.5688-2.5591 1.1484c-.2561.2971-.4338.5973-.5466.8227-.0004.0009-.0008.0018-.0013.0026zm7.307.0173c.9525-.3044.9524-.3048.9522-.3053l-.0003-.001-.0007-.0023-.0018-.0053-.0046-.014c-.0037-.0108-.0083-.0245-.0142-.0408-.0116-.0326-.0276-.0761-.0486-.1288-.0418-.1053-.1033-.2486-.1877-.4173-.1678-.3354-.4319-.7829-.8202-1.2335-.7894-.916-2.0985-1.8427-4.0741-1.8427s-3.2847.9267-4.0741 1.8427c-.3883.4506-.6524.8981-.8202 1.2335-.0844.1687-.1459.312-.1877.4173-.021.0527-.037.0962-.0486.1288-.0059.0163-.0105.03-.0142.0408l-.0046.014-.0018.0053-.0007.0023-.0003.001c-.0002.0005-.0003.0009.9522.3053l-.9525-.3044c-.0663.2073-.0631.4305.009.6357l.9435-.3313c-.9435.3313-.9434.3318-.9432.3323l.0004.001.0008.0022.0019.0053.005.0137c.0038.0106.0088.0238.015.0396.0122.0315.0291.0733.0509.1239.0436.1011.1074.2383.1942.3997.1727.3212.4419.7483.8331 1.1793.7939.8747 2.0914 1.7602 4.0259 1.7912 1.9553.0314 3.267-.8655 4.0639-1.7593.392-.4397.661-.8784.8329-1.2076.0864-.1656.1498-.3064.193-.41.0217-.0519.0384-.0946.0504-.1268.0061-.0161.011-.0296.0148-.0402l.0048-.0138.0019-.0053.0007-.0023.0004-.001c.0001-.0005.0003-.0009-.9468-.3219zm0 0 .9471.321c.0686-.2025.0705-.4217.0054-.6254zm-4.2-1.1142c.5523 0 1 .4478 1 1v.0632c0 .5523-.4477 1-1 1s-1-.4477-1-1v-.0632c0-.5522.4477-1 1-1z" fill="currentColor" fill-rule="evenodd"/></svg>