<svg fill="none" height="24" viewBox="0 0 24 24" width="24" xmlns="http://www.w3.org/2000/svg"><path clip-rule="evenodd" d="m2.09995 4.8c.00001-1.87775 1.52224-3.39998 3.4-3.39998h10.80025c1.8778 0 3.4 1.52224 3.4 3.4v6.59998c0 .5523-.4477 1-1 1s-1-.4477-1-1v-6.59998c0-.77319-.6268-1.4-1.4-1.4h-10.80025c-.7732 0-1.4.6268-1.4 1.4l-.0001 14.39998c0 .7732.6268 1.4 1.4 1.4h4.80005c.5522 0 1 .4477 1 1s-.4478 1-1 1h-4.80006c-1.87777 0-3.4-1.5223-3.39999-3.4001zm4.20028 2.40002c0-.55228.44771-1 1-1h7.19997c.5523 0 1 .44772 1 1 0 .55229-.4477 1-1 1h-7.19997c-.55229 0-1-.44771-1-1zm0 3.59998c0-.5523.44771-.99998 1-.99998h7.19997c.5523 0 1 .44768 1 .99998s-.4477 1-1 1h-7.19997c-.55229 0-1-.4477-1-1zm0 3.6c0-.5523.44771-1 1-1h3.59997c.5523 0 1 .4477 1 1s-.4477 1-1 1h-3.59997c-.55229 0-1-.4477-1-1zm15.30707.4927c.3906.3905.3906 1.0237 0 1.4142l-4.8 4.8002c-.1875.1876-.4418.2929-.7071.2929-.2652 0-.5195-.1053-.7071-.2929l-2.2-2.2c-.3905-.3905-.3905-1.0237 0-1.4142s1.0237-.3905 1.4142 0l1.4929 1.4929 4.0929-4.0931c.3905-.3905 1.0237-.3905 1.4142 0z" fill="currentColor" fill-rule="evenodd"/></svg>