<svg fill="none" height="24" viewBox="0 0 24 24" width="24" xmlns="http://www.w3.org/2000/svg"><path clip-rule="evenodd" d="m2.2059 4.8c.00002-1.87775 1.52224-3.39998 3.4-3.39998h10.8003c1.8777 0 3.4 1.52223 3.4 3.4v8.39998c0 .5523-.4477 1-1 1s-1-.4477-1-1v-8.39998c0-.77319-.6268-1.4-1.4-1.4h-10.8003c-.77319 0-1.39999.6268-1.4 1.4l-.00009 14.39998c0 .7732.62679 1.4 1.39999 1.4h6c.5523 0 1 .4477 1 1s-.4477 1-1 1h-6c-1.87777 0-3.4-1.5223-3.39999-3.4001zm10.7999 12.9941c0-.5522.4477-1 1-1h6.7882c.5523 0 1 .4478 1 1 0 .5523-.4477 1-1 1h-6.7882c-.5523 0-1-.4477-1-1z" fill="currentColor" fill-rule="evenodd"/></svg>