<svg fill="none" height="24" viewBox="0 0 24 24" width="24" xmlns="http://www.w3.org/2000/svg"><path clip-rule="evenodd" d="m2.59995 4.8c.00001-1.87775 1.52224-3.39998 3.4-3.39998h10.80025c1.8778 0 3.4 1.52223 3.4 3.4v6.59998c0 .5523-.4477 1-1 1s-1-.4477-1-1v-6.59998c0-.77319-.6268-1.4-1.4-1.4h-10.80025c-.7732 0-1.4.6268-1.4 1.4l-.0001 14.39998c0 .7732.6268 1.4 1.4 1.4h4.80005c.5522 0 1 .4477 1 1s-.4478 1-1 1h-4.80006c-1.87777 0-3.4-1.5223-3.39999-3.4001zm4.20028 2.40002c0-.55228.44771-1 1-1h7.19997c.5523 0 1 .44772 1 1 0 .55229-.4477 1-1 1h-7.19997c-.55229 0-1-.44771-1-1zm0 3.59998c0-.5523.44771-.99998 1-.99998h7.19997c.5523 0 1 .44768 1 .99998s-.4477 1-1 1h-7.19997c-.55229 0-1-.4477-1-1zm0 3.6c0-.5523.44771-1 1-1h3.59997c.5523 0 1 .4477 1 1s-.4477 1-1 1h-3.59997c-.55229 0-1-.4477-1-1zm11.14577.2c.5522 0 1 .4477 1 1v3.5939l.7488-.7452c.3915-.3896 1.0246-.3881 1.4142.0033.3896.3915.3881 1.0246-.0034 1.4142l-2.4542 2.4426c-.39.3881-1.0203.3883-1.4105.0004l-2.3457-2.3322c-.3917-.3894-.3935-1.0225-.0041-1.4142s1.0225-.3935 1.4142-.0041l.6407.637v-3.5957c0-.5523.4477-1 1-1z" fill="currentColor" fill-rule="evenodd"/></svg>