<svg fill="none" height="24" viewBox="0 0 24 24" width="24" xmlns="http://www.w3.org/2000/svg"><path clip-rule="evenodd" d="m3.20004 4.8c.00002-1.87775 1.52224-3.39998 3.4-3.39998h10.80026c1.8778 0 3.4 1.52227 3.4 3.40007l-.0003 14.40001c-.0001 1.8777-1.5223 3.3999-3.4 3.3999h-10.80006c-1.87777 0-3.4-1.5223-3.39999-3.4001zm3.4-1.39998c-.77319 0-1.39999.6268-1.4 1.4l-.00009 14.39998c0 .7732.62679 1.4 1.4 1.4h10.80005c.7732 0 1.4-.6268 1.4-1.3999l.0003-14.40005c0-.77321-.6268-1.40003-1.4-1.40003zm4.20686 5.54706c0-1.51716 1.2299-2.74706 2.7471-2.74706 1.5171 0 2.747 1.2299 2.747 2.74706v4.65882c0 2.3748-1.9252 4.3-4.3 4.3-2.37481 0-4.29999-1.9252-4.29999-4.3v-3.68823c0-.55228.44772-1 1-1 .55229 0 1 .44772 1 1v3.68823c0 1.2703 1.02979 2.3 2.29999 2.3 1.2703 0 2.3-1.0297 2.3-2.3v-4.65882c0-.41259-.3345-.74706-.747-.74706-.4126 0-.7471.33447-.7471.74706v4.46472c0 .5523-.4477 1-1 1s-1-.4477-1-1z" fill="currentColor" fill-rule="evenodd"/></svg>