<svg fill="none" height="24" viewBox="0 0 24 24" width="24" xmlns="http://www.w3.org/2000/svg"><path clip-rule="evenodd" d="m4.26656 1.40002c.55228-.00002 1.00002.44768 1.00004.99996l.00017 3.91691h3.79983c.55229 0 1 .44772 1 1 0 .55229-.44771 1-1 1h-3.79974l.00032 7.65331c.00006 1.2149.98501 2.1999 2.2 2.1999h1.59942c.55229 0 1 .4477 1 1 0 .5522-.44771 1-1 1h-1.59942c-2.31952 0-4.1999-1.8803-4.2-4.1999l-.00058-13.57013c-.00002-.55229.44767-1.00002.99996-1.00005zm10.26904.2526c.183-.16272.4194-.2526.6643-.2526h4.5335c.2653 0 .5196.10536.7071.29291.1876.18754.2929.4419.2929.70712l-.0001 6.40002c0 1.14138-.9253 2.06663-2.0667 2.06663h-4.8c-1.1414 0-2.0667-.92532-2.0667-2.06671l.0001-4.26664c0-.28563.1221-.55763.3356-.7474zm1.0445 1.7474-1.7801 1.5824-.0001 3.81758c0 .03682.0299.06667.0667.06667l4.8.00002c.0368 0 .0667-.02985.0667-.06666l.0001-5.40001zm-1.0445 9.98598c.183-.1628.4194-.2526.6643-.2526h4.5335c.2653 0 .5196.1053.7071.2929.1876.1875.2929.4419.2929.7071l-.0001 6.4c0 1.1414-.9253 2.0666-2.0667 2.0666h-4.8c-1.1414 0-2.0667-.9253-2.0667-2.0667l.0001-4.2666c0-.2857.1221-.5576.3356-.7474zm1.0445 1.7474-1.7801 1.5824-.0001 3.8175c0 .0369.0299.0667.0667.0667h4.8c.0368 0 .0667-.0298.0667-.0666l.0001-5.4z" fill="currentColor" fill-rule="evenodd"/></svg>