<svg fill="none" height="24" viewBox="0 0 24 24" width="24" xmlns="http://www.w3.org/2000/svg"><path clip-rule="evenodd" d="m2.98596.410645c.43595-.3390701 1.06422-.260536 1.40329.175411l.87973 1.131074c.18249-.19516.44227-.31713.73054-.31713h9.66978c.6206 0 1.2017.26108 1.6173.69835.3437.36165.8761.90551 1.3801 1.35641.4507.40326 1.1337 1.10238 1.5231 1.50632.3957.41041.6101.95542.6101 1.51678l-.0002 14.52214c0 .1853-.0504.3587-.1382.5075l.5278.6786c.339.4359.2605 1.0642-.1755 1.4032-.4359.3391-1.0642.2606-1.4033-.1754l-16.79995-21.59996c-.33907-.43595-.26054-1.064225.17541-1.403295zm15.81374 18.703155.0002-10.9138h-2.6c-1.215 0-2.2-.98498-2.2-2.2v-2.6h-7.42203zm-2.7998-15.46725v2.35345c0 .11045.0895.2.2.2h2.4058c-.3946-.40675-.9301-.94833-1.2726-1.25476-.4847-.43367-.9781-.92996-1.3332-1.29869zm-11.80038 3.75345c.55229 0 1 .44771 1 1v10.7999c0 .7732.6268 1.4 1.4 1.4h7.79998c.5523 0 1 .4478 1 1 0 .5523-.4477 1-1 1h-7.79999c-1.87777 0-3.4-1.5222-3.39999-3.4v-10.7999c0-.55229.44772-1 1-1z" fill="currentColor" fill-rule="evenodd"/></svg>