<svg fill="none" height="24" viewBox="0 0 24 24" width="24" xmlns="http://www.w3.org/2000/svg"><path clip-rule="evenodd" d="m3.20004 4.8c.00002-1.87775 1.52224-3.39998 3.4-3.39998h10.80026c1.8778 0 3.4 1.52227 3.4 3.40007l-.0003 14.40001c-.0001 1.8777-1.5223 3.3999-3.4 3.3999h-10.80006c-1.87777 0-3.4-1.5223-3.39999-3.4001zm3.4-1.39998c-.77319 0-1.39999.6268-1.4 1.4l-.00009 14.39998c0 .7732.62679 1.4 1.4 1.4h10.80005c.7732 0 1.4-.6268 1.4-1.3999l.0003-14.40005c0-.77321-.6268-1.40003-1.4-1.40003zm.80029 3.8c0-.55228.44771-1 1-1h7.19997c.5523 0 1 .44772 1 1 0 .55229-.4477 1-1 1h-7.19997c-.55229 0-1-.44771-1-1zm0 3.59998c0-.5523.44771-.99998 1-.99998h7.19997c.5523 0 1 .44768 1 .99998s-.4477 1-1 1h-7.19997c-.55229 0-1-.4477-1-1zm0 3.6c0-.5523.44771-1 1-1h3.59997c.5523 0 1 .4477 1 1s-.4477 1-1 1h-3.59997c-.55229 0-1-.4477-1-1z" fill="currentColor" fill-rule="evenodd"/></svg>