<svg fill="none" height="24" viewBox="0 0 24 24" width="24" xmlns="http://www.w3.org/2000/svg"><path clip-rule="evenodd" d="m3.19995 6.00002c0-2.54051 2.05949-4.6 4.6-4.6h8.40005c2.5405 0 4.5999 2.05949 4.5999 4.6v3c0 .55229-.4477.99998-1 .99998-.5522 0-.9999-.44769-.9999-.99998v-3c0-1.43594-1.1641-2.6-2.6-2.6h-8.40005c-1.43594 0-2.6 1.16406-2.6 2.6v11.99998c0 1.436 1.16406 2.6 2.6 2.6h2.40005c.5522 0 1 .4477 1 1s-.4478 1-1 1h-2.40005c-2.54051 0-4.6-2.0595-4.6-4.6zm3.6 1.2c0-.55228.44772-1 1-1h7.80005c.5522 0 1 .44772 1 1 0 .55229-.4478 1-1 1h-7.80005c-.55228 0-1-.44771-1-1zm0 3.59998c0-.5523.44772-.99998 1-.99998h4.20005c.5522 0 1 .44768 1 .99998s-.4478 1-1 1h-4.20005c-.55228 0-1-.4477-1-1zm11.16275 4.0994c-.732-.366-1.5935-.366-2.3255 0l-.8372.4187v2.7269c0 .059.0444.3014.4924.7623.3426.3524.843.7521 1.5125 1.2028.6905-.4482 1.1847-.8022 1.5244-1.1308.395-.3821.4707-.6231.4707-.8343v-2.7269zm-3.2199-1.7888c1.295-.6475 2.8193-.6475 4.1143 0l1.3901.695c.3387.1694.5527.5156.5527.8944v3.345c0 .9438-.4581 1.6701-1.0801 2.2718-.5946.5752-1.4336 1.1273-2.3859 1.7287-.3262.206-.7417.206-1.0679 0-.9915-.6261-1.8183-1.2379-2.4077-1.8442-.569-.5853-1.0583-1.3103-1.0583-2.1563v-3.345c0-.3788.214-.725.5527-.8944zm-7.94285 1.2894c0-.5523.44772-1 1-1h2.40005c.5522 0 1 .4477 1 1s-.4478 1-1 1h-2.40005c-.55228 0-1-.4477-1-1z" fill="currentColor" fill-rule="evenodd"/></svg>