<svg fill="none" height="24" viewBox="0 0 24 24" width="24" xmlns="http://www.w3.org/2000/svg"><path clip-rule="evenodd" d="m3.19995 6.00002c0-2.54051 2.05949-4.6 4.6-4.6h8.40005c2.5405 0 4.5999 2.05949 4.5999 4.6v11.99998c0 2.5405-2.0594 4.6-4.5999 4.6h-8.40005c-2.54051 0-4.6-2.0595-4.6-4.6zm4.6-2.6c-1.43594 0-2.6 1.16406-2.6 2.6v11.99998c0 1.436 1.16406 2.6 2.6 2.6h8.40005c1.4359 0 2.6-1.164 2.6-2.6v-11.99998c0-1.43594-1.1641-2.6-2.6-2.6zm5.36275 6.09922c-.732-.36599-1.5935-.36599-2.3255 0l-.83725.41862v2.72694c0 .059.04445.3014.49245.7623.3426.3525.843.7521 1.5125 1.2028.6905-.4482 1.1847-.8022 1.5244-1.1308.395-.3821.4707-.6231.4707-.8343v-2.72694zm2.8373-.19939v3.34495c0 .9438-.4582 1.6701-1.0802 2.2718-.5946.5752-1.4336 1.1273-2.3859 1.7287-.3262.206-.7417.206-1.0679 0-.9915-.6261-1.81835-1.2379-2.40773-1.8442-.56894-.5853-1.05832-1.3103-1.05832-2.1563v-3.34497c0-.37878.214-.72504.55279-.89443l1.39003-.69502c1.29503-.64751 2.81933-.64751 4.11433 0l1.3901.69502c.3387.16939.5528.51568.5528.89445z" fill="currentColor" fill-rule="evenodd"/></svg>