<svg fill="none" height="24" viewBox="0 0 24 24" width="24" xmlns="http://www.w3.org/2000/svg"><path clip-rule="evenodd" d="m2.6001 6.00002c0-2.54051 2.05949-4.6 4.6-4.6h8.4c2.5405 0 4.6 2.05949 4.6 4.6v3c0 .55229-.4477.99998-1 .99998s-1-.44769-1-.99998v-3c0-1.43594-1.1641-2.6-2.6-2.6h-8.4c-1.43594 0-2.6 1.16406-2.6 2.6v11.99998c0 1.436 1.16406 2.6 2.6 2.6h2.4c.5523 0 1 .4477 1 1s-.4477 1-1 1h-2.4c-2.54051 0-4.6-2.0595-4.6-4.6zm3.6 1.2c0-.55228.44771-1 1-1h7.8c.5523 0 1 .44772 1 1 0 .55229-.4477 1-1 1h-7.8c-.55229 0-1-.44771-1-1zm0 3.59998c0-.5523.44771-.99998 1-.99998h4.2c.5523 0 1 .44768 1 .99998s-.4477 1-1 1h-4.2c-.55229 0-1-.4477-1-1zm10.6 2.2c-.4418 0-.8.3582-.8.8v.8h1.6v-.8c0-.4418-.3582-.8-.8-.8zm2.8 1.6363v-.8363c0-1.5464-1.2536-2.8-2.8-2.8s-2.8 1.2536-2.8 2.8v.8363c-1.024.1881-1.8 1.0853-1.8 2.1637v3.6c0 1.215.985 2.2 2.2 2.2h4.8c1.215 0 2.2-.985 2.2-2.2v-3.6c0-1.0784-.776-1.9756-1.8-2.1637zm-5.2 1.9637c-.1105 0-.2.0896-.2.2v3.6c0 .1105.0895.2.2.2h4.8c.1105 0 .2-.0895.2-.2v-3.6c0-.1104-.0895-.2-.2-.2zm-8.2-2.2c0-.5523.44771-1 1-1h2.4c.5523 0 1 .4477 1 1s-.4477 1-1 1h-2.4c-.55229 0-1-.4477-1-1z" fill="currentColor" fill-rule="evenodd"/></svg>