<svg fill="none" height="24" viewBox="0 0 24 24" width="24" xmlns="http://www.w3.org/2000/svg"><path clip-rule="evenodd" d="m1.35727 4.7574c.00001-1.87776 1.52224-3.39998 3.4-3.39998h10.80023c1.8778 0 3.4 1.52223 3.4 3.4v4.8c0 .55228-.4477.99998-1 .99998-.5522 0-1-.4477-1-.99998v-4.8c0-.7732-.6268-1.4-1.4-1.4h-10.80023c-.77319 0-1.39999.6268-1.4 1.39999l-.00009 14.39999c-.00001.7732.62679 1.4 1.39999 1.4h4.80001c.55232 0 1.00002.4477 1.00002 1s-.4477 1-1.00002 1h-4.80002c-1.87777 0-3.39999-1.5223-3.39998-3.4001zm4.20028 2.40002c0-.55228.44772-1 1-1h7.20005c.5522 0 1 .44772 1 1 0 .55229-.4478 1-1 1h-7.20005c-.55228 0-1-.44771-1-1zm0 3.59998c0-.5523.44772-.99998 1-.99998h7.20005c.5522 0 1 .44768 1 .99998s-.4478 1-1 1h-7.20005c-.55228 0-1-.4477-1-1zm11.98385 1.6928c.3906-.3905 1.0237-.3905 1.4143 0l3.3941 3.3941c.1875.1875.2929.4419.2929.7071s-.1054.5196-.2929.7071l-5.0912 5.0912c-.1875.1875-.4419.2929-.7071.2929h-3.3941c-.5523 0-1-.4478-1-1v-3.3942c0-.2652.1053-.5195.2929-.7071zm-3.384 6.2125v1.9799h1.9799l4.0911-4.0912-1.9799-1.9799zm-8.59985-4.3053c0-.5523.44772-1 1-1h3.60005c.5522 0 1 .4477 1 1s-.4478 1-1 1h-3.60005c-.55228 0-1-.4477-1-1z" fill="currentColor" fill-rule="evenodd"/></svg>