<svg fill="none" height="24" viewBox="0 0 24 24" width="24" xmlns="http://www.w3.org/2000/svg"><path clip-rule="evenodd" d="m3.1998 4.8c.00001-1.87775 1.52224-3.39998 3.4-3.39998h9.0697c.6205 0 1.2016.26108 1.6173.69835.3437.36165.8761.90551 1.3801 1.35641.4507.40327 1.1337 1.10238 1.5231 1.50633.3956.41041.6101.95542.6101 1.51677v.71442.00772.00778l-.0003 11.9923c-.0001 1.8777-1.5223 3.3999-3.4001 3.3999h-10.80001c-1.87777 0-3.4-1.5223-3.39998-3.4001zm15.4061 1.40002c-.3946-.40674-.9301-.94832-1.2726-1.25475-.4847-.43367-.9781-.92996-1.3332-1.2987v2.35345c0 .11046.0895.2.2.2zm-4.6058-2.8v2.6c0 1.21503.985 2.2 2.2 2.2h2.5999l-.0002 10.99998c-.0001.7732-.6269 1.4-1.4001 1.4h-10.8c-.7732 0-1.4-.6268-1.39999-1.4l.00009-14.39998c0-.7732.62681-1.4 1.4-1.4zm-2 4c.5523 0 1 .44772 1 1v9.59998c0 .5523-.4477 1-1 1s-1-.4477-1-1v-9.59998c0-.55228.4477-1 1-1zm-3.60002 4.79998c.55229 0 1 .4477 1 1v4.8c0 .5523-.44771 1-1 1-.55228 0-1-.4477-1-1v-4.8c0-.5523.44772-1 1-1zm7.20002 0c.5523 0 1 .4477 1 1v4.8c0 .5523-.4477 1-1 1s-1-.4477-1-1v-4.8c0-.5523.4477-1 1-1z" fill="currentColor" fill-rule="evenodd"/></svg>