<svg fill="none" height="24" viewBox="0 0 24 24" width="24" xmlns="http://www.w3.org/2000/svg"><path clip-rule="evenodd" d="m1.99985 4.8c.00001-1.87775 1.52224-3.39998 3.4-3.39998h10.80025c1.8778 0 3.4 1.52224 3.4 3.4v4.8c0 .55228-.4477.99998-1 .99998s-1-.4477-1-.99998v-4.8c0-.77319-.6268-1.4-1.4-1.4h-10.80025c-.7732 0-1.4.6268-1.4 1.4l-.00009 14.39998c-.00001.7732.62679 1.4 1.39999 1.4h6.00005c.5522 0 1 .4477 1 1s-.4478 1-1 1h-6.00006c-1.87777 0-3.4-1.5223-3.39998-3.4001zm11.69335 11.3737c.1145.2111.2925.4909.546.7702.5051.5566 1.3076 1.1152 2.577 1.1356 1.2484.02 2.0368-.5273 2.539-1.0905.2574-.2888.4377-.5818.5527-.8022.001-.0019.002-.0037.0029-.0056-.0016-.0033-.0033-.0067-.005-.0101-.1128-.2254-.2905-.5256-.5466-.8227-.4995-.5796-1.2905-1.1484-2.5591-1.1484s-2.0595.5688-2.5591 1.1484c-.2561.2971-.4337.5973-.5465.8227-.0005.0009-.0009.0018-.0013.0026zm7.3069.0173c.9526-.3043.9524-.3048.9523-.3053l-.0004-.001-.0007-.0023-.0017-.0053-.0047-.014c-.0036-.0108-.0083-.0245-.0141-.0408-.0116-.0326-.0277-.0761-.0486-.1288-.0418-.1052-.1034-.2485-.1878-.4173-.1678-.3354-.4318-.7829-.8202-1.2335-.7894-.9159-2.0984-1.8427-4.0741-1.8427-1.9756 0-3.2846.9268-4.074 1.8427-.3884.4506-.6524.8981-.8203 1.2335-.0844.1688-.1459.3121-.1877.4173-.0209.0527-.037.0962-.0486.1288-.0058.0163-.0105.03-.0142.0408l-.0046.014-.0018.0053-.0007.0023-.0003.001c-.0002.0005-.0003.001.9522.3053l-.9525-.3043c-.0662.2072-.0631.4304.009.6356l.9435-.3313c-.9435.3313-.9433.3318-.9432.3323l.0004.001.0008.0023.0019.0053.005.0137c.0039.0105.0089.0237.015.0395.0122.0315.0291.0733.0509.1239.0436.1011.1074.2383.1942.3997.1727.3212.442.7483.8331 1.1793.7939.8747 2.0914 1.7602 4.0259 1.7912 1.9554.0314 3.267-.8655 4.0639-1.7593.392-.4397.661-.8783.8329-1.2076.0865-.1656.1499-.3064.1931-.41.0216-.0519.0383-.0946.0504-.1268.006-.0161.0109-.0295.0147-.0402l.0049-.0138.0018-.0053.0008-.0023.0003-.001c.0002-.0005.0003-.0009-.9468-.3219zm0 0 .9471.321c.0686-.2025.0706-.4217.0055-.6253zm-4.2-1.1141c.5523 0 1 .4477 1 1v.0631c0 .5523-.4477 1-1 1s-1-.4477-1-1v-.0631c0-.5523.4477-1 1-1z" fill="currentColor" fill-rule="evenodd"/></svg>