<svg fill="none" height="24" viewBox="0 0 24 24" width="24" xmlns="http://www.w3.org/2000/svg"><path clip-rule="evenodd" d="m3.1998 4.8c.00001-1.87775 1.52224-3.39998 3.4-3.39998h10.8003c1.8777 0 3.4 1.52223 3.4 3.4v4.2c0 .55229-.4477.99998-1 .99998s-1-.44769-1-.99998v-4.2c0-.77319-.6268-1.4-1.4-1.4h-10.8003c-.77319 0-1.4.6268-1.4 1.4l-.00009 14.39998c-.00001.7732.62679 1.4 1.39999 1.4h6c.5523 0 1 .4477 1 1s-.4477 1-1 1h-6.00001c-1.87777 0-3.4-1.5223-3.39998-3.4001zm14.2003 9.4c-.794 0-1.4.6241-1.4 1.3479 0 .5523-.4477 1-1 1s-1-.4477-1-1c0-1.8696 1.543-3.3479 3.4-3.3479 1.8569 0 3.4 1.4783 3.4 3.3479s-1.5431 3.3479-3.4 3.3479c-.5523 0-1-.4477-1-1s.4477-1 1-1c.794 0 1.4-.6241 1.4-1.3479s-.606-1.3479-1.4-1.3479zm0 5.8c.5523 0 1 .4477 1 1v.0903c0 .5522-.4477 1-1 1s-1-.4478-1-1v-.0903c0-.5523.4477-1 1-1z" fill="currentColor" fill-rule="evenodd"/></svg>