<svg fill="none" height="24" viewBox="0 0 24 24" width="24" xmlns="http://www.w3.org/2000/svg"><g fill="currentColor"><path d="m5.78318 9.88199c.31414-.45063.93366-.56369 1.38693-.25195.45505.31297.57023.93556.25726 1.39066l-1.26978 1.8462 3.47836.0431.0023.0001.007.0001c1.19115.0211 2.25385.949 2.25485 2.2226l.0083 4.6884 1.4152-2.0656c.3121-.4556.9345-.5719 1.3901-.2598.4556.3122.5719.9346.2598 1.3902l-2.055 2.9993c-.0011.0017-.0022.0033-.0033.0049-.4539.6541-1.2142.8145-1.8137.6476-.6051-.1685-1.19021-.7171-1.19104-1.548h-.00001l-.01037-5.8534c0-.0006 0-.0012 0-.0018 0-.0455-.01709-.0931-.06429-.1382-.04882-.0466-.12649-.085-.22651-.0865l-4.18064-.0519-.008-.0001c-1.18922-.0243-2.12825-1.358-1.33283-2.5109l1.69168-2.4597z"/><path clip-rule="evenodd" d="m11.0905 2.10283c.4545-.64769 1.2112-.80613 1.8083-.63992.6052.16844 1.1903.71707 1.1911 1.54798l.0104 5.8552c0 .04554.0171.09316.0643.13823.0489.04667.1266.085.2268.08652l4.1803.05185.008.00013c1.189.02427 2.1279 1.35748 1.3333 2.51018l-2.7843 4.0612 3.9788 3.9788.0045.0046c.386.3908.3844 1.0206-.0045 1.4096-.389.389-1.0188.3905-1.4097.0045l-.0046-.0045-4.4777-4.4777c-.0672-.0522-.126-.1116-.1762-.1762l-12.14606-12.14611c-.39053-.39053-.39053-1.0237 0-1.41422.39052-.39052 1.02368-.39052 1.41421 0l3.70694 3.70695 3.06701-4.48393.0038-.00552zm-1.63721 5.93598 6.23681 6.23679 2.154-3.1418-3.482-.0432c-1.194-.0175-2.2608-.9466-2.2618-2.22274l-.0083-4.6868z" fill-rule="evenodd"/></g></svg>