<svg fill="none" height="24" viewBox="0 0 24 24" width="24" xmlns="http://www.w3.org/2000/svg"><path clip-rule="evenodd" d="m17.625 4h-11.25c-1.31168 0-2.375 1.06332-2.375 2.375v11.25c0 1.3117 1.06332 2.375 2.375 2.375h11.25c1.3117 0 2.375-1.0633 2.375-2.375v-11.25c0-1.31168-1.0633-2.375-2.375-2.375zm-11.25-2h11.25c2.4162 0 4.375 1.95875 4.375 4.375v11.25c0 2.4162-1.9588 4.375-4.375 4.375h-11.25c-2.41625 0-4.375-1.9588-4.375-4.375v-11.25c0-2.41625 1.95876-4.375 4.375-4.375zm.5625 3.9375h2.8125c.5523 0 1 .44772 1 1s-.4477 1-1 1h-2.8125c-.55228 0-1-.44771-1-1 0-.55228.44772-1 1-1zm6.3125 1c0-.55228.4477-1 1-1h2.8125c.5523 0 1 .44772 1 1s-.4477 1-1 1h-2.8125c-.5523 0-1-.44772-1-1zm-6.3125 2.375h2.8125c.5523 0 1 .44772 1 1 0 .5523-.4477 1-1 1h-2.8125c-.55228 0-1-.4477-1-1 0-.55228.44772-1 1-1zm7.3125 0h2.8125c.5523 0 1 .44772 1 1 0 .5523-.4477 1-1 1h-2.8125c-.5523 0-1-.4477-1-1 0-.55228.4477-1 1-1zm-8.3125 4.375c0-.5523.44772-1 1-1h2.8125c.5523 0 1 .4477 1 1s-.4477 1-1 1h-2.8125c-.55228 0-1-.4477-1-1zm0 3.375c0-.5523.44772-1 1-1h2.8125c.5523 0 1 .4477 1 1s-.4477 1-1 1h-2.8125c-.55228 0-1-.4477-1-1z" fill="currentColor" fill-rule="evenodd"/></svg>