<svg fill="none" height="24" viewBox="0 0 24 24" width="24" xmlns="http://www.w3.org/2000/svg"><path clip-rule="evenodd" d="m13.0001 19.2c0 .5523-.4477 1-1 1h-5.6c-2.76143 0-5-2.2386-5-5v-1.7845c0-2.7614 2.23857-5.00001 4.99999-5.00001h12.80851l-2.8742-2.91315c-.3879-.39314-.3836-1.0263.0095-1.41419s1.0263-.38363 1.4142.00951l4.5538 4.61549c.3843.38941.3843 1.01527 0 1.40465l-4.5538 4.6155c-.3879.3932-1.0211.3974-1.4142.0095s-.3974-1.021-.0095-1.4142l2.8742-2.9131h-12.80851c-1.65685 0-2.99999 1.3431-2.99999 3v1.7845c0 1.6568 1.34314 3 3 3h5.6c.5523 0 1 .4477 1 1z" fill="currentColor" fill-rule="evenodd"/></svg>