<svg fill="none" height="24" viewBox="0 0 24 24" width="24" xmlns="http://www.w3.org/2000/svg"><path clip-rule="evenodd" d="m10.9999 19.2c0 .5523.4477 1 1 1h5.6c2.7614 0 5-2.2386 5-5v-1.7845c0-2.7614-2.2386-5.00001-5-5.00001h-12.80855l2.87426-2.91316c.38789-.39314.38364-1.02629-.0095-1.41418s-1.02629-.38363-1.41418.00951l-4.55387 4.61549c-.38421.38941-.38421 1.01527 0 1.40465l4.55387 4.6155c.38789.3932 1.02104.3974 1.41418.0095s.39739-1.021.0095-1.4142l-2.87426-2.9131h12.80855c1.6569 0 3 1.3431 3 3v1.7845c0 1.6569-1.3431 3-3 3h-5.6c-.5523 0-1 .4477-1 1z" fill="currentColor" fill-rule="evenodd"/></svg>