<svg fill="none" height="24" viewBox="0 0 24 24" width="24" xmlns="http://www.w3.org/2000/svg"><path clip-rule="evenodd" d="m1.3999 5.59995c0-1.30594 1.04239-2.4 2.37143-2.4h5.48571c1.32906 0 2.37146 1.09406 2.37146 2.4v1.4h8.6c1.329 0 2.3714 1.09406 2.3714 2.4v9.00005c0 1.3059-1.0424 2.3999-2.3714 2.3999h-16.45717c-1.32904 0-2.37143-1.094-2.37143-2.3999zm8.22857 1.4v-1.4c0-.24045-.18563-.4-.37143-.4h-5.48571c-.1858 0-.37143.15955-.37143.4v1.4zm-6.22857 2v9.40005c0 .2404.18564.4.37143.4h16.45717c.1858 0 .3714-.1596.3714-.4v-9.00005c0-.24045-.1856-.4-.3714-.4zm7.7071 2.09305c.3905.3906.3905 1.0237 0 1.4143l-1.29289 1.2928 1.29289 1.2929c.3905.3906.3905 1.0237 0 1.4143-.3905.3905-1.0237.3905-1.41421 0l-2-2c-.39052-.3906-.39052-1.0237 0-1.4143l2-2c.39051-.3905 1.02371-.3905 1.41421 0zm1.7858 0c.3905-.3905 1.0237-.3905 1.4142 0l2 2c.3905.3906.3905 1.0237 0 1.4143l-2 2c-.3905.3905-1.0237.3905-1.4142 0-.3905-.3906-.3905-1.0237 0-1.4143l1.2929-1.2929-1.2929-1.2928c-.3905-.3906-.3905-1.0237 0-1.4143z" fill="currentColor" fill-rule="evenodd"/></svg>