<svg fill="none" height="24" viewBox="0 0 24 24" width="24" xmlns="http://www.w3.org/2000/svg"><path clip-rule="evenodd" d="m3.46657 4.90002c-.03682 0-.06667.02985-.06667.06667v13.03331c0 .6075.49249 1.1 1.1 1.1s1.1-.4925 1.1-1.1v-6.4333c0-1.1414.92528-2.06668 2.06667-2.06668h10.80003v-1.52156c0-.03682-.0299-.06667-.0667-.06667h-7.0274c-.3396 0-.6559-.17227-.8401-.45748l-1.62994-2.52379c-.01228-.01901-.03337-.0305-.056-.0305zm4.2 6.59998c-.03682 0-.06667.0299-.06667.0667v6.4333c0 .3874-.07105.7582-.20083 1.1h12.20083c.5523 0 1-.4477 1-1v-6.5333c0-.0368-.0298-.0667-.0667-.0667zm-2.97517 9.5942c.03564.0039.07184.0058.1085.0058h14.8c1.6569 0 3-1.3431 3-3v-6.5333c0-1.1414-.9253-2.06668-2.0667-2.06668h-.0666v-1.52156c0-1.14139-.9253-2.06667-2.0667-2.06667h-6.4829l-1.3345-2.06632c-.3806-.58943-1.03437-.94545-1.73604-.94545h-5.37989c-1.14139 0-2.06667.92528-2.06667 2.06667v13.03331c0 1.7121 1.38792 3.1 3.1 3.1.06431 0 .12816-.0019.1915-.0058z" fill="currentColor" fill-rule="evenodd"/></svg>