<svg fill="none" height="24" viewBox="0 0 24 24" width="24" xmlns="http://www.w3.org/2000/svg"><path clip-rule="evenodd" d="m3.40043 5.05878-.00004-.00068c.0003.95081.0007 2.37787.00069 3.35858l-.0001 9.52432c0 .5523.44772 1 1 1h15.19872c.5523 0 1-.4476 1-.9999l.0003-9.92869h-8.5163c-.2766 0-.5409-.11461-.73-.31658l-2.46865-2.63705zm-2.00004-.00004c-.00035-1.10576.89612-1.99996 2.00004-1.99996h5.91828c.27666 0 .54096.11461.72999.31658l2.4687 2.63705h8.0826c1.1046 0 2.0001.89547 2 2.00006l-.0003 9.92863c0 1.6569-1.3432 3-3 2.9999h-15.19872c-1.65686 0-3.00001-1.3432-3-3l.0001-9.52433c.00001-.98035-.00039-2.40711-.00069-3.35793z" fill="currentColor" fill-rule="evenodd"/></svg>