<svg fill="none" height="24" viewBox="0 0 24 24" width="24" xmlns="http://www.w3.org/2000/svg"><path clip-rule="evenodd" d="m3.60019 4.82941c-.1113 0-.20008.08966-.20004.19938.00029.94255.00063 2.24442.00062 3.15852l-.00009 9.12429c-.00001.7732.6268 1.4 1.4 1.4h7.79902c.5523 0 1 .4477 1 1s-.4477 1-1 1h-7.79902c-1.87778 0-3.40002-1.5222-3.4-3.4l.00009-9.1243c.00001-.91375-.00033-2.21534-.00062-3.15789-.00038-1.21611.98551-2.2 2.20004-2.2h5.71822c.27666 0 .54096.11461.72999.31658l2.4687 2.63705h7.8826c1.2151 0 2.2.98498 2.2 2.2v3.18756c0 .5523-.4477 1-1 1-.5522 0-1-.4477-1-1v-3.18756c0-.11045-.0895-.2-.2-.2h-8.3163c-.2766 0-.5409-.11461-.73-.31658l-2.46865-2.63705zm12.49241 9.83409c.3906-.3905 1.0237-.3905 1.4143 0l1.6928 1.6929 1.6929-1.6929c.3906-.3905 1.0237-.3905 1.4143 0 .3905.3905.3905 1.0237 0 1.4142l-1.6929 1.6929 1.6929 1.6929c.3905.3905.3905 1.0237 0 1.4142-.3906.3905-1.0237.3905-1.4143 0l-1.6929-1.6929-1.6928 1.6929c-.3906.3905-1.0237.3905-1.4143 0-.3905-.3905-.3905-1.0237 0-1.4142l1.6929-1.6929-1.6929-1.6929c-.3905-.3905-.3905-1.0237 0-1.4142z" fill="currentColor" fill-rule="evenodd"/></svg>