<svg fill="none" height="24" viewBox="0 0 24 24" width="24" xmlns="http://www.w3.org/2000/svg"><path clip-rule="evenodd" d="m11.5144 1.12584c.302-.167788.6692-.167788.9712 0l9 5c.3175.17637.5144.51099.5144.87416v10c0 .3632-.1969.6978-.5144.8742l-9 5c-.302.1677-.6692.1677-.9712 0l-9.00004-5c-.31747-.1764-.51436-.511-.51436-.8742v-10c0-.36317.19689-.69779.51436-.87416zm-7.5144 6.46256v8.8232l8 4.4444 8-4.4444v-8.8232l-8-4.44444zm8 2.07827c-1.3975 0-2.4641 1.08063-2.4641 2.33333s1.0666 2.3333 2.4641 2.3333 2.4641-1.0806 2.4641-2.3333-1.0666-2.33333-2.4641-2.33333zm-4.4641 2.33333c0-2.42915 2.03526-4.33333 4.4641-4.33333 2.4288 0 4.4641 1.90418 4.4641 4.33333 0 2.4292-2.0353 4.3333-4.4641 4.3333-2.42884 0-4.4641-1.9041-4.4641-4.3333z" fill="currentColor" fill-rule="evenodd"/></svg>