<svg fill="none" height="24" viewBox="0 0 24 24" width="24" xmlns="http://www.w3.org/2000/svg"><path clip-rule="evenodd" d="m14.3011 1.36176c1.3833-.798671 3.1643-.33145 3.965 1.05543.5595.969.4908 2.12783-.073 3.01062l1.007-.00001c1.8778-.00001 3.4 1.52223 3.4 3.4v10.8c0 1.8778-1.5222 3.4-3.4 3.4h-14.4002c-1.87781 0-3.40006-1.5223-3.4-3.4001l.00001-10.79966c-.00007-1.87781 1.52216-3.40011 3.39997-3.40013l1.0458-.00001c-.56383-.88281-.63238-2.04164-.07298-3.01055.80078-1.38699 2.58182-1.854037 3.96505-1.05543.33645.19425.63375.50306.86275.77186.2455.28825.4868.62051.7033.94116.2743.40624.5253.8182.7152 1.14352.1886-.32414.4378-.7348.711-1.14023.216-.32057.4571-.65312.7037-.9422.2308-.27056.5291-.57897.8674-.77427zm-4.1901 3.5611c-.13868-.22891-.29754-.48115-.46467-.72864-.19402-.28731-.38903-.55304-.56829-.76347-.08926-.10477-.16743-.18733-.23293-.24844-.03229-.03012-.05845-.05217-.0784-.06761-.01846-.01429-.02806-.02017-.02896-.02072-.00009-.00006-.00008-.00005 0 0-.43491-.2511-.98926-.09879-1.233.32337-.24372.42214-.09849.97839.33645 1.2295.00012.00007.00292.00166.00885.00453.00619.00299.01504.007.02687.01187.02407.00989.05679.02176.09934.03483.08631.02651.19717.05312.33243.07811.27173.05019.59842.08597.9431.10991.29649.02058.59278.03152.85921.03676zm1.0636 2.505-6.3747.00005c-.77322.00001-1.40002.62684-1.39999 1.40005l.00015 4.26774h7.77454zm0 7.66784h-7.77454l-.00016 4.532c-.00003.7733.62679 1.4001 1.4 1.4001h6.3747zm2 5.9321v-5.9321h7.4255v4.5321c0 .7732-.6268 1.4-1.4 1.4zm7.4255-7.9321h-7.4255v-5.66785l6.0255-.00005c.7732 0 1.4.6268 1.4 1.4zm-6.673-8.17415c.2676-.00569.5655-.01714.8634-.03813.3458-.02437.6735-.06039.9453-.11043.1354-.02491.246-.05132.3317-.0775.0422-.0129.0744-.02453.0977-.03408.0238-.00975.0334-.01528.0324-.01472.4349-.2511.5802-.80734.3365-1.2295-.2437-.42214-.7981-.57449-1.233-.32338.0001-.00008-.0027.00152-.0084.00541-.0057.00386-.0136.00951-.0237.01733-.0206.0159-.0472.0383-.0798.06862-.0661.06149-.1446.14419-.2339.24883-.1793.21024-.3736.47526-.5667.7618-.1661.24647-.3237.4976-.4615.72575z" fill="currentColor" fill-rule="evenodd"/></svg>