<svg fill="none" height="24" viewBox="0 0 24 24" width="24" xmlns="http://www.w3.org/2000/svg"><path clip-rule="evenodd" d="m12.9305 2.18959c1.1184-1.1184 2.9415-1.12801 4.0629-.00666 1.1214 1.12143 1.1116 2.94461-.0067 4.06292-.1747.17475-.3902.32177-.6053.44418h4.5203c.9379 0 1.6982.76031 1.6982 1.69819v3.49088c0 .9379-.7603 1.6982-1.6982 1.6982h-.0473v7.3782c0 .9379-.7603 1.6982-1.6981 1.6982h-14.31276c-.93788 0-1.69818-.7603-1.69818-1.6982v-7.3782h-.04728c-.93787 0-1.69818-.7603-1.69818-1.6982v-3.49088c0-.93788.7603-1.69819 1.69818-1.69819h4.00418c-.21425-.12267-.4283-.26964-.6028-.44413-1.1184-1.1184-1.12801-2.94157-.00666-4.06292 1.12143-1.12144 2.9446-1.11165 4.0629.00666.2725.27248.4775.64404.627.95852.1605.33756.3055.71578.4299 1.07636.0452.13108.0885.26211.1295.39079.0404-.12717.083-.25667.1275-.38626.1239-.36037.2688-.73885.4301-1.07748.1508-.31664.3568-.68805.6308-.96198zm-2.96 3.47205c-.07192-.24607-.15602-.51665-.24857-.78496-.11126-.32256-.22886-.62455-.34545-.86978-.05804-.12209-.1111-.22004-.15746-.29428-.02285-.03658-.04186-.06383-.05658-.08318-.01385-.01821-.02111-.02574-.0211-.02574-.34401-.34402-.90068-.34016-1.23433-.00651-.33364.33364-.33737.89046.00666 1.23449.00039.00038.0087.00844.02831.0234.01995.01522.04767.0346.08451.05769.07475.04684.17291.10015.29488.15824.24505.1167.54619.23383.86776.34438.26707.09181.53629.17504.78137.24625zm1.2039 3.02839h-7.7745v2.88727h7.7745zm0 4.88727h-6.02904v7.0764h6.02904zm2 7.0764v-7.0764h5.68v7.0764zm0-9.0764v-2.88727h7.4255v2.88727zm.3403-5.91667c.2461-.07192.5167-.15601.785-.24856.3226-.11126.6245-.22886.8698-.34545.1221-.05805.22-.11111.2943-.15747.0365-.02285.0638-.04185.0831-.05657.0198-.01502.027-.02229.0256-.02095.344-.34401.3403-.90084.0067-1.23449-.3337-.33363-.8905-.33736-1.2345.00666-.0004.00038-.0084.00869-.0234.02831-.0152.01996-.0346.04768-.0577.08452-.0468.07474-.1001.1729-.1582.29487-.1167.24506-.2339.54619-.3444.86776-.0918.26708-.1751.53629-.2463.78137z" fill="currentColor" fill-rule="evenodd"/></svg>