<svg fill="none" height="24" viewBox="0 0 24 24" width="24" xmlns="http://www.w3.org/2000/svg"><path clip-rule="evenodd" d="m5 17.496c0 .8306.67339 1.504 1.50405 1.504.83067 0 1.50405-.6734 1.50405-1.504 0-.8307-.67339-1.5041-1.50405-1.5041s-1.50405.6734-1.50405 1.5041zm1.50405 3.504c-1.93523 0-3.50405-1.5688-3.50405-3.504 0-1.5878 1.05604-2.9289 2.50405-3.3593v-7.63265c0-.55229.44772-1 1-1s1 .44771 1 1v7.63265c1.11863.3325 2.00333 1.2085 2.34794 2.3218h2.66831c1.6568 0 3-1.3431 3-3v-3.59516c-1.4481-.4304-2.5041-1.77152-2.5041-3.35929 0-1.93523 1.5688-3.50405 3.5041-3.50405 1.9352 0 3.504 1.56882 3.504 3.50405 0 1.58777-1.056 2.92889-2.504 3.35929v3.59516c0 2.7614-2.2386 5-5 5h-2.64606c-.41827 1.4672-1.76877 2.5415-3.37019 2.5415zm8.51215-14.49595c0 .83066.6734 1.50405 1.5041 1.50405.8306 0 1.504-.67339 1.504-1.50405s-.6734-1.50405-1.504-1.50405c-.8307 0-1.5041.67339-1.5041 1.50405z" fill="currentColor" fill-rule="evenodd"/></svg>