<svg fill="none" height="24" viewBox="0 0 24 24" width="24" xmlns="http://www.w3.org/2000/svg"><path clip-rule="evenodd" d="m3 5.67111c0-2.02591 1.6401-3.67099 3.66667-3.67099 2.02656 0 3.66663 1.64508 3.66663 3.67099 0 1.67927-1.12684 3.0969-2.66663 3.53284v10.86285c0 .5523-.44772 1-1 1-.55229 0-1-.4477-1-1v-10.86285c-1.53979-.43594-2.66667-1.85357-2.66667-3.53284zm3.66667-1.67099c-.91895 0-1.66667.7466-1.66667 1.67099 0 .92438.74772 1.67098 1.66667 1.67098s1.66666-.7466 1.66666-1.67098c0-.92439-.74771-1.67099-1.66666-1.67099zm5.40003 1.71091c0-.55229.4477-1 1-1h1.6c2.025 0 3.6666 1.64162 3.6666 3.66666v5.48531c1.5398.4359 2.6667 1.8535 2.6667 3.5328 0 2.0259-1.6401 3.671-3.6667 3.671-2.0265 0-3.6666-1.6451-3.6666-3.671 0-1.6793 1.1268-3.0969 2.6666-3.5328v-5.48531c0-.92047-.7462-1.66666-1.6666-1.66666h-1.6c-.5523 0-1-.44772-1-1zm5.2666 10.01377c-.9189 0-1.6666.7466-1.6666 1.671s.7477 1.671 1.6666 1.671c.919 0 1.6667-.7466 1.6667-1.671s-.7477-1.671-1.6667-1.671z" fill="currentColor" fill-rule="evenodd"/></svg>