<svg fill="none" height="24" viewBox="0 0 24 24" width="24" xmlns="http://www.w3.org/2000/svg"><path clip-rule="evenodd" d="m6.52611 3.67727c.35495.42311.2997 1.05386-.12342 1.40882l-1.93404 1.62248-.64663 5.70473c.58378-.2902 1.24182-.4533 1.93797-.4533 1.48104 0 2.78961.7384 3.57759 1.8672.73602-.5683 1.65942-.9072 2.66242-.9072s1.9264.3388 2.6624.9072c.788-1.1288 2.0966-1.8672 3.5776-1.8672.6961 0 1.3542.1631 1.938.4533l-.6467-5.70473-1.934-1.62248c-.4231-.35496-.4784-.98571-.1234-1.40882.3549-.42312.9857-.47837 1.4088-.12342l2.24 1.87915c.1964.16479.3221.39873.3509.65349l1.12 9.88081c.0074.0648.0083.1288.0035.1915.0019.0535.0029.1072.0029.1612 0 2.4079-1.952 4.36-4.36 4.36s-4.36-1.9521-4.36-4.36c0-.1479.0073-.294.0217-.438-.4308-.585-1.1227-.962-1.9017-.962s-1.4709.377-1.9017.962c.0143.1441.0217.2902.0217.438 0 2.4079-1.95205 4.36-4.36001 4.36s-4.36-1.9521-4.36-4.36c0-.054.00098-.1077.00293-.1612-.00489-.0627-.00391-.1267.00344-.1915l1.12-9.88081c.02887-.25476.1545-.4887.35093-.65349l2.24-1.87915c.42312-.35495 1.05387-.2997 1.40882.12342zm-.76612 10.28273c-1.30339 0-2.36 1.0566-2.36 2.36s1.05661 2.36 2.36 2.36 2.36-1.0566 2.36-2.36-1.05661-2.36-2.36-2.36zm12.48001 0c-1.3034 0-2.36 1.0566-2.36 2.36s1.0566 2.36 2.36 2.36 2.36-1.0566 2.36-2.36-1.0566-2.36-2.36-2.36z" fill="currentColor" fill-rule="evenodd"/></svg>