<svg fill="none" height="24" viewBox="0 0 24 24" width="24" xmlns="http://www.w3.org/2000/svg"><path clip-rule="evenodd" d="m4.17934 10.3077h2.47043c.7318 0 1.38987-.44555 1.66166-1.12501.26588-.66471.11005-1.42392-.39618-1.93015l-1.2311-1.2311c-1.24467 1.10751-2.14119 2.59784-2.50481 4.28626zm4.18417-5.43533.96595.96596c1.07194 1.07195 1.40194 2.6796.83894 4.08714-.57553 1.43883-1.96902 2.38223-3.51863 2.38223h-2.64396c.16169 4.2757 3.67894 7.6923 7.99419 7.6923 2.0801 0 3.9748-.7939 5.3976-2.0952l-2.3991-2.8279h-1.6139c-.2652 0-.5196-.1053-.7071-.2929l-1.3846-1.3846c-.3371-.337-.3894-.8652-.125-1.2618l2.7693-4.15384c.1854-.2782.4977-.4453.832-.4453h3.8722c-1.4367-2.13438-3.8751-3.53846-6.6414-3.53846-1.3095 0-2.54545.31461-3.63649.87237zm11.25069 4.66609h-4.3098l-2.0176 3.02644.512.512h1.6627c.2937 0 .5726.1291.7626.3531l2.485 2.9292c.8165-1.2541 1.2909-2.7512 1.2909-4.3592 0-.8588-.1353-1.6861-.3858-2.46154zm-.1029 9.06324c1.5492-1.7612 2.4887-4.0717 2.4887-6.6017 0-5.52285-4.4772-10-10-10-5.52285 0-10 4.47715-10 10 0 5.5228 4.47715 10 10 10 2.9813 0 5.6578-1.3046 7.4899-3.3741.0073-.0079.0144-.016.0214-.0242z" fill="currentColor" fill-rule="evenodd"/></svg>