<svg fill="none" height="24" viewBox="0 0 24 24" width="24" xmlns="http://www.w3.org/2000/svg"><path clip-rule="evenodd" d="m3.5999 3.40002c-.11045 0-.2.08955-.2.2v2.4c0 .11046.08955.2.2.2h2.4c.11046 0 .2-.08954.2-.2v-2.4c0-.11045-.08954-.2-.2-.2zm-2.2.2c0-1.21502.98498-2.2 2.2-2.2h2.4c1.21503 0 2.2.98498 2.2 2.2v2.4c0 1.21503-.98497 2.2-2.2 2.2h-2.4c-1.21502 0-2.2-.98497-2.2-2.2zm9.4-.2c-.1105 0-.2.08955-.2.2v2.4c0 .11046.0895.2.2.2h2.4c.1105 0 .2-.08954.2-.2v-2.4c0-.11045-.0895-.2-.2-.2zm-2.2.2c0-1.21502.98498-2.2 2.2-2.2h2.4c1.215 0 2.2.98498 2.2 2.2v2.4c0 1.21503-.985 2.2-2.2 2.2h-2.4c-1.21502 0-2.2-.98497-2.2-2.2zm9.4-.2c-.1105 0-.2.08955-.2.2v2.4c0 .11046.0895.2.2.2h2.4c.1105 0 .2-.08954.2-.2v-2.4c0-.11045-.0895-.2-.2-.2zm-2.2.2c0-1.21502.985-2.2 2.2-2.2h2.4c1.215 0 2.2.98498 2.2 2.2v2.4c0 1.21503-.985 2.2-2.2 2.2h-2.4c-1.215 0-2.2-.98497-2.2-2.2zm-12.2 6.99998c-.11045 0-.2.0896-.2.2v2.4c0 .1105.08955.2.2.2h2.4c.11046 0 .2-.0895.2-.2v-2.4c0-.1104-.08954-.2-.2-.2zm-2.2.2c0-1.215.98498-2.19998 2.2-2.19998h2.4c1.21503 0 2.2.98498 2.2 2.19998v2.4c0 1.2151-.98497 2.2-2.2 2.2h-2.4c-1.21502 0-2.2-.9849-2.2-2.2zm9.4-.2c-.1105 0-.2.0896-.2.2v2.4c0 .1105.0895.2.2.2h2.4c.1105 0 .2-.0895.2-.2v-2.4c0-.1104-.0895-.2-.2-.2zm-2.2.2c0-1.215.98498-2.19998 2.2-2.19998h2.4c1.215 0 2.2.98498 2.2 2.19998v2.4c0 1.2151-.985 2.2-2.2 2.2h-2.4c-1.21502 0-2.2-.9849-2.2-2.2zm9.4-.2c-.1105 0-.2.0896-.2.2v2.4c0 .1105.0895.2.2.2h2.4c.1105 0 .2-.0895.2-.2v-2.4c0-.1104-.0895-.2-.2-.2zm-2.2.2c0-1.215.985-2.19998 2.2-2.19998h2.4c1.215 0 2.2.98498 2.2 2.19998v2.4c0 1.2151-.985 2.2-2.2 2.2h-2.4c-1.215 0-2.2-.9849-2.2-2.2zm-12.2 7c-.11045 0-.2.0896-.2.2v2.4c0 .1105.08955.2.2.2h2.4c.11046 0 .2-.0895.2-.2v-2.4c0-.1104-.08954-.2-.2-.2zm-2.2.2c0-1.215.98498-2.2 2.2-2.2h2.4c1.21503 0 2.2.985 2.2 2.2v2.4c0 1.2151-.98497 2.2-2.2 2.2h-2.4c-1.21502 0-2.2-.9849-2.2-2.2zm9.4-.2c-.1105 0-.2.0896-.2.2v2.4c0 .1105.0895.2.2.2h2.4c.1105 0 .2-.0895.2-.2v-2.4c0-.1104-.0895-.2-.2-.2zm-2.2.2c0-1.215.98498-2.2 2.2-2.2h2.4c1.215 0 2.2.985 2.2 2.2v2.4c0 1.2151-.985 2.2-2.2 2.2h-2.4c-1.21502 0-2.2-.9849-2.2-2.2zm9.4-.2c-.1105 0-.2.0896-.2.2v2.4c0 .1105.0895.2.2.2h2.4c.1105 0 .2-.0895.2-.2v-2.4c0-.1104-.0895-.2-.2-.2zm-2.2.2c0-1.215.985-2.2 2.2-2.2h2.4c1.215 0 2.2.985 2.2 2.2v2.4c0 1.2151-.985 2.2-2.2 2.2h-2.4c-1.215 0-2.2-.9849-2.2-2.2z" fill="currentColor" fill-rule="evenodd"/></svg>