<svg fill="none" height="24" viewBox="0 0 24 24" width="24" xmlns="http://www.w3.org/2000/svg"><path clip-rule="evenodd" d="m8 3c.55228 0 1 .44772 1 1v3h6v-3c0-.55228.4477-1 1-1s1 .44772 1 1v3h3c.5523 0 1 .44772 1 1 0 .55229-.4477 1-1 1h-3v6h3c.5523 0 1 .4477 1 1s-.4477 1-1 1h-3v3c0 .5523-.4477 1-1 1s-1-.4477-1-1v-3h-6v3c0 .5523-.44772 1-1 1-.55229 0-1-.4477-1-1v-3h-3c-.55228 0-1-.4477-1-1s.44772-1 1-1h3v-6h-3c-.55228 0-1-.44771-1-1 0-.55228.44772-1 1-1h3v-3c0-.55228.44772-1 1-1zm1 6v6h6v-6z" fill="currentColor" fill-rule="evenodd"/></svg>