<svg fill="none" height="24" viewBox="0 0 24 24" width="24" xmlns="http://www.w3.org/2000/svg"><path clip-rule="evenodd" d="m2.6001 12c0-5.1915 4.20852-9.40002 9.4-9.40002 5.1915 0 9.4 4.20852 9.4 9.40002v8.4c0 .5523-.4477 1-1 1h-2.4c-1.215 0-2.2-.985-2.2-2.2v-2.4c0-1.2151.985-2.2 2.2-2.2h1.4v-2.6c0-4.08693-3.3131-7.40002-7.4-7.40002-4.08691 0-7.4 3.31309-7.4 7.40002v2.6h1.4c1.21502 0 2.2.9849 2.2 2.2v2.4c0 1.215-.98498 2.2-2.2 2.2h-2.4c-.55229 0-1-.4477-1-1zm2 4.6v2.8h1.4c.11045 0 .2-.0896.2-.2v-2.4c0-.1105-.08955-.2-.2-.2zm14.8 0h-1.4c-.1105 0-.2.0895-.2.2v2.4c0 .1104.0895.2.2.2h1.4z" fill="currentColor" fill-rule="evenodd"/></svg>