<svg fill="none" height="24" viewBox="0 0 24 24" width="24" xmlns="http://www.w3.org/2000/svg"><path clip-rule="evenodd" d="m1.3999 4.80002c0-1.87776 1.52223-3.4 3.4-3.4h14.4c1.8778 0 3.4 1.52224 3.4 3.4v14.39998c0 1.8778-1.5222 3.4-3.4 3.4h-14.4c-1.87777 0-3.4-1.5222-3.4-3.4zm3.4-1.4c-.7732 0-1.4.62681-1.4 1.4v14.39998c0 .7732.6268 1.4 1.4 1.4h14.4c.7732 0 1.4-.6268 1.4-1.4v-14.39998c0-.77319-.6268-1.4-1.4-1.4zm.79989 3.43059c0-.55229.44772-1 1-1h3.32308c.55233 0 1.00003.44771 1.00003 1 0 .55228-.4477 1-1.00003 1h-.66154v2.98459h5.47697v-2.98459h-.6616c-.5523 0-1-.44772-1-1 0-.55229.4477-1 1-1h3.3231c.5523 0 1 .44771 1 1 0 .55228-.4477 1-1 1h-.6615v7.96919h.6615c.5523 0 1 .4478 1 1 0 .5523-.4477 1-1 1h-3.3231c-.5523 0-1-.4477-1-1 0-.5522.4477-1 1-1h.6616v-2.9846h-5.47697v2.9846h.66154c.55233 0 1.00003.4478 1.00003 1 0 .5523-.4477 1-1.00003 1h-3.32308c-.55228 0-1-.4477-1-1 0-.5522.44772-1 1-1h.66154v-7.96919h-.66154c-.55228 0-1-.44772-1-1z" fill="currentColor" fill-rule="evenodd"/></svg>