<svg fill="none" height="24" viewBox="0 0 24 24" width="24" xmlns="http://www.w3.org/2000/svg"><path clip-rule="evenodd" d="m12.1352 4.03954c-.0779-.05272-.1925-.05272-.2704-.00001l-7.80004 5.27486c-.05288.03577-.06476.07775-.06476.10166v9.87215c0 .3464.31023.7118.8.7118h14.4c.4898 0 .8-.3654.8-.7118v-9.87215c0-.02391-.0119-.06589-.0648-.10166zm-1.3908-1.65673c.7547-.51041 1.7565-.51041 2.5112 0l7.8 5.27486c.5802.39238.9444 1.0435.9444 1.75838v9.87215c0 1.5444-1.3015 2.7118-2.8 2.7118h-14.4c-1.49845 0-2.8-1.1674-2.8-2.7118v-9.87215c0-.71488.36416-1.366.94438-1.75838l.56019.82836-.56019-.82836zm-4.2444 14.67969c0-.5523.44772-1 1-1h9c.5523 0 1 .4477 1 1s-.4477 1-1 1h-9c-.55228 0-1-.4477-1-1z" fill="currentColor" fill-rule="evenodd"/></svg>