<svg fill="none" height="24" viewBox="0 0 24 24" width="24" xmlns="http://www.w3.org/2000/svg"><path clip-rule="evenodd" d="m3.00024 1.3999c.55229 0 1 .44771 1 1v1.40893c.06731-.00594.13412-.00893.2-.00893h15.59996l.0117.00003c.993.0053 2.1883.68579 2.1883 1.95997v2.78823.00748c-.0046 1.26936-1.1972 1.94719-2.1883 1.95249h-.0117-4.824v2.8866.0075c-.0046 1.2694-1.1972 1.9472-2.1883 1.9525h-.0117-3.45595v2.8852l-.00002.0075c-.00467 1.2693-1.19728 1.9472-2.18831 1.9525h-.01167-2.92c-.06589 0-.1327-.003-.20001-.0089v1.4089c0 .5523-.44771 1-1 1-.55228 0-1-.4477-1-1v-19.2c0-.55229.44772-1 1-1zm1 16.7538c.03777.0214.10503.0462.20001.0462h2.92.0056c.09202-.001.15738-.0253.1944-.0462v-2.7538c-.03264-.0185-.08808-.0401-.16609-.0452h-3.15392zm0-4.7993 3.11935-.0008h.01213c.02105.0001.04205.0005.06301.0011h5.58147.0056c.0921-.001.1574-.0252.1944-.0462v-2.7541c-.037-.021-.1023-.0453-.1944-.0462l-.0056-.0001h-8.77596zm.1944-7.55447c-.09202.00095-.15738.02524-.1944.04622v2.66197h15.79996l.0056-.00003c.0921-.00095.1574-.02524.1944-.04622v-2.61573c-.037-.02097-.1023-.04526-.1944-.04621l-.0056-.00003h-15.59996z" fill="currentColor" fill-rule="evenodd"/></svg>