<svg fill="none" height="24" viewBox="0 0 24 24" width="24" xmlns="http://www.w3.org/2000/svg"><path clip-rule="evenodd" d="m3.00073 1.40039c.55229 0 1 .44771 1 1v1.40892c.06731-.00594.13412-.00892.2-.00892h2.92l.01168.00003c.99298.0053 2.18832.68579 2.18832 1.95997v2.88517l3.45597.00001.0117.00002c.993.0053 2.1883.68579 2.1883 1.96001v2.8866h4.824.0117c.993.0053 2.1883.6858 2.1883 1.96v2.7882.0075c-.0047 1.2693-1.1973 1.9472-2.1883 1.9525h-.0117-15.59997c-.06588 0-.13269-.003-.2-.0089v1.4089c0 .5523-.44771 1-1 1-.55228 0-1-.4477-1-1v-19.20001c0-.55229.44772-1 1-1zm1 16.75371c.03777.0214.10503.0463.2.0463h15.59997.0056c.0921-.001.1574-.0253.1944-.0463v-2.6157c-.037-.021-.1023-.0453-.1944-.0462h-.0056-15.79997zm3.19448-7.5085c-.02497.0007-.05002.0011-.07513.0011l-3.11935-.0009v2.8464h8.77597l.0056-.0001c.0921-.0009.1574-.0252.1944-.0462v-2.7541c-.037-.021-.1023-.0453-.1944-.0462h-.0056zm-3.00008-4.84518c-.09202.00095-.15738.02524-.1944.04622v2.79892h3.15395c.078-.00507.13343-.02664.16606-.04514v-2.75378c-.03702-.02098-.10238-.04527-.1944-.04622l-.00561-.00003h-2.92z" fill="currentColor" fill-rule="evenodd"/></svg>