<svg fill="none" height="24" viewBox="0 0 24 24" width="24" xmlns="http://www.w3.org/2000/svg"><path clip-rule="evenodd" d="m4.25 3c0-.55228.44772-1 1-1h14c.5523 0 1 .44772 1 1s-.4477 1-1 1h-.75v1.64723c0 .92026-.3173 1.81237-.8984 2.52592l-2.8751 3.53025c-.2027.2489-.1987.5909.0119.8359l2.7949 3.2511c.6237.7256.9667 1.6507.9667 2.6075v1.6021h.75c.5523 0 1 .4477 1 1s-.4477 1-1 1h-14c-.55228 0-1-.4477-1-1s.44772-1 1-1h.75v-1.6021c0-.9568.34299-1.8819.96673-2.6075l2.79483-3.2511c.21063-.245.21464-.587.01196-.8359l-2.87508-3.53025c-.58113-.71355-.89844-1.60566-.89844-2.52592v-1.64723h-.75c-.55228 0-1-.44772-1-1zm3.75 1v1.64723c0 .46013.15866.90618.44922 1.26296l2.87508 3.53031c.8152 1.0009.795 2.4241-.0461 3.4025l-2.79483 3.2512c-.31188.3628-.48337.8253-.48337 1.3037v1.6021h8.5v-1.6021c0-.4784-.1715-.9409-.4834-1.3037l-2.7948-3.2512c-.8411-.9784-.8613-2.4016-.0461-3.4025l2.8751-3.53031c.2905-.35678.4492-.80283.4492-1.26296v-1.64723z" fill="currentColor" fill-rule="evenodd"/></svg>