<svg fill="none" height="24" viewBox="0 0 24 24" width="24" xmlns="http://www.w3.org/2000/svg"><path clip-rule="evenodd" d="m7.25225 4.01541c-.00106.00254-.00225.00635-.00225.01316v2.74769c0 .00784.00253.01473.00616.01969l2.92894 4.00345c.5227.7144.5227 1.6868 0 2.4012l-2.92894 4.0035c-.00363.0049-.00616.0118-.00616.0196v2.7477c0 .0068.00119.0107.00225.0132.00134.0032.00352.0066.00649.0096.00298.0029.00558.0044.00692.005h.00005c.00066.0003.0019.0008.00557.0008h9.95742c.0038 0 .005-.0006.0056-.0008.0009-.0004.0022-.0011.0037-.0022.001-.0008.0021-.0017.0033-.0028.0029-.003.0051-.0064.0064-.0096.0011-.0025.0023-.0064.0023-.0132v-2.7477c0-.0078-.0025-.0147-.0062-.0196l-2.9451-4.0256c-.5074-.6935-.5236-1.6327-.0408-2.3433l2.7312-4.02025.8053.54711-.8053-.54711c.0033-.00491.0056-.01149.0056-.01887v-2.76751c0-.00681-.0012-.01062-.0023-.01316-.0013-.00318-.0035-.00657-.0065-.00956-.0029-.003-.0055-.00445-.0069-.00502-.0006-.00027-.0018-.00083-.0056-.00083h-9.70212c-.00367 0-.00491.00053-.00558.00081l-.00004.00002c-.00134.00057-.00394.00202-.00692.00502-.00297.00299-.00515.00638-.00649.00956zm-2.00225.01316c0-1.11363.89826-2.02857 2.02128-2.02857h9.70212c1.123 0 2.0213.91495 2.0213 2.02857v2.76751c0 .40721-.1221.80552-.3513 1.14277l-2.7311 4.02025c-.0036.0052-.0057.0116-.0056.0195s.0025.014.0062.019l2.9451 4.0255c.255.3486.392.7693.392 1.2006v2.7477c0 1.1137-.8983 2.0286-2.0213 2.0286h-9.95742c-1.12302 0-2.02128-.9149-2.02128-2.0286v-2.7477c0-.4313.137-.852.39203-1.2006l2.92898-4.0034c.00379-.0052.00616-.0115.00616-.0197s-.00237-.0145-.00616-.0197l-2.92898-4.00343c-.25503-.34857-.39203-.76929-.39203-1.20061zm6.1627 10.86683c.3767-.3794.9851-.3954 1.3812-.0363l.6815.6177c1.3246 1.2007.4977 3.4375-1.318 3.4375-1.765 0-2.61771-2.1325-1.3929-3.366z" fill="currentColor" fill-rule="evenodd"/></svg>