<svg fill="none" height="24" viewBox="0 0 24 24" width="24" xmlns="http://www.w3.org/2000/svg"><path clip-rule="evenodd" d="m18.6991 2c.5523 0 1 .44772 1 1v3.21891l.5955-.59262c.3914-.38959 1.0246-.38808 1.4142.00338.3896.39145.3881 1.02462-.0034 1.41421l-2.3009 2.28991c-.39.38814-1.0202.3883-1.4104.00036l-2.1992-2.1864c-.3916-.38939-.3934-1.02255-.0041-1.41421.3894-.39165 1.0226-.39349 1.4143-.0041l.494.49121v-3.22065c0-.55228.4477-1 1-1zm-16.6991 4.375c0-2.41625 1.95875-4.375 4.375-4.375h7.3125c.5523 0 1 .44772 1 1s-.4477 1-1 1h-7.3125c-1.31168 0-2.375 1.06332-2.375 2.375v11.25c0 1.187.87075 2.1706 2.00831 2.3469l9.24379-8.7001c.3936-.3704 1.0103-.3611 1.3925.0211l3.3554 3.3554v-2.6483c0-.5523.4477-1 1-1s1 .4477 1 1v5.625c0 2.4162-1.9588 4.375-4.375 4.375h-11.25c-2.41625 0-4.375-1.9588-4.375-4.375zm18 11.0245c-.0974-.0474-.1887-.1115-.2696-.1924l-3.814-3.814-7.01982 6.6069h8.72842c1.3117 0 2.375-1.0633 2.375-2.375zm-11.9375-10.0245c-.3797 0-.6875.3078-.6875.6875s.3078.6875.6875.6875.6875-.3078.6875-.6875-.3078-.6875-.6875-.6875zm-2.6875.6875c0-1.48427 1.20323-2.6875 2.6875-2.6875s2.6875 1.20323 2.6875 2.6875-1.20323 2.6875-2.6875 2.6875-2.6875-1.20323-2.6875-2.6875z" fill="currentColor" fill-rule="evenodd"/></svg>