<svg fill="none" height="24" viewBox="0 0 24 24" width="24" xmlns="http://www.w3.org/2000/svg"><path clip-rule="evenodd" d="m5.25 4c-.64264 0-1.25.56371-1.25 1.36842v13.26318c0 .3185.09516.5993.25.8223v-1.2665c0-1.7949 1.45508-3.25 3.25-3.25h9c1.7949 0 3.25 1.4551 3.25 3.25v1.2665c.1548-.223.25-.5038.25-.8223v-13.26318c0-.80471-.6074-1.36842-1.25-1.36842zm12.5 16v-1.8126c0-.6904-.5596-1.25-1.25-1.25h-9c-.69036 0-1.25.5596-1.25 1.25v1.6875c0 .0424-.00264.0841-.00775.1251zm-15.75-14.63158c0-1.81138 1.40736-3.36842 3.25-3.36842h13.5c1.8426 0 3.25 1.55705 3.25 3.36842v13.26318c0 1.8114-1.4074 3.3684-3.25 3.3684h-13.5c-1.84264 0-3.25-1.557-3.25-3.3684zm10 2.00647c-1.001 0-1.8125.81148-1.8125 1.8125 0 1.00101.8115 1.81251 1.8125 1.81251s1.8125-.8115 1.8125-1.81251c0-1.00102-.8115-1.8125-1.8125-1.8125zm-3.8125 1.8125c0-2.10559 1.70691-3.8125 3.8125-3.8125 2.1056 0 3.8125 1.70691 3.8125 3.8125 0 2.10561-1.7069 3.81251-3.8125 3.81251-2.10559 0-3.8125-1.7069-3.8125-3.81251z" fill="currentColor" fill-rule="evenodd"/></svg>