<svg fill="none" height="24" viewBox="0 0 24 24" width="24" xmlns="http://www.w3.org/2000/svg"><path clip-rule="evenodd" d="m5.2399 5.20001c0-1.10457.89543-2 2-2h13.36c1.1046 0 2 .89543 2 2v9.99999c0 1.1046-.8954 2-2 2h-13.36c-1.10457 0-2-.8954-2-2zm15.36 0h-13.36v9.99999h.00321c.05273-.121.13043-.2335.23285-.3295l3.84004-3.6c.3457-.3241.8714-.3611 1.2591-.0885l1.8748 1.3182 3.0322-3.0099c.382-.37923.9957-.38799 1.3884-.01983l1.7294 1.62133zm0 8.63319-2.3935-2.2439-2.942 2.9204c-.344.3414-.8832.3871-1.2797.1083l-1.8944-1.332-2.0416 1.914h10.5512zm-10.52-7.12342c.5523 0 1 .44771 1 1v.09023c0 .55229-.4477 1-1 1-.55228 0-1-.44771-1-1v-.09023c0-.55229.44772-1 1-1zm-7.68 1.29023c.55229 0 1 .44772 1 1v9.79999h11.8c.5523 0 1 .4477 1 1s-.4477 1-1 1h-12.8c-.55228 0-1-.4477-1-1v-10.79999c0-.55228.44772-1 1-1z" fill="currentColor" fill-rule="evenodd"/></svg>