<svg fill="none" height="24" viewBox="0 0 24 24" width="24" xmlns="http://www.w3.org/2000/svg"><path clip-rule="evenodd" d="m18.75 3c-.7112 0-1.25.55835-1.25 1.20113 0 .55229-.4477 1-1 1s-1-.44771-1-1c0-1.78852 1.4759-3.20113 3.25-3.20113s3.25 1.41261 3.25 3.20113c0 1.78853-1.4759 3.20114-3.25 3.20114-.5523 0-1-.44772-1-1 0-.55229.4477-1 1-1 .7112 0 1.25-.55836 1.25-1.20114s-.5388-1.20113-1.25-1.20113zm-16.75 3.5c0-2.41625 1.95875-4.375 4.375-4.375h6.1875c.5523 0 1 .44772 1 1s-.4477 1-1 1h-6.1875c-1.31168 0-2.375 1.06332-2.375 2.375v11.25c0 1.187.87075 2.1706 2.00832 2.3469l9.24378-8.7001c.3936-.3704 1.0103-.3611 1.3925.0211l3.3554 3.3554v-3.2108c0-.5523.4477-1 1-1s1 .4477 1 1v6.1875c0 2.4162-1.9588 4.375-4.375 4.375h-11.25c-2.41625 0-4.375-1.9588-4.375-4.375zm18 11.0245c-.0974-.0474-.1887-.1115-.2696-.1924l-3.814-3.814-7.01982 6.6069h8.72842c1.3117 0 2.375-1.0633 2.375-2.375zm-11.9375-10.0245c-.3797 0-.6875.30781-.6875.6875 0 .3797.3078.6875.6875.6875s.6875-.3078.6875-.6875c0-.37969-.3078-.6875-.6875-.6875zm-2.6875.6875c0-1.48426 1.20323-2.6875 2.6875-2.6875s2.6875 1.20324 2.6875 2.6875c0 1.48427-1.20323 2.6875-2.6875 2.6875s-2.6875-1.20323-2.6875-2.6875zm13.375.125c.5523 0 1 .44772 1 1v.0846c0 .55228-.4477 1-1 1s-1-.44772-1-1v-.0846c0-.55228.4477-1 1-1z" fill="currentColor" fill-rule="evenodd"/></svg>