<svg fill="none" height="24" viewBox="0 0 24 24" width="24" xmlns="http://www.w3.org/2000/svg"><path clip-rule="evenodd" d="m1.3999 3.59998c0-.55229.44772-1 1-1h19.2c.5523 0 1 .44771 1 1 0 .55228-.4477 1-1 1h-19.2c-.55228 0-1-.44772-1-1zm0 6c0-1.21503.98498-2.2 2.2-2.2h3.6c1.21503 0 2.2.98497 2.2 2.2v3.60002c0 1.215-.98497 2.2-2.2 2.2h-3.6c-1.21502 0-2.2-.985-2.2-2.2zm2.2-.2c-.11045 0-.2.08954-.2.2v3.60002c0 .1104.08955.2.2.2h3.6c.11046 0 .2-.0896.2-.2v-3.60002c0-.11046-.08954-.2-.2-.2zm18 .4h-8.4c-.5523 0-1-.44772-1-1 0-.55229.4477-1 1-1h8.4c.5523 0 1 .44771 1 1 0 .55228-.4477 1-1 1zm-9.4 4.20002c0-.5523.4477-1 1-1h8.4c.5523 0 1 .4477 1 1s-.4477 1-1 1h-8.4c-.5523 0-1-.4477-1-1zm-10.8 5.2c0-.5523.44772-1 1-1h19.2c.5523 0 1 .4477 1 1s-.4477 1-1 1h-19.2c-.55228 0-1-.4477-1-1z" fill="currentColor" fill-rule="evenodd"/></svg>