<svg fill="none" height="24" viewBox="0 0 24 24" width="24" xmlns="http://www.w3.org/2000/svg"><path clip-rule="evenodd" d="m2 6.30609c0-2.37819 1.9279-4.30609 4.30609-4.30609h8.26521c.5523 0 1 .44772 1 1s-.4477 1-1 1h-8.26521c-1.27362 0-2.30609 1.03247-2.30609 2.30609v11.02031c0 1.1491.84045 2.1019 1.94018 2.2772l9.04782-8.5156c.3936-.3704 1.0103-.3611 1.3924.0211l3.2521 3.2521v-4.74902c0-.55229.4477-1 1-1s1 .44771 1 1v7.71422c0 2.3782-1.9279 4.3061-4.3061 4.3061h-11.02031c-2.37819 0-4.30609-1.9279-4.30609-4.3061zm17.6325 10.81211c-.0931-.0468-.1804-.109-.2581-.1867l-3.7222-3.7222-6.82453 6.4232h8.49873c1.2736 0 2.3061-1.0325 2.3061-2.3061zm2.0746-14.27429c.3905.39052.3905 1.02369 0 1.41421l-3.8573 3.85728c-.1875.18757-.4419.29293-.7072.2929-.2652-.00003-.5196-.10545-.7071-.29305l-1.6525-1.65322c-.3905-.39061-.3903-1.02378.0003-1.41422s1.0237-.3903 1.4142.00031l.9454.94581 3.15-3.15002c.3905-.39053 1.0237-.39053 1.4142 0zm-13.74797 4.46218c-.36066 0-.65304.29238-.65304.65304 0 .36067.29238.65305.65304.65305.36067 0 .65305-.29238.65305-.65305 0-.36066-.29238-.65304-.65305-.65304zm-2.65304.65304c0-1.46523 1.18781-2.65304 2.65304-2.65304 1.46524 0 2.65307 1.18781 2.65307 2.65304 0 1.46524-1.18783 2.65307-2.65307 2.65307-1.46523 0-2.65304-1.18783-2.65304-2.65307z" fill="currentColor" fill-rule="evenodd"/></svg>