<svg fill="none" height="24" viewBox="0 0 24 24" width="24" xmlns="http://www.w3.org/2000/svg"><path clip-rule="evenodd" d="m5.25 4c-.69036 0-1.25.55964-1.25 1.25v8h3.5c.27368 0 .5354.1122.72414.3103l1.20443 1.2647h5.14283l1.2045-1.2647c.1887-.1981.4504-.3103.7241-.3103h3.5v-8c0-.69036-.5596-1.25-1.25-1.25zm16.75 1.25c0-1.79493-1.4551-3.25-3.25-3.25h-13.5c-1.79493 0-3.25 1.45507-3.25 3.25v13.5c0 1.7949 1.45507 3.25 3.25 3.25h13.5c1.7949 0 3.25-1.4551 3.25-3.25zm-2 10h-3.0714l-1.2045 1.2647c-.1887.1981-.4504.3103-.7241.3103h-6c-.27368 0-.5354-.1122-.72414-.3103l-1.20443-1.2647h-3.07143v3.5c0 .6904.55964 1.25 1.25 1.25h13.5c.6904 0 1.25-.5596 1.25-1.25z" fill="currentColor" fill-rule="evenodd"/></svg>