<svg fill="none" height="24" viewBox="0 0 24 24" width="24" xmlns="http://www.w3.org/2000/svg"><path clip-rule="evenodd" d="m4.88939 5.13685c.4716-1.27757 1.68043-2.13685 3.04486-2.13685h8.13145c1.3645 0 2.5733.85928 3.0449 2.13685l2.8275 7.65975c.0409.1108.0619.2281.0619.3463v4.5714c0 1.7997-1.4403 3.2857-3.25 3.2857h-13.5c-1.80972 0-3.25-1.486-3.25-3.2857v-4.5714c0-.1182.02095-.2355.06188-.3463zm3.04486-.13685c-.51137 0-.98158.32277-1.16862.82945l-2.33053 6.31345h3.0649c.27641 0 .54049.1144.72954.316l1.20369 1.284h5.13357l1.2037-1.284c.189-.2016.4531-.316.7295-.316h3.0649l-2.3305-6.31345c-.1871-.50668-.6573-.82945-1.1687-.82945zm12.06575 9.1429h-3.0668l-1.2037 1.2839c-.189.2016-.4531.3161-.7295.3161h-6c-.27641 0-.54049-.1145-.72954-.3161l-1.20369-1.2839h-3.06677v3.5714c0 .725.57443 1.2857 1.25 1.2857h13.5c.6756 0 1.25-.5607 1.25-1.2857z" fill="currentColor" fill-rule="evenodd"/></svg>