<svg fill="none" height="24" viewBox="0 0 24 24" width="24" xmlns="http://www.w3.org/2000/svg"><path clip-rule="evenodd" d="m1.39991 3.59998c0-.55229.44771-1 1-1h19.19999c.5523 0 1 .44771 1 1 0 .55228-.4477 1-1 1h-19.19999c-.55229 0-1-.44772-1-1zm20.68469 3.92533c.318.17621.5153.51108.5153.87459l.0005 6c0 .3635-.1973.6984-.5152.8747-.3179.1762-.7065.1661-1.0148-.0266l-4.8005-3c-.2923-.1827-.47-.5032-.47-.848s.1776-.6653.47-.848l4.8-3.00002c.3083-.19266.6968-.20287 1.0147-.02667zm-3.3978 3.87459 1.9134 1.1958-.0002-2.3916zm-17.2869-2.59993c0-.55228.44772-1 1-1h9.6c.5523 0 1 .44772 1 1 0 .55229-.4477 1-1 1h-9.6c-.55228 0-1-.44771-1-1zm0 5.20003c0-.5523.44772-1 1-1h9.6c.5523 0 1 .4477 1 1s-.4477 1-1 1h-9.6c-.55228 0-1-.4477-1-1zm0 5.2c0-.5523.44772-1 1-1h19.2c.5523 0 1 .4477 1 1s-.4477 1-1 1h-19.2c-.55228 0-1-.4477-1-1z" fill="currentColor" fill-rule="evenodd"/></svg>