<svg fill="none" height="24" viewBox="0 0 24 24" width="24" xmlns="http://www.w3.org/2000/svg"><path clip-rule="evenodd" d="m12.1999 4.80005c0-.55229.4477-1 1-1h8.4c.5523 0 1 .44771 1 1 0 .55228-.4477 1-1 1h-8.4c-.5523 0-1-.44772-1-1zm-4.29289 1.69289c.39052.39053.39052 1.02369 0 1.41422l-4.09289 4.09284 4.09289 4.0929c.39052.3906.39052 1.0237 0 1.4143-.39053.3905-1.02369.3905-1.41422 0l-4.79999-4.8c-.39053-.3906-.39053-1.0237 0-1.4143l4.79999-4.79996c.39053-.39052 1.02369-.39052 1.41422 0zm1.89289 3.10711c0-.55229.4477-1 1-1h10.8c.5523 0 1 .44771 1 1 0 .55225-.4477.99995-1 .99995h-10.8c-.5523 0-1-.4477-1-.99995zm0 4.80005c0-.5523.4477-1 1-1h10.8c.5523 0 1 .4477 1 1 0 .5522-.4477 1-1 1h-10.8c-.5523 0-1-.4478-1-1zm2.4 4.8c0-.5523.4477-1 1-1h8.4c.5523 0 1 .4477 1 1 0 .5522-.4477 1-1 1h-8.4c-.5523 0-1-.4478-1-1z" fill="currentColor" fill-rule="evenodd"/></svg>