<svg fill="none" height="24" viewBox="0 0 24 24" width="24" xmlns="http://www.w3.org/2000/svg"><path clip-rule="evenodd" d="m12 4c-4.41828 0-8 3.58172-8 8 0 4.4183 3.58172 8 8 8 4.4183 0 8-3.5817 8-8 0-4.41828-3.5817-8-8-8zm-10 8c0-5.52285 4.47715-10 10-10 5.5228 0 10 4.47715 10 10 0 5.5228-4.4772 10-10 10-5.52285 0-10-4.4772-10-10zm10-4.375c.5523 0 1 .44772 1 1v.03955c0 .55229-.4477 1-1 1s-1-.44771-1-1v-.03955c0-.55228.4477-1 1-1zm0 3.375c.5523 0 1 .4477 1 1v4.5c0 .5523-.4477 1-1 1s-1-.4477-1-1v-4.5c0-.5523.4477-1 1-1z" fill="currentColor" fill-rule="evenodd"/></svg>