<svg fill="none" height="24" viewBox="0 0 24 24" width="24" xmlns="http://www.w3.org/2000/svg"><path clip-rule="evenodd" d="m11.1999 3.40002c-.7732 0-1.4.62681-1.4 1.4v3h3c1.8778 0 3.4 1.52224 3.4 3.39998v3h3c.7732 0 1.4-.6268 1.4-1.4v-7.99997c0-.7732-.6268-1.4-1.4-1.4zm5 12.79998h3c1.8778 0 3.4-1.5222 3.4-3.4v-7.99997c0-1.87777-1.5222-3.4-3.4-3.4l-8-.00001c-1.87776 0-3.4 1.52224-3.4 3.4v3h-3c-1.87776 0-3.4 1.52224-3.4 3.39998v8c0 1.8778 1.52223 3.4 3.4 3.4h8c1.8778 0 3.4-1.5222 3.4-3.4zm-2-2v-3c0-.7732-.6268-1.39998-1.4-1.39998h-3v2.99998c0 .7732.6268 1.4 1.4 1.4v1 1c-1.87777 0-3.4-1.5222-3.4-3.4v-2.99998h-3c-.7732 0-1.4.62678-1.4 1.39998v8c0 .7732.6268 1.4 1.4 1.4h8c.7732 0 1.4-.6268 1.4-1.4v-3h-3v-1-1z" fill="currentColor" fill-rule="evenodd"/></svg>