<svg fill="none" height="24" viewBox="0 0 24 24" width="24" xmlns="http://www.w3.org/2000/svg"><path clip-rule="evenodd" d="m1.3999 4.80002c0-1.87776 1.52223-3.4 3.4-3.4h14.4c1.8778 0 3.4 1.52224 3.4 3.4v14.39998c0 1.8778-1.5222 3.4-3.4 3.4h-14.4c-1.87777 0-3.4-1.5222-3.4-3.4zm3.4-1.4c-.7732 0-1.4.62681-1.4 1.4v14.39998c0 .7732.6268 1.4 1.4 1.4h14.4c.7732 0 1.4-.6268 1.4-1.4v-14.39998c0-.77319-.6268-1.4-1.4-1.4zm4.40121 3.8c0-.55228.44771-1 .99999-1h5.7714c.5523 0 1 .44772 1 1 0 .55229-.4477 1-1 1h-2.1337l-2.1955 7.59998h1.5559c.5523 0 1 .4477 1 1s-.4477 1-1 1h-5.77142c-.55229 0-1-.4477-1-1s.44771-1 1-1h2.13371l2.19551-7.59998h-1.5559c-.55228 0-.99999-.44771-.99999-1z" fill="currentColor" fill-rule="evenodd"/></svg>