<svg fill="none" height="24" viewBox="0 0 24 24" width="24" xmlns="http://www.w3.org/2000/svg"><path clip-rule="evenodd" d="m10.4265 3.62481c-2.90713-.85045-5.94565.78757-6.80006 3.62587-.85259 2.83222.78099 5.82732 3.68255 6.67612 1.37449.4021 2.65622.5235 3.63801.1431.3669-.1422.7831-.056 1.0633.2203l6.4008 6.3098h2.1889v-2.1294l-6.3948-6.3039c-.2361-.2327-.3415-.5673-.2814-.8933l.1594-.8653c.0066-.0362.0153-.0719.0259-.1071.8526-2.83224-.781-5.82737-3.6826-6.67619zm-8.71517 3.04936c1.17748-3.91149 5.33681-6.121479 9.27677-4.96891 3.9271 1.14884 6.1942 5.21647 5.0524 9.11744l-.0538.2918 6.3153 6.2256c.1907.1879.298.4444.298.7121v3.5478c0 .5523-.4477 1-1 1h-3.5989c-.2628 0-.5149-.1034-.7021-.2879l-6.2669-6.1778c-1.4378.35-2.97946.0939-4.28465-.2879-3.94553-1.1542-6.215437-5.2546-5.03612-9.17223zm6.28891 2.32553c0-.55228.44771-1 1-1h.12117c.55229 0 .99999.44772.99999 1s-.4477 1-.99999 1h-.12117c-.55229 0-1-.44772-1-1z" fill="currentColor" fill-rule="evenodd"/></svg>