<svg fill="none" height="24" viewBox="0 0 24 24" width="24" xmlns="http://www.w3.org/2000/svg"><path clip-rule="evenodd" d="m2.5999 6.23078c0-1.70518 1.41978-3.03077 3.1-3.03077h12.6c1.6802 0 3.1 1.32559 3.1 3.03077v8.60912c.7123.3641 1.2 1.1052 1.2 1.9601v1.8c0 1.215-.985 2.2-2.2 2.2h-16.8c-1.21502 0-2.2-.985-2.2-2.2v-1.8c0-.8549.48767-1.596 1.2-1.9601zm2 8.36922h3.2c.17403 0 .34504.0454.49614.1318l1.86946 1.0682h3.9316l1.5481-1.032c.1643-.1096.3573-.168.5547-.168h3.2v-8.36922c0-.53794-.4606-1.03077-1.1-1.03077h-12.6c-.63937 0-1.1.49283-1.1 1.03077zm-1 2c-.11045 0-.2.0896-.2.2v1.8c0 .1105.08955.2.2.2h16.8c.1105 0 .2-.0895.2-.2v-1.8c0-.1104-.0895-.2-.2-.2h-3.8972l-1.5481 1.0321c-.1643.1095-.3573.1679-.5547.1679h-4.5c-.17402 0-.34504-.0454-.49614-.1317l-1.86942-1.0683z" fill="currentColor" fill-rule="evenodd"/></svg>