<svg fill="none" height="24" viewBox="0 0 24 24" width="24" xmlns="http://www.w3.org/2000/svg"><path clip-rule="evenodd" d="m11.5438 3.86217c.2863-.14679.6259-.14679.9122 0l9.6 4.92074c.3339.17114.5439.51474.5439.88991 0 .37518-.21.71878-.5439.88988l-2.804 1.4373 2.804 1.4373c.3339.1711.5439.5147.5439.8899s-.21.7188-.5439.8899l-9.6 4.9208c-.2863.1467-.6259.1467-.9122 0l-9.60004-4.9208c-.33387-.1711-.54386-.5147-.54386-.8899s.20999-.7188.54386-.8899l2.80403-1.4373-2.80403-1.4373c-.33387-.1711-.54386-.5147-.54386-.88988 0-.37517.20999-.71877.54386-.88991zm-4.60372 9.26153-2.34789 1.2035 7.40771 3.797 7.4077-3.797-2.3479-1.2035-4.6037 2.3598c-.2863.1468-.6259.1468-.9122 0zm-2.34789-3.45088 7.40771 3.79698 7.4077-3.79698-7.4077-3.79703z" fill="currentColor" fill-rule="evenodd"/></svg>