<svg fill="none" height="24" viewBox="0 0 24 24" width="24" xmlns="http://www.w3.org/2000/svg"><path clip-rule="evenodd" d="m11.544 3.86217c.2863-.14679.6259-.14679.9123 0l9.6 4.92074c.3338.17114.5438.51474.5438.88991 0 .37518-.21.71878-.5438.88988l-9.6 4.9208c-.2864.1468-.626.1468-.9123 0l-9.60003-4.9208c-.33387-.1711-.54386-.5147-.54386-.88988 0-.37517.20999-.71877.54386-.88991zm-6.9516 5.81065 7.4077 3.79698 7.4077-3.79698-7.4077-3.79703zm-3.08219 4.19828c.25192-.4915.85457-.6857 1.34605-.4338l9.14384 4.6869 9.1439-4.6869c.4915-.2519 1.0941-.0577 1.346.4338.2519.4914.0577 1.0941-.4337 1.346l-9.6 4.9208c-.2864.1467-.626.1467-.9123 0l-9.60003-4.9208c-.49148-.2519-.68568-.8546-.43376-1.346z" fill="currentColor" fill-rule="evenodd"/></svg>