<svg fill="none" height="24" viewBox="0 0 24 24" width="24" xmlns="http://www.w3.org/2000/svg"><path clip-rule="evenodd" d="m1.3999 6.00002c0-2.54051 2.05949-4.6 4.6-4.6h12c2.5405 0 4.6 2.05949 4.6 4.6v11.99998c0 2.5405-2.0595 4.6-4.6 4.6h-12c-2.54051 0-4.6-2.0595-4.6-4.6zm8.6 14.59998h8c1.4359 0 2.6-1.164 2.6-2.6v-11.99998c0-1.43594-1.1641-2.6-2.6-2.6h-8zm-2-17.19998v17.19998h-2c-1.43594 0-2.6-1.164-2.6-2.6v-11.99998c0-1.43594 1.16406-2.6 2.6-2.6zm4.2 2.6c0-.55228.4477-1 1-1h3.6c.5523 0 1 .44772 1 1 0 .55229-.4477 1-1 1h-3.6c-.5523 0-1-.44771-1-1zm0 3.6c0-.55228.4477-1 1-1h3.6c.5523 0 1 .44772 1 1s-.4477.99998-1 .99998h-3.6c-.5523 0-1-.4477-1-.99998zm0 3.59998c0-.5523.4477-1 1-1h.6c.5523 0 1 .4477 1 1s-.4477 1-1 1h-.6c-.5523 0-1-.4477-1-1z" fill="currentColor" fill-rule="evenodd"/></svg>