<svg fill="none" height="24" viewBox="0 0 24 24" width="24" xmlns="http://www.w3.org/2000/svg"><path clip-rule="evenodd" d="m1.3999 6.00002c0-2.54051 2.05949-4.6 4.6-4.6h12c2.5405 0 4.6 2.05949 4.6 4.6v11.99998c0 2.5405-2.0595 4.6-4.6 4.6h-12c-2.54051 0-4.6-2.0595-4.6-4.6zm4.6-2.6c-1.43594 0-2.6 1.16406-2.6 2.6v.8h17.2v-.8c0-1.43594-1.1641-2.6-2.6-2.6zm14.6 5.4h-17.2v9.19998c0 1.436 1.16406 2.6 2.6 2.6h12c1.4359 0 2.6-1.164 2.6-2.6zm-15.6 3.19998c0-.5523.44772-1 1-1h12c.5523 0 1 .4477 1 1s-.4477 1-1 1h-12c-.55228 0-1-.4477-1-1zm0 4.8c0-.5523.44772-1 1-1h7.2c.5523 0 1 .4477 1 1s-.4477 1-1 1h-7.2c-.55228 0-1-.4477-1-1z" fill="currentColor" fill-rule="evenodd"/></svg>