<svg fill="none" height="24" viewBox="0 0 24 24" width="24" xmlns="http://www.w3.org/2000/svg"><path clip-rule="evenodd" d="m5.9999 3.40002c-1.43594 0-2.6 1.16406-2.6 2.6v11.99998c0 1.436 1.16406 2.6 2.6 2.6h8v-17.19998zm10 0v17.19998h2c1.4359 0 2.6-1.164 2.6-2.6v-11.99998c0-1.43594-1.1641-2.59999-2.6-2.6zm-14.6 2.6c0-2.54051 2.05949-4.6 4.6-4.6h12c2.5405.00001 4.6 2.0595 4.6 4.6v11.99998c0 2.5405-2.0595 4.6-4.6 4.6h-12c-2.54051 0-4.6-2.0595-4.6-4.6z" fill="currentColor" fill-rule="evenodd"/></svg>