<svg fill="none" height="24" viewBox="0 0 24 24" width="24" xmlns="http://www.w3.org/2000/svg"><path clip-rule="evenodd" d="m1.3999 6.00002c0-2.54051 2.05949-4.6 4.6-4.6h12c2.5405 0 4.6 2.05949 4.6 4.6v11.99998c0 2.5405-2.0595 4.6-4.6 4.6h-12c-2.54051 0-4.6-2.0595-4.6-4.6zm9.8 14.59998h6.8c1.4359 0 2.6-1.164 2.6-2.6v-5h-9.4zm0-9.6h9.4v-4.99998c0-1.43594-1.1641-2.6-2.6-2.6h-6.8zm-2-7.59998v17.19998h-3.2c-1.43594 0-2.6-1.164-2.6-2.6v-11.99998c0-1.43594 1.16406-2.6 2.6-2.6z" fill="currentColor" fill-rule="evenodd"/></svg>