<svg fill="none" height="24" viewBox="0 0 24 24" width="24" xmlns="http://www.w3.org/2000/svg"><path clip-rule="evenodd" d="m12 3.40002c-2.76142 0-5 2.23858-5 5 0 2.04878 1.23238 3.81188 3.0004 4.58438.3642.1592.5996.5189.5996.9164v3.4992c0 .1105.0895.2.2.2h2.4c.1105 0 .2-.0895.2-.2v-3.6c0-.3975.2354-.7572.5996-.9163 1.7866-.7806 3.0004-2.4543 3.0004-4.48368 0-2.76142-2.2386-5-5-5zm-7 5c0-3.86599 3.13401-7 7-7 3.866 0 7 3.13401 7 7 0 2.64958-1.4679 4.84778-3.6 6.02118v2.9788c0 1.215-.985 2.2-2.2 2.2h-2.4c-1.21503 0-2.2-.985-2.2-2.2v-2.8799c-2.14592-1.1947-3.6-3.4866-3.6-6.12008zm4.2 1.2c0-.55228.44772-1 1-1h3.6c.5523 0 1 .44772 1 1s-.4477.99998-1 .99998h-3.6c-.55228 0-1-.4477-1-.99998zm-.6 11.99998c0-.5523.44772-1 1-1h4.8c.5523 0 1 .4477 1 1s-.4477 1-1 1h-4.8c-.55228 0-1-.4477-1-1z" fill="currentColor" fill-rule="evenodd"/></svg>