<svg fill="none" height="24" viewBox="0 0 24 24" width="24" xmlns="http://www.w3.org/2000/svg"><path clip-rule="evenodd" d="m14.9053 1.49084c.3923.17968.6251.59074.5774 1.01959l-.6386 5.7472 4.4075 2.51857c.265.1514.4463.4155.4924.7172s-.048.6079-.2557.8315l-9.2444 9.9556c-.29228.3147-.75283.4076-1.14427.2309-.39143-.1767-.62634-.5836-.5836-1.0109l.63813-6.3814-4.30368-1.8444c-.29898-.1281-.51696-.3937-.58437-.7119s.02416-.6493.2455-.8877l9.24449-9.95555c.2936-.3162.7569-.4084 1.1492-.22871zm-7.96207 10.50486 3.67287 1.574c.4012.172.6445.5843.6011 1.0187l-.4152 4.1517 6.3632-6.8526-3.8836-2.21925c-.3462-.19783-.5418-.5824-.4978-.97868l.3766-3.38937z" fill="currentColor" fill-rule="evenodd"/></svg>