<svg fill="none" height="24" viewBox="0 0 24 24" width="24" xmlns="http://www.w3.org/2000/svg"><path clip-rule="evenodd" d="m14.2276 2.72012c.1283-.37997.0191-.81621-.3075-1.08835-.4242-.35357-1.0548-.29624-1.4084.12803l-9.59998 11.52c-.2484.2981-.30195.713-.13737 1.0643.16458.3514.51758.5759.90559.5759h7.23316l-.5497 6.5969c-.0368.4411.2207.8538.633 1.0147.4122.1608.8812.0316 1.1529-.3177l8.96-11.52c.2345-.3015.2768-.71017.109-1.05326-.1678-.3431-.5164-.56065-.8984-.56065h-7.1217l1.0656-5.86112c.0314-.17283.0164-.34336-.0362-.49875zm-2.4621 3.05928-5.95051 7.1406h6.18491c.2797 0 .5466.1171.7359.3229.1894.2058.2839.4814.2607.7601l-.3607 4.3277 5.6395-7.2507h-6.2754c-.2965 0-.5777-.1316-.7677-.3593-.19-.2276-.2692-.5279-.2161-.8196z" fill="currentColor" fill-rule="evenodd"/></svg>