<svg fill="none" height="24" viewBox="0 0 24 24" width="24" xmlns="http://www.w3.org/2000/svg"><path clip-rule="evenodd" d="m12 4c-4.41828 0-8 3.58172-8 8 0 4.4183 3.58172 8 8 8 4.4183 0 8-3.5817 8-8 0-4.41828-3.5817-8-8-8zm-10 8c0-5.52285 4.47715-10 10-10 5.5228 0 10 4.47715 10 10 0 5.5228-4.4772 10-10 10-5.52285 0-10-4.4772-10-10zm11.0622-6.57501c.4104.13486.6878.51802.6878.95001v3.875h2.75c.387 0 .7392.2233.9044.5732.1651.35.1135.7638-.1325 1.0625l-5.25 6.375c-.2683.3258-.7123.4481-1.1096.3056-.3973-.1426-.6623-.5192-.6623-.9413v-3.125h-2.75c-.37725 0-.72239-.2123-.89252-.549-.17014-.3367-.13632-.7405.08746-1.0442l5.24996-7.125c.2563-.34778.7069-.49168 1.1173-.35681zm-3.58321 7.07501h1.77101c.5523 0 1 .4477 1 1v1.3377l2.131-2.5877h-1.631c-.5523 0-1-.4477-1-1v-1.83208z" fill="currentColor" fill-rule="evenodd"/></svg>