<svg fill="none" height="24" viewBox="0 0 24 24" width="24" xmlns="http://www.w3.org/2000/svg"><path clip-rule="evenodd" d="m6.375 4c-1.31168 0-2.375 1.06332-2.375 2.37498v11.25002c0 1.3117 1.06332 2.375 2.375 2.375h11.25c1.3117 0 2.375-1.0633 2.375-2.375v-11.25002c0-1.31166-1.0633-2.37498-2.375-2.37498zm-4.375 2.37498c0-2.41624 1.95876-4.37498 4.375-4.37498h11.25c2.4162 0 4.375 1.95874 4.375 4.37498v11.25002c0 2.4163-1.9588 4.375-4.375 4.375h-11.25c-2.41624 0-4.375-1.9587-4.375-4.375zm11.0622-.95001c.4104.13487.6878.51802.6878.95001v3.87502h2.75c.387 0 .7392.2232.9044.5732.1651.3499.1135.7638-.1325 1.0625l-5.25 6.3749c-.2683.3258-.7123.4481-1.1096.3056-.3973-.1426-.6623-.5192-.6623-.9413v-3.125h-2.75c-.37725 0-.72239-.2123-.89252-.549-.17014-.3367-.13632-.7405.08747-1.0442l5.24995-7.12492c.2563-.34778.7069-.49168 1.1173-.35681zm-3.5832 7.07493h1.771c.5523 0 1 .4478 1 1v1.3377l2.131-2.5876h-1.631c-.5523 0-1-.4478-1-1v-1.83211z" fill="currentColor" fill-rule="evenodd"/></svg>