<svg fill="none" height="24" viewBox="0 0 24 24" width="24" xmlns="http://www.w3.org/2000/svg"><path clip-rule="evenodd" d="m2.3999 1.40002c.55229 0 1 .44772 1 1v18.19998h18.2c.5523 0 1 .4477 1 1s-.4477 1-1 1h-19.2c-.55228 0-1-.4477-1-1v-19.19998c0-.55228.44772-1 1-1zm4.09291 3.89288c.39054-.39051 1.0237-.3905 1.41422.00003l3.49257 3.49278 2.2927-2.29279c.1876-.18755.4419-.29291.7071-.29291.2653 0 .5196.10536.7072.29291l5.4933 5.49358v-2.67757c0-.55228.4477-1 1-1s1 .44772 1 1v5.09107c0 .5523-.4477 1-1 1h-5.0908c-.5523 0-1-.4477-1-1s.4477-1 1-1h2.6759l-4.7856-4.78575-2.2926 2.29285c-.1876.1875-.4419.2929-.7072.2929-.2652 0-.5195-.1054-.7071-.293l-4.19972-4.19989c-.39052-.39053-.3905-1.02369.00003-1.41421z" fill="currentColor" fill-rule="evenodd"/></svg>