<svg fill="none" height="24" viewBox="0 0 24 24" width="24" xmlns="http://www.w3.org/2000/svg"><path clip-rule="evenodd" d="m6.38823 4c.26522 0 .51958.10536.70711.29289l3.38826 3.38824c.3905.39052.3905 1.02369 0 1.41421-.3905.39053-1.02371.39053-1.41424 0l-1.68113-1.68113v10.98339l1.68113-1.6812c.39053-.3905 1.02374-.3905 1.41424 0s.3905 1.0237 0 1.4142l-3.38826 3.3883c-.18753.1875-.44189.2929-.70711.2929-.26521 0-.51957-.1054-.7071-.2929l-3.38824-3.3883c-.39052-.3905-.39052-1.0237 0-1.4142.39053-.3905 1.02369-.3905 1.41422 0l1.68112 1.6812v-10.98339l-1.68112 1.68113c-.39053.39053-1.02369.39053-1.41422 0-.39052-.39052-.39052-1.02369 0-1.41421l3.38824-3.38824c.18753-.18753.44189-.29289.7071-.29289zm6.90587 2.12941c0-.55228.4477-1 1-1h7.9059c.5523 0 1 .44772 1 1 0 .55229-.4477 1-1 1h-7.9059c-.5523 0-1-.44771-1-1zm0 4.51769c0-.5523.4477-1.00004 1-1.00004h7.9059c.5523 0 1 .44774 1 1.00004 0 .5522-.4477 1-1 1h-7.9059c-.5523 0-1-.4478-1-1zm0 4.5176c0-.5523.4477-1 1-1h7.9059c.5523 0 1 .4477 1 1s-.4477 1-1 1h-7.9059c-.5523 0-1-.4477-1-1zm0 4.5177c0-.5523.4477-1 1-1h7.9059c.5523 0 1 .4477 1 1 0 .5522-.4477 1-1 1h-7.9059c-.5523 0-1-.4478-1-1z" fill="currentColor" fill-rule="evenodd"/></svg>