<svg fill="none" height="24" viewBox="0 0 24 24" width="24" xmlns="http://www.w3.org/2000/svg"><path clip-rule="evenodd" d="m2.3999 1.40002c.55229 0 1 .44772 1 1v18.19998h18.2c.5523 0 1 .4477 1 1s-.4477 1-1 1h-19.2c-.55228 0-1-.4477-1-1v-19.19998c0-.55228.44772-1 1-1zm18.1072 5.6929c.3906.39052.3906 1.02369 0 1.41421l-5.4001 5.40017c-.3905.3905-1.0237.3905-1.4142 0l-2.2929-2.2929-3.49289 3.4929c-.39053.3905-1.02369.3905-1.41422 0-.39052-.3906-.39052-1.0237 0-1.4143l4.20001-4.19996c.3905-.39052 1.0237-.39052 1.4142 0l2.2929 2.29286 4.693-4.69298c.3905-.39053 1.0237-.39053 1.4142 0z" fill="currentColor" fill-rule="evenodd"/></svg>