<svg fill="none" height="24" viewBox="0 0 24 24" width="24" xmlns="http://www.w3.org/2000/svg"><path clip-rule="evenodd" d="m18.5855 4.00012-3.211.00015c-.5523.00003-1-.44766-1.0001-.99995 0-.55228.4477-1.00002 1-1.00005l5.6256-.00027c.2652-.00001.5195.10534.7071.29288.1875.18753.2929.4419.2929.70712v5.06261c0 .55228-.4477 1-1 1s-1-.44772-1-1v-2.6486l-7.8563 7.85529c-.3905.3905-1.0237.3905-1.4142-.0001-.3905-.3905-.3904-1.0237.0001-1.4142zm-12.2105-.00012c-1.31168 0-2.375 1.06332-2.375 2.37498v11.25002c0 1.3117 1.06332 2.375 2.375 2.375h11.25c1.3117 0 2.375-1.0633 2.375-2.375v-4.5001c0-.5522.4477-1 1-1s1 .4478 1 1v4.5001c0 2.4163-1.9588 4.375-4.375 4.375h-11.25c-2.41624 0-4.375-1.9587-4.375-4.375v-11.25002c0-2.41624 1.95876-4.37498 4.375-4.37498h4.5c.5523 0 1 .44772 1 1 0 .55229-.4477 1-1 1z" fill="currentColor" fill-rule="evenodd"/></svg>