<svg fill="none" height="24" viewBox="0 0 24 24" width="24" xmlns="http://www.w3.org/2000/svg"><path clip-rule="evenodd" d="m9.45744.449726c.54956.054547.95086.544293.89636 1.093874l-.181 1.82353c-.0546.54959-.5443.95089-1.09388.89635-.54958-.05455-.95089-.5443-.89634-1.09388l.18098-1.82353c.05455-.549583.54429-.950891 1.09388-.896344zm2.39296 4.121824c1.0298-1.02981 2.4251-1.58137 3.8766-1.5707 1.4484.01064 2.8406.57993 3.8754 1.61178 1.0684 1.03835 1.6394 2.43651 1.6501 3.88673.0108 1.46725-.5792 2.85764-1.5979 3.87634l-2.2335 2.2335c-.3905.3905-1.0237.3905-1.4142 0s-.3905-1.0237 0-1.4142l2.2335-2.2335c.6495-.6496 1.0189-1.52906 1.0121-2.44744-.0068-.93285-.3722-1.81611-1.0476-2.47067l-.0112-.011c-.6576-.65761-1.5468-1.02473-2.4814-1.0316-.9342-.00686-1.8092.34647-2.4477.98498v.00001l-2.2334 2.23344c-.3906.39053-1.0237.39053-1.41426 0-.39052-.39052-.39052-1.02369 0-1.41421l2.23346-2.23345zm-8.32763-1.16785c.39052-.39053 1.02369-.39053 1.41421 0l1.10631 1.1063c.39052.39053.39052 1.02369 0 1.41422-.39052.39052-1.02369.39052-1.41421 0l-1.10631-1.10631c-.39052-.39052-.39052-1.02369 0-1.41421zm12.59033 4.60861c.3905.39053.3905 1.02369 0 1.41422l-6.70037 6.70037c-.39052.3905-1.02369.3905-1.41421 0-.39053-.3905-.39053-1.0237 0-1.4142l6.70038-6.70039c.3905-.39052 1.0237-.39052 1.4142 0zm-11.50558.7827c.05455.54958-.34676 1.03933-.89634 1.09387l-1.89066.18762c-.54959.0546-1.03933-.34673-1.093877-.89631-.054547-.54959.346757-1.03933.896347-1.09388l1.89066-.18765c.54958-.05454 1.03933.34676 1.09387.89635zm3.57062.78104c.39052.39053.39052 1.02365 0 1.41425l-2.23346 2.2334c-.64957.6496-1.01893 1.5291-1.01218 2.4475.00686.9328.37221 1.8161 1.04762 2.4707.00752.0072.01492.0146.02221.0222.65447.6753 1.53793 1.0407 2.47064 1.0475.95788.0071 1.80693-.3442 2.44763-.9849l2.2335-2.2335c.3905-.3905 1.0237-.3905 1.4142 0s.3905 1.0237 0 1.4142l-2.2335 2.2335-.7071-.7071.7071.7071c-1.0276 1.0276-2.39475 1.5816-3.87652 1.5707-1.44744-.0106-2.84351-.5796-3.88129-1.6445-1.06476-1.0378-1.6338-2.4336-1.64443-3.8812-.01079-1.4673.57921-2.8577 1.59791-3.8764l.70711.7071-.70711-.7071 2.23346-2.23345c.39052-.39052 1.02368-.39052 1.41421 0zm15.37226 4.96655c.0545.5496-.3468 1.0394-.8964 1.0939l-1.8906.1877c-.5496.0545-1.0394-.3468-1.0939-.8964-.0546-.5496.3467-1.0393.8963-1.0938l1.8907-.1877c.5496-.0545 1.0393.3468 1.0939.8963zm-5.3167 3.256c.3905-.3905 1.0237-.3905 1.4142 0l1.1063 1.1063c.3906.3906.3906 1.0237 0 1.4142-.3905.3906-1.0237.3906-1.4142 0l-1.1063-1.1063c-.3905-.3905-.3905-1.0237 0-1.4142zm-3.0356 1.6608c.5496.0545.9509.5443.8963 1.0938l-.181 1.8236c-.0545.5496-.5443.9509-1.0938.8963-.5496-.0545-.9509-.5443-.8964-1.0939l.181-1.8235c.0546-.5496.5443-.9509 1.0939-.8963z" fill="currentColor" fill-rule="evenodd"/></svg>