<svg fill="none" height="24" viewBox="0 0 24 24" width="24" xmlns="http://www.w3.org/2000/svg"><path clip-rule="evenodd" d="m4.88273 3.07615c.37368.15478.61732.51942.61732.92388v5.99997c0 .5523-.44771 1-1 1-.55228 0-1-.4477-1-1v-3.58576l-.29289.2929c-.39053.39052-1.02369.39052-1.41422 0-.39052-.39053-.39052-1.02369 0-1.41422l2-2c.286-.286.71612-.37155 1.08979-.21677zm4.71771 2.92386c0-.55228.44776-1 .99996-1h10.8c.5523 0 1 .44772 1 1 0 .55229-.4477 1-1 1h-10.8c-.5522 0-.99996-.44771-.99996-1zm-.00001 6.50019c0-.5523.44767-1 .99997-1h10.8c.5523 0 1 .4477 1 1s-.4477 1-1 1h-10.8c-.5523 0-.99997-.4477-.99997-1zm-5.10038 2.4998c-.26521 0-.51957.1054-.70711.2929-.18753.1876-.29289.4419-.29289.7071 0 .5523-.44771 1-1 1-.55228 0-1-.4477-1-1 0-.7956.31607-1.5587.87868-2.1213s1.32567-.8787 2.12132-.8787 1.55871.3161 2.12132.8787.87868 1.3257.87868 2.1213c0 .6052-.26451 1.069-.52619 1.402-.18788.2391-.43506.4804-.62865.6694-.05029.0491-.09697.0947-.13805.1357-.02137.0214-.0437.0418-.06692.0612l-.87814.7317h1.23795c.55229 0 1 .4477 1 1s-.44771 1-1 1h-4c-.42102 0-.79694-.2637-.94027-.6595-.14333-.3959-.02335-.8392.30009-1.1087l2.96583-2.4715c.05248-.0521.10411-.1026.15213-.1496l.00943-.0093c.06205-.0607.1178-.1153.17076-.1686.10728-.1079.18501-.1924.24323-.2665.05733-.073.08172-.1185.09189-.1425.00736-.0174.00701-.0223.00692-.0236 0 0-.00001-.0001-.00001-.0002 0-.2652-.10536-.5195-.29289-.7071-.18754-.1875-.44189-.2929-.70711-.2929zm5.3 4.0002c0-.5523.44775-1 .99995-1h10.6004c.5523 0 1 .4477 1 1s-.4477 1-1 1h-10.6004c-.5522 0-.99995-.4477-.99995-1z" fill="currentColor" fill-rule="evenodd"/></svg>