<svg fill="none" height="24" viewBox="0 0 24 24" width="24" xmlns="http://www.w3.org/2000/svg"><path clip-rule="evenodd" d="m13.3501 1.10001c.5523 0 1 .44771 1 1v3.6c0 .55228-.4477 1-1 1s-1-.44772-1-1v-3.6c0-.55229.4477-1 1-1zm-8.13247 2.16811c.39052-.39052 1.02369-.39052 1.41421 0l3.39416 3.39412c.3905.39052.3905 1.02369 0 1.41421-.39057.39052-1.02373.39052-1.41426 0l-3.39411-3.39411c-.39053-.39053-.39053-1.02369 0-1.41422zm13.12597 1.72478c.3905-.39052 1.0237-.39052 1.4142 0s.3905 1.02369 0 1.41421l-1.6697 1.6697c-.3905.39053-1.0237.39053-1.4142 0-.3905-.39052-.3905-1.02369 0-1.41421zm-16.4935 6.4071c0-.5523.44771-1 1-1h4.8c.55228 0 1 .4477 1 1s-.44772 1-1 1h-4.8c-.55229 0-1-.4477-1-1zm16.2 0c0-.5523.4477-1 1-1h2.1c.5523 0 1 .4477 1 1s-.4477 1-1 1h-2.1c-.5523 0-1-.4477-1-1zm-1.3762 3.3232c.3905-.3905 1.0237-.3905 1.4142 0l1.6691 1.6691c.3905.3905.3905 1.0237 0 1.4142-.3905.3906-1.0237.3906-1.4142 0l-1.6691-1.6691c-.3905-.3905-.3905-1.0237 0-1.4142zm-6.6479.0004c.3905.3905.3905 1.0237 0 1.4142l-3.39416 3.3941c-.39052.3905-1.02369.3905-1.41421 0-.39053-.3905-.39053-1.0237 0-1.4142l3.39411-3.3941c.39053-.3906 1.02369-.3906 1.41426 0zm3.3241 1.3764c.5523 0 1 .4477 1 1v4.8c0 .5523-.4477 1-1 1s-1-.4477-1-1v-4.8c0-.5523.4477-1 1-1z" fill="currentColor" fill-rule="evenodd"/></svg>