<svg fill="none" height="24" viewBox="0 0 24 24" width="24" xmlns="http://www.w3.org/2000/svg"><path clip-rule="evenodd" d="m12 2c.5523 0 1 .44772 1 1v4.11429c0 .55228-.4477 1-1 1s-1-.44772-1-1v-4.11429c0-.55228.4477-1 1-1zm-7.0717 2.9288c.39052-.39053 1.02369-.39053 1.41421 0l2.90924 2.90924c.39052.39052.39052 1.02369 0 1.41421-.39052.39053-1.02369.39053-1.41421 0l-2.90924-2.90924c-.39053-.39052-.39053-1.02369 0-1.41421zm14.1431.00031c.3905.39052.3905 1.02369 0 1.41421l-2.9092 2.90924c-.3906.39053-1.0237.39053-1.4143 0-.3905-.39052-.3905-1.02369 0-1.41421l2.9093-2.90924c.3905-.39052 1.0237-.39052 1.4142 0zm-17.0714 7.07089c0-.5523.44772-1 1-1h4.11429c.55228 0 1 .4477 1 1s-.44772 1-1 1h-4.11429c-.55228 0-1-.4477-1-1zm13.8857 0c0-.5523.4477-1 1-1h4.1143c.5523 0 1 .4477 1 1s-.4477 1-1 1h-4.1143c-.5523 0-1-.4477-1-1zm-1.1378 2.7474c.3906-.3905 1.0237-.3905 1.4143 0l2.9092 2.9093c.3905.3905.3905 1.0237 0 1.4142s-1.0237.3905-1.4142 0l-2.9093-2.9092c-.3905-.3906-.3905-1.0237 0-1.4143zm-5.49615.0003c.39052.3906.39052 1.0237 0 1.4143l-2.90924 2.9092c-.39052.3905-1.02369.3905-1.41421 0-.39053-.3905-.39053-1.0237 0-1.4142l2.90924-2.9093c.39052-.3905 1.02369-.3905 1.41421 0zm2.74825 1.138c.5523 0 1 .4477 1 1v4.1143c0 .5523-.4477 1-1 1s-1-.4477-1-1v-4.1143c0-.5523.4477-1 1-1z" fill="currentColor" fill-rule="evenodd"/></svg>