<svg fill="none" height="24" viewBox="0 0 24 24" width="24" xmlns="http://www.w3.org/2000/svg"><path clip-rule="evenodd" d="m5.60005 7.86131c0-3.56704 2.84566-6.46141 6.39995-6.46141 3.5544 0 6.4001 2.89437 6.4001 6.46141v1.46362c1.126 1.39807 1.8 3.17347 1.8 5.10707 0 4.5153-3.6755 8.1681-8.2001 8.1681-4.52449 0-8.19995-3.6528-8.19995-8.1681 0-1.9494.68505-3.738 1.82772-5.1413-.01812-.0753-.02772-.15393-.02772-.23479zm2.01172-.33044c1.26934-.80248 2.77483-1.26699 4.38823-1.26699 1.6135 0 3.119.46451 4.3883 1.26699-.1657-2.32652-2.0685-4.13097-4.3883-4.13097-2.31974 0-4.2225 1.80445-4.38823 4.13097zm4.38823.73301c-3.42831 0-6.19995 2.76572-6.19995 6.16812 0 3.4023 2.77164 6.1681 6.19995 6.1681 3.4284 0 6.2001-2.7658 6.2001-6.1681 0-3.4024-2.7717-6.16812-6.2001-6.16812zm0 4.02152c.5523 0 1 .4478 1 1v2.4c0 .5523-.4477 1-1 1-.5522 0-1-.4477-1-1v-2.4c0-.5522.4478-1 1-1z" fill="currentColor" fill-rule="evenodd"/></svg>