<svg fill="none" height="24" viewBox="0 0 24 24" width="24" xmlns="http://www.w3.org/2000/svg"><path clip-rule="evenodd" d="m5.60005 7.88574c0-3.57629 2.8415-6.48572 6.39995-6.48572 3.5586 0 6.4001 2.90943 6.4001 6.48572v.10061c1.0568.40994 1.8 1.44908 1.8 2.64225v9.1429c0 1.543-1.243 2.8285-2.8 2.8285h-10.80005c-1.55707 0-2.8-1.2855-2.8-2.8285v-9.1429c0-1.19317.74312-2.23231 1.8-2.64225zm2.00077-.08572h8.79848c-.0445-2.46099-2.0027-4.4-4.3993-4.4-2.39655 0-4.35465 1.93901-4.39918 4.4zm-1.00077 2c-.42293 0-.8.36028-.8.82858v9.1429c0 .4683.37707.8285.8.8285h10.80005c.4229 0 .8-.3602.8-.8285v-9.1429c0-.4683-.3771-.82858-.8-.82858zm5.39995 4.57148c-.4229 0-.8.3602-.8.8285 0 .4684.3771.8286.8.8286.423 0 .8-.3602.8-.8286 0-.4683-.377-.8285-.8-.8285zm-2.79995.8285c0-1.5431 1.24295-2.8285 2.79995-2.8285 1.5571 0 2.8 1.2854 2.8 2.8285s-1.2429 2.8286-2.8 2.8286c-1.557 0-2.79995-1.2855-2.79995-2.8286z" fill="currentColor" fill-rule="evenodd"/></svg>