<svg fill="none" height="24" viewBox="0 0 24 24" width="24" xmlns="http://www.w3.org/2000/svg"><path clip-rule="evenodd" d="m21.1274 20.495c-.5853.5804-1.3774.905-2.2016.905h-3.7059c-.5523 0-1-.4477-1-1s.4477-1 1-1h3.7059c.2991 0 .5843-.1179.7933-.3251.2087-.207.3244-.4859.3244-.7749v-12.60001c0-.28902-.1157-.56791-.3244-.77486-.209-.20723-.4942-.32514-.7933-.32514h-3.7059c-.5523 0-1-.44771-1-1 0-.55228.4477-1 1-1h3.7059c.8242 0 1.6163.3246 2.2016.90502.5855.58071.9161 1.3701.9161 2.19499v12.6c0 .8249-.3306 1.6143-.9161 2.195zm-12.89477-2.9719c-.39936.3815-1.03236.367-1.41385-.0324l-4.58515-4.8c-.36919-.3865-.36919-.995 0-1.3814l4.58516-4.80004c.38148-.39936 1.01448-.41386 1.41384-.03237.39936.38148.41385 1.01448.03236 1.41384l-2.97009 3.10927h9.6618c.5523 0 1 .4477 1 1s-.4477 1-1 1h-9.6618l2.97009 3.1093c.38149.3993.367 1.0323-.03236 1.4138z" fill="currentColor" fill-rule="evenodd"/></svg>