<svg fill="none" height="24" viewBox="0 0 24 24" width="24" xmlns="http://www.w3.org/2000/svg"><path clip-rule="evenodd" d="m2.9161 3.50502c.58531-.58042 1.37738-.90501 2.20155-.90501h7.41175c.8242 0 1.6163.32459 2.2016.90501.5855.58071.9161 1.3701.9161 2.19499v2.1c0 .55228-.4478 1-1 1-.5523 0-1-.44772-1-1v-2.1c0-.28903-.1157-.56792-.3244-.77487-.209-.20723-.4942-.32513-.7933-.32513h-7.41175c-.29911 0-.5843.1179-.79326.32513-.20869.20695-.32439.48584-.32439.77487v12.59999c0 .289.1157.5679.32439.7749.20896.2072.49415.3251.79326.3251h7.41175c.2991 0 .5843-.1179.7933-.3251.2087-.207.3244-.4859.3244-.7749v-2.1c0-.5523.4477-1 1-1 .5522 0 1 .4477 1 1v2.1c0 .8249-.3306 1.6143-.9161 2.195-.5853.5804-1.3774.905-2.2016.905h-7.41175c-.82417 0-1.61624-.3246-2.20155-.905-.58558-.5807-.9161-1.3701-.9161-2.195v-12.59999c0-.82489.33052-1.61428.9161-2.19499zm14.1974 4.64084c.3889-.39215 1.022-.3948 1.4142-.00591l3.1764 3.14995c.1894.1878.2959.4434.2959.7101s-.1065.5223-.2959.7101l-3.1764 3.15c-.3922.3889-1.0253.3862-1.4142-.006-.3889-.3921-.3863-1.0253.0059-1.4142l1.452-1.4399h-10.27728c-.55229 0-1-.4477-1-1s.44771-1 1-1h10.27728l-1.452-1.43993c-.3922-.38889-.3948-1.02205-.0059-1.41421z" fill="currentColor" fill-rule="evenodd"/></svg>