<svg fill="none" height="24" viewBox="0 0 24 24" width="24" xmlns="http://www.w3.org/2000/svg"><path clip-rule="evenodd" d="m9.625 5c-.11823 0-.1875.09033-.1875.16923v1.33846h4.5313v-1.33846c0-.0789-.0693-.16923-.1876-.16923zm6.3438 1.50769v-1.33846c0-1.21259-.9941-2.16923-2.1876-2.16923h-4.1562c-1.19345 0-2.1875.95664-2.1875 2.16923v1.33846h-2.5625c-1.84929 0-3.375 1.48012-3.375 3.33846v7.01535c0 1.8584 1.52571 3.3385 3.375 3.3385h14.25c1.8493 0 3.375-1.4801 3.375-3.3385v-7.01535c0-1.85834-1.5257-3.33846-3.375-3.33846zm-1.4063 2h-5.71875v9.69231h5.71875zm2 9.69231h2.5625c.7741 0 1.375-.6138 1.375-1.3385v-7.01535c0-.72465-.6009-1.33846-1.375-1.33846h-2.5625zm-9.71875 0v-9.69231h-1.96875c-.77407 0-1.375.61381-1.375 1.33846v7.01535c0 .7247.60094 1.3385 1.375 1.3385z" fill="currentColor" fill-rule="evenodd"/></svg>