<svg fill="none" height="24" viewBox="0 0 24 24" width="24" xmlns="http://www.w3.org/2000/svg"><path clip-rule="evenodd" d="m9.47681 5.27749c-.03105.02973-.03931.05808-.03931.08143v1.2735h4.5313v-1.2735c0-.02335-.0083-.0517-.0394-.08143-.0318-.03046-.0821-.05532-.1482-.05532h-4.1562c-.06606 0-.11637.02486-.14819.05532zm6.49199 1.35493v-1.2735c0-1.22081-1.021-2.13675-2.1876-2.13675h-4.1562c-1.16651 0-2.1875.91594-2.1875 2.13675v1.2735h-2.5625c-1.82235 0-3.375 1.42489-3.375 3.27351v6.82047c0 1.8487 1.55265 3.2735 3.375 3.2735h14.25c1.8224 0 3.375-1.4248 3.375-3.2735v-6.82047c0-1.84862-1.5526-3.27351-3.375-3.27351zm-11.0938 2c-.801 0-1.375.61088-1.375 1.27351v6.82047c0 .6627.574 1.2735 1.375 1.2735h14.25c.801 0 1.375-.6108 1.375-1.2735v-6.82047c0-.66263-.574-1.27351-1.375-1.27351z" fill="currentColor" fill-rule="evenodd"/></svg>