<svg fill="none" height="24" viewBox="0 0 24 24" width="24" xmlns="http://www.w3.org/2000/svg"><path clip-rule="evenodd" d="m4.00011 7.23352c-.00007.00549-.00011.01098-.00011.01648v8.8043c0 .6904.55964 1.2501 1.25 1.2501h13.5c.6904 0 1.25-.5597 1.25-1.2501v-8.50061l-7.4855 4.49131c-.3262.1957-.7352.1894-1.0553-.0163zm1.7797-1.23352 6.23839 4.0104 6.684-4.0104zm-3.77981 1.25c0-1.79492 1.45507-3.25 3.25-3.25h13.5c1.7949 0 3.25 1.45508 3.25 3.25v8.8043c0 1.795-1.4551 3.2501-3.25 3.2501h-13.5c-1.79493 0-3.25-1.4551-3.25-3.2501z" fill="currentColor" fill-rule="evenodd"/></svg>