<svg fill="none" height="24" viewBox="0 0 24 24" width="24" xmlns="http://www.w3.org/2000/svg"><path clip-rule="evenodd" d="m7.5 4c-1.10457 0-2 .89543-2 2v3.93381l6.5 3.89999 6.5-3.89999v-3.93381c0-1.10457-.8954-2-2-2zm12.277 7.5-7.2625 4.3575c-.3167.19-.7123.19-1.029 0l-7.26248-4.3575h-.22302v8c0 .2761.22386.5.5.5h15c.2761 0 .5-.2239.5-.5v-8zm.723-2v-3.5c0-2.20914-1.7909-4-4-4h-9c-2.20914 0-4 1.79086-4 4v3.5h-.5c-.55228 0-1 .44772-1 1v9c0 1.3807 1.11929 2.5 2.5 2.5h15c1.3807 0 2.5-1.1193 2.5-2.5v-9c0-.55228-.4477-1-1-1z" fill="currentColor" fill-rule="evenodd"/></svg>