<svg fill="none" height="24" viewBox="0 0 24 24" width="24" xmlns="http://www.w3.org/2000/svg"><path clip-rule="evenodd" d="m18.0057 3.5c-1.4309 0-2.4942 1.08361-2.4942 2.30435 0 .30452.1279.72486.4185 1.24399.2827.50487.673 1.02178 1.0849 1.49784.3497.40422.7016.76372.9908 1.04338.2892-.27966.6412-.63916.9909-1.04338.4119-.47606.8022-.99297 1.0849-1.49784.2906-.51913.4185-.93947.4185-1.24399 0-1.22074-1.0633-2.30435-2.4943-2.30435zm0 7.4444c-.6434.7655-.6436.7654-.6437.7653l-.0045-.0038-.0098-.0083-.0339-.0291c-.0289-.0248-.0698-.0605-.1212-.1059-.1026-.091-.2473-.2217-.4199-.3849-.3441-.3254-.8057-.7859-1.2703-1.32292-.4617-.53359-.945-1.16403-1.3175-1.82945-.3645-.65116-.6734-1.42406-.6734-2.22098 0-2.42914 2.0655-4.30435 4.4942-4.30435 2.4288 0 4.4943 1.87521 4.4943 4.30435 0 .79692-.3089 1.56982-.6734 2.22098-.3725.66542-.8558 1.29586-1.3175 1.82945-.4646.53702-.9263.99752-1.2703 1.32292-.1726.1632-.3173.2939-.4199.3849-.0514.0454-.0923.0811-.1212.1059l-.034.0291-.0097.0083-.0031.0026-.001.0008c-.0002.0002-.0007.0006-.6442-.7649zm0 0 .6442.7649c-.372.3127-.9159.3131-1.2879.0004zm-15.52878-5.93663c.75168-.85816 1.86867-1.39666 3.10624-1.39666h5.13864c.5523 0 1 .44772 1 1 0 .55229-.4477 1-1 1h-5.13864c-.29155 0-.5675.05661-.81744.15813l13.97878 13.64716c.1456-.272.2268-.5779.2268-.8968v-4.4706c0-.5523.4477-1 1-1 .5522 0 1 .4477 1 1v4.4706c0 2.23-1.8604 3.9804-4.0832 3.9804h-11.30494c-2.22284 0-4.08316-1.7504-4.08316-3.9804v-10.9281c0-.98892.37096-1.89194.97692-2.58373zm14.51228 15.49003-5.7214-5.5857-5.77864 5.586c.03113.0012.06246.0019.094.0019h11.30494c.0339 0 .0676-.0008.1011-.0022zm-13.26115-1.079 6.10802-5.9044-6.32006-6.17014c-.01058.08106-.01601.16357-.01601.24724v10.9281c0 .3198.08164.6266.22805.8992zm14.27765-14.60452c.5523 0 1 .44771 1 1v.0635c0 .55228-.4477 1-1 1-.5522 0-1-.44772-1-1v-.0635c0-.55229.4478-1 1-1z" fill="currentColor" fill-rule="evenodd"/></svg>