<svg fill="none" height="24" viewBox="0 0 24 24" width="24" xmlns="http://www.w3.org/2000/svg"><path clip-rule="evenodd" d="m2.4455 3.16782c.27832-.18545.63091-.21949.93956-.09071l5.11748 2.13519 5.89366-2.15165c.2215-.08086.4644-.08086.6859 0l.0514.01879c.0147.00498.0293.01029.0437.01593l6.1657 2.25099c.3946.14405.6571.51932.6571.93936v13.71428c0 .3264-.1593.6323-.4268.8194s-.6095.2319-.9161.12l-5.918-2.1606-5.9179 2.1606c-.23611.0862-.49603.0803-.728-.0165l-5.47826-2.2857c-.37241-.1554-.61494-.5194-.61494-.9229v-13.7143c0-.33443.16719-.64673.4455-.83218zm13.367 13.87378 4.1875 1.5288v-11.5852l-4.1875-1.52877zm-2-11.63874-4.1875 1.52877v11.58517l4.1875-1.5288zm-6.1875 13.15754-3.625-1.5124v-11.54721l3.625 1.51247z" fill="currentColor" fill-rule="evenodd"/></svg>