<svg width="24" height="24" viewBox="0 0 24 24" fill="none" xmlns="http://www.w3.org/2000/svg">
<path fill-rule="evenodd" clip-rule="evenodd" d="M2 6.17647C2 3.86987 3.86987 2 6.17647 2H17.8235C20.1301 2 22 3.86987 22 6.17647V17.8235C22 20.1301 20.1301 22 17.8235 22H6.17647C3.86987 22 2 20.1301 2 17.8235V6.17647ZM4.31256 5.05208C4.11417 5.38024 4 5.76503 4 6.17647V10.5363L20 17.157V11.5434L4.31256 5.05208ZM7.00081 4L14.7867 7.22173L16.4674 4H7.00081ZM18.6405 4.15852L16.642 7.98944L20 9.37898V6.17647C20 5.26337 19.4377 4.48159 18.6405 4.15852ZM19.5595 19.1365C19.5371 19.129 19.5148 19.1207 19.4927 19.1115L4 12.7008V17.8235C4 19.0256 4.97444 20 6.17647 20H17.8235C18.5324 20 19.1621 19.6611 19.5595 19.1365Z" fill="white"/>
</svg>
