<svg fill="none" height="24" viewBox="0 0 24 24" width="24" xmlns="http://www.w3.org/2000/svg"><path clip-rule="evenodd" d="m2.4455 3.16782c.27832-.18545.63091-.21949.93956-.09071l5.11748 2.13519 5.89366-2.15165c.2215-.08086.4644-.08086.6859 0l6.2608 2.28571c.3946.14405.6571.51932.6571.93936v13.71428c0 .3264-.1593.6323-.4268.8194s-.6095.2319-.9161.12l-5.918-2.1606-5.9179 2.1606c-.23611.0862-.49603.0803-.728-.0165l-5.47826-2.2857c-.37241-.1554-.61494-.5194-.61494-.9229v-13.7143c0-.33443.16719-.64673.4455-.83218zm12.2936 1.89674-5.9179 2.16052c-.23611.0862-.49603.08032-.728-.01647l-4.0932-1.70782v11.54721l4.50254 1.8786 5.89366-2.1517c.2215-.0808.4644-.0808.6859 0l4.9179 1.7955v-11.5852zm.0734 1.76878c.5523 0 1 .44771 1 1v6.02376c0 .5523-.4477 1-1 1s-1-.4477-1-1v-6.02376c0-.55229.4477-1 1-1zm-6.1875 2.19047c.55228 0 1 .44772 1 .99999v6.0238c0 .5523-.44772 1-1 1s-1-.4477-1-1v-6.0238c0-.55227.44772-.99999 1-.99999z" fill="currentColor" fill-rule="evenodd"/></svg>