<svg fill="none" height="24" viewBox="0 0 24 24" width="24" xmlns="http://www.w3.org/2000/svg"><path clip-rule="evenodd" d="m11.9999 3.40002c-1.215 0-2.2.98498-2.2 2.2 0 1.21503.985 2.2 2.2 2.2s2.2-.98497 2.2-2.2c0-1.21502-.985-2.2-2.2-2.2zm-4.2 2.2c0-2.31959 1.88041-4.2 4.2-4.2 2.3196 0 4.2 1.88041 4.2 4.2 0 1.975-1.3632 3.6316-3.2 4.08023v7.91975c0 .5523-.4477 1-1 1s-1-.4477-1-1v-7.91975c-1.8368-.44863-3.2-2.10523-3.2-4.08023zm1.58607 8.12448c.09186.5446-.27516 1.0605-.81976 1.1524-1.68093.2835-3.04891.7595-3.96689 1.3164-.95885.5818-1.19942 1.0982-1.19942 1.4067 0 .204.09496.4887.4562.8446.36477.3593.94389.729 1.74019 1.0608 1.58824.6617 3.85167 1.0946 6.40361 1.0946 2.5519 0 4.8154-.4329 6.4036-1.0946.7963-.3318 1.3754-.7015 1.7402-1.0608.3612-.3559.4562-.6406.4562-.8446 0-.3085-.2406-.8249-1.1994-1.4067-.918-.5569-2.286-1.0329-3.9669-1.3164-.5446-.0919-.9116-.6078-.8198-1.1524.0919-.5446.6078-.9116 1.1524-.8198 1.8373.3099 3.4693.8492 4.6718 1.5788 1.1616.7048 2.1619 1.7463 2.1619 3.1165 0 .9007-.4423 1.6682-1.0526 2.2694-.6068.5978-1.4336 1.0901-2.3746 1.4821-1.8862.786-4.4228 1.2485-7.1728 1.2485s-5.28656-.4625-7.17284-1.2485c-.94095-.392-1.76772-.8843-2.37453-1.4821-.61033-.6012-1.05263-1.3687-1.05263-2.2694 0-1.3702 1.00033-2.4117 2.16194-3.1165 1.20246-.7296 2.83448-1.2689 4.67175-1.5788.54459-.0918 1.06053.2752 1.15238.8198z" fill="currentColor" fill-rule="evenodd"/></svg>