<svg fill="none" height="24" viewBox="0 0 24 24" width="24" xmlns="http://www.w3.org/2000/svg"><path clip-rule="evenodd" d="m11.9999 3.40002c-2.11951 0-3.8 1.67521-3.8 3.69566 0 .54457.21534 1.22075.62948 1.986.40689.75187.96203 1.51032 1.53762 2.19852.5728.6849 1.1484 1.2796 1.5822 1.7039.0171.0168.034.0333.0507.0495.0167-.0162.0336-.0327.0507-.0495.4338-.4243 1.0094-1.019 1.5822-1.7039.5756-.6882 1.1307-1.44665 1.5376-2.19852.4142-.76525.6295-1.44143.6295-1.986 0-2.02045-1.6805-3.69566-3.8-3.69566zm0 10.99998c-.6562.7546-.6563.7545-.6565.7543l-.0017-.0014-.0037-.0032-.0125-.0111-.0449-.0397c-.0383-.0342-.0933-.0836-.1625-.147-.1382-.1267-.3338-.3095-.5675-.5381-.4662-.4561-1.09056-1.1006-1.71777-1.8505-.62444-.7466-1.26929-1.6185-1.7624-2.5297-.48586-.89781-.87053-1.91728-.87053-2.93792 0-3.16623 2.61759-5.69566 5.8-5.69566 3.1824 0 5.8 2.52943 5.8 5.69566 0 1.02064-.3847 2.04011-.8705 2.93792-.4931.9112-1.138 1.7831-1.7624 2.5297-.6272.7499-1.2516 1.3944-1.7178 1.8505-.2337.2286-.4293.4114-.5675.5381-.0692.0634-.1242.1128-.1625.147l-.0449.0397-.0125.0111-.0037.0032-.0013.0011c-.0001.0001-.0007.0006-.6569-.754zm0 0 .6562.7546c-.3763.3272-.9364.3269-1.3127-.0003zm-4.43804-.3808c.15088.5313-.1575 1.0843-.68878 1.2351-1.19457.3393-2.11475.7769-2.71343 1.2384-.60871.4691-.75975.8563-.75975 1.1073 0 .204.09496.4888.4562.8446.36477.3593.94389.729 1.74019 1.0608 1.58824.6617 3.85167 1.0946 6.40361 1.0946 2.5519 0 4.8154-.4329 6.4036-1.0946.7963-.3318 1.3754-.7015 1.7402-1.0608.3612-.3558.4562-.6406.4562-.8446 0-.251-.151-.6382-.7597-1.1073-.5987-.4615-1.5189-.8991-2.7135-1.2384-.5313-.1508-.8396-.7038-.6888-1.2351.1509-.5313.7039-.8397 1.2352-.6888 1.3407.3808 2.5205.9095 3.388 1.5782.8575.6609 1.5388 1.5676 1.5388 2.6914 0 .9007-.4423 1.6682-1.0526 2.2694-.6068.5978-1.4336 1.0901-2.3746 1.4821-1.8862.786-4.4228 1.2485-7.1728 1.2485s-5.28656-.4625-7.17284-1.2485c-.94095-.392-1.76772-.8843-2.37453-1.4821-.61033-.6012-1.05263-1.3687-1.05263-2.2694 0-1.1238.6813-2.0305 1.53876-2.6914.86749-.6687 2.04731-1.1974 3.38806-1.5782.53128-.1509 1.08427.1575 1.23514.6888z" fill="currentColor" fill-rule="evenodd"/></svg>