<svg fill="none" height="24" viewBox="0 0 24 24" width="24" xmlns="http://www.w3.org/2000/svg"><path clip-rule="evenodd" d="m14.6476 3.40002c-.5522 0-1-.44771-1-1 0-.55228.4478-1 1-1h6.9518c.5523 0 1 .44772 1 1v6.95173c0 .55229-.4477 1.00005-1 1.00005s-1-.44776-1-1.00005v-4.53751l-6.4033 6.40326c-.3905.3905-1.0237.3905-1.4142 0s-.3905-1.0237 0-1.41423l6.4033-6.40325zm-3.4295 9.38258c.3905.3905.3905 1.0237 0 1.4142l-6.40325 6.4032h4.53751c.55229 0 1.00004.4477 1.00004 1s-.44775 1-1.00004 1h-6.95173c-.55228 0-1-.4477-1-1v-6.9517c0-.5523.44772-1 1-1 .55229 0 1 .4477 1 1v4.5375l6.40325-6.4032c.39052-.3906 1.02372-.3906 1.41422 0z" fill="currentColor" fill-rule="evenodd"/></svg>