<svg fill="none" height="24" viewBox="0 0 24 24" width="24" xmlns="http://www.w3.org/2000/svg"><path clip-rule="evenodd" d="m1.3999 4.53336c0-1.73049 1.40284-3.13334 3.13334-3.13334h4.26666c.55229 0 1 .44772 1 1 0 .55229-.44771 1-1 1h-4.26666c-.62593 0-1.13334.50742-1.13334 1.13334v4.26666c0 .55229-.44771 1-1 1-.55228 0-1-.44771-1-1zm12.8-2.13334c0-.55228.4477-1 1-1h4.2667c1.7305 0 3.1333 1.40285 3.1333 3.13334v4.26666c0 .55229-.4477 1-1 1s-1-.44771-1-1v-4.26666c0-.62592-.5074-1.13334-1.1333-1.13334h-4.2667c-.5523 0-1-.44771-1-1zm-11.8 11.79998c.55229 0 1 .4477 1 1v4.2667c0 .6259.50741 1.1333 1.13334 1.1333h4.26666c.55229 0 1 .4477 1 1s-.44771 1-1 1h-4.26666c-1.7305 0-3.13334-1.4028-3.13334-3.1333v-4.2667c0-.5523.44772-1 1-1zm19.2 0c.5523 0 1 .4477 1 1v4.2667c0 1.7305-1.4028 3.1333-3.1333 3.1333h-4.2667c-.5523 0-1-.4477-1-1s.4477-1 1-1h4.2667c.6259 0 1.1333-.5074 1.1333-1.1333v-4.2667c0-.5523.4477-1 1-1z" fill="currentColor" fill-rule="evenodd"/></svg>