<svg fill="none" height="24" viewBox="0 0 24 24" width="24" xmlns="http://www.w3.org/2000/svg"><path clip-rule="evenodd" d="m18.0001 1.40003c2.5405 0 4.6 2.05949 4.6 4.6v11.99997c0 2.5405-2.0595 4.6-4.6 4.6h-12.00012c-2.54051 0-4.59999-2.0595-4.59999-4.6v-11.99998c0-2.54051 2.05949-4.6 4.6-4.6h1.19882.00129.00128l4.79692.00001c.0006-.00001.0012-.00001.0018-.00001s.0012 0 .0018.00001h4.7959c.0008-.00001.0015-.00001.0023-.00001s.0015 0 .0023.00001zm-2.2 2h-2.8v2.79999h2.8zm2 2.79999v-2.79999h.2c1.4359 0 2.6 1.16406 2.6 2.6v.19999zm-4.8 2v7.59998h7.6v-7.59998zm7.6 9.59998h-2.8v2.8h.2c1.4359 0 2.6-1.164 2.6-2.6zm-4.8 2.8v-2.8h-2.8v2.8zm-4.8 0v-2.8h-2.8v2.8zm-4.8 0v-2.8h-2.80011v.2c0 1.436 1.16405 2.6 2.59999 2.6zm-2.80011-4.8h7.60011v-7.59998h-7.60011zm0-9.59998h2.80011v-2.8h-.20011c-1.43594 0-2.6 1.16406-2.6 2.6zm4.80011-2.8v2.8h2.8v-2.79999z" fill="currentColor" fill-rule="evenodd"/></svg>