<svg fill="none" height="24" viewBox="0 0 24 24" width="24" xmlns="http://www.w3.org/2000/svg"><path clip-rule="evenodd" d="m4.3999 3.40002c-.55228 0-1 .44772-1 1v10.19128c0 .5523.44772 1 1 1h2.27826c.55229 0 1 .4477 1 1v2.5945l3.30164-3.3016c.1875-.1875.4418-.2929.7071-.2929h7.913c.5523 0 1-.4477 1-1v-10.19128c0-.55228-.4477-1-1-1zm-3 1c0-1.65685 1.34315-3 3-3h15.2c1.6569 0 3 1.34315 3 3v10.19128c0 1.6569-1.3431 3-3 3h-7.4988l-4.71583 4.7158c-.286.286-.71612.3716-1.08979.2168-.37368-.1548-.61732-.5194-.61732-.9239v-4.0087h-1.27826c-1.65685 0-3-1.3431-3-3z" fill="currentColor" fill-rule="evenodd"/></svg>