<svg fill="none" height="24" viewBox="0 0 24 24" width="24" xmlns="http://www.w3.org/2000/svg"><path clip-rule="evenodd" d="m17.9992 2.80005c-1.436 0-2.6 1.16406-2.6 2.6s1.164 2.6 2.6 2.6c1.4359 0 2.6-1.16406 2.6-2.6s-1.1641-2.6-2.6-2.6zm-4.6 2.6c0-2.54051 2.0595-4.600001 4.6-4.600001s4.6 2.059491 4.6 4.600001-2.0595 4.59995-4.6 4.59995-4.6-2.05944-4.6-4.59995zm-2.2176-2.4179c.103.54261-.2535 1.06592-.7961 1.16885-3.97829.75467-6.98633 4.25165-6.98633 8.449 0 4.7497 3.85035 8.6001 8.60003 8.6001 1.5309 0 2.9655-.3992 4.2087-1.0983.2227-.1252.4848-.1605.7327-.0985l3.4601.865-.607-4.2489c-.0265-.1854-.0003-.3745.0754-.5457.469-1.061.7301-2.2355.7301-3.4737 0-.5522.4477-1 1-1s1 .4478 1 1c0 1.4183-.2791 2.7738-.7861 4.0126l.7778 5.4451c.0471.3296-.0729.661-.3202.884-.2472.223-.5892.3083-.9122.2276l-4.528-1.132c-1.4497.7435-3.0929 1.1628-4.8313 1.1628-5.85425 0-10.60003-4.7458-10.60003-10.6001 0-5.17595 3.70886-9.48355 8.61363-10.41396.5426-.10293 1.0659.25351 1.1688.79611z" fill="currentColor" fill-rule="evenodd"/></svg>