<svg fill="none" height="24" viewBox="0 0 24 24" width="24" xmlns="http://www.w3.org/2000/svg"><path clip-rule="evenodd" d="m6.03144 10.3305c.61665-.2141 1.27905-.3305 1.96863-.3305 3.31333 0 5.99913 2.6865 5.99913 6 0 .6895-.1163 1.3518-.3303 1.9684.9947-.0942 1.9273-.3964 2.7555-.8622.2227-.1253.4849-.1605.7327-.0985l2.6427.6607-.4708-3.2954c-.0264-.1853-.0003-.3744.0754-.5457.3816-.8633.5941-1.8192.5941-2.8273 0-3.86607-3.1338-7-6.9993-7-3.63978 0-6.63077 2.77851-6.96776 6.3305zm6.52876 9.5683c-1.1003 1.286-2.73498 2.1012-4.56013 2.1012-.9182 0-1.7903-.207-2.5702-.5773l-2.18728.547c-.32301.0807-.66503-.0046-.91229-.2276-.24726-.2229-.36732-.5544-.32024-.884l.38709-2.7101c-.25616-.668-.39619-1.3927-.39619-2.148 0-1.8251.81478-3.4599 2.10044-4.5604-.06504-.1327-.10156-.2819-.10156-.4396 0-4.97048 4.02906-9 8.99936-9 4.9702 0 8.9993 4.02952 8.9993 9 0 1.1879-.2306 2.3242-.6503 3.3648l.6418 4.493c.047.3296-.073.6611-.3203.884-.2472.223-.5892.3083-.9122.2276l-3.7126-.9282c-1.2171.6135-2.5924.9588-4.0457.9588-.1575 0-.3065-.0364-.439-.1012zm-4.56013-7.8988c-2.20848 0-3.99911 1.7907-3.99911 4 0 .5769.12148 1.1227.33929 1.6155.0757.1712.1018.3603.07532.5457l-.21531 1.5074 1.11033-.2776c.24789-.062.51011-.0267.73282.0985.5775.3249 1.2439.5105 1.95666.5105 2.20843 0 3.99913-1.7907 3.99913-4s-1.7907-4-3.99913-4z" fill="currentColor" fill-rule="evenodd"/></svg>