<svg fill="none" height="24" viewBox="0 0 24 24" width="24" xmlns="http://www.w3.org/2000/svg"><path clip-rule="evenodd" d="m4.7999 3.40002c-.7732 0-1.4.62681-1.4 1.40001v9.39127c0 .7732.6268 1.4 1.4 1.4h1.87826c.55229 0 1 .4477 1 1v2.5945l3.30164-3.3016c.1875-.1875.4418-.2929.7071-.2929h7.513c.7732 0 1.4-.6268 1.4-1.4v-9.39128c0-.77319-.6268-1.4-1.4-1.4zm-3.4 1.40001c0-1.87777 1.52223-3.40001 3.4-3.40001h14.4c1.8778 0 3.4 1.52224 3.4 3.4v9.39128c0 1.8778-1.5222 3.4-3.4 3.4h-7.0988l-4.71583 4.7158c-.286.286-.71612.3716-1.08979.2168-.37368-.1548-.61732-.5194-.61732-.9239v-4.0087h-.87826c-1.87776 0-3.4-1.5222-3.4-3.4zm7.49289 1.69289c.39053-.39053 1.02369-.39053 1.41421 0l1.6929 1.69289 1.6929-1.69289c.3905-.39053 1.0237-.39053 1.4142 0 .3905.39052.3905 1.02369 0 1.41421l-1.6929 1.69289 1.6929 1.69288c.3905.3905.3905 1.0237 0 1.4142-.3905.3906-1.0237.3906-1.4142 0l-1.6929-1.6929-1.6929 1.6929c-.39052.3906-1.02368.3906-1.41421 0-.39052-.3905-.39052-1.0237 0-1.4142l1.69291-1.69288-1.69291-1.69289c-.39052-.39052-.39052-1.02369 0-1.41421z" fill="currentColor" fill-rule="evenodd"/></svg>