<svg fill="none" height="24" viewBox="0 0 24 24" width="24" xmlns="http://www.w3.org/2000/svg"><path clip-rule="evenodd" d="m11.9991 4c-4.41767 0-7.9991 3.58163-7.9991 8 0 4.4184 3.58143 8 7.9991 8 1.4241 0 2.7584-.3713 3.9146-1.0216.2227-.1252.4849-.1605.7328-.0985l3.1532.7884-.5558-3.8913c-.0265-.1854-.0004-.3745.0753-.5457.4363-.9869.6791-2.0794.6791-3.2313 0-4.41837-3.5814-8-7.9992-8zm-9.9991 8c0-5.52276 4.47668-10 9.9991-10 5.5225 0 9.9992 4.47724 9.9992 10 0 1.3319-.2609 2.6052-.7351 3.7697l.7268 5.088c.047.3296-.073.6611-.3203.8841-.2472.2229-.5892.3082-.9123.2275l-4.2217-1.0556c-1.3625.6948-2.9051 1.0863-4.5366 1.0863-5.52242 0-9.9991-4.4772-9.9991-10zm9.9991-3.25c.5523 0 1 .44772 1 1v1.25h1.2498c.5523 0 1 .4477 1 1s-.4477 1-1 1h-1.2498v1.25c0 .5523-.4477 1-1 1-.5522 0-1-.4477-1-1v-1.25h-1.24974c-.55228 0-1-.4477-1-1s.44772-1 1-1h1.24974v-1.25c0-.55228.4478-1 1-1z" fill="currentColor" fill-rule="evenodd"/></svg>