<svg fill="none" height="24" viewBox="0 0 24 24" width="24" xmlns="http://www.w3.org/2000/svg"><path clip-rule="evenodd" d="m11.9992 3.40002c-4.74968 0-8.60003 3.85036-8.60003 8.59998 0 4.7497 3.85035 8.6 8.60003 8.6 1.5309 0 2.9655-.3991 4.2087-1.0982.2227-.1253.4848-.1605.7327-.0986l3.4601.8651-.607-4.2489c-.0265-.1854-.0003-.3745.0754-.5458.469-1.061.7301-2.2355.7301-3.4736 0-4.74962-3.8504-8.59998-8.6-8.59998zm-10.60003 8.59998c0-5.85419 4.74578-10.59998 10.60003-10.59998 5.8542 0 10.6 4.74579 10.6 10.59998 0 1.4183-.2791 2.7737-.7861 4.0126l.7778 5.4451c.0471.3296-.0729.661-.3202.884-.2472.223-.5892.3083-.9122.2276l-4.528-1.132c-1.4497.7435-3.0929 1.1627-4.8313 1.1627-5.85425 0-10.60003-4.7458-10.60003-10.6zm6-3.59998c0-.55228.44771-1 1-1h7.20003c.5523 0 1 .44772 1 1 0 .55229-.4477 1-1 1h-7.20003c-.55229 0-1-.44771-1-1zm0 4.79998c0-.5523.44771-1 1-1h4.20003c.5523 0 1 .4477 1 1s-.4477 1-1 1h-4.20003c-.55229 0-1-.4477-1-1z" fill="currentColor" fill-rule="evenodd"/></svg>