<svg fill="none" height="24" viewBox="0 0 24 24" width="24" xmlns="http://www.w3.org/2000/svg"><path clip-rule="evenodd" d="m5 5c-.55228 0-1 .44772-1 1v7.8261c0 .5523.44772 1 1 1h1.56522c.55228 0 1 .4477 1 1v1.7597l2.43478-2.4348v-2.151c0-1.6569 1.3431-3 3-3h5v-4c0-.55228-.4477-1-1-1zm15 5.1707v-4.1707c0-1.65685-1.3431-3-3-3h-12c-1.65686 0-3 1.34315-3 3v7.8261c0 1.6568 1.34315 3 3 3h.56522v3.1739c0 .4045.24364.7691.61731.9239.37368.1548.8038.0692 1.08979-.2168l3.02078-3.0208c.4834 1.0085 1.5138 1.705 2.7069 1.705h2.7488l2.3158 2.3158c.286.286.7161.3716 1.0898.2168s.6173-.5194.6173-.9239v-1.7089c1.2829-.3405 2.2283-1.5098 2.2283-2.8998v-3.3913c0-1.3062-.8348-2.4175-2-2.8293zm-8 6.2206c0 .5523.4477 1 1 1h3.163c.2653 0 .5196.1054.7071.2929l.9016.9016v-.1945c0-.5523.4478-1 1-1h.2283c.5523 0 1-.4477 1-1v-3.3913c0-.5523-.4477-1-1-1h-6c-.5523 0-1 .4477-1 1z" fill="currentColor" fill-rule="evenodd"/></svg>