<svg fill="none" height="24" viewBox="0 0 24 24" width="24" xmlns="http://www.w3.org/2000/svg"><path clip-rule="evenodd" d="m22.3064 1.69304c.3905.39052.3905 1.02369 0 1.41421l-6.4033 6.40325h4.5375c.5523 0 1 .44771 1 1 0 .5523-.4477 1-1 1h-6.9517c-.5523 0-1-.4477-1-1v-6.95173c0-.55229.4477-1 1-1s1 .44771 1 1v4.53751l6.4033-6.40324c.3905-.39052 1.0236-.39052 1.4142 0zm-19.74714 11.79656c0-.5523.44771-1 1-1h6.95174c.5523 0 1 .4477 1 1v6.9517c0 .5523-.4477 1-1 1s-1.00002-.4477-1.00002-1l.00001-4.5375-6.40325 6.4033c-.39052.3905-1.02369.3905-1.41421 0-.39053-.3906-.39053-1.0237 0-1.4143l6.40324-6.4032h-4.53751c-.55229 0-1-.4477-1-1z" fill="currentColor" fill-rule="evenodd"/></svg>