<svg fill="none" height="24" viewBox="0 0 24 24" width="24" xmlns="http://www.w3.org/2000/svg"><path clip-rule="evenodd" d="m14.1001 1.10022c.5523 0 1 .44771 1 1v.8h.8c.5523 0 1 .44771 1 1 0 .55228-.4477 1-1 1h-.8v.8c0 .55228-.4477 1-1 1s-1-.44772-1-1v-.8h-.8c-.5523 0-1-.44772-1-1 0-.55229.4477-1 1-1h.8v-.8c0-.55229.4477-1 1-1zm-4.334.89285c.2609.26086.357.64417.2499.99724-.24516.80891-.37737 1.66808-.37737 2.55994 0 4.86575 3.94447 8.81015 8.81017 8.81015.8922 0 1.7518-.1323 2.561-.3777.353-.1071.7364-.0111.9973.2498.2609.2608.3569.6442.2499.9972-1.3452 4.4379-5.4672 7.6701-10.3467 7.6701-5.97033 0-10.8102-4.8399-10.8102-10.8102 0-4.87903 3.23153-9.00069 7.66873-10.34634.35305-.10707.73638-.01105.99727.24981zm-2.06101 2.35251c-2.74377 1.49315-4.60499 4.40216-4.60499 7.74402 0 4.8657 3.94444 8.8102 8.8102 8.8102 3.3422 0 6.2515-1.8617 7.7445-4.606-.3961.044-.7986.0666-1.206.0666-5.9703 0-10.81017-4.8399-10.81017-10.81015 0-.40698.02254-.80894.06646-1.20467zm11.19501.35464c.5523 0 1 .44771 1 1v2h2c.5523 0 1 .44771 1 1 0 .55228-.4477 1-1 1h-2v1.99998c0 .5523-.4477 1-1 1s-1-.4477-1-1v-1.99998h-2c-.5523 0-1-.44772-1-1 0-.55229.4477-1 1-1h2v-2c0-.55229.4477-1 1-1z" fill="currentColor" fill-rule="evenodd"/></svg>