<svg fill="none" height="24" viewBox="0 0 24 24" width="24" xmlns="http://www.w3.org/2000/svg"><path clip-rule="evenodd" d="m12.9551 1.57196c.2748-.18603.624-.22364.932-.10041l5.0529 2.02115c.5128.20511.7622.78708.5571 1.29987-.2051.51278-.7871.7622-1.2999.55708l-3.6814-1.47259v12.14314c.0003.0147.0003.0294 0 .044v1.4944c-.0003 1.11-.3668 2.189-1.0426 3.0695-.6759.8804-1.6234 1.5132-2.6955 1.8003-1.07219.2871-2.20912.2124-3.2345-.2125-1.02539-.4249-1.88192-1.1762-2.43678-2.1375s-.77704-2.0788-.63207-3.1792c.14497-1.1005.64898-2.1223 1.43386-2.9071.78489-.7848 1.80679-1.2887 2.90723-1.4335 1.0891-.1434 2.19486.0729 3.14936.6153.1779.0905.3777.2315.5436.3567.0024.0018.0049.0037.0074.0055v-11.13607c0-.33182.1646-.64204.4393-.82807zm-.4393 14.73214c-.1267-.1813-.3629-.4449-.6813-.7347-.1887-.1718-.3763-.3258-.5308-.4424-.1242-.0937-.1977-.1409-.2236-.1575-.0111-.0072-.0135-.0087-.0071-.0057-.0267-.0125-.0529-.026-.0784-.0408-.58-.3348-1.2542-.4689-1.91816-.3815-.66396.0873-1.28053.3914-1.75409.8649-.47357.4735-.77766 1.09-.86513 1.754-.08747.6639.04658 1.3382.38136 1.9182s.85157 1.0333 1.47024 1.2897c.61868.2563 1.30465.3014 1.95158.1282.6469-.1732 1.2185-.555 1.6263-1.0863.4077-.5311.6289-1.182.6291-1.8516 0 0 0 .0001 0 0z" fill="currentColor" fill-rule="evenodd"/></svg>