<svg fill="none" height="24" viewBox="0 0 24 24" width="24" xmlns="http://www.w3.org/2000/svg"><path clip-rule="evenodd" d="m6.375 4c-1.31168 0-2.375 1.06332-2.375 2.37498v11.25002c0 1.3117 1.06332 2.375 2.375 2.375h11.25c1.3117 0 2.375-1.0633 2.375-2.375v-5.0626c0-.5522.4477-1 1-1s1 .4478 1 1v5.0626c0 2.4163-1.9588 4.375-4.375 4.375h-11.25c-2.41624 0-4.375-1.9587-4.375-4.375v-11.25002c0-2.41624 1.95876-4.37498 4.375-4.37498h4.5c.5523 0 1 .44772 1 1s-.4477 1-1 1zm11.8125 0c-1.001 0-1.8125.81148-1.8125 1.81248 0 1.00101.8115 1.81249 1.8125 1.81249s1.8125-.81148 1.8125-1.81249c0-1.001-.8115-1.81248-1.8125-1.81248zm-3.8125 1.81248c0-2.10558 1.7069-3.81248 3.8125-3.81248s3.8125 1.7069 3.8125 3.81248c0 2.10559-1.7069 3.81249-3.8125 3.81249s-3.8125-1.7069-3.8125-3.81249z" fill="currentColor" fill-rule="evenodd"/></svg>