<svg fill="none" height="24" viewBox="0 0 24 24" width="24" xmlns="http://www.w3.org/2000/svg"><path clip-rule="evenodd" d="m12.0931 5c-4.1195 0-7.0931 2.68438-7.0931 5.5882 0 2.9039 2.9736 5.5883 7.0931 5.5883.6299 0 1.2392-.065 1.8182-.1863.3302-.0692.6731.0328.9118.2712l1.3282 1.3265v-1.8232c0-.332.1648-.6424.4399-.8284 1.2056-.8152 2.1261-2.0139 2.4429-3.1953.1431-.5335.6915-.8499 1.2249-.7069.5335.1431.8499.6915.7069 1.2249-.42 1.5661-1.4936 2.9968-2.8146 4.0161v3.7249c0 .4043-.2435.7689-.617.9238-.3735.1548-.8035.0695-1.0896-.2162l-2.6645-2.6611c-.5474.0854-1.1114.13-1.6871.13-4.81987 0-9.0931-3.215-9.0931-7.5883 0-4.37328 4.27323-7.5882 9.0931-7.5882.3763 0 .7477.01904 1.1127.05608.5494.05578.9496.54642.8939 1.09588-.0558.54946-.5465.94967-1.0959.8939-.2979-.03024-.6018-.04586-.9107-.04586zm5.4069 1c-.8284 0-1.5.67157-1.5 1.5s.6716 1.5 1.5 1.5 1.5-.67157 1.5-1.5-.6716-1.5-1.5-1.5zm-3.5 1.5c0-1.933 1.567-3.5 3.5-3.5s3.5 1.567 3.5 3.5-1.567 3.5-3.5 3.5-3.5-1.567-3.5-3.5z" fill="currentColor" fill-rule="evenodd"/></svg>