<svg fill="none" height="24" viewBox="0 0 24 24" width="24" xmlns="http://www.w3.org/2000/svg"><path clip-rule="evenodd" d="m11.4999 1.534c.3094-.17863.6906-.17863 1 0l8.3138 4.8c.3094.17863.5.50876.5.86602v9.59998c0 .3573-.1906.6874-.5.866l-8.3138 4.8c-.3094.1787-.6906.1787-1 0l-8.31386-4.8c-.30941-.1786-.5-.5087-.5-.866v-9.59998c0-.35726.19059-.68739.5-.86602zm-6.81386 6.24337v8.44533l7.31386 4.2226 7.3138-4.2226v-8.44533l-7.3138-4.22265zm2.2457 1.92631c.27401-.47951.88486-.64611 1.36438-.3721l3.70388 2.11652 3.7038-2.11652c.4796-.27401 1.0904-.10741 1.3644.3721.274.47952.1074 1.09042-.3721 1.36442l-3.6961 2.112v2.9154c0 .5523-.4477 1-1 1s-1-.4477-1-1v-2.9154l-3.69616-2.112c-.47952-.274-.64611-.8849-.3721-1.36442z" fill="currentColor" fill-rule="evenodd"/></svg>