<svg fill="none" height="24" viewBox="0 0 24 24" width="24" xmlns="http://www.w3.org/2000/svg"><path clip-rule="evenodd" d="m11.0074 1.534c.3094-.17863.6906-.17863 1 0l8.3139 4.8c.3094.17863.5.50876.5.86602v4.79998c0 .5523-.4477 1-1 1s-1-.4477-1-1v-2.95803l-6.3139 4.10093v6.7251l.2995-.1729c.4783-.2762 1.0899-.1123 1.366.366.2762.4783.1123 1.0899-.366 1.366l-1.7995 1.0389c-.3094.1787-.6906.1787-1 0l-8.3138-4.8c-.3094-.1786-.5-.5087-.5-.866v-9.59998c0-.35726.1906-.68739.5-.86602l3.94475-2.2775c.10508-.09464.22772-.16441.35873-.20711zm-3.69543 4.44299-2.40374 1.3878 6.58477 4.05221 2.2666-1.47223zm8.30423 2.76191-6.33535-3.89865 2.22655-1.28553 6.4008 3.69548zm-5.1088 4.4199-6.3138-3.88542v6.94932l6.3138 3.6453zm7.5994.8412c.5523 0 1 .4477 1 1v1.7h1.6996c.5523 0 1 .4477 1 1s-.4477 1-1 1h-1.6996v1.7c0 .5523-.4477 1-1 1s-1-.4477-1-1v-1.7h-1.7004c-.5523 0-1-.4477-1-1s.4477-1 1-1h1.7004v-1.7c0-.5523.4477-1 1-1z" fill="currentColor" fill-rule="evenodd"/></svg>