<svg fill="none" height="24" viewBox="0 0 24 24" width="24" xmlns="http://www.w3.org/2000/svg"><path clip-rule="evenodd" d="m10.2427 1.69292c.3906-.39053 1.0237-.39053 1.4143 0l8.8881 8.88818c.1246.1246.2289.2634.3121.4116.4721.5876.7186 1.2965.7393 2.0106.0002.0062.0003.0125.0004.0188.0209.8887-.3078 1.7838-.9861 2.4621l-6.1287 6.1287c-1.3162 1.3162-3.45 1.3162-4.76618 0l-6.12872-6.1287c-.67962-.6796-1.0083-1.5773-.98604-2.4678.00006-.0026.00013-.0052.0002-.0077.02268-.8315.35129-1.6561.98584-2.2906.08317-.0832 2.0676-2.03142 4.02195-3.94976l3.17675-3.118-.5432-.54321c-.39048-.39052-.39048-1.02369 0-1.41421zm1.9575 3.37169-3.19004 3.13103c-.97921.96116-1.9633 1.92716-2.71241 2.66276l-1.2021 1.181h14.05185c-.0106-.0188-.0206-.038-.0299-.0574zm7.0261 8.97479h-14.25458c.00971.0103.0196.0205.02969.0306l-.7071.7071m14.93199-.7377c-.0097.0103-.0196.0205-.0297.0306l-6.1287 6.1287c-.5351.5351-1.4027.5351-1.9378 0l-6.12869-6.1287" fill="currentColor" fill-rule="evenodd"/></svg>