<svg fill="none" height="24" viewBox="0 0 24 24" width="24" xmlns="http://www.w3.org/2000/svg"><path clip-rule="evenodd" d="m5 7.71428c0-2.80087 2.27056-5.07143 5.0714-5.07143 2.8009 0 5.0715 2.27056 5.0715 5.07143v6.21432c0 1.7357-1.4071 3.1428-3.1429 3.1428s-3.14286-1.4071-3.14286-3.1428v-6.00003c0-.55229.44772-1 1-1 .55226 0 .99996.44771.99996 1v6.00003c0 .6311.5117 1.1428 1.1429 1.1428s1.1429-.5117 1.1429-1.1428v-6.21432c0-1.6963-1.3752-3.07143-3.0715-3.07143-1.69627 0-3.0714 1.37513-3.0714 3.07143v6.64282c0 2.7615 2.23858 5 5 5 2.7614 0 5-2.2385 5-5v-6.42853c0-.55229.4477-1 1-1s1 .44771 1 1v6.42853c0 3.866-3.134 7-7 7-3.86599 0-7-3.134-7-7z" fill="currentColor" fill-rule="evenodd"/></svg>