<svg fill="none" height="24" viewBox="0 0 24 24" width="24" xmlns="http://www.w3.org/2000/svg"><path clip-rule="evenodd" d="m14.0766 4.87572-7.91982 7.91978c-1.64244 1.6425-1.74033 3.7831-.28675 5.2367 1.50838 1.5084 3.74867 1.3969 5.33447-.1889l7.0455-7.0455c.3905-.3905 1.0237-.3905 1.4142 0 .3905.3906.3905 1.0237 0 1.4143l-7.0455 7.0454c-2.2494 2.2494-5.76096 2.5908-8.16288.1889-2.38167-2.3816-1.9811-5.7972.28675-8.0651l7.91983-7.91979c1.6026-1.60264 4.1872-1.60264 5.7898 0 1.6027 1.60264 1.6027 4.1872 0 5.78984l-8.0589 8.05885c-.99462.9947-2.60731.9947-3.60198 0-.99467-.9946-.99467-2.6073 0-3.602l7.18448-7.1845c.3906-.39052 1.0237-.39052 1.4142 0 .3906.39052.3906 1.02369 0 1.41421l-7.18447 7.18449c-.21362.2137-.21362.56 0 .7736.21363.2137.55998.2137.7736 0l8.05887-8.05886c.8216-.82159.8216-2.13982 0-2.96142-.8216-.82159-2.1398-.82159-2.9614 0z" fill="currentColor" fill-rule="evenodd"/></svg>