<svg fill="none" height="24" viewBox="0 0 24 24" width="24" xmlns="http://www.w3.org/2000/svg"><path clip-rule="evenodd" d="m1.3999 6.0358c0-1.73049 1.40284-3.13333 3.13334-3.13333h14.93336c1.7305 0 3.1333 1.40284 3.1333 3.13333v3.26667c0 .55228-.4477 1.00003-1 1.00003s-1-.44775-1-1.00003v-3.26667c0-.62592-.5074-1.13333-1.1333-1.13333h-14.93336c-.62593 0-1.13334.50741-1.13334 1.13333v6.5333c0 .626.50741 1.1334 1.13334 1.1334h6.86666c.5523 0 1 .4477 1 1s-.4477 1-1 1h-6.86666c-1.7305 0-3.13334-1.4029-3.13334-3.1334zm4.12889 3.26667c0-.55229.44772-1 1-1h.14003c.55228 0 1 .44771 1 1 0 .55228-.44772 1.00003-1 1.00003h-.14003c-.55228 0-1-.44775-1-1.00003zm5.47111 0c0-.55229.4477-1 1-1h.14c.5523 0 1 .44771 1 1 0 .55228-.4477 1.00003-1 1.00003h-.14c-.5523 0-1-.44775-1-1.00003zm5.3295 0c0-.55229.4477-1 1-1h.14c.5523 0 1 .44771 1 1 0 .55228-.4477 1.00003-1 1.00003h-.14c-.5523 0-1-.44775-1-1.00003zm3.2444 4.49453c-.7319-.366-1.5935-.366-2.3255-.0001l-.8372.4187v2.7269c0 .0591.0444.3014.4924.7623.3427.3525.8431.7521 1.5126 1.2028.6905-.4481 1.1847-.8022 1.5244-1.1308.3949-.382.4706-.6231.4706-.8343v-2.7269zm-3.2199-1.7889c1.295-.6475 2.8194-.6475 4.1144 0l1.39.695c.3388.1694.5528.5157.5528.8944v3.345c0 .9439-.4581 1.6702-1.0801 2.2718-.5947.5752-1.4336 1.1273-2.3859 1.7287-.3262.206-.7418.206-1.068 0-.9915-.6261-1.8183-1.2379-2.4077-1.8442-.5689-.5853-1.0583-1.3103-1.0583-2.1563v-3.345c0-.3787.214-.725.5528-.8944z" fill="currentColor" fill-rule="evenodd"/></svg>