<svg fill="none" height="24" viewBox="0 0 24 24" width="24" xmlns="http://www.w3.org/2000/svg"><path clip-rule="evenodd" d="m23.1628 1.76181c.2363.23182.3425.56552.2838.89126l-2.1847 12.11473c-.1875 1.04-.9374 1.8897-1.9461 2.2049l-5.2649 1.6452c-.0683.454-.2773.8908-.6268 1.2403l-2.1656 2.1657c-.869.8689-2.27782.8689-3.14677 0l-5.19757-5.1976c-.86895-.8689-.86895-2.2778 0-3.1467l2.16566-2.1657c.35619-.3562.80311-.5663 1.26637-.6305l1.83115-5.16054c.33401-.94132 1.13832-1.6377 2.11776-1.83359l11.9712-2.39425c.3246-.06491.6602.03498.8965.26679zm-14.92291 9.76549 5.18421 5.1842c.0018.0018.0035.0035.0053.0053l5.2898-1.6531c.2978-.093.5191-.3438.5745-.6508l1.6179-8.97228-2.9863 2.98629c.6995 1.30569.4985 2.96659-.603 4.06809-1.3474 1.3474-3.5319 1.3474-4.8793 0-1.3473-1.3474-1.3473-3.53187 0-4.87924 1.1015-1.10148 2.7625-1.3025 4.0681-.60306l2.9088-2.90879-8.7326 1.74652c-.2891.05782-.5265.26339-.6251.54125zm7.66821-2.49733c-.5663-.56632-1.4845-.56632-2.0509 0-.5663.56632-.5663 1.48453 0 2.05083.5664.5663 1.4846.5663 2.0509 0s.5663-1.48451 0-2.05083zm-9.09576 3.89813c-.0879-.0879-.23041-.0879-.31831 0l-2.16565 2.1657c-.0879.0879-.0879.2304 0 .3183l5.19756 5.1976c.0879.0879.23041.0879.31831 0l2.16565-2.1657c.0879-.0879.0879-.2304 0-.3183z" fill="currentColor" fill-rule="evenodd"/></svg>