<svg fill="none" height="24" viewBox="0 0 24 24" width="24" xmlns="http://www.w3.org/2000/svg"><path clip-rule="evenodd" d="m16.7439 4.05705-10.81545 11.19325 3.04228 2.6076 10.97217-10.60186c.8779-.88381.876-2.31194-.0055-3.19348s-2.3097-.88338-3.1935-.00551zm-9.42147 15.02215-3.43103 1.0294.94743-3.1582zm8.00177-16.43086c1.6644-1.664419 4.363-1.664424 6.0274 0 1.6644 1.66443 1.6644 4.36299 0 6.02742l-.0122.01203-12.2446 11.83141c-.11484.1109-.25458.1928-.40753.2387l-5.99999 1.8c-.35237.1057-.73433.0094-.99446-.2508-.26013-.2601-.35643-.6421-.25072-.9944l1.8-6c.04589-.153.12773-.2927.23869-.4075l11.83141-12.24462zm-4.3243 19.55166c0-.5523.4477-1 1-1h9.6c.5523 0 1 .4477 1 1s-.4477 1-1 1h-9.6c-.5523 0-1-.4477-1-1z" fill="currentColor" fill-rule="evenodd"/></svg>