<svg fill="none" height="24" viewBox="0 0 24 24" width="24" xmlns="http://www.w3.org/2000/svg"><path clip-rule="evenodd" d="m17.5662 5c-.769 0-1.3855.61982-1.3855 1.37586 0 .75603.6165 1.37585 1.3855 1.37585.7691 0 1.3856-.61981 1.3856-1.37585s-.6165-1.37586-1.3856-1.37586zm-3.3855 1.37586c0-1.86826 1.5196-3.37586 3.3855-3.37586 1.866 0 3.3856 1.5076 3.3856 3.37586s-1.5196 3.37585-3.3856 3.37585c-1.8659 0-3.3855-1.50759-3.3855-3.37585zm-10.88924-3.01665c.38973-.39132 1.02289-.39261 1.41421-.00288l16.00003 15.93517c.3913.3897.3926 1.0229.0028 1.4142-.3897.3913-1.0229.3926-1.4142.0028l-15.99997-15.93508c-.39132-.38973-.3926-1.0229-.00287-1.41421zm3.1423 12.72809c-.76904 0-1.38552.6199-1.38552 1.3759s.61648 1.3758 1.38552 1.3758c.76905 0 1.38553-.6198 1.38553-1.3758s-.61648-1.3759-1.38553-1.3759zm-3.38552 1.3759c0-1.8683 1.51958-3.3759 3.38552-3.3759 1.86595 0 3.38553 1.5076 3.38553 3.3759 0 1.8682-1.51958 3.3758-3.38553 3.3758-1.86594 0-3.38552-1.5076-3.38552-3.3758z" fill="currentColor" fill-rule="evenodd"/></svg>