<svg fill="none" height="24" viewBox="0 0 24 24" width="24" xmlns="http://www.w3.org/2000/svg"><path clip-rule="evenodd" d="m12.578 5.259c-.3522-.34533-.9313-.34533-1.2835 0-.3413.33452-.3413.86855 0 1.20308.3522.34533.9313.34533 1.2835 0 .3412-.33453.3412-.86856 0-1.20308zm-2.68372-1.42812c1.12992-1.10784 2.95392-1.10784 4.08392 0 1.1409 1.11865 1.1409 2.94067 0 4.05932-1.13 1.10784-2.954 1.10784-4.08392 0-1.14098-1.11865-1.14097-2.94068 0-4.05932zm-6.89428 7.23162h18c.5523 0 1 .4477 1 1s-.4477 1-1 1h-18c-.55228 0-1-.4477-1-1s.44772-1 1-1zm9.578 6.4754c-.3522-.3453-.9313-.3453-1.2835 0-.3413.3345-.3413.8686 0 1.2031.3522.3453.9313.3453 1.2835 0 .3412-.3345.3412-.8686 0-1.2031zm-2.68372-1.4281c1.12992-1.1078 2.95392-1.1078 4.08392 0 1.1409 1.1186 1.1409 2.9407 0 4.0593-1.13 1.1079-2.954 1.1079-4.08392 0-1.14097-1.1186-1.14097-2.9407 0-4.0593z" fill="currentColor" fill-rule="evenodd"/></svg>