<svg fill="none" height="24" viewBox="0 0 24 24" width="24" xmlns="http://www.w3.org/2000/svg"><path clip-rule="evenodd" d="m11.9999 3.39999c-4.74965 0-8.6 3.85035-8.6 8.60001 0 4.7496 3.85035 8.6 8.6 8.6 4.7497 0 8.6-3.8504 8.6-8.6 0-4.74966-3.8503-8.60001-8.6-8.60001zm-10.6 8.60001c0-5.85423 4.74578-10.60001 10.6-10.60001 5.8542 0 10.6 4.74578 10.6 10.60001 0 5.8542-4.7458 10.6-10.6 10.6-5.85422 0-10.6-4.7458-10.6-10.6zm6.29146-4.27648c.38973-.39132 1.02289-.3926 1.41421-.00287l7.20003 7.17085c.3913.3897.3926 1.0228.0028 1.4142-.3897.3913-1.0229.3926-1.4142.0028l-7.19997-7.17077c-.39131-.38973-.3926-1.02289-.00287-1.41421zm7.30854.23429c.5523 0 1 .44771 1 1v.04218c0 .55229-.4477 1-1 1s-1-.44771-1-1v-.04218c0-.55229.4477-1 1-1zm-6 6.04219c.55229 0 1 .4477 1 1v.0422c0 .5523-.44771 1-1 1-.55228 0-1-.4477-1-1v-.0422c0-.5523.44772-1 1-1z" fill="currentColor" fill-rule="evenodd"/></svg>