<svg fill="none" height="24" viewBox="0 0 24 24" width="24" xmlns="http://www.w3.org/2000/svg"><g fill="currentColor"><path clip-rule="evenodd" d="m5.39691 1.83415c.69294.00317 1.17368.40931 1.38606.62126l.00236.00236c.30192.2822.58568.57063.87094.86463l.0131.01349c.06559.06744.13274.13551.20328.20702.07256.07355.14868.1507.22527.22946l1.28094 1.27832.00807.00809c.34163.34338.66007.8204.66007 1.42849 0 .60808-.31844 1.08511-.66007 1.42849l-.00807.00809c-.11604.1158-.2658.26974-.40662.40592-.08826.09021-.1469.15054-.17815.18235-.0271.02759-.07512.07716-.13525.12641-.01292.01058-.02383.01908-.02914.0232-.00851.00661-.00539.00416-.00938.00727-.00121.00095-.00501.00391-.01424.01158-.01975.0164-.06197.05238-.14693.12816-.00007.00007-.00013.00014-.0002.0002l-.00356.00357c-.00427.00427-.00805.0082-.01137.01178.00267.01032.0063.02311.01124.03902.28569.68129.6933 1.34919 1.34973 2.18389.0052.0061.01032.0123.01537.0185l.01456.0179c1.23298 1.5125 2.51498 2.6724 3.91048 3.5559l.0243.0153c.1417.0891.2931.1655.4844.261l.0616.0307c.1404.0702.3064.1546.4599.2478.0032.0018.0062.0036.0091.0052.005-.0046.0114-.0109.022-.0215l.9235-.9216.0098-.0097c.2111-.2087.7079-.6351 1.408-.6351l.0083.0001c.6845.0032 1.1632.4065 1.3903.6491l2.5915 2.5862c.6196.6158.5311 1.4435.4598 1.8131-.0433.224-.1067.4183-.157.5532-.0257.0689-.0494.126-.0676.168-.0092.0212-.0171.0387-.0234.0523-.0031.0068-.0058.0126-.0081.0174-.0011.0024-.0022.0046-.0031.0065-.0502.1048-.1186.2009-.2016.2824s-.0001.0001-.0001.0001c-.0002.0001-.0003.0003-.0006.0006-.0005.0005-.0014.0013-.0024.0024-.0022.0021-.0055.0053-.0098.0095-.0086.0085-.0213.021-.0377.0372-.0327.0322-.0799.0788-.1375.1358-.1152.114-.2717.2694-.4368.4352-.3405.3415-.6732.6823-.7928.8213l-.0055.0065c-.0103.0121-.021.024-.0319.0356-.6731.7184-1.502 1.0638-2.5011 1.0638-.0636 0-.1716.0004-.2804-.0067-.0003-.0001-.0007-.0001-.0011-.0001-.0005 0-.001-.0001-.0016-.0001-1.5861-.1018-3.0195-.71-4.0156-1.1843l-.0235-.0112-.0042-.002c-2.7855-1.3457-5.23077-3.2537-7.26084-5.6642l-.02387-.0284c-.00102-.0012-.00203-.0024-.00304-.0036-1.66281-2.0001-2.80183-3.883-3.56024-5.92753-.46937-1.25453-.67381-2.31944-.58719-3.37407l.0003-.00347.0008-.00919c.06887-.78094.38303-1.45453.93931-2.00968l1.60653-1.60324.00561-.00556c.00563-.00553.01132-.01099.01708-.01639l.00812-.00757c.34482-.32044.81933-.59646 1.39168-.59646zm-.01928 2.04433c-.00387.00337-.00788.00692-.01203.01069l-1.5931 1.58985c-.22318.22273-.33276.45767-.36003.77211-.05391.66012.05974 1.41199.45824 2.48372l.01832.04919c.66421 1.78296 1.67103 3.46636 3.21388 5.32256 1.85599 2.2105 4.08429 3.9499 6.61969 5.1751.9488.4527 2.0985.9234 3.2913 1.0026l.0167.0011.0061.0004c.0309.0018.0718.0021.1442.0021.4635 0 .7541-.13 1.0287-.4175.186-.2145.5738-.6084.8861-.9217.1693-.1698.3291-.3286.4464-.4447.0154-.0152.03-.0297.0439-.0434.0184-.055.0361-.1174.0482-.1798.0077-.0398.0115-.0717.0132-.0959l-2.5112-2.5061-.9167.9149c-.0978.0976-.5973.6165-1.4225.6165-.3276 0-.6281-.0817-.9063-.2194l-.0066-.0033c-.0335-.0167-.0604-.0322-.0774-.0423-.0087-.0051-.0169-.0101-.023-.0139-.0122-.0069-.0243-.014-.0362-.0214-.0844-.0522-.1916-.1072-.3533-.188l-.033-.0165c-.1823-.0909-.4245-.2109-.6667-.3641-1.6095-1.0158-3.05344-2.331-4.40608-3.9895-.0099-.0113-.01954-.0228-.02893-.0345l-.0046-.0058c-.7481-.9479-1.2727-1.7835-1.65187-2.6935l-.00893-.02152c-.00834-.02017-.01602-.0406-.02303-.06127l-.00139-.00414c-.00235-.00704-.0047-.01409-.00706-.02114l-.00707-.02117c-.00084-.00252-.00167-.00503-.00249-.00755l-.00243-.00758c-.05712-.18052-.14669-.50704-.10118-.8994.04682-.4036.22562-.79407.55369-1.13704.0486-.05534.08952-.09019.10589-.1042.00025-.00021.00049-.00042.00074-.00062.10433-.0933.1709-.15083.21843-.19031.0158-.01312.0293-.02409.04117-.03357.03335-.03397.08126-.08336.18329-.18761l.00514-.00522c.00516-.0052.01038-.01034.01566-.01542.12925-.12454.23848-.2382.39264-.39205l.00652-.00657c.00487-.00493.00951-.00972.01393-.01435-.00442-.00464-.00906-.00943-.01393-.01436l-.00652-.00656-1.28616-1.28353c-.00182-.00181-.00363-.00363-.00543-.00545l-.00538-.0055c-.07229-.0744-.14499-.1481-.22025-.22438-.06969-.07065-.14175-.14369-.21334-.2173l-.01432-.01473c-.00006-.00006-.00012-.00012-.00018-.00018-.28102-.28964-.53614-.54839-.79975-.79485l-.01256-.01173c-.00722-.00674-.01435-.01358-.02138-.02054l-.003-.00298c-.00224-.00224-.00448-.00447-.00671-.0067z" fill-rule="evenodd"/><path d="m20.8929 2.01262c.3905-.39052 1.0236-.39052 1.4142 0 .3905.39052.3905 1.02369 0 1.41421l-4.546 4.54592h3.0898l.0064.00002c.5493.00348.9936.44986.9936.99999 0 .55012-.4443.9965-.9936.99998l-.0064.00002h-5.504c-.5521 0-.9997-.44741-1-.99949l-.0025-4.86353c-.0002-.55228.4472-1.00023.9995-1.00051.5523-.00029 1.0003.4472 1.0005.99948l.0013 2.45107z"/></g></svg>