<svg fill="none" height="24" viewBox="0 0 24 24" width="24" xmlns="http://www.w3.org/2000/svg"><path clip-rule="evenodd" d="m5.66689 1.33205c.6847.00313 1.15877.40431 1.36695.61207l.00198.00198c.29389.2747.57002.55539.84725.84112l.02548.02619c.05963.0612.1207.12312.18471.188.0705.07147.14453.14651.21904.22313l1.24496 1.24241.00791.00792c.33477.33648.64983.80686.64983 1.40831 0 .60144-.31507 1.07183-.64983 1.40831l-.00791.00793c-.11225.11202-.25829.26212-.39532.39465-.08552.0874-.1426.14613-.17293.177-.02618.02666-.07389.07593-.1337.12492-.01284.01051-.02367.01895-.02889.023-.00842.00654-.00519.004-.00906.00702-.00097.00076-.00444.00346-.01319.01072-.01879.01561-.0594.05022-.14144.12338-.00094.00094-.00188.00189-.00282.00283.00174.00612.00375.01288.00609.02041.2764.65876.67094 1.30541 1.3074 2.11485.00506.0059.01005.0119.01497.018 1.20133 1.4768 2.44973 2.6077 3.80873 3.468l.0235.0149c.1365.0858.2824.1594.4686.2523l.0598.0299c.1335.0667.2917.1471.4393.236.0017-.0016.0036-.0036.0059-.0058l.8976-.8958.0097-.0096c.2065-.2042.6963-.6254 1.3883-.6254l.0081.0001c.6763.0031 1.1484.4012 1.3715.6395l2.5188 2.5136c.6129.6091.5244 1.4266.4546 1.7876-.0424.2197-.1045.41-.1538.5422-.0252.0675-.0484.1234-.0663.1647-.009.0207-.0168.038-.0229.0514-.0031.0067-.0058.0124-.0081.0172-.0011.0023-.0021.0045-.003.0064-.0004.0009-.0009.0018-.0013.0026-.05.1038-.1181.199-.2003.2797 0 .0001-.0001.0001-.0001.0002-.0002.0001-.0003.0003-.0006.0005-.0005.0005-.0013.0013-.0024.0023-.0021.0021-.0052.0052-.0094.0093-.0084.0082-.0207.0204-.0366.0361-.0318.0313-.0777.0766-.1336.132-.1121.1108-.2641.2618-.4246.4229-.3312.3323-.6538.6628-.7691.7968l-.0054.0063c-.0103.0121-.0209.024-.0318.0356-.6599.7042-1.4732 1.0429-2.4517 1.0429-.0616 0-.1676.0004-.2744-.0066-1.5484-.0988-2.9469-.6924-3.9163-1.154l-.0229-.0109c-.0014-.0007-.0028-.0014-.0042-.0021-2.7113-1.3098-5.09146-3.167-7.06734-5.5132l-.02323-.0276-.00305-.0036c-1.61198-1.939-2.71879-3.7656-3.45735-5.74812l-.00867-.02333c-.45679-1.2213-.65659-2.26037-.57197-3.29061l.00029-.00347c.06591-.76949.37442-1.43346.92197-1.97989l1.56168-1.55849.0056-.00555c.00563-.00553.01133-.011.01709-.01639l.00797-.00744c.33841-.31449.80614-.58728 1.37183-.58728zm-1.55947 3.59079c-.21226.21182-.31593.43404-.34188.73311-.05196.6363.0573 1.36292.44379 2.40234l.01023.02743c.64426 1.73723 1.62294 3.37668 3.12699 5.18618 1.80168 2.1458 3.96465 3.8341 6.42565 5.0234.9216.4397 2.0352.8952 3.1891.9719l.0162.0011.0057.0003c.0291.0017.0681.002.1386.002.443 0 .718-.1233.9793-.3968.1819-.2096.5593-.5929.8622-.8968.1647-.1651.32-.3195.4341-.4324.0132-.0131.0259-.0256.0379-.0375.0169-.051.0328-.108.0438-.1649.0057-.0293.0094-.0552.0114-.0773l-2.4122-2.4073-.8714.8696c-.0955.0954-.5882.6075-1.4025.6075-.3233 0-.6196-.0807-.8934-.2162l-.0065-.0033c-.0333-.0166-.0601-.032-.077-.042-.0084-.005-.0163-.0098-.0223-.0135-.012-.0068-.024-.0138-.0357-.0211-.0808-.05-.1838-.1029-.3411-.1815l-.0322-.0161c-.177-.0883-.4136-.2055-.6505-.3553-1.5673-.9891-2.97304-2.2697-4.28944-3.8837-.01141-.013-.0225-.0263-.03323-.0399-.72826-.9228-1.23976-1.73727-1.6096-2.62485l-.00871-.02099c-.00834-.02017-.01602-.0406-.02303-.06127l-.00139-.00414c-.00229-.00685-.00458-.01371-.00687-.02056l-.00687-.02057c-.00084-.00251-.00167-.00504-.00249-.00756l-.00243-.00756c-.05594-.17679-.14439-.49868-.09947-.88594.04623-.39854.22276-.78352.54541-1.12098.04837-.05502.08906-.08968.10534-.1036.0002-.00017.0004-.00033.0006-.0005.10134-.09062.16624-.14671.21277-.18535.0149-.01238.02774-.02283.03909-.0319.03237-.03299.07882-.08088.17698-.18117l.00514-.00522c.00516-.0052.01039-.01034.01566-.01542l.0117-.0113c.12037-.11647.22398-.22411.36963-.36946l.00057-.00058-.00057-.00057-1.25026-1.2477c-.00181-.00181-.00362-.00363-.00542-.00545l-.00538-.0055c-.07019-.07224-.14079-.1438-.21396-.21797-.06773-.06866-.13784-.13973-.20752-.21137l-.01393-.01433c-.00006-.00007-.00012-.00013-.00018-.00019-.27313-.2815-.52074-.53262-.77646-.7717l-.01218-.01138c-.00197-.00184-.00393-.00368-.00588-.00553l-.00583-.00558z" fill="currentColor" fill-rule="evenodd"/></svg>