<svg fill="none" height="24" viewBox="0 0 24 24" width="24" xmlns="http://www.w3.org/2000/svg"><g fill="currentColor"><path clip-rule="evenodd" d="m5.30531 2.66159.00806.00002c.6847.00313 1.15877.40432 1.36696.61208l.002.002c.29388.2747.57.55537.84723.8411l.02547.02619c.05963.0612.1207.12311.18471.188.07047.07144.14449.14645.21897.22304l1.24503 1.2425.00791.00792c.33477.33648.64979.80686.64979 1.40831 0 .60144-.31502 1.07183-.64979 1.40831l-.00791.00792c-.11225.11202-.25829.26213-.39532.39465-.08551.0874-.1426.14613-.17293.17701-.02618.02665-.07388.07592-.1337.12491-.01284.01051-.02367.01895-.02889.023-.00842.00654-.00519.00401-.00906.00703-.00096.00075-.00444.00345-.01319.01072-.01879.01561-.0594.05021-.14145.12338-.00094.00094-.00187.00188-.00281.00281.00174.00612.00375.01288.00608.02041.2764.6588.67094 1.3054 1.3074 2.1148.00507.006.01006.012.01498.018 1.20125 1.4768 2.44975 2.6078 3.80875 3.4681l.017.0108c.1383.0875.2859.162.475.2564.1444.072.3289.1633.4992.2659.0017-.0017.0036-.0036.0058-.0058l.8977-.8959.0096-.0095c.2066-.2042.6964-.6254 1.3883-.6254h.0082c.6762.0032 1.1483.4012 1.3714.6395l2.5189 2.5137c.6129.6091.5243 1.4265.4546 1.7875-.0424.2198-.1046.4101-.1538.5422-.0252.0675-.0484.1235-.0663.1648-.009.0207-.0168.0379-.0229.0513-.0031.0067-.0058.0125-.0081.0172-.0507.1073-.1199.2056-.2046.2888-.0001 0-.0001.0001-.0002.0001-.0001.0001-.0003.0003-.0005.0006-.0005.0005-.0013.0012-.0024.0023-.0021.0021-.0053.0052-.0094.0093-.0084.0082-.0208.0204-.0367.036-.0318.0314-.0776.0766-.1336.132-.112.1109-.264.2619-.4245.4229-.3313.3323-.6538.6628-.7692.7969l-.0053.0062c-.0103.0121-.021.024-.0319.0357-.6599.7042-1.4731 1.0429-2.4516 1.0429-.0616 0-.1676.0003-.2744-.0066-1.5484-.0989-2.9469-.6925-3.9164-1.1541l-.0228-.0109-.0042-.002c-2.71133-1.3099-5.09148-3.167-7.06736-5.5132l-.02323-.0276-.00304-.0037c-1.61199-1.9389-2.7188-3.7656-3.45735-5.7481l-.00867-.0233c-.4568-1.22128-.65659-2.26035-.57197-3.2906l.00029-.00347c.0659-.76949.37442-1.43346.92197-1.97989l1.56167-1.55848.00561-.00556c.00563-.00553.01132-.01099.01708-.01638l.00797-.00744c.33842-.31449.80614-.58729 1.37184-.58729zm-1.55141 3.59081c-.21226.21183-.31593.43405-.34187.73313-.05196.6363.0573 1.36291.44378 2.40232l.01024.02743c.64428 1.73732 1.62301 3.37682 3.12716 5.18632 1.80158 2.1457 3.96439 3.8339 6.42519 5.0231.9216.4398 2.0354.8954 3.1893.972l.0163.0011c.0297.002.069.0024.1443.0024.443 0 .718-.1234.9793-.3968.1819-.2096.5593-.5929.8622-.8968.1646-.1652.32-.3195.4341-.4325.0132-.013.0259-.0255.0379-.0374.0168-.051.0328-.1081.0438-.1649.0057-.0294.0093-.0552.0114-.0774l-2.4122-2.4073-.8714.8696c-.0956.0954-.5882.6076-1.4025.6076-.3233 0-.6196-.0807-.8934-.2163l-.0065-.0032c-.0333-.0166-.0601-.0321-.077-.042-.0084-.005-.0163-.0098-.0223-.0136-.0121-.0067-.024-.0138-.0357-.0211-.0862-.0533-.1977-.1099-.3733-.1975-.1773-.0885-.4143-.2059-.6516-.356-1.5668-.989-2.97226-2.2694-4.28836-3.883-.01141-.013-.02249-.0263-.03322-.0399-.72827-.9228-1.23976-1.7373-1.60961-2.6249l-.00871-.021c-.00834-.0201-.01602-.0406-.02303-.0612l-.00139-.0042c-.00229-.0068-.00458-.0137-.00687-.0205l-.00687-.0206c-.00084-.0025-.00167-.0051-.00249-.0076l-.00242-.0075c-.05594-.17682-.14439-.49872-.09947-.88598.04622-.39853.22275-.78348.54537-1.12094.04839-.05503.08909-.0897.10537-.10362.00019-.00017.00038-.00034.00057-.0005.10136-.09063.16627-.14673.2128-.18538.0149-.01237.02774-.02281.03909-.03189.03236-.03299.07882-.08087.17698-.18117l.00515-.00521c.00516-.0052.01038-.01034.01565-.01542l.01171-.0113c.12037-.11647.22397-.22412.36962-.36947l.00057-.00057-.00057-.00057-1.25025-1.24771c-.00182-.00181-.00363-.00363-.00543-.00545l-.00538-.0055c-.07019-.07223-.14078-.1438-.21395-.21796-.06774-.06867-.13785-.13973-.20753-.21137l-.01393-.01434c-.00006-.00006-.00012-.00012-.00018-.00018-.27313-.28151-.52074-.53263-.77645-.77171l-.01219-.01138c-.00393-.00367-.00784-.00737-.01171-.0111z" fill-rule="evenodd"/><path d="m11.8847 6.16082c.091-.54256.6029-.90936 1.1452-.822l.0064.00105.0165.00278c1.4024.23855 2.6743.90362 3.6846 1.91181 1.016 1.01397 1.6773 2.28953 1.9186 3.69174.0937.5443-.2716 1.0615-.8159 1.1551-.5443.0937-1.0614-.2716-1.1551-.8159-.1708-.9926-.6362-1.89251-1.3604-2.61527-.7232-.72175-1.621-1.18806-2.6073-1.35581l-.0116-.00196-.0064-.00109c-.5412-.09423-.9055-.60789-.8146-1.15045z"/><path d="m12.0682 2.23337c.0918-.54242.6042-.90843 1.1464-.82023l.0064.00105.0274.00468c2.3215.39854 4.4375 1.49806 6.1197 3.16404l.0199.01971.001.00104.0198.01982c1.6757 1.68018 2.773 3.79329 3.1723 6.11012l.0047.0274.001.0063c.0886.5422-.2771 1.0549-.8194 1.147-.5424.0921-1.0568-.2711-1.1523-.812l-.0011-.0064-.0038-.0225c-.3299-1.91388-1.2368-3.65962-2.6335-5.05367-1.3983-1.391-3.1489-2.30048-5.0667-2.62971l-.0226-.00385-.0064-.0011c-.541-.09506-.9046-.60928-.8128-1.1517z"/></g></svg>