<svg fill="none" height="24" viewBox="0 0 24 24" width="24" xmlns="http://www.w3.org/2000/svg"><path clip-rule="evenodd" d="m14.8928 1.72368c.3905-.39052 1.0237-.39052 1.4142 0l2.2929 2.29289 2.2929-2.29289c.3905-.39052 1.0237-.39052 1.4142 0s.3905 1.02369 0 1.41421l-2.2929 2.29289 2.2929 2.2929c.3905.39052.3905 1.02369 0 1.41421-.3905.39053-1.0237.39053-1.4142 0l-2.2929-2.29289-2.2929 2.29289c-.3905.39053-1.0237.39053-1.4142 0-.3905-.39052-.3905-1.02369 0-1.41421l2.2929-2.2929-2.2929-2.29289c-.3905-.39052-.3905-1.02369 0-1.41421zm-9.59883 2.96088-1.54007 1.53692c-.21229.21186-.31596.43412-.34189.73327-.05234.64127.05908 1.3743.45299 2.42681l.00105.0028c.6443 1.73734 1.62306 3.37694 3.12729 5.18654 1.8015 2.1455 3.96416 3.8336 6.42486 5.0228.9253.4415 2.0442.899 3.2031.973l.0027.0002c.0297.002.069.0024.1443.0024.4429 0 .718-.1234.9792-.3967.1819-.2096.5593-.593.8623-.8969.1646-.1652.32-.3195.4341-.4325l.0379-.0374c.0168-.051.0328-.108.0438-.165.0057-.0293.0093-.0551.0114-.0773l-2.4122-2.4073-.8714.8696c-.0021.0021-.0044.0044-.0069.0069-.1106.1108-.5992.6006-1.3956.6006-.3258 0-.6243-.0819-.8999-.2194-.0333-.0166-.0601-.0321-.077-.0421-.0084-.0049-.0162-.0097-.0223-.0135-.012-.0067-.024-.0138-.0357-.0211-.0862-.0533-.1977-.1099-.3733-.1975l-.014-.007c-.1755-.0876-.4062-.2026-.6371-.3487-1.567-.9891-2.97263-2.2695-4.28889-3.8834-.0114-.013-.02247-.0263-.03319-.0398-.734-.9301-1.24781-1.7502-1.61832-2.6459-.0089-.0215-.01704-.0433-.02442-.0654l-.01374-.0411-.00491-.0152c-.05594-.17674-.14439-.49864-.09947-.8859.04622-.39852.22273-.78346.54534-1.12091.04788-.05447.08824-.08898.10487-.1032m.00108-.00093c.10137-.09064.16629-.14675.21282-.1854.01491-.01238.02776-.02283.03912-.03191.01387-.01414.03032-.03101.05232-.05356.02934-.03009.06855-.07028.12463-.12758.00683-.00698.01377-.01386.0208-.02064.0805-.07756.1528-.15059.23402-.23262.04533-.0458.09345-.09439.14731-.14815.0002-.00019-.00019.00019 0 0-.00019-.00019.0002-.00095 0-.00115l-1.25025-1.2477-.01081-.01095c-.07004-.07208-.14049-.14349-.21349-.21749-.07225-.07324-.14767-.14969-.22192-.22618-.27746-.28597-.52877-.54077-.78882-.78327-.00393-.00367-.00784-.00737-.01171-.0111m14.63893 14.68634.8999.436c-.05.1032-.1174.1971-.1992.2775l-.0492.0483-.1336.132c-.112.1109-.264.2619-.4245.4229-.3365.3376-.664.6733-.7745.8031-.0103.0121-.021.024-.0319.0357-.6599.7042-1.4731 1.0429-2.4516 1.0429h-.0091c-.0632 0-.1653 0-.268-.0068l.0664-.9978-.0637.998c-.0009-.0001-.0018-.0002-.0027-.0002-1.5595-.1002-2.9667-.702-3.9365-1.1648l-.0042-.002c-2.72196-1.315-5.11014-3.1816-7.09059-5.5408l-.00305-.0037c-1.61794-1.9461-2.72694-3.7791-3.4655-5.77.00017.0004.00035.0009.00053.0014l.93656-.35052-.9376.34772c.00017.0005.00034.0009.00051.0014-.45716-1.22192-.65714-2.26138-.57248-3.29201l.00028-.00348c.0659-.76949.37442-1.43345.92197-1.97989l1.56168-1.55848c.00745-.00743.01501-.01475.02269-.02194.33903-.31762.80965-.59473 1.37981-.59473.68904 0 1.16601.40352 1.37502.6121l.00196.00195c.29389.27472.57003.55541.84727.84115m12.40334 15.28503c.8999.436.8998.4362.8999.436l.0006-.0011.0018-.0038.003-.0064.008-.0172c.0062-.0134.014-.0306.023-.0513.0179-.0413.0411-.0973.0663-.1648.0492-.1321.1114-.3224.1538-.5422.0698-.3612.1584-1.1796-.456-1.7889-.0007-.0007-.0014-.0014-.0021-.0021l-2.5153-2.5101c-.224-.2393-.6989-.6396-1.3797-.6396-.7029 0-1.1972.4346-1.3979.6349l-.8977.8959c-.0022.0022-.0041.0041-.0058.0058-.1632-.0984-.3395-.1863-.481-.2569l-.0182-.009c-.1891-.0944-.3367-.1689-.475-.2564l-.001-.0007c-1.3652-.8616-2.6187-1.9956-3.82474-3.4782-.00497-.0061-.01-.0121-.01511-.0181-.63639-.8094-1.0309-1.456-1.30728-2.11473-.00233-.00752-.00434-.01427-.00608-.02039.00095-.00095.00191-.00191.00286-.00286.08201-.07314.12261-.10774.1414-.12335.00875-.00726.01222-.00996.01319-.01071l.00906-.00703c.00522-.00405.01605-.01249.02889-.023.05678-.0465.10264-.09326.12955-.12068.00144-.00147.00283-.00288.00416-.00424.01455-.01481.03527-.03605.06233-.06378.0293-.03003.06604-.06769.11045-.11308.09331-.09024.19081-.18865.27898-.27763.04134-.04173.08064-.08139.11648-.11716.3377-.33701.6577-.81005.6577-1.41623s-.32-1.07923-.6577-1.41623l-1.24488-1.24234c-.07355-.07564-.14665-.14974-.21634-.22038l-.00278-.00282c-.07309-.07409-.14252-.14449-.21018-.21419" fill="currentColor" fill-rule="evenodd"/></svg>