<svg fill="none" height="24" viewBox="0 0 24 24" width="24" xmlns="http://www.w3.org/2000/svg"><g fill="currentColor"><path clip-rule="evenodd" d="m5.39691 1.83412c.69294.00317 1.17368.40931 1.38606.62126l.00235.00234c.30192.2822.58569.57064.87095.86465.06975.07186.14114.14423.21638.2205.07258.07357.14871.15074.22532.22952l1.28089 1.27827.00807.00809c.34163.34338.66007.8204.66007 1.42849s-.31844 1.0851-.66007 1.42848l-.00807.00809c-.11606.11581-.26583.26978-.40666.40596-.08824.0902-.14687.15051-.17811.18231-.0271.02759-.07512.07717-.13526.12642-.01291.01058-.02383.01908-.02913.0232-.00851.00661-.00539.00417-.00938.00728-.00121.00095-.00501.0039-.01424.01157-.01975.01639-.06196.05238-.14691.12814-.00126.00127-.00251.00253-.00378.00379-.00427.00427-.00805.00819-.01137.01177.00268.01032.0063.02312.01124.03903.2857.6813.69332 1.34922 1.34977 2.18392.00518.0061.01029.0123.01533.0184l.01456.0179c1.23298 1.5126 2.51498 2.6725 3.91048 3.556l.0243.0153c.1417.0891.2931.1655.4844.261l.0616.0307c.1404.0702.3064.1545.4599.2478.0032.0018.0062.0035.0091.0052.005-.0046.0114-.0109.022-.0215l.9235-.9216.0098-.0098c.2111-.2086.7079-.635 1.408-.635h.0082c.6846.0033 1.1633.4065 1.3904.6492l2.5915 2.5862c.6196.6158.5311 1.4435.4598 1.8131-.0433.224-.1067.4182-.157.5531-.0257.069-.0494.1261-.0676.1681-.0092.0211-.0171.0387-.0234.0523-.0031.0068-.0058.0126-.0081.0174-.0011.0024-.0022.0045-.0031.0064-.0004.001-.0009.0019-.0012.0027-.05.1038-.1182.199-.2004.2797v.0001s-.0001 0-.0001.0001c-.0002.0001-.0004.0003-.0006.0006-.0005.0005-.0014.0013-.0024.0023-.0022.0022-.0055.0054-.0098.0096-.0086.0085-.0213.021-.0377.0371-.0327.0323-.0799.0788-.1375.1358-.1152.1141-.2717.2695-.4368.4352-.3405.3415-.6732.6824-.7928.8214l-.0055.0064c-.009.0107-.0183.0211-.0278.0313l-.0041.0044c-.6731.7184-1.502 1.0638-2.5011 1.0638-.0636 0-.1716.0003-.2804-.0068-1.5872-.1013-3.0217-.7099-4.0183-1.1845l-.0235-.0111c-.0014-.0007-.0028-.0014-.0042-.0021-2.7855-1.3457-5.23077-3.2536-7.26085-5.6641l-.02386-.0284-.00304-.0037c-1.66289-2.0001-2.80193-3.8831-3.56035-5.92774-.46929-1.25442-.67369-2.31924-.58708-3.37379l.0003-.00347c.06721-.78485.38165-1.46155.94011-2.01888l1.60653-1.60324.00561-.00555c.00563-.00553.01132-.01099.01708-.01639l.00812-.00757c.34482-.32045.81933-.59647 1.39168-.59647zm-.01928 2.04433c-.00388.00337-.00789.00693-.01203.01069l-1.5931 1.58985c-.22318.22272-.33276.45766-.36003.77211-.05391.66012.05974 1.41199.45824 2.48372l.01052.0282c.66414 1.79088 1.67286 3.48028 3.22185 5.34368 1.8559 2.2104 4.08412 3.9497 6.61932 5.1748.9488.4528 2.0986.9235 3.2915 1.0028l.0167.0011c.0317.0021.0731.0025.1503.0025.4635 0 .7541-.13 1.0287-.4176.186-.2144.5738-.6084.8861-.9216.1693-.1699.3291-.3286.4464-.4448.0154-.0152.03-.0296.0439-.0433.0184-.0551.0361-.1174.0482-.1798.0077-.0399.0115-.0718.0132-.0959l-2.5112-2.5061-.9167.9148c-.0978.0976-.5973.6166-1.4225.6166-.3276 0-.6281-.0817-.9063-.2195l-.0066-.0033c-.0335-.0166-.0604-.0322-.0774-.0422-.0087-.0051-.0168-.0101-.023-.0139-.0122-.0069-.0243-.014-.0362-.0214-.0844-.0523-.1916-.1072-.3533-.188l-.033-.0165c-.1823-.091-.4245-.2109-.6667-.3642-1.6095-1.0157-3.05345-2.331-4.40609-3.9895-.0099-.0113-.01954-.0227-.02892-.0344l-.0046-.0058c-.7481-.948-1.2727-1.7836-1.65187-2.69354l-.00893-.02151c-.00834-.02017-.01602-.04061-.02303-.06128l-.00139-.00414c-.00235-.00705-.00471-.01409-.00706-.02114l-.00707-.02116c-.00084-.00252-.00167-.00504-.00249-.00756l-.00243-.00757c-.05712-.18053-.14669-.50704-.10118-.89941.04681-.40361.22562-.79408.5537-1.13706.04859-.05532.0895-.09016.10588-.10417.00026-.00022.00051-.00044.00077-.00066.10431-.09328.17088-.15079.2184-.19027.0158-.01312.0293-.02409.04117-.03357.03335-.03397.08125-.08336.18328-.1876l.00515-.00522c.00516-.0052.01038-.01035.01566-.01543l.01206-.01164c.12405-.12003.23123-.23137.38058-.38041l.00652-.00656c.00487-.00493.00951-.00972.01393-.01436-.00442-.00464-.00906-.00943-.01393-.01436l-.00652-.00656-1.28617-1.28354c-.00363-.00362-.00723-.00727-.0108-.01094-.07229-.07441-.145-.1481-.22025-.22439-.0697-.07064-.14175-.14368-.21335-.21729l-.01431-.01473c-.00006-.00006-.00012-.00012-.00018-.00018-.28102-.28965-.53614-.5484-.79975-.79485l-.01256-.01173c-.00722-.00674-.01435-.01359-.02138-.02054l-.003-.00299c-.00224-.00223-.00448-.00446-.00671-.00669z" fill-rule="evenodd"/><path d="m21.5974 1.71973.0065.00001c.5491.00348.9932.44955.9935.99947l.0025 4.86353v.00648c-.0032.54931-.4494.99375-.9995.99403s-.9967-.44372-1.0005-.99302v-.00646l-.0013-2.45107-4.5471 4.54716-.0046.00456c-.3909.38598-1.0206.38448-1.4096-.00456-.3905-.39052-.3905-1.02369 0-1.41421l4.5459-4.54593h-3.0897c-.5523 0-1-.44771-1-.99999 0-.55229.4477-1 1-1z"/></g></svg>