<svg fill="none" height="24" viewBox="0 0 24 24" width="24" xmlns="http://www.w3.org/2000/svg"><path clip-rule="evenodd" d="m11 3.45754c-4.2786.49543-7.6001 4.13109-7.6001 8.54256 0 2.0145.69265 3.8672 1.85279 5.333l5.74721-5.7472zm2 .00001-.0001 7.54255h7.5425c-.4575-3.95049-3.592-7.08506-7.5424-7.54255zm8.5999 8.09845c.3054-.0096.6527.0964 1 .4435-.0003-5.85398-4.7459-10.59944-10.5999-10.59948-5.85428-.00003-10.6001 4.7458-10.6001 10.60008 0 5.8542 4.74578 10.6 10.6 10.6 5.854 0 10.5997-4.7456 10.6-10.5995m0-.0007c0-.0001-.426-.426-1-.4439zm-2.0575 1.0002c-.4955 4.2785-4.1311 7.6-8.5425 7.6-2.0145 0-3.86722-.6927-5.333-1.8528l5.7472-5.7472zm2.0575-.9995c-.3472.347-.6943.453-.9997.4436zm-.9997.4436c.5739-.0181.9997-.4439.9997-.444v-.0001" fill="currentColor" fill-rule="evenodd"/></svg>