<svg fill="none" height="24" viewBox="0 0 24 24" width="24" xmlns="http://www.w3.org/2000/svg"><path clip-rule="evenodd" d="m14.3881 2.11755c0-.55228.4478-1 1-1 3.983 0 7.2118 3.22882 7.2118 7.21177v.47783c0 .55228-.4477 1-1 1h-6.2118c-.5522 0-1-.44772-1-1zm2 1.09584v4.59376h4.186c-.2288-2.2999-1.9528-4.15977-4.186-4.59376zm-5.9529 1.66005c-3.96583.49229-7.0353 3.87455-7.0353 7.97376 0 4.4377 3.59753 8.0353 8.0353 8.0353 4.0991 0 7.4814-3.0695 7.9737-7.0354h-7.9737c-.2652 0-.5196-.1053-.7071-.2928-.1876-.1876-.2929-.4419-.2929-.7072zm-9.0353 7.97376c0-5.54241 4.49299-10.0354 10.0354-10.03537.5522 0 1 .44772.9999 1.00001v8.03526h8.0353c.5523 0 1 .4478 1 1 0 5.5424-4.493 10.0354-10.0353 10.0354-5.54235 0-10.0353-4.493-10.0353-10.0353z" fill="currentColor" fill-rule="evenodd"/></svg>