<svg fill="none" height="24" viewBox="0 0 24 24" width="24" xmlns="http://www.w3.org/2000/svg"><path clip-rule="evenodd" d="m20.3002 3.7c-.4-.39997-1.0485-.39997-1.4484 0l-3.8169 3.81685c-.2515.25149-.6176.35048-.9616.25997l-8.50953-2.23936-1.31237 1.31237 7.0529 2.35097c.3288.1096.5774.38162.657.71893.0796.33727-.0211.69177-.2661.93687l-3.33976 3.3397c-.18754.1876-.44189.2929-.70711.2929h-2.44842l-.63447.6345 2.57589 1.2879c.19353.0968.35045.2537.44722.4473l1.28794 2.5759.63448-.6345v-2.4484c0-.2653.10535-.5196.29289-.7071l3.33974-3.3398c.2451-.2451.5996-.3458.9369-.2661.3373.0796.6093.3282.7189.657l2.351 7.0529 1.3123-1.3124-2.2393-8.50953c-.0905-.34396.0084-.71011.2599-.9616l3.8169-3.81685c.4-.39997.4-1.04845 0-1.44842zm-2.8626-1.41421c1.181-1.18102 3.0958-1.18102 4.2768 0s1.181 3.09583 0 4.27685l-3.4107 3.4107 2.2393 8.50956c.0906.344-.0084.7101-.2599.9616l-2.8627 2.8626c-.245.2451-.5995.3458-.9368.2662-.3373-.0797-.6093-.3283-.7189-.657l-2.351-7.053-1.9027 1.9028v2.4484c0 .2652-.1054.5196-.2929.7071l-1.90845 1.9084c-.2273.2273-.55.3315-.86729.28s-.59049-.2524-.73425-.5399l-1.75935-3.5187-3.5187-1.7593c-.28751-.1438-.48839-.417-.53988-.7343-.05148-.3173.05269-.64.27999-.8673l1.90842-1.9084c.18754-.1875.44189-.2929.70711-.2929h2.44842l1.90272-1.9027-7.0529-2.35097c-.32879-.1096-.5774-.38162-.65702-.71893-.07963-.33731.02107-.69179.26614-.93686l2.86263-2.86263c.2515-.2515.61765-.35049.9616-.25997l8.50951 2.23935z" fill="currentColor" fill-rule="evenodd"/></svg>