<svg fill="none" height="24" viewBox="0 0 24 24" width="24" xmlns="http://www.w3.org/2000/svg"><path clip-rule="evenodd" d="m1.3999 6.00002c0-2.54051 2.05949-4.6 4.6-4.6h12c2.5405 0 4.6 2.05949 4.6 4.6v11.99998c0 2.5405-2.0595 4.6-4.6 4.6h-12c-2.54051 0-4.6-2.0595-4.6-4.6zm4.6-2.6c-1.43594 0-2.6 1.16406-2.6 2.6v11.99998c0 1.436 1.16406 2.6 2.6 2.6h12c1.4359 0 2.6-1.164 2.6-2.6v-11.99998c0-1.43594-1.1641-2.6-2.6-2.6zm2.86265 2.95011c.62501-.29183 1.28585-.12102 1.75655.17709l.0296.01875 5.5036 4.05263c.4405.2668.974.7491.9751 1.5015.001.7514-.5354 1.2529-.9673 1.5375l-5.4805 3.8331-.0459.0254c-.4458.2467-1.13307.4769-1.79316.1243-.67043-.358-.85618-1.0704-.88799-1.6047l-.00168-.0282-.02319-7.99855c-.01024-.64405.25814-1.32284.93487-1.63882zm1.06662 2.14976 4.91373 3.61831-4.89332 3.4224z" fill="currentColor" fill-rule="evenodd"/></svg>