<svg fill="none" height="24" viewBox="0 0 24 24" width="24" xmlns="http://www.w3.org/2000/svg"><path clip-rule="evenodd" d="m2 12c0-5.52285 4.47715-10 10-10 5.5228 0 10 4.47715 10 10 0 5.5228-4.4772 10-10 10-5.52285 0-10-4.4772-10-10zm10-8c-4.41828 0-8 3.58172-8 8 0 4.4183 3.58172 8 8 8 4.4183 0 8-3.5817 8-8 0-4.41828-3.5817-8-8-8zm-2.96782 2.6466c.61129-.28543 1.25382-.11695 1.70662.16984l.0296.01876 5.1592 3.799c.4197.2549.9408.7229.9418 1.4596.001.7363-.524 1.2226-.9342 1.4931l-5.14 3.5949-.0459.0254c-.4244.2349-1.09366.4626-1.74076.117-.65743-.3511-.83515-1.0471-.86543-1.5558l-.00169-.0282-.02174-7.50001c-.00973-.62052.24957-1.28407.9125-1.59359zm1.08922 2.19593 4.4367 3.26687-4.4182 3.0901z" fill="currentColor" fill-rule="evenodd"/></svg>