<svg fill="none" height="24" viewBox="0 0 24 24" width="24" xmlns="http://www.w3.org/2000/svg"><path clip-rule="evenodd" d="m8.49018 1.5c.55228 0 1 .44772 1 1v1.74545c0 .55229-.44772 1-1 1-.55229 0-1-.44771-1-1v-1.74545c0-.55228.44771-1 1-1zm6.98182 0c.5523 0 1 .44772 1 1v1.74545c0 .55229-.4477 1-1 1s-1-.44771-1-1v-1.74545c0-.55228.4477-1 1-1zm-11.47273 6.81818c0-.55228.44771-1 1-1h13.96363c.5523 0 1 .44772 1 1 0 .55229-.4477 1-1 1h-.7454v3.65452c0 2.9823-2.3088 5.4253-5.2364 5.6393v3.088c0 .5523-.4477 1-1 1s-1-.4477-1-1v-3.088c-2.92766-.214-5.23638-2.657-5.23638-5.6393v-3.65452h-.74545c-.55229 0-1-.44771-1-1zm3.74545 1v3.65452c0 2.0184 1.6362 3.6546 3.65458 3.6546h1.1636c2.0184 0 3.6546-1.6362 3.6546-3.6546v-3.65452z" fill="currentColor" fill-rule="evenodd"/></svg>