<svg fill="none" height="19" viewBox="0 0 18 19" width="18" xmlns="http://www.w3.org/2000/svg" xmlns:xlink="http://www.w3.org/1999/xlink"><filter id="a" color-interpolation-filters="sRGB" filterUnits="userSpaceOnUse" height="17.8588" width="16.7462" x=".825" y=".625"><feFlood flood-opacity="0" result="BackgroundImageFix"/><feColorMatrix in="SourceAlpha" result="hardAlpha" type="matrix" values="0 0 0 0 0 0 0 0 0 0 0 0 0 0 0 0 0 0 127 0"/><feOffset dy="1"/><feGaussianBlur stdDeviation=".4"/><feColorMatrix type="matrix" values="0 0 0 0 0 0 0 0 0 0 0 0 0 0 0 0 0 0 0.5 0"/><feBlend in2="BackgroundImageFix" mode="normal" result="effect1_dropShadow_525_2796"/><feBlend in="SourceGraphic" in2="effect1_dropShadow_525_2796" mode="normal" result="shape"/></filter><g filter="url(#a)"><path d="m4.90366 12.8932c-.28-.36-.63-1.09-1.24-2-.35-.5-1.21-1.44999-1.47-1.93999-.18743-.29777-.24181-.66035-.15-1 .15696-.64579.76956-1.07418 1.43-1 .5108.10261.98022.35297 1.35.72.25818.24317.49567.50742.71.79.16.2.2.28.38.51s.3.46.21.12c-.07-.5-.19-1.34-.36-2.09-.13-.57-.16-.66-.28-1.09s-.19-.79-.32-1.28c-.11883-.48143-.21229-.96877-.28-1.46-.12605-.6283-.03434-1.28079.26-1.85.34939-.328632.86193-.415369 1.3-.22.4406.32534.7691.77965.94 1.3.26207.64039.43696 1.31306.52 2 .16 1 .47 2.46.48 2.76 0-.37-.07-1.15 0-1.5.06935-.36488.32296-.66769.67-.8.29781-.09138.61285-.11192.92-.06.31004.06481.58464.24314.77004.5.2316.58339.3602 1.2026.38 1.83.0267-.54941.1208-1.09347.28-1.62.1671-.23545.4111-.40521.69-.48.3306-.06045.6694-.06045 1 0 .2711.09063.5082.26151.68.49.2117.53034.3399 1.09034.38 1.66 0 .14.07-.39.29-.74.1143-.3394.401-.59203.7521-.66273.3511-.07069.7132.0513.95.32.2368.26871.3122.64333.1979.98273v1.06 1.2c-.0365.58518-.1167 1.16679-.24 1.73999-.1741.5071-.4163.9882-.72 1.43-.4856.54-.8868 1.1502-1.19 1.81-.0753.3278-.1089.6638-.1 1-.001.3106.0393.62.12.92-.4089.0432-.8212.0432-1.23 0-.39-.06-.87-.84-1-1.08-.0644-.1289-.196-.2103-.34-.2103-.1441 0-.2757.0814-.34.2103-.22.38-.71 1.07-1.05 1.11-.67004.08-2.05004 0-3.14004 0 0 0 .18-1-.23-1.36s-.83-.78-1.14-1.06z" fill="currentColor"/><path d="m4.90366 12.8932c-.28-.36-.63-1.09-1.24-2-.35-.5-1.21-1.44999-1.47-1.93999-.18743-.29777-.24181-.66035-.15-1 .15696-.64579.76956-1.07418 1.43-1 .5108.10261.98022.35297 1.35.72.25818.24317.49567.50742.71.79.16.2.2.28.38.51s.3.46.21.12c-.07-.5-.19-1.34-.36-2.09-.13-.57-.16-.66-.28-1.09s-.19-.79-.32-1.28c-.11883-.48143-.21229-.96877-.28-1.46-.12605-.6283-.03434-1.28079.26-1.85.34939-.328632.86193-.415369 1.3-.22.4406.32534.7691.77965.94 1.3.26207.64039.43696 1.31306.52 2 .16 1 .47 2.46.48 2.76 0-.37-.07-1.15 0-1.5.06935-.36488.32296-.66769.67-.8.29781-.09138.61285-.11192.92-.06.31004.06481.58464.24314.77004.5.2316.58339.3602 1.2026.38 1.83.0267-.54941.1208-1.09347.28-1.62.1671-.23545.4111-.40521.69-.48.3306-.06045.6694-.06045 1 0 .2711.09063.5082.26151.68.49.2117.53034.3399 1.09034.38 1.66 0 .14.07-.39.29-.74.1143-.3394.401-.59203.7521-.66273.3511-.07069.7132.0513.95.32.2368.26871.3122.64333.1979.98273v1.06 1.2c-.0365.58518-.1167 1.16679-.24 1.73999-.1741.5071-.4163.9882-.72 1.43-.4856.54-.8868 1.1502-1.19 1.81-.0753.3278-.1089.6638-.1 1-.001.3106.0393.62.12.92-.4089.0432-.8212.0432-1.23 0-.39-.06-.87-.84-1-1.08-.0644-.1289-.196-.2103-.34-.2103-.1441 0-.2757.0814-.34.2103-.22.38-.71 1.07-1.05 1.11-.67004.08-2.05004 0-3.14004 0 0 0 .18-1-.23-1.36s-.83-.78-1.14-1.06z" style="fill-rule:evenodd;clip-rule:evenodd;stroke:#fff;stroke-width:.75;stroke-linecap:round;stroke-linejoin:round"/><g fill="currentColor"><path d="m13.3835 13.439v-3.45173c0-.20662-.1678-.37411-.375-.37411-.2071 0-.375.16749-.375.37411v3.45173c0 .2067.1679.3742.375.3742.2072 0 .375-.1675.375-.3742z"/><path d="m11.4035 13.4378-.02-3.45357c-.0012-.20612-.17-.37225-.3771-.37106-.2071.00118-.374.16924-.3728.37536l.02 3.45357c.0011.2061.17.3722.3771.3711.2071-.0012.374-.1693.3728-.3754z"/><path d="m8.63355 9.99215.02 3.44645c.00121.2081.17008.3758.37718.3746.2071-.0013.37402-.1709.37281-.379l-.02-3.44644c-.00121-.2081-.17008-.37581-.37718-.37459-.2071.00121-.37402.17089-.37281.37898z"/></g></g></svg>