<svg fill="none" height="24" viewBox="0 0 24 24" width="24" xmlns="http://www.w3.org/2000/svg"><path clip-rule="evenodd" d="m4.7999 4c-.7732 0-1.4.6268-1.4 1.4v8.4c0 .7732.6268 1.4 1.4 1.4h4.77693c.01544-.0004.03093-.0004.04644 0h9.57663c.7732 0 1.4-.6268 1.4-1.4v-8.4c0-.7732-.6268-1.4-1.4-1.4zm3.357 13.2-1.29333 3.4489c-.19392.5171.06809 1.0935.58521 1.2874.51712.194 1.09353-.0681 1.28745-.5852l1.55667-4.1511h3.5052l1.885 4.1471c.2286.5028.8214.7251 1.3242.4966s.7251-.8214.4966-1.3242l-1.5089-3.3195h3.2049c1.8778 0 3.4-1.5222 3.4-3.4v-8.4c0-1.87777-1.5222-3.4-3.4-3.4h-14.4c-1.87777 0-3.4 1.52223-3.4 3.4v8.4c0 1.8778 1.52223 3.4 3.4 3.4zm3.1919-11.30879c.3899-.38814 1.0202-.3883 1.4104-.00036l2.3458 2.33216c.3916.38939.3934 1.02255.0041 1.41421-.3894.39168-1.0226.39348-1.4143.0041l-.6406-.63697v3.59565c0 .5523-.4477 1-1 1s-1-.4477-1-1v-3.59391l-.7489.74528c-.39144.38963-1.0246.38803-1.41419-.00338-.38959-.39145-.38808-1.02462.00337-1.41421z" fill="currentColor" fill-rule="evenodd"/></svg>