<svg fill="none" height="24" viewBox="0 0 24 24" width="24" xmlns="http://www.w3.org/2000/svg"><path clip-rule="evenodd" d="m17.4954 1.67464c.4006-.38016 1.0336-.36357 1.4137.03705l3.4162 3.6c.3661.38585.3661.99082 0 1.37668l-3.4162 3.60003c-.3801.4006-1.0131.4172-1.4137.037-.4006-.38015-.4172-1.0131-.037-1.41372l1.814-1.91165h-14.4725c-.7732 0-1.4.6268-1.4 1.39999v3.59998c0 .5523-.44771 1-1 1-.55228 0-1-.4477-1-1v-3.59998c0-1.87776 1.52223-3.39999 3.4-3.39999h14.4725l-1.814-1.91166c-.3802-.40062-.3636-1.03357.037-1.41373zm4.1045 9.32536c.5523 0 1 .4477 1 1v3.6c0 1.8778-1.5222 3.4-3.4 3.4h-14.47249l1.81403 1.9117c.38016.4006.36357 1.0336-.03705 1.4137-.40062.3802-1.03356.3636-1.41373-.037l-3.41614-3.6c-.36616-.3859-.36616-.9909 0-1.3767l3.41614-3.6c.38017-.4006 1.01311-.4172 1.41373-.0371.40062.3802.41721 1.0131.03705 1.4138l-1.81403 1.9116h14.47249c.7732 0 1.4-.6268 1.4-1.4v-3.6c0-.5523.4477-1 1-1z" fill="currentColor" fill-rule="evenodd"/></svg>