<svg fill="none" height="24" viewBox="0 0 24 24" width="24" xmlns="http://www.w3.org/2000/svg"><path clip-rule="evenodd" d="m1.3999 5.36299c0-2.18869 1.77428-3.96297 3.96297-3.96297.55228 0 1 .44772 1 1 0 .55229-.44772 1-1 1-1.08412 0-1.96297.87885-1.96297 1.96297 0 .55228-.44771 1-1 1-.55228 0-1-.44772-1-1zm7.46667-2.96297c0-.55228.44771-1 1-1h4.26663c.5523 0 1 .44772 1 1 0 .55229-.4477 1-1 1h-4.26663c-.55229 0-1-.44771-1-1zm8.77033 0c0-.55228.4478-1 1-1 2.1887 0 3.963 1.77428 3.963 3.96297 0 .55228-.4477 1-1 1s-1-.44772-1-1c0-1.08412-.8788-1.96297-1.963-1.96297-.5522 0-1-.44771-1-1zm-15.237 6.46667c.55229 0 1 .44771 1 1v1.13331h6.46667c1.73053 0 3.13333 1.4029 3.13333 3.1334v6.4666h1.1333c.5523 0 1 .4477 1 1s-.4477 1-1 1h-8.5333c-.05338 0-.10652-.001-.15942-.0029-.02561.0019-.0515.0029-.07762.0029-2.18868 0-3.96296-1.7743-3.96296-3.9629 0-.0262.001-.0521.00297-.0777-.00197-.0529-.00297-.106-.00297-.1594v-8.53331c0-.55229.44772-1 1-1zm1 5.26741v4.2659c0 1.215.98498 2.2 2.2 2.2h5.4v-6.4666c0-.626-.5074-1.1334-1.13333-1.1334h-6.46667zm18.2-5.26741c.5523 0 1 .44771 1 1v4.26671c0 .5522-.4477 1-1 1s-1-.4478-1-1v-4.26671c0-.55229.4477-1 1-1zm0 8.77041c.5523 0 1 .4477 1 1 0 2.1886-1.7743 3.9629-3.963 3.9629-.5522 0-1-.4477-1-1s.4478-1 1-1c1.0842 0 1.963-.8788 1.963-1.9629 0-.5523.4477-1 1-1z" fill="currentColor" fill-rule="evenodd"/></svg>