<svg fill="none" height="24" viewBox="0 0 24 24" width="24" xmlns="http://www.w3.org/2000/svg" xmlns:xlink="http://www.w3.org/1999/xlink"><clipPath id="a"><path d="m0 0h24v24h-24z" transform="matrix(0 1 -1 0 24 0)"/></clipPath><g clip-path="url(#a)"><path clip-rule="evenodd" d="m4.79995 3.3999c-1.43594 0-2.6 1.16406-2.6 2.6s1.16406 2.6 2.6 2.6 2.6-1.16406 2.6-2.6-1.16406-2.6-2.6-2.6zm-4.599998 2.6c0-2.54051 2.059488-4.6 4.599998-4.6s4.6 2.05949 4.6 4.6c0 1.64675-.86531 3.09139-2.16604 3.90404l2.27588 1.00316 10.48681-4.62225c.5054-.22275 1.0957.00636 1.3184.51173.2228.50537-.0064 1.09563-.5117 1.31838l-8.8141 3.88494 8.8141 3.8849c.5053.2228.7345.8131.5117 1.3184-.2227.5054-.813.7345-1.3184.5118l-10.48681-4.6223-2.27588 1.0032c1.30073.8126 2.16604 2.2573 2.16604 3.904 0 2.5405-2.05949 4.6-4.6 4.6s-4.599999-2.0595-4.599999-4.6c0-1.9902 1.263879-3.6852 3.032779-4.3261l3.79767-1.6739-3.79767-1.6739c-1.7689-.64093-3.032778-2.33592-3.032778-4.3261zm22.730948 5.2932c.3905.3905.3905 1.0237 0 1.4142l-.0235.0235c-.3906.3905-1.0237.3905-1.4143 0-.3905-.3906-.3905-1.0237.0001-1.4142l.0235-.0235c.3905-.3906 1.0237-.3905 1.4142 0zm-4.8235 0c.3905.3905.3906 1.0237 0 1.4142l-.0234.0235c-.3906.3906-1.0237.3906-1.4143.0001-.3905-.3905-.3905-1.0237 0-1.4142l.0235-.0235c.3905-.3906 1.0237-.3906 1.4142-.0001zm-13.30745 4.1068c-1.43594 0-2.6 1.1641-2.6 2.6s1.16406 2.6 2.6 2.6 2.6-1.1641 2.6-2.6-1.16406-2.6-2.6-2.6z" fill="currentColor" fill-rule="evenodd"/></g></svg>