<svg fill="none" height="24" viewBox="0 0 24 24" width="24" xmlns="http://www.w3.org/2000/svg"><path clip-rule="evenodd" d="m5.68764 4.59998c-1.26348 0-2.28774 1.02425-2.28774 2.28773 0 1.26349 1.02426 2.28774 2.28774 2.28774s2.28774-1.02425 2.28774-2.28774c0-1.26348-1.02426-2.28773-2.28774-2.28773zm-4.28774 2.28773c0-2.36805 1.91969-4.28773 4.28774-4.28773s4.28774 1.91968 4.28774 4.28773c0 .78925-.21325 1.52869-.58526 2.16385l2.48288 2.02524 7.4294-6.05991c.428-.34908 1.0579-.28513 1.407.14284s.2851 1.0579-.1428 1.40698l-7.1115 5.80059 7.1115 5.8005c.4279.3491.4919.9791.1428 1.407-.3491.428-.979.4919-1.407.1429l-7.4294-6.06-2.48288 2.0253c.37201.6352.58526 1.3746.58526 2.1638 0 2.3681-1.91969 4.2878-4.28774 4.2878s-4.28774-1.9197-4.28774-4.2878c0-2.368 1.91969-4.2877 4.28774-4.2877.85172 0 1.64544.2483 2.31269.6766l2.29057-1.8684-2.29057-1.8684c-.66725.4282-1.46097.6766-2.31269.6766-2.36805 0-4.28774-1.91974-4.28774-4.28779zm20.9071 4.77289c.3905.3905.3905 1.0236 0 1.4142l-.0214.0214c-.3905.3906-1.0237.3906-1.4142.0001-.3906-.3905-.3906-1.0237-.0001-1.4142l.0215-.0215c.3905-.3905 1.0236-.3906 1.4142 0zm-4.4051 0c.3906.3905.3906 1.0237.0001 1.4142l-.0215.0215c-.3905.3905-1.0237.3905-1.4142 0s-.3906-1.0236 0-1.4142l.0214-.0214c.3905-.3906 1.0237-.3906 1.4142-.0001zm-12.21426 3.8985c-1.26348 0-2.28774 1.0243-2.28774 2.2877 0 1.2635 1.02426 2.2878 2.28774 2.2878s2.28774-1.0243 2.28774-2.2878c0-1.2634-1.02426-2.2877-2.28774-2.2877z" fill="currentColor" fill-rule="evenodd"/></svg>