<svg fill="none" height="24" viewBox="0 0 24 24" width="24" xmlns="http://www.w3.org/2000/svg"><path clip-rule="evenodd" d="m6.00015 3.40015c-1.43594 0-2.6 1.16406-2.6 2.6s1.16406 2.6 2.6 2.6 2.6-1.16406 2.6-2.6-1.16406-2.6-2.6-2.6zm-4.6 2.6c0-2.54051 2.05949-4.6 4.6-4.6s4.59995 2.05949 4.59995 4.6c0 1.64674-.86527 3.09139-2.166 3.90404l2.2759 1.00311 10.4868-4.62221c.5054-.22275 1.0956.00636 1.3184.51173s-.0064 1.09563-.5117 1.31838l-8.8141 3.8849 8.8141 3.885c.5053.2227.7345.813.5117 1.3184-.2228.5053-.813.7345-1.3184.5117l-10.4868-4.6222-2.2759 1.0031c1.30073.8127 2.166 2.2573 2.166 3.904 0 2.5406-2.05944 4.6-4.59995 4.6s-4.6-2.0594-4.6-4.6c0-1.9901 1.26387-3.6851 3.03277-4.3261l3.79767-1.6739-3.79767-1.6738c-1.7689-.64098-3.03277-2.33597-3.03277-4.32615zm4.6 9.39995c-1.43594 0-2.6 1.1641-2.6 2.6 0 1.436 1.16406 2.6 2.6 2.6s2.6-1.164 2.6-2.6c0-1.4359-1.16406-2.6-2.6-2.6z" fill="currentColor" fill-rule="evenodd"/></svg>