<svg fill="none" height="24" viewBox="0 0 24 24" width="24" xmlns="http://www.w3.org/2000/svg"><path clip-rule="evenodd" d="m3.81772 5.94698c-.36282.32168-.41782.54464-.41782.65302s.055.33134.41782.65302c.36167.32065.94206.6551 1.74508.95624 1.59867.5995 3.8743.99074 6.4371.99074s4.8384-.39124 6.4371-.99074c.803-.30114 1.3834-.63559 1.7451-.95624.3628-.32168.4178-.54464.4178-.65302s-.055-.33134-.4178-.65302c-.3617-.32065-.9421-.6551-1.7451-.95624-1.5987-.5995-3.8743-.99074-6.4371-.99074s-4.83843.39124-6.4371.99074c-.80302.30114-1.38341.63559-1.74508.95624zm16.78218 3.45217c-.4393.25767-.9326.48474-1.4607.68275-1.8758.7035-4.4002 1.1181-7.1393 1.1181-2.73913 0-5.2635-.4146-7.13935-1.1181-.52805-.19801-1.02137-.42508-1.46065-.68275v2.60085c0 .1084.055.3313.41782.653.36167.3207.94206.6551 1.74508.9563 1.59867.5995 3.8743.9907 6.4371.9907s4.8384-.3912 6.4371-.9907c.803-.3012 1.3834-.6356 1.7451-.9563.3628-.3217.4178-.5446.4178-.653zm2-2.79915c0-.88574-.4823-1.60983-1.091-2.14954-.6099-.54075-1.4354-.98204-2.3697-1.33237-1.8758-.70345-4.4002-1.11809-7.1393-1.11809-2.73913 0-5.2635.41464-7.13935 1.11809-.93423.35033-1.75973.79162-2.36964 1.33237-.60874.53971-1.09101 1.2638-1.09101 2.14954v10.8c0 .8857.48227 1.6098 1.09101 2.1495.60991.5408 1.43541.9821 2.36964 1.3324 1.87585.7035 4.40022 1.1181 7.13935 1.1181 2.7391 0 5.2635-.4146 7.1393-1.1181.9343-.3503 1.7598-.7916 2.3697-1.3324.6087-.5397 1.091-1.2638 1.091-2.1495zm-2 8.1991c-.4393.2577-.9326.4848-1.4607.6828-1.8758.7035-4.4002 1.1181-7.1393 1.1181-2.73913 0-5.2635-.4146-7.13935-1.1181-.52805-.198-1.02137-.4251-1.46065-.6828v2.6009c0 .1084.055.3313.41782.653.36167.3207.94206.6551 1.74508.9563 1.59867.5995 3.8743.9907 6.4371.9907s4.8384-.3912 6.4371-.9907c.803-.3012 1.3834-.6356 1.7451-.9563.3628-.3217.4178-.5446.4178-.653z" fill="currentColor" fill-rule="evenodd"/></svg>