<svg fill="none" height="24" viewBox="0 0 24 24" width="24" xmlns="http://www.w3.org/2000/svg"><path clip-rule="evenodd" d="m7.09992 6.80005h1.53107c.07282-1.16016.27134-2.23872.57248-3.14548-1.06564.72026-1.83868 1.84061-2.10355 3.14548zm4.89998-6.000001c-3.86599 0-7 3.134011-7 7.000001 0 3.86595 3.13401 6.99995 7 6.99995 3.866 0 7-3.134 7-6.99995 0-3.86599-3.134-7.000001-7-7.000001zm0 2.000781c-.022.00612-.0916.03515-.2076.15784-.1714.18115-.3717.49696-.561.97013-.2935.7339-.5133 1.72794-.5958 2.87125h2.7288c-.0825-1.14331-.3023-2.13735-.5958-2.87125-.1893-.47317-.3896-.78898-.561-.97013-.116-.12269-.1856-.15172-.2076-.15784zm3.3689 3.99922c-.0728-1.16016-.2713-2.23872-.5725-3.14548 1.0657.72026 1.8387 1.84061 2.1036 3.14548zm-2.0045 2h-2.7288c.0825 1.14331.3023 2.13735.5958 2.87125.1893.4732.3896.789.561.9701.116.1227.1856.1517.2076.1579.022-.0062.0916-.0352.2076-.1579.1714-.1811.3717-.4969.561-.9701.2935-.7339.5133-1.72794.5958-2.87125zm-4.16083 3.14545c-.30113-.9067-.49966-1.9853-.57248-3.14545h-1.53107c.26488 1.30485 1.03791 2.42525 2.10355 3.14545zm5.59283 0c.3012-.9067.4997-1.9853.5725-3.14545h1.5311c-.2649 1.30485-1.0379 2.42525-2.1036 3.14545zm-2.7964 6.4545c-.7732 0-1.4.6268-1.4 1.4s.6268 1.4001 1.4 1.4001 1.4-.6269 1.4-1.4001-.6268-1.4-1.4-1.4zm-3.25056.4c.42703-1.3897 1.72086-2.4 3.25056-2.4s2.8235 1.0103 3.2506 2.4h6.3494c.5523 0 1 .4478 1 1 0 .5523-.4477 1-1 1h-6.3494c-.4271 1.3898-1.7209 2.4001-3.2506 2.4001s-2.82353-1.0103-3.25056-2.4001h-6.34944c-.55228 0-1-.4477-1-1 0-.5522.44772-1 1-1z" fill="currentColor" fill-rule="evenodd"/></svg>