<svg fill="none" height="24" viewBox="0 0 24 24" width="24" xmlns="http://www.w3.org/2000/svg"><path clip-rule="evenodd" d="m6.76738 4c-.66735 0-1.24193.47104-1.37281 1.12544l-1.22574 6.12866c.88206-.5417 1.92013-.8541 3.03118-.8541h9.60019c.9712 0 1.8867.2387 2.6909.6607l-1.425-5.98497c-.1501-.63065-.7136-1.07573-1.3619-1.07573zm15.81742 11.7744c.0232-.1308.0206-.2685-.0121-.406l-2.561-10.75591c-.3646-1.53159-1.7331-2.61249-3.3075-2.61249h-9.93682c-1.62072 0-3.01613 1.14397-3.33397 2.73321l-2.01414 10.07069c-.03777.1888-.01966.3758.04289.544-.04095.2781-.06216.5627-.06215.8523.0001 3.2032 2.59682 5.7998 5.8 5.7998h9.60019c3.2032 0 5.8-2.5967 5.8-5.8 0-.1431-.0052-.2851-.0154-.4256zm-15.38479-3.3744c-2.09873 0-3.80007 1.7014-3.8 3.8001s1.70136 3.7999 3.8 3.7999h9.60019c2.0986 0 3.8-1.7013 3.8-3.8s-1.7014-3.8-3.8-3.8zm-.60016 2.8c.55229 0 1 .4477 1 1v.0902c0 .5523-.44771 1-1 1-.55228 0-1-.4477-1-1v-.0902c0-.5523.44772-1 1-1zm3.80005 1c0-.5523.4477-1 .9999-1h6.0001c.5522 0 1 .4477 1 1s-.4478 1-1 1h-6.0001c-.5522 0-.9999-.4477-.9999-1z" fill="currentColor" fill-rule="evenodd"/></svg>