<svg fill="none" height="24" viewBox="0 0 24 24" width="24" xmlns="http://www.w3.org/2000/svg"><g clip-rule="evenodd" fill="currentColor" fill-rule="evenodd"><path d="m12 9c1.6569 0 3 1.3431 3 3s-1.3431 3-3 3-3-1.3431-3-3 1.3431-3 3-3zm0 2c-.5523 0-1 .4477-1 1s.4477 1 1 1 1-.4477 1-1-.4477-1-1-1z"/><path d="m9.3541 4.07148c.6811-2.76468 4.619-2.76197 5.2938.00812l.0112.04591c.0291.09412.0772.18147.1415.25656.0741.08657.1676.15441.2729.198.1052.04359.2193.06171.3329.05286.1136-.00884.2235-.04439.3208-.10374l.0003-.00018.0003-.00018c2.4388-1.48599 5.2297 1.30472 3.7436 3.74359l-.0002.0003-.0001.00029c-.0594.09726-.095.20717-.1038.32076-.0088.1136.0093.22768.0529.33295s.1114.19876.198.27285c.0865.07408.1893.12667.3.15351 2.7769.67242 2.7742 4.62022.001 5.29392-.1108.0269-.2137.0796-.3003.1538-.0865.0742-.1544.1677-.198.2731-.0436.1053-.0618.2194-.053.3331.0088.1136.0443.2235.1035.3209l.0044.0071c1.4763 2.4372-1.3116 5.221-3.748 3.7365-.0973-.0593-.2073-.0947-.3209-.1035-.1137-.0088-.2278.0093-.3331.0529-.1054.0437-.1989.1115-.2731.1981s-.1269.1894-.1538.3002c-.6732 2.7761-4.6205 2.7729-5.29385-.0004l-.00005-.0002-.00006-.0003c-.02683-.1107-.07943-.2135-.15353-.3001-.07409-.0866-.16759-.1544-.27286-.198-.10528-.0436-.21937-.0617-.33297-.0529-.11361.0089-.22352.0444-.32078.1038l-.0003.0002-.0003.0002c-2.43876 1.4859-5.22971-1.3048-3.74361-3.7436l.00018-.0003.00018-.0003c.05936-.0973.0949-.2072.10374-.3208.00885-.1136-.00927-.2277-.05286-.3329-.04359-.1053-.11143-.1988-.19799-.2729s-.18941-.1267-.30015-.1535c-2.77697-.6726-2.77404-4.6206-.00049-5.29398.47437-.11546.70052-.65831.45041-1.0758l-.00296-.0049-.00003-.00005-.00003-.00005c-1.48608-2.43883 1.30477-5.22949 3.7435-3.74367.09728.05926.20718.09472.32075.10348.11358.00876.22762-.00941.33284-.05305.10522-.04363.19865-.11149.27269-.19805.07404-.08657.12659-.18939.15339-.30009l.00017-.00072.00018-.00072zm3.3384.43663c-.2105-.69211-1.2213-.67716-1.3972.04483-.101.41619-.2987.80271-.577 1.12817-.2787.32584-.6304.58127-1.0265.74552-.39606.16424-.82531.23266-1.2528.19967-.4275-.03298-.84117-.16643-1.20735-.38948l-.00006-.00004-.00006-.00003c-.64831-.39503-1.38992.34673-.99509.99488l.00561.00924c.95121 1.57412.09944 3.62123-1.68874 4.05583h-.00012l-.00012.0001c-.73733.179-.73589 1.2244-.00489 1.4055l.0043.0011h.0001c.41685.101.80395.299 1.1298.5779.32584.2789.5812.6308.74529 1.0271.1641.3963.23228.8257.19899 1.2533-.03326.4274-.16695.8409-.39016 1.2069-.39419.6469.3438 1.3871.99123.9972l.0038-.0023c.36597-.2232.77946-.3569 1.20684-.3901.42762-.0333.85704.0349 1.25332.199.39631.164.74821.4194 1.02711.7452.2788.3258.4768.7127.5778 1.1293.1794.7388 1.2286.7359 1.4067.0006l.0001-.0005.0001-.0004c.1013-.4166.2995-.8033.5784-1.1288.2789-.3256.6306-.5807 1.0267-.7447s.8252-.2322 1.2526-.1992c.4241.0328.8345.1645 1.1985.3843l.0086.0052.0001.0001h.0001c.6483.3951 1.39-.3468.995-.9949l-.0001-.0002c-.223-.3661-.3564-.7797-.3895-1.2071s.0351-.8565.1991-1.2526c.1641-.3961.4192-.7478.7447-1.0267.3256-.2789.7123-.4771 1.1289-.5784h.0001l.0002-.0001c.7388-.1793.7359-1.2285.0006-1.4066h-.0001c-.4168-.101-.8039-.299-1.1298-.5779-.3258-.2789-.5812-.6308-.7453-1.02712-.1641-.39627-.2322-.8257-.199-1.25331.0333-.42742.167-.84095.3903-1.20694.3948-.64815-.3468-1.38991-.9951-.99488-.366.22321-.7795.35689-1.2069.39015-.4276.03329-.857-.03489-1.2533-.19898s-.7482-.41945-1.0271-.74528c-.2789-.32584-.4769-.71294-.5779-1.12979z"/></g></svg>