<svg fill="none" height="24" viewBox="0 0 24 24" width="24" xmlns="http://www.w3.org/2000/svg"><path clip-rule="evenodd" d="m10.927 4.21903c.3245-.17425.7184-.15608 1.0254.04729l9.6 6.35898c.2734.1811.4406.4847.4476.8126.0069.3278-.1473.6382-.4128.8307l-9.6 6.961c-.3043.2206-.7066.252-1.0414.0812s-.5456-.5149-.5456-.8908v-2.7692c-1.68379.0489-3.20141.8251-4.40018 1.7242-.6923.5192-1.24914 1.0583-1.6325 1.4678-.19099.204-.33707.3739-.43353.4903-.04819.0581-.08386.1027-.10641.1314l-.02389.0307-.00369.0048c-.25834.3439-.70814.4847-1.11623.3487-.40834-.1361-.68377-.5183-.68377-.9487h1c-1 0-1-.0005-1-.0011v-.0012l.00001-.0032.00005-.0085.00033-.0262c.00034-.0215.00099-.0508.00221-.0876.00243-.0736.00715-.1772.01627-.3068.01823-.2591.05416-.6242.12508-1.0649.1414-.8786.42446-2.0744.99471-3.3371 1.08455-2.4014 3.20856-5.02915 7.26154-6.14788v-2.81551c0-.36827.2024-.70673.5268-.88098zm-6.38655 11.75557c.08452-.0666.17106-.1332.25958-.1996 1.59666-1.1975 3.95638-2.4132 6.72417-2.0673.5004.0626.876.488.876.9923v1.7597l6.8452-4.9635-6.8452-4.53431v1.73812c0 .47154-.3294.879-.7905.9778-3.82892.82049-5.70125 3.11179-6.64831 5.20879-.16771.3713-.30636.7371-.42094 1.088z" fill="currentColor" fill-rule="evenodd"/></svg>