<svg fill="none" height="24" viewBox="0 0 24 24" width="24" xmlns="http://www.w3.org/2000/svg"><path clip-rule="evenodd" d="m11.3527 2.23353c.3865-.3692.995-.36919 1.3815 0l4.7999 4.58515c.3994.38149.4139 1.01449.0324 1.41385s-1.0145.41384-1.4138.03236l-3.1092-2.97007v9.66178c0 .5523-.4478 1-1 1-.5523 0-1-.4477-1-1v-9.6618l-3.1093 2.97009c-.39936.38148-1.03236.36699-1.41385-.03237-.38148-.39936-.36699-1.03235.03237-1.41384zm-7.7526 11.98627c.55228 0 1 .4477 1 1v3.7059c0 .2991.11791.5843.32513.7933.20695.2087.48584.3244.77487.3244h12.6c.289 0 .5679-.1157.7749-.3244.2072-.209.3251-.4942.3251-.7933v-3.7059c0-.5523.4477-1 1-1s1 .4477 1 1v3.7059c0 .8242-.3246 1.6162-.905 2.2016-.5807.5855-1.3701.9161-2.195.9161h-12.6c-.82489 0-1.61428-.3306-2.19499-.9161-.58042-.5854-.90501-1.3774-.90501-2.2016v-3.7059c0-.5523.44771-1 1-1z" fill="currentColor" fill-rule="evenodd"/></svg>