<svg fill="none" height="24" viewBox="0 0 24 24" width="24" xmlns="http://www.w3.org/2000/svg"><path clip-rule="evenodd" d="m12.8945 3.96523c-.5631-.28152-1.2258-.28152-1.7889 0l-5.30555 2.65279v7.40998c0 .6925.41813 1.612 1.57796 2.8052 1.04953 1.0797 2.59442 2.2685 4.62409 3.5814 2.0608-1.3126 3.5964-2.367 4.6418-3.3782 1.1068-1.0706 1.5562-1.9887 1.5562-3.0084v-7.40998zm7.3056 2.03482v8.02795c0 1.7523-.8319 3.1557-2.1657 4.4459-1.3065 1.2638-3.1954 2.5159-5.5004 3.9716-.3262.206-.7417.206-1.0679 0-2.34415-1.4804-4.22098-2.8796-5.52221-4.2183-1.28077-1.3176-2.14384-2.7197-2.14384-4.1992v-8.02801c0-.37877.214-.72504.55279-.89443l5.85836-2.92918c1.1261-.56305 2.4516-.56305 3.5777 0l5.8584 2.92918c.3387.16939.5528.51572.5528.89449z" fill="currentColor" fill-rule="evenodd"/></svg>