<svg fill="none" height="24" viewBox="0 0 24 24" width="24" xmlns="http://www.w3.org/2000/svg"><path clip-rule="evenodd" d="m8.36561 3.49926c.27654.47806.11318 1.08979-.36488 1.36633-2.39382 1.38475-4.00073 3.97048-4.00073 6.93031 0 2.9599 1.60691 5.5456 4.00073 6.9304.47806.2765.64142.8883.36488 1.3663-.27655.4781-.88827.6415-1.36634.3649-2.98639-1.7275-4.99927-4.9589-4.99927-8.6616 0-3.70263 2.01288-6.93399 4.99927-8.66152.47807-.27655 1.08979-.11318 1.36634.36488zm7.26879 0c.2765-.47806.8883-.64143 1.3663-.36488 2.9864 1.72753 4.9993 4.95889 4.9993 8.66152 0 3.7027-2.0129 6.9341-4.9993 8.6616-.478.2766-1.0898.1132-1.3663-.3649-.2765-.478-.1132-1.0898.3649-1.3663 2.3938-1.3848 4.0007-3.9705 4.0007-6.9304 0-2.95983-1.6069-5.54556-4.0007-6.93031-.4781-.27654-.6414-.88827-.3649-1.36633zm-4.9402 3.87396c.268.48292.0937 1.09164-.3892 1.3596-1.07861.5985-1.805 1.74668-1.805 3.06308 0 1.3165.72639 2.4647 1.805 3.0632.4829.2679.6572.8766.3892 1.3596-.268.4829-.87667.6571-1.35959.3892-1.6883-.9368-2.83461-2.7398-2.83461-4.812 0-2.07208 1.14631-3.87509 2.83461-4.81189.48292-.26797 1.09159-.09371 1.35959.38921zm2.6116 0c.268-.48292.8767-.65718 1.3596-.38921 1.6883.9368 2.8346 2.73981 2.8346 4.81189 0 2.0722-1.1463 3.8752-2.8346 4.812-.4829.2679-1.0916.0937-1.3596-.3892-.268-.483-.0937-1.0917.3892-1.3596 1.0786-.5985 1.805-1.7467 1.805-3.0632 0-1.3164-.7264-2.46458-1.805-3.06308-.4829-.26796-.6572-.87668-.3892-1.3596zm-2.3585 4.42268c0-.5522.4477-1 1-1h.0527c.5523 0 1 .4478 1 1 0 .5523-.4477 1-1 1h-.0527c-.5523 0-1-.4477-1-1z" fill="currentColor" fill-rule="evenodd"/></svg>