<svg fill="none" height="24" viewBox="0 0 24 24" width="24" xmlns="http://www.w3.org/2000/svg"><path clip-rule="evenodd" d="m18 4.23169-7.6878 7.76831 7.6878 7.7683zm-7.7891 7.87071.0003-.0003zm6.6423-9.55513c1.1739-1.1862 3.1468-.32412 3.1468 1.30448v16.29655c0 1.6286-1.9729 2.4907-3.1468 1.3044l-8.06383-8.1482c-.71415-.7216-.71415-1.8873 0-2.609zm-11.8532.30448c.55229 0 1 .44771 1 1v16.29655c0 .5523-.44772 1-1 1s-1-.4477-1-1v-16.29655c0-.55229.44772-1 1-1z" fill="currentColor" fill-rule="evenodd"/></svg>