<svg fill="none" height="24" viewBox="0 0 24 24" width="24" xmlns="http://www.w3.org/2000/svg"><path clip-rule="evenodd" d="m4 3.85175c0-1.62859 1.97293-2.49069 3.14684-1.30448l8.06376 8.14823c.7142.7217.7142 1.8874 0 2.609l-8.06376 8.1482c-1.17391 1.1863-3.14684.3242-3.14684-1.3044zm2 .37995v15.5366l7.6878-7.7683zm7.7891 7.8707c-.0001-.0002-.0002-.0003-.0004-.0004zm5.2109-9.25065c.5523 0 1 .44771 1 1v16.29655c0 .5523-.4477 1-1 1s-1-.4477-1-1v-16.29655c0-.55229.4477-1 1-1z" fill="currentColor" fill-rule="evenodd"/></svg>