<svg fill="none" height="24" viewBox="0 0 24 24" width="24" xmlns="http://www.w3.org/2000/svg"><path clip-rule="evenodd" d="m11.9999 3.40002c-4.74965 0-8.6 3.85035-8.6 8.59998 0 4.7497 3.85035 8.6 8.6 8.6 4.7496 0 8.6-3.8503 8.6-8.6 0-4.74963-3.8504-8.59998-8.6-8.59998zm-10.6 8.59998c0-5.85419 4.74578-10.59998 10.6-10.59998 5.8542 0 10.6 4.74579 10.6 10.59998 0 5.8542-4.7458 10.6-10.6 10.6-5.85422 0-10.6-4.7458-10.6-10.6zm5.4-2.99998c0-.55228.44772-1 1-1h1.99851c.55229 0 .99999.44772.99999 1 0 .55229-.4477.99998-.99999.99998h-1.99851c-.55228 0-1-.44769-1-.99998zm7.08 0c0-.55228.4477-1 1-1h.085c.5523 0 1 .44772 1 1v.07688c0 .55228-.4477 1-1 1h-.085c-.5523 0-1-.44772-1-1zm-5.73445 4.94888c.4696-.2907 1.08593-.1457 1.37661.3239.53014.8565 1.44794 1.4072 2.47774 1.4072s1.9477-.5507 2.4778-1.4072c.2907-.4696.907-.6146 1.3766-.3239s.6146.907.324 1.3766c-.8698 1.4051-2.4098 2.3545-4.1784 2.3545-1.7685 0-3.30855-.9494-4.17831-2.3545-.29068-.4696-.14564-1.0859.32396-1.3766z" fill="currentColor" fill-rule="evenodd"/></svg>