<svg fill="none" height="24" viewBox="0 0 24 24" width="24" xmlns="http://www.w3.org/2000/svg"><path clip-rule="evenodd" d="m19.8161 1c.5523 0 1 .44772 1 1v2.31494h2.1839c.5523 0 1 .44772 1 1 0 .55229-.4477 1-1 1h-2.1839v2.28566c0 .55228-.4477 1-1 1s-1-.44772-1-1v-2.28566h-2.24c-.5523 0-1-.44771-1-1 0-.55228.4477-1 1-1h2.24v-2.31494c0-.55228.4477-1 1-1zm-19.8161 13.0749c0-5.46739 4.37059-9.9251 9.79321-9.9251 1.17709 0 2.30759.2109 3.35539.59813.5938.21948.929.74911 1.0056 1.26345.3336 2.24 1.9499 4.04532 4.0491 4.63052.512.1428.9842.5515 1.1249 1.1602.1691.7309.2582 1.4919.2582 2.2728 0 5.4674-4.3706 9.9251-9.79319 9.9251-5.42262 0-9.79321-4.4577-9.79321-9.9251zm9.79321-7.9251c-4.29009 0-7.79321 3.5341-7.79321 7.9251s3.50312 7.9251 7.79321 7.9251 7.79319-3.5341 7.79319-7.9251c0-.5404-.053-1.0672-.1538-1.5757-2.6753-.8407-4.7088-3.13338-5.2182-5.95975-.7611-.25273-1.5746-.38965-2.42119-.38965zm-3.56395 4.7927c0-.5523.44771-1 1-1h.09087c.55228 0 1 .4477 1 1v.0743c0 .5523-.44772 1-1 1h-.09087c-.55229 0-1-.4477-1-1zm5.47374 0c0-.5523.4477-1 1-1h.0808c.5523 0 1 .4477 1 1v.0743c0 .5523-.4477 1-1 1h-.0808c-.5523 0-1-.4477-1-1zm-5.37856 4.052c.47177-.2872 1.08699-.1375 1.37415.3342.49896.8197 1.35621 1.3376 2.30851 1.3376.9522 0 1.8095-.5179 2.3084-1.3376.2872-.4717.9024-.6214 1.3742-.3342.4717.2871.6214.9024.3342 1.3741-.8313 1.3658-2.3098 2.2977-4.0168 2.2977-1.70703 0-3.18554-.9319-4.0169-2.2977-.28716-.4717-.13752-1.087.33424-1.3741z" fill="currentColor" fill-rule="evenodd"/></svg>