<svg fill="none" height="24" viewBox="0 0 24 24" width="24" xmlns="http://www.w3.org/2000/svg"><path clip-rule="evenodd" d="m1.3999 2.40002c0-.55228.44772-1 1-1l19.2.00001c.5523 0 1 .44771 1 .99999 0 .55229-.4477 1.00001-1 1.00001l-19.2-.00001c-.55228 0-1-.44771-1-1zm10.6 2.60001c.2674 0 .5237.1071.7116.29738l2.4 2.43055c.388.39299.384 1.02614-.009 1.41419-.393.38804-1.0261.38404-1.4142-.00895l-.6884-.6972v7.128l.6884-.6972c.3881-.3929 1.0212-.3969 1.4142-.0089s.397 1.0212.009 1.4142l-2.4 2.4305c-.1879.1903-.4442.2974-.7116.2974s-.5237-.1071-.7116-.2974l-2.39996-2.4305c-.38805-.393-.38404-1.0262.00894-1.4142.39299-.388 1.02614-.384 1.41422.0089l.6884.6972v-7.128l-.6884.6972c-.38808.39299-1.02123.39699-1.41422.00895-.39298-.38805-.39699-1.0212-.00894-1.41419l2.39996-2.43055c.1879-.19028.4442-.29738.7116-.29738zm-10.6 16.59997c0-.5523.44772-1 1-1h19.2c.5523 0 1 .4477 1 1s-.4477 1-1 1h-19.2c-.55228 0-1-.4477-1-1z" fill="currentColor" fill-rule="evenodd"/></svg>