<svg fill="none" height="24" viewBox="0 0 24 24" width="24" xmlns="http://www.w3.org/2000/svg"><path clip-rule="evenodd" d="m2.3999 1.40002c.55229 0 1 .44772 1 1v19.19998c0 .5523-.44771 1-1 1-.55228 0-1-.4477-1-1v-19.19998c0-.55228.44772-1 1-1zm7.8 2c-.7732 0-1.4.62681-1.4 1.4v14.39998c0 .7732.6268 1.4 1.4 1.4h3.6c.7732 0 1.4-.6268 1.4-1.4v-14.39998c0-.77319-.6268-1.4-1.4-1.4zm-3.4 1.4c0-1.87776 1.52223-3.4 3.4-3.4h3.6c1.8778.00001 3.4 1.52224 3.4 3.4v14.39998c0 1.8778-1.5222 3.4-3.4 3.4h-3.6c-1.87777 0-3.4-1.5222-3.4-3.4zm14.8-3.39999c.5523 0 1 .44771 1 .99999v19.19998c0 .5523-.4477 1-1 1s-1-.4477-1-1v-19.19998c0-.55228.4477-.99999 1-.99999z" fill="currentColor" fill-rule="evenodd"/></svg>