<svg fill="none" height="24" viewBox="0 0 24 24" width="24" xmlns="http://www.w3.org/2000/svg"><path clip-rule="evenodd" d="m2.3999 1.40002c.55229 0 1 .44772 1 1v19.19998c0 .5523-.44771 1-1 1-.55228 0-1-.4477-1-1v-19.19998c0-.55228.44772-1 1-1zm19.2 0c.5523 0 1 .44772 1 1v19.19998c0 .5523-.4477 1-1 1s-1-.4477-1-1v-19.19998c0-.55228.4477-1 1-1zm-12.45788 7.49738c.38805.39299.38404 1.02614-.00894 1.4142l-.6972.6884h7.12802l-.6972-.6884c-.393-.38806-.397-1.02121-.0089-1.4142.388-.39298 1.0212-.39699 1.4142-.00894l2.4305 2.40004c.1903.1878.2974.4441.2974.7115s-.1071.5237-.2974.7116l-2.4305 2.4c-.393.388-1.0262.384-1.4142-.009-.3881-.3929-.3841-1.0261.0089-1.4141l.6972-.6885h-7.12802l.6972.6885c.39298.388.39699 1.0212.00894 1.4141-.38804.393-1.0212.397-1.41418.009l-2.43056-2.4c-.19028-.1879-.29738-.4442-.29738-.7116s.1071-.5237.29738-.7115l2.43056-2.40004c.39298-.38805 1.02614-.38404 1.41418.00894z" fill="currentColor" fill-rule="evenodd"/></svg>