<svg fill="none" height="24" viewBox="0 0 24 24" width="24" xmlns="http://www.w3.org/2000/svg"><path clip-rule="evenodd" d="m14.8234 1.40002c.4185 0 .7927.26053.9379.65297l1.6707 4.51497 4.5149 1.67068c.3925.14522.653.51941.653.93786 0 .41844-.2605.79263-.653.9378l-4.5149 1.6707-1.6707 4.515c-.1452.3924-.5194.653-.9379.653-.4184 0-.7926-.2606-.9378-.653l-1.6707-4.515-4.51498-1.6707c-.39243-.14517-.65296-.51936-.65296-.9378 0-.41845.26053-.79264.65296-.93786l4.51498-1.67068 1.6707-4.51497c.1452-.39244.5194-.65297.9378-.65297zm0 3.88155-.8924 2.4117c-.1013.27372-.3171.48953-.5908.59081l-2.4117.89242 2.4117.8924c.2737.1013.4895.3171.5908.5908l.8924 2.4117.8924-2.4117c.1013-.2737.3171-.4895.5909-.5908l2.4117-.8924-2.4117-.89242c-.2738-.10128-.4896-.31709-.5909-.59081zm-8.47056 7.41253c.33131 0 .64111.1641.82725.4382l1.49148 2.1961 2.19603 1.4914c.2741.1862.4382.496.4382.8273s-.1641.6411-.4382.8272l-2.19603 1.4915-1.49148 2.1961c-.18614.274-.49594.4381-.82725.4381-.3313 0-.6411-.1641-.82724-.4381l-1.49148-2.1961-2.19605-1.4915c-.27408-.1861-.43817-.4959-.43817-.8272s.16409-.6411.43817-.8273l2.19605-1.4914 1.49148-2.1961c.18614-.2741.49594-.4382.82724-.4382zm0 2.7799-.77157 1.1361c-.07093.1044-.16099.1945-.26542.2654l-1.13607.7716 1.13607.7716c.10443.0709.19449.1609.26542.2654l.77157 1.136.77158-1.136c.07093-.1045.16098-.1945.26541-.2654l1.13608-.7716-1.13608-.7716c-.10443-.0709-.19448-.161-.26541-.2654z" fill="currentColor" fill-rule="evenodd"/></svg>