<svg fill="none" height="24" viewBox="0 0 24 24" width="24" xmlns="http://www.w3.org/2000/svg"><path clip-rule="evenodd" d="m9.95305 2.82511c.70315-1.900111 3.39055-1.900118 4.09375 0l1.8961 5.12414c.0184.04995.0578.08934.1078.10782l5.1241 1.8961c1.9001.70313 1.9001 3.39063 0 4.09373l-5.1241 1.8961c-.05.0185-.0894.0578-.1078.1078l-1.8961 5.1241c-.7031 1.9002-3.3906 1.9002-4.09375 0l-1.8961-5.1241c-.01849-.05-.05787-.0893-.10782-.1078l-5.12414-1.8961c-1.900114-.7031-1.90012-3.3906 0-4.09373l5.12414-1.8961c.04995-.01848.08933-.05787.10782-.10782zm1.94035.60391c-.0191.0125-.0442.03492-.0646.09016l-1.89615 5.12414c-.22105.59739-.69206 1.0684-1.28945 1.28945l-5.12414 1.89613c-.05524.0204-.07766.0456-.09016.0646-.01608.0245-.029.0615-.029.1065 0 .0451.01292.0821.029.1065.0125.0191.03492.0442.09016.0647l5.12414 1.8961c.59739.221 1.0684.692 1.28945 1.2894l1.89615 5.1242c.0204.0552.0455.0776.0646.0901.0245.0161.0614.029.1065.029s.082-.0129.1065-.029c.0191-.0125.0442-.0349.0647-.0901l1.8961-5.1242c.221-.5974.692-1.0684 1.2894-1.2894l5.1241-1.8961c.0553-.0205.0777-.0456.0902-.0647.0161-.0244.029-.0614.029-.1065 0-.045-.0129-.082-.029-.1065-.0125-.019-.0349-.0442-.0902-.0646l-5.1241-1.89613c-.5974-.22105-1.0684-.69206-1.2894-1.28945l-1.8961-5.12414c-.0205-.05524-.0456-.07766-.0647-.09016-.0245-.01607-.0614-.029-.1065-.029s-.082.01293-.1065.029z" fill="currentColor" fill-rule="evenodd"/></svg>