<svg fill="none" height="24" viewBox="0 0 24 24" width="24" xmlns="http://www.w3.org/2000/svg"><path clip-rule="evenodd" d="m10.5982 2.27137c.5734-1.16179 2.2301-1.16179 2.8035 0l2.5723 5.21216 5.752.83581c1.2821.18631 1.794 1.76186.8663 2.66626l-4.1622 4.0571.9826 5.7287c.219 1.2769-1.1213 2.2507-2.268 1.6478l-5.1448-2.7047-5.14467 2.7047c-1.14676.6029-2.48704-.3709-2.26803-1.6478l.98256-5.7287-4.16217-4.0571c-.927742-.9044-.4158-2.47995.86631-2.66626l5.75197-.83581zm1.4017 1.67891-2.2822 4.62434c-.22769.46135-.66782.78112-1.17695.8551l-5.10326.74158 3.69276 3.5995c.3684.3591.53652.8765.44955 1.3836l-.87174 5.0826 4.56454-2.3997c.4553-.2394.9994-.2394 1.4547 0l4.5645 2.3997-.8717-5.0826c-.087-.5071.0811-1.0245.4495-1.3836l3.6928-3.5995-5.1033-.74158c-.5091-.07398-.9492-.39375-1.1769-.8551z" fill="currentColor" fill-rule="evenodd"/></svg>