<svg fill="none" height="24" viewBox="0 0 24 24" width="24" xmlns="http://www.w3.org/2000/svg"><path clip-rule="evenodd" d="m8.4999 2c0-.55228.44772-1 1-1h5c.5523 0 1 .44772 1 1s-.4477 1-1 1h-5c-.55228 0-1-.44772-1-1zm9.8885.80594c.3906-.39053 1.0237-.39053 1.4143 0l2.5043 2.50434c.3905.39053.3905 1.02369 0 1.41422-.3905.39052-1.0237.39052-1.4142 0l-.5451-.54507-1.0823 1.08231c1.3948 1.66676 2.2345 3.81936 2.2345 6.16686 0 1.1351-.1966 2.2263-.5582 3.2395-.1857.5201-.7578.7913-1.278.6056-.5201-.1857-.7913-.7578-.6056-1.278.2856-.8002.4418-1.6641.4418-2.5671 0-4.18952-3.3657-7.57146-7.5-7.57146-.9325 0-1.8232.17135-2.64441.48377-.51618.19639-1.09384-.06286-1.29023-.57904-.19639-.51619.06286-1.09385.57905-1.29024 1.04459-.39742 2.17609-.61449 3.35559-.61449 2.1987 0 4.2207.7517 5.829 2.01272l1.1046-1.10464-.5451-.54507c-.3905-.39052-.3905-1.02369 0-1.41421zm-16.6956.17391c.39052-.39052 1.02368-.39052 1.41421 0l18.59999 18.59995c.3905.3906.3905 1.0237 0 1.4143-.3905.3905-1.0237.3905-1.4142 0l-2.2117-2.2118c-1.6466 1.3835-3.768 2.2177-6.0812 2.2177-5.25458 0-9.5-4.2932-9.5-9.5714 0-2.2972.80453-4.40864 2.14558-6.05919.00339-.00417.00681-.00831.01025-.01241l-2.96293-2.96294c-.39053-.39052-.39053-1.02369 0-1.41421zm4.38631 5.80053c-.98964 1.28262-1.57921 2.89422-1.57921 4.64822 0 4.1895 3.36574 7.5714 7.5 7.5714 1.7612 0 3.3795-.6117 4.6602-1.6386z" fill="currentColor" fill-rule="evenodd"/></svg>