<svg fill="none" height="24" viewBox="0 0 24 24" width="24" xmlns="http://www.w3.org/2000/svg"><path clip-rule="evenodd" d="m8.22403 2c0-.55228.44771-1 1-1h4.93507c.5523 0 1 .44772 1 1s-.4477 1-1 1h-4.93507c-.55229 0-1-.44772-1-1zm9.90327 1.37082c.3905-.39053 1.0237-.39053 1.4142 0l2.3377 2.33766c.3905.39052.3905 1.02369 0 1.41421-.3905.39053-1.0237.39053-1.4142 0l-.4618-.46172-.7435.7435c1.3339 1.64501 2.1332 3.74123 2.1332 6.02413 0 5.2861-4.2853 9.5714-9.5715 9.5714-5.28613 0-9.5714-4.2853-9.5714-9.5714 0-5.28618 4.28527-9.57146 9.5714-9.57146 2.2829 0 4.3791.79922 6.0241 2.13312l.7435-.74351-.4617-.46172c-.3905-.39053-.3905-1.02369 0-1.41421zm-6.3059 2.48632c-4.18156 0-7.5714 3.38985-7.5714 7.57146 0 4.1816 3.38984 7.5714 7.5714 7.5714 4.1816 0 7.5715-3.3898 7.5715-7.5714 0-4.18161-3.3899-7.57146-7.5715-7.57146zm1.6568 4.39676c.3905.3906.3905 1.0237 0 1.4142l-.9731.9731.9731.9731c.3905.3905.3905 1.0237 0 1.4142l-1.6802 1.6802c-.3905.3906-1.0237.3906-1.4142 0-.39052-.3905-.39052-1.0237 0-1.4142l.9731-.9731-.9731-.9731c-.39052-.3905-.39052-1.0236 0-1.4142l1.6802-1.6802c.3905-.39049 1.0237-.39049 1.4142 0z" fill="currentColor" fill-rule="evenodd"/></svg>