<svg fill="none" height="24" viewBox="0 0 24 24" width="24" xmlns="http://www.w3.org/2000/svg"><path clip-rule="evenodd" d="m8.5 2c0-.55228.44772-1 1-1h5c.5523 0 1 .44772 1 1s-.4477 1-1 1h-5c-.55228 0-1-.44772-1-1zm9.8885.80594c.3906-.39053 1.0237-.39053 1.4143 0l2.5043 2.50435c.3905.39052.3905 1.02368 0 1.41421-.3905.39052-1.0237.39052-1.4142 0l-.5451-.54507-1.0823 1.08231c1.3948 1.66676 2.2345 3.81936 2.2345 6.16686 0 5.2782-4.2454 9.5714-9.5 9.5714-5.25458 0-9.5-4.2932-9.5-9.5714 0-5.27828 4.24542-9.57146 9.5-9.57146 2.1987 0 4.2207.7517 5.829 2.01272l1.1046-1.10464-.5451-.54507c-.3905-.39052-.3905-1.02369 0-1.41421zm-6.3885 3.0512c-4.13426 0-7.5 3.38194-7.5 7.57146 0 4.1895 3.36574 7.5714 7.5 7.5714 4.1343 0 7.5-3.3819 7.5-7.5714 0-4.18952-3.3657-7.57146-7.5-7.57146zm-2.58704 6.05576c-.55228 0-1-.4477-1-1s.44772-1 1-1h5.08694c.4045 0 .7691.2436.9239.6173s.0692.8038-.2168 1.0898l-3.3798 3.3799h2.6727c.5523 0 1 .4477 1 1 0 .5522-.4477 1-1 1h-5.08694c-.40446 0-.7691-.2437-.92388-.6174-.15478-.3736-.06922-.8037.21677-1.0897l3.37985-3.3799z" fill="currentColor" fill-rule="evenodd"/></svg>