<svg fill="none" height="24" viewBox="0 0 24 24" width="24" xmlns="http://www.w3.org/2000/svg"><path clip-rule="evenodd" d="m2 12c0-5.52285 4.47715-10 10-10 5.5228 0 10 4.47715 10 10 0 5.5228-4.4772 10-10 10-5.52285 0-10-4.4772-10-10zm10-8c-4.41828 0-8 3.58172-8 8 0 4.4183 3.58172 8 8 8 4.4183 0 8-3.5817 8-8 0-4.41828-3.5817-8-8-8zm-4.375 5.89062c0-1.25127 1.01435-2.26562 2.26562-2.26562h4.21878c1.2512 0 2.2656 1.01435 2.2656 2.26562v4.21878c0 1.2512-1.0144 2.2656-2.2656 2.2656h-4.21878c-1.25127 0-2.26562-1.0144-2.26562-2.2656zm2.26562-.26562c-.1467 0-.26562.11892-.26562.26562v4.21878c0 .1467.11892.2656.26562.2656h4.21878c.1467 0 .2656-.1189.2656-.2656v-4.21878c0-.1467-.1189-.26562-.2656-.26562z" fill="currentColor" fill-rule="evenodd"/></svg>