<svg fill="none" height="24" viewBox="0 0 24 24" width="24" xmlns="http://www.w3.org/2000/svg"><path clip-rule="evenodd" d="m8.5 2c0-.55228.44772-1 1-1h5c.5523 0 1 .44772 1 1s-.4477 1-1 1h-5c-.55228 0-1-.44772-1-1zm3.5 3.85714c-4.13426 0-7.5 3.38194-7.5 7.57146 0 4.1895 3.36574 7.5714 7.5 7.5714 4.1343 0 7.5-3.3819 7.5-7.5714 0-4.18952-3.3657-7.57146-7.5-7.57146zm-9.5 7.57146c0-5.27828 4.24542-9.57146 9.5-9.57146 5.2546 0 9.5 4.29318 9.5 9.57146 0 5.2782-4.2454 9.5714-9.5 9.5714-5.25458 0-9.5-4.2932-9.5-9.5714zm9.5-4.58769c.5523 0 1 .44772 1 1v3.37659c0 .5523-.4477 1-1 1s-1-.4477-1-1v-3.37659c0-.55228.4477-1 1-1z" fill="currentColor" fill-rule="evenodd"/></svg>