<svg fill="none" height="24" viewBox="0 0 24 24" width="24" xmlns="http://www.w3.org/2000/svg"><path clip-rule="evenodd" d="m8.5 2c0-.55228.44772-1 1-1h5c.5523 0 1 .44772 1 1s-.4477 1-1 1h-5c-.55228 0-1-.44772-1-1zm10.2936.79275c.3906-.39052 1.0237-.39052 1.4142 0l2.5044 2.50435c.3905.39053.3905 1.02369 0 1.41421-.3905.39053-1.0237.39053-1.4142.00001l-2.5044-2.50435c-.3905-.39053-.3905-1.02369 0-1.41422zm-13.58141.49566c.39052.39052.39052 1.02369 0 1.41421l-2.50435 2.50435c-.39053.39052-1.02369.39052-1.41421 0-.390529-.39053-.390529-1.02369 0-1.41422l2.50434-2.50434c.39053-.39053 1.02369-.39053 1.41422 0zm6.78781 2.56873c-4.13426 0-7.5 3.38194-7.5 7.57146 0 4.1895 3.36574 7.5714 7.5 7.5714 4.1343 0 7.5-3.3819 7.5-7.5714 0-4.18952-3.3657-7.57146-7.5-7.57146zm-9.5 7.57146c0-5.27828 4.24542-9.57146 9.5-9.57146 5.2546 0 9.5 4.29318 9.5 9.57146 0 5.2782-4.2454 9.5714-9.5 9.5714-5.25458 0-9.5-4.2932-9.5-9.5714zm6.51895-4.55551c.44948-.3209 1.07405-.21667 1.39495.23281l2.2835 3.1984h3.5026c.5523 0 1 .4478 1 1 0 .5523-.4477 1-1 1h-4.0174c-.323 0-.6262-.156-.8139-.4189l-2.58256-3.6174c-.32091-.44947-.21668-1.074.23281-1.39491z" fill="currentColor" fill-rule="evenodd"/></svg>