<svg fill="none" height="24" viewBox="0 0 24 24" width="24" xmlns="http://www.w3.org/2000/svg"><path clip-rule="evenodd" d="m11.2928 2.22624c.3905-.39052 1.0237-.39052 1.4142 0l3.2 3.2c.3905.39053.3905 1.02369 0 1.41422-.3905.39052-1.0237.39052-1.4142 0l-1.4929-1.4929v5.05244c0 .5523-.4477 1-1 1s-1-.4477-1-1v-5.05244l-1.49289 1.4929c-.39052.39052-1.02369.39052-1.41421 0-.39053-.39053-.39053-1.02369 0-1.41422zm-7.46667 7.46667c.39052-.39053 1.02369-.39053 1.41421 0l1.88562 1.88559c.39053.3906.39053 1.0237 0 1.4142-.39052.3906-1.02369.3906-1.41421 0l-1.88562-1.8856c-.39053-.3905-.39053-1.0237 0-1.41419zm14.15247 0c.3905-.39053 1.0237-.39053 1.4142 0 .3905.39049.3905 1.02369 0 1.41419l-1.8856 1.8856c-.3905.3906-1.0237.3906-1.4142 0-.3905-.3905-.3905-1.0236 0-1.4142zm-5.9787 4.90709c-1.5096 0-2.73333 1.2238-2.73333 2.7333 0 .5523-.44772 1-1 1-.55229 0-1-.4477-1-1 0-2.6141 2.11919-4.7333 4.73333-4.7333 2.6142 0 4.7333 2.1192 4.7333 4.7333 0 .5523-.4477 1-1 1-.5522 0-1-.4477-1-1 0-1.5095-1.2237-2.7333-2.7333-2.7333zm-10.6 2.7333c0-.5522.44772-1 1-1h2.66667c.55228 0 1 .4478 1 1 0 .5523-.44772 1-1 1h-2.66667c-.55228 0-1-.4477-1-1zm16.5333 0c0-.5522.4478-1 1-1h2.6667c.5523 0 1 .4478 1 1 0 .5523-.4477 1-1 1h-2.6667c-.5522 0-1-.4477-1-1zm-16.5333 3.7334c0-.5523.44772-1 1-1h19.2c.5523 0 1 .4477 1 1s-.4477 1-1 1h-19.2c-.55228 0-1-.4477-1-1z" fill="currentColor" fill-rule="evenodd"/></svg>