<svg fill="none" height="26" viewBox="0 0 26 26" width="26" xmlns="http://www.w3.org/2000/svg"><path clip-rule="evenodd" d="m13.0003.97699c.5523 0 1 .44771 1 1v.76021c0 .55228-.4477 1-1 1-.5522 0-1-.44772-1-1v-.76021c0-.55229.4478-1 1-1zm-8.50225 3.5215c.39053-.39052 1.02369-.39052 1.41422 0l.53755.53755c.39052.39053.39052 1.02369 0 1.41421-.39053.39053-1.02369.39053-1.41422 0l-.53755-.53755c-.39052-.39052-.39052-1.02368 0-1.41421zm17.00455.00006c.3905.39053.3905 1.02369 0 1.41421l-.5376.53755c-.3905.39053-1.0237.39053-1.4142 0-.3905-.39052-.3905-1.02369 0-1.41421l.5376-.53755c.3905-.39053 1.0236-.39053 1.4142 0zm-8.5171 3.37823c-2.8065 0-5.08169 2.27512-5.08169 5.08172 0 2.8065 2.27519 5.0816 5.08169 5.0816s5.0817-2.2751 5.0817-5.0816c0-2.8066-2.2752-5.08172-5.0817-5.08172zm-7.08169 5.08172c0-3.91114 3.17058-7.08172 7.08169-7.08172 3.9111 0 7.0817 3.17058 7.0817 7.08172 0 3.9111-3.1706 7.0816-7.0817 7.0816-3.91111 0-7.08169-3.1705-7.08169-7.0816zm-4.926515.0415c0-.5522.447715-1 .999995-1h.76021c.55229 0 1 .4478 1 1 0 .5523-.44771 1-1 1h-.76021c-.55228 0-.999995-.4477-.999995-1zm21.285905 0c0-.5522.4477-1 1-1h.7602c.5523 0 1 .4478 1 1 0 .5523-.4477 1-1 1h-.7602c-.5523 0-1-.4477-1-1zm-2.7124 6.5498c.3905-.3906 1.0237-.3906 1.4142 0l.5376.5375c.3905.3905.3905 1.0237 0 1.4142-.3906.3905-1.0237.3905-1.4142 0l-.5376-.5375c-.3905-.3906-.3905-1.0237 0-1.4142zm-13.10098 0c.39052.3905.39052 1.0237 0 1.4142l-.53755.5376c-.39053.3905-1.02369.3905-1.41422 0-.39052-.3905-.39052-1.0237 0-1.4142l.53755-.5376c.39053-.3905 1.02369-.3905 1.41422 0zm6.55048 2.7131c.5523 0 1 .4477 1 1v.7602c0 .5523-.4477 1-1 1-.5522 0-1-.4477-1-1v-.7602c0-.5523.4478-1 1-1z" fill="currentColor" fill-rule="evenodd"/></svg>