<svg fill="none" height="24" viewBox="0 0 24 24" width="24" xmlns="http://www.w3.org/2000/svg"><path clip-rule="evenodd" d="m11.9999 1.40002c.5523 0 1 .44772 1 1v3.11352c0 .55228-.4477 1-1 1s-1-.44772-1-1v-3.11352c0-.55228.4477-1 1-1zm-7.49585 3.10466c.39052-.39053 1.02369-.39053 1.41421 0l2.20159 2.20158c.39052.39053.39052 1.02369 0 1.41422-.39053.39052-1.02369.39052-1.41422 0l-2.20158-2.20159c-.39053-.39052-.39053-1.02369 0-1.41421zm14.99145.00023c.3905.39053.3905 1.02369 0 1.41421l-2.2016 2.20159c-.3905.39053-1.0237.39053-1.4142 0-.3905-.39052-.3905-1.02369 0-1.41421l2.2016-2.20159c.3905-.39052 1.0237-.39052 1.4142 0zm-7.5268 4.76855c-1.436 0-2.60005 1.16404-2.60005 2.60004 0 1.4359 1.16405 2.6 2.60005 2.6 1.4359 0 2.6-1.1641 2.6-2.6 0-1.436-1.1641-2.60004-2.6-2.60004zm-4.60005 2.60004c0-2.54055 2.05949-4.60004 4.60005-4.60004 2.5405 0 4.6 2.05949 4.6 4.60004 0 2.5405-2.0595 4.6-4.6 4.6-2.54056 0-4.60005-2.0595-4.60005-4.6zm-5.96875.1265c0-.5523.44772-1 1-1h3.11352c.55228 0 1 .4477 1 1s-.44772 1-1 1h-3.11352c-.55228 0-1-.4477-1-1zm16.0865 0c0-.5523.4477-1 1-1h3.1135c.5523 0 1 .4477 1 1s-.4477 1-1 1h-3.1135c-.5523 0-1-.4477-1-1zm-1.6067 3.8793c.3905-.3905 1.0237-.3905 1.4142 0l2.2016 2.2016c.3905.3905.3905 1.0237 0 1.4142-.3905.3906-1.0237.3906-1.4142 0l-2.2016-2.2015c-.3905-.3906-.3905-1.0237 0-1.4143zm-7.75985.0003c.39052.3905.39052 1.0237 0 1.4142l-2.20159 2.2016c-.39052.3905-1.02369.3905-1.41421 0-.39053-.3905-.39053-1.0237 0-1.4142l2.20158-2.2016c.39053-.3906 1.02369-.3906 1.41422 0zm3.88005 1.6069c.5523 0 1 .4477 1 1v3.1135c0 .5523-.4477 1-1 1s-1-.4477-1-1v-3.1135c0-.5523.4477-1 1-1z" fill="currentColor" fill-rule="evenodd"/></svg>