<svg fill="none" height="24" viewBox="0 0 24 24" width="24" xmlns="http://www.w3.org/2000/svg"><path clip-rule="evenodd" d="m16.5488 3.96786c.4595.30635.5837.92722.2773 1.38675l-1.3714 2.05709c-.3063.45953-.9272.58371-1.3867.27735-.4596-.30635-.5837-.92722-.2774-1.38675l1.3714-2.05709c.3064-.45953.9272-.5837 1.3868-.27735zm-9.08808-.06411c.49507-.24479 1.09485-.04189 1.33963.45318l1.0958 2.21621c.24475.49508.04189 1.09485-.45318 1.33964s-1.09485.04189-1.33964-.45319l-1.0958-2.2162c-.24478-.49508-.04189-1.09485.45319-1.33964zm14.79458 5.49789c.2448.49508.0419 1.09486-.4532 1.33966l-2.2162 1.0958c-.4951.2448-1.0949.0419-1.3397-.4532-.2447-.4951-.0419-1.0949.4532-1.3396l2.2162-1.09584c.4951-.24479 1.0949-.04189 1.3397.45318zm-20.3446-.11147c.30635-.45953.92722-.5837 1.38675-.27735l2.05709 1.37138c.45953.3064.58371.9272.27735 1.3868-.30635.4595-.92722.5837-1.38675.2773l-2.05709-1.3714c-.45953-.3063-.5837-.9272-.27735-1.38673zm4.37497 4.61173h-3.88577c-.55228 0-1 .4477-1 1s.44772 1 1 1h19.1995c.5523 0 1-.4477 1-1s-.4477-1-1-1h-3.8857c-.4739-2.7266-2.8519-4.79989-5.714-4.79989-2.86221 0-5.24016 2.07329-5.71403 4.79989zm2.04707 0h7.33386c-.439-1.6135-1.9144-2.7999-3.6669-2.7999-1.7526 0-3.22799 1.1864-3.66696 2.7999zm-4.19005 5.2982c0-.5522.44772-1 1-1h13.71391c.5523 0 1 .4478 1 1 0 .5523-.4477 1-1 1h-13.71391c-.55228 0-1-.4477-1-1z" fill="currentColor" fill-rule="evenodd"/></svg>