<svg fill="none" height="24" viewBox="0 0 24 24" width="24" xmlns="http://www.w3.org/2000/svg"><path clip-rule="evenodd" d="m4.06189 11h2.31311c.55228 0 1 .4477 1 1s-.44772 1-1 1h-2.31311c.45125 3.6187 3.31939 6.4869 6.93811 6.9381v-2.3131c0-.5523.4477-1 1-1s1 .4477 1 1v2.3131c3.6187-.4512 6.4869-3.3194 6.9381-6.9381h-2.3131c-.5523 0-1-.4477-1-1s.4477-1 1-1h2.3131c-.4512-3.61872-3.3194-6.48686-6.9381-6.93811v2.31311c0 .55228-.4477 1-1 1s-1-.44772-1-1v-2.31311c-3.61872.45125-6.48686 3.31939-6.93811 6.93811zm-2.06189 1c0-5.52285 4.47715-10 10-10 5.5228 0 10 4.47715 10 10 0 5.5228-4.4772 10-10 10-5.52285 0-10-4.4772-10-10z" fill="currentColor" fill-rule="evenodd"/></svg>