<svg fill="none" height="24" viewBox="0 0 24 24" width="24" xmlns="http://www.w3.org/2000/svg"><path clip-rule="evenodd" d="m18.2947 2.05185c.3581.12004.618.43159.6719.80541l.2708 1.87815 1.9027.26926c.3761.05322.6896.31495.8091.67552.1195.36056.0244.75771-.2454 1.02504l-3.4011 3.36917c-.2672.2646-.6602.357-1.0173.2391l-1.6869-.55698-3.3439 3.31258c-.3924.3887-1.0255.3857-1.4142-.0067-.3887-.3923-.3857-1.0255.0066-1.4142l3.3375-3.30615-.5565-1.65398c-.1217-.36157-.027-.76087.244-1.02935l3.4011-3.36916c.2683-.2658.6635-.35775 1.0216-.23771zm-2.1748 5.77061 1.2107.39977 1.534-1.51966-.65-.09199c-.44-.06227-.7862-.40751-.8496-.8474l-.0946-.65578-1.5481 1.53355zm-4.5691-2.76364c-4.1791 0-7.5508 3.35356-7.5508 7.47058 0 4.117 3.3717 7.4706 7.5508 7.4706s7.5508-3.3536 7.5508-7.4706c0-.5523.4477-1 1-1s1 .4477 1 1c0 5.2393-4.2849 9.4706-9.5508 9.4706-5.26585 0-9.5508-4.2313-9.5508-9.4706 0-5.23932 4.28495-9.47058 9.5508-9.47058.5523 0 1 .44771 1 1 0 .55228-.4477 1-1 1zm0 4.23529c-1.81786 0-3.2754 1.45739-3.2754 3.23529s1.45754 3.2353 3.2754 3.2353c1.8179 0 3.2754-1.4574 3.2754-3.2353 0-.5523.4477-1 1-1s1 .4477 1 1c0 2.9002-2.3708 5.2353-5.2754 5.2353-2.90461 0-5.2754-2.3351-5.2754-5.2353 0-2.90023 2.37079-5.23529 5.2754-5.23529.5523 0 1 .44772 1 1 0 .55229-.4477 1-1 1z" fill="currentColor" fill-rule="evenodd"/></svg>