<svg fill="none" height="24" viewBox="0 0 24 24" width="24" xmlns="http://www.w3.org/2000/svg"><path clip-rule="evenodd" d="m4.99995 4.79846c0-1.87862 1.52309-3.39844 3.4-3.39844 1.87775 0 3.40005 1.52224 3.40005 3.4v8.73028c.3997.4169.7849.9278 1.0941 1.4785.3893.6933.7059 1.535.7059 2.3912 0 2.8719-2.3282 5.2-5.20005 5.2-2.87188 0-5.2-2.3281-5.2-5.2 0-1.5727.69895-2.9821 1.8-3.9345zm3.4-1.39844c-.77405 0-1.4.62609-1.4 1.39844v9.15434c0 .3269-.15978.6332-.4279.8202-.83147.58-1.3721 1.5404-1.3721 2.627 0 1.7673 1.43269 3.2 3.2 3.2 1.76735 0 3.20005-1.4327 3.20005-3.2 0-.3877-.1538-.885-.4498-1.4121-.2906-.5176-.6723-.9813-1.0172-1.2899-.21191-.1897-.33305-.4607-.33305-.7452v-9.15278c0-.77319-.6268-1.4-1.4-1.4zm8.40005 1c.5522 0 1 .44772 1 1v1.98197l1.5527-.77639c.494-.24699 1.0947-.04677 1.3417.44721s.0467 1.09465-.4472 1.34164l-1.7591.87953 1.269 1.26892c.3905.3905.3905 1.0237 0 1.4142-.3906.3906-1.0237.3906-1.4143 0l-1.5428-1.5429-1.5429 1.5429c-.3906.3906-1.0237.3906-1.4143 0-.3905-.3905-.3905-1.0237 0-1.4142l1.269-1.26892-1.7591-.87953c-.4939-.24699-.6942-.84766-.4472-1.34164s.8477-.6942 1.3417-.44721l1.5528.77639v-1.98197c0-.55228.4477-1 1-1zm-9.40005 12.99998c0-.5523.44772-1 1-1h.05625c.55229 0 1 .4477 1 1s-.44771 1-1 1h-.05625c-.55228 0-1-.4477-1-1z" fill="currentColor" fill-rule="evenodd"/></svg>