<svg fill="none" height="24" viewBox="0 0 24 24" width="24" xmlns="http://www.w3.org/2000/svg"><path clip-rule="evenodd" d="m8.60005 4.79846c0-1.87862 1.52305-3.39844 3.39995-3.39844 1.8778 0 3.4 1.52224 3.4 3.4v8.73028c.3998.4169.785.9278 1.0942 1.4785.3893.6933.7058 1.535.7058 2.3912 0 2.8719-2.3281 5.2-5.2 5.2-2.87183 0-5.19995-2.3281-5.19995-5.2 0-1.5727.69895-2.9821 1.8-3.9345zm3.39995-1.39844c-.774 0-1.4.62609-1.4 1.39844v9.15434c0 .3269-.1597.6332-.4279.8202-.83142.58-1.37205 1.5404-1.37205 2.627 0 1.7673 1.43265 3.2 3.19995 3.2 1.7674 0 3.2-1.4327 3.2-3.2 0-.3877-.1538-.885-.4497-1.4121-.2907-.5176-.6723-.9813-1.0172-1.2899-.2119-.1897-.3331-.4607-.3331-.7452v-9.15278c0-.77319-.6268-1.4-1.4-1.4zm-1 13.99998c0-.5523.4478-1 1-1h.0563c.5523 0 1 .4477 1 1s-.4477 1-1 1h-.0563c-.5522 0-1-.4477-1-1z" fill="currentColor" fill-rule="evenodd"/></svg>