<svg fill="none" height="24" viewBox="0 0 24 24" width="24" xmlns="http://www.w3.org/2000/svg"><path clip-rule="evenodd" d="m1.6928 4.61467c.39052-.39052 1.02369-.39052 1.41421 0l6.67826 6.67823c.39053.3906.39053 1.0237 0 1.4142l-6.67826 6.6783c-.39053.3905-1.02369.3905-1.41421 0-.39053-.3905-.39053-1.0237 0-1.4142l5.97115-5.9712-5.97115-5.97112c-.39053-.39052-.39053-1.02369 0-1.41421zm8.05493 14.06363c0-.5523.44767-1 .99997-1h10.8522c.5523 0 1 .4477 1 1s-.4477 1-1 1h-10.8522c-.5523 0-.99997-.4477-.99997-1z" fill="currentColor" fill-rule="evenodd"/></svg>