<svg fill="none" height="24" viewBox="0 0 24 24" width="24" xmlns="http://www.w3.org/2000/svg"><path clip-rule="evenodd" d="m3.5999 9.40002c-.11045 0-.2.08955-.2.2v4.79998c0 .1105.08955.2.2.2h16.8c.1105 0 .2-.0895.2-.2v-4.79998c0-.11045-.0895-.2-.2-.2zm-2.2.2c0-1.21502.98498-2.2 2.2-2.2h16.8c1.215 0 2.2.98498 2.2 2.2v4.79998c0 1.2151-.985 2.2-2.2 2.2h-16.8c-1.21502 0-2.2-.9849-2.2-2.2zm5.2.79998c.55229 0 1 .4477 1 1v1.2c0 .5523-.44771 1-1 1-.55228 0-1-.4477-1-1v-1.2c0-.5523.44772-1 1-1z" fill="currentColor" fill-rule="evenodd"/></svg>