<svg fill="none" height="24" viewBox="0 0 24 24" width="24" xmlns="http://www.w3.org/2000/svg"><g clip-rule="evenodd" fill="currentColor" fill-rule="evenodd"><path d="m3.80005 4.80005c0-.55229.44771-1 1-1h3.6c.55228 0 1 .44771 1 1 0 .55228-.44772 1-1 1h-3.6c-.55229 0-1-.44772-1-1z"/><path d="m6.5999 3.80005c.55229 0 1 .44771 1 1v13.40005h.8c.55229 0 1 .4477 1 1 0 .5522-.44771 1-1 1h-3.6c-.55228 0-1-.4478-1-1 0-.5523.44772-1 1-1h.8v-1.6001h-2c-1.21502 0-2.2-.9849-2.2-2.1999v-4.80005c0-1.21503.98498-2.2 2.2-2.2h2v-2.6c0-.55229.44772-1 1-1zm-1 5.6h-2c-.11045 0-.2.08954-.2.2v4.80005c0 .1104.08955.1999.2.1999h2zm4.2-1c0-.55229.4477-1 1-1h9.6c1.215 0 2.2.98497 2.2 2.2v4.80005c0 1.215-.985 2.1999-2.2 2.1999h-9.6c-.5523 0-1-.4477-1-1 0-.5522.4477-1 1-1h9.6c.1105 0 .2-.0895.2-.1999v-4.80005c0-.11046-.0895-.2-.2-.2h-9.6c-.5523 0-1-.44772-1-1z"/></g></svg>