<svg fill="none" height="24" viewBox="0 0 24 24" width="24" xmlns="http://www.w3.org/2000/svg"><path clip-rule="evenodd" d="m10 3.905c0-1.05228.8527-1.905 1.905-1.905h.095c.7956 0 1.5587.31607 2.1213.87868s.8787 1.32567.8787 2.12132v4h3.764c.5113.00002 1.0141.13072 1.4607.37968.4466.24897.8222.60795 1.091 1.04282.2689.435.4221.9314.4452 1.4421.023.5108-.0848 1.019-.3134 1.4764l-3.5 7c-.2492.4986-.6325.9181-1.1067 1.2111-.4741.293-1.0205.4481-1.5778.4479h-4.017c-.2442 0-.4887-.0299-.7275-.0898l-.0015-.0004-3.64007-.9098h-1.87693c-.79565 0-1.55871-.3161-2.12132-.8787s-.87868-1.3257-.87868-2.1213v-6c0-.7956.31607-1.5587.87868-2.12132.56261-.56261 1.32567-.87868 2.12132-.87868h2.13129l2.42931-3.64467c.2867-.42897.4394-.93348.4394-1.45033zm-4 7.095h-1c-.26522 0-.51957.1054-.70711.2929-.18753.1875-.29289.4419-.29289.7071v6c0 .2652.10536.5196.29289.7071.18754.1875.44189.2929.70711.2929h1zm2 8.2192v-7.9165l3.2234-4.83603c.4893-.73246.7576-1.58896.7756-2.46667.2652 0 .5206.10536.7081.29289.1875.18754.2929.44189.2929.70711v4h-1c-.5523 0-1 .44772-1 1 0 .5523.4477 1 1 1h6.764c.1704 0 .338.0436.4869.1266.1488.083.274.2026.3636.3476s.1407.3104.1484.4807c.0077.1702-.0282.3395-.1043.4919l-3.5 7c-.0831.1662-.2109.3062-.369.4039s-.3403.1494-.5261.1493h-4.0175c-.0813 0-.1623-.01-.241-.0298z" fill="currentColor" fill-rule="evenodd"/></svg>