<svg fill="none" height="24" viewBox="0 0 24 24" width="24" xmlns="http://www.w3.org/2000/svg"><path clip-rule="evenodd" d="m7.75 8.75c-1.79492 0-3.25 1.4551-3.25 3.25s1.45507 3.25 3.25 3.25c1.79492 0 3.25-1.4551 3.25-3.25s-1.45507-3.25-3.25-3.25zm4.1234 0c.7055.89393 1.1266 2.0228 1.1266 3.25s-.4211 2.3561-1.1266 3.25h4.3766c1.7949 0 3.25-1.4551 3.25-3.25s-1.4551-3.25-3.25-3.25zm-4.1234 8.5c-2.8995 0-5.25-2.3505-5.25-5.25s2.35051-5.25 5.25-5.25h8.5c2.8995 0 5.25 2.35051 5.25 5.25 0 2.8995-2.3505 5.25-5.25 5.25z" fill="currentColor" fill-rule="evenodd"/></svg>