<svg fill="none" height="24" viewBox="0 0 24 24" width="24" xmlns="http://www.w3.org/2000/svg"><path clip-rule="evenodd" d="m8.0001 1.19995c0-.552284.44771-.999999 1-.999999h6c.5523 0 1 .447715 1 .999999 0 .55229-.4477 1-1 1h-6c-.55229 0-1-.44771-1-1zm-5.4 6.56471c0-2.18965 1.77506-3.96471 3.9647-3.96471h10.8706c2.1896 0 3.9647 1.77506 3.9647 3.96471v9.67054c0 1.2772-.6039 2.4134-1.5418 3.1385l1.2469 1.5885c.341.4344.2653 1.063-.1692 1.404-.4344.3411-1.063.2653-1.404-.1691l-1.5926-2.0289c-.165.021-.3333.0318-.504.0318h-10.8706c-.02148 0-.04292-.0002-.06432-.0006l-1.50038 2.0006c-.33137.4418-.95817.5313-1.4.2-.44183-.3314-.53137-.9582-.2-1.4001l1.05532-1.407c-1.11465-.7018-1.85532-1.9432-1.85532-3.3577zm8.4-1.96471h-4.4353c-1.08507 0-1.9647.87963-1.9647 1.96471v5.05534c.06462-.0132.1315-.02.2-.02h6.2zm2 7.00005v-7.00005h4.4353c1.0851 0 1.9647.87963 1.9647 1.96471v5.03534zm6.4 2h-14.6c-.0685 0-.13538-.0069-.2-.0201v2.6553c0 1.0851.87963 1.9648 1.9647 1.9648h10.8706c1.0851 0 1.9647-.8797 1.9647-1.9648zm-10.99953 1c.55228 0 1 .4477 1 1v.0721c0 .5523-.44772 1-1 1-.55229 0-1-.4477-1-1v-.0721c0-.5523.44771-1 1-1zm7.20003 0c.5523 0 1 .4477 1 1v.0721c0 .5523-.4477 1-1 1s-1-.4477-1-1v-.0721c0-.5523.4477-1 1-1z" fill="currentColor" fill-rule="evenodd"/></svg>