<svg fill="none" height="24" viewBox="0 0 24 24" width="24" xmlns="http://www.w3.org/2000/svg"><path clip-rule="evenodd" d="m8 4.05882c0-1.08243.84235-2.05882 2-2.05882h4c1.1577 0 2 .97639 2 2.05882v1.05883c0 .01964-.0003.03925-.0008.05882h1.0008.0022 2.9978c.5523 0 1 .44772 1 1 0 .55229-.4477 1-1 1h-1.0008c.0005.01957.0008.03918.0008.05882v11.64711c0 1.6672-1.2901 3.1176-3 3.1176h-8c-1.70994 0-3-1.4504-3-3.1176v-11.64711c0-.01964.00028-.03925.00083-.05882h-1.00083c-.55228 0-1-.44771-1-1 0-.55228.44772-1 1-1h2.99895.00105 1.00083c-.00055-.01957-.00083-.03918-.00083-.05882zm8.9829 3.11765h-9.96578c-.0073.00932-.01712.02823-.01712.05882v11.64711c0 .6718.5008 1.1176 1 1.1176h8c.4992 0 1-.4458 1-1.1176v-11.64711c0-.03059-.0098-.0495-.0171-.05882zm-6.9658-3.17647c-.0073.00932-.0171.02823-.0171.05882v1.05883c0 .03059.0098.0495.0171.05882h3.9658c.0073-.00932.0171-.02823.0171-.05882v-1.05883c0-.03059-.0098-.0495-.0171-.05882z" fill="currentColor" fill-rule="evenodd"/></svg>