<svg fill="none" height="24" viewBox="0 0 24 24" width="24" xmlns="http://www.w3.org/2000/svg"><path clip-rule="evenodd" d="m8 3c0-.55228.44772-1 1-1h6c.5523 0 1 .44772 1 1s-.4477 1-1 1h-6c-.55228 0-1-.44772-1-1zm-5 3.17647c0-.55228.44772-1 1-1h16c.5523 0 1 .44772 1 1 0 .55229-.4477 1-1 1h-1.0434c.0013.04721.0011.09465-.0008.14223l-.4559 11.5851c-.011 1.6582-1.2973 3.0962-2.9999 3.0962h-7c-1.70259 0-2.9889-1.438-2.99993-3.0962l-.4559-11.5851c-.00187-.04758-.0021-.09502-.00074-.14223h-1.04343c-.55228 0-1-.44771-1-1zm4.05966 1c-.00801.01025-.01832.03091-.01703.06358l.45737 11.62265v.0197c0 .6718.5008 1.1176 1 1.1176h7c.4992 0 1-.4458 1-1.1176v-.0197l.4574-11.62265c.0013-.03267-.0091-.05333-.0171-.06358zm2.94034 2.2353c.5523 0 1 .44771 1 1.00003v6.3529c0 .5523-.4477 1-1 1-.55228 0-1-.4477-1-1v-6.3529c0-.55232.44772-1.00003 1-1.00003zm4 0c.5523 0 1 .44771 1 1.00003v6.3529c0 .5523-.4477 1-1 1s-1-.4477-1-1v-6.3529c0-.55232.4477-1.00003 1-1.00003z" fill="currentColor" fill-rule="evenodd"/></svg>