<svg fill="none" height="24" viewBox="0 0 24 24" width="24" xmlns="http://www.w3.org/2000/svg"><path clip-rule="evenodd" d="m13.6879 7.19995c0-.55228.4477-1 1-1h6.912c.5523 0 1 .44772 1 1v6.64615c0 .5523-.4477 1-1 1s-1-.4477-1-1v-4.29733l-7.5229 7.23353c-.3871.3722-.9991.3722-1.3862 0l-3.9149-3.7643-4.68289 4.5028c-.3981.3828-1.03115.3704-1.41394-.0277s-.37038-1.0312.02772-1.414l5.376-5.1692c.38712-.3722.99911-.3722 1.38622 0l3.91489 3.7643 6.7332-6.47425h-4.4292c-.5523 0-1-.44771-1-1z" fill="currentColor" fill-rule="evenodd"/></svg>