<svg fill="none" height="24" viewBox="0 0 24 24" width="24" xmlns="http://www.w3.org/2000/svg"><path clip-rule="evenodd" d="m15.2858 7.30008-7.91595.00012c-.55229 0-1.00001-.44771-1.00002-.99999-.00001-.55229.4477-1.00001.99999-1.00001l10.33018-.00015c.2653 0 .5196.10535.7072.29289.1875.18753.2929.44189.2929.70711v10.18325c0 .5523-.4478 1-1 1-.5523 0-1-.4477-1-1v-7.76904l-9.69294 9.69294c-.39053.3905-1.02369.3905-1.41422 0-.39052-.3906-.39052-1.0237 0-1.4143z" fill="currentColor" fill-rule="evenodd"/></svg>