<svg fill="none" height="24" viewBox="0 0 24 24" width="24" xmlns="http://www.w3.org/2000/svg"><path clip-rule="evenodd" d="m4.22847 6.14282c-.4576 0-.82857.37097-.82857.82857v8.22861c0 .4576.37097.8285.82857.8285h.87321c.25874-1.5563 1.61135-2.7428 3.24108-2.7428s2.98234 1.1865 3.24104 2.7428h.8732c.4576 0 .8286-.3709.8286-.8285v-8.22861c0-.4576-.371-.82857-.8286-.82857zm11.00513.28572c-.2532-1.30247-1.4001-2.28572-2.7766-2.28572h-8.22853c-1.56217 0-2.82857 1.2664-2.82857 2.82857v8.22861c0 1.5621 1.2664 2.8285 2.82857 2.8285h.91429c.08275 0 .16315-.01.24006-.029.53137 1.0993 1.6571 1.8576 2.95994 1.8576s2.42854-.7583 2.95994-1.8576c.0769.019.1573.029.2401.029h.9142c.5591 0 1.0804-.1622 1.5192-.4421.2816.2343.6314.3894 1.0153.4309.5349 1.0897 1.6555 1.8398 2.9513 1.8398s2.4164-.7501 2.9512-1.8398c.9592-.1038 1.7059-.9162 1.7059-1.9031v-3.7935c0-.4347-.1479-.8564-.4195-1.1959l-3.1823-3.97782c-.3632-.4541-.9132-.71844-1.4948-.71844zm.052 2v6.20976c.5975-.8199 1.5651-1.3526 2.6572-1.3526 1.092 0 2.0596.5327 2.6571 1.3526v-2.2876l-3.1378-3.92216zm5.3331 3.94566c0 .0001-.0001 0 0 0zm-12.27594 2.9115c-.71008 0-1.28572.5756-1.28572 1.2857s.57564 1.2857 1.28572 1.2857 1.28571-.5756 1.28571-1.2857-.57563-1.2857-1.28571-1.2857zm9.60004 0c-.7101 0-1.2858.5756-1.2858 1.2857s.5757 1.2857 1.2858 1.2857c.71 0 1.2857-.5756 1.2857-1.2857s-.5757-1.2857-1.2857-1.2857z" fill="currentColor" fill-rule="evenodd"/></svg>