<svg fill="none" height="24" viewBox="0 0 24 24" width="24" xmlns="http://www.w3.org/2000/svg"><path clip-rule="evenodd" d="m2 6.28571c0-1.79974 1.44029-3.28571 3.25-3.28571h13.5c1.8097 0 3.25 1.48597 3.25 3.28571v7.99999c0 1.7998-1.4403 3.2857-3.25 3.2857h-4.3624l1.7001 1.7271c.3874.3936.3824 1.0267-.0112 1.4142-.3936.3874-1.0267.3824-1.4142-.0112l-2.6623-2.7046-2.66235 2.7046c-.38743.3936-1.02058.3986-1.41417.0112-.39358-.3875-.39857-1.0206-.01113-1.4142l1.70007-1.7271h-4.36242c-1.80971 0-3.25-1.4859-3.25-3.2857zm16.75 9.28569c.6756 0 1.25-.5607 1.25-1.2857v-7.99999c0-.72498-.5744-1.28571-1.25-1.28571h-13.5c-.67557 0-1.25.56073-1.25 1.28571v7.99999c0 .725.57443 1.2857 1.25 1.2857z" fill="currentColor" fill-rule="evenodd"/></svg>