<svg fill="none" height="24" viewBox="0 0 24 24" width="24" xmlns="http://www.w3.org/2000/svg"><path clip-rule="evenodd" d="m1.3999 4.80002c0-1.87776 1.52223-3.4 3.4-3.4h14.4c1.8778 0 3.4 1.52224 3.4 3.4v14.39998c0 1.8778-1.5222 3.4-3.4 3.4h-14.4c-1.87777 0-3.4-1.5222-3.4-3.4zm3.4-1.4c-.7732 0-1.4.62681-1.4 1.4v14.39998c0 .7732.6268 1.4 1.4 1.4h14.4c.7732 0 1.4-.6268 1.4-1.4v-14.39998c0-.77319-.6268-1.4-1.4-1.4zm2.6 5c0-.88365.71635-1.6 1.6-1.6h6c.8837 0 1.6.71635 1.6 1.6v1.12942c0 .55226-.4477.99996-1 .99996s-1-.4477-1-.99996v-.72942h-1.4759v6.39998h1.004c.5523 0 1 .4477 1 1s-.4477 1-1 1h-3.9192c-.55232 0-1.00003-.4477-1.00003-1s.44771-1 1.00003-1h.9152v-6.39998h-1.7241v.48236c0 .55228-.44771 1.00002-1 1.00002-.55228 0-1-.44774-1-1.00002z" fill="currentColor" fill-rule="evenodd"/></svg>