<svg fill="none" height="24" viewBox="0 0 24 24" width="24" xmlns="http://www.w3.org/2000/svg"><path clip-rule="evenodd" d="m3.45742 11.4h17.08498c-.4955-4.27854-4.1311-7.60001-8.5425-7.60001s-8.04703 3.32147-8.54248 7.60001zm-2.05752 1c0-5.85423 4.74578-10.60001 10.6-10.60001 5.8542 0 10.6 4.74578 10.6 10.60001 0 .5523-.4477 1-1 1h-9.4v5c0 .9941.8059 1.8 1.8 1.8s1.8-.8059 1.8-1.8v-.4c0-.5523.4477-1 1-1s1 .4477 1 1v.4c0 2.0987-1.7013 3.8-3.8 3.8s-3.8-1.7013-3.8-3.8v-5h-7.8c-.55228 0-1-.4477-1-1z" fill="currentColor" fill-rule="evenodd"/></svg>