<svg fill="none" height="24" viewBox="0 0 24 24" width="24" xmlns="http://www.w3.org/2000/svg"><path clip-rule="evenodd" d="m3.45742 11.4h3.71741c.02652-.1539.05272-.3123.08001-.4774.0322-.1947.06593-.3987.10354-.6155.12178-.70179.27603-1.47989.53553-2.32549.36373-1.18529.92496-2.47329 1.86545-3.88685-3.35146.90192-5.89354 3.77842-6.30194 7.30524zm8.47508-6.91769c-1.1569 1.55262-1.7625 2.89948-2.1266 4.08605-.22384.72941-.36125 1.4138-.47697 2.08074-.03093.1782-.06102.3601-.09134.5434-.01141.069-.02285.1382-.03439.2075h5.5552c-.4215-1.89569-1.0182-4.09662-2.8259-6.91769zm4.0871 8.91769h5.5803c.5523 0 1-.4477 1-1 0-5.85423-4.7458-10.60001-10.6-10.60001-5.85422 0-10.6 4.74578-10.6 10.60001 0 .5523.44772 1 1 1h5.58028c.01381.0003.02759.0003.04132 0h2.1784v5c0 2.0987 1.7013 3.8 3.8 3.8s3.8-1.7013 3.8-3.8v-.4c0-.5523-.4477-1-1-1s-1 .4477-1 1v.4c0 .9941-.8059 1.8-1.8 1.8s-1.8-.8059-1.8-1.8v-5h3.7784c.0137.0003.0275.0003.0413 0zm.7863-2c-.4181-1.93296-.9741-4.32704-2.7973-7.36416 3.4656.82924 6.116 3.75646 6.5338 7.36416z" fill="currentColor" fill-rule="evenodd"/></svg>