<svg fill="none" height="24" viewBox="0 0 24 24" width="24" xmlns="http://www.w3.org/2000/svg"><path clip-rule="evenodd" d="m16.5281 1.911c.27-.48176.8795-.65339 1.3612-.38335 1.6749.93883 2.9111 2.53641 2.9111 4.47231s-1.2362 3.53348-2.9111 4.47234c-.4817.27-1.0912.0984-1.3612-.3834-.2701-.48175-.0984-1.09121.3833-1.36125 1.2377-.69373 1.889-1.71335 1.889-2.72769 0-1.01435-.6513-2.03397-1.889-2.72769-.4817-.27005-.6534-.87951-.3833-1.36127zm-5.7277 1.48896c-1.43595 0-2.60001 1.16406-2.60001 2.6s1.16406 2.6 2.60001 2.6c1.4359 0 2.6-1.16406 2.6-2.6s-1.1641-2.6-2.6-2.6zm-4.60001 2.6c0-2.54051 2.05949-4.6 4.60001-4.6 2.5405 0 4.6 2.05949 4.6 4.6s-2.0595 4.60004-4.6 4.60004c-2.54052 0-4.60001-2.05953-4.60001-4.60004zm12.10151 6.81764c.3768.4038.355 1.0366-.0488 1.4134l-.7167.669h4.063c.5523 0 1 .4477 1 1 0 .5522-.4477 1-1 1h-4.063l.7167.6689c.4038.3768.4256 1.0096.0488 1.4134-.3769.4037-1.0097.4255-1.4134.0487l-2.5714-2.4c-.2027-.1891-.3177-.4539-.3177-.731 0-.2772.115-.542.3177-.7311l2.5714-2.4c.4037-.3768 1.0365-.355 1.4134.0487zm-16.9011 5.1818c.00028-2.5403 2.05969-4.5994 4.59999-4.5994h5.99961c.5523 0 1 .4477 1 1 0 .5522-.4477 1-1 1h-5.99961c-1.43582 0-2.59983 1.1638-2.59999 2.5997l-.00041 3.6004c-.00006.5523-.44783.9999-1.00011.9999-.55229-.0001-.99995-.4479-.99989-1.0002z" fill="currentColor" fill-rule="evenodd"/></svg>