<svg fill="none" height="24" viewBox="0 0 24 24" width="24" xmlns="http://www.w3.org/2000/svg"><path clip-rule="evenodd" d="m12 8.87491c.9499 0 1.8182-.87441 1.8182-1.86525 0-1.08653-.9589-2.00966-1.8182-2.00966s-1.8182.92313-1.8182 2.00966c0 .99084.8683 1.86525 1.8182 1.86525zm-1.6592 3.75229c.5378-.047 1.0924-.0716 1.6592-.0716s1.1214.0246 1.6592.0716c4.178.3653 7.3408 2.0847 7.3408 4.1507 0 2.3319-2.7273 4.2223-9 4.2223-6.27273 0-9-1.8904-9-4.2223 0-2.066 3.16284-3.7854 7.3408-4.1507zm.2731-2.0265c-1.42344-.5836-2.43208-2.02372-2.43208-3.59104 0-2.04042 1.70946-4.00966 3.81818-4.00966 2.1087 0 3.8182 1.96924 3.8182 4.00966 0 1.56732-1.0087 3.00744-2.4321 3.59104-.4297.1761-.8972.2742-1.3861.2742s-.9564-.0981-1.3861-.2742zm7.3139 7.3892c.9963-.5193 1.0722-.9851 1.0722-1.212v-.0001c0-.0007 0-.003-.0012-.0085-.0013-.006-.0049-.02-.0149-.0428-.0203-.0466-.0687-.1333-.1766-.2529-.225-.2495-.6378-.5634-1.2928-.8707-1.3079-.6136-3.2554-1.0473-5.5145-1.0473-2.25908 0-4.20658.4337-5.51451 1.0473-.65501.3073-1.06783.6212-1.2928.8707-.10786.1196-.1563.2063-.17664.2529-.00994.0228-.01356.0368-.01486.0428-.00119.0055-.00119.0078-.00119.0085v.0001c0 .2269.07588.6927 1.07215 1.212 1.06239.5538 2.94676 1.0103 5.92785 1.0103 2.9811 0 4.8655-.4565 5.9278-1.0103z" fill="currentColor" fill-rule="evenodd"/></svg>