<svg fill="none" height="24" viewBox="0 0 24 24" width="24" xmlns="http://www.w3.org/2000/svg"><path clip-rule="evenodd" d="m12.0001 3.40002c-1.4359 0-2.6 1.16406-2.6 2.6s1.1641 2.6 2.6 2.6 2.6-1.16406 2.6-2.6-1.1641-2.6-2.6-2.6zm-4.6 2.6c0-2.54051 2.05949-4.6 4.6-4.6 2.5405 0 4.6 2.05949 4.6 4.6s-2.0595 4.59998-4.6 4.59998c-2.54051 0-4.6-2.05947-4.6-4.59998zm-4.7996 11.99948c.00029-2.5403 2.05969-4.5995 4.6-4.5995h9.5993c2.5406 0 4.6002 2.0598 4.6 4.6004l-.0003 3.5997c-.0001.5523-.4479 1-1.0001.9999-.5523 0-1-.4478-.9999-1.0001l.0003-3.5996c.0001-1.4361-1.164-2.6003-2.6-2.6003h-9.5993c-1.43582 0-2.59984 1.1639-2.6 2.5997l-.0004 3.6004c-.00006.5523-.44783 1-1.00011.9999-.55229 0-.99995-.4478-.99989-1.0001z" fill="currentColor" fill-rule="evenodd"/></svg>