<svg fill="none" height="24" viewBox="0 0 24 24" width="24" xmlns="http://www.w3.org/2000/svg"><path clip-rule="evenodd" d="m9.71419 5.68567c-.96256 0-1.74286.7803-1.74286 1.74286 0 .96255.7803 1.74285 1.74286 1.74285.96251 0 1.74281-.7803 1.74281-1.74285 0-.96256-.7803-1.74286-1.74281-1.74286zm-3.74286 1.74286c0-2.06713 1.67573-3.74286 3.74286-3.74286 2.06711 0 3.74281 1.67573 3.74281 3.74286 0 2.06712-1.6757 3.74287-3.74281 3.74287-2.06713 0-3.74286-1.67575-3.74286-3.74287zm8.76297-2.87664c.2765-.47806.8883-.64142 1.3663-.36488 1.1162.64565 1.8707 1.85487 1.8707 3.24152 0 1.38664-.7545 2.59587-1.8707 3.24147-.478.2766-1.0898.1132-1.3663-.3648-.2765-.4781-.1132-1.08983.3649-1.36637.5235-.30286.8721-.86646.8721-1.5103 0-.64385-.3486-1.20745-.8721-1.51031-.4781-.27654-.6414-.88827-.3649-1.36633zm-11.13194 9.46071c1.44144-1.1186 3.50953-1.7355 6.11183-1.7355 2.60231 0 4.67041.6169 6.11181 1.7355 1.4636 1.1357 2.2025 2.7318 2.2025 4.473 0 .9082-.6851 1.8286-1.7458 1.8286h-13.13703c-1.06066 0-1.74577-.9204-1.74577-1.8286 0-1.7412.73886-3.3373 2.20246-4.473zm-.1989 4.3016h12.62144c-.0445-1.0654-.5081-2.0101-1.425-2.7216-.9879-.7666-2.577-1.3155-4.88571-1.3155-2.30872 0-3.89778.5489-4.88573 1.3155-.91692.7115-1.38044 1.6562-1.425 2.7216zm14.99534-5.2271c.3306-.4424.9572-.5331 1.3996-.2025.8096.6049 1.4962 1.5921 1.9741 2.564.4775.9711.8274 2.0912.8274 3.037 0 .9082-.6851 1.8286-1.7458 1.8286h-.4542c-.5523 0-1-.4477-1-1 0-.5522.4477-1 1-1h.1931c-.04-.519-.2516-1.2436-.6152-1.9831-.4053-.8241-.9187-1.5023-1.3764-1.8443-.4425-.3306-.5332-.9572-.2026-1.3997z" fill="currentColor" fill-rule="evenodd"/></svg>