<svg fill="none" height="24" viewBox="0 0 24 24" width="24" xmlns="http://www.w3.org/2000/svg"><path clip-rule="evenodd" d="m10.7999 3.40002c-1.43594 0-2.6 1.16406-2.6 2.6s1.16406 2.6 2.6 2.6c1.4359 0 2.6-1.16406 2.6-2.6s-1.1641-2.6-2.6-2.6zm-4.6 2.6c0-2.54051 2.05949-4.6 4.6-4.6 2.5405 0 4.6 2.05949 4.6 4.6s-2.0595 4.59998-4.6 4.59998c-2.54051 0-4.6-2.05947-4.6-4.59998zm12.7 5.89988c.5523 0 1 .4477 1 1v1.7001h1.7c.5523 0 1 .4477 1 1s-.4477 1-1 1h-1.7v1.6999c0 .5523-.4477 1-1 1s-1-.4477-1-1v-1.6999h-1.7c-.5523 0-1-.4477-1-1s.4477-1 1-1h1.7v-1.7001c0-.5523.4477-1 1-1zm-17.49959 6.0996c.00028-2.5403 2.05969-4.5995 4.6-4.5995h6.59959c.5523 0 1 .4477 1 1s-.4477 1-1 1h-6.59959c-1.43583 0-2.59984 1.1639-2.6 2.5997l-.00041 3.6004c-.00006.5523-.44783 1-1.00011.9999-.55228 0-.99995-.4478-.99989-1.0001z" fill="currentColor" fill-rule="evenodd"/></svg>