<svg fill="none" height="24" viewBox="0 0 24 24" width="24" xmlns="http://www.w3.org/2000/svg"><path clip-rule="evenodd" d="m12 5.5c-1.436 0-2.60002 1.16406-2.60002 2.6s1.16402 2.6 2.60002 2.6c1.4359 0 2.6-1.16406 2.6-2.6s-1.1641-2.6-2.6-2.6zm-4.60002 2.6c0-2.54051 2.05949-4.6 4.60002-4.6 2.5405 0 4.6 2.05949 4.6 4.6 0 2.5405-2.0595 4.6-4.6 4.6-2.54053 0-4.60002-2.0595-4.60002-4.6zm-5.01995 10.8858c1.57356-2.6246 4.89138-4.2096 9.61997-4.2096 4.7285 0 8.0464 1.585 9.6199 4.2096.284.4737.1302 1.0879-.3435 1.3719-.4736.284-1.0878.1302-1.3718-.3435-1.0773-1.7969-3.5692-3.238-7.9046-3.238-4.33544 0-6.82736 1.4411-7.90463 3.238-.28398.4737-.89819.6275-1.37187.3435s-.62745-.8982-.34347-1.3719z" fill="currentColor" fill-rule="evenodd"/></svg>