<svg fill="none" height="24" viewBox="0 0 24 24" width="24" xmlns="http://www.w3.org/2000/svg"><g fill="currentColor"><path d="m11.8548 7.83284c.5523 0 1 .44772 1 1 0 .55229-.4477 1.00001-1 1.00001h-2.75003c-.55229 0-1-.44772-1-1.00001 0-.55228.44771-1 1-1z"/><path clip-rule="evenodd" d="m13.3548 4.49951c1.782 0 3.2481 1.42912 3.25 3.21876l.0013.37135 3.1614-1.43677c.3935-.20271 1.0038-.39231 1.6015-.08555.6358.32629.8137.97881.845 1.45031l.0008.01111.0004.00722c.0009.01684.0014.03371.0015.05058l.0325 8.08798c.0094.594-.2535 1.2216-.8924 1.5083-.5568.2498-1.1362.1164-1.5574-.1255l-3.1926-1.5725-.002.2969c-.0024 1.7892-1.4683 3.2178-3.25 3.2178h-8.35553c-1.78318 0-3.25-1.4309-3.25-3.2222v-8.55557c0-1.79126 1.46682-3.22222 3.25-3.22222zm-8.35553 2c-.70211 0-1.25.55888-1.25 1.22222v8.55557c0 .6633.54789 1.2222 1.25 1.2222h8.35553c.7021 0 1.25-.5589 1.25-1.2222v-.0069l.0197-2.845-.013-3.7592c-.0004-.01471-.0004-.0294-.0002-.04407l-.0065-1.89694c0-.00115 0-.0023 0-.00346 0-.66334-.5479-1.22222-1.25-1.22222zm11.61433 3.78349.0109 3.1406v.0052.0052l-.0023.3289 3.6245 1.7853-.0278-6.90366z" fill-rule="evenodd"/></g></svg>