<svg fill="none" height="24" viewBox="0 0 24 24" width="24" xmlns="http://www.w3.org/2000/svg"><path clip-rule="evenodd" d="m4.09355 3.1955c.44432-.32803 1.07042-.23376 1.39845.21055l11.8125 16.00005c.328.4443.2338 1.0704-.2106 1.3984-.4443.328-1.0704.2338-1.3984-.2105l-1.1938-1.617c-.4181.1978-.8851.3087-1.3767.3087h-7.875c-1.80971 0-3.25-1.486-3.25-3.2857v-5.7143c0-1.79973 1.44029-3.2857 3.25-3.2857h.40934l-1.77634-2.40605c-.32803-.44431-.23376-1.07042.21055-1.39845zm3.04235 5.8045h-1.8859c-.67557 0-1.25.56073-1.25 1.2857v5.7143c0 .725.57443 1.2857 1.25 1.2857h7.875c.0417 0 .0829-.0021.1236-.0061zm3.8641-1c0-.55228.4477-1 1-1h1.125c1.8097 0 3.25 1.48597 3.25 3.2857v.2756l3.026-2.09192c.0286-.01978.0583-.03805.0888-.05474.392-.21448 1.0297-.4338 1.6531-.10471.6388.33722.8072 1.00539.8356 1.47591.0011.01904.0017.03811.0018.05719l.0194 6.64067c.0091.5875-.2414 1.2243-.8827 1.5203-.5865.2707-1.1974.1095-1.6228-.1569-.0197-.0123-.0389-.0253-.0577-.039l-4.65-3.3844c-.2585-.1882-.4115-.4887-.4115-.8085v-3.3295c0-.72497-.5744-1.2857-1.25-1.2857h-1.125c-.5523 0-1-.44771-1-1zm5.375 5.1062v-.1135l3.6072-2.4937.0153 5.2438z" fill="currentColor" fill-rule="evenodd"/></svg>