<svg fill="none" height="24" viewBox="0 0 24 24" width="24" xmlns="http://www.w3.org/2000/svg"><path clip-rule="evenodd" d="m12.4358 5.09995c.345.16707.5642.51669.5642.90006v11.99999c0 .3834-.2192.7331-.5643.9001-.3451.1671-.7554.1221-1.0561-.1158l-4.13942-3.2743-4.23991.0011c-.26526.0001-.51968-.1052-.70728-.2928-.1876-.1875-.29299-.4419-.29299-.7072v-5.02269c0-.55228.44772-1 1-1h4.24019l4.13961-3.27285c.3007-.23776.7109-.28267 1.056-.11561zm-1.4358 2.96546-2.79205 2.20749c-.17658.1396-.3951.2155-.6202.2155h-3.58775v3.0224l3.58748-.0009c.22528-.0001.44397.0759.62066.2157l2.79186 2.2084zm8.1495-.83214c.4673-.29434 1.0847-.15412 1.3791.3132 1.7735 2.81583 2.0103 6.53723.346 9.80873-.2504.4923-.8525.6883-1.3447.4379-.4923-.2504-.6883-.8525-.4379-1.3447 1.3487-2.6512 1.1382-5.623-.2557-7.83604-.2944-.46731-.1542-1.08475.3132-1.37909zm-3.4537 1.73094c.4197-.35903 1.0509-.30988 1.41.10978 1.6242 1.89841 1.853 4.47771.3168 6.70101-.314.4543-.9368.5681-1.3912.2542-.4544-.314-.5682-.9368-.2542-1.3912 1.007-1.4573.8583-3.0372-.1911-4.2638-.3591-.4197-.3099-1.05095.1097-1.40999z" fill="currentColor" fill-rule="evenodd"/></svg>