<svg fill="none" height="24" viewBox="0 0 24 24" width="24" xmlns="http://www.w3.org/2000/svg"><path clip-rule="evenodd" d="m12.45 5.09906c.3461.16667.5661.51684.5661.90095v11.99999c0 .3842-.22.7343-.5662.901-.3461.1667-.757.1203-1.0574-.1192l-4.10163-3.2716-4.2906.0012c-.26526 0-.51969-.1053-.70728-.2928-.1876-.1876-.29299-.442-.29299-.7072v-5.02274c0-.55229.44772-1 1-1h4.29085l4.10185-3.27054c.3003-.23946.7113-.28574 1.0573-.11906zm-1.4339 2.97725-2.75196 2.19419c-.17711.1413-.39691.2182-.62342.2182h-3.64072v3.0224l3.64045-.001c.22666-.0001.44662.0769.62383.2182l2.75182 2.1949zm3.9214 3.84109c0-.5523.4477-1 1-1h5.0625c.5523 0 1 .4477 1 1s-.4477 1-1 1h-5.0625c-.5523 0-1-.4477-1-1z" fill="currentColor" fill-rule="evenodd"/></svg>