<svg fill="none" height="24" viewBox="0 0 24 24" width="24" xmlns="http://www.w3.org/2000/svg"><path clip-rule="evenodd" d="m14.3839 4.0944c.3514.16457.5759.51758.5759.90561v13.99999c0 .3881-.2245.7411-.576.9057-.3514.1645-.7664.1109-1.0644-.1377l-4.6045-3.8397-4.71461.0013c-.26527.0001-.5197-.1052-.70729-.2928-.1876-.1875-.293-.4419-.293-.7072v-5.85978c0-.55229.44772-1 1-1h4.71492l4.60468-3.83797c.298-.24844.7129-.30202 1.0643-.13745zm-1.4241 3.04092-3.24252 2.70266c-.17972.1498-.40629.23182-.64026.23182h-4.07702v3.8595l4.07673-.0011c.23416-.0001.46091.082.64074.232l3.24233 2.7038zm5.1793 1.43295c.4288-.34802 1.0586-.28249 1.4066.14635 1.7487 2.15478 1.991 5.05708.3409 7.57448-.3027.4619-.9226.5909-1.3845.2881-.4619-.3027-.5909-.9226-.2882-1.3845 1.1644-1.7765.9889-3.7267-.2212-5.21781-.348-.42884-.2824-1.05861.1464-1.40662z" fill="currentColor" fill-rule="evenodd"/></svg>