<svg fill="none" height="24" viewBox="0 0 24 24" width="24" xmlns="http://www.w3.org/2000/svg"><path clip-rule="evenodd" d="m17.2653 3.07615c.3737.15478.6174.51942.6174.92388v2.59968l.9529-.84709c.4128-.36692 1.0449-.32974 1.4118.08305.3669.41278.3297 1.04485-.083 1.41177l-13.50004 11.99996c-.41278.367-1.04485.3298-1.41177-.083s-.32974-1.0449.08305-1.4118l1.58-1.4044h-1.41564c-.55228 0-1-.4477-1-1v-6.69697c0-.26521.10536-.51957.29289-.7071.18754-.18754.44189-.2929.70711-.2929l6.3172.00001 4.3584-4.35832c.286-.286.7161-.37155 1.0897-.21677zm-8.09966 11.27205 6.71706-5.97071v-1.96325l-2.9441 2.9441c-.1876.18754-.4419.2929-.7071.2929l-5.7315-.00001v4.69697zm8.71706-1.3482v7c0 .4045-.2437.7691-.6174.9239-.3736.1548-.8037.0692-1.0897-.2168l-3.8827-3.8826c-.3905-.3905-.3905-1.0237 0-1.4142.3905-.3906 1.0237-.3906 1.4142 0l2.1756 2.1755v-4.5858c0-.5523.4477-1 1-1 .5522 0 1 .4477 1 1z" fill="currentColor" fill-rule="evenodd"/></svg>