<svg fill="none" height="24" viewBox="0 0 24 24" width="24" xmlns="http://www.w3.org/2000/svg"><path clip-rule="evenodd" d="m12.45 5.09906c.3461.16667.5661.51684.5661.90095v11.99999c0 .3842-.22.7343-.5662.901-.3461.1667-.757.1203-1.0574-.1192l-4.10163-3.2716-4.2906.0012c-.26526 0-.51969-.1053-.70728-.2928-.1876-.1876-.29299-.442-.29299-.7072v-5.02274c0-.55229.44772-1 1-1h4.29085l4.10185-3.27054c.3003-.23946.7113-.28574 1.0573-.11906zm-1.4339 2.97725-2.75196 2.19419c-.17711.1413-.39691.2182-.62342.2182h-3.64072v3.0224l3.64045-.001c.22666-.0001.44662.0769.62383.2182l2.75182 2.1949zm4.7678.95004c.3855-.39551 1.0186-.40364 1.4141-.01816l1.552 1.51271 1.552-1.51271c.3955-.38548 1.0286-.37735 1.4141.01816.3855.3955.3774 1.02865-.0181 1.41405l-1.5153 1.4769 1.5153 1.4768c.3955.3855.4036 1.0186.0181 1.4141s-1.0186.4036-1.4141.0182l-1.552-1.5127-1.552 1.5127c-.3955.3854-1.0286.3773-1.4141-.0182s-.3774-1.0286.0181-1.4141l1.5153-1.4768-1.5153-1.4769c-.3955-.3854-.4036-1.01855-.0181-1.41405z" fill="currentColor" fill-rule="evenodd"/></svg>