<svg fill="none" height="24" viewBox="0 0 24 24" width="24" xmlns="http://www.w3.org/2000/svg"><path clip-rule="evenodd" d="m2.05861 2.97104c.40838-.50816 1.04585-.93106 1.83462-.93106h13.86667c.5523 0 1 .44771 1 1 0 .55228-.4477 1-1 1h-13.86667c-.03596 0-.14427.02042-.27567.18392-.13083.16279-.21646.39328-.21665.61692-.00036.42909.12256.8445.29221 1.12502.1179.19498.20366.24834.22864.2608h15.54484c.173 0 .3122-.00476.4612-.00985.1067-.00365.2185-.00747.3513-.00984.2631-.00468.5956-.00237.9135.06849.3371.07515.7402.24574 1.0372.63841.287.37947.3701.829.3701 1.24613v10.24002c0 1.9661-1.5939 3.56-3.56 3.56h-14.08c-1.96613 0-3.56-1.5939-3.56-3.56v-12.96002c0-.06788.00677-.13418.01965-.19826-.01245-.1338-.01875-.2683-.01864-.40258.00058-.68972.24874-1.35924.6577-1.8681zm1.34129 5.1908v10.23816c0 .8615.69844 1.56 1.56 1.56h14.08c.8616 0 1.56-.6985 1.56-1.56v-10.19046c-.0708-.00373-.1634-.00508-.2851-.00291-.0673.0012-.1556.00401-.2544.00716-.1837.00584-.4039.01285-.5938.01285h-15.57336c-.17455 0-.33902-.02322-.49334-.0648zm17.1907-.12143c0-.00002.0002.00058.0005.00181zm-3.3869 4.51569c.3905.3905.3906 1.0237 0 1.4143l-.0167.0167c-.3905.3905-1.0236.3905-1.4142 0-.3905-.3905-.3905-1.0237 0-1.4142l.0167-.0167c.3905-.3906 1.0237-.3906 1.4142-.0001z" fill="currentColor" fill-rule="evenodd"/></svg>