<svg fill="none" height="24" viewBox="0 0 24 24" width="24" xmlns="http://www.w3.org/2000/svg"><path clip-rule="evenodd" d="m8.27955 3.02412c.18345-.59564.73285-1.02412 1.37951-1.02412h4.88724c.6736 0 1.2373.46366 1.3984 1.09112l.9433 3.67531c1.3054 1.30259 2.112 3.1203 2.112 5.11967 0 1.9587-.7742 3.743-2.033 5.0395-.0035.0132-.0072.0264-.0113.0396l-1.2352 4.0107c-.1835.5956-.7329 1.0241-1.3796 1.0241h-4.88717c-.67367 0-1.23737-.4637-1.39842-1.0911l-1.02235-3.9833c-1.2588-1.2965-2.03296-3.0808-2.03296-5.0395 0-2.01034.81552-3.83702 2.13354-5.14107l1.14601-3.72091.92762.2857.02808.00865-.02808-.00865m-.67739 4.86745c.10513-.06561.1984-.15081.27371-.25239.86986-.74501 1.98671-1.1907 3.19651-1.1907s2.3267.4457 3.1965 1.19073c.0752.10129.1684.18657.2737.25231.9407.93332 1.5298 2.24478 1.5298 3.70888 0 2.869-2.262 5.1519-5 5.1519s-5-2.2829-5-5.1519c0-1.4641.58904-2.77552 1.52978-3.70883zm5.88362-3.00753c-.7511-.2816-1.5637-.43556-2.4134-.43556-.797 0-1.5613.13546-2.27289.38464l.34459-1.11882h4.0414zm-4.2226-1.55644c0-.00016.0001-.00032.0001-.00048l-.53184-.16382.53184.16382zm-.66898 14.9644.36504 1.4223h4.04144l.4234-1.3748c-.7338.2671-1.5252.4128-2.3517.4128-.8742 0-1.7091-.163-2.47818-.4603z" fill="currentColor" fill-rule="evenodd"/></svg>