<svg fill="none" height="24" viewBox="0 0 24 24" width="24" xmlns="http://www.w3.org/2000/svg"><path clip-rule="evenodd" d="m20.3035 10.3357c-4.5826-4.4476-12.02444-4.4476-16.60704 0-.39632.3846-1.02941.3752-1.41406-.0211-.38464-.39635-.37518-1.02944.02114-1.41409 5.35853-5.20068 14.03436-5.20068 19.39296 0 .3963.38465.4057 1.01774.0211 1.41409-.3846.3963-1.0177.4057-1.4141.0211zm-3.01 2.569c-2.9198-2.8339-7.66589-2.8339-10.58575 0-.39632.3846-1.02941.3752-1.41405-.0212-.38465-.3963-.37518-1.0294.02113-1.414 3.69579-3.58694 9.67587-3.58694 13.37157 0 .3964.3846.4058 1.0177.0212 1.414-.3847.3964-1.0178.4058-1.4141.0212zm-2.9946 2.9064c-1.266-1.2286-3.3305-1.2286-4.59648 0-.39631.3847-1.02941.3752-1.41405-.0211s-.37518-1.0294.02114-1.4141c2.04189-1.9817 5.34039-1.9817 7.38229 0 .3963.3847.4058 1.0178.0211 1.4141-.3846.3963-1.0177.4058-1.414.0211zm-1.5631 1.4754c.3846.3963.3752 1.0294-.0212 1.4141l-.0175.017c-.3963.3846-1.0294.3752-1.4141-.0211-.3846-.3964-.3751-1.0295.0212-1.4141l.0175-.017c.3963-.3847 1.0294-.3752 1.4141.0211z" fill="currentColor" fill-rule="evenodd"/></svg>