<svg fill="none" height="24" viewBox="0 0 24 24" width="24" xmlns="http://www.w3.org/2000/svg"><path clip-rule="evenodd" d="m3.99841 4.27533c.40023-.38058 1.03319-.36465 1.41377.03558l12.37502 13.01409c.3806.4002.3646 1.0332-.0356 1.4138-.4002.3805-1.0332.3646-1.4138-.0356l-1.504-1.5818c-.1927-.0313-.3782-.1193-.5298-.2644-1.2673-1.2126-3.3394-1.2126-4.60668 0-.39903.3818-1.03204.3679-1.41387-.0312-.38182-.399-.36787-1.032.03116-1.4138.97383-.9319 2.23239-1.419 3.50399-1.4614l-1.7306-1.82c-1.24412.3121-2.41596.9333-3.38535 1.8609-.39904.3818-1.03205.3678-1.41387-.0312-.38183-.399-.36788-1.032.03116-1.4139.95335-.9122 2.05801-1.5882 3.23394-2.0292l-1.32327-1.39156c-.02949.01651-.06009.0317-.09176.04544-1.25057.54256-2.42069 1.30512-3.44749 2.28762-.39904.3818-1.03205.3679-1.41387-.0312-.38183-.399-.36788-1.032.03116-1.4138 1.04626-1.00119 2.21918-1.80675 3.4684-2.4167l-1.81422-1.90791c-.38058-.40023-.36465-1.03319.03558-1.41376zm7.56499 2.86348c.0232-.5518.4893-.9803 1.0411-.95708 3.2949.13861 6.5582 1.41234 9.0869 3.83197.399.3818.4129 1.0148.0311 1.4138-.3818.3991-1.0148.413-1.4139.0312-2.1557-2.06279-4.9482-3.15927-7.7881-3.27874-.5518-.02321-.9803-.48935-.9571-1.04115zm2.888 4.04139c.2118-.5101.797-.7519 1.307-.5401 1.06.44 2.0546 1.0755 2.9229 1.9063.3991.3819.413 1.0149.0312 1.4139s-1.0148.413-1.4139.0312c-.684-.6546-1.4682-1.156-2.307-1.5043-.5101-.2118-.7519-.7969-.5402-1.307zm-1.7107 7.1117c.3818.399.3679 1.032-.0312 1.4138l-.0175.0168c-.399.3818-1.032.3679-1.4139-.0311-.3818-.3991-.3678-1.0321.0312-1.4139l.0175-.0168c.3991-.3818 1.0321-.3679 1.4139.0312z" fill="currentColor" fill-rule="evenodd"/></svg>