<svg fill="none" height="24" viewBox="0 0 24 24" width="24" xmlns="http://www.w3.org/2000/svg"><path clip-rule="evenodd" d="m10.6446 7.12347c-1.67198-.98632-3.6934-1.18648-5.52634-.54722l-2.38902.8332c-.52148.18188-1.09166-.09343-1.27353-.61491s.09343-1.09166.61491-1.27353l2.38902-.8332c2.38843-.833 5.02246-.57218 7.20116.71305 1.6985 1.00195 3.756 1.19185 5.6092.51769l3.9881-1.45081c.519-.18881 1.0928.07887 1.2816.59788s-.0789 1.09281-.5979 1.28161l-3.9881 1.45081c-2.4148.87847-5.0959.63103-7.3091-.67457zm0 5.73783c-1.67198-.9863-3.6934-1.1865-5.52634-.5472l-2.38902.8332c-.52148.1819-1.09166-.0934-1.27353-.6149s.09343-1.0917.61491-1.2735l2.38902-.8332c2.38843-.83303 5.02246-.57221 7.20116.713 1.6985 1.002 3.756 1.1919 5.6092.5177l3.9881-1.4508c.519-.1888 1.0928.0789 1.2816.5979s-.0789 1.0928-.5979 1.2816l-3.9881 1.4508c-2.4148.8785-5.0959.631-7.3091-.6746zm0 5.7379c-1.67198-.9863-3.6934-1.1865-5.52634-.5472l-2.38902.8332c-.52148.1818-1.09166-.0935-1.27353-.6149-.18187-.5215.09343-1.0917.61491-1.2736l2.38902-.8332c2.38843-.833 5.02246-.5722 7.20116.7131 1.6985 1.0019 3.756 1.1918 5.6092.5177l3.9881-1.4508c.519-.1889 1.0928.0788 1.2816.5978s-.0789 1.0928-.5979 1.2817l-3.9881 1.4508c-2.4148.8784-5.0959.631-7.3091-.6746z" fill="currentColor" fill-rule="evenodd"/></svg>