<svg fill="none" height="24" viewBox="0 0 24 24" width="24" xmlns="http://www.w3.org/2000/svg"><path clip-rule="evenodd" d="m11.249 4.24475c-.5639 0-1.0769.35998-1.29807.91932-.20305.51361-.78402.76536-1.29762.56231s-.76535-.78402-.5623-1.29762c.4988-1.26167 1.70971-2.18401 3.15799-2.18401 1.9177 0 3.4077 1.60406 3.4077 3.5015 0 1.89745-1.49 3.5015-3.4077 3.5015h-8.8491c-.55228 0-1-.44771-1-1 0-.55228.44772-1 1-1h8.8491c.7417 0 1.4077-.63586 1.4077-1.5015s-.666-1.5015-1.4077-1.5015zm7.8494 3.75225c-.6259 0-1.1646.38321-1.3899.93162-.2098.51087-.7941.7549-1.3049.54506-.5109-.20985-.7549-.7941-.5451-1.30496.5228-1.2726 1.7751-2.17172 3.2399-2.17172 1.9338 0 3.5015 1.56768 3.5015 3.5015 0 1.9338-1.5677 3.5015-3.5015 3.5015h-14.197c-.55228 0-1-.4477-1-1s.44772-1 1-1h14.197c.8293 0 1.5015-.6722 1.5015-1.5015 0-.82925-.6722-1.5015-1.5015-1.5015zm-12.6955 7.7553c0-.5523.44772-1 1-1h8.8491c1.9177 0 3.4077 1.604 3.4077 3.5015 0 1.8974-1.49 3.5015-3.4077 3.5015-1.4483 0-2.6592-.9224-3.158-2.1841-.203-.5136.0487-1.0945.5623-1.2976.5136-.203 1.0946.0487 1.2976.5623.2212.5594.7342.9194 1.2981.9194.7417 0 1.4077-.6359 1.4077-1.5015 0-.8657-.666-1.5015-1.4077-1.5015h-8.8491c-.55228 0-1-.4478-1-1z" fill="currentColor" fill-rule="evenodd"/></svg>