<svg fill="none" height="24" viewBox="0 0 24 24" width="24" xmlns="http://www.w3.org/2000/svg"><path clip-rule="evenodd" d="m6.375 4c-1.31168 0-2.375 1.06332-2.375 2.37498v11.25002c0 1.3117 1.06332 2.375 2.375 2.375h11.25c1.3117 0 2.375-1.0633 2.375-2.375v-11.25002c0-1.31166-1.0633-2.37498-2.375-2.37498zm-4.375 2.37498c0-2.41624 1.95876-4.37498 4.375-4.37498h11.25c2.4162 0 4.375 1.95874 4.375 4.37498v11.25002c0 2.4163-1.9588 4.375-4.375 4.375h-11.25c-2.41624 0-4.375-1.9587-4.375-4.375zm6.11091 1.7359c.39052-.39052 1.02369-.39053 1.41421 0l2.47488 2.47482 2.4749-2.47482c.3905-.39052 1.0237-.39052 1.4142 0 .3905.39053.3905 1.02369 0 1.41422l-2.4749 2.4748 2.4749 2.4749c.3905.3905.3905 1.0237 0 1.4142s-1.0237.3905-1.4142 0l-2.4749-2.4748-2.47488 2.4748c-.39052.3905-1.02369.3905-1.41421 0s-.39052-1.0237 0-1.4142l2.47489-2.4749-2.47489-2.47481c-.39052-.39052-.39052-1.02368 0-1.41421z" fill="currentColor" fill-rule="evenodd"/></svg>