<svg fill="none" height="24" viewBox="0 0 24 24" width="24" xmlns="http://www.w3.org/2000/svg"><path clip-rule="evenodd" d="m11.974 4h.052c1.5732 0 3.3638-.00001 4.8885.13186.7665.0663 1.5023.16863 2.1297.33342.5944.15614 1.2432.40531 1.6871.86571.7045.73056.9997 1.64247 1.1368 2.69999.132 1.01751.1319 2.30862.1319 3.89912v.1398c0 1.5905.0001 2.8816-.1319 3.8991-.1371 1.0575-.4323 1.9695-1.1368 2.7-.4439.4604-1.0927.7096-1.6871.8657-.6274.1648-1.3632.2671-2.1297.3334-1.5247.1319-3.3153.1319-4.8885.1319h-.052c-1.5732 0-3.36379 0-4.88846-.1319-.76652-.0663-1.50231-.1686-2.12972-.3334-.59443-.1561-1.24319-.4053-1.68715-.8657-.70446-.7305-.9997-1.6425-1.1368-2.7-.13192-1.0175-.1319-2.3086-.13187-3.8991v-.1398c-.00003-1.5905-.00005-2.88161.13187-3.89912.1371-1.05752.43234-1.96943 1.1368-2.69999.44396-.4604 1.09272-.70957 1.68715-.86571.62741-.16479 1.3632-.26712 2.12972-.33342 1.52466-.13187 3.31526-.13186 4.88846-.13186zm-6.51007 2.39967c-.50322.13217-.70527.26743-.75557.31959-.28405.29457-.48307.72018-.59309 1.56886-.11329.87383-.11527 2.03468-.11527 3.71188s.00198 2.8381.11527 3.7119c.11002.8487.30904 1.2743.59309 1.5688.0503.0522.25235.1875.75557.3196.47024.1236 1.07891.2134 1.79395.2753 1.43006.1237 3.13962.1244 4.74212.1244s3.3121-.0007 4.7421-.1244c.7151-.0619 1.3237-.1517 1.794-.2753.5032-.1321.7052-.2674.7555-.3196.2841-.2945.4831-.7201.5931-1.5688.1133-.8738.1153-2.0347.1153-3.7119s-.002-2.83805-.1153-3.71188c-.11-.84868-.309-1.27429-.5931-1.56886-.0503-.05216-.2523-.18742-.7555-.31959-.4703-.12352-1.0789-.21341-1.794-.27525-1.43-.12369-3.1396-.12442-4.7421-.12442s-3.31206.00073-4.74212.12442c-.71504.06184-1.32371.15173-1.79395.27525zm4.92487 1.26311c.5986-.32607 1.2073-.1109 1.5716.15836l.0295.02179 3.4375 2.95307c.3407.2454.7151.6659.7158 1.2768.0008.6152-.3812 1.048-.7094 1.3017l-3.4376 2.805-.0467.0301c-.3138.2026-.9574.4913-1.5949.0941-.57098-.3558-.67659-.9989-.69543-1.368l-.00124-.0242-.01449-5.83515c-.00608-.46728.15255-1.09066.74536-1.41357zm1.2574 2.52152.0092 3.6919 2.1993-1.7946z" fill="currentColor" fill-rule="evenodd"/></svg>