<svg fill="none" height="24" viewBox="0 0 24 24" width="24" xmlns="http://www.w3.org/2000/svg"><path clip-rule="evenodd" d="m11.4401 4.59998c-3.77763 0-6.84 3.06237-6.84 6.84002 0 3.7776 3.06237 6.84 6.84 6.84 1.8627 0 3.5514-.7446 4.7849-1.9523.0016-.0015.0032-.0031.0047-.0046 1.2654-1.2413 2.0504-2.9705 2.0504-4.8831 0-3.77765-3.0624-6.84002-6.84-6.84002zm6.8777 12.39412c1.2273-1.5178 1.9623-3.4501 1.9623-5.5541 0-4.88222-3.9578-8.84002-8.84-8.84002s-8.84 3.9578-8.84 8.84002c0 4.8822 3.9578 8.84 8.84 8.84 2.0574 0 3.9507-.7029 5.4528-1.8816l2.8119 2.7203c.3969.384 1.03.3735 1.414-.0234.384-.397.3735-1.03-.0234-1.414zm-10.9177-5.5941c0-.5523.44771-1 1-1h6c.5523 0 1 .4477 1 1s-.4477 1-1 1h-6c-.55229 0-1-.4477-1-1z" fill="currentColor" fill-rule="evenodd"/></svg>