<svg xmlns="http://www.w3.org/2000/svg" width="230" height="11" viewBox="0 0 230 11" fill="none">
  <path d="M0.80315 4.68525C22.2678 5.81627 43.7707 5.88932 65.257 5.98199C70.2709 5.95576 75.2848 5.94527 80.2986 5.90446C91.5376 5.81293 93.7995 5.7494 104.47 5.54564C110.434 5.43166 116.352 5.39694 122.312 5.62753C123.598 5.73684 124.884 5.83421 126.169 5.95539C129.759 6.29401 130.044 6.40996 133.664 6.68532C137.221 6.95584 140.782 7.00787 144.346 7.10442C150.739 7.20499 157.123 7.59707 163.488 8.22635C174.902 9.81175 186.402 10.1465 197.896 10.208C204.092 10.1876 210.286 10.0384 216.475 9.72944C219.005 9.60322 221.535 9.49387 224.045 9.11739C223.532 8.07183 223.253 6.85077 222.505 5.9807C222.426 5.88859 219.329 6.02096 218.987 6.04573C218.775 6.06031 218.351 5.89589 218.353 6.12268C218.362 7.18034 218.793 8.18533 219.014 9.21662C221.004 9.38832 223.003 9.23411 224.994 9.29037C225.576 9.30786 226.152 9.42098 226.732 9.47666C227.334 9.465 227.915 9.68451 228.515 9.67197C228.696 9.78274 230.165 7.05969 229.985 6.949C229.28 6.59625 228.538 6.4443 227.764 6.343C225.129 6.02199 222.485 6.02631 219.838 6.13781C219.628 7.15462 219.212 8.14711 219.208 9.1882C219.208 9.408 219.621 9.20573 219.827 9.20573C220.193 9.205 220.559 9.19405 220.924 9.18531C221.334 9.17365 221.743 9.16197 222.153 9.14652C222.522 9.13195 223.143 9.46745 223.261 9.09435C223.575 8.1022 223.197 7.00105 223.165 5.95441C220.6 5.81741 218.034 5.86347 215.466 5.88271C209.946 5.92411 204.427 6.01652 198.907 6.048C187.461 6.05092 175.996 5.93896 164.6 4.66594C158.171 4.16149 151.732 3.74003 145.288 3.54792C137.978 3.30772 130.667 3.01721 123.418 1.88942C119.777 1.53258 116.411 1.16753 112.732 0.979658C96.4587 0.148539 80.1494 0.430341 63.8652 0.208008C42.5874 0.300124 21.2919 0.363089 0.0364271 1.50475C-0.174741 1.56247 0.591993 4.743 0.80315 4.68525Z" fill="var(--Base-Brand-color-primary-500, #E3A849)"/>
</svg>

