<svg xmlns="http://www.w3.org/2000/svg" width="161" height="162" viewBox="0 0 161 162" fill="none">
  <path d="M61.9756 35.9866C63.0667 35.942 64.2191 36.2171 65.2402 36.9143L65.541 37.135C66.0413 37.5292 66.4905 38.0254 66.873 38.6243C67.4489 37.9761 68.2193 37.5929 69.0752 37.5549L69.2549 37.552C71.1079 37.5705 72.8242 39.1441 73.7695 41.6643L73.8623 41.9241C74.3131 43.2537 74.5903 45.0646 74.7354 47.1584L74.7861 48.0217C74.8758 49.785 74.8836 51.7621 74.8174 53.8772L74.7783 54.9465C74.562 60.0937 73.9288 65.9978 72.9629 71.6682C73.0063 71.6225 73.0527 71.5763 73.0977 71.5266L73.376 71.2063C74.0334 70.4198 74.7428 69.3706 75.4893 68.1917L76.6367 66.343L76.6875 66.26C76.3787 64.3801 76.3468 62.4999 76.6934 60.595L76.8184 59.97C77.4564 57.0731 78.7777 54.6662 80.4941 53.2512C80.4523 53.1432 80.42 53.0295 80.3975 52.9124L80.3779 52.7883C80.2561 51.83 80.8616 50.8764 81.8438 50.7512L82.0254 50.7385C82.7732 50.7261 83.4036 51.2306 83.6621 51.9163C83.9858 51.8965 84.3133 51.9075 84.6426 51.9583L84.9736 52.0217C85.4758 52.1368 85.9628 52.339 86.4316 52.6184C86.8491 49.7166 88.531 47.0651 90.5254 45.47L90.8271 45.2385C90.9927 45.1168 91.1627 45.0023 91.334 44.8938C91.2786 44.7615 91.2347 44.6215 91.2061 44.4758L91.1816 44.3274C91.0573 43.3495 91.621 42.318 92.6348 42.1887L92.8223 42.176C93.7316 42.1675 94.4364 42.9524 94.5703 43.8508C94.621 43.8508 94.672 43.8492 94.7227 43.8508L94.96 43.8655C95.9335 43.9497 96.8318 44.3557 97.5791 45.093C98.6214 43.6168 99.8543 42.5966 101.188 42.134C101.178 42.0284 101.173 41.92 101.178 41.8108L101.194 41.6272C101.316 40.7152 102.018 39.9107 102.976 39.9543L103.163 39.9739C104.014 40.1141 104.562 40.9253 104.597 41.7834V41.968C104.593 42.0413 104.585 42.1137 104.574 42.1848C106.835 43.0431 108.646 45.4871 109.689 49.0374C110.221 48.6634 110.815 48.4241 111.442 48.3196L111.724 48.2815C111.842 48.2694 111.96 48.2631 112.078 48.26C112.09 48.1945 112.105 48.1283 112.122 48.0627L112.181 47.8684C112.334 47.4231 112.598 47.0409 112.929 46.7756C113.307 46.4727 113.806 46.3029 114.317 46.4368L114.502 46.4993C114.915 46.6701 115.204 47.0189 115.362 47.4124C115.521 47.8059 115.562 48.2683 115.478 48.7317L115.433 48.9299C115.406 49.0314 115.372 49.1297 115.335 49.2249C117.502 50.5797 119.249 53.2574 119.249 56.5432C119.249 58.9887 118.957 60.3389 118.689 61.5784V61.5813L118.688 61.5803C118.65 61.7567 118.614 61.9296 118.578 62.1018L118.476 62.6243C118.197 64.1555 118.038 66.1658 118.636 70.9475L118.696 71.3733C119.044 73.5271 120.018 76.0403 121.54 78.8567L121.851 79.4211C123.436 82.2614 125.529 85.3492 128 88.6116L129.008 89.926C134.14 96.5344 140.657 103.739 147.438 110.945L147.504 111.023C147.792 111.398 147.775 111.927 147.465 112.284L147.395 112.359C147.017 112.713 146.437 112.718 146.054 112.386L145.979 112.315C139.192 105.102 132.62 97.8388 127.425 91.1487L126.404 89.8186C123.901 86.513 121.749 83.3446 120.103 80.3948L119.779 79.8069C118.206 76.8958 117.118 74.1562 116.721 71.6858L116.65 71.1956C116.037 66.2927 116.18 64.064 116.507 62.2659L116.621 61.6809C116.66 61.4919 116.7 61.3077 116.739 61.1262L116.745 61.0989C117 59.9157 117.247 58.7562 117.247 56.5432C117.247 54.052 115.961 52.0522 114.425 51.0188L114.115 50.8254C113.967 50.7399 113.817 50.6659 113.669 50.5999C113.576 50.6045 113.482 50.6011 113.389 50.5872L113.238 50.5559C113.05 50.5065 112.881 50.4199 112.733 50.3079C112.487 50.2649 112.25 50.2484 112.024 50.2629L111.771 50.2922C111.158 50.3943 110.576 50.7324 110.123 51.4426L110.035 51.5891C109.854 51.906 109.516 52.0954 109.159 52.093L109.005 52.0803C108.645 52.0217 108.349 51.773 108.226 51.4377L108.184 51.2893C107.326 47.0047 105.566 44.7432 103.927 44.0784L103.769 44.0188C102.983 43.7482 102.114 43.8066 101.226 44.304C100.383 44.776 99.508 45.6535 98.6992 47.0491L98.5391 47.3352C98.3863 47.6152 98.1106 47.8033 97.7998 47.8469L97.665 47.8567C97.3458 47.8579 97.0475 47.7065 96.8594 47.4553L96.7852 47.342C96.2168 46.3193 95.5141 45.9245 94.7998 45.8586L94.6572 45.8499C93.8744 45.8241 92.9268 46.1655 91.9678 46.8831L91.7764 47.0315C89.719 48.6769 88.0965 51.6978 88.3633 54.635L88.3652 54.7961C88.3392 55.167 88.1066 55.4985 87.7559 55.6467C87.4049 55.7948 87.0059 55.7294 86.7217 55.4895L86.6064 55.3762C85.9151 54.57 85.2293 54.1539 84.6025 53.9905L84.3379 53.9348C83.9473 53.8746 83.5471 53.9056 83.1426 54.0276C82.9207 54.2124 82.6494 54.34 82.3457 54.386L82.1689 54.4963C80.7494 55.4415 79.4154 57.5051 78.7793 60.3694L78.6621 60.9534C78.5094 61.7926 78.4398 62.6314 78.4453 63.4749C79.1633 62.3904 79.8923 61.39 80.6035 60.679L80.9414 60.3518C81.2076 60.1042 81.4756 59.8793 81.7422 59.677C81.7344 58.2639 82.1839 56.9532 83.2979 56.4368L83.4883 56.3596C84.4453 56.0197 85.5153 56.3866 86.4365 57.0715C87.4371 57.8156 88.3797 59.0102 89.0557 60.468C89.7315 61.9258 90.0347 63.4163 89.9561 64.6604C89.8836 65.8061 89.4719 66.8599 88.5938 67.3704L88.4121 67.4651C87.9769 67.6667 87.5085 67.7089 87.042 67.635L86.9346 67.9612C86.5546 69.0629 86.049 70.347 85.4355 71.7786L84.7861 73.2581C84.2544 74.4461 83.6581 75.7213 83.0068 77.0686L83.7129 78.4866L83.7139 78.4885L83.7148 78.4895V78.4915L84.4346 79.9417C84.6781 80.4282 84.9326 80.9287 85.2061 81.4592C96.347 98.5025 102.254 109.413 110.725 136.142L110.751 136.24C110.848 136.703 110.603 137.173 110.169 137.361L110.073 137.397C109.579 137.553 109.054 137.306 108.853 136.841L108.817 136.745C100.923 111.837 95.3061 100.839 85.5166 85.6155L83.5 82.5081L83.4717 82.4622L83.4482 82.4202C82.8814 81.3216 82.395 80.3374 81.9141 79.3655L81.8936 79.3254C80.9265 81.2618 79.867 83.321 78.7246 85.4612L77.3691 87.9719C71.7031 98.3544 64.4254 110.324 57.4658 120.005L56.0781 121.909C56.0584 121.936 56.0355 121.96 56.0137 121.985C56.3499 123.654 56.6698 125.42 56.9775 127.287L57.0068 127.466L56.915 127.622C47.3628 143.9 40.5368 150.499 27.7363 161.049L27.373 161.349L27.0518 161.004C19.1475 152.502 13.9245 145.674 10.625 138.66C7.32075 131.636 5.96034 124.457 5.72461 115.275L5.7168 114.965L5.99121 114.82L7.95605 113.773C17.5081 108.63 23.087 104.72 31.2744 94.9641L31.4609 94.7424L31.7461 94.7932C32.8779 94.9959 33.9567 95.2237 34.9863 95.4758C39.7285 84.217 40.6982 70.4571 41.2227 62.9709L41.3936 60.6116C41.4486 59.9188 41.5038 59.3243 41.5635 58.8469L41.6025 58.5803C42.0537 55.8614 44.0605 54.2748 46.1846 54.1633L46.3877 54.1575C47.4042 54.1499 48.4226 54.4859 49.2461 55.1877L49.3926 55.3186C49.42 55.3442 49.4468 55.3713 49.4736 55.3977C49.8481 52.2954 50.125 49.5077 50.3369 47.344L50.3379 47.3352C50.457 46.1195 50.5576 45.0966 50.6455 44.3293L50.6768 44.093C51.0385 41.6777 52.6266 39.9229 54.6172 39.7463L54.8818 39.7327C55.7625 39.7185 56.597 40.0271 57.3076 40.6204L57.2998 40.2161C57.2752 37.7585 59.5623 36.1755 61.7588 35.9993L61.9756 35.9866ZM61.9189 37.9934C60.335 38.1205 59.2909 39.1747 59.3008 40.1956L59.3252 41.385V41.386L59.3613 43.1213C59.42 47.4875 59.2235 55.0089 56.5518 66.4026L56.2451 67.6848C56.1219 68.1875 55.6379 68.5077 55.1357 68.4377L55.0352 68.4182C54.4984 68.287 54.1685 67.7457 54.2998 67.2092L54.5381 66.2239C56.9071 56.2183 57.3354 49.2538 57.3643 44.7961L57.3232 44.6594C56.8121 42.3611 55.7003 41.7466 54.9414 41.7336L54.7939 41.7385C53.9978 41.8092 52.9845 42.5735 52.6836 44.2161L52.6328 44.5569C52.5479 45.2983 52.4503 46.2986 52.332 47.5071L52.3301 47.5315L52.3291 47.5354C51.7715 53.2341 50.7706 63.457 48.585 72.2932L48.3701 73.1448C48.2404 73.6459 47.7522 73.9595 47.251 73.8831L47.1504 73.8625C46.6154 73.7242 46.2932 73.1785 46.4316 72.6438L46.6445 71.8079C47.6703 67.6604 48.43 63.1923 49.0068 59.0305C48.985 58.9824 48.9663 58.9321 48.9521 58.8801L48.9248 58.7405C48.8159 57.8703 48.4993 57.2663 48.1152 56.8674L47.9473 56.7092C47.5413 56.3633 47.0392 56.1779 46.5146 56.1584L46.2891 56.1604C45.1779 56.2188 43.9586 57.025 43.6084 58.7405L43.5498 59.095C43.4955 59.5295 43.4444 60.0812 43.3926 60.7375L43.2285 63.011C42.716 70.3711 41.7377 84.4259 36.9336 96.0002C42.2949 97.5955 46.1886 100.058 49.123 103.884C52.0011 107.637 53.9251 112.664 55.4531 119.366C62.4653 109.682 69.8685 97.5399 75.6123 87.0149L76.7178 84.9709C79.2438 80.2582 81.3892 75.9511 82.96 72.4417L83.5957 70.9895C84.1953 69.5902 84.6818 68.3541 85.042 67.3098L85.2148 66.7961C85.5865 65.6481 85.7539 64.8527 85.7598 64.3997L85.7588 63.9202C85.7432 62.9966 85.6461 62.2827 85.498 61.7512L85.4199 61.5012C85.229 60.9518 85.008 60.7244 84.8525 60.6301L84.791 60.5969C84.6587 60.5382 84.4249 60.5031 84.0332 60.6438L83.8555 60.7161C83.4138 60.9117 82.8807 61.2768 82.2803 61.8391L82.0176 62.093C81.5126 62.5979 80.9551 63.3308 80.3535 64.217L79.7373 65.1516C79.5072 65.5097 79.2787 65.8755 79.0488 66.2454L78.3545 67.3684L77.1797 69.261C76.4307 70.4438 75.6613 71.5928 74.9043 72.4973L74.5811 72.8694C74.205 73.2843 73.8051 73.6627 73.3857 73.9495L73.2041 74.0667C72.78 74.3256 72.271 74.5255 71.7139 74.5051L71.4727 74.4817C71.2045 74.4411 70.9638 74.2934 70.8066 74.0725C70.6497 73.8517 70.5891 73.5761 70.6387 73.3098L70.8496 72.1467C71.8817 66.3096 72.5554 60.1674 72.7783 54.8625L72.8174 53.8137C72.8823 51.7407 72.8732 49.8207 72.7871 48.1252L72.7373 47.2971C72.6053 45.3914 72.3689 43.867 72.042 42.7971L71.8965 42.3665C71.1098 40.2689 69.975 39.6057 69.2939 39.5549L69.1641 39.553C68.8848 39.5654 68.6097 39.6818 68.3721 39.9485L68.2725 40.0715C68.0031 40.4416 67.7757 41.0697 67.7783 42.0129L67.7715 42.9124C67.6951 47.5655 66.9598 56.515 64.9346 64.9924L64.7207 65.8674C64.5949 66.3694 64.11 66.6869 63.6084 66.6145L63.5068 66.595C62.9712 66.4606 62.6454 65.9175 62.7793 65.3821L62.9893 64.5237C64.974 56.2137 65.6954 47.4168 65.7705 42.8918L65.7773 42.0188C65.7765 41.709 65.7943 41.41 65.8301 41.1243C65.8276 41.1169 65.8246 41.1093 65.8223 41.1018V41.1008C65.472 39.976 64.9393 39.2305 64.3613 38.7542L64.1113 38.5657C63.5184 38.1609 62.8515 37.9807 62.1982 37.9817L61.9189 37.9934ZM110.471 89.094C110.945 89.0284 111.403 89.0415 111.807 89.1848C112.224 89.3332 112.557 89.6132 112.772 90.0227C113.169 90.7776 113.176 91.9809 112.801 93.1194C112.441 94.2112 111.705 95.3302 110.482 96.0598L110.231 96.2004C108.87 96.9147 107.248 97.0105 105.901 96.7844C105.224 96.6708 104.596 96.4733 104.086 96.2151C103.651 95.9953 103.255 95.7077 103.012 95.3508L102.917 95.1936C102.672 94.7271 102.721 94.2337 102.916 93.7913C103.106 93.3607 103.445 92.944 103.852 92.5559C104.667 91.7765 105.869 91.0032 107.125 90.344L107.59 90.1077C108.662 89.5772 109.645 89.2083 110.471 89.094ZM96.5947 59.6282C97.9546 59.403 99.6637 59.9078 101.214 60.8489C102.824 61.8265 104.356 63.3302 105.276 65.1907C106.26 65.4414 107.209 65.6879 108.052 65.9993C108.946 66.3294 109.76 66.7454 110.399 67.3518C111.641 68.5296 112.093 70.2869 111.585 73.0325L111.47 73.595C111.272 74.4889 110.663 75.2079 109.892 75.7834C109.118 76.3605 108.136 76.8282 107.104 77.2122C105.557 77.7881 103.836 78.1966 102.411 78.4963L101.102 78.762L100.784 78.8254C100.355 78.9113 99.7441 79.1371 98.9902 79.4397L98.1904 79.7659C96.6363 80.4027 94.7112 81.1937 92.9277 81.5344C91.224 81.8598 89.4574 81.8101 88.3066 80.593L88.1963 80.4709C86.7684 78.807 86.4627 76.509 87.0469 74.3469C87.6124 72.2544 89.0208 70.245 91.1338 68.9553C91.3167 67.2109 91.7729 65.1836 92.5557 63.4661C93.3671 61.6859 94.5864 60.1131 96.3271 59.6829L96.5947 59.6282ZM143.681 61.4905C145.295 61.4907 146.602 62.7993 146.603 64.4124C146.602 66.0255 145.295 67.3331 143.681 67.3333C142.067 67.333 140.759 66.0254 140.759 64.4124C140.759 62.7994 142.067 61.4907 143.681 61.4905ZM143.681 63.4905C143.173 63.4907 142.76 63.9033 142.76 64.4124C142.76 64.9215 143.173 65.333 143.681 65.3333C144.189 65.3331 144.601 64.9215 144.602 64.4124C144.601 63.9033 144.189 63.4907 143.681 63.4905ZM108.954 53.7678C109.783 52.8668 110.846 52.2892 111.919 52.5588L112.115 52.6184C113.073 52.9561 113.674 53.9146 113.959 55.0266C114.249 56.1588 114.25 57.5663 113.926 59.0217L113.856 59.3137C113.464 60.8715 112.762 62.2205 111.918 63.1379C111.141 63.9828 110.157 64.5426 109.153 64.387L108.952 64.3469C107.879 64.077 107.216 63.0654 106.912 61.8792C106.603 60.6715 106.622 59.1503 107.015 57.592L107.092 57.303C107.495 55.8675 108.163 54.628 108.954 53.7678ZM93.4941 47.4622C94.5069 47.3812 95.4465 48.0131 96.1592 48.9133C96.933 49.8909 97.534 51.2884 97.8096 52.8713L97.8564 53.1672C98.0717 54.6427 97.9659 56.0469 97.5928 57.1545C97.2261 58.2422 96.5555 59.1534 95.5752 59.4192L95.375 59.4631C94.285 59.6527 93.2679 58.9985 92.5078 58.0383C91.7824 57.1218 91.208 55.8365 90.9121 54.3752L90.8574 54.0803C90.582 52.4975 90.6752 50.9794 91.0732 49.7981C91.4643 48.6378 92.2012 47.6782 93.291 47.4885L93.4941 47.4622ZM100.812 48.9094C101.554 47.9362 102.559 47.2636 103.651 47.4329L103.854 47.4739C104.838 47.7219 105.525 48.6207 105.911 49.7014C106.304 50.802 106.435 52.2038 106.247 53.6829L106.205 53.9797C105.958 55.5674 105.383 56.9755 104.627 57.967C103.931 58.88 103.003 59.5285 101.989 59.4661L101.785 59.4436C100.692 59.2735 99.9393 58.328 99.5273 57.175C99.1079 56.001 98.9867 54.4845 99.2334 52.8967L99.2832 52.6018C99.5525 51.1352 100.103 49.8389 100.812 48.9094ZM10.3506 50.3889C10.7074 49.7178 11.5218 49.4116 12.2412 49.7043L28.5908 56.3635L28.7305 56.429C29.3573 56.7618 29.6649 57.4934 29.4648 58.1741L29.4141 58.3186C29.1207 59.0379 28.3325 59.4071 27.6025 59.1926L27.458 59.1418L11.1084 52.4827C10.3411 52.1698 9.97238 51.2946 10.2852 50.5276L10.3506 50.3889Z" fill="#FFFC36"/>
</svg>

