<svg xmlns="http://www.w3.org/2000/svg" width="164" height="150" viewBox="0 0 164 150" fill="none">
  <path d="M49.3382 137.472C50.9535 136.984 52.6589 137.899 53.1468 139.514C53.6344 141.129 52.72 142.834 51.1048 143.322C49.4897 143.809 47.7852 142.896 47.2972 141.281C46.8093 139.665 47.723 137.96 49.3382 137.472Z" fill="#9780FF"/>
  <path d="M84.5101 114.805C84.9006 114.415 85.5336 114.415 85.9241 114.805L104.913 133.794C105.304 134.185 105.304 134.818 104.913 135.208C104.523 135.599 103.89 135.599 103.499 135.208L84.5101 116.219C84.1196 115.829 84.1198 115.196 84.5101 114.805Z" fill="#9780FF"/>
  <path d="M106.248 83.8431C106.436 83.324 107.009 83.055 107.529 83.2426C108.048 83.4305 108.317 84.0045 108.129 84.5238L106.112 90.098C105.924 90.6171 105.351 90.8854 104.831 90.6976C104.312 90.5097 104.043 89.9366 104.231 89.4174L106.248 83.8431Z" fill="#9780FF"/>
  <path d="M101.608 82.6166C101.796 82.0973 102.369 81.8282 102.888 82.016C103.407 82.2039 103.677 82.7779 103.489 83.2972L101.471 88.8715C101.283 89.3906 100.709 89.659 100.19 89.4711C99.6708 89.283 99.4025 88.7099 99.5902 88.1908L101.608 82.6166Z" fill="#9780FF"/>
  <path d="M96.724 80.5863C96.912 80.0671 97.486 79.7988 98.0052 79.9867C98.5242 80.1748 98.7925 80.7479 98.6048 81.267L96.5872 86.8412C96.3993 87.3604 95.8262 87.6295 95.307 87.4418C94.7876 87.2538 94.5184 86.6798 94.7064 86.1605L96.724 80.5863Z" fill="#9780FF"/>
  <path fill-rule="evenodd" clip-rule="evenodd" d="M31.1448 56.3724C31.5086 56.0767 32.0293 56.0727 32.3968 56.3636L40.8363 63.0453C40.9788 63.1581 41.0878 63.3077 41.1517 63.4779L43.1859 68.9017L71.8685 97.5844L75.0306 94.4213C75.3351 94.1171 75.8 94.042 76.1849 94.2347C77.3223 94.8045 78.2156 95.3615 78.97 96.1088C79.2808 96.4166 79.5592 96.7484 79.8187 97.1127L85.0111 91.8588C87.409 88.1229 90.4296 80.6907 89.7132 71.8656C89.6856 71.5255 89.8331 71.1941 90.1048 70.9877C90.3765 70.7813 90.7348 70.7283 91.055 70.8461L92.68 71.4427C94.7436 67.711 96.9531 64.9759 99.5335 63.2855C102.236 61.5156 105.256 60.9484 108.736 61.4496C109.039 61.4933 109.305 61.6739 109.458 61.9388C109.612 62.2038 109.635 62.5245 109.522 62.809L106.067 71.5111L106.907 76.6761L111.895 78.5111L115.776 77.8197L120.851 67.1683C121.009 66.8356 121.338 66.6174 121.706 66.6C122.075 66.5827 122.424 66.7697 122.613 67.0863C125.09 71.2356 126.801 75.2726 126.737 79.2279C126.671 83.2563 124.77 87.0125 120.446 90.5834C116.328 93.9835 111.601 94.9275 107.18 95.8099L106.999 95.8461C106.773 95.8913 106.546 95.9364 106.322 95.9818C101.601 96.9358 97.2484 98 93.6566 101.79C92.9671 102.518 92.1157 103.461 91.1312 104.581L88.4466 107.739L115.112 134.404C115.381 134.673 115.474 135.073 115.351 135.434C114.242 138.675 113.076 141.057 111.3 142.863C109.514 144.678 107.202 145.821 103.983 146.775C103.631 146.879 103.251 146.783 102.992 146.524L77.307 120.839L66.7484 133.255L66.7464 133.257C65.4142 134.845 64.1174 136.404 62.889 137.881C61.4818 139.573 60.1645 141.157 58.9866 142.552C56.793 145.151 54.9966 147.201 53.9212 148.15C50.7186 150.975 45.9784 150.254 42.8743 148.083C41.2931 146.978 40.0093 145.422 39.5013 143.582C38.9832 141.706 39.3044 139.644 40.7435 137.661C42.7664 134.873 47.9524 129.173 55.3538 121.865L66.5726 110.514C66.1108 110.196 65.709 109.862 65.349 109.494C64.6073 108.734 64.0945 107.876 63.5843 106.818C63.3996 106.435 63.478 105.977 63.7786 105.676L66.9378 102.516L38.2181 73.7963L32.7239 71.0424C32.5394 70.9499 32.3878 70.8024 32.2904 70.6205L27.0159 60.7738C26.7898 60.3515 26.8943 59.828 27.2659 59.5258L31.1448 56.3724ZM69.4124 111.31C69.136 111.586 68.7273 111.673 68.3665 111.543L56.7718 123.275L56.763 123.283C49.3576 130.594 44.2789 136.195 42.3626 138.835C41.256 140.36 41.0837 141.799 41.429 143.05C41.7845 144.338 42.7215 145.536 44.0198 146.444C46.6754 148.301 50.3344 148.647 52.598 146.65C53.5387 145.82 55.2311 143.9 57.4583 141.262C58.6381 139.865 59.9432 138.295 61.3421 136.613L61.3441 136.612C62.5703 135.137 63.8681 133.577 65.2161 131.97L65.221 131.964L75.888 119.42L71.1634 114.696C71.0406 114.573 70.9515 114.42 70.9056 114.252L69.9534 110.769L69.4124 111.31ZM65.7054 106.578C66.048 107.213 66.3775 107.684 66.7796 108.096C67.2015 108.528 67.7369 108.929 68.5228 109.371L69.7562 108.137C70.0082 107.885 70.3756 107.787 70.72 107.878C71.0643 107.97 71.334 108.237 71.4281 108.58L72.765 113.468L103.981 144.684C106.721 143.819 108.516 142.841 109.874 141.46C111.241 140.071 112.246 138.193 113.253 135.373L81.9847 104.105L77.7542 102.002C77.466 101.859 77.2642 101.586 77.2122 101.268C77.1604 100.95 77.2641 100.627 77.4915 100.4L78.7357 99.1566C78.3508 98.4505 77.9832 97.947 77.5618 97.5297C77.1394 97.1112 76.6305 96.7471 75.9241 96.3558L65.7054 106.578ZM117.36 79.1439C117.221 79.4352 116.95 79.642 116.632 79.6986L111.979 80.5277C111.804 80.5588 111.625 80.543 111.458 80.4818L106.123 78.5189C105.814 78.5477 105.521 78.4313 105.316 78.222L91.7972 73.2494C92.1147 81.9777 89.0902 89.2486 86.6341 93.0326C86.5971 93.0896 86.554 93.1434 86.5062 93.1918L80.8548 98.9086L80.8568 98.9125C81.0424 99.2957 80.9655 99.7549 80.6644 100.056L79.89 100.83L83.0208 102.387C83.1178 102.435 83.207 102.499 83.2835 102.576L87.0277 106.32L89.6136 103.279L89.6243 103.267C90.6184 102.136 91.4893 101.17 92.2044 100.415C96.2684 96.1266 101.199 94.9771 105.926 94.0219L106.691 93.8676C111.194 92.9648 115.455 92.1106 119.172 89.0414C123.159 85.7488 124.682 82.5051 124.737 79.1957C124.784 76.2754 123.694 73.1638 121.834 69.7533L117.36 79.1439ZM29.1683 60.557L33.9036 69.3969L39.2591 72.0804C39.3549 72.1285 39.4421 72.1922 39.5179 72.2679L68.3519 101.101L70.4544 98.9984L41.6185 70.1625C41.5176 70.0616 41.4391 69.9406 41.389 69.807L39.3773 64.4408L31.7845 58.4301L29.1683 60.557ZM107.176 63.2982C104.674 63.1499 102.55 63.7003 100.629 64.9584C98.4852 66.3629 96.5157 68.7006 94.5794 72.142L104.751 75.8832L104.048 71.559C104.019 71.3807 104.039 71.1975 104.106 71.0297L107.176 63.2982Z" fill="#9780FF"/>
  <path fill-rule="evenodd" clip-rule="evenodd" d="M36.432 102.169C36.9468 100.282 38.8939 99.1683 40.7816 99.683C42.6693 100.198 43.7826 102.146 43.2679 104.034C42.7531 105.921 40.805 107.035 38.9173 106.52C37.0296 106.005 35.9172 104.057 36.432 102.169ZM40.2552 101.613C39.4332 101.389 38.5848 101.874 38.3607 102.696C38.1367 103.518 38.6217 104.366 39.4437 104.59C40.2657 104.814 41.1141 104.329 41.3382 103.507C41.5623 102.685 41.0772 101.837 40.2552 101.613Z" fill="#9780FF"/>
  <path d="M145.383 98.7523C147.341 98.7525 148.927 100.339 148.927 102.296C148.927 104.254 147.341 105.841 145.383 105.841C143.426 105.841 141.838 104.254 141.838 102.296C141.838 100.339 143.426 98.7523 145.383 98.7523Z" fill="#9780FF"/>
  <path fill-rule="evenodd" clip-rule="evenodd" d="M156.24 83.7386C156.754 81.851 158.701 80.7376 160.589 81.2523C162.477 81.767 163.59 83.7143 163.076 85.6019C162.561 87.4897 160.613 88.603 158.725 88.0883C156.837 87.5734 155.725 85.6262 156.24 83.7386ZM160.063 83.182C159.241 82.9581 158.394 83.4423 158.169 84.264C157.945 85.0861 158.429 85.9343 159.251 86.1586C160.073 86.3827 160.922 85.8984 161.146 85.0765C161.37 84.2545 160.885 83.4062 160.063 83.182Z" fill="#9780FF"/>
  <path d="M28.6761 80.1254C29.2239 80.057 29.7236 80.4458 29.7923 80.9935C29.8608 81.5415 29.472 82.0411 28.9241 82.1097L8.92415 84.6097C8.37613 84.6782 7.87644 84.2896 7.80793 83.7416C7.7397 83.1937 8.12823 82.6938 8.6761 82.6254L28.6761 80.1254Z" fill="#9780FF"/>
  <path d="M0.363599 63.267C0.545534 62.7823 1.06394 62.5215 1.55403 62.6508L1.65168 62.682L25.6517 71.681L25.7454 71.722C26.1993 71.9471 26.4181 72.4845 26.2366 72.9691C26.0547 73.4538 25.5363 73.7145 25.0462 73.5853L24.9486 73.5541L0.94856 64.5541L0.85481 64.5131C0.400951 64.288 0.182083 63.7516 0.363599 63.267Z" fill="#9780FF"/>
  <path d="M153.334 45.7338C153.823 45.4766 154.428 45.6641 154.685 46.1527C154.942 46.6413 154.754 47.2461 154.266 47.5033L135.266 57.5033C134.777 57.7604 134.173 57.5726 133.915 57.0844C133.658 56.5957 133.846 55.991 134.334 55.7338L153.334 45.7338Z" fill="#9780FF"/>
  <path d="M148.56 28.9467C148.931 28.5378 149.563 28.5073 149.972 28.8783C150.38 29.2494 150.411 29.8815 150.04 30.2904L130.54 51.7904C130.169 52.199 129.537 52.2293 129.128 51.8588C128.719 51.4878 128.689 50.8557 129.06 50.4467L148.56 28.9467Z" fill="#9780FF"/>
  <path fill-rule="evenodd" clip-rule="evenodd" d="M37.9798 40.6205C40.1332 40.6205 41.8792 42.3665 41.8792 44.5199C41.879 46.6731 40.1331 48.4183 37.9798 48.4183C35.8267 48.4181 34.0816 46.673 34.0814 44.5199C34.0814 42.3666 35.8266 40.6207 37.9798 40.6205ZM37.9398 44.4281C37.9249 44.4344 37.9147 44.4414 37.9085 44.4476C37.9023 44.4538 37.8953 44.464 37.889 44.4789C37.8815 44.4965 37.8792 44.5133 37.8792 44.5199C37.8793 44.5267 37.8817 44.5427 37.889 44.5599C37.8953 44.5749 37.9023 44.585 37.9085 44.5912C37.9147 44.5974 37.9248 44.6044 37.9398 44.6107C37.9571 44.618 37.973 44.6204 37.9798 44.6205C37.9864 44.6205 38.0032 44.6182 38.0208 44.6107C38.0354 44.6045 38.0449 44.5973 38.0511 44.5912C38.0573 44.585 38.0653 44.5749 38.0716 44.5599C38.0789 44.5427 38.0813 44.5267 38.0814 44.5199C38.0814 44.5133 38.0791 44.4965 38.0716 44.4789C38.0653 44.4639 38.0573 44.4539 38.0511 44.4476C38.0449 44.4415 38.0354 44.4343 38.0208 44.4281C38.0032 44.4206 37.9864 44.4183 37.9798 44.4183C37.9731 44.4184 37.9571 44.4208 37.9398 44.4281Z" fill="#9780FF"/>
  <path d="M99.2679 44.2719C100.033 43.4907 101.287 43.4779 102.068 44.2426C102.849 45.0072 102.862 46.2603 102.097 47.0414C101.332 47.8224 100.079 47.8361 99.2982 47.0717C98.517 46.307 98.5033 45.0531 99.2679 44.2719Z" fill="#9780FF"/>
  <path d="M125.498 32.1097C126.263 31.3288 127.516 31.3159 128.297 32.0804C129.078 32.8451 129.092 34.0981 128.327 34.8793C127.563 35.6604 126.31 35.6738 125.529 34.9095C124.747 34.1449 124.734 32.891 125.498 32.1097Z" fill="#9780FF"/>
  <path d="M40.4613 26.4428C41.6357 26.4428 42.588 27.3943 42.5882 28.5687C42.5882 29.7433 41.6358 30.6957 40.4613 30.6957C39.2868 30.6955 38.3343 29.7432 38.3343 28.5687C38.3345 27.3944 39.2869 26.4429 40.4613 26.4428Z" fill="#9780FF"/>
  <path d="M78.9183 4.62537C79.4666 4.69077 79.8585 5.18839 79.7933 5.7367L77.2933 26.7367C77.2278 27.2848 76.7301 27.6768 76.182 27.6117C75.6337 27.5464 75.242 27.0486 75.307 26.5004L77.807 5.50037C77.8722 4.95198 78.3699 4.56012 78.9183 4.62537Z" fill="#9780FF"/>
  <path d="M59.4906 0.16736C59.9827 0.00718059 60.5093 0.249723 60.7142 0.713258L60.7513 0.808961L68.2513 23.809L68.2777 23.9076C68.3848 24.4026 68.1017 24.9093 67.6097 25.0697C67.1177 25.2298 66.5911 24.987 66.3861 24.5238L66.349 24.4281L58.8489 1.4281L58.8226 1.32947C58.7151 0.834267 58.9984 0.327849 59.4906 0.16736Z" fill="#9780FF"/>
  <path fill-rule="evenodd" clip-rule="evenodd" d="M90.3089 12.8461C90.8237 10.9586 92.7709 9.84614 94.6585 10.3607C96.5462 10.8755 97.6596 12.8226 97.1449 14.7103C96.6301 16.5979 94.6828 17.7111 92.7952 17.1967C90.9075 16.6819 89.7942 14.7338 90.3089 12.8461ZM94.1331 12.2894C93.3111 12.0653 92.4628 12.5504 92.2386 13.3724C92.0145 14.1944 92.4987 15.0427 93.3206 15.267C94.1427 15.4911 94.991 15.006 95.2152 14.184C95.4392 13.3621 94.955 12.5137 94.1331 12.2894Z" fill="#9780FF"/>
</svg>

