<svg xmlns="http://www.w3.org/2000/svg" width="149" height="159" viewBox="0 0 149 159" fill="none">
  <path fill-rule="evenodd" clip-rule="evenodd" d="M90.755 12.5293C90.0101 12.2035 89.6298 11.3283 89.9057 10.5746L93.4263 0.956948C93.7021 0.203247 94.5297 -0.143583 95.2746 0.182284C96.0196 0.50815 96.3998 1.38331 96.1239 2.13701L92.6034 11.7547C92.3275 12.5084 91.5 12.8552 90.755 12.5293ZM36.9424 19.0052C37.2541 19.7515 38.0842 20.0492 38.7966 19.6701C39.5089 19.291 39.8337 18.3786 39.5219 17.6323L32.8702 1.70662C32.5585 0.960315 31.7283 0.662647 31.016 1.04176C30.3037 1.42088 29.9789 2.33322 30.2906 3.07953L36.9424 19.0052ZM135.965 39.4659C135.965 40.157 136.463 40.7172 137.077 40.7172C137.69 40.7172 138.188 40.157 138.188 39.4659C138.188 38.7749 137.69 38.2147 137.077 38.2147C136.463 38.2147 135.965 38.7749 135.965 39.4659ZM130.257 67.5661L130.253 67.5654C129.809 67.4965 129.325 67.4447 128.726 67.3982C127.755 67.3266 126.874 67.3944 126.025 67.6067C125.303 67.7876 124.601 68.0694 123.926 68.3412C123.854 68.3697 123.782 68.3987 123.71 68.4278L123.709 68.428L123.709 68.4282L123.708 68.4285L123.707 68.429L123.706 68.4293C123.482 68.5193 123.254 68.6108 123.027 68.6945C122.888 68.7475 122.751 68.7958 122.613 68.8442C121.872 69.1106 121.106 69.3869 120.424 69.8808C119.037 70.8839 117.841 71.8793 116.766 72.9261L116.682 73.0106C116.415 73.2761 116.185 73.5009 115.891 73.4551C115.814 73.4432 115.731 73.4118 115.646 73.3661C115.623 73.3532 115.595 73.3442 115.563 73.3392C115.535 73.3348 115.51 73.3356 115.489 73.3371L115.486 73.3367L115.483 73.3367L115.479 73.3369L115.475 73.3372L115.468 73.3379L115.466 73.338L115.464 73.3379C115.363 73.3268 115.265 73.3163 115.163 73.3097C114.212 73.2132 113.228 73.1163 112.248 73.1828C111.143 73.2625 109.874 73.4096 108.737 74.191C107.978 74.7102 107.248 75.3223 106.504 76.0577C106.068 76.4877 105.576 76.974 105.252 77.6397C105.043 78.0676 105.027 78.437 105.2 78.7708C105.346 79.0585 105.584 79.2349 105.879 79.2806C105.963 79.2938 106.054 79.2939 106.142 79.2842C107.201 79.1742 108.282 79.1188 109.326 79.0669C109.437 79.0609 109.55 79.0553 109.665 79.0497L109.855 79.0405L109.856 79.0405L109.856 79.0405L110.026 79.0323L110.212 79.0231C110.291 79.0167 110.352 79.0216 110.404 79.0297C110.518 79.0473 110.618 79.1001 110.726 79.2935C111.334 80.387 112.089 81.3985 112.76 82.2965L112.76 82.2966L112.76 82.2968L112.76 82.2971L112.761 82.2972L112.78 82.323C113.368 83.1091 113.871 83.9927 114.358 84.8465L114.358 84.8468L114.363 84.8564C114.604 85.2796 114.855 85.7184 115.112 86.1396C115.153 86.2065 115.169 86.2787 115.122 86.4249C115.045 86.6478 114.969 86.8729 114.894 87.0951C114.852 87.2204 114.81 87.3447 114.768 87.4673C114.535 88.1611 114.29 88.8811 114.033 89.5757C113.983 89.7121 113.925 89.8519 113.867 89.9871L113.86 90.0046L113.86 90.0048C113.709 90.3753 113.555 90.7546 113.486 91.1788C113.438 91.4735 113.489 91.7605 113.631 91.9778C113.766 92.1893 113.976 92.3242 114.218 92.3618C114.271 92.37 114.324 92.3736 114.378 92.3726C114.629 92.3697 114.879 92.3109 115.119 92.2039C116.21 91.727 117.161 90.9865 118.121 90.2055C118.962 89.5223 119.628 88.6539 120.087 87.6278C120.799 86.0504 121.294 84.2906 121.642 82.0894L121.654 81.9936C121.664 81.8789 121.672 81.8476 121.73 81.8101C122.577 81.2767 123.355 80.6721 124.007 80.1594L124.03 80.1408C124.155 80.0416 124.283 79.9395 124.407 79.8449C125.272 79.1701 126.169 78.4676 126.845 77.4799C127.643 76.3111 128.439 75.1559 129.114 74.1819C130.205 72.6029 130.641 70.7503 130.997 68.9874L130.998 68.9783L131.009 68.9242C131.01 68.9151 131.011 68.9057 131.013 68.8962L131.018 68.8674L131.023 68.838C131.024 68.8288 131.026 68.8196 131.027 68.8107C131.092 68.4443 131.061 68.165 130.93 67.9541C130.799 67.7432 130.58 67.6162 130.257 67.5661ZM114.77 74.7367C114.376 75.0335 114.004 75.3152 113.645 75.6222C113.231 75.9771 112.785 76.3009 112.355 76.6136L112.355 76.6138L112.314 76.6432L112.267 76.6773L112.267 76.6774C111.808 77.0114 111.337 77.3533 110.896 77.739C110.778 77.8435 110.638 77.8466 110.485 77.8501H110.485L110.475 77.8503L110.462 77.853C109.082 77.8946 107.69 77.9714 106.313 78.0879C106.546 77.6638 106.879 77.3295 107.202 77.0077C107.994 76.2239 108.696 75.6308 109.414 75.147C110.275 74.5692 111.225 74.4097 112.386 74.3434C113.285 74.2969 114.177 74.3377 115.12 74.4701C115.002 74.5633 114.884 74.652 114.77 74.7367ZM123.647 69.716C123.875 69.6306 124.104 69.5406 124.325 69.4539C125.679 68.9201 127.076 68.3696 128.575 68.5651C128.834 68.6006 129.1 68.614 129.358 68.6261C129.529 68.6342 129.709 68.6435 129.884 68.6613L129.917 68.6664C129.973 68.6751 129.984 68.6907 129.984 68.6907C129.987 68.6959 129.996 68.7206 129.98 68.8203C129.788 69.8833 129.569 70.7327 129.292 71.4848C128.957 72.4 128.538 73.1673 128.012 73.8388C127.851 74.0417 127.695 74.2732 127.501 74.5825C127.475 74.625 127.46 74.6414 127.451 74.6493C127.444 74.6434 127.429 74.6318 127.397 74.5897C126.946 73.999 126.488 73.4025 126.04 72.8261L125.717 72.4041C125.223 71.7648 124.729 71.1255 124.229 70.4713L123.647 69.716ZM119.492 83.4807L119.492 83.4805L119.501 83.4729L119.51 83.4651C119.841 83.1816 120.186 82.891 120.525 82.6043C120.114 84.5818 119.676 86.3503 118.726 87.8907C118.541 88.1876 118.239 88.6057 117.52 89.1963C116.747 89.8295 115.906 90.4756 114.982 90.932L114.975 90.9355C114.855 90.9942 114.743 91.0491 114.611 91.0697L114.648 90.9716C115.14 89.6682 115.607 88.4329 115.994 87.1367C116.188 86.4601 116.54 85.9381 117.098 85.4853C117.902 84.833 118.707 84.1484 119.489 83.4831L119.49 83.4825L119.491 83.4811L119.492 83.4809L119.492 83.4807ZM119.389 82.135C118.384 82.9508 117.341 83.798 116.366 84.7022L116.366 84.7068C116.105 84.95 115.934 85.1094 115.845 85.0956C115.756 85.0818 115.636 84.8539 115.482 84.5604C114.828 83.3104 114.021 82.167 113.239 81.0598C112.969 80.6784 112.692 80.2867 112.422 79.8962C112.411 79.8812 112.401 79.8659 112.39 79.8504L112.366 79.8154C112.348 79.7882 112.33 79.7609 112.31 79.7347L112.303 79.7243L112.244 79.6378C112.081 79.4 111.915 79.1573 111.766 78.9062C111.694 78.788 111.615 78.655 111.622 78.6002C111.632 78.5507 111.751 78.4575 111.855 78.3761C112.078 78.206 112.308 78.0372 112.53 77.8763L112.606 77.82C112.881 77.6188 113.165 77.4112 113.432 77.1933C113.812 76.8824 114.202 76.5732 114.584 76.2708L114.587 76.2687L114.587 76.2684L114.806 76.0952C115.831 75.2872 116.888 74.4515 117.867 73.52C119.008 72.437 120.302 71.215 121.807 70.4535L121.859 70.4272L121.859 70.4272L121.86 70.4271C122.185 70.2642 122.403 70.1554 122.549 70.178C122.702 70.2018 122.834 70.3665 123.147 70.773L123.175 70.8099C123.973 71.8545 124.791 72.9067 125.581 73.922L125.602 73.9485C125.746 74.1329 125.891 74.3205 126.038 74.5091C126.26 74.7965 126.485 75.0864 126.708 75.3709C126.717 75.3817 126.726 75.3927 126.734 75.4038C126.741 75.4133 126.748 75.423 126.756 75.4327C126.767 75.448 126.778 75.4634 126.789 75.479L126.791 75.4821L126.792 75.4827C126.805 75.5013 126.818 75.5201 126.832 75.5389L126.846 75.5597C126.846 75.5597 126.845 75.5642 126.841 75.5636C126.828 75.5861 126.815 75.6074 126.804 75.6276L126.789 75.6526C126.784 75.6616 126.779 75.6703 126.774 75.6786C125.985 76.8768 125.069 77.8692 123.969 78.7168C123.423 79.1398 122.848 79.5448 122.293 79.935L122.266 79.9543C121.54 80.4649 120.797 80.9911 120.093 81.5653C120.04 81.6076 119.988 81.65 119.935 81.6925L119.754 81.84L119.594 81.9693L119.474 82.0667L119.389 82.135ZM106.454 83.7919L106.479 83.7956C106.65 83.8083 106.79 83.7696 106.916 83.6822C108.089 82.8459 109.045 82.162 109.926 81.5268C110.197 81.3317 110.282 81.038 110.153 80.7437C110.05 80.5092 109.879 80.3617 109.673 80.3298C109.608 80.3197 109.542 80.3234 109.471 80.3356C109.353 80.3591 109.222 80.4178 109.091 80.5092C108.424 80.9822 107.752 81.4592 107.103 81.9256C106.955 82.0318 106.806 82.1378 106.658 82.2439L106.654 82.2465L106.502 82.355C106.402 82.4258 106.303 82.4966 106.205 82.5675C105.962 82.739 105.86 82.9975 105.925 83.2772C105.986 83.5517 106.173 83.7343 106.454 83.7919ZM111.151 84.7005L111.152 84.6996L111.246 84.633C111.395 84.5259 111.495 84.3788 111.544 84.1817L111.544 84.1772L111.551 84.155L111.55 84.1315L111.55 84.127C111.554 83.8254 111.426 83.5962 111.189 83.485C111.126 83.4567 111.063 83.4375 110.998 83.4275C110.812 83.3987 110.629 83.4538 110.43 83.5951C109.932 83.9551 109.43 84.3161 108.933 84.673C108.631 84.8893 108.332 85.1041 108.038 85.3162L107.479 85.7168C106.922 86.1165 106.356 86.522 105.795 86.9257C105.39 87.2195 104.987 87.5254 104.595 87.823L104.499 87.8963L104.476 87.9115C104.446 87.934 104.416 87.9565 104.387 87.9791L104.309 88.0387C104.253 88.0813 104.197 88.1238 104.141 88.1662C103.728 88.4788 103.813 88.8268 103.898 89.0073C104.039 89.299 104.23 89.3844 104.364 89.4051C104.473 89.422 104.59 89.4031 104.708 89.347C104.835 89.2876 104.952 89.2081 105.038 89.1424C105.163 89.0488 105.289 88.9553 105.414 88.8621C105.629 88.7024 105.842 88.5438 106.048 88.3879L106.053 88.3839C106.655 87.9334 107.276 87.4717 107.895 87.0237C108.745 86.4079 109.607 85.7939 110.444 85.1978L110.493 85.1626L110.547 85.129C110.749 84.9878 110.952 84.8431 111.151 84.7005ZM112.701 85.626C112.733 85.631 112.769 85.6412 112.801 85.6508C113.114 85.7505 113.217 85.985 113.257 86.1633C113.302 86.4307 113.198 86.6749 112.969 86.8301C112.519 87.1416 112.07 87.4485 111.621 87.7554L111.589 87.7784C111.4 87.9073 111.213 88.0364 111.025 88.1654C110.837 88.2943 110.65 88.4232 110.461 88.5519C110.304 88.6577 110.147 88.703 109.98 88.6818L109.964 88.6793C109.599 88.604 109.475 88.3384 109.43 88.1315C109.388 87.939 109.41 87.6587 109.729 87.4386C110.498 86.907 111.253 86.3917 112.155 85.7785C112.344 85.6497 112.523 85.5984 112.701 85.626ZM122.541 73.8733C123.017 74.3192 123.299 74.8047 123.401 75.3506C123.493 75.8484 123.432 76.4109 123.221 77.0616C123.033 77.6184 122.729 78.0547 122.318 78.349C121.962 78.6052 121.518 78.7642 120.965 78.8412C120.719 78.8727 120.476 78.8722 120.242 78.8358C119.676 78.7481 119.152 78.4575 118.727 77.9917C118.338 77.5687 118.046 77.0025 117.905 76.4041C117.748 75.7334 117.922 75.0537 118.425 74.3738C118.853 73.7987 119.411 73.3829 120.082 73.1431C120.336 73.0523 120.571 73.0841 120.797 73.1192L120.898 73.1349C120.955 73.1391 121.008 73.1472 121.064 73.156C121.63 73.2438 122.123 73.4831 122.541 73.8733ZM121.24 77.5029C121.812 77.3079 122.128 76.8455 122.212 76.0868L122.214 76.0685C122.316 75.6054 122.206 75.2257 121.866 74.8799C121.61 74.617 121.32 74.465 120.981 74.4124C120.835 74.3898 120.675 74.3836 120.505 74.399C120.014 74.4436 119.241 75.1375 119.103 75.6601C118.945 76.2492 119.176 76.6804 119.572 77.1417C119.799 77.4094 120.06 77.5615 120.367 77.6092C120.626 77.6493 120.91 77.6143 121.24 77.5029ZM127.353 120.798C126.585 120.798 125.963 120.097 125.963 119.234C125.963 118.37 126.585 117.67 127.353 117.67C128.12 117.67 128.742 118.37 128.742 119.234C128.742 120.097 128.12 120.798 127.353 120.798ZM99.0141 114.265C99.7505 114.265 100.539 114.977 100.539 116.105C100.539 117.234 99.7505 117.946 99.0141 117.946C98.2777 117.946 97.489 117.234 97.489 116.105C97.489 114.977 98.2777 114.265 99.0141 114.265ZM102.49 116.105C102.49 114.124 101.04 112.315 99.0141 112.315C96.9886 112.315 95.5383 114.124 95.5383 116.105C95.5383 118.087 96.9886 119.896 99.0141 119.896C101.04 119.896 102.49 118.087 102.49 116.105ZM139.991 114.229C139.991 114.03 139.919 113.871 139.83 113.77C139.742 113.671 139.651 113.64 139.577 113.64C139.503 113.64 139.411 113.671 139.324 113.77C139.234 113.871 139.163 114.03 139.163 114.229C139.163 114.427 139.234 114.587 139.324 114.687C139.411 114.786 139.503 114.818 139.577 114.818C139.651 114.818 139.742 114.786 139.83 114.687C139.919 114.587 139.991 114.427 139.991 114.229ZM139.577 111.69C140.988 111.69 141.942 112.938 141.942 114.229C141.942 115.519 140.988 116.768 139.577 116.768C138.165 116.768 137.212 115.519 137.212 114.229C137.212 112.938 138.165 111.69 139.577 111.69ZM2.62461 47.0437C1.87731 46.7375 1.07062 47.1128 0.822831 47.882C0.57504 48.6512 0.979977 49.523 1.72728 49.8292L16.1958 55.758C16.9432 56.0642 17.7498 55.6889 17.9976 54.9197C18.2454 54.1505 17.8405 53.2787 17.0932 52.9725L2.62461 47.0437ZM4.53236 117.447C4.13432 116.753 4.35287 115.811 5.02051 115.342L19.4297 105.213C20.0973 104.743 20.9612 104.925 21.3593 105.619C21.7573 106.312 21.5388 107.255 20.8711 107.724L6.46193 117.853C5.79429 118.322 4.93039 118.14 4.53236 117.447ZM89.6072 22.1032C89.9921 21.7353 90.5107 21.5407 91.0427 21.5645L146.887 24.0671C147.929 24.1138 148.75 24.9721 148.75 26.0151V148.639C148.75 149.171 148.532 149.68 148.147 150.048C147.762 150.416 147.244 150.61 146.712 150.587L90.868 148.084C90.337 148.06 89.8635 147.826 89.5266 147.464L43.4123 158.029C43.3344 158.049 43.2528 158.06 43.1687 158.06H38.1678C37.6291 158.06 37.1924 157.623 37.1924 157.085V86.0577C36.3233 85.8959 35.6218 85.4385 35.1249 84.7826C34.4752 83.925 34.2355 82.8133 34.2765 81.7753C34.3176 80.7323 34.6453 79.6461 35.2743 78.7953C35.741 78.1639 36.3874 77.6506 37.1924 77.4169V30.0819C37.1924 29.5435 37.6291 29.1069 38.1678 29.1069H38.3711L81.0849 22.5489C81.1339 22.5414 81.1834 22.5376 81.2329 22.5376H89.2659C89.3576 22.3788 89.4721 22.2323 89.6072 22.1032ZM44.1441 155.861V30.8929L89.0046 24.69V145.583L44.1441 155.861ZM39.1432 78.3084C39.1441 78.2908 39.1446 78.2732 39.1446 78.2554C39.1446 78.2377 39.1441 78.22 39.1432 78.2025V31.0569H42.1933V156.11H39.1432V85.1918C39.1451 85.1566 39.1451 85.1208 39.1432 85.0848V78.3084ZM37.1924 79.5814C37.067 79.6842 36.9506 79.8089 36.8432 79.9542C36.4821 80.4426 36.254 81.1355 36.2257 81.8521C36.1972 82.5737 36.3745 83.202 36.6801 83.6054C36.8105 83.7776 36.9758 83.926 37.1924 84.0278V79.5814ZM92.9061 25.552V144.272L144.848 146.599V27.8796L92.9061 25.552ZM54.7846 83.4308C54.7846 85.5847 53.0378 87.3308 50.8831 87.3308C48.7283 87.3308 46.9815 85.5847 46.9815 83.4308C46.9815 81.2769 48.7283 79.5308 50.8831 79.5308C53.0378 79.5308 54.7846 81.2769 54.7846 83.4308ZM51.8585 90.2558C51.8585 89.7173 51.4218 89.2808 50.8831 89.2808C50.3444 89.2808 49.9077 89.7173 49.9077 90.2558V92.2058C49.9077 92.7443 50.3444 93.1808 50.8831 93.1808C51.4218 93.1808 51.8585 92.7443 51.8585 92.2058V90.2558ZM105.813 47.4189L105.887 48.5583C105.89 48.6005 105.916 48.6373 105.951 48.65C105.987 48.6627 106.027 48.6466 106.049 48.6118L106.649 47.6911C107.135 46.9443 107.887 46.4773 108.706 46.4099L109.718 46.3274C109.755 46.3242 109.788 46.2947 109.797 46.2538C109.807 46.2129 109.794 46.1684 109.764 46.1436L108.946 45.4678C108.283 44.9209 107.868 44.074 107.808 43.1523L107.735 42.0129C107.732 41.9708 107.706 41.9339 107.67 41.9232C107.633 41.9125 107.594 41.9267 107.572 41.9614L106.971 42.8822C106.486 43.6289 105.734 44.096 104.915 44.1633L103.903 44.2459C103.866 44.249 103.833 44.2785 103.823 44.3194C103.814 44.3603 103.826 44.4049 103.857 44.4296L104.675 45.1054C105.338 45.6524 105.753 46.4993 105.813 47.4209L105.813 47.4189ZM132.049 53.9965C132.286 53.9722 132.504 54.106 132.599 54.3122L132.896 54.9472L132.896 54.9475C133.082 55.3463 133.402 55.6097 133.751 55.698L133.752 55.6981L134.317 55.8414L134.354 55.8489C134.624 55.9043 134.769 56.1371 134.785 56.3408C134.792 56.4209 134.78 56.5137 134.744 56.6025V56.9554L134.478 56.888L133.952 57.2013L133.951 57.2018C133.622 57.397 133.366 57.7569 133.277 58.2041L133.277 58.2043L133.137 58.904C133.098 59.1088 132.929 59.3178 132.661 59.3453C132.424 59.3695 132.205 59.2357 132.11 59.0296L131.814 58.3945C131.627 57.9956 131.307 57.732 130.958 57.6437L130.958 57.6437L130.34 57.487C130.079 57.4259 129.94 57.1983 129.924 56.9986C129.91 56.8272 129.98 56.5981 130.195 56.4732L130.758 56.14L130.759 56.1398C131.088 55.9445 131.343 55.5847 131.432 55.1377L131.432 55.1374L131.572 54.4377C131.611 54.2329 131.781 54.0239 132.049 53.9965ZM132.257 55.7765C132.502 56.1119 132.825 56.3775 133.2 56.5379C132.867 56.8031 132.611 57.1599 132.452 57.5652C132.208 57.2298 131.884 56.9642 131.509 56.8039C131.842 56.5386 132.099 56.1819 132.257 55.7765ZM133.189 135.394L132.751 134.869C132.396 134.443 132.226 133.863 132.283 133.283L132.355 132.567C132.358 132.541 132.344 132.514 132.324 132.501C132.304 132.489 132.277 132.493 132.261 132.512L131.794 133.005C131.416 133.405 130.901 133.596 130.385 133.532L129.75 133.451C129.727 133.448 129.703 133.463 129.692 133.485C129.681 133.508 129.684 133.539 129.701 133.557L130.139 134.082C130.494 134.508 130.664 135.088 130.607 135.668L130.535 136.384C130.532 136.41 130.546 136.437 130.566 136.45C130.586 136.462 130.613 136.458 130.629 136.439L131.096 135.946C131.474 135.546 131.989 135.355 132.505 135.419L133.141 135.498C133.164 135.501 133.189 135.486 133.2 135.464C133.211 135.441 133.207 135.41 133.19 135.392L133.189 135.394ZM103.469 94.8745C103.707 94.8632 103.919 95.0086 104.005 95.2198L104.274 95.8703L104.274 95.8706C104.443 96.279 104.751 96.5597 105.096 96.667L105.097 96.6671L105.655 96.8411L105.692 96.8506C105.959 96.9206 106.094 97.161 106.101 97.3656C106.104 97.446 106.089 97.538 106.048 97.6248L106.033 97.9773L105.771 97.8954L105.232 98.1797L105.231 98.1801C104.894 98.3573 104.623 98.7028 104.515 99.1444L104.515 99.1447L104.345 99.8359C104.297 100.039 104.119 100.238 103.85 100.251C103.612 100.262 103.4 100.116 103.314 99.9053L103.045 99.2548L103.045 99.2546C102.876 98.8461 102.568 98.5655 102.223 98.4582L102.222 98.4581L101.612 98.2679C101.355 98.1927 101.225 97.9578 101.218 97.7573C101.211 97.5852 101.291 97.3601 101.511 97.2471L102.088 96.945L102.088 96.9449C102.426 96.7677 102.696 96.4223 102.804 95.9808L102.804 95.9805L102.974 95.2893C103.022 95.0866 103.2 94.8873 103.469 94.8745ZM103.601 96.6638C103.83 97.0122 104.142 97.2952 104.51 97.4759C104.435 97.5297 104.363 97.588 104.296 97.6504C104.052 97.8744 103.856 98.1514 103.718 98.4614C103.489 98.1129 103.177 97.8299 102.809 97.6492C102.884 97.5955 102.956 97.5372 103.024 97.4748C103.267 97.2507 103.463 96.9737 103.601 96.6638ZM103.529 99.0585L103.568 98.9017L103.995 99.0112L104.215 99.5435C104.147 99.381 103.984 99.2672 103.793 99.2762C103.672 99.282 103.579 99.3347 103.519 99.39C103.462 99.4426 103.418 99.5129 103.397 99.5956C103.396 99.6015 103.395 99.6074 103.393 99.6133L103.395 99.6044L103.397 99.5956L103.529 99.0585ZM104.215 99.5435L104.219 99.5521L104.219 99.552L104.215 99.5435Z" fill="#2BF9FF"/>
</svg>

