<svg xmlns="http://www.w3.org/2000/svg" width="142" height="160" viewBox="0 0 142 160" fill="none">
  <path fill-rule="evenodd" clip-rule="evenodd" d="M107.94 0.683617C108.45 0.893899 108.694 1.47836 108.484 1.98904L101.484 18.989C101.273 19.4997 100.689 19.7433 100.178 19.533C99.6674 19.3227 99.4239 18.7382 99.6342 18.2275L106.634 1.22754C106.844 0.716859 107.429 0.473334 107.94 0.683617ZM112.602 10.2687C113.066 10.5688 113.198 11.1879 112.898 11.6515L107.398 20.1515C107.098 20.6152 106.479 20.7479 106.016 20.4479C105.552 20.1478 105.419 19.5287 105.719 19.065L111.219 10.565C111.519 10.1014 112.138 9.96869 112.602 10.2687ZM127.87 12.024C128.193 12.4722 128.091 13.0971 127.643 13.4198L115.143 22.4198C114.695 22.7425 114.07 22.6408 113.747 22.1926C113.425 21.7444 113.526 21.1195 113.975 20.7968L126.475 11.7968C126.923 11.4741 127.548 11.5758 127.87 12.024ZM73.7412 20.6601C74.095 20.5416 74.4853 20.6299 74.7537 20.8891C78.8554 24.8519 82.6168 28.6757 86.0869 32.4295C86.2148 32.5679 86.2962 32.7328 86.3318 32.9049C87.1783 32.5417 88.046 32.2183 88.9325 31.9371C93.0084 29.8106 97.6432 28.6083 102.559 28.6083C118.851 28.6083 132.059 41.8159 132.059 58.1083C132.059 66.7755 128.321 74.5696 122.37 79.9668L141.941 102.211C140.833 105.744 139.505 107.059 135.536 107.846L122.993 93.5891C125.699 100.938 128.314 108.933 131.016 117.817C131.095 118.077 131.065 118.358 130.932 118.595C130.8 118.832 130.577 119.005 130.315 119.075C104.436 125.93 91.0263 132.001 69.6794 148.892C69.4082 149.107 69.0455 149.166 68.7202 149.049C68.3949 148.932 68.1531 148.655 68.0809 148.317C63.4967 126.852 58.2904 111.488 50.4617 98.2566C42.6345 85.0282 32.1485 73.8695 16.9098 60.8691C16.4966 60.5165 16.4403 59.8986 16.7831 59.4772C25.205 49.1249 32.5093 41.7278 41.2012 35.7601C49.8908 29.7939 59.9173 25.2905 73.7412 20.6601ZM102.559 87.6083C107.092 87.6083 111.386 86.5858 115.224 84.759L119.235 89.3179C122.502 97.6839 125.59 106.906 128.8 117.409C103.846 124.084 90.2935 130.213 69.6986 146.332C65.1721 125.571 59.972 110.402 52.183 97.2381C44.3276 83.9622 33.8753 72.7871 18.9516 59.9838C27.0487 50.1071 34.0695 43.0827 42.3333 37.4088C50.6897 31.6714 60.3658 27.2818 73.8007 22.7501C77.6906 26.5212 81.2651 30.1621 84.5691 33.7339C75.3602 38.4576 69.0589 48.0471 69.0589 59.1083C69.0589 74.8484 81.8187 87.6083 97.5589 87.6083C98.3938 87.6083 99.2204 87.5724 100.037 87.502C100.868 87.5724 101.709 87.6083 102.559 87.6083ZM128.059 58.1083C128.059 65.4929 124.92 72.1444 119.903 76.8012C123.757 71.9406 126.059 65.7932 126.059 59.1083C126.059 48.3773 120.128 39.0315 111.366 34.1699C121.109 37.7556 128.059 47.1204 128.059 58.1083ZM125.059 59.1083C125.059 46.689 116.826 36.1925 105.521 32.7784C104.549 32.6661 103.561 32.6083 102.559 32.6083C88.4756 32.6083 77.0589 44.025 77.0589 58.1083C77.0589 72.1916 88.4756 83.6083 102.559 83.6083C107.074 83.6083 111.315 82.4348 114.994 80.3763C121.139 75.3329 125.059 67.6784 125.059 59.1083ZM73.0589 58.1083C73.0589 48.851 77.3229 40.5897 83.994 35.1812C75.6722 39.9091 70.0589 48.8532 70.0589 59.1083C70.0589 73.1549 80.5902 84.7418 94.1879 86.4037C81.9727 82.7956 73.0589 71.4929 73.0589 58.1083ZM101.602 35.8171C101.763 35.2888 102.322 34.9908 102.85 35.1516C114.931 38.8286 123.109 53.3893 120.545 68.7727C120.454 69.3175 119.939 69.6855 119.394 69.5947C118.85 69.5039 118.482 68.9887 118.572 68.4439C121.009 53.8272 113.186 40.388 102.268 37.065C101.739 36.9042 101.441 36.3455 101.602 35.8171ZM73.4978 39.2644C73.6878 39.783 73.4214 40.3573 72.9028 40.5473C57.7742 46.0885 49.2876 51.2079 35.2125 63.3651C34.7946 63.7261 34.1631 63.6799 33.8021 63.262C33.4411 62.844 33.4872 62.2125 33.9052 61.8515C48.1369 49.559 56.8292 44.3047 72.2149 38.6693C72.7335 38.4794 73.3079 38.7458 73.4978 39.2644ZM67.4782 56.1659C67.6955 56.6736 67.4601 57.2614 66.9524 57.4788C58.3492 61.1617 53.4869 64.0054 44.6748 70.896C44.2398 71.2362 43.6113 71.1593 43.2711 70.7243C42.9309 70.2892 43.0078 69.6607 43.4429 69.3205C52.3788 62.3331 57.3892 59.3971 66.1653 55.6402C66.673 55.4228 67.2608 55.6582 67.4782 56.1659ZM68.9262 67.0618C69.2011 67.5408 69.0355 68.152 68.5565 68.4268L47.5565 80.4757C47.0775 80.7505 46.4663 80.585 46.1915 80.1059C45.9166 79.6269 46.0822 79.0158 46.5612 78.7409L67.5612 66.6921C68.0402 66.4172 68.6514 66.5828 68.9262 67.0618ZM6.05885 75.6083C6.05885 75.056 6.50656 74.6083 7.05885 74.6083H15.5588C16.1111 74.6083 16.5588 75.056 16.5588 75.6083C16.5588 76.1606 16.1111 76.6083 15.5588 76.6083H7.05885C6.50656 76.6083 6.05885 76.1606 6.05885 75.6083ZM73.4073 77.5303C73.6996 77.9989 73.5567 78.6157 73.0881 78.908L67.8381 82.1824L62.5881 85.4568C62.1194 85.7491 61.5026 85.6061 61.2104 85.1375C60.9181 84.6689 61.061 84.0521 61.5296 83.7598L66.7796 80.4854L72.0296 77.211C72.4983 76.9187 73.1151 77.0616 73.4073 77.5303ZM18.5215 82.3375C18.671 82.8692 18.3613 83.4214 17.8296 83.5709L1.82959 88.0709C1.29794 88.2205 0.745727 87.9107 0.596198 87.379C0.446669 86.8474 0.756446 86.2952 1.2881 86.1456L17.2881 81.6456C17.8198 81.4961 18.372 81.8059 18.5215 82.3375ZM85.4931 87.7516C85.6901 88.2676 85.4315 88.8456 84.9155 89.0425C75.7175 92.5539 70.9327 95.41 62.6458 101.418C62.1987 101.742 61.5734 101.642 61.2492 101.195C60.9251 100.748 61.0247 100.123 61.4719 99.7987C69.8619 93.716 74.8009 90.763 84.2022 87.1741C84.7182 86.9771 85.2961 87.2357 85.4931 87.7516ZM111.996 90.2586C112.189 90.776 111.926 91.352 111.409 91.5451C93.5067 98.2281 83.6968 102.484 67.0736 112.466C66.6002 112.75 65.9858 112.597 65.7015 112.123C65.4172 111.65 65.5706 111.035 66.0441 110.751C82.8014 100.689 92.7297 96.3834 110.709 89.6714C111.227 89.4783 111.803 89.7411 111.996 90.2586ZM21.3781 90.5348C21.6948 90.9873 21.5848 91.6108 21.1323 91.9275L16.1323 95.4275C15.6799 95.7442 15.0563 95.6342 14.7396 95.1818C14.4229 94.7293 14.5329 94.1058 14.9854 93.7891L19.9854 90.2891C20.4378 89.9723 21.0614 90.0824 21.3781 90.5348ZM102.528 114.363C102.664 114.898 102.34 115.442 101.804 115.578C91.7822 118.115 86.3696 120.324 77.1404 126.922C76.6912 127.243 76.0666 127.139 75.7454 126.69C75.4242 126.241 75.528 125.616 75.9773 125.295C85.4326 118.535 91.0794 116.229 101.313 113.639C101.849 113.503 102.393 113.827 102.528 114.363ZM111.304 110.203C111.06 110.823 110.164 111.232 109.131 110.825C108.098 110.418 107.318 109.351 107.562 108.731C107.806 108.111 108.842 107.938 109.875 108.345C110.908 108.751 111.548 109.583 111.304 110.203ZM118.458 104.713C118.175 105.786 118.685 106.628 119.329 106.798C119.973 106.968 120.725 106.236 121.008 105.162C121.292 104.089 121 103.081 120.355 102.911C119.711 102.741 118.742 103.639 118.458 104.713ZM112.253 106.601C111.563 107.061 110.359 106.841 109.594 105.692C108.828 104.542 108.792 102.899 109.481 102.44C110.171 101.981 111.35 102.54 112.116 103.689C112.881 104.838 112.942 106.142 112.253 106.601ZM113.745 103.09C114.092 104.426 115.158 105.028 115.96 104.82C116.762 104.612 117.13 103.36 116.784 102.023C116.437 100.687 115.505 99.7721 114.704 99.9802C113.902 100.188 113.398 101.753 113.745 103.09ZM119.998 109.291C120.812 111.252 117.89 111.451 116.776 111.527L116.65 111.536C116.348 111.557 115.92 111.766 115.453 111.995C114.377 112.52 113.094 113.147 112.66 111.822C112.019 109.862 113.092 106.778 115.296 106.62C117.255 105.979 119.392 107.831 119.998 109.291ZM93.3682 152.11C109.021 146.679 121.271 141.008 120.728 139.442C120.185 137.877 107.055 141.011 91.4016 146.441C75.7483 151.872 63.4991 157.543 64.0422 159.109C64.5852 160.674 77.7149 157.54 93.3682 152.11ZM91.7051 37.9399C91.0867 37.3887 90.1385 37.4432 89.5873 38.0617C89.0361 38.6801 89.0906 39.6283 89.7091 40.1795C93.694 43.731 98.5634 49.6311 102.976 56.2296C107.387 62.8255 111.266 70.0051 113.33 76.0798C113.596 76.8641 114.448 77.284 115.232 77.0175C116.017 76.7509 116.437 75.899 116.17 75.1146C113.991 68.7017 109.962 61.2794 105.47 54.5619C100.979 47.8469 95.9487 41.722 91.7051 37.9399ZM95.2324 53.3065C95.9486 52.8901 96.1917 51.972 95.7753 51.2558C95.3589 50.5396 94.4408 50.2965 93.7246 50.7129L80.9961 58.1129C80.2799 58.5293 80.0369 59.4474 80.4532 60.1636C80.8696 60.8798 81.7877 61.1228 82.5039 60.7065L95.2324 53.3065ZM97.5896 63.4815C98.3057 63.0651 98.5488 62.147 98.1324 61.4308C97.7161 60.7146 96.7979 60.4715 96.0817 60.8879L83.3532 68.2879C82.637 68.7043 82.394 69.6224 82.8104 70.3386C83.2267 71.0548 84.1449 71.2978 84.861 70.8815L97.5896 63.4815ZM108.391 72.2923C109.12 71.8989 109.392 70.989 108.999 70.2599C108.605 69.5308 107.695 69.2587 106.966 69.6521L97.5376 74.7396C96.8086 75.133 96.5365 76.0429 96.9298 76.772C97.3232 77.5011 98.2332 77.7732 98.9622 77.3798L108.391 72.2923Z" fill="#62FF46"/>
</svg>

