<svg width="278" height="10" viewBox="0 0 278 10" fill="none" xmlns="http://www.w3.org/2000/svg">
<path d="M0.990035 4.85475C26.8966 5.865 52.8445 5.81706 78.7724 5.78884C84.8225 5.7344 90.8728 5.6957 96.9227 5.62668C110.484 5.47191 113.214 5.39566 126.089 5.13186C133.284 4.98433 140.426 4.91631 147.619 5.11336C149.171 5.21544 150.724 5.30558 152.275 5.41953C156.609 5.73794 156.953 5.85229 161.322 6.10727C165.616 6.35778 169.914 6.38977 174.214 6.46627C181.929 6.53087 189.635 6.88703 197.318 7.48049C211.099 9.00165 224.977 9.27167 238.848 9.26853C246.324 9.21326 253.798 9.02919 261.264 8.68544C264.316 8.54498 267.37 8.4214 270.396 8.0308C269.772 6.98814 269.43 5.76866 268.523 4.90281C268.427 4.81114 264.691 4.96093 264.279 4.98763C264.023 5.0034 263.51 4.84137 263.514 5.06815C263.529 6.12574 264.055 7.12829 264.325 8.15834C266.727 8.31884 269.139 8.15338 271.543 8.19844C272.245 8.21266 272.94 8.32253 273.64 8.37494C274.366 8.3599 275.069 8.57613 275.793 8.56022C276.012 8.66998 277.772 5.93868 277.553 5.82902C276.702 5.48023 275.805 5.33246 274.871 5.23551C271.69 4.92933 268.499 4.94853 265.306 5.07492C265.057 6.0929 264.56 7.08772 264.56 8.12882C264.56 8.34862 265.058 8.14403 265.307 8.14287C265.748 8.14008 266.189 8.12708 266.631 8.11628C267.125 8.10231 267.619 8.08833 268.113 8.07058C268.559 8.05392 269.309 8.38593 269.45 8.01217C269.825 7.01826 269.363 5.91925 269.319 4.87281C266.223 4.75024 263.127 4.81074 260.029 4.84443C253.368 4.91688 246.709 5.04034 240.048 5.10288C226.236 5.1702 212.401 5.12275 198.643 3.91386C190.883 3.44558 183.111 3.06036 175.335 2.90451C166.512 2.70544 157.689 2.45606 148.936 1.36908C144.541 1.03273 140.477 0.686622 136.037 0.519445C116.396 -0.220103 96.7172 0.153459 77.066 0.0227491C51.3905 0.234582 25.6937 0.417362 0.0500027 1.6786C-0.204544 1.73751 0.735502 4.91369 0.990035 4.85475Z" fill="#E3A849"/>
</svg>
