<svg width="52" height="65" viewBox="0 0 52 65" fill="none" xmlns="http://www.w3.org/2000/svg">
<path d="M51.0616 50.9042C51.5325 50.5603 52.0724 50.0444 51.992 49.1847C51.9116 48.3135 51.2568 47.9925 50.6481 47.7518C49.913 47.4652 49.1319 47.2703 48.3853 47.0754C48.1097 47.0066 47.8225 46.9264 47.5468 46.8576C47.3056 46.7888 47.0644 46.7315 46.8232 46.6627C45.0773 46.1927 43.274 45.7113 41.6199 44.8744C40.6436 44.3815 40.1726 43.7166 40.1382 42.7652C40.1267 42.3754 40.0578 41.9971 40.0004 41.6188C39.9774 41.5042 39.9544 41.3781 39.943 41.2635C39.9085 41.0342 39.874 40.8164 39.8396 40.5871C39.4835 38.283 39.116 35.8986 38.3464 33.6289C38.0937 32.8838 37.8295 32.3106 37.5193 31.8177C37.1862 31.2904 36.6464 30.9808 36.0606 30.9808C35.5667 30.9808 35.0843 31.1986 34.7052 31.5999C34.3836 31.9438 34.2113 32.3564 34.062 32.7806C32.9593 35.7954 31.7073 38.8103 30.4898 41.722L30.283 42.2035C30.0878 42.6735 29.8466 43.132 29.6054 43.5791C29.525 43.7281 29.4445 43.8771 29.3756 44.0262C29.1229 44.5076 28.7898 44.7254 28.2729 44.7254C28.1925 44.7254 28.1007 44.714 28.0088 44.714L27.3196 44.6337C25.1947 44.37 23.0123 44.1064 20.8643 43.7166C19.7502 43.5103 18.6016 43.3269 17.4989 43.1549C16.9935 43.0747 16.4996 42.9944 15.9942 42.9142L15.7645 42.8798L15.753 42.9601C15.7415 42.9601 15.7415 42.9601 15.73 42.9601C15.684 42.9601 15.6381 42.9601 15.5922 42.9601C14.5239 43.0174 13.8233 43.4988 13.628 44.3242C13.3983 45.2871 14.1679 45.8374 14.7766 46.1698C15.5347 46.5825 16.2813 47.041 17.0164 47.4881C18.0272 48.0956 19.0725 48.7376 20.1522 49.2764C21.0021 49.7005 22.1048 50.2508 23.196 50.8583C23.4832 51.0188 23.8163 51.2022 23.8392 51.2939C23.8622 51.3856 23.6784 51.6837 23.4947 51.9588C23.0582 52.6466 22.5987 53.3459 22.1623 54.0222C21.8981 54.4234 21.6454 54.8246 21.3812 55.2259C20.9562 55.8793 20.4853 56.6473 20.2211 57.5185C20.0028 58.2063 19.8191 59.0088 20.4508 59.6966C20.7954 60.0749 21.2434 60.2583 21.7947 60.2583C22.1049 60.2583 22.4265 60.201 22.7021 60.1551C22.817 60.1322 22.9204 60.0863 23.0008 60.0519C23.0582 60.029 23.1041 60.0061 23.1501 59.9946C24.069 59.6966 24.9419 59.3183 25.8149 58.9171L26.1365 58.768C27.825 58 29.5709 57.209 31.4317 56.8078C31.6958 56.7505 31.9256 56.7276 32.1208 56.7276C32.7526 56.7276 33.2005 56.9912 33.614 57.6332C34.5444 59.0432 35.5667 60.4188 36.566 61.7485C36.8532 62.1383 37.1518 62.528 37.4389 62.9178C37.7835 63.3878 38.2659 63.9839 38.8862 64.4653C39.3227 64.7978 39.7591 64.9697 40.1956 64.9697C40.4483 64.9697 40.701 64.9124 40.9422 64.7978C41.6429 64.4768 42.0104 63.8807 42.0334 63.0324C42.0449 62.7688 42.0334 62.4822 41.999 62.1956C41.9415 61.6454 41.8726 61.0951 41.8152 60.5563C41.7578 60.0061 41.6888 59.4444 41.6314 58.8941C41.6084 58.7107 41.5969 58.5159 41.574 58.3324C41.4246 56.9912 41.2753 55.6042 41.2409 54.2286C41.2294 53.8847 41.2983 53.7929 41.6774 53.7127C43.7104 53.2771 45.6976 52.8186 47.5928 52.3371C48.7873 52.0505 50.0049 51.6722 51.0616 50.9042ZM46.5016 49.9183C44.6179 50.3998 42.6767 50.8927 40.7355 51.2366C40.6551 51.2481 40.5747 51.2595 40.4828 51.271C40.3794 51.2825 40.2646 51.2939 40.1612 51.3169C38.9092 51.5576 38.4038 52.1537 38.3693 53.4032C38.3463 54.4578 38.4382 55.5125 38.5301 56.5327C38.5761 56.9683 38.6105 57.4268 38.645 57.8739C38.6909 58.4815 38.7714 59.1005 38.8518 59.6966C38.8632 59.8227 38.8862 59.9488 38.8977 60.0749C38.8747 60.0405 38.8517 59.9946 38.8173 59.9488C38.7828 59.9029 38.7599 59.8571 38.7254 59.7998C38.4153 59.3641 38.0936 58.9285 37.7835 58.5044C37.1058 57.5644 36.3937 56.6015 35.7275 55.6385C34.9809 54.561 33.9816 54.0337 32.6836 54.0337C32.4769 54.0337 32.2586 54.0451 32.0404 54.0795C30.329 54.2859 28.5945 54.8132 26.4122 55.7876C25.6885 56.1085 24.9534 56.4295 24.1838 56.762C23.9656 56.8537 23.7359 56.9568 23.5062 57.06C23.5981 56.8078 23.7359 56.6129 23.8737 56.4181C23.9312 56.3263 24 56.2346 24.0575 56.1429C24.425 55.5468 24.8156 54.9507 25.1947 54.3661C25.5967 53.7471 26.0102 53.1166 26.4007 52.4861C27.2162 51.1793 27.0324 50.1934 25.8034 49.2076C25.1946 48.7147 24.494 48.3593 23.8278 48.0154C23.6555 47.9237 23.4717 47.832 23.2994 47.7403C23.0123 47.5913 22.7136 47.4422 22.4265 47.3047C21.9326 47.0639 21.4156 46.8232 20.9562 46.5252C20.9907 46.4793 21.0251 46.4793 21.0481 46.4793C21.117 46.4793 21.2089 46.5022 21.3008 46.5366C21.3927 46.5596 21.4731 46.594 21.565 46.6054C22.1738 46.6742 22.7825 46.7544 23.3798 46.8232C24.7237 46.9837 26.1135 47.1327 27.4804 47.3391C27.7561 47.3849 28.0317 47.3964 28.2844 47.3964C29.9844 47.3964 31.2479 46.5252 32.1438 44.7483C32.9364 43.1664 33.6026 41.5042 34.2573 39.8879C34.5674 39.1313 34.8775 38.3518 35.1991 37.5952C35.4173 37.0908 35.6012 36.5864 35.8079 36.0591C35.8539 35.9445 35.8998 35.8184 35.9457 35.6923C36.0721 35.9674 36.1295 36.254 36.1754 36.552C36.1984 36.6896 36.2214 36.8272 36.2559 36.9762C36.7038 38.8562 36.968 40.8164 37.2322 42.7079C37.2781 43.0059 37.3126 43.304 37.3586 43.6135C37.5653 45.0693 38.3119 46.1698 39.6328 46.9608C41.0915 47.832 42.7226 48.3135 44.2847 48.7835C44.457 48.8293 44.6293 48.8866 44.8016 48.9325C45.4219 49.1159 46.0651 49.2878 46.6853 49.4369C46.938 49.5056 47.2022 49.563 47.4549 49.6317L47.5009 49.6432C47.5123 49.6432 47.5239 49.6547 47.5354 49.6547C47.2023 49.7349 46.8577 49.8266 46.5016 49.9183Z" fill="#E3A849"/>
<path d="M7.40245 25.5472C7.34501 25.8682 7.27613 26.1891 7.20721 26.4987C7.03492 27.3011 6.86262 28.115 6.85113 28.9633C6.83964 29.5479 7.00047 30.0294 7.33357 30.3618C7.6437 30.6713 8.06867 30.8433 8.57406 30.8433H8.58556C9.18284 30.8433 9.71121 30.5796 10.1362 30.0638C10.3659 29.7886 10.5841 29.5135 10.7909 29.2384C10.9747 29.0091 11.1585 28.7684 11.3423 28.5391C12.6402 26.9457 13.8348 25.5128 15.1901 24.1831C15.8793 23.5067 16.2813 23.2545 16.6833 23.2545C17.0854 23.2545 17.5448 23.5182 18.1536 23.9423C19.0495 24.5728 19.9339 25.2377 20.7954 25.8911C22.0014 26.8082 23.2535 27.7482 24.5514 28.585L24.5743 28.6079C25.1142 28.9518 25.6655 29.3186 26.3088 29.5365C26.573 29.6282 26.8372 29.674 27.0669 29.674C27.5838 29.674 28.0202 29.4562 28.3304 29.055C28.8472 28.3901 28.5716 27.7482 28.2385 27.2208C28.0088 26.854 27.7675 26.4987 27.5378 26.1548C27.3311 25.8452 27.1243 25.5243 26.9176 25.2148C25.8838 23.5755 24.7352 21.5923 24.069 19.3226C23.9771 19.0131 23.8967 18.715 23.9312 18.6233C23.9771 18.5431 24.2183 18.4399 24.5514 18.3024L24.5858 18.2909C25.1257 18.0731 25.6771 17.8667 26.2169 17.6604C27.3311 17.2363 28.4912 16.8006 29.5823 16.2619C30.329 15.895 31.0985 15.4594 31.6958 14.7487C32.0519 14.336 32.2012 13.8775 32.1323 13.4419C32.0749 13.0063 31.8107 12.6394 31.3742 12.3529C31.0526 12.1351 30.685 12.0433 30.329 11.9746C29.1918 11.7453 28.0432 11.7453 26.929 11.7453C26.6074 11.7453 26.2858 11.7453 25.9642 11.7338C25.7804 11.7338 25.5966 11.7338 25.4014 11.7338C24.9879 11.7338 24.5743 11.7453 24.1723 11.7453C23.7703 11.7568 23.3568 11.7568 22.9548 11.7568C21.967 11.7568 21.2089 11.7224 20.5082 11.6307C19.5319 11.5046 19.0495 11.0919 18.7279 10.0831C18.4522 9.20043 18.211 8.29483 17.9698 7.42361C17.6137 6.09386 17.2462 4.71826 16.7523 3.38851C16.5455 2.81534 16.3043 2.21924 15.9022 1.70339C15.5462 1.24485 15.0064 0.969727 14.4435 0.969727C14.076 0.969727 13.7429 1.07291 13.4557 1.27925C12.8814 1.69193 12.7551 2.34534 12.6747 2.81534C12.4909 3.82412 12.3415 4.86728 12.1922 5.86459L12.1578 6.09386C11.974 7.3663 11.7902 8.65019 11.6179 9.89969C11.549 10.3697 11.4915 10.8397 11.4226 11.3097C11.3192 11.3097 11.2159 11.2753 11.101 11.2409H11.0895C8.88418 10.4843 6.541 10.0946 4.15187 10.0946C3.58904 10.0946 3.01473 10.1175 2.42893 10.1634C1.94651 10.1977 1.3952 10.2551 0.90129 10.5302C0.464814 10.7709 0.166127 11.1033 0.051265 11.5046C-0.0635972 11.9058 0.0168512 12.3529 0.269548 12.777C0.487786 13.1553 0.797892 13.4992 1.22288 13.8546C2.92284 15.2875 4.61131 16.8694 6.38018 18.7036C6.94301 19.2767 7.43695 19.8958 7.85045 20.5492C8.17207 21.0536 8.25246 21.4777 8.12611 21.9935C7.83896 23.1514 7.6092 24.3894 7.40245 25.5472ZM5.85181 14.336C5.40384 13.9233 4.94443 13.4992 4.45052 13.0407L4.10593 12.7197C4.33566 12.7082 4.57688 12.6968 4.8066 12.6968C5.79442 12.6968 6.75924 12.7999 7.82746 13.0407C9.22878 13.3387 10.5956 13.8087 11.7328 14.2214C12.0084 14.3246 12.2841 14.3704 12.5483 14.3704C13.0652 14.3704 13.5246 14.1755 13.8577 13.8316C14.2138 13.4648 14.3861 12.9375 14.3631 12.3643C14.3286 11.5046 14.4435 10.6448 14.5584 9.81946C14.6273 9.29214 14.7077 8.75336 14.7422 8.21458C14.7652 7.85922 14.8341 7.50386 14.9145 7.12556C14.9145 7.1141 14.9144 7.10263 14.9259 7.09117C14.9259 7.1141 14.9374 7.13702 14.9489 7.15995C15.0523 7.51531 15.1671 7.87068 15.2705 8.22605C15.5462 9.13165 15.8219 10.0602 16.0631 10.9887C16.4766 12.6394 17.5678 13.6482 19.417 14.0724C20.1981 14.2558 21.0481 14.336 22.0244 14.336H22.0819C22.7825 14.336 23.5521 14.336 24.4825 14.336C25.0338 14.336 25.5966 14.336 26.148 14.336C26.5385 14.336 26.9405 14.336 27.331 14.336C27.2966 14.3475 27.2506 14.3589 27.2162 14.3704C26.4466 14.6799 25.6541 14.978 24.896 15.276C24.2987 15.5053 23.667 15.746 23.0582 15.9867C21.3008 16.6745 20.7954 17.6145 21.1745 19.4601C21.4157 20.6065 21.8981 21.6726 22.369 22.7157L22.415 22.8304C22.5183 23.0482 22.6217 23.2545 22.7365 23.4609C22.8629 23.7016 22.9892 23.9309 23.0811 24.1601C22.8284 23.9767 22.5643 23.8048 22.3116 23.6328C21.4272 23.0138 20.5082 22.3833 19.6353 21.7184C18.613 20.9389 17.7056 20.5721 16.7867 20.5721C15.8334 20.5721 14.8341 20.9733 13.6395 21.856C12.8469 22.4406 12.2152 23.1857 11.6064 23.9079C11.2618 24.3092 10.9058 24.7333 10.5382 25.1116C10.5038 25.1574 10.4693 25.1918 10.4349 25.2377C10.4578 25.1116 10.4808 24.974 10.5037 24.8479C10.6186 24.2289 10.7335 23.5755 10.8943 22.9565C11.3078 21.3401 10.9976 19.9072 9.92941 18.5775C8.57404 16.9038 7.03489 15.425 5.85181 14.336Z" fill="#E3A849"/>
</svg>
