<svg xmlns="http://www.w3.org/2000/svg" width="131" height="88" viewBox="0 0 131 88" fill="none">
  <path d="M31.5043 57.0814C32.6118 56.615 33.7245 56.1316 34.8149 55.6601C35.5214 55.352 36.0428 54.8574 36.3724 54.1369L36.3776 54.1198L36.4205 54.0396L36.4293 53.949L36.4345 53.9319C36.6344 52.7807 36.2202 51.8163 35.2645 51.2287C35.0129 51.078 34.7508 50.9614 34.4785 50.8789C33.6955 50.6419 32.8704 50.7276 31.9302 51.1328C28.1365 52.7993 24.2866 54.4675 20.5818 56.0863C17.0937 57.603 13.4997 59.1622 9.94504 60.7147C7.86475 61.6322 5.78598 62.6062 3.77378 63.5443L3.66799 63.5869C3.12869 63.8337 2.60641 64.0858 2.06711 64.3326C0.099292 65.247 0.25473 66.6363 0.511182 67.3851C0.943268 68.5972 1.71532 69.0546 2.27705 69.2247C2.73665 69.3638 3.25464 69.3715 3.79696 69.2374C4.3785 69.0965 4.92966 68.8719 5.34097 68.6795C6.95888 67.9389 8.5938 67.2034 10.1503 66.4815L10.1725 66.4696C13.0414 65.1569 15.9938 63.8137 18.9308 62.5216C23.047 60.7104 27.2143 58.9146 31.2535 57.1733L31.5043 57.0814Z" fill="#E3A849"/>
  <path d="M14.684 49.174L14.7861 49.2049C15.5166 49.3701 16.1455 49.3182 16.7411 49.0697C22.2991 46.6696 26.8333 44.7053 31.0109 42.8753C32.2959 42.3136 32.8414 41.2483 32.4656 40.0346C32.1639 39.067 31.5153 38.386 30.6471 38.1231C30.3748 38.0407 30.0869 38.0095 29.7717 38.0072C29.2485 38.0166 28.65 38.1524 28.0322 38.4128C24.8718 39.7677 21.6892 41.1345 18.6073 42.4759C17.1943 43.0921 15.7642 43.7031 14.3512 44.3193C13.1994 44.8095 12.605 45.7295 12.7136 46.8437C12.8104 47.9356 13.5079 48.762 14.684 49.174Z" fill="#E3A849"/>
  <path d="M40.8966 60.6147C40.7656 60.5564 40.6175 60.4929 40.4814 60.4517C39.7324 60.2249 38.9295 60.2988 38.0388 60.663C33.7798 62.3937 30.2169 63.8505 26.5822 65.3601C25.0738 65.9847 24.8095 67.0419 24.875 67.8074C24.9421 68.6294 25.3149 69.7303 26.8433 70.2676L26.9113 70.2882C27.6144 70.4824 28.3218 70.4169 29.0624 70.1191C30.8438 69.3908 32.6082 68.6572 34.3897 67.9288L34.5398 67.8624C36.6609 66.9945 38.7819 66.1266 40.9081 65.2416C41.9882 64.8042 42.5841 63.9406 42.5502 62.8864C42.4862 62.1772 42.1845 61.2097 40.8966 60.6147Z" fill="#E3A849"/>
  <path d="M127.051 3.32722L127.034 3.32207C125.162 2.75519 123.11 2.22731 120.556 1.64052C116.417 0.704315 112.581 0.363191 108.794 0.596234C105.574 0.796031 102.382 1.39568 99.3081 1.97502C97.9697 2.2223 96.5868 2.49342 95.2194 2.71332C94.592 2.82165 93.9697 2.9129 93.3475 3.00415C89.9957 3.51811 86.5263 4.05238 83.2889 5.47721C76.7085 8.36941 70.9525 11.3621 65.6879 14.634C65.5496 14.7226 65.4113 14.8112 65.2729 14.8999C63.9614 15.7332 62.8378 16.4371 61.5952 16.0608C61.2718 15.9629 60.935 15.7864 60.5967 15.5535C60.5049 15.4884 60.3909 15.4352 60.2547 15.394C60.1356 15.3579 60.0283 15.3441 59.938 15.3354C59.9039 15.3251 59.8477 15.3267 59.8307 15.3216C59.4 15.2098 58.9862 15.1032 58.5503 15.0085C54.5103 13.9905 50.3288 12.9483 46.0686 12.5347C41.2615 12.086 35.7041 11.7831 30.3324 13.9973C26.7473 15.466 23.2342 17.3107 19.5815 19.6164C17.4452 20.9645 15.0323 22.4897 13.2318 24.8156C12.0731 26.3105 11.7786 27.7127 12.3226 29.1078C12.7768 30.308 13.6941 31.145 14.9368 31.5212C15.2942 31.6294 15.6842 31.6916 16.0675 31.7144C20.6962 32.0158 25.3872 32.5412 29.9147 33.0543C31.1734 33.193 32.4833 33.3472 33.7591 33.4911C34.1032 33.5207 34.3637 33.5809 34.585 33.6479C35.0616 33.7922 35.4628 34.0628 35.8111 34.8767C37.7872 39.5204 40.461 43.9466 42.823 47.8683C44.8901 51.2905 46.5268 55.0299 48.1095 58.641C48.8889 60.4243 49.7039 62.2744 50.5566 64.0612C50.6937 64.3451 50.7183 64.6322 50.4285 65.1597C49.6966 66.4109 48.9766 67.6843 48.2721 68.9065C46.8476 71.4022 45.358 73.99 43.8262 76.4718C43.5297 76.96 43.194 77.4549 42.8635 77.9328C41.9763 79.2675 41.0618 80.6311 40.5025 82.2329C40.1154 83.3275 40.1626 84.4603 40.6434 85.3889C41.0953 86.29 41.9177 86.9492 42.9391 87.2584C43.1604 87.3254 43.3868 87.3753 43.6185 87.4082C44.7034 87.5688 45.8162 87.5143 46.9127 87.2683C51.904 86.188 56.4492 84.0033 61.0579 81.67C65.0948 79.6297 68.4904 76.7614 71.0893 73.1485C75.1109 67.5987 78.3107 61.2035 81.1416 53.0188C81.1778 52.8993 81.214 52.7797 81.2502 52.6602C81.3625 52.2281 81.4157 52.1137 81.6887 52.0099C85.6622 50.547 89.3796 48.7641 92.4962 47.2468C93.1295 46.9352 93.7849 46.6116 94.413 46.3171C98.5468 44.3247 102.836 42.2489 106.349 38.9314C110.493 35.0033 114.621 31.1263 118.119 27.8601C123.774 22.5624 126.777 15.7722 129.377 9.27008L129.388 9.23592L129.467 9.03615C129.508 8.89953 129.572 8.75098 129.613 8.61436C130.117 7.25685 130.15 6.16682 129.715 5.27081C129.28 4.3748 128.413 3.7395 127.051 3.32722ZM55.9937 20.2002C54.1147 21.0668 52.3414 21.8909 50.6104 22.821C48.5465 23.9299 46.3604 24.89 44.2579 25.8195C42.0053 26.8153 39.6912 27.8299 37.4838 29.0445C36.9016 29.3716 36.28 29.2767 35.6021 29.1833L35.5459 29.1849C29.5761 28.4029 23.5309 27.7472 17.5294 27.2539C18.7903 25.79 20.428 24.7385 22.0161 23.7279C25.9011 21.2687 29.2862 19.4785 32.6715 18.1171C36.7309 16.4937 40.9191 16.5313 45.9594 17.0691C49.86 17.5043 53.6795 18.2691 57.6612 19.4187C57.0945 19.6945 56.533 19.9533 55.9937 20.2002ZM97.2716 7.04453C98.3082 6.87364 99.35 6.68568 100.353 6.5045C106.508 5.38512 112.859 4.23191 119.199 6.00207C120.293 6.31481 121.431 6.54732 122.534 6.76952C123.27 6.91766 124.039 7.0761 124.782 7.26355C124.833 7.27901 124.867 7.28932 124.918 7.30478C125.156 7.37693 125.192 7.44362 125.192 7.44362C125.204 7.46585 125.229 7.5667 125.098 7.93725C123.628 11.8732 122.169 14.9736 120.519 17.662C118.524 20.9358 116.254 23.5856 113.578 25.7955C112.763 26.4623 111.951 27.2418 110.926 28.2926C110.79 28.4376 110.718 28.4905 110.674 28.5143C110.645 28.4869 110.587 28.4322 110.475 28.2492C108.892 25.682 107.281 23.0874 105.699 20.5766L104.564 18.7415C102.823 15.9588 101.083 13.176 99.3239 10.3318L97.2716 7.04453ZM59.5082 62.9122C63.3897 60.9554 67.2904 58.8738 71.0802 56.8519L71.1246 56.828C72.7224 55.9695 74.3817 55.0923 76.0188 54.227C73.0511 61.5127 70.0897 67.9801 65.0638 73.2258C64.0891 74.2357 62.5337 75.6291 59.0805 77.3987C55.3662 79.2944 51.3536 81.1929 47.095 82.3085C46.5304 82.4546 46.0051 82.5938 45.4139 82.5826C48.4036 77.8017 51.2374 73.2905 53.7536 68.478C54.9991 66.0214 56.8317 64.2645 59.5082 62.9122ZM71.408 51.6566C66.5825 54.092 61.5795 56.6229 56.8312 59.4172L56.826 59.4343C55.5574 60.1874 54.7208 60.6799 54.3463 60.5665C53.9718 60.4531 53.5917 59.4991 53.1085 58.2715C51.0492 53.0433 48.2663 48.118 45.5664 43.3484C44.6332 41.7049 43.6762 40.017 42.7532 38.3393C42.6177 38.1119 42.5043 37.8725 42.3688 37.645L42.3451 37.6005C41.7236 36.4616 41.0732 35.2953 40.5235 34.1035C40.285 33.6025 40.0279 33.04 40.0899 32.835C40.1638 32.6523 40.7305 32.3765 41.2306 32.1364C42.2921 31.6375 43.3878 31.1489 44.439 30.6841C45.8572 30.0509 47.3368 29.3989 48.7416 28.687C50.9179 27.5748 53.1624 26.4832 55.3233 25.4223C60.2287 23.0297 65.2894 20.5536 70.0688 17.6568C75.6404 14.2914 81.9546 10.4983 88.8997 8.61136C90.537 8.17491 91.615 7.86741 92.2618 8.06324C92.9087 8.25907 93.3782 8.97916 94.4781 10.7476L94.5781 10.9084C97.3844 15.4493 100.271 20.033 103.057 24.456L103.133 24.5723C104.414 26.6008 105.726 28.713 107.036 30.7689C107.189 31.0015 107.319 31.246 107.467 31.4957C107.479 31.518 107.502 31.5624 107.514 31.5847C107.514 31.5847 107.509 31.6017 107.492 31.5966C107.355 31.7416 107.24 31.8747 107.131 31.9907C103.007 36.0368 98.4603 39.209 93.2087 41.7019C90.5581 42.9688 87.7868 44.1432 85.1213 45.2751C81.6879 46.7338 78.1657 48.2401 74.7843 49.9569C73.6458 50.5257 72.5021 51.1116 71.408 51.6566Z" fill="#E3A849"/>
  <path d="M92.8024 28.4357C92.6939 26.2776 91.7722 24.2275 89.9899 22.1965C88.4283 20.4187 86.4474 19.1665 84.0643 18.445C83.826 18.3729 83.6047 18.3059 83.3613 18.2508C83.2251 18.2096 83.0719 18.1632 82.9357 18.122C81.9824 17.8334 80.99 17.5515 79.8409 17.7256C76.8028 18.1854 74.1507 19.3959 71.9563 21.3043C69.3773 23.5623 68.2169 26.0447 68.4855 28.7174C68.7296 31.103 69.6485 33.4692 71.0666 35.3526C72.6136 37.4242 74.6959 38.8936 77.0791 39.6151C78.0664 39.914 79.112 40.0814 80.1939 40.1293C82.6218 40.2119 84.6284 39.9059 86.3196 39.1688C88.2667 38.3228 89.8428 36.8611 90.9879 34.8588C92.2926 32.5133 92.8945 30.4024 92.8024 28.4357ZM87.2337 30.4411C86.4095 33.2863 84.7684 34.8401 82.189 35.1964C80.6974 35.3973 79.452 35.3372 78.3625 35.0074C77.0688 34.6157 76.0354 33.8554 75.2215 32.6769C73.7937 30.6413 73.0586 28.8342 74.0986 26.6881C75.0099 24.7828 78.7574 22.6549 80.9004 22.819C81.6449 22.8766 82.3294 23.0093 82.9422 23.1948C84.3721 23.6277 85.5299 24.407 86.4733 25.5874C87.7306 27.1426 87.9742 28.6705 87.2544 30.3728L87.2337 30.4411Z" fill="#E3A849"/>
</svg>

