<svg xmlns="http://www.w3.org/2000/svg" width="91" height="145" viewBox="0 0 91 145" fill="none">
  <path d="M67.5459 23.2646L64.9592 21.2734C62.8618 19.6618 61.3498 17.183 60.8146 14.4958L60.1547 11.1739C60.13 11.051 60.0412 10.9429 59.9339 10.9108C59.8267 10.8787 59.7201 10.9188 59.6715 11.0194L58.3351 13.686C57.2539 15.8488 55.3066 17.1893 53.0125 17.3635L50.1761 17.5767C50.0712 17.5849 49.99 17.6699 49.9794 17.7888C49.9687 17.9077 50.0219 18.0379 50.1192 18.1109L52.7059 20.102C54.8033 21.7137 56.3153 24.1925 56.8506 26.8797L57.5104 30.2015C57.5351 30.3245 57.6239 30.4326 57.7312 30.4647C57.8384 30.4968 57.945 30.4567 57.9936 30.3561L59.33 27.6894C60.4112 25.5266 62.3585 24.1862 64.6527 24.012L67.489 23.7988C67.5939 23.7906 67.6751 23.7056 67.6857 23.5867C67.6964 23.4677 67.6432 23.3376 67.5459 23.2646Z" fill="#E3A849" stroke="#E3A849" stroke-width="4" stroke-miterlimit="10"/>
  <circle cx="73.5" cy="69.0599" r="13" stroke="#E3A849" stroke-width="4"/>
  <path d="M2.87058 125.539L37 134.06L15.5224 104.06L49.5 86.06L15.5224 70.06L37 43.06" stroke="#E3A849" stroke-width="4" stroke-linecap="round" stroke-linejoin="round"/>
</svg>

