<svg fill="none" height="24" viewBox="0 0 24 24" width="24" xmlns="http://www.w3.org/2000/svg"><path clip-rule="evenodd" d="m10.0368 4.00001c.4382-.00161.8264.28225.9577.7003l3.2549 10.36189.7626-3.6032c.0978-.4622.5058-.7929.9783-.7929h4.0097c.5523 0 1 .4477 1 1s-.4477 1-1 1h-3.1992l-1.3843 6.541c-.0941.4447-.4764.77-.9304.7918-.4541.0217-.8657-.2655-1.002-.6992l-3.4313-10.9235-1.09659 3.5826c-.12865.4203-.51666.7073-.95621.7073h-4c-.55228 0-1-.4477-1-1s.44772-1 1-1h3.26029l1.82394-5.95879c.12826-.419.51436-.7057.95257-.7073z" fill="currentColor" fill-rule="evenodd"/></svg>