<svg fill="none" height="24" viewBox="0 0 24 24" width="24" xmlns="http://www.w3.org/2000/svg"><path clip-rule="evenodd" d="m12 4c-4.41828 0-8 3.58172-8 8 0 4.4183 3.58172 8 8 8 4.4183 0 8-3.5817 8-8 0-4.41828-3.5817-8-8-8zm-10 8c0-5.52285 4.47715-10 10-10 5.5228 0 10 4.47715 10 10 0 5.5228-4.4772 10-10 10-5.52285 0-10-4.4772-10-10zm10-4.37555c.5523 0 1 .44772 1 1v2.37505h2.375c.5523 0 1 .4477 1 1 0 .5522-.4477 1-1 1h-2.375v2.375c0 .5522-.4477 1-1 1s-1-.4478-1-1v-2.375h-2.375c-.55228 0-1-.4478-1-1 0-.5523.44772-1 1-1h2.375v-2.37505c0-.55228.4477-1 1-1z" fill="currentColor" fill-rule="evenodd" opacity=".9"/></svg>