<svg fill="none" height="24" viewBox="0 0 24 24" width="24" xmlns="http://www.w3.org/2000/svg"><path clip-rule="evenodd" d="m5.50716 1.69292c.39052.39052.39052 1.02369 0 1.41421l-3 3c-.39053.39052-1.02369.39052-1.41422 0-.390522-.39052-.390522-1.02369 0-1.41421l3-3c.39053-.39053 1.02369-.39053 1.41422 0zm12.98574 0c.3906-.39053 1.0237-.39053 1.4143 0l3 3c.3905.39052.3905 1.02369 0 1.41421-.3906.39053-1.0237.39053-1.4143 0l-3-3c-.3905-.39052-.3905-1.02369 0-1.41421zm-6.4929 3.6271c-4.11337 0-7.44795 3.33459-7.44795 7.44798 0 4.1134 3.33458 7.448 7.44795 7.448 4.1135 0 7.448-3.3346 7.448-7.448 0-4.11339-3.3345-7.44798-7.448-7.44798zm-9.44795 7.44798c0-5.21796 4.23001-9.44798 9.44795-9.44798 5.218 0 9.448 4.23002 9.448 9.44798 0 2.2488-.7856 4.3141-2.0974 5.9364l2.1886 2.1885c.3905.3905.3905 1.0237 0 1.4142-.3906.3906-1.0237.3906-1.4143 0l-2.1885-2.1885c-1.6223 1.3118-3.6876 2.0974-5.9364 2.0974-2.24873 0-4.31401-.7856-5.93629-2.0974l-2.18855 2.1885c-.39053.3906-1.02369.3906-1.41422 0-.39052-.3905-.39052-1.0237 0-1.4142l2.18856-2.1885c-1.3118-1.6223-2.09745-3.6876-2.09745-5.9364zm9.44795-4.45598c.5523 0 1 .44772 1 1v3.04178l1.6272 1.6271c.3905.3905.3905 1.0237 0 1.4142-.3906.3906-1.0237.3906-1.4143 0l-1.695-1.695c-.3316-.3316-.5179-.7813-.5179-1.2502v-3.13788c0-.55228.4478-1 1-1z" fill="currentColor" fill-rule="evenodd"/></svg>