<svg fill="none" height="24" viewBox="0 0 24 24" width="24" xmlns="http://www.w3.org/2000/svg"><path clip-rule="evenodd" d="m15.9919 2.40002c0-.55228.4477-1 1-1h.768c2.6731 0 4.84 2.16695 4.84 4.84v.768c0 .55229-.4477 1-1 1s-1-.44771-1-1v-.768c0-1.56848-1.2715-2.84-2.84-2.84h-.768c-.5523 0-1-.44771-1-1zm-9.752 1c-1.56849 0-2.84 1.27152-2.84 2.84v.768c0 .55229-.44771 1-1 1-.55228 0-1-.44771-1-1v-.768c0-2.67305 2.16694-4.84 4.84-4.84h.768c.55229 0 1 .44772 1 1 0 .55229-.44771 1-1 1zm5.76 1.92c-4.11342 0-7.448 3.33459-7.448 7.44798 0 4.1134 3.33458 7.448 7.448 7.448 4.1134 0 7.448-3.3346 7.448-7.448 0-4.11339-3.3346-7.44798-7.448-7.44798zm-9.448 7.44798c0-5.21796 4.23002-9.44798 9.448-9.44798 5.218 0 9.448 4.23002 9.448 9.44798 0 2.2488-.7857 4.3141-2.0974 5.9364l2.1885 2.1885c.3905.3905.3905 1.0237 0 1.4142-.3905.3906-1.0237.3906-1.4142 0l-2.1886-2.1885c-1.6222 1.3118-3.6875 2.0974-5.9363 2.0974-2.24878 0-4.31406-.7856-5.93634-2.0974l-2.18855 2.1885c-.39053.3906-1.02369.3906-1.41421 0-.39053-.3905-.39053-1.0237 0-1.4142l2.18855-2.1885c-1.3118-1.6223-2.09745-3.6876-2.09745-5.9364zm13.1551-3.27508c.3905.39052.3905 1.02368 0 1.41418l-4.2 4.2c-.3905.3906-1.0237.3906-1.4142 0l-1.80001-1.8c-.39052-.3905-.39052-1.0237 0-1.4142.39053-.3905 1.02369-.3905 1.41422 0l1.09289 1.0929 3.4929-3.49288c.3905-.39053 1.0237-.39053 1.4142 0z" fill="currentColor" fill-rule="evenodd"/></svg>