<svg fill="none" height="24" viewBox="0 0 24 24" width="24" xmlns="http://www.w3.org/2000/svg"><path clip-rule="evenodd" d="m21.5999 1.40002c.5523 0 1 .44772 1 1v19.19998c0 .5523-.4477 1-1 1s-1-.4477-1-1v-19.19998c0-.55228.4477-1 1-1zm-11.3304 3.88301c.396-.38499 1.0291-.37607 1.4141.01992l5.8333 5.99995c.3773.3882.3773 1.0061 0 1.3942l-5.8333 6c-.385.396-1.0181.4049-1.4141.0199-.39599-.385-.40491-1.0181-.0199-1.4141l4.1834-4.3029h-12.0331c-.55228 0-1-.4477-1-1s.44772-1 1-1h12.0331l-4.1834-4.3029c-.38501-.39598-.3761-1.02908.0199-1.41407z" fill="currentColor" fill-rule="evenodd"/></svg>