<svg fill="none" height="24" viewBox="0 0 24 24" width="24" xmlns="http://www.w3.org/2000/svg"><path clip-rule="evenodd" d="m2.3999 1.40002c.55229 0 1 .44772 1 1v19.19998c0 .5523-.44771 1-1 1-.55228 0-1-.4477-1-1v-19.19998c0-.55228.44772-1 1-1zm11.3304 3.88301c.396.38499.4049 1.01809.0199 1.41407l-4.18337 4.3029h12.03307c.5523 0 1 .4477 1 1s-.4477 1-1 1h-12.03307l4.18337 4.3029c.385.396.3761 1.0291-.0199 1.4141s-1.0291.3761-1.4141-.0199l-5.83329-6c-.37734-.3881-.37734-1.006 0-1.3942l5.83329-5.99995c.385-.39599 1.0181-.40491 1.4141-.01992z" fill="currentColor" fill-rule="evenodd"/></svg>