<svg fill="none" height="24" viewBox="0 0 24 24" width="24" xmlns="http://www.w3.org/2000/svg"><path clip-rule="evenodd" d="m12.0009 1.3999c.2718 0 .532.11067.7205.30652l2.6181 2.72007c.3831.3979.371 1.03095-.0269 1.41395s-1.031.37092-1.414-.02699l-.8977-.93264v4.23377c0 .55229-.4477 1.00002-1 1.00002s-1-.44773-1-1.00002v-4.23377l-.8977.93265c-.38301.3979-1.01606.40998-1.41397.02698-.3979-.383-.40999-1.01605-.02699-1.41395l2.61816-2.72007c.1885-.19585.4487-.30652.7205-.30652zm-10.601 10.5998c0-.5523.44772-1 1-1h19.2c.5523 0 1 .4477 1 1s-.4477 1-1 1h-19.2c-.55228 0-1-.4477-1-1zm10.601 2.0005c.5522 0 1 .4477 1 1v4.2337l.8977-.9326c.383-.3979 1.016-.41 1.4139-.027s.41 1.0161.027 1.414l-2.6182 2.72c-.1885.1959-.4486.3065-.7204.3065-.2719 0-.532-.1106-.7205-.3065l-2.61819-2.72c-.383-.3979-.37092-1.031.02699-1.414.3979-.383 1.03095-.3709 1.414.027l.8977.9326v-4.2337c0-.5523.4477-1 1-1z" fill="currentColor" fill-rule="evenodd"/></svg>