<svg fill="none" height="24" viewBox="0 0 24 24" width="24" xmlns="http://www.w3.org/2000/svg"><path clip-rule="evenodd" d="m11.9999 1.40002c.5523 0 1 .44772 1 1v4.4h6.2c1.8778 0 3.4 1.52224 3.4 3.39998v3.6c0 1.8778-1.5222 3.4-3.4 3.4h-6.2v4.4c0 .5523-.4477 1-1 1s-1-.4477-1-1v-4.4h-6.2c-1.87777 0-3.4-1.5222-3.4-3.4v-3.6c0-1.87774 1.52223-3.39998 3.4-3.39998h6.2v-4.4c0-.55228.4477-1 1-1zm7.2 13.79998c.7732 0 1.4-.6268 1.4-1.4v-3.6c0-.77317-.6268-1.39998-1.4-1.39998h-14.4c-.7732 0-1.4.62681-1.4 1.39998v3.6c0 .7732.6268 1.4 1.4 1.4z" fill="currentColor" fill-rule="evenodd"/></svg>