<svg fill="none" height="24" viewBox="0 0 24 24" width="24" xmlns="http://www.w3.org/2000/svg"><path clip-rule="evenodd" d="m10.1999 3.40002c-.77319 0-1.4.62681-1.4 1.4v9.59998c0 .7732.6268 1.4 1.4 1.4h3.6c.7732 0 1.4-.6268 1.4-1.4v-9.59998c0-.77319-.6268-1.39999-1.4-1.4zm-3.4 1.4c.00001-1.87776 1.52224-3.4 3.4-3.4h3.6c1.8778.00001 3.4 1.52224 3.4 3.40001v9.59997c0 1.8778-1.5222 3.4-3.4 3.4h-3.6c-1.87777 0-3.4-1.5222-3.4-3.4zm-5.4 16.79998c0-.5523.44772-1 1-1h19.2c.5523 0 1 .4477 1 1s-.4477 1-1 1h-19.2c-.55228 0-1-.4477-1-1z" fill="currentColor" fill-rule="evenodd"/></svg>