<svg fill="none" height="24" viewBox="0 0 24 24" width="24" xmlns="http://www.w3.org/2000/svg"><path clip-rule="evenodd" d="m11.9996 1.40002c.5523 0 1 .44772 1 1v19.19998c0 .5523-.4477 1-1 1s-1-.4477-1-1v-19.19998c0-.55228.4477-1 1-1zm6.3262 7.28834c.383.3979.3709 1.03095-.027 1.41394l-.9327.8977h4.2338c.5523 0 1 .4477 1 1s-.4477 1-1 1h-4.2338l.9327.8977c.3979.383.41 1.0161.027 1.414s-1.0161.41-1.414.027l-2.7201-2.6182c-.1958-.1885-.3065-.4486-.3065-.7205 0-.2718.1107-.5319.3065-.7204l2.7201-2.61823c.3979-.383 1.031-.37092 1.414.02699zm-12.65176 0c.383-.39791 1.01605-.40999 1.41396-.02699l2.72007 2.61823c.19583.1885.30653.4486.30653.7204 0 .2719-.1107.532-.30653.7205l-2.72007 2.6182c-.3979.383-1.03095.3709-1.41395-.027-.38301-.3979-.37092-1.031.02698-1.414l.93265-.8977h-4.23378c-.55228 0-1-.4477-1-1s.44772-1 1-1h4.23378l-.93265-.8977c-.39791-.38299-.40999-1.01604-.02699-1.41394z" fill="currentColor" fill-rule="evenodd"/></svg>