<svg fill="none" height="24" viewBox="0 0 24 24" width="24" xmlns="http://www.w3.org/2000/svg"><path clip-rule="evenodd" d="m11.9998 1.40002c.5523 0 1 .44772 1 1v19.19998c0 .5523-.4477 1-1 1s-1-.4477-1-1v-19.19998c0-.55228.4477-1 1-1zm-6.15936 7.07016c.383.3979.37092 1.03095-.02699 1.41395l-.93264.89767h4.23377c.55229 0 1.00002.4478 1.00002 1 0 .5523-.44773 1-1.00002 1h-4.23377l.93265.8978c.3979.383.40998 1.016.02698 1.4139s-1.01605.41-1.41395.027l-2.72007-2.6182c-.19585-.1885-.30652-.4486-.30652-.7205 0-.2718.11067-.5319.30652-.7204l2.72007-2.61821c.3979-.383 1.03095-.37092 1.41395.02699zm12.31896 0c.383-.39791 1.016-.40999 1.4139-.02699l2.7201 2.61821c.1958.1885.3065.4486.3065.7204 0 .2719-.1107.532-.3065.7205l-2.7201 2.6182c-.3979.383-1.0309.3709-1.4139-.027s-.371-1.0309.0269-1.4139l.9327-.8978h-4.2338c-.5523 0-1-.4477-1-1 0-.5522.4477-1 1-1h4.2338l-.9327-.89767c-.3979-.383-.4099-1.01605-.0269-1.41395z" fill="currentColor" fill-rule="evenodd"/></svg>