<svg fill="none" height="24" viewBox="0 0 24 24" width="24" xmlns="http://www.w3.org/2000/svg"><path clip-rule="evenodd" d="m10.1999 3.40002c-.7732 0-1.4.62681-1.4 1.4v14.39998c0 .7732.6268 1.4 1.4 1.4h3.6c.7732 0 1.4-.6268 1.4-1.4v-14.39998c0-.77319-.6268-1.4-1.4-1.4zm-3.4 7.59998h-4.4c-.55228 0-1 .4477-1 1s.44772 1 1 1h4.4v6.2c0 1.8778 1.52223 3.4 3.4 3.4h3.6c1.8778 0 3.4-1.5222 3.4-3.4v-6.2h4.4c.5523 0 1-.4477 1-1s-.4477-1-1-1h-4.4v-6.19998c0-1.87776-1.5222-3.4-3.4-3.4h-3.6c-1.87777 0-3.4 1.52224-3.4 3.4z" fill="currentColor" fill-rule="evenodd"/></svg>