<svg fill="none" height="24" viewBox="0 0 24 24" width="24" xmlns="http://www.w3.org/2000/svg"><path clip-rule="evenodd" d="m6.13783 4.80005c0-.55229.44772-1 1-1h10.26207c.5523 0 1 .44771 1 1 0 .55228-.4477 1-1 1h-10.26207c-.55228 0-1-.44772-1-1zm-4.73793 4.6c0-.55229.44772-1 1-1h19.2c.5523 0 1 .44771 1 1 0 .55228-.4477.99995-1 .99995h-19.2c-.55228 0-1-.44767-1-.99995zm3.27587 5.19995c0-.5522.44771-1 1-1h14.12413c.5523 0 1 .4478 1 1 0 .5523-.4477 1-1 1h-14.12413c-.55229 0-1-.4477-1-1zm-3.27587 5.2001c0-.5523.44772-1.0001 1-1.0001h19.2c.5523 0 1 .4478 1 1.0001 0 .5522-.4477.9999-1 .9999h-19.2c-.55228 0-1-.4477-1-.9999z" fill="currentColor" fill-rule="evenodd"/></svg>