<svg fill="none" height="24" viewBox="0 0 24 24" width="24" xmlns="http://www.w3.org/2000/svg"><path clip-rule="evenodd" d="m5.25 4c-.69036 0-1.25.55964-1.25 1.25v8.8043c0 .6904.55964 1.25 1.25 1.25h4.5c.3848 0 .7355.2209.9018.5679l1.3855 2.8914 1.5214-2.9212c.1723-.3307.5141-.5381.887-.5381h4.3043c.6904 0 1.25-.5596 1.25-1.25v-8.8043c0-.69036-.5596-1.25-1.25-1.25zm-3.25 1.25c0-1.79492 1.45507-3.25 3.25-3.25h13.5c1.7949 0 3.25 1.45507 3.25 3.25v8.8043c0 1.795-1.4551 3.25-3.25 3.25h-3.6977l-2.1654 4.1576c-.175.336-.5248.5443-.9036.538-.3787-.0064-.7214-.2262-.8851-.5678l-1.97791-4.1278h-3.87029c-1.79493 0-3.25-1.455-3.25-3.25zm10 .125c.5523 0 1 .44772 1 1v3.375c0 .5523-.4477 1-1 1s-1-.4477-1-1v-3.375c0-.55228.4477-1 1-1zm0 6.6654c.5523 0 1 .4477 1 1v.0846c0 .5523-.4477 1-1 1s-1-.4477-1-1v-.0846c0-.5523.4477-1 1-1z" fill="currentColor" fill-rule="evenodd"/></svg>