<svg fill="none" height="24" viewBox="0 0 24 24" width="24" xmlns="http://www.w3.org/2000/svg"><path clip-rule="evenodd" d="m5.25 4c-.69036 0-1.25.55964-1.25 1.25v8.8043c0 .6904.55964 1.25 1.25 1.25h4.5c.3848 0 .7355.2209.9018.5679l1.3855 2.8914 1.5214-2.9212c.1723-.3307.5141-.5381.887-.5381h4.3043c.6904 0 1.25-.5596 1.25-1.25v-8.8043c0-.69036-.5596-1.25-1.25-1.25zm-3.25 1.25c0-1.79492 1.45507-3.25 3.25-3.25h13.5c1.7949 0 3.25 1.45507 3.25 3.25v8.8043c0 1.795-1.4551 3.25-3.25 3.25h-3.6977l-2.1654 4.1576c-.175.336-.5248.5443-.9036.538-.3787-.0064-.7214-.2262-.8851-.5678l-1.97791-4.1278h-3.87029c-1.79493 0-3.25-1.455-3.25-3.25zm14.0821 1.54289c.3905.39053.3905 1.02369 0 1.41422l-3.9375 3.93749c-.3905.3905-1.0237.3905-1.4142 0l-1.68751-1.6875c-.39052-.3905-.39052-1.02368 0-1.41421.39053-.39052 1.02371-.39052 1.41421 0l.9804.98041 3.2304-3.23041c.3905-.39052 1.0237-.39052 1.4142 0z" fill="currentColor" fill-rule="evenodd"/></svg>