<svg fill="none" height="24" viewBox="0 0 24 24" width="24" xmlns="http://www.w3.org/2000/svg"><path clip-rule="evenodd" d="m3 12c0-4.94133 3.89212-9 8.7576-9 2.4344 0 4.6307 1.02073 6.2126 2.65673l1.3119-1.35288c.2835-.29237.716-.3836 1.0935-.23065.3774.15296.6244.51954.6244.9268v4c0 .55228-.4477 1-1 1h-3.8788c-.4017 0-.7643-.24033-.9209-.61022-.1566-.3699-.0766-.79757.203-1.08593l1.1738-1.21047c-1.2305-1.2971-2.9384-2.09338-4.8195-2.09338-3.70335 0-6.7576 3.10478-6.7576 7 0 3.8952 3.05425 7 6.7576 7 2.9731 0 5.5235-1.9958 6.4185-4.8037.1677-.5262.7302-.8168 1.2564-.6491s.8168.7303.6491 1.2565c-1.141 3.58-4.4216 6.1963-8.324 6.1963-4.86548 0-8.7576-4.0587-8.7576-9z" fill="currentColor" fill-rule="evenodd"/></svg>