<svg fill="none" height="24" viewBox="0 0 24 24" width="24" xmlns="http://www.w3.org/2000/svg"><path clip-rule="evenodd" d="m13.2065 4c0-.55228.4477-1 1-1h5.7935c.5523 0 1 .44772 1 1v5.79311c0 .55229-.4477.99999-1 .99999s-1-.4477-1-.99999v-3.37901l-5.052 5.0517c-.3905.3905-1.0237.3904-1.4142-.0001s-.3905-1.0237 0-1.4142l5.0519-5.0515h-3.3792c-.5523 0-1-.44772-1-1zm-1.7403 8.5343c.3905.3905.3905 1.0237 0 1.4142l-5.05187 5.0515h3.37916c.55231 0 1.00001.4477 1.00001 1s-.4477 1-1.00001 1h-5.79349c-.55228 0-1-.4477-1-1v-5.7931c0-.5523.44772-1 1-1s1 .4477 1 1v3.379l5.052-5.0517c.3905-.3905 1.0237-.3904 1.4142.0001z" fill="currentColor" fill-rule="evenodd"/></svg>