<svg fill="none" height="24" viewBox="0 0 24 24" width="24" xmlns="http://www.w3.org/2000/svg"><path clip-rule="evenodd" d="m17.6569 6.34315c-3.1242-3.1242-8.18956-3.1242-11.31375 0-3.1242 3.12419-3.1242 8.18955 0 11.31375 3.12419 3.1241 8.18955 3.1241 11.31375 0 3.1241-3.1242 3.1241-8.18956 0-11.31375zm-12.72797-1.41422c3.90525-3.90524 10.23687-3.90524 14.14217 0 3.9052 3.90525 3.9052 10.23687 0 14.14217-3.9053 3.9052-10.23692 3.9052-14.14217 0-3.90524-3.9053-3.90524-10.23692 0-14.14217zm7.07107 2.0936c.5523 0 1 .44771 1 1v5.81997l2.3373-1.9478c.4243-.3535 1.0548-.2962 1.4084.1281.3536.4242.2962 1.0548-.128 1.4084l-3.9775 3.3146c-.3709.309-.9096.309-1.2804 0l-3.97752-3.3146c-.42427-.3536-.4816-.9842-.12803-1.4084.35356-.4243.98413-.4816 1.4084-.1281l2.33735 1.9478v-5.81997c0-.55229.4477-1 1-1z" fill="currentColor" fill-rule="evenodd"/></svg>