<svg fill="none" height="24" viewBox="0 0 24 24" width="24" xmlns="http://www.w3.org/2000/svg"><path clip-rule="evenodd" d="m12 4c-4.41828 0-8 3.58172-8 8 0 4.4183 3.58172 8 8 8 4.4183 0 8-3.5817 8-8 0-4.41828-3.5817-8-8-8zm-10 8c0-5.52285 4.47715-10 10-10 5.5228 0 10 4.47715 10 10 0 5.5228-4.4772 10-10 10-5.52285 0-10-4.4772-10-10zm11.7042-4.94613c.4243.35357.4816.98413.1281 1.40841l-2.7811 3.33732 2.7811 3.3373c.3535.4243.2962 1.0549-.1281 1.4084-.4243.3536-1.0548.2963-1.4084-.128l-3.31457-3.9775c-.30904-.3709-.30904-.9095 0-1.2804l3.31457-3.97749c.3536-.42428.9841-.4816 1.4084-.12804z" fill="currentColor" fill-rule="evenodd"/></svg>