<svg fill="none" height="24" viewBox="0 0 24 24" width="24" xmlns="http://www.w3.org/2000/svg"><path clip-rule="evenodd" d="m3.19995 20.4c0 .5523.44772 1 1 1h6.28595c2.7615 0 5-2.2386 5-5v-10.38579l3.6069 3.60691c.3906.39048 1.0237.39048 1.4143 0 .3905-.39053.3905-1.02369 0-1.41422l-5.3141-5.31401c-.3905-.39052-1.0236-.39052-1.4142 0l-5.31398 5.31401c-.39052.39053-.39052 1.02369 0 1.41422.39053.39048 1.02369.39048 1.41422 0l3.60686-3.60691v10.38579c0 1.6568-1.3431 3-3 3h-6.28595c-.55228 0-1 .4477-1 1z" fill="currentColor" fill-rule="evenodd"/></svg>