<svg fill="none" height="24" viewBox="0 0 24 24" width="24" xmlns="http://www.w3.org/2000/svg"><path clip-rule="evenodd" d="m2 6.375c0-2.41624 1.95874-4.375 4.37498-4.375h11.25002c2.4163 0 4.375 1.95876 4.375 4.375v11.25c0 2.4162-1.9587 4.375-4.375 4.375h-11.25002c-2.41624 0-4.37498-1.9588-4.37498-4.375zm4.37498-2.375c-1.31166 0-2.37498 1.06332-2.37498 2.375v11.25c0 1.3117 1.06332 2.375 2.37498 2.375h11.25002c1.3117 0 2.375-1.0633 2.375-2.375v-11.25c0-1.31168-1.0633-2.375-2.375-2.375zm2.10537 4.51932c.39053-.39052 1.02369-.39052 1.41421.00001l4.38664 4.38667v-3.21082c0-.55228.4477-1 1-1s1 .44772 1 1v5.62502c0 .5523-.4477 1-1 1h-5.62499c-.55229 0-1-.4477-1-1s.44771-1 1-1h3.21079l-4.38665-4.38666c-.39053-.39053-.39053-1.02369 0-1.41422z" fill="currentColor" fill-rule="evenodd"/></svg>