<svg fill="none" height="24" viewBox="0 0 24 24" width="24" xmlns="http://www.w3.org/2000/svg"><path clip-rule="evenodd" d="m14.0144 4.15352c-2.3895-.48995-4.96689.19237-6.8177 2.04318-2.38974 2.38974-2.82967 5.9909-1.3198 8.8267l.65634-.6563c.286-.286.71612-.3716 1.08979-.2168.37368.1548.61732.5194.61732.9239v3.1875c0 .5522-.44772 1-1 1h-3.1875c-.40446 0-.7691-.2437-.92388-.6174-.15478-.3736-.06923-.8038.21677-1.0897l1.06656-1.0666c-2.2631-3.6625-1.80637-8.52896 1.37019-11.70551 2.34594-2.34595 5.61371-3.20743 8.63361-2.58821.541.11093.8897.63945.7788 1.18048-.111.54103-.6395.88969-1.1805.77876zm2.9469-.21329c.1876-.18753.4419-.29289.7071-.29289h3.1875c.4045 0 .7691.24364.9239.61732.1548.37367.0692.80379-.2167 1.08979l-1.0458 1.04576c2.3422 3.67529 1.9096 8.60799-1.2998 11.81729-2.4208 2.4209-5.8229 3.2609-8.922 2.5244-.53735-.1277-.86942-.6668-.74173-1.2041.12768-.5373.66683-.8694 1.20413-.7417 2.452.5827 5.1356-.083 7.0454-1.9928 2.4227-2.4227 2.8418-6.092 1.2558-8.94488l-.6835.68353c-.286.286-.7162.37155-1.0898.21677-.3737-.15478-.6174-.51942-.6174-.92388v-3.1875c0-.26522.1054-.51957.2929-.70711z" fill="currentColor" fill-rule="evenodd"/></svg>