<svg fill="none" height="24" viewBox="0 0 24 24" width="24" xmlns="http://www.w3.org/2000/svg"><path clip-rule="evenodd" d="m12 4c-4.41828 0-8 3.58172-8 8 0 4.4183 3.58172 8 8 8 4.4183 0 8-3.5817 8-8 0-4.41828-3.5817-8-8-8zm-10 8c0-5.52285 4.47715-10 10-10 5.5228 0 10 4.47715 10 10 0 5.5228-4.4772 10-10 10-5.52285 0-10-4.4772-10-10zm6.48037-3.51959c.39053-.39052 1.02369-.39052 1.41422 0l4.11531 4.11539.2755-3.03006c.05-.55002.5364-.95536 1.0864-.90536s.9554.53641.9054 1.08643l-.4688 5.15629c-.0437.4807-.4246.8616-.9053.9054l-5.15633.4687c-.55002.05-1.03643-.3553-1.08643-.9054-.05-.55.35534-1.0364.90536-1.0864l3.03-.2754-4.11533-4.11537c-.39052-.39053-.39052-1.02369 0-1.41422z" fill="currentColor" fill-rule="evenodd"/></svg>