<svg fill="none" height="24" viewBox="0 0 24 24" width="24" xmlns="http://www.w3.org/2000/svg"><path clip-rule="evenodd" d="m3.5999 3.2c-.55228 0-1 .44772-1 1v6.286c0 2.7614 2.23858 5 5.00001 5h10.38579l-3.6069 3.6069c-.3905.3905-.3905 1.0237 0 1.4142s1.0237.3905 1.4142 0l5.314-5.314c.3905-.3905.3905-1.0237 0-1.4142l-5.314-5.31403c-.3905-.39052-1.0237-.39052-1.4142 0-.3905.39053-.3905 1.02369 0 1.41422l3.6069 3.60691h-10.38579c-1.65686 0-3.00001-1.3432-3.00001-3v-6.286c0-.55228-.44771-1-1-1z" fill="currentColor" fill-rule="evenodd"/></svg>