<svg fill="none" height="24" viewBox="0 0 24 24" width="24" xmlns="http://www.w3.org/2000/svg"><path clip-rule="evenodd" d="m12 4c-4.41828 0-8 3.58172-8 8 0 4.4183 3.58172 8 8 8 4.4183 0 8-3.5817 8-8 0-4.41828-3.5817-8-8-8zm-10 8c0-5.52285 4.47715-10 10-10 5.5228 0 10 4.47715 10 10 0 5.5228-4.4772 10-10 10-5.52285 0-10-4.4772-10-10zm13.5196-3.51963c.3905.39053.3905 1.02369 0 1.41422l-4.1154 4.11531 3.0301.2755c.55.05.9553.5364.9053 1.0864s-.5364.9554-1.0864.9054l-5.1563-.4688c-.48075-.0437-.86165-.4246-.90535-.9053l-.46876-5.15633c-.05-.55002.35535-1.03643.90536-1.08643.55002-.05 1.03643.35534 1.08643.90536l.27546 3.03 4.11536-4.11533c.3905-.39052 1.0237-.39052 1.4142 0z" fill="currentColor" fill-rule="evenodd"/></svg>