<svg fill="none" height="24" viewBox="0 0 24 24" width="24" xmlns="http://www.w3.org/2000/svg"><path clip-rule="evenodd" d="m6.34319 6.34314c.39052-.39052 1.02369-.39052 1.41421 0l8.1924 8.19236-.0001-6.10773c0-.55229.4477-1.00001 1-1.00002.5522-.00001 1 .4477 1 .99999l.0001 8.52196c0 .2653-.1054.5196-.2929.7071-.1875.1876-.4419.2929-.7071.2929h-8.4008c-.55229 0-1-.4477-1-1 0-.5522.44771-1 1-1h5.9866l-8.19241-8.19234c-.39053-.39053-.39053-1.02369 0-1.41422z" fill="currentColor" fill-rule="evenodd"/></svg>