<svg fill="none" height="24" viewBox="0 0 24 24" width="24" xmlns="http://www.w3.org/2000/svg"><path clip-rule="evenodd" d="m4.00024 3.99999c0-.55228.44772-1 1-1h4c.26522 0 .51957.10536.70711.2929.18754.18753.29285.44189.29285.7071v4.00549c0 .55229-.44767 1-.99996 1-.55228 0-1-.44772-1-1v-1.24829c-1.81483 1.26795-3 3.37281-3 5.75451 0 2.9415 1.80884 5.4614 4.37566 6.5019.51184.2074.7586.7905.5511 1.3024-.20747.5118-.79058.7585-1.30241.5511-3.29685-1.3364-5.62435-4.573-5.62435-8.3554 0-3.13696 1.60149-5.89884 4.02732-7.51171h-2.02732c-.55228 0-1-.44771-1-1zm10.07326.6252c.2075-.51183.7906-.75857 1.3024-.5511 3.2968 1.33636 5.6243 4.573 5.6243 8.35541 0 3.1369-1.6014 5.8988-4.0273 7.5117h2.0273c.5523 0 1 .4477 1 1s-.4477 1-1 1h-4c-.5522 0-1-.4477-1-1v-4.0055c0-.5523.4478-1 1-1 .5523 0 1 .4477 1 1v1.2483c1.8149-1.268 3-3.3729 3-5.7545 0-2.94154-1.8088-5.46144-4.3756-6.50189-.5118-.20747-.7586-.79058-.5511-1.30242z" fill="currentColor" fill-rule="evenodd"/></svg>