<svg fill="none" height="24" viewBox="0 0 24 24" width="24" xmlns="http://www.w3.org/2000/svg"><path clip-rule="evenodd" d="m13.2064 4c0-.55228.4477-1 1-1h5.7931c.5523 0 1 .44772 1 1v5.79311c0 .55229-.4477.99999-1 .99999s-1-.4477-1-.99999v-3.3789l-4.086 4.08599c-.3905.3905-1.0237.3905-1.4142 0-.3906-.3905-.3906-1.02368 0-1.4142l4.086-4.086h-3.3789c-.5523 0-1-.44772-1-1zm-10.2064.00052c0-.55228.44772-1 1-1h5.79311c.55229 0 .99999.44772.99999 1 0 .55229-.4477 1-.99999 1h-3.3789l4.29289 4.2929c.3905.39052.3905 1.02368 0 1.41418-.3905.3906-1.02368.3906-1.41421 0l-4.29289-4.29286v3.37889c0 .55227-.44772.99997-1 .99997s-1-.4477-1-.99997zm7.7076 9.29238c.3906.3905.3906 1.0237 0 1.4142l-4.29286 4.2929h3.37889c.55227 0 .99997.4477.99997 1s-.4477 1-.99997 1h-5.79311c-.55228 0-1-.4477-1-1v-5.7931c0-.5523.44772-1 1-1 .55229 0 1 .4477 1 1v3.3789l4.2929-4.2929c.39052-.3905 1.02368-.3905 1.41418 0zm9.2924-.0865c.5523 0 1 .4477 1 1v5.7931c0 .5523-.4477 1-1 1h-5.7931c-.5523 0-1-.4477-1-1s.4477-1 1-1h3.3789l-4.086-4.086c-.3905-.3905-.3905-1.0237 0-1.4142.3905-.3906 1.0237-.3906 1.4142 0l4.086 4.086v-3.3789c0-.5523.4477-1 1-1z" fill="currentColor" fill-rule="evenodd"/></svg>