<svg fill="none" height="24" viewBox="0 0 24 24" width="24" xmlns="http://www.w3.org/2000/svg"><path clip-rule="evenodd" d="m20.8 3.6c0-.55228-.4477-1-1-1h-6.2859c-2.7615 0-5.00004 2.23858-5.00004 5.00001v10.38579l-3.60691-3.6069c-.39052-.3905-1.02368-.3905-1.41421 0-.39052.3905-.39052 1.0237 0 1.4142l5.31401 5.314c.39053.3905 1.02369.3905 1.41425 0l5.314-5.314c.3905-.3905.3905-1.0237 0-1.4142s-1.0237-.3905-1.4142 0l-3.6069 3.6069v-10.38579c0-1.65686 1.3431-3.00001 3-3.00001h6.2859c.5523 0 1-.44771 1-1z" fill="currentColor" fill-rule="evenodd"/></svg>