<svg fill="none" height="24" viewBox="0 0 24 24" width="24" xmlns="http://www.w3.org/2000/svg"><path clip-rule="evenodd" d="m20.4001 3.2c.5523 0 1 .44772 1 1v6.286c0 2.7614-2.2386 5-5 5h-10.38579l3.6069 3.6069c.39049.3905.39049 1.0237 0 1.4142-.39052.3905-1.02368.3905-1.41421 0l-5.31401-5.314c-.39052-.3905-.39052-1.0237 0-1.4142l5.31401-5.31403c.39053-.39052 1.02369-.39052 1.41421 0 .39049.39053.39049 1.02369 0 1.41422l-3.6069 3.60691h10.38579c1.6568 0 3-1.3432 3-3v-6.286c0-.55228.4477-1 1-1z" fill="currentColor" fill-rule="evenodd"/></svg>