<svg fill="none" height="24" viewBox="0 0 24 24" width="24" xmlns="http://www.w3.org/2000/svg"><path clip-rule="evenodd" d="m3.19995 3.6c0-.55228.44772-1 1-1h6.28595c2.7615 0 5 2.23858 5 5v10.3858l3.6069-3.6069c.3906-.3905 1.0237-.3905 1.4143 0 .3905.3905.3905 1.0237 0 1.4142l-5.3141 5.314c-.3905.3905-1.0236.3905-1.4142 0l-5.31398-5.314c-.39052-.3905-.39052-1.0237 0-1.4142.39053-.3905 1.02369-.3905 1.41422 0l3.60686 3.6069v-10.3858c0-1.65685-1.3431-3-3-3h-6.28595c-.55228 0-1-.44771-1-1z" fill="currentColor" fill-rule="evenodd"/></svg>