<svg fill="none" height="24" viewBox="0 0 24 24" width="24" xmlns="http://www.w3.org/2000/svg"><path clip-rule="evenodd" d="m20.8 20.4c0 .5523-.4477 1-1 1h-6.2859c-2.7615 0-5.00004-2.2386-5.00004-5v-10.38579l-3.6069 3.60691c-.39053.39048-1.02369.39048-1.41422 0-.39052-.39053-.39052-1.02369 0-1.41422l5.31401-5.31401c.39053-.39052 1.02369-.39052 1.41425 0l5.314 5.31401c.3905.39053.3905 1.02369 0 1.41422-.3905.39048-1.0237.39048-1.4142 0l-3.6069-3.60691v10.38579c0 1.6569 1.3431 3 3 3h6.2859c.5523 0 1 .4477 1 1z" fill="currentColor" fill-rule="evenodd"/></svg>