<svg fill="none" height="24" viewBox="0 0 24 24" width="24" xmlns="http://www.w3.org/2000/svg"><path clip-rule="evenodd" d="m17.6569 6.34315c-3.1242-3.1242-8.18956-3.1242-11.31375 0-3.1242 3.12419-3.1242 8.18955 0 11.31375 3.12419 3.1241 8.18955 3.1241 11.31375 0 3.1241-3.1242 3.1241-8.18956 0-11.31375zm-12.72797-1.41422c3.90525-3.90524 10.23687-3.90524 14.14217 0 3.9052 3.90525 3.9052 10.23687 0 14.14217-3.9053 3.9052-10.23692 3.9052-14.14217 0-3.90524-3.9053-3.90524-10.23692 0-14.14217zm7.04827 2.32537c.4243.35357.4816.98413.1281 1.40841l-1.9478 2.33729h5.82c.5523 0 1 .4477 1 1s-.4477 1-1 1h-5.82l1.9478 2.3373c.3535.4243.2962 1.0549-.1281 1.4085-.4242.3535-1.0548.2962-1.4084-.1281l-3.31455-3.9775c-.30904-.3708-.30904-.9095 0-1.2804l3.31455-3.97746c.3536-.42428.9842-.4816 1.4084-.12804z" fill="currentColor" fill-rule="evenodd"/></svg>