<svg fill="none" height="24" viewBox="0 0 24 24" width="24" xmlns="http://www.w3.org/2000/svg"><path clip-rule="evenodd" d="m6.37498 4c-1.31166 0-2.37498 1.06332-2.37498 2.37498v11.25002c0 1.3117 1.06332 2.375 2.37498 2.375h11.24992c1.3117 0 2.375-1.0633 2.375-2.375v-11.25002c0-1.31166-1.0633-2.37498-2.375-2.37498zm-4.37498 2.37498c0-2.41623 1.95875-4.37498 4.37498-4.37498h11.24992c2.4162 0 4.375 1.95875 4.375 4.37498v11.25002c0 2.4163-1.9588 4.375-4.375 4.375h-11.24992c-2.41623 0-4.37498-1.9587-4.37498-4.375zm10.0739.93136c.3956.38545.4038 1.01856.0183 1.41409l-2.22143 2.27957h6.14563c.5523 0 1 .4477 1 1s-.4477 1-1 1h-6.14563l2.22143 2.2796c.3855.3955.3773 1.0286-.0183 1.4141-.3955.3854-1.0286.3772-1.4141-.0183l-3.87601-3.9775c-.37842-.3883-.37842-1.0075 0-1.3958l3.87611-3.9775c.3854-.39553 1.0185-.40371 1.414-.01826z" fill="currentColor" fill-rule="evenodd"/></svg>