<svg fill="none" height="24" viewBox="0 0 24 24" width="24" xmlns="http://www.w3.org/2000/svg"><path clip-rule="evenodd" d="m13.5162.079463c.3694.156775.6093.51922.6093.920537v1.52531c4.4798.94114 7.8745 4.80373 7.8745 9.47459 0 3.5102-1.9226 6.57-4.7751 8.2674-.4746.2824-1.0883.1266-1.3707-.348-.2824-.4747-.1266-1.0883.348-1.3708 2.2914-1.3635 3.7978-3.7943 3.7978-6.5486 0-3.51934-2.4687-6.52089-5.8745-7.42011v1.03106c0 .40132-.2399.76376-.6093.92054-.3695.15677-.7968.07751-1.0855-.20133l-2.3865-2.30542c-.19502-.18843-.30518-.44801-.30518-.71921 0-.27121.11016-.53079.30518-.71922l2.3865-2.305424c.2887-.27883136.716-.3580984 1.0855-.201323zm-5.62245 4.120427c.29682.46575.15987 1.08393-.30588 1.38074-2.1732 1.38495-3.58787 3.74985-3.58787 6.41927 0 3.4715 2.40478 6.4415 5.73807 7.3833v-.994c0-.4014.23992-.7638.60933-.9206.3695-.1568.7968-.0775 1.0855.2013l2.3864 2.3055c.1951.1884.3053.448.3053.7192s-.1102.5308-.3053.7192l-2.3864 2.3054c-.2887.2788-.716.3581-1.0855.2013-.36941-.1567-.60933-.5192-.60933-.9205v-1.5555c-4.41424-.9912-7.73807-4.8205-7.73807-9.4446 0-3.4013 1.80572-6.38057 4.51301-8.10589.46575-.29681 1.08393-.15986 1.38074.30588z" fill="currentColor" fill-rule="evenodd"/></svg>