<svg fill="none" height="24" viewBox="0 0 24 24" width="24" xmlns="http://www.w3.org/2000/svg"><path clip-rule="evenodd" d="m2 6.375c0-2.41625 1.95876-4.375 4.375-4.375h11.2501c2.4163 0 4.375 1.95876 4.375 4.375v11.25c0 2.4162-1.9588 4.375-4.375 4.375h-11.2501c-2.41625 0-4.375-1.9588-4.375-4.375zm4.375-2.375c-1.31168 0-2.375 1.06332-2.375 2.375v11.25c0 1.3117 1.06332 2.375 2.375 2.375h11.2501c1.3117 0 2.375-1.0633 2.375-2.375v-11.25c0-1.31168-1.0633-2.375-2.375-2.375zm4.9271 2.78382c.3884-.37843 1.0075-.37843 1.3959 0l3.9775 3.87608c.3955.3854.4037 1.0186.0182 1.4141-.3854.3955-1.0185.4037-1.4141.0183l-2.2795-2.2215v6.1457c0 .5523-.4478 1-1 1-.5523 0-1-.4477-1-1v-6.1457l-2.27963 2.2215c-.39554.3854-1.02865.3772-1.4141-.0183s-.37727-1.0287.01826-1.4141z" fill="currentColor" fill-rule="evenodd"/></svg>