<svg fill="none" height="24" viewBox="0 0 24 24" width="24" xmlns="http://www.w3.org/2000/svg"><path clip-rule="evenodd" d="m7.08211 2.29289c.39052.39053.39052 1.02369 0 1.41422l-1.6679 1.66789h15.58579c.5523 0 1 .44772 1 1s-.4477 1-1 1h-15.58579l1.6679 1.66789c.39052.39053.39052 1.02371 0 1.41421-.39053.3905-1.02369.3905-1.41422 0l-3.375-3.37499c-.39052-.39053-.39052-1.02369 0-1.41422l3.375-3.375c.39053-.39052 1.02369-.39052 1.41422 0zm9.83579 11.25001c.3905-.3905 1.0237-.3905 1.4142 0l3.375 3.375c.3905.3905.3905 1.0237 0 1.4142l-3.375 3.375c-.3905.3905-1.0237.3905-1.4142 0s-.3905-1.0237 0-1.4142l1.6679-1.6679h-15.5858c-.55228 0-1-.4477-1-1s.44772-1 1-1h15.5858l-1.6679-1.6679c-.3905-.3905-.3905-1.0237 0-1.4142z" fill="currentColor" fill-rule="evenodd"/></svg>