<svg fill="none" height="24" viewBox="0 0 24 24" width="24" xmlns="http://www.w3.org/2000/svg"><path clip-rule="evenodd" d="m12 4c-4.41828 0-8 3.58172-8 8 0 4.4183 3.58172 8 8 8 4.4183 0 8-3.5817 8-8 0-4.41828-3.5817-8-8-8zm-10 8c0-5.52285 4.47715-10 10-10 5.5228 0 10 4.47715 10 10 0 5.5228-4.4772 10-10 10-5.52285 0-10-4.4772-10-10zm8.2343-4.94522c.4242-.35357 1.0548-.29624 1.4084.12803l3.3145 3.97749c.3091.3709.3091.9095 0 1.2804l-3.3145 3.9775c-.3536.4243-.9842.4816-1.4084.128-.42432-.3535-.48165-.9841-.1281-1.4084l2.7811-3.3373-2.7811-3.33732c-.35355-.42427-.29622-1.05484.1281-1.4084z" fill="currentColor" fill-rule="evenodd"/></svg>