<svg fill="none" height="24" viewBox="0 0 24 24" width="24" xmlns="http://www.w3.org/2000/svg"><path clip-rule="evenodd" d="m12 4c-4.41828 0-8 3.58172-8 8 0 4.4183 3.58172 8 8 8 4.4183 0 8-3.5817 8-8 0-4.41828-3.5817-8-8-8zm-10 8c0-5.52285 4.47715-10 10-10 5.5228 0 10 4.47715 10 10 0 5.5228-4.4772 10-10 10-5.52285 0-10-4.4772-10-10zm5.45377-1.7657c.35357-.42432.98413-.48165 1.40841-.1281l3.33732 2.7811 3.3373-2.7811c.4243-.35355 1.0549-.29622 1.4084.1281.3536.4242.2963 1.0548-.128 1.4084l-3.9775 3.3145c-.3709.3091-.9095.3091-1.2804 0l-3.97749-3.3145c-.42428-.3536-.4816-.9842-.12804-1.4084z" fill="currentColor" fill-rule="evenodd"/></svg>