<svg fill="none" height="24" viewBox="0 0 24 24" width="24" xmlns="http://www.w3.org/2000/svg"><path clip-rule="evenodd" d="m2 6.37498c0-2.41623 1.95875-4.37498 4.37498-4.37498h11.24992c2.4163 0 4.375 1.95875 4.375 4.37498v11.25002c0 2.4163-1.9588 4.375-4.375 4.375h-11.24992c-2.41623 0-4.37498-1.9587-4.37498-4.375zm4.37498-2.37498c-1.31166 0-2.37498 1.06331-2.37498 2.37498v11.25002c0 1.3117 1.06331 2.375 2.37498 2.375h11.24992c1.3117 0 2.375-1.0633 2.375-2.375v-11.25002c0-1.31166-1.0633-2.37498-2.375-2.37498zm5.55102 3.30634c.3955-.38545 1.0286-.37727 1.414.01826l3.8761 3.9775c.3784.3883.3784 1.0075 0 1.3958l-3.8761 3.9775c-.3854.3955-1.0185.4037-1.4141.0183-.3955-.3855-.4037-1.0186-.0182-1.4141l2.2214-2.2796h-6.14563c-.55228 0-1-.4477-1-1s.44772-1 1-1h6.14563l-2.2214-2.27956c-.3855-.39554-.3773-1.02865.0183-1.4141z" fill="currentColor" fill-rule="evenodd"/></svg>