<svg fill="none" height="24" viewBox="0 0 24 24" width="24" xmlns="http://www.w3.org/2000/svg"><path clip-rule="evenodd" d="m5.02829 3.40447c-.69749-.03461-1.07876.1351-1.28374.34008s-.37469.58625-.34008 1.28374c.0346.69757.27299 1.59786.74416 2.65392.36862.82623.866 1.71729 1.48002 2.64079.67723-.82819 1.42416-1.65468 2.23198-2.4625.80777-.80777 1.63421-1.55467 2.46237-2.23186-.92351-.61401-1.81457-1.11139-2.64079-1.48001-1.05606-.47117-1.95635-.70956-2.65392-.74416zm6.97191.94865c-1.2066-.84903-2.39215-1.5353-3.50311-2.03095-1.187-.52959-2.33889-.86411-3.36969-.91525-1.03089-.05114-2.05419.18055-2.79706.92342s-.97456 1.76617-.92342 2.79706c.05114 1.0308.38566 2.18269.91525 3.36969.49565 1.11097 1.18193 2.29651 2.03097 3.50311-.84895 1.2065-1.53516 2.3919-2.03078 3.5028-.52959 1.187-.8641 2.3389-.91524 3.3697-.05115 1.0309.18054 2.0542.92341 2.7971.74287.7428 1.76618.9745 2.79706.9234 1.0308-.0512 2.1827-.3857 3.3697-.9153 1.11089-.4956 2.29631-1.1818 3.50291-2.0308 1.2064.849 2.3919 1.5352 3.5028 2.0308 1.187.5296 2.3388.8641 3.3697.9152 1.0308.0512 2.0541-.1805 2.797-.9234s.9746-1.7662.9234-2.797c-.0511-1.0309-.3856-2.1827-.9152-3.3697-.4956-1.1109-1.1818-2.2963-2.0308-3.5028.8491-1.2066 1.5353-2.39211 2.031-3.50305.5296-1.187.8641-2.33889.9152-3.3697.0512-1.03088-.1805-2.05418-.9234-2.79705-.7429-.74288-1.7662-.97457-2.7971-.92342-1.0308.05114-2.1827.38566-3.3697.91524-1.1109.49565-2.2964 1.18189-3.5029 2.0309zm0 2.49379c-.9059.71339-1.8237 1.52615-2.72535 2.4278-.9017.90169-1.71451 1.81959-2.42793 2.72549.71338.9058 1.52611 1.8236 2.42773 2.7252.90175.9017 1.81955 1.7145 2.72555 2.4279.9059-.7134 1.8237-1.5262 2.7254-2.4278.9016-.9017 1.7144-1.8195 2.4278-2.7253-.7135-.906-1.5263-1.8238-2.428-2.72555-.9016-.90162-1.8194-1.71436-2.7252-2.42774zm6.3714 3.47609c-.6772-.82821-1.4242-1.65472-2.232-2.46256-.8077-.80775-1.6341-1.55462-2.4623-2.23179.9235-.61399 1.8145-1.11135 2.6407-1.47997 1.0561-.47116 1.9564-.70955 2.6539-.74416.6975-.0346 1.0788.13511 1.2838.34009s.3747.58625.3401 1.28374c-.0346.69757-.273 1.59785-.7442 2.65392-.3686.82621-.866 1.71725-1.48 2.64073zm0 3.3544c-.6772.8281-1.424 1.6545-2.2318 2.4623s-1.6343 1.5547-2.4624 2.2319c.9233.6139 1.8143 1.1112 2.6404 1.4798 1.0561.4712 1.9564.7096 2.654.7442.6974.0346 1.0787-.1351 1.2837-.3401s.3747-.5863.3401-1.2837c-.0346-.6976-.273-1.5979-.7442-2.654-.3686-.8261-.8659-1.717-1.4798-2.6404zm-8.0486 4.6942c-.82824-.6772-1.65473-1.4242-2.46256-2.232-.80774-.8077-1.5546-1.6341-2.23177-2.4622-.61394.9234-1.11126 1.8143-1.47985 2.6405-.47117 1.0561-.70955 1.9563-.74416 2.6539-.03461.6975.1351 1.0788.34008 1.2838.20499.2049.58625.3746 1.28374.34.69757-.0346 1.59786-.273 2.65392-.7441.82616-.3686 1.71715-.8659 2.6406-1.4799zm1.6768-7.3716c.5523 0 1 .4477 1 1v.0902c0 .5523-.4477 1-1 1s-1-.4477-1-1v-.0902c0-.5523.4477-1 1-1z" fill="currentColor" fill-rule="evenodd"/></svg>