<svg fill="none" height="24" viewBox="0 0 24 24" width="24" xmlns="http://www.w3.org/2000/svg"><path clip-rule="evenodd" d="m6.12606 3.4001c1.49796 0 2.72613 1.22647 2.72613 2.75652 0 1.53006-1.22817 2.75652-2.72614 2.75652s-2.72615-1.22646-2.72615-2.75652c0-1.53005 1.22818-2.75652 2.72615-2.75652zm3.85184 5.51302c.5508-.77857.8743-1.73056.8743-2.7565 0-1.02596-.3235-1.97797-.87434-2.75654l7.74064-.00006c1.498 0 2.7261 1.22647 2.7261 2.75653 0 1.53005-1.2281 2.75652-2.7261 2.75652zm-3.85185 1.99998h11.59245c2.6178 0 4.7261-2.13727 4.7261-4.75655 0-2.61929-2.1083-4.75653-4.7261-4.75653l-11.59246.00008c-2.61781 0-4.72614 2.13724-4.72614 4.75652 0 2.61929 2.10833 4.75648 4.72615 4.75648zm0 4.1739c-1.49797 0-2.72615 1.2264-2.72615 2.7565s1.22818 2.7565 2.72615 2.7565h7.89585c-.5508-.7785-.8743-1.7305-.8743-2.7565s.3235-1.9779.8743-2.7565zm11.74775-2h-11.74775c-2.61782 0-4.72615 2.1372-4.72615 4.7565s2.10833 4.7565 4.72615 4.7565h11.74775c2.6178 0 4.7261-2.1372 4.7261-4.7565s-2.1083-4.7565-4.7261-4.7565zm0 7.513c1.4979 0 2.7261-1.2264 2.7261-2.7565s-1.2282-2.7565-2.7261-2.7565c-1.498 0-2.7262 1.2264-2.7262 2.7565s1.2282 2.7565 2.7262 2.7565z" fill="currentColor" fill-rule="evenodd"/></svg>