<svg fill="none" height="24" viewBox="0 0 24 24" width="24" xmlns="http://www.w3.org/2000/svg"><path clip-rule="evenodd" d="m16.7999 1.40002c.5523 0 1 .44772 1 1v1.4h3.8c.5523 0 1 .44772 1 1.00001 0 .55228-.4477.99999-1 .99999h-3.8v1.4c0 .55229-.4477 1-1 1s-1-.44771-1-1v-4.8c0-.55228.4477-1 1-1zm-15.4 3.4c0-.55228.44772-1 1-1h9.6c.5523 0 1 .44772 1 1 0 .55229-.4477 1-1 1h-9.6c-.55228 0-1-.44771-1-1zm10.6 3.8c.5523 0 1 .44772 1 1v4.79998c0 .5523-.4477 1-1 1s-1-.4477-1-1v-1.4h-8.6c-.55228 0-1-.4477-1-1s.44772-1 1-1h8.6v-1.39998c0-.55228.4477-1 1-1zm3.8 3.39998c0-.5523.4477-1 1-1h4.8c.5523 0 1 .4477 1 1s-.4477 1-1 1h-4.8c-.5523 0-1-.4477-1-1zm-8 3.8c.55229 0 1 .4477 1 1v4.8c0 .5523-.44771 1-1 1-.55228 0-1-.4477-1-1v-1.4h-4.4c-.55228 0-1-.4477-1-1s.44772-1 1-1h4.4v-1.4c0-.5523.44772-1 1-1zm3.2 3.4c0-.5523.4477-1 1-1h9.6c.5523 0 1 .4477 1 1s-.4477 1-1 1h-9.6c-.5523 0-1-.4477-1-1z" fill="currentColor" fill-rule="evenodd"/></svg>