<svg fill="none" height="24" viewBox="0 0 24 24" width="24" xmlns="http://www.w3.org/2000/svg"><path clip-rule="evenodd" d="m13.0321 5.02961c-.5549-.60532-1.5092-.60532-2.0641 0l-3.29517 3.59475h8.65437zm6.0083 3.59475-4.534-4.9462c-1.3476-1.47005-3.6651-1.47005-5.01269 0l-4.53401 4.9462h-1.19363c-1.3527 0-2.31526 1.31488-1.9065 2.60434l2.78954 8.8c.26342.831 1.03475 1.3957 1.9065 1.3957h10.95489c.8761 0 1.6503-.5703 1.91-1.407l2.7321-8.8c.3996-1.28716-.5624-2.59304-1.9101-2.59304zm1.2021 2.00004h-16.47643l2.78954 8.8h10.95489z" fill="currentColor" fill-rule="evenodd"/></svg>