<svg fill="none" height="24" viewBox="0 0 24 24" width="24" xmlns="http://www.w3.org/2000/svg"><path clip-rule="evenodd" d="m7.09671 3.10001c-.05304 0-.10391.02107-.14142.05857l-2.14112 2.14113 14.37153.0002-2.1416-2.14126c-.0375-.03751-.0885-.05864-.1415-.05864zm13.50359 4.19992-17.20064-.00024v12.31631c0 .6915.57647 1.284 1.32727 1.284h14.54547c.7508 0 1.3273-.5925 1.3273-1.284zm-15.05922-5.55556c.41258-.41258.97216-.64436 1.55563-.64436h9.80589c.5834 0 1.143.23176 1.5556.6443l3.8491 3.84846c.1876.18756.293.44196.293.70722l-.0006 13.31601c-.0001 1.8313-1.5075 3.284-3.3273 3.284h-14.54547c-1.81983 0-3.32727-1.4527-3.32727-3.284v-13.31599c0-.26522.10536-.51957.29289-.70711zm2.85858 7.15564c.55228 0 1 .44771 1 1 0 1.43589 1.16404 2.59999 2.60004 2.59999 1.4359 0 2.6-1.1641 2.6-2.59999 0-.55229.4477-1 1-1 .5522 0 1 .44771 1 1 0 2.54049-2.0595 4.59999-4.6 4.59999-2.54055 0-4.60004-2.0595-4.60004-4.59999 0-.55229.44771-1 1-1z" fill="currentColor" fill-rule="evenodd"/></svg>