<svg fill="none" height="24" viewBox="0 0 24 24" width="24" xmlns="http://www.w3.org/2000/svg"><path clip-rule="evenodd" d="m2.87868 4.87868c.56261-.56261 1.32567-.87868 2.12132-.87868h10c.7956 0 1.5587.31607 2.1213.87868s.8787 1.32567.8787 2.12132v1h1c1.6569 0 3 1.34315 3 3v6c0 1.6569-1.3431 3-3 3h-10c-1.65685 0-3-1.3431-3-3v-1h-1c-.79565 0-1.55871-.3161-2.12132-.8787s-.87868-1.3257-.87868-2.1213v-6c0-.79565.31607-1.55871.87868-2.12132zm5.12132 12.12132c0 .5523.44772 1 1 1h10c.5523 0 1-.4477 1-1v-6c0-.5523-.4477-1-1-1h-10c-.55228 0-1 .4477-1 1zm-2-3h-1c-.26522 0-.51957-.1054-.70711-.2929-.18753-.1875-.29289-.4419-.29289-.7071v-6c0-.26522.10536-.51957.29289-.70711.18754-.18753.44189-.29289.70711-.29289h10c.2652 0 .5196.10536.7071.29289.1875.18754.2929.44189.2929.70711v1h-7c-1.65685 0-3 1.34315-3 3zm8-1c-.5523 0-1 .4477-1 1s.4477 1 1 1 1-.4477 1-1-.4477-1-1-1zm-3 1c0-1.6569 1.3431-3 3-3s3 1.3431 3 3-1.3431 3-3 3-3-1.3431-3-3z" fill="currentColor" fill-rule="evenodd"/></svg>