<svg fill="none" height="24" viewBox="0 0 24 24" width="24" xmlns="http://www.w3.org/2000/svg"><path clip-rule="evenodd" d="m1.3999 7.8c0-1.5464 1.2536-2.8 2.8-2.8h15.6c1.5464 0 2.8 1.2536 2.8 2.8v8.4c0 1.5464-1.2536 2.8-2.8 2.8h-15.6c-1.5464 0-2.8-1.2536-2.8-2.8zm2.8-.8c-.44183 0-.8.35817-.8.8v8.4c0 .4418.35817.8.8.8h15.6c.4418 0 .8-.3582.8-.8v-8.4c0-.44183-.3582-.8-.8-.8zm7.8 3.6c-.7732 0-1.4.6268-1.4 1.4s.6268 1.4 1.4 1.4 1.4-.6268 1.4-1.4-.6268-1.4-1.4-1.4zm-3.4 1.4c0-1.8778 1.5222-3.4 3.4-3.4s3.4 1.5222 3.4 3.4-1.5222 3.4-3.4 3.4-3.4-1.5222-3.4-3.4zm10.1069-.7309c.3905.3905.3905 1.0237 0 1.4142l-.0235.0235c-.3905.3905-1.0237.3905-1.4142 0s-.3906-1.0236 0-1.4142l.0234-.0235c.3906-.3905 1.0237-.3905 1.4143 0zm-11.97654 0c.39053.3906.39055 1.0237.00003 1.4143l-.02349.0235c-.39052.3905-1.02368.3905-1.41422 0-.39053-.3905-.39055-1.0237-.00003-1.4142l.02349-.0235c.39052-.3906 1.02368-.3906 1.41422-.0001z" fill="currentColor" fill-rule="evenodd"/></svg>