<svg fill="none" height="24" viewBox="0 0 24 24" width="24" xmlns="http://www.w3.org/2000/svg"><path clip-rule="evenodd" d="m11.1849 1.49271c.257-.11914.5525-.12365.8131-.01242l9.9945 4.26667c.3684.15726.6074.51916.6074.9197v2.13333c0 .55229-.4477 1-1 1h-19.2c-.55228 0-1-.44771-1-1v-2.13333c0-.38947.22612-.7435.57948-.90728zm.4372 2.00173-8.2222 3.81092v.49463h17.2v-.47292zm-7.6222 7.83686c.55229 0 1 .4477 1 1v2.6687c0 .5523-.44771 1-1 1-.55228 0-1-.4477-1-1v-2.6687c0-.5523.44772-1 1-1zm5.33333 0c.55229 0 .99997.4477.99997 1v2.6687c0 .5523-.44768 1-.99997 1-.55228 0-1-.4477-1-1v-2.6687c0-.5523.44772-1 1-1zm5.33337 0c.5523 0 1 .4477 1 1v2.6687c0 .5523-.4477 1-1 1s-1-.4477-1-1v-2.6687c0-.5523.4477-1 1-1zm5.3333 0c.5523 0 1 .4477 1 1v2.6687c0 .5523-.4477 1-1 1s-1-.4477-1-1v-2.6687c0-.5523.4477-1 1-1zm-18.6 7.0687c0-.5523.44772-1 1-1h19.2c.5523 0 1 .4477 1 1v3.2c0 .5523-.4477 1-1 1h-19.2c-.55228 0-1-.4477-1-1zm2 1v1.2h17.2v-1.2z" fill="currentColor" fill-rule="evenodd"/></svg>