<svg fill="none" height="24" viewBox="0 0 24 24" width="24" xmlns="http://www.w3.org/2000/svg"><path clip-rule="evenodd" d="m15.9435 3.91199c0-1.10457-.8954-2-2-2h-4.05822c-1.10457 0-2 .89543-2 2v10.17601h-3.88528c-1.10457 0-2 .8954-2 2v4c0 1.1046.89543 2 2 2h16c1.1046 0 2-.8954 2-2v-9.32c0-1.10458-.8954-2.00001-2-2.00001h-4.0565zm0 6.85601h4.0565v9.32h-4.0565zm-2.0001 9.32-.0015-9.3197c0-.0273.0005-.0545.0016-.0816v-6.77471h-4.05822v16.17601zm-6.05812 0h-3.88528v-4h3.88528z" fill="currentColor" fill-rule="evenodd"/></svg>