<svg fill="none" height="24" viewBox="0 0 24 24" width="24" xmlns="http://www.w3.org/2000/svg"><path clip-rule="evenodd" d="m4.79995 3.80005c-.55229 0-1 .44771-1 1v14.40005c0 .5522.44771 1 1 1 .55228 0 1-.4478 1-1v-14.40005c0-.55229-.44772-1-1-1zm7.20005 6c-.5523 0-1 .44775-1 .99995v8.4001c0 .5522.4477 1 1 1 .5522 0 1-.4478 1-1v-8.4001c0-.5522-.4478-.99995-1-.99995zm7.2 6.00005c-.5523 0-1 .4477-1 1v2.4c0 .5522.4477 1 1 1 .5522 0 1-.4478 1-1v-2.4c0-.5523-.4478-1-1-1z" fill="currentColor" fill-rule="evenodd"/></svg>