<svg fill="none" height="24" viewBox="0 0 24 24" width="24" xmlns="http://www.w3.org/2000/svg"><path clip-rule="evenodd" d="m4.4 3.00012c-.7732 0-1.4.6268-1.4 1.4v14.39998c0 .7732.6268 1.4 1.4 1.4h14.4c.7732 0 1.4-.6268 1.4-1.4v-14.39998c0-.7732-.6268-1.4-1.4-1.4zm-3.4 1.4c0-1.87777 1.52223-3.4 3.4-3.4h14.4c1.8778 0 3.4 1.52223 3.4 3.4v14.39998c0 1.8778-1.5222 3.4-3.4 3.4h-14.4c-1.87777 0-3.4-1.5222-3.4-3.4zm17.0077 4.09309c.3905.39052.3905 1.02369 0 1.41421l-3.6 3.59998c-.3905.3905-1.0237.3905-1.4142 0l-2.2929-2.2929-3.49291 3.4929c-.39052.3905-1.02369.3905-1.41421 0-.39053-.3905-.39053-1.0237 0-1.4142l4.2-4.19999c.39052-.39052 1.02372-.39052 1.41422 0l2.2929 2.29289 2.8929-2.89289c.3905-.39052 1.0237-.39052 1.4142 0z" fill="currentColor" fill-rule="evenodd"/></svg>