<svg fill="none" height="24" viewBox="0 0 24 24" width="24" xmlns="http://www.w3.org/2000/svg"><path clip-rule="evenodd" d="m.800049 8.4c0-1.87777 1.522231-3.4 3.400001-3.4h11.99995c1.8778 0 3.4 1.52223 3.4 3.4v7.2c0 1.8778-1.5222 3.4-3.4 3.4h-11.99995c-1.87777 0-3.400001-1.5222-3.400001-3.4zm3.400001-1.4c-.7732 0-1.4.6268-1.4 1.4v7.2c0 .7732.6268 1.4 1.4 1.4h11.99995c.7732 0 1.4-.6268 1.4-1.4v-7.2c0-.7732-.6268-1.4-1.4-1.4zm7.30715 1.29289c.3905.39053.3905 1.02369 0 1.41422l-1.2929 1.29289h2.9857c.4045 0 .7691.2436.9239.6173s.0693.8038-.2167 1.0898l-3 3c-.3906.3905-1.02373.3905-1.41426 0-.39052-.3905-.39052-1.0237 0-1.4142l1.29286-1.2929h-2.98575c-.40446 0-.7691-.2436-.92388-.6173s-.06923-.8038.21677-1.0898l2.99996-3.00001c.3906-.39052 1.0237-.39052 1.4143 0zm10.6929.90711c.5522 0 1 .44772 1 1v3.6c0 .5523-.4478 1-1 1-.5523 0-1-.4477-1-1v-3.6c0-.55228.4477-1 1-1z" fill="currentColor" fill-rule="evenodd"/></svg>