<svg fill="none" height="24" viewBox="0 0 24 24" width="24" xmlns="http://www.w3.org/2000/svg"><path clip-rule="evenodd" d="m.800049 8.4c0-1.87777 1.522231-3.4 3.400001-3.4h11.99995c1.8778 0 3.4 1.52223 3.4 3.4v7.2c0 1.8778-1.5222 3.4-3.4 3.4h-11.99995c-1.87777 0-3.400001-1.5222-3.400001-3.4zm3.400001-1.4c-.7732 0-1.4.6268-1.4 1.4v7.2c0 .7732.6268 1.4 1.4 1.4h11.99995c.7732 0 1.4-.6268 1.4-1.4v-7.2c0-.7732-.6268-1.4-1.4-1.4zm1.2 2.2c.55228 0 1 .44772 1 1v3.6c0 .5523-.44772 1-1 1-.55229 0-1-.4477-1-1v-3.6c0-.55228.44771-1 1-1zm4.79995 0c.5523 0 1 .44772 1 1v3.6c0 .5523-.4477 1-1 1-.55224 0-.99995-.4477-.99995-1v-3.6c0-.55228.44771-1 .99995-1zm4.8 0c.5523 0 1 .44772 1 1v3.6c0 .5523-.4477 1-1 1-.5522 0-1-.4477-1-1v-3.6c0-.55228.4478-1 1-1zm7.2001 0c.5522 0 1 .44772 1 1v3.6c0 .5523-.4478 1-1 1-.5523 0-1-.4477-1-1v-3.6c0-.55228.4477-1 1-1z" fill="currentColor" fill-rule="evenodd"/></svg>