<svg fill="none" height="24" viewBox="0 0 24 24" width="24" xmlns="http://www.w3.org/2000/svg"><path clip-rule="evenodd" d="m12 4c-3.0403 0-5.70708 2.8279-5.70708 6.5814v.0108h-.00006l-.02435 2.2484c-.00116 1.5226-.47378 2.8168-1.02596 3.7844h13.52195c-.53-.9693-.9831-2.2659-.9831-3.79v-.0114l.0244-2.1361c-.0026-3.81238-2.7125-6.6875-5.8058-6.6875zm-7.70708 6.5758c.00268-4.61826 3.34066-8.5758 7.70708-8.5758 4.4227 0 7.8058 4.01072 7.8058 8.6931v.0114h-.0001l-.0243 2.136c.0013 1.3274.47 2.4384.9598 3.1983l-.7812.5035.7812-.5035c.3366.5224.3007 1.1313.1397 1.559-.1525.405-.5852 1.0272-1.3876 1.0272h-14.98571c-.81523 0-1.24599-.6405-1.39408-1.0459-.15712-.4302-.19065-1.0496.16203-1.5744l.82999.5577-.82998-.5577c.51132-.7609.99296-1.8613.99296-3.1697v-.0108h.00006zm4.04037 10.4242c0-.5523.44772-1 1-1h5.33331c.5523 0 1 .4477 1 1s-.4477 1-1 1h-5.33331c-.55228 0-1-.4477-1-1z" fill="currentColor" fill-rule="evenodd"/></svg>