<svg fill="none" height="24" viewBox="0 0 24 24" width="24" xmlns="http://www.w3.org/2000/svg"><path clip-rule="evenodd" d="m12 3c-.6384 0-1.1333.50729-1.1333 1.10526 0 .59798.4949 1.10527 1.1333 1.10527.6385 0 1.1334-.50729 1.1334-1.10527 0-.59797-.4949-1.10526-1.1334-1.10526zm2.698 2.6861c.2763-.46182.4354-1.00168.4354-1.58084 0-1.72743-1.4154-3.10526-3.1334-3.10526-1.7179 0-3.13331 1.37783-3.13331 3.10526 0 .58141.16033 1.12322.43857 1.58621-2.92233 1.08298-5.00957 3.87661-5.01228 7.16303l-.02433 1.9709-.00008.0123c0 1.0812-.45437 2.0057-.95679 2.6615-.39811.5197-.36203 1.1512-.18207 1.5834.18106.4349.63959.9568 1.37794.9568h3.42542c.47607 1.743 2.16773 2.9606 4.06693 2.9606s3.5909-1.2176 4.067-2.9606h3.4264c.7261 0 1.185-.506 1.3706-.9384.1842-.4292.2239-1.0508-.1574-1.5698-.48-.6533-.9235-1.5872-.9252-2.6873l.0244-1.8721.0001-.013c0-3.34292-2.1297-6.18354-5.1079-7.2727zm3.9575 12.3533c-.4808-.8409-.8741-1.931-.8741-3.2017v-.013l.0245-1.8721c-.0035-3.16389-2.5935-5.74207-5.8059-5.74207-3.15991 0-5.70702 2.53773-5.70702 5.65037v.0123l-.02441 1.971c-.00139 1.2694-.41116 2.3568-.91091 3.1952zm-8.5443 2h3.7776c-.3718.559-1.05.9606-1.8888.9606-.8387 0-1.517-.4016-1.8888-.9606zm-2.41195-16.92994c.25925.48766.07408 1.09315-.41358 1.35239-1.06767.56757-1.89468 1.51178-2.35918 2.65521-.20786.51167-.79115.75797-1.30283.55011s-.75797-.79116-.55011-1.30284c.63067-1.55251 1.76799-2.86822 3.27332-3.66846.48766-.25924 1.09314-.07407 1.35238.41359zm8.58675-.00074c.2643-.4849.8717-.66367 1.3566-.3993 1.4804.80712 2.6673 2.08016 3.2879 3.65633.2023.51389-.0502 1.0945-.5641 1.29682-.5139.20233-1.0945-.05024-1.2969-.56413-.4347-1.10432-1.2811-2.03161-2.3842-2.63305-.4849-.26437-.6637-.87177-.3993-1.35667z" fill="currentColor" fill-rule="evenodd"/></svg>