<svg fill="none" height="24" viewBox="0 0 24 24" width="24" xmlns="http://www.w3.org/2000/svg"><path clip-rule="evenodd" d="m12.0001 3c-.6385 0-1.1334.50729-1.1334 1.10526 0 .59798.4949 1.10527 1.1334 1.10527.6384 0 1.1333-.50729 1.1333-1.10527 0-.59797-.4949-1.10526-1.1333-1.10526zm2.698 2.6861c.2762-.46182.4353-1.00168.4353-1.58084 0-1.72743-1.4154-3.10526-3.1333-3.10526-1.718 0-3.13336 1.37783-3.13336 3.10526 0 .58141.16033 1.12322.43858 1.58621-2.92234 1.08298-5.00958 3.87661-5.01228 7.16303l-.02434 1.9709h-.00007v.0123c0 1.0812-.45438 2.0057-.9568 2.6615l.79382.6082-.79382-.6082c-.3981.5197-.36203 1.1512-.18207 1.5834.18106.4349.63959.9568 1.37795.9568h3.42541c.47607 1.743 2.16778 2.9606 4.06698 2.9606 1.8991 0 3.5909-1.2176 4.0669-2.9606h3.4264c.7261 0 1.185-.506 1.3706-.9384.1843-.4292.2239-1.0508-.1574-1.5698-.4799-.6533-.9234-1.5872-.9251-2.6873l.0243-1.8721h.0001v-.013c0-3.34292-2.1297-6.18354-5.1078-7.2727zm-.8092 14.3533h-3.7776c.3718.559 1.05.9606 1.8888.9606.8387 0 1.517-.4016 1.8888-.9606zm-1.8888-12.82887c-3.15996 0-5.70707 2.53773-5.70707 5.65037v.0123h-.00007l-.02434 1.971c-.00138 1.2694-.41115 2.3568-.91091 3.1952h13.29779c-.4807-.8409-.874-1.931-.874-3.2017v-.013h.0001l.0243-1.8721c-.0034-3.16389-2.5935-5.74207-5.8058-5.74207z" fill="currentColor" fill-rule="evenodd"/></svg>