<svg fill="none" height="24" viewBox="0 0 24 24" width="24" xmlns="http://www.w3.org/2000/svg"><path clip-rule="evenodd" d="m7.68574 2.506c.27282.4802.10472 1.09064-.37548 1.36346-1.06376.60437-1.90177 1.61874-2.37548 2.86504-.19623.51625-.7738.77568-1.29005.57945-.51625-.19622-.77568-.7738-.57946-1.29005.62146-1.63498 1.74778-3.03591 3.25702-3.89338.48019-.27282 1.09063-.10471 1.36345.37548zm8.61416-.00034c.2781-.47718.8903-.63861 1.3675-.36056 1.4852.86541 2.6601 2.22091 3.271 3.87923.1909.51824-.0745 1.09312-.5927 1.28403s-1.0931-.07444-1.284-.59267c-.4445-1.20646-1.3028-2.20255-2.4012-2.84255-.4772-.27805-.6386-.89029-.3606-1.36748zm-4.2988 2.69898c-2.8394 0-5.28664 2.53956-5.28664 5.85966v.0112h-.00006l-.02282 2.0337c-.00117 1.3243-.40256 2.4588-.88814 3.3281h12.40576c-.4666-.8712-.8517-2.0081-.8517-3.3339v-.0118h.0001l.0228-1.932c-.0028-3.37307-2.4903-5.95496-5.3793-5.95496zm-7.28663 5.85386c.00288-4.25434 3.18388-7.85386 7.28663-7.85386 4.1558 0 7.3793 3.64802 7.3793 7.96066v.0118h-.0001l-.0228 1.9319c.0014 1.1693.4294 2.152.8808 2.8281.3405.51.3033 1.1057.1415 1.5202-.1563.4006-.5864.98-1.355.98h-14.04644c-.78118 0-1.20972-.5967-1.36156-.998-.15773-.4169-.19247-1.0227.164-1.5347l.6009.4183-.6009-.4183c.47162-.6775.91078-1.6502.91078-2.8012v-.0113h.00007zm4.00444 8.4708c.34376-.4323.97284-.504 1.40509-.1602.4836.3845 1.1394.6309 1.8771.6309.7378 0 1.3935-.2464 1.8771-.6309.4323-.3438 1.0614-.2721 1.4051.1602.3438.4323.272 1.0614-.1602 1.4051-.8431.6704-1.9392 1.0656-3.122 1.0656-1.1827 0-2.27889-.3952-3.12193-1.0656-.43226-.3437-.50401-.9728-.16026-1.4051z" fill="currentColor" fill-rule="evenodd"/></svg>