<svg fill="none" height="24" viewBox="0 0 24 24" width="24" xmlns="http://www.w3.org/2000/svg"><path clip-rule="evenodd" d="m14.9913 5.00264c-.8343-.67398-1.9045-1.02297-3.024-1.00173-.5522.01048-1.0083-.42867-1.0188-.98085-.0105-.55219.4287-1.00831.9808-1.01879 1.5561-.02952 3.0931.45542 4.3188 1.44563.4296.34707.4965.97668.1495 1.40629-.3471.42961-.9767.49652-1.4063.14945zm-6.13386-.18724c-.25961-.45233-.82925-.60271-1.27259-.34522-.44686.25953-.60447.83962-.34288 1.29541.2596.45234.82925.60272 1.27259.34523.44685-.25954.60447-.83963.34288-1.29542zm2.12626.41635c-.0091-.48097-.1359-.96626-.3916-1.41189-.80865-1.40892-2.60485-1.89625-4.01172-1.07915-1.40335.81507-1.87966 2.61495-1.07303 4.02042.25776.44913.61589.80461 1.02976 1.05404-1.77436 2.22633-2.1043 5.41143-.60204 8.03423l.8861 1.5883h-.00006l.00604.0106c.48834.8509.55563 1.7835.4637 2.5269-.07736.6256.25493 1.1345.60918 1.4095.35448.2753.9981.5072 1.62934.1406l.94843-.5508c1.2014 1.1591 3.1038 1.3568 4.6193.4765 1.5159-.8803 2.2941-2.6348 1.8929-4.2589l4.3058-2.5007c.6181-.359.7464-1.0165.6921-1.4591-.0542-.4416-.317-.9816-.8857-1.237l-.4097.9123.4097-.9123c-.6649-.2985-1.429-.8344-1.9274-1.6996l-.8407-1.50911.0001-.00004-.0064-.01109c-1.5302-2.66627-4.4923-3.99205-7.3441-3.54371zm4.0897 13.07355-2.6868 1.5605c.5046.2078 1.13.1903 1.7061-.1442.5756-.3344.905-.8713.9807-1.4163zm-5.55437-10.46502c-2.42637 1.40923-3.2631 4.55022-1.84619 7.01902l.00604.0106h-.00006l.88613 1.5884c.56011.9785.74973 1.9938.76028 2.8727l10.19067-5.9188c-.7422-.4597-1.5148-1.1436-2.0787-2.1262l-.0064-.0111h.0001l-.8407-1.50918c-1.4412-2.50464-4.6073-3.35647-7.07117-1.92544zm-5.17637-.97947c.47071.28887.61813.90464.32926 1.37535-.5659.92213-.77981 2.03694-.62111 3.15094.07788.5468-.30222 1.0532-.84899 1.1311-.54676.0778-1.05314-.3023-1.13103-.849-.21982-1.5432.07048-3.13309.89652-4.47913.28887-.47071.90463-.61813 1.37535-.32926z" fill="currentColor" fill-rule="evenodd"/></svg>