<svg fill="none" height="24" viewBox="0 0 24 24" width="24" xmlns="http://www.w3.org/2000/svg"><path clip-rule="evenodd" d="m5.02103 2.19178c.44637-.32522 1.07187-.22701 1.39709.21936l12.34328 16.94126c.3253.4464.2271 1.0719-.2193 1.3971-.4464.3253-1.0719.227-1.3971-.2193l-1.6292-2.2361h-11.0051c-.77715 0-1.22386-.5791-1.38911-1.0023-.16856-.4317-.20365-1.0578.17243-1.5812.51019-.7101.98236-1.7257.98236-2.9247v-.0116h.00006l.0245-2.1154c.00132-1.9211.63806-3.69379 1.70835-5.09061.03999-.0522.08412-.09935.13157-.14136l-1.33919-1.83805c-.32523-.44637-.22702-1.07188.21936-1.3971zm2.34448 4.91599c-.66839 1.00018-1.06457 2.22614-1.06457 3.55713v.0115h-.00007l-.0245 2.1155c-.00127 1.4008-.44721 2.5957-.97873 3.5022h8.76096zm4.68439-2.57835c-.3444 0-.6808.03221-1.0072.09372-.5427.1023-1.06564-.25474-1.16794-.79747-.10229-.54273.25474-1.06562.79744-1.16792.4478-.08439.9083-.12833 1.3777-.12833 4.3863 0 7.8483 3.74262 7.8483 8.24058v.0121l-.0245 2.0096c.0014 1.218.4616 2.2436.9497 2.952.3133.4548.1987 1.0775-.2561 1.3909-.4548.3133-1.0775.1986-1.3909-.2561-.6537-.9488-1.3027-2.3654-1.3027-4.0926v-.0122h.0001l.0244-2.0096c-.0029-3.49695-2.6719-6.23468-5.8483-6.23468zm-3.47546 14.97788c.3371-.4375.96501-.5189 1.40249-.1818.53217.4101 1.25657.6745 2.07297.6745s1.5408-.2644 2.0729-.6745c.4375-.3371 1.0654-.2557 1.4025.1818s.2558 1.0654-.1817 1.4025c-.892.6873-2.0484 1.0902-3.2937 1.0902s-2.40171-.4029-3.29371-1.0902c-.43748-.3371-.51885-.965-.18175-1.4025z" fill="currentColor" fill-rule="evenodd"/></svg>