<svg fill="none" height="24" viewBox="0 0 24 24" width="24" xmlns="http://www.w3.org/2000/svg"><path clip-rule="evenodd" d="m6.76999 3.6024c-.3325-.57591-1.06892-.77323-1.64483-.44073s-.77323 1.06892-.44073 1.64483 1.06892.77324 1.64483.44073c.57591-.3325.77323-1.06892.44073-1.64483zm2.16045.69389c.01701-.57413-.12012-1.15993-.4284-1.69389-.88479-1.5325-2.84438-2.057568-4.37688-1.17278-1.5325.88479-2.05757 2.84439-1.17278 4.37688.30941.53592.75026.94863 1.25832 1.22094-2.07233 2.48483-2.48352 6.10246-.77047 9.07486l1.01011 1.7999h-.00006l.00609.0106c.57456.9952.65169 2.0815.54468 2.9419-.08137.6541.2685 1.1886.64347 1.478.3756.2899 1.04437.5253 1.69653.1488l1.17618-.6791c1.31759 1.3345 3.46197 1.5803 5.16857.595 1.7067-.9853 2.566-2.9653 2.0691-4.7736l4.9946-2.8837c.6415-.3703.7805-1.0534.7224-1.5238-.0579-.4689-.3377-1.0321-.9299-1.2965l-.4076.9132.4076-.9132c-.7773-.347-1.6743-.9713-2.2599-1.98237l-.9584-1.71025.0001-.00004-.0064-.0111c-1.7448-3.02209-5.1459-4.49541-8.38696-3.91975zm-1.60118 2.68299c-2.83217 1.63516-3.8026 5.27272-2.15383 8.12852l.00609.0105-.00007.0001 1.01015 1.7999c.6761 1.1738.86952 2.3972.84864 3.4275l12.01936-6.9394c-.8862-.5095-1.8347-1.3-2.5126-2.4742l-.0064-.0111h.0001l-.9584-1.71035c-1.6785-2.90071-5.3738-3.8938-8.25304-2.23147zm6.56064 11.72122-3.5077 2.0252c.6497.3632 1.519.3926 2.3036-.0604s1.1938-1.2206 1.2041-1.9648z" fill="currentColor" fill-rule="evenodd"/></svg>