<svg fill="none" height="24" viewBox="0 0 24 24" width="24" xmlns="http://www.w3.org/2000/svg"><path clip-rule="evenodd" d="m8.47555 3.28789c0-1.04264.84523-1.88787 1.88785-1.88787h2.6636c1.0426 0 1.8879.84523 1.8879 1.88787v.909c2.024.87743 3.633 2.52955 4.4538 4.58322h.2892c1.0427 0 1.8879.84523 1.8879 1.88789v2.6636c0 1.0426-.8452 1.8878-1.8879 1.8878h-.3814c-.8457 1.9509-2.4108 3.5161-4.3616 4.3618v1.131c0 1.0426-.8453 1.8878-1.8879 1.8878h-2.6636c-1.04262 0-1.88785-.8452-1.88785-1.8878v-1.0386c-2.05397-.8208-3.70609-2.4298-4.58357-4.4542h-.60397c-1.04264 0-1.88786-.8452-1.88786-1.8878v-2.6636c0-1.04266.84522-1.88789 1.88786-1.88789h.51175c.85051-2.12795 2.54727-3.82508 4.67579-4.67567zm.03176 3.01024c-1.0463.57723-1.91378 1.43994-2.49678 2.48289 1.01537.03113 1.82892.86404 1.82892 1.88698v2.6636c0 .9806-.74766 1.7866-1.70404 1.879.58816.9625 1.42438 1.7573 2.41931 2.2953.23314-.7781.9547-1.3452 1.80868-1.3452h2.6636c.815 0 1.5094.5165 1.7737 1.24.9098-.5323 1.6764-1.2836 2.2269-2.1813h-.0332c-1.0427 0-1.8879-.8452-1.8879-1.8878v-2.6636c0-1.04266.8452-1.88789 1.8879-1.88789h.163c-.5459-.97619-1.3411-1.79452-2.299-2.36853-.2054.82026-.9475 1.42775-1.8314 1.42775h-2.6636c-.92421 0-1.69331-.66413-1.85609-1.5412zm1.96819-2.89811v2.43931h2.4394v-2.43931zm-7.07535 7.38008v2.4393h2.4393v-2.4393zm13.70635 0v2.4393h2.4393v-2.4393zm-6.631 7.3806v2.4393h2.4394v-2.4393z" fill="currentColor" fill-rule="evenodd"/></svg>