<svg fill="none" height="24" viewBox="0 0 24 24" width="24" xmlns="http://www.w3.org/2000/svg"><path clip-rule="evenodd" d="m8.61243 5.63451c.03704-1.01941.87513-1.83446 1.90357-1.83446h2.7146c1.0285 0 1.8665.81505 1.9036 1.83446h5.2657c.5523 0 1 .44772 1 1 0 .55229-.4477 1-1 1h-2.156c1.4112 1.49299 2.2777 3.50819 2.2777 5.72639v.2229h.1734c1.0521 0 1.9049.8529 1.9049 1.9049v2.7146c0 1.052-.8528 1.9049-1.9049 1.9049h-2.7145c-1.0521 0-1.9049-.8529-1.9049-1.9049v-2.7146c0-1.052.8528-1.9049 1.9049-1.9049h.5411v-.2229c0-2.3447-1.2727-4.39324-3.1697-5.4906l.1364-.23579h-.3528v.78498c0 1.05202-.8529 1.90491-1.9049 1.90491h-2.7146c-1.05201 0-1.90485-.85288-1.90485-1.90491v-.2945c-1.67129 1.14268-2.7653 3.06201-2.7653 5.23591v.2229h.17349c1.05203 0 1.90486.8529 1.90486 1.9049v2.7146c0 1.052-.85283 1.9049-1.90486 1.9049h-2.71458c-1.05202 0-1.90486-.8529-1.90486-1.9049v-2.7146c0-1.052.85284-1.9049 1.90486-1.9049h.54109v-.2229c0-2.2182.86646-4.2334 2.27761-5.72639h-2.50058c-.55229 0-1-.44771-1-1 0-.55228.44771-1 1-1zm1.99877.16554v2.5243h2.5243v-2.5243zm-7.2113 9.78375v2.5244h2.5243v-2.5244zm14.6757 0v2.5244h2.5243v-2.5244z" fill="currentColor" fill-rule="evenodd"/></svg>