<svg fill="none" height="24" viewBox="0 0 24 24" width="24" xmlns="http://www.w3.org/2000/svg"><path clip-rule="evenodd" d="m7.82032 2.09707c.34833-.16579.76096-.11644 1.06036.12683l6.00002 4.875c.2444.19858.381.50071.3686.81538-.0123.31468-.1722.60515-.4315.78394l-4.7876 3.30178 4.7876 3.3018c.2593.1788.4192.4693.4315.7839.0124.3147-.1242.6168-.3686.8154l-6.00002 4.875c-.2994.2433-.71203.2926-1.06036.1268-.34833-.1657-.57023-.5171-.57023-.9029v-7.0827l-3.68226 2.5395c-.45465.3136-1.0774.1992-1.39095-.2554-.31355-.4547-.19917-1.0774.25548-1.391l4.07509-2.8104-4.07509-2.8104c-.45465-.31355-.56903-.9363-.25548-1.39094.31355-.45465.9363-.56903 1.39095-.25548l3.68226 2.53952v-7.08269c0-.38577.2219-.73714.57023-.90294zm1.42977 11.79443v5.0075l3.33361-2.7085zm0-3.783v-5.00752l3.33361 2.70853zm8.34151-3.11657c.2806-.47569.8937-.63383 1.3694-.35323 1.8206 1.07399 3.0391 3.07656 3.0391 5.3613 0 2.2848-1.2185 4.2873-3.0391 5.3613-.4757.2806-1.0888.1225-1.3694-.3532s-.1224-1.0888.3532-1.3694c1.2248-.7225 2.0553-2.0777 2.0553-3.6387s-.8305-2.91619-2.0553-3.63868c-.4756-.28061-.6338-.89371-.3532-1.36939zm-1.982 2.60409c.2513-.4918.8537-.68677 1.3455-.43547 1.0395.53115 1.8186 1.57165 1.8186 2.83945s-.7791 2.3084-1.8186 2.8395c-.4918.2513-1.0942.0563-1.3455-.4355s-.0563-1.0942.4355-1.3455c.4832-.2469.7286-.6607.7286-1.0585s-.2454-.8116-.7286-1.0585c-.4918-.2513-.6868-.8537-.4355-1.34548z" fill="currentColor" fill-rule="evenodd"/></svg>