<svg fill="none" height="24" viewBox="0 0 24 24" width="24" xmlns="http://www.w3.org/2000/svg"><path clip-rule="evenodd" d="m1.3999 4.80002c0-1.87776 1.52223-3.4 3.4-3.4h14.4c1.8778 0 3.4 1.52224 3.4 3.4v14.39998c0 1.8778-1.5222 3.4-3.4 3.4h-14.4c-1.87777 0-3.4-1.5222-3.4-3.4zm3.4-1.4c-.7732 0-1.4.62681-1.4 1.4v14.39998c0 .7732.6268 1.4 1.4 1.4h14.4c.7732 0 1.4-.6268 1.4-1.4v-14.39998c0-.77319-.6268-1.4-1.4-1.4zm2.6 2.8h5.14c1.8683 0 3.34 1.54625 3.34 3.4 0 .76008-.2474 1.46858-.6682 2.03988.8451.6214 1.3882 1.634 1.3882 2.7601 0 1.8538-1.4717 3.4-3.34 3.4h-5.86zm2 6.79998v2.8h3.86c.7163 0 1.34-.6028 1.34-1.4s-.6237-1.4-1.34-1.4zm0-2h3.14c.7163 0 1.34-.6028 1.34-1.39998 0-.79721-.6237-1.4-1.34-1.4h-3.14z" fill="currentColor" fill-rule="evenodd"/></svg>