<svg fill="none" height="24" viewBox="0 0 24 24" width="24" xmlns="http://www.w3.org/2000/svg"><path clip-rule="evenodd" d="m4.7999 3.40002c-.7732 0-1.4.62681-1.4 1.4v2h17.2v-2c0-.77319-.6268-1.4-1.4-1.4zm15.8 5.4h-17.2v10.39998c0 .7732.6268 1.4 1.4 1.4h14.4c.7732 0 1.4-.6268 1.4-1.4zm-19.2-4c0-1.87776 1.52223-3.4 3.4-3.4h14.4c1.8778 0 3.4 1.52224 3.4 3.4v14.39998c0 1.8778-1.5222 3.4-3.4 3.4h-14.4c-1.87777 0-3.4-1.5222-3.4-3.4zm5.09289 5.89288c.39053-.3905 1.02369-.3905 1.41422 0l2.99999 3c.1875.1876.2929.4419.2929.7071s-.1054.5196-.2929.7071l-2.99999 3c-.39053.3906-1.02369.3906-1.41422 0-.39052-.3905-.39052-1.0237 0-1.4142l2.2929-2.2929-2.2929-2.2929c-.39052-.3905-.39052-1.0237 0-1.4142z" fill="currentColor" fill-rule="evenodd"/></svg>