<svg fill="none" height="24" viewBox="0 0 24 24" width="24" xmlns="http://www.w3.org/2000/svg"><path clip-rule="evenodd" d="m1.3999 4.99462c0-1.98524 1.60936-3.5946 3.5946-3.5946h14.0108c1.9852 0 3.5946 1.60936 3.5946 3.5946v14.01078c0 1.9853-1.6094 3.5946-3.5946 3.5946h-14.0108c-1.98524 0-3.5946-1.6093-3.5946-3.5946zm2 8.26488v5.7459c0 .8807.71393 1.5946 1.5946 1.5946h6.2649v-7.3405zm7.8595-2h-7.8595v-6.26488c0-.88067.71393-1.5946 1.5946-1.5946h6.2649zm2-7.85948v17.19998h5.7459c.8807 0 1.5946-.7139 1.5946-1.5946v-14.01078c0-.88067-.7139-1.5946-1.5946-1.5946zm-5.92977 1.37298c.55229 0 1 .44771 1 1v.68648h.68649c.55228 0 .99998.44772.99998 1 0 .55229-.4477 1-.99998 1h-.68649v.68649c0 .55228-.44771 1.00003-1 1.00003-.55228 0-1-.44775-1-1.00003v-.68649h-.68649c-.55228 0-1-.44771-1-1 0-.55228.44772-1 1-1h.68649v-.68648c0-.55229.44772-1 1-1zm7.04327 6.1892c0-.5523.4477-1.00002 1-1.00002h3.3729c.5523 0 1 .44772 1 1.00002s-.4477 1-1 1h-3.3729c-.5523 0-1-.4477-1-1zm0 3.1135c0-.5523.4477-1 1-1h3.3729c.5523 0 1 .4477 1 1s-.4477 1-1 1h-3.3729c-.5523 0-1-.4477-1-1zm-9.72976 3.373c0-.5523.44772-1 1-1h3.37298c.55228 0 .99998.4477.99998 1s-.4477 1-.99998 1h-3.37298c-.55228 0-1-.4477-1-1z" fill="currentColor" fill-rule="evenodd"/></svg>