<svg fill="none" height="24" viewBox="0 0 24 24" width="24" xmlns="http://www.w3.org/2000/svg"><path clip-rule="evenodd" d="m6.48512 1.4375c.55228 0 1 .44772 1 1v.63928h8.82738v-.63928c0-.55228.4477-1 1-1s1 .44772 1 1v.72185c1.8196.37543 3.1875 1.98668 3.1875 3.91743v11.48572c0 2.2091-1.7909 4-4 4h-11c-2.20914 0-4-1.7909-4-4v-11.48572c0-1.85848 1.26745-3.42093 2.98512-3.87012v-.76916c0-.55228.44771-1 1-1zm-.01 3.63943c-1.0931.01332-1.97512.90358-1.97512 1.99985v11.48572c0 1.1046.89543 2 2 2h11c1.1046 0 2-.8954 2-2v-11.48572c0-1.10457-.8954-2-2-2h-10.99465c-.00673.00013-.01347.0002-.02023.0002-.00334 0-.00667-.00002-.01-.00005zm-.33226 2.82483c0-.55229.44771-1 1-1h9.63834c.5523 0 1 .44771 1 1 0 .55228-.4477 1-1 1h-9.63834c-.55229 0-1-.44772-1-1z" fill="currentColor" fill-rule="evenodd"/></svg>