<svg fill="none" height="24" viewBox="0 0 24 24" width="24" xmlns="http://www.w3.org/2000/svg"><path clip-rule="evenodd" d="m6.55952 2c.55229 0 1 .44772 1 1v.54285h8.19048v-.54285c0-.55228.4477-1 1-1s1 .44772 1 1v.60368c1.7144.31705 3 1.83479 3 3.63917v11.05715c0 2.0317-1.6299 3.7-3.6667 3.7h-10.66663c-2.03672 0-3.66667-1.6683-3.66667-3.7v-11.05715c0-1.73691 1.19126-3.20822 2.80952-3.59862v-.64423c0-.55228.44772-1 1-1zm-.01961 3.54285h-.12324c-.9088 0-1.66667.74937-1.66667 1.7v.6714h14v-.6714c0-.95063-.7579-1.7-1.6667-1.7h-10.50416c-.00652.00012-.01306.00019-.01962.00019-.00655 0-.01309-.00007-.01961-.00019zm12.21009 4.3714h-14v8.38575c0 .9506.75787 1.7 1.66667 1.7h10.66663c.9088 0 1.6667-.7494 1.6667-1.7z" fill="currentColor" fill-rule="evenodd"/></svg>