<svg fill="none" height="24" viewBox="0 0 24 24" width="24" xmlns="http://www.w3.org/2000/svg"><path clip-rule="evenodd" d="m17.4992 1.00009c.5523 0 1 .44772 1 1v.95286c1.8388.45554 3.1875 2.13905 3.1876 4.12099l.0005 10.80846c.0001 2.3269-1.8586 4.2427-4.1875 4.2427h-10.62464c-2.32867 0-4.1873-1.9156-4.18741-4.2424l-.00049-10.80837c-.00009-1.98205 1.34834-3.66565 3.18726-4.12119v-.95295c0-.55228.44771-1 1-1 .55228 0 1 .44772 1 1v.83158l8.62468-.00016v-.83152c0-.55228.4477-1 1-1zm0 3.8315-10.62467.0002c-1.19203 0-2.18733.98767-2.18727 2.24245l.00049 10.80846c.00006 1.2547.99547 2.2424 2.18741 2.2424h10.62464c1.1921 0 2.1875-.9879 2.1875-2.2427l-.0005-10.80837c-.0001-1.25465-.9956-2.24243-2.1876-2.24244zm-11.16855 2.78297c0-.55228.44771-1 1-1h10.11875c.5523 0 1 .44772 1 1 0 .55229-.4477 1-1 1h-10.11875c-.55229 0-1-.44771-1-1zm4.17555 2.34621c.3408.16863.5565.51603.5565.89623v6.4851c0 .5523-.4477 1-1 1-.55227 0-.99999-.4477-.99999-1v-4.4643l-.51836.3955c-.43907.335-1.06659.2507-1.4016-.1884-.335-.4391-.25064-1.0666.18844-1.4016l2.12494-1.6213c.30232-.23064.70927-.26988 1.05007-.10123zm5.8436 0c.3408.16863.5565.51603.5565.89623v6.4851c0 .5523-.4477 1-1 1s-1-.4477-1-1v-4.4643l-.5184.3955c-.439.335-1.0666.2507-1.4016-.1884s-.2506-1.0666.1885-1.4016l2.1249-1.6213c.3023-.23064.7093-.26988 1.0501-.10123z" fill="currentColor" fill-rule="evenodd"/></svg>