<svg fill="none" height="24" viewBox="0 0 24 24" width="24" xmlns="http://www.w3.org/2000/svg"><path clip-rule="evenodd" d="m4.7999 4.47998c-.7732 0-1.4.6268-1.4 1.4v12.24002c0 .7732.6268 1.4 1.4 1.4h14.4c.7732 0 1.4-.6268 1.4-1.4v-12.24002c0-.7732-.6268-1.4-1.4-1.4zm-3.4 1.4c0-1.87777 1.52223-3.4 3.4-3.4h14.4c1.8778 0 3.4 1.52223 3.4 3.4v12.24002c0 1.8778-1.5222 3.4-3.4 3.4h-14.4c-1.87777 0-3.4-1.5222-3.4-3.4zm10.6 3.52012c-1.4359 0-2.6 1.1641-2.6 2.6s1.1641 2.6 2.6 2.6 2.6-1.1641 2.6-2.6-1.1641-2.6-2.6-2.6zm-4.6 2.6c0-2.54051 2.05949-4.6 4.6-4.6 2.5405 0 4.6 2.05949 4.6 4.6 0 2.5405-2.0595 4.6-4.6 4.6-2.54051 0-4.6-2.0595-4.6-4.6z" fill="currentColor" fill-rule="evenodd"/></svg>