<svg fill="none" height="24" viewBox="0 0 24 24" width="24" xmlns="http://www.w3.org/2000/svg"><path clip-rule="evenodd" d="m.840332 7.24c-.000054-1.87781 1.522198-3.4001 3.399998-3.4001h14.39947c1.8774 0 3.4 1.52127 3.4 3.39943l.0001 4.20057c0 .5523-.4477 1-1 1s-1-.4477-1-1v-1.4001h-17.19949l.00018 6.2c.00002.7731.62682 1.3999 1.4 1.3999h9.59971c.5522 0 1 .4477 1 1s-.4478 1-1 1h-9.59971c-1.87773 0-3.399948-1.5222-3.400001-3.3999zm2.000018.79976h17.19945v-.80045c0-.77288-.6264-1.39941-1.4-1.39941h-14.39947c-.77321 0-1.40002.62683-1.4 1.40004zm16.79325 5.06794c.5523 0 1 .4477 1 1v1.5262h1.5262c.5523 0 1 .4477 1 1s-.4477 1-1 1h-1.5262v1.5262c0 .5523-.4477 1-1 1s-1-.4477-1-1v-1.5262h-1.5262c-.5523 0-1-.4477-1-1s.4477-1 1-1h1.5262v-1.5262c0-.5523.4477-1 1-1z" fill="currentColor" fill-rule="evenodd"/></svg>