<svg fill="none" height="24" viewBox="0 0 24 24" width="24" xmlns="http://www.w3.org/2000/svg"><path clip-rule="evenodd" d="m.654785 7.50019c-.000053-1.8778 1.522195-3.40009 3.400005-3.40009h14.39941c1.8775 0 3.4001 1.52126 3.4001 3.39942v4.20058c0 .5523-.4477 1-1 1-.5522 0-1-.4477-1-1v-1.4002h-17.19943l.00017 6.2c.00002.7732.62682 1.4 1.4 1.4h9.59966c.5523 0 1 .4477 1 1s-.4477 1-1 1h-9.59966c-1.87773 0-3.399944-1.5222-3.399998-3.3999zm2.000025.79976h17.19949v-.80044c0-.77288-.6265-1.39941-1.4001-1.39941h-14.39941c-.77322 0-1.40003.62682-1.4 1.40004zm19.69059 8.74545-5.0914.0003c-.5523 0-1-.4477-1.0001-1 0-.5523.4477-1 1-1l5.0914-.0003c.5523 0 1 .4477 1 1 .0001.5523-.4476 1-.9999 1z" fill="currentColor" fill-rule="evenodd"/></svg>