<svg fill="none" height="24" viewBox="0 0 24 24" width="24" xmlns="http://www.w3.org/2000/svg"><path clip-rule="evenodd" d="m1.40015 6.90031c-.00006-1.87781 1.52219-3.4001 3.4-3.4001h14.39945c1.8774 0 3.4001 1.52127 3.4 3.39943l.0001 4.20056c0 .5523-.4477 1-1 1s-1-.4477-1-1v-1.40013h-17.19947l.00017 6.20003c.00003.7731.62682 1.3999 1.40001 1.3999h9.59969c.5523 0 1 .4477 1 1s-.4477 1-1 1h-9.59969c-1.87773 0-3.39995-1.5221-3.40001-3.3999zm2.00002.79975h17.19943v-.80044c0-.77288-.6264-1.39941-1.4-1.39941h-14.39945c-.77322 0-1.40003.62683-1.4 1.40004zm17.19003 5.35104c.3286.1729.5344.5137.5344.8851v4.5636h.4182c.5523 0 1 .4477 1 1s-.4477 1-1 1h-2.9421c-.5522 0-1-.4477-1-1s.4478-1 1-1h.5239v-2.6626l-.1789.123c-.4551.3129-1.0777.1976-1.3906-.2575s-.1976-1.0777.2575-1.3906l1.7455-1.2c.306-.2104.7034-.2338 1.0321-.061z" fill="currentColor" fill-rule="evenodd"/></svg>