<svg fill="none" height="24" viewBox="0 0 24 24" width="24" xmlns="http://www.w3.org/2000/svg"><path clip-rule="evenodd" d="m.500732 6.66017c-.000053-1.87781 1.522198-3.4001 3.399998-3.4001h14.39927c1.8772 0 3.4002 1.52024 3.4002 3.39884l.0001 2.40114-.8001.00002c-.1824.2428-.4728.39985-.7999.39985h-17.59949l.00018 6.20008c.00002.7731.6268 1.3999 1.39997 1.3999l7.79974.0002c.5523 0 1 .4477 1 1s-.4478 1-1.0001 1l-7.79967-.0002c-1.87771 0-3.399887-1.5222-3.399941-3.3999zm2.000028.79975h17.19944v-.801c0-.77257-.6262-1.39885-1.4002-1.39885h-14.39927c-.77321 0-1.40002.62683-1.4 1.40004zm16.41144 4.37288c.3905-.3905 1.0237-.3905 1.4142 0l2.88 2.88c.1876.1876.2929.4419.2929.7071s-.1053.5196-.2929.7071l-4.32 4.32c-.1875.1876-.4419.2929-.7071.2929h-2.88c-.5523 0-1-.4477-1-1v-2.88c0-.2652.1054-.5195.2929-.7071zm-2.6129 5.4413v1.4658h1.4658l3.32-3.32-1.4658-1.4658z" fill="currentColor" fill-rule="evenodd"/></svg>