<svg fill="none" height="24" viewBox="0 0 24 24" width="24" xmlns="http://www.w3.org/2000/svg"><path clip-rule="evenodd" d="m1.3999 2.99274c0-.55229.44772-1 1-1h2.29254c.45161 0 .84717.30268.96523.73858l.88653 3.27336h15.0557c.3008 0 .5855.13536.7754.36857.1899.23322.2648.53952.2039.83403l-1.7194 8.31042c-.0868.4192-.4306.7366-.8553.7897l-11.46265 1.4328c-.49448.0619-.959-.2498-1.08926-.7308l-3.52534-13.01666h-1.52735c-.55228 0-1-.44772-1-1zm5.68597 5.01194 2.07004 7.64322 9.89029-1.2363 1.3256-6.40692zm3.41403 11.99532c-.2761 0-.5.2239-.5.5 0 .2762.2239.5.5.5s.5-.2238.5-.5c0-.2761-.2239-.5-.5-.5zm-2.5.5c0-1.3807 1.11929-2.5 2.5-2.5 1.3807 0 2.5 1.1193 2.5 2.5s-1.1193 2.5-2.5 2.5c-1.38071 0-2.5-1.1193-2.5-2.5zm10.5-.5c-.2761 0-.5.2239-.5.5 0 .2762.2239.5.5.5s.5-.2238.5-.5c0-.2761-.2239-.5-.5-.5zm-2.5.5c0-1.3807 1.1193-2.5 2.5-2.5s2.5 1.1193 2.5 2.5-1.1193 2.5-2.5 2.5-2.5-1.1193-2.5-2.5z" fill="currentColor" fill-rule="evenodd"/></svg>