<svg fill="none" height="24" viewBox="0 0 24 24" width="24" xmlns="http://www.w3.org/2000/svg"><path clip-rule="evenodd" d="m5.8125 2c.55228 0 1 .44772 1 1v1.8125h10.375v-1.8125c0-.55228.4477-1 1-1s1 .44772 1 1v1.8125h1.8125c.5523 0 1 .44772 1 1s-.4477 1-1 1h-1.8125v10.375h1.8125c.5523 0 1 .4477 1 1s-.4477 1-1 1h-1.8125v1.8125c0 .5523-.4477 1-1 1s-1-.4477-1-1v-1.8125h-10.375v1.8125c0 .5523-.44772 1-1 1-.55229 0-1-.4477-1-1v-1.8125h-1.8125c-.55228 0-1-.4477-1-1s.44772-1 1-1h1.8125v-10.375h-1.8125c-.55228 0-1-.44772-1-1s.44772-1 1-1h1.8125v-1.8125c0-.55228.44772-1 1-1zm1 4.8125v10.375h10.375v-10.375z" fill="currentColor" fill-rule="evenodd"/></svg>