<svg fill="none" height="24" viewBox="0 0 24 24" width="24" xmlns="http://www.w3.org/2000/svg"><path clip-rule="evenodd" d="m14.2291.834351c.5523 0 1 .447719 1 .999999v2.44697c0 .55229-.4477 1-1 1-.5522 0-1-.44771-1-1v-2.44697c0-.55228.4478-.999999 1-.999999zm-9.56127 4.187939c-.70026 0-1.26793.56767-1.26793 1.26793v5.87118c.3865.0024.7771.0074 1.16898.0124 1.8716.024 3.77258.0484 5.39691-.2136 1.03321-.1667 1.84111-.4357 2.40141-.8205.167-.1147.3141-.2406.4401-.3816h-1.9027c-.5523 0-.99998-.4477-.99998-.99996 0-.55228.44768-1 .99998-1h3.4019c.5523 0 1 .44772 1 1v4.07626c0 .5522-.4477 1-1 1s-1-.4478-1-1v-.9199c-.8759.5446-1.9393.8455-3.0222 1.0202-1.81426.2926-3.95969.2639-5.85446.2387-.35328-.0047-.69785-.0093-1.02994-.0117v5.7361c0 .7002.56767 1.2679 1.26793 1.2679h13.60757c.7002 0 1.2679-.5677 1.2679-1.2679v-6.8038c0-.5523.4477-1 1-1s1 .4477 1 1v6.8038c0 1.8048-1.4631 3.2679-3.2679 3.2679h-13.60757c-1.80483 0-3.26793-1.4631-3.26793-3.2679v-13.60758c0-1.80483 1.4631-3.26793 3.26793-3.26793h5.66977c.5523 0 1 .44772 1 1s-.4477 1-1 1zm15.37177-1.62655c.3903.39084.3897 1.024-.0011 1.41421l-1.6236 1.62096c-.3908.39021-1.024.3897-1.4142-.00114s-.3897-1.02401.0012-1.41421l1.6235-1.62096c.3909-.39021 1.024-.3897 1.4142.00114zm-1.8867 5.80937c0-.55229.4477-1 1-1h2.447c.5523 0 1 .44771 1 1 0 .55228-.4477.99999-1 .99999h-2.447c-.5523 0-1-.44771-1-.99999z" fill="currentColor" fill-rule="evenodd"/></svg>