<svg fill="none" height="24" viewBox="0 0 24 24" width="24" xmlns="http://www.w3.org/2000/svg"><path clip-rule="evenodd" d="m14.2291 1.40002c.5523 0 1 .44772 1 1v2.44698c0 .55228-.4477 1-1 1-.5522 0-1-.44772-1-1v-2.44698c0-.55228.4478-1 1-1zm-3.6608 1.05319c.1377.53485-.1843 1.08003-.71914 1.21769-3.70945.95475-6.44926 4.32324-6.44926 8.3291 0 .245.01024.4875.03032.7273.3766.0024.75702.0073 1.13866.0122 1.8716.024 3.77258.0483 5.39691-.2137 1.03321-.1666 1.84111-.4356 2.40141-.8204.167-.1147.3141-.2406.4401-.3816h-1.9027c-.5523 0-.99998-.4477-.99998-1 0-.55227.44768-.99999.99998-.99999h3.4019c.5523 0 1 .44772 1 .99999v4.0762c0 .5523-.4477 1-1 1s-1-.4477-1-1v-.9199c-.8759.5447-1.9393.8455-3.0222 1.0202-1.81426.2926-3.95969.264-5.85446.2387-.19867-.0026-.39458-.0052-.58706-.0074 1.1416 3.4106 4.36233 5.8684 8.15712 5.8684 4.1974 0 7.6944-3.008 8.449-6.9863.103-.5427.6263-.8991 1.1689-.7962.5426.103.899.6263.7961 1.1689-.9304 4.9048-5.238 8.6136-10.414 8.6136-5.85422 0-10.6-4.7458-10.6-10.6 0-4.94052 3.37911-9.08931 7.95074-10.26597.53486-.13766 1.08006.18432 1.21766.71918zm9.4713 1.5082c.3903.39084.3897 1.02401-.0011 1.41422l-1.6236 1.62095c-.3908.39021-1.024.3897-1.4142-.00114s-.3897-1.024.0012-1.41421l1.6235-1.62096c.3909-.39021 1.024-.3897 1.4142.00114zm-1.8867 5.80937c0-.55229.4477-1 1-1h2.447c.5523 0 1 .44771 1 1 0 .55232-.4477 1.00002-1 1.00002h-2.447c-.5523 0-1-.4477-1-1.00002z" fill="currentColor" fill-rule="evenodd"/></svg>