<svg fill="none" height="24" viewBox="0 0 24 24" width="24" xmlns="http://www.w3.org/2000/svg"><path clip-rule="evenodd" d="m2 12c0-5.52285 4.47715-10 10-10 5.5228 0 10 4.47715 10 10 0 5.5228-4.4772 10-10 10-5.52285 0-10-4.4772-10-10zm10-8c-4.41828 0-8 3.58172-8 8 0 4.4183 3.58172 8 8 8 4.4183 0 8-3.5817 8-8 0-4.41828-3.5817-8-8-8zm3.8491 5.27589c.3905.39052.3905 1.02371 0 1.41421l-4.267 4.267c-.3905.3905-1.0237.3905-1.4142 0l-1.45451-1.4545c-.39053-.3905-.39053-1.0237 0-1.4142.39052-.3905 1.02369-.3905 1.41421 0l.7474.7474 3.5599-3.55991c.3905-.39053 1.0237-.39053 1.4142 0z" fill="currentColor" fill-rule="evenodd"/></svg>