<svg fill="none" height="24" viewBox="0 0 24 24" width="24" xmlns="http://www.w3.org/2000/svg"><path clip-rule="evenodd" d="m2 12c0-5.52285 4.47715-10 10-10 1.5671 0 3.0527.3612 4.3756 1.00582.4964.24193.7028.84053.4608 1.337-.2419.49648-.8405.70282-1.337.46089-1.0558-.51453-2.2424-.80371-3.4994-.80371-4.41828 0-8 3.58172-8 8 0 4.4183 3.58172 8 8 8 4.4183 0 8-3.5817 8-8 0-.5523.4477-1 1-1s1 .4477 1 1c0 5.5228-4.4772 10-10 10-5.52285 0-10-4.4772-10-10zm18.0196-6.33211c.3905.39053.3905 1.02369 0 1.41422l-7.875 7.87499c-.3905.3905-1.0237.3905-1.4142 0l-2.25001-2.25c-.39052-.3905-.39052-1.0237 0-1.4142.39053-.3905 1.02369-.3905 1.41422 0l1.54289 1.5429 7.1679-7.16791c.3905-.39052 1.0237-.39052 1.4142 0z" fill="currentColor" fill-rule="evenodd"/></svg>