<svg fill="none" height="24" viewBox="0 0 24 24" width="24" xmlns="http://www.w3.org/2000/svg"><path clip-rule="evenodd" d="m7 5c-1.10457 0-2 .89543-2 1.99998v10.00002c0 1.1046.89543 2 2 2h10c1.1046 0 2-.8954 2-2v-10.00002c0-1.10455-.8954-1.99998-2-1.99998zm-4 1.99998c0-2.20913 1.79087-3.99998 4-3.99998h10c2.2091 0 4 1.79085 4 3.99998v10.00002c0 2.2092-1.7909 4-4 4h-10c-2.20913 0-4-1.7908-4-4zm12.7455 2.33353c.3681.41176.3327 1.04389-.079 1.41199l-4.4747 4c-.3796.3393-.9534.3393-1.33295 0l-1.5253-1.3635c-.41176-.3681-.44717-1.0002-.0791-1.412.36807-.4117 1.00025-.4472 1.412-.0791l.85885.7677 3.8082-3.40418c.4118-.36807 1.044-.33266 1.412.07909z" fill="currentColor" fill-rule="evenodd"/></svg>