<svg fill="none" height="24" viewBox="0 0 24 24" width="24" xmlns="http://www.w3.org/2000/svg"><path clip-rule="evenodd" d="m17.7071 19.7071c-.3905.3905-1.0237.3905-1.4142 0l-4.8929-4.8929-4.89289 4.8929c-.39053.3905-1.02369.3905-1.41422 0-.39052-.3905-.39052-1.0237 0-1.4142l5.60001-5.6c.1875-.1875.4419-.2929.7071-.2929s.5196.1054.7071.2929l5.6 5.6c.3905.3905.3905 1.0237 0 1.4142zm0-8.4c-.3905.3905-1.0237.3905-1.4142 0l-4.8929-4.89289-4.89289 4.89289c-.39053.3905-1.02369.3905-1.41422 0-.39052-.3905-.39052-1.0237 0-1.41421l5.60001-5.6c.3905-.39052 1.0237-.39052 1.4142 0l5.6 5.6c.3905.39051.3905 1.02371 0 1.41421z" fill="currentColor" fill-rule="evenodd"/></svg>