<svg fill="none" height="24" viewBox="0 0 24 24" width="24" xmlns="http://www.w3.org/2000/svg"><path clip-rule="evenodd" d="m6 3.99994v.00004h12c1.0609 0 2.0783.42143 2.8284 1.17158.7502.75014 1.1716 1.76756 1.1716 2.82842v8.00002c0 1.0609-.4214 2.0783-1.1716 2.8284-.7501.7502-1.7675 1.1716-2.8284 1.1716h-3c-.5523 0-1-.4477-1-1s.4477-1 1-1h3c.5304 0 1.0391-.2107 1.4142-.5858s.5858-.8838.5858-1.4142v-8.00002c0-.53043-.2107-1.03914-.5858-1.41421s-.8838-.58579-1.4142-.58579h-11.99478c-.40884.00476-.80645.13471-1.13922.3724-.33393.23852-.58641.57399-.72318.96089-.18407.52071-.7554.79361-1.27611.60954s-.79361-.75541-.60954-1.27611c.27355-.77381.7785-1.44474 1.44635-1.92179.66786-.47704 1.46629-.73709 2.28699-.74488zm-4 7.00006c0-.5523.44772-1.00001 1-1.00001 2.38695 0 4.67613.94821 6.36396 2.63601 1.68784 1.6879 2.63604 3.977 2.63604 6.364 0 .5523-.4477 1-1 1s-1-.4477-1-1c0-1.8565-.7375-3.637-2.05025-4.9498-1.31276-1.3127-3.09323-2.0502-4.94975-2.0502-.55228 0-1-.4477-1-1zm0 4c0-.5523.44772-1 1-1 1.32608 0 2.59785.5268 3.53553 1.4645.93769.9376 1.46447 2.2094 1.46447 3.5355 0 .5523-.44772 1-1 1-.55229 0-1-.4477-1-1 0-.7957-.31607-1.5587-.87868-2.1213s-1.32567-.8787-2.12132-.8787c-.55228 0-1-.4477-1-1zm0 4c0-.5523.44772-1 1-1h.012c.55228 0 1 .4477 1 1s-.44772 1-1 1h-.012c-.55228 0-1-.4477-1-1z" fill="currentColor" fill-rule="evenodd"/></svg>