<svg fill="none" height="24" viewBox="0 0 24 24" width="24" xmlns="http://www.w3.org/2000/svg"><path clip-rule="evenodd" d="m11.25 4c-4.41828 0-8 3.58172-8 8 0 4.4183 3.58172 8 8 8 .5139 0 1.0157-.0483 1.5011-.1404.5426-.103 1.066.2535 1.1689.7961s-.2535 1.0659-.7961 1.1688c-.6078.1153-1.2343.1755-1.8739.1755-5.52285 0-10-4.4772-10-10 0-5.52285 4.47715-10 10-10 5.5229 0 10 4.47715 10 10 0 .5523-.4477 1-1 1s-1-.4477-1-1c0-4.41828-3.5817-8-8-8zm0 3.42087c.5523 0 1 .44771 1 1v3.98333l2.6912.8971c.524.1747.8071.741.6325 1.2649-.1747.524-.741.8071-1.2649.6325l-3.375-1.125c-.4084-.1361-.6838-.5183-.6838-.9487v-4.70413c0-.55229.4477-1 1-1zm7.3125 6.95413c.5523 0 1 .4477 1 1v1.8125h1.8125c.5523 0 1 .4477 1 1s-.4477 1-1 1h-1.8125v1.8125c0 .5523-.4477 1-1 1s-1-.4477-1-1v-1.8125h-1.8125c-.5523 0-1-.4477-1-1s.4477-1 1-1h1.8125v-1.8125c0-.5523.4477-1 1-1z" fill="currentColor" fill-rule="evenodd"/></svg>