<svg fill="none" height="24" viewBox="0 0 24 24" width="24" xmlns="http://www.w3.org/2000/svg"><path clip-rule="evenodd" d="m14.7428 6.14288c-2.4489 0-4.5506 1.50397-5.42539 3.64226-.18917.46246-.69061.71426-1.17449.58986-.29877-.0768-.61422-.1178-.94302-.1178-2.09941 0-3.8 1.701-3.8 3.8 0 2.0989 1.70059 3.8 3.8 3.8h7.5429c3.2351 0 5.8571-2.6226 5.8571-5.8572 0-3.23458-2.622-5.85712-5.8571-5.85712zm-6.92823 2.14643c1.3247-2.46674 3.93013-4.14643 6.92823-4.14643 4.3398 0 7.8571 3.51809 7.8571 7.85712 0 4.3391-3.5173 7.8572-7.8571 7.8572h-7.5429c-3.20416 0-5.8-2.5967-5.8-5.8s2.59584-5.80003 5.8-5.80003c.20742 0 .41249.01085.61467.03214z" fill="currentColor" fill-rule="evenodd"/></svg>