<svg fill="none" height="24" viewBox="0 0 24 24" width="24" xmlns="http://www.w3.org/2000/svg"><path clip-rule="evenodd" d="m16.0928 6.49284c.3905-.39052 1.0237-.39052 1.4142 0l4.8 4.79996c.3905.3906.3905 1.0237 0 1.4143l-4.8 4.8c-.3905.3905-1.0237.3905-1.4142 0-.3905-.3906-.3905-1.0237 0-1.4143l4.0929-4.0928-4.0929-4.09294c-.3905-.39053-.3905-1.02369 0-1.41422zm-8.18579 0c.39052.39053.39052 1.02369 0 1.41422l-4.09289 4.09294 4.09289 4.0928c.39052.3906.39052 1.0237 0 1.4143-.39053.3905-1.02369.3905-1.41422 0l-4.79999-4.8c-.18754-.1876-.2929-.4419-.2929-.7071 0-.2653.10536-.5196.2929-.7072l4.79999-4.79996c.39053-.39052 1.02369-.39052 1.41422 0z" fill="currentColor" fill-rule="evenodd"/></svg>