<svg fill="none" height="24" viewBox="0 0 24 24" width="24" xmlns="http://www.w3.org/2000/svg"><path clip-rule="evenodd" d="m13.4059 5.32146c.5404.11377.8863.64412.7726 1.18456l-2.4 11.39998c-.1138.5405-.6442.8863-1.1846.7726-.5404-.1138-.88633-.6442-.77255-1.1846l2.40005-11.4c.1137-.54044.6441-.88632 1.1845-.77254zm3.8869 2.67144c.3905-.39052 1.0237-.39052 1.4142 0l3.6 3.6c.3905.3905.3905 1.0237 0 1.4142l-3.6 3.6c-.3905.3905-1.0237.3905-1.4142 0s-.3905-1.0237 0-1.4142l2.8929-2.8929-2.8929-2.89289c-.3905-.39052-.3905-1.02368 0-1.41421zm-10.58579 0c.39052.39053.39052 1.02369 0 1.41421l-2.89289 2.89289 2.89289 2.8929c.39052.3905.39052 1.0237 0 1.4142-.39053.3905-1.02369.3905-1.41422 0l-3.59999-3.6c-.39053-.3905-.39053-1.0237 0-1.4142l3.59999-3.6c.39053-.39052 1.02369-.39052 1.41422 0z" fill="currentColor" fill-rule="evenodd"/></svg>