<svg fill="none" height="24" viewBox="0 0 24 24" width="24" xmlns="http://www.w3.org/2000/svg"><path clip-rule="evenodd" d="m11.5346 3c-1.1699 0-2.10351.93796-2.10351 2.07692 0 .85147.52179 1.59059 1.27401 1.90948.3946-1.31522 1.4388-2.34834 2.7579-2.73963-.3234-.73102-1.061-1.24677-1.9284-1.24677zm4.0029 1.17533c-.4136-1.82257-2.0546-3.17533-4.0029-3.17533-2.2582 0-4.10351 1.81722-4.10351 4.07692 0 1.95073 1.37518 3.5717 3.20401 3.97852.4136 1.82256 2.0546 3.17536 4.003 3.17536 2.2581 0 4.1034-1.8172 4.1034-4.07695 0-1.95074-1.3751-3.57171-3.204-3.97852zm-.8994 1.90159c-1.1699 0-2.1035.93796-2.1035 2.07693 0 1.13896.9336 2.07695 2.1035 2.07695 1.1698 0 2.1034-.93799 2.1034-2.07695 0-1.13897-.9336-2.07693-2.1034-2.07693zm-12.6381 8.23078c0-.9852.8032-1.7692 1.77587-1.7692h3.10348c.76466 0 1.42459.4845 1.67187 1.1704l.22865-.1133c.89244-.4424 1.87603-.6725 2.87303-.6725h.3182c.5708 0 1.1391.0754 1.69.2244l1.6308.4409c.8743.2364 1.4341.9416 1.5675 1.7242l.8445-.8373c.8519-.8446 2.1827-.9742 3.1825-.3133 1.1596.7664 1.5189 2.3867.5778 3.5387-.8358 1.0231-2.2452 2.5846-3.6751 3.2764-1.3734.6645-2.1228.7249-3.2802.8182-.1751.0141-.3595.029-.5568.0468-1.0564.0954-2.2762-.0957-3.268-.2511-.0596-.0094-.1184-.0186-.1762-.0276-.53958-.084-1.00785-.1536-1.40784-.1819-.18657-.0132-.33471-.0152-.4503-.0105-.07191.9183-.84436 1.629-1.77041 1.629h-3.10348c-.97266 0-1.77587-.784-1.77587-1.7692zm6.65522 5.062c.20102-.0046.39913.0036.58591.0168.49711.0351 1.04717.1186 1.57447.2007l.0674.0105c1.0868.1693 2.0861.325 2.8892.2525.2206-.0199.4177-.0361.5967-.0509 1.0999-.0904 1.5209-.125 2.5492-.6226.9875-.4777 2.1517-1.7063 2.9972-2.7413.1295-.1585.1241-.4359-.1317-.6049-.2116-.1399-.4939-.1111-.6715.065l-1.5365 1.5233c-.6247.6194-1.4702.9658-2.3499.9658h-.5862c-.001 0-.0019 0-.0028 0h-1.9383c-.5523 0-1-.4477-1-1s.4477-1 1-1h1.528l.6171-.6119c.0785-.0778.0528-.2194-.0736-.2536l-1.6308-.441c-.3806-.1029-.7734-.155-1.168-.155h-.3182c-.6894 0-1.3689.1591-1.98474.4644l-1.01294.5021zm-4.65522-4.8312v6.4615h2.65522v-6.4615z" fill="currentColor" fill-rule="evenodd"/></svg>