<svg fill="none" height="24" viewBox="0 0 24 24" width="24" xmlns="http://www.w3.org/2000/svg"><path clip-rule="evenodd" d="m5.89294.492905c.39053-.390524 1.02369-.390524 1.41422 0l2.4 2.400005c.18753.18753.29284.44189.29284.7071 0 .26522-.10531.51957-.29284.70711l-2.4 2.4c-.39053.39052-1.02369.39052-1.41422 0-.39052-.39053-.39052-1.02369 0-1.41421l.6929-.6929h-1.58579c-1.21503 0-2.2.98498-2.2 2.2v1.6c0 .55229-.44772 1-1 1-.55229 0-1.000001-.44771-1.000001-1v-1.6c0-2.31959 1.880401-4.2 4.200001-4.2h1.58579l-.6929-.69289c-.39052-.39053-.39052-1.02369 0-1.414215zm9.57326 4.107105c-2.0927 0-3.8464 1.46198-4.2909 3.42129-.1223.53859-.6579.87613-1.19654.75392-.53859-.12221-.87613-.6579-.75392-1.19649.64676-2.85027 3.19436-4.97872 6.24136-4.97872 3.5347 0 6.4 2.86538 6.4 6.4 0 3.27479-2.4587 5.97389-5.6314 6.35419-.5484.0658-1.0462-.3255-1.1119-.8738-.0658-.5484.3255-1.0462.8738-1.1119 2.1795-.2613 3.8695-2.1183 3.8695-4.36849 0-2.43005-1.9699-4.4-4.4-4.4zm-8.26615 7.19999c-2.43005 0-4.4 1.97-4.4 4.4 0 2.4301 1.96995 4.4 4.4 4.4s4.39995-1.9699 4.39995-4.4c0-2.43-1.9699-4.4-4.39995-4.4zm-6.400001 4.4c0-3.5346 2.865381-6.39999 6.400001-6.39999 3.53465 0 6.39995 2.86539 6.39995 6.39999s-2.8653 6.4-6.39995 6.4c-3.53462 0-6.400001-2.8654-6.400001-6.4zm21.400051-1.6c.5522 0 1 .4477 1 1v1.6c0 2.3196-1.8805 4.2-4.2001 4.2h-1.5857l.6929.6929c.3905.3905.3905 1.0237 0 1.4142-.3906.3905-1.0237.3905-1.4143 0l-2.4-2.4c-.1875-.1875-.2929-.4419-.2929-.7071s.1054-.5196.2929-.7071l2.4-2.4c.3906-.3905 1.0237-.3905 1.4143 0 .3905.3905.3905 1.0237 0 1.4142l-.6929.6929h1.5857c1.2151 0 2.2001-.985 2.2001-2.2v-1.6c0-.5523.4477-1 1-1z" fill="currentColor" fill-rule="evenodd"/></svg>