<svg fill="none" height="24" viewBox="0 0 24 24" width="24" xmlns="http://www.w3.org/2000/svg"><path clip-rule="evenodd" d="m14.619 3.39999c-1.4378 0-2.7547.506-3.7864 1.35059-.4273.34986-1.05733.28705-1.40719-.14028-.34986-.42734-.28705-1.05738.14028-1.40724 1.37591-1.12644 3.13691-1.80307 5.05331-1.80307 4.4082 0 7.9818 3.57359 7.9818 7.98182 0 1.91549-.676 3.67579-1.8015 5.05139-.3498.4275-.9798.4905-1.4072.1407-.4275-.3497-.4905-.9797-.1407-1.4072.8439-1.0314 1.3494-2.3477 1.3494-3.78489 0-3.30367-2.6781-5.98182-5.9818-5.98182zm-5.23801 5.23637c-3.30367 0-5.98182 2.67814-5.98182 5.98184 0 3.3036 2.67815 5.9818 5.98182 5.9818 3.30371 0 5.98181-2.6782 5.98181-5.9818 0-3.3037-2.6781-5.98184-5.98181-5.98184zm-7.98182 5.98184c0-4.4083 3.57358-7.98184 7.98182-7.98184 4.40821 0 7.98181 3.57354 7.98181 7.98184 0 4.4082-3.5736 7.9818-7.98181 7.9818-4.40824 0-7.98182-3.5736-7.98182-7.9818z" fill="currentColor" fill-rule="evenodd"/></svg>