<svg fill="none" height="24" viewBox="0 0 24 24" width="24" xmlns="http://www.w3.org/2000/svg"><path clip-rule="evenodd" d="m12.0001 3.40002c-2.98234 0-5.4 2.41767-5.4 5.4 0 2.98238 2.41766 5.39998 5.4 5.39998 2.9823 0 5.4-2.4176 5.4-5.39998 0-2.98233-2.4177-5.4-5.4-5.4zm-7.39797 5.22476c.0931-4.00595 3.36964-7.22476 7.39797-7.22476 4.0284 0 7.3049 3.21885 7.398 7.22484 2.3763 1.23048 4.002 3.71194 4.002 6.57514 0 4.0869-3.3131 7.4-7.4 7.4-1.472 0-2.8461-.4308-3.9999-1.1732-1.1534.7424-2.52645 1.1732-4.0001 1.1732-4.08691 0-7.400002-3.3131-7.400002-7.4 0-2.8636 1.626602-5.34538 4.002032-6.57522zm.27057 2.17232c-1.37666.9796-2.2726 2.5873-2.2726 4.4029 0 2.9823 2.41766 5.4 5.4 5.4 2.6823 0 4.9078-1.9557 5.3285-4.5189-.431.0781-.875.1189-1.3285.1189-3.39494 0-6.25591-2.2861-7.1274-5.4029zm10.5254 4.5784c-.0415 1.7812-.7124 3.4069-1.7989 4.663.7227.3594 1.5373.5615 2.4009.5615 2.9823 0 5.4-2.4176 5.4-5.4 0-1.8157-.8965-3.4237-2.2726-4.403-.557 1.9922-1.9269 3.6451-3.7294 4.5785z" fill="currentColor" fill-rule="evenodd"/></svg>