<svg fill="none" height="24" viewBox="0 0 24 24" width="24" xmlns="http://www.w3.org/2000/svg"><path clip-rule="evenodd" d="m13.9972 2.46392c1.2993-1.29938 3.4061-1.29939 4.7054-.00001l2.4685 2.46845c1.2994 1.29938 1.2994 3.40609 0 4.70547l-2.7273 2.72737h.8288c1.8376 0 3.3273 1.4896 3.3273 3.3272v3.4909c0 1.8376-1.4897 3.3273-3.3273 3.3273h-14.54543c-1.8376 0-3.32727-1.4897-3.32727-3.3273v-13.96359c0-1.8376 1.48967-3.32727 3.32727-3.32727h3.49091c1.73942 0 3.16712 1.33473 3.31472 3.03587zm-2.4518 5.19286v8.77832l8.2115-8.21148c.5183-.51833.5183-1.35871 0-1.87705l-2.4685-2.46844c-.5183-.51833-1.3587-.51833-1.877 0l-3.5771 3.57709c-.0862.08623-.1843.15341-.2889.20156zm-.001 11.60772c-.0106.4421-.1074.8629-.2743 1.2461h8.0025c.7331 0 1.3273-.5942 1.3273-1.3273v-3.4909c0-.733-.5942-1.3272-1.3273-1.3272h-2.8288zm-3.32632 1.2461c.73304 0 1.32728-.5942 1.32728-1.3273v-13.96359c0-.73303-.59424-1.32727-1.32728-1.32727h-3.49091c-.73303 0-1.32727.59424-1.32727 1.32727v13.96359c0 .7331.59424 1.3273 1.32727 1.3273zm-3.32727-2.4909c0-.5523.44772-1 1-1h1.16364c.55228 0 1 .4477 1 1s-.44772 1-1 1h-1.16364c-.55228 0-1-.4477-1-1z" fill="currentColor" fill-rule="evenodd"/></svg>