<svg fill="none" height="24" viewBox="0 0 24 24" width="24" xmlns="http://www.w3.org/2000/svg"><path clip-rule="evenodd" d="m12.0003 3.39954c-2.76143 0-5.00001 2.23857-5.00001 5 0 2.76146 2.23858 4.99996 5.00001 4.99996 2.7614 0 5-2.2385 5-4.99996 0-2.76143-2.2386-5-5-5zm-7.00001 5c0-3.866 3.13401-7 7.00001-7s7 3.134 7 7c0 .25849-.014.51371-.0413.76494 2.4937 1.07022 4.2418 3.54752 4.2418 6.43532 0 3.866-3.134 7-7 7-1.5746 0-3.0304-.5211-4.2004-1.3998-1.1696.8783-2.62455 1.3997-4.20011 1.3997-3.86599 0-6.999997-3.134-6.999997-7 0-2.8876 1.747827-5.3648 4.241317-6.43517-.0273-.25124-.04132-.50648-.04132-.76499zm.55313 2.73186c-1.63367.8232-2.75313 2.516-2.75313 4.4683 0 2.7614 2.23858 5 5 5 1.39891 0 2.66211-.5732 3.57081-1.5001.8851-.9029 1.4292-2.1369 1.4292-3.4999 0-.086.0108-.1694.0312-.249-.2726.0322-.5499.0488-.8312.0488-2.89675 0-5.38253-1.7595-6.44688-4.2681zm8.98518 3.7937c.1625.1779.2617.4146.2617.6746 0 1.5584-.5102 2.9991-1.3714 4.1622.7931.5295 1.7453.8379 2.7719.8379 2.7614 0 5-2.2386 5-5 0-1.9525-1.1197-3.6454-2.7536-4.4685-.7354 1.7333-2.1494 3.109-3.9086 3.7938z" fill="currentColor" fill-rule="evenodd"/></svg>