<svg fill="none" height="24" viewBox="0 0 24 24" width="24" xmlns="http://www.w3.org/2000/svg"><path clip-rule="evenodd" d="m19.0274 2c1.6417 0 2.9726 1.33088 2.9726 2.9726v14.0548c0 1.6417-1.3309 2.9726-2.9726 2.9726h-14.0548c-1.64172 0-2.9726-1.3309-2.9726-2.9726v-14.0548c0-1.64172 1.33088-2.9726 2.9726-2.9726zm-4.9147 2h-4.0103v16h4.0103zm2 16v-16h2.9147c.5372 0 .9726.43545.9726.9726v14.0548c0 .5372-.4354.9726-.9726.9726zm-8.01032 0v-16h-3.12978c-.53715 0-.9726.43545-.9726.9726v14.0548c0 .5372.43545.9726.9726.9726z" fill="currentColor" fill-rule="evenodd"/></svg>