<svg fill="none" height="24" viewBox="0 0 24 24" width="24" xmlns="http://www.w3.org/2000/svg"><path clip-rule="evenodd" d="m4.9726 2h14.0548c1.6547 0 2.9726 1.35619 2.9726 3v3c0 1.6438-1.3179 3-2.9726 3h-14.0548c-1.65468 0-2.9726-1.3562-2.9726-3v-3c0-1.64381 1.31792-3 2.9726-3zm14.0548 2h-14.0548c-.52419 0-.9726.43467-.9726 1v3c0 .56533.44841 1 .9726 1h14.0548c.5242 0 .9726-.43467.9726-1v-3c0-.56533-.4484-1-.9726-1zm-14.0548 11c-.52419 0-.9726.4347-.9726 1v3c0 .5653.44841 1 .9726 1h14.0548c.5242 0 .9726-.4347.9726-1v-3c0-.5653-.4484-1-.9726-1zm-2.9726 1c0-1.6438 1.31792-3 2.9726-3h14.0548c1.6547 0 2.9726 1.3562 2.9726 3v3c0 1.6438-1.3179 3-2.9726 3h-14.0548c-1.65468 0-2.9726-1.3562-2.9726-3z" fill="currentColor" fill-rule="evenodd"/></svg>