<svg width="24" height="24" viewBox="0 0 24 24" fill="none" xmlns="http://www.w3.org/2000/svg">
<path fill-rule="evenodd" clip-rule="evenodd" d="M19.0274 2C20.6691 2 22 3.33088 22 4.9726V19.0274C22 20.6691 20.6691 22 19.0274 22H4.9726C3.33088 22 2 20.6691 2 19.0274L2 4.9726C2 3.33088 3.33088 2 4.9726 2L19.0274 2ZM13 4V20H19.0274C19.5646 20 20 19.5646 20 19.0274V4.9726C20 4.43545 19.5646 4 19.0274 4L13 4ZM11 20V4H4.9726C4.43545 4 4 4.43545 4 4.9726L4 19.0274C4 19.5646 4.43545 20 4.9726 20H11Z" fill="white"/>
</svg>
