<svg fill="none" height="24" viewBox="0 0 24 24" width="24" xmlns="http://www.w3.org/2000/svg"><path clip-rule="evenodd" d="m5 2h3c1.6438 0 3 1.31792 3 2.9726v14.0548c0 1.6547-1.35619 2.9726-3 2.9726h-3c-1.6438 0-3-1.3179-3-2.9726v-14.0548c0-1.65468 1.35619-2.9726 3-2.9726zm3 2h-3c-.56533 0-1 .44841-1 .9726v14.0548c0 .5242.43467.9726 1 .9726h3c.56533 0 1-.4484 1-.9726v-14.0548c0-.52419-.43467-.9726-1-.9726zm8 0c-.5653 0-1 .44841-1 .9726v14.0548c0 .5242.4347.9726 1 .9726h3c.5653 0 1-.4484 1-.9726v-14.0548c0-.52419-.4347-.9726-1-.9726zm-3 .9726c0-1.65468 1.3562-2.9726 3-2.9726h3c1.6438 0 3 1.31792 3 2.9726v14.0548c0 1.6547-1.3562 2.9726-3 2.9726h-3c-1.6438 0-3-1.3179-3-2.9726z" fill="currentColor" fill-rule="evenodd"/></svg>