<svg width="24" height="24" viewBox="0 0 24 24" fill="none" xmlns="http://www.w3.org/2000/svg">
<path fill-rule="evenodd" clip-rule="evenodd" d="M4.94221 2L18.7805 2C20.42 2 21.7227 3.34557 21.7227 4.9726V19.0274C21.7227 20.6544 20.42 22 18.7805 22H4.94222C3.3027 22 2 20.6544 2 19.0274L2 4.9726C2 3.34557 3.30269 2 4.94221 2ZM18.7805 4L4.94221 4C4.43642 4 4 4.42076 4 4.9726V11.2465H19.7227V4.9726C19.7227 4.42076 19.2863 4 18.7805 4ZM19.7227 13.2465H4V19.0274C4 19.5792 4.43642 20 4.94222 20H18.7805C19.2863 20 19.7227 19.5792 19.7227 19.0274V13.2465Z" fill="white"/>
</svg>
