<svg fill="none" height="24" viewBox="0 0 24 24" width="24" xmlns="http://www.w3.org/2000/svg"><path clip-rule="evenodd" d="m1.3999 5.99998c0-1.87777 1.52223-3.4 3.4-3.4h14.4c1.8778 0 3.4 1.52223 3.4 3.4v8.40002c0 1.8777-1.5222 3.4-3.4 3.4h-6.2v1.4c0 .0685-.0069.1354-.02.2h2.62c.5523 0 1 .4477 1 1s-.4477 1-1 1h-7.2c-.55228 0-1-.4477-1-1s.44772-1 1-1h2.62c-.0131-.0646-.02-.1315-.02-.2v-1.4h-6.2c-1.87777 0-3.4-1.5223-3.4-3.4zm17.8 9.80002c.7732 0 1.4-.6268 1.4-1.4v-8.40002c0-.7732-.6268-1.4-1.4-1.4h-14.4c-.7732 0-1.4.6268-1.4 1.4v8.40002c0 .7732.6268 1.4 1.4 1.4z" fill="currentColor" fill-rule="evenodd"/></svg>