<svg fill="none" height="24" viewBox="0 0 24 24" width="24" xmlns="http://www.w3.org/2000/svg"><path clip-rule="evenodd" d="m2 4.8c0-1.5464 1.2536-2.8 2.8-2.8h6.3c1.5464 0 2.8 1.2536 2.8 2.8v.8h5.3c1.5464 0 2.8 1.2536 2.8 2.8v10.8c0 1.5464-1.2536 2.8-2.8 2.8h-6.3c-1.5464 0-2.8-1.2536-2.8-2.8v-.8h-5.3c-1.5464 0-2.8-1.2536-2.8-2.8zm8.1 11.6v-5.1358l-1.44289 1.4429c-.39053.3905-1.02369.3905-1.41422 0-.39052-.3905-.39052-1.0237 0-1.4142l.0929-.0929h-1.63579c-.55228 0-1-.4477-1-1 0-.55228.44772-1 1-1h1.63579l-.0929-.09289c-.39052-.39053-.39052-1.02369 0-1.41422.39053-.39052 1.02369-.39052 1.41422 0l1.44289 1.4429v-.73579c0-1.19408.7475-2.21358 1.8-2.61615v-.98385c0-.44183-.3582-.8-.8-.8h-6.3c-.44183 0-.8.35817-.8.8v10.8c0 .4418.35817.8.8.8zm2.8-8.8c-.4418 0-.8.35817-.8.8v10.8c0 .4418.3582.8.8.8h6.3c.4418 0 .8-.3582.8-.8v-10.8c0-.44183-.3582-.8-.8-.8zm3.4071 3.6929c.3905.3905.3905 1.0237 0 1.4142l-.0929.0929h1.6358c.5523 0 1 .4477 1 1s-.4477 1-1 1h-1.6358l.0929.0929c.3905.3905.3905 1.0237 0 1.4142s-1.0237.3905-1.4142 0l-1.8-1.8c-.3905-.3905-.3905-1.0237 0-1.4142l1.8-1.8c.3905-.3905 1.0237-.3905 1.4142 0z" fill="currentColor" fill-rule="evenodd"/></svg>