<svg fill="none" height="24" viewBox="0 0 24 24" width="24" xmlns="http://www.w3.org/2000/svg"><path clip-rule="evenodd" d="m7.20005 3.39996c-.7732 0-1.4.6268-1.4 1.4v14.40004c0 .7732.6268 1.4 1.4 1.4h9.59995c.7732 0 1.4-.6268 1.4-1.4v-14.40002c0-.7732-.6268-1.4-1.3999-1.4zm-3.4 1.4c0-1.87777 1.52223-3.4 3.4-3.4l9.60005.00002c1.8777 0 3.4 1.52223 3.4 3.4v14.40002c0 1.8777-1.5223 3.4-3.4001 3.4h-9.59995c-1.87777 0-3.4-1.5223-3.4-3.4zm4.2 1.20002c0-.55228.44771-1 1-1h5.99995c.5523 0 1 .44772 1 1 0 .55229-.4477 1-1 1h-5.99995c-.55229 0-1-.44771-1-1zm2.99995 10.80002c0-.5523.4478-1 1-1h.0851c.5522 0 1 .4477 1 1v.0769c0 .5522-.4478 1-1 1h-.0851c-.5522 0-1-.4478-1-1z" fill="currentColor" fill-rule="evenodd"/></svg>