<svg fill="none" height="24" viewBox="0 0 24 24" width="24" xmlns="http://www.w3.org/2000/svg"><path clip-rule="evenodd" d="m1.3999 12c0-5.85419 4.74578-10.59998 10.6-10.59998 5.8542 0 10.6 4.74579 10.6 10.59998 0 5.8542-4.7458 10.6-10.6 10.6-5.85422 0-10.6-4.7458-10.6-10.6zm10.6-8.59998c-4.74965 0-8.6 3.85036-8.6 8.59998 0 4.7497 3.85035 8.6 8.6 8.6 4.7496 0 8.6-3.8503 8.6-8.6 0-4.74962-3.8504-8.59998-8.6-8.59998zm-1 3.1c0-.82842.6716-1.5 1.5-1.5 3.5899 0 6.5 2.91015 6.5 6.49998v1c0 3.5899-2.9101 6.5-6.5 6.5-.8284 0-1.5-.6715-1.5-1.5zm2 .52747v9.94511c2.25-.2488 4-2.1563 4-4.4726v-1c0-2.31625-1.75-4.22379-4-4.47251z" fill="currentColor" fill-rule="evenodd"/></svg>