<svg fill="none" height="24" viewBox="0 0 24 24" width="24" xmlns="http://www.w3.org/2000/svg"><path clip-rule="evenodd" d="m11.9999 3.39999c-4.74965 0-8.6 3.85035-8.6 8.60001 0 4.7496 3.85035 8.6 8.6 8.6 4.7496 0 8.6-3.8504 8.6-8.6 0-4.74966-3.8504-8.60001-8.6-8.60001zm-10.6 8.60001c0-5.85423 4.74578-10.60001 10.6-10.60001 5.8542 0 10.6 4.74578 10.6 10.60001 0 5.8542-4.7458 10.6-10.6 10.6-5.85422 0-10.6-4.7458-10.6-10.6zm10.6-6.40001c.5523 0 1 .44772 1 1v.83333h.2c.0147 0 .0293.00033.0439.00097.5625.02474 1.103.22036 1.5521.55919.4489.33864.7853.80425.969 1.33506.1806.52192-.0961 1.09146-.618 1.27206s-1.0914-.0961-1.272-.61804c-.0552-.15946-.155-.29552-.2835-.39251-.1235-.09319-.2687-.14675-.418-.15673h-2.3735c-.2062 0-.4077.08326-.5592.23757-.1521.15493-.2408.36891-.2408.59581 0 .2268.0887.4408.2408.5957.1515.1543.353.2376.5592.2376h2.4c.7486 0 1.4627.303 1.9864.8364.523.5327.8136 1.2513.8136 1.9969s-.2906 1.4643-.8136 1.997c-.5237.5333-1.2378.8364-1.9864.8364h-.2v.8333c0 .5523-.4477 1-1 1s-1-.4477-1-1v-.8333h-.2c-.0146 0-.0293-.0004-.0439-.001-.5625-.0247-1.10305-.2204-1.55214-.5592-.44886-.3386-.7853-.8043-.96898-1.3351-.1806-.5219.09609-1.0914.61801-1.272s1.09143.0961 1.27201.618c.0552.1595.155.2955.2835.3925.1235.0932.2687.1468.418.1568h2.3735c.2062 0 .4077-.0833.5592-.2376.1521-.1549.2408-.3689.2408-.5958 0-.2268-.0887-.4408-.2408-.5957-.1515-.1544-.353-.2376-.5592-.2376h-2.4c-.7486 0-1.46273-.3031-1.98636-.8364-.52301-.5327-.81364-1.2514-.81364-1.9969 0-.74563.29063-1.46429.81364-1.99699.52363-.53333 1.23776-.83639 1.98636-.83639h.2v-.83333c0-.55228.4477-1 1-1z" fill="currentColor" fill-rule="evenodd"/></svg>