<svg fill="none" height="24" viewBox="0 0 24 24" width="24" xmlns="http://www.w3.org/2000/svg"><path clip-rule="evenodd" d="m9.5 2c.5523 0 1 .44772 1 1v2h2v-2c0-.55228.4477-1 1-1s1 .44772 1 1v2c1.0609 0 2.0783.42143 2.8284 1.17157.7502.75015 1.1716 1.76756 1.1716 2.82843 0 1.0609-.4214 2.0783-1.1716 2.8284-.0592.0593-.1202.1165-.1826.1716.0624.0551.1234.1123.1826.1716.7502.7501 1.1716 1.7675 1.1716 2.8284s-.4214 2.0783-1.1716 2.8284c-.7501.7502-1.7675 1.1716-2.8284 1.1716v2c0 .5523-.4477 1-1 1s-1-.4477-1-1v-2h-2v2c0 .5523-.4477 1-1 1-.55229 0-1-.4477-1-1v-2h-2c-.55228 0-1-.4477-1-1s.44772-1 1-1h1v-10h-1c-.55228 0-1-.44772-1-1s.44772-1 1-1h2v-2c0-.55228.44771-1 1-1zm0 5v4h5c.5304 0 1.0391-.2107 1.4142-.5858s.5858-.88377.5858-1.4142-.2107-1.03914-.5858-1.41421c-.3751-.37508-.8838-.58579-1.4142-.58579zm5 6h-5v4h5c.5304 0 1.0391-.2107 1.4142-.5858s.5858-.8838.5858-1.4142-.2107-1.0391-.5858-1.4142-.8838-.5858-1.4142-.5858z" fill="currentColor" fill-rule="evenodd"/></svg>