<svg fill="none" height="24" viewBox="0 0 24 24" width="24" xmlns="http://www.w3.org/2000/svg"><path clip-rule="evenodd" d="m12.9935 3c.5523.00028.9998.44822.9995 1.0005l-.0005 1.07056c1.363.19623 2.6454.79362 3.6781 1.72711.4097.37036.4416 1.00272.0712 1.41242-.3703.4097-1.0027.44159-1.4124.07124-.9144-.82657-2.1035-1.28347-3.3361-1.28183h-.0006c-.6561.00044-1.3057.1301-1.9117.38157-.6059.25148-1.15645.61985-1.62006 1.08408s-.83125 1.01523-1.08192 1.62155c-.25066.6063-.37946 1.256-.37902 1.9121v.0007c0 2.763 2.2356 5 4.992 5h.0014c1.231.0017 2.4187-.4539 3.3328-1.2785.41-.3699 1.0424-.3374 1.4123.0727.3699.41.3374 1.0424-.0726 1.4123-1.032.931-2.3126 1.5267-3.6734 1.7225l.0005 1.0705c.0003.5523-.4472 1.0002-.9995 1.0005s-1.0002-.4472-1.0005-.9995l-.0005-1.0714c-3.38936-.4855-5.99217-3.4033-5.9925-6.9284m6.9913 6.9993c-.0002 0-.0005 0-.0007 0l.0014-1v1c-.0002 0-.0005 0-.0007 0zm-.9988-13.92765.0005-1.07285c.0003-.55229.4482-.99978 1.0005-.9995m-1.001 2.07235c-.5751.08336-1.1389.23823-1.6781.46197-.84852.35215-1.61941.86799-2.26862 1.51806-.6492.65007-1.16401 1.42165-1.51503 2.27068-.35093.84884-.53127 1.75844-.53075 2.67694" fill="currentColor" fill-rule="evenodd"/></svg>