<svg fill="none" height="24" viewBox="0 0 24 24" width="24" xmlns="http://www.w3.org/2000/svg"><path clip-rule="evenodd" d="m11.9999 3.39999c-4.74965 0-8.6 3.85035-8.6 8.60001 0 4.7496 3.85035 8.6 8.6 8.6 4.7496 0 8.6-3.8504 8.6-8.6 0-4.74966-3.8504-8.60001-8.6-8.60001zm-10.6 8.60001c0-5.85423 4.74578-10.60001 10.6-10.60001 5.8542 0 10.6 4.74578 10.6 10.60001 0 5.8542-4.7458 10.6-10.6 10.6-5.85422 0-10.6-4.7458-10.6-10.6zm10.3012-6.80817c.5523 0 1 .44771 1 1v.401h.401c.8226 0 1.6115.32676 2.1931.90841.5817.58164.9084 1.37052.9084 2.19309v.10017c0 .7542-.2839 1.4792-.7925 2.0321.509.5675.7925 1.3045.7925 2.0707v.1002c0 .796-.3162 1.5594-.879 2.1223-.5629.5628-1.3263.879-2.1223.879h-.5012v.401c0 .5523-.4477 1-1 1s-1-.4477-1-1v-.401h-1.10148c-.55228 0-1-.4477-1-1v-8.40597c0-.55229.44772-1 1-1h1.10148v-.401c0-.55229.4477-1 1-1zm-1.1015 7.60397v2.203h2.6027c.2656 0 .5203-.1055.708-.2933.1878-.1877.2933-.4424.2933-.708v-.1002c0-.2921-.116-.5723-.3226-.7789-.2066-.2065-.4867-.3226-.7789-.3226zm0-2h2.6027c.2656 0 .5203-.1055.708-.2933.1878-.1877.2933-.4424.2933-.708v-.10017c0-.29214-.116-.57231-.3226-.77888s-.4867-.32262-.7789-.32262h-2.5025z" fill="currentColor" fill-rule="evenodd"/></svg>