<svg fill="none" height="24" viewBox="0 0 24 24" width="24" xmlns="http://www.w3.org/2000/svg"><path clip-rule="evenodd" d="m11 3c.5523 0 1 .44772 1 1v1h1c1.0609 0 2.0783.42143 2.8284 1.17157.7502.75015 1.1716 1.76757 1.1716 2.82843v.143c0 1.0229-.4064 2.004-1.1297 2.7273-.0585.0585-.1187.1149-.1804.1692.0471.0428.0933.0869.1385.1321.7502.7501 1.1716 1.7675 1.1716 2.8284v.143c0 1.0229-.4064 2.004-1.1297 2.7273s-1.7044 1.1297-2.7273 1.1297h-1.143v1c0 .5523-.4477 1-1 1s-1-.4477-1-1v-1h-2c-.55228 0-1-.4477-1-1v-12c0-.55228.44772-1 1-1h2v-1c0-.55228.4477-1 1-1zm-2 10v4h4.143c.4925 0 .9648-.1956 1.3131-.5439s.5439-.8206.5439-1.3131v-.143c0-.5304-.2107-1.0391-.5858-1.4142s-.8838-.5858-1.4142-.5858zm0-2h4.143c.4925 0 .9648-.1956 1.3131-.5439s.5439-.82059.5439-1.3131v-.143c0-.53043-.2107-1.03914-.5858-1.41421-.3751-.37508-.8838-.58579-1.4142-.58579h-4z" fill="currentColor" fill-rule="evenodd"/></svg>