<svg fill="none" height="24" viewBox="0 0 24 24" width="24" xmlns="http://www.w3.org/2000/svg"><path clip-rule="evenodd" d="m11.9999 3.39999c-4.74965 0-8.6 3.85035-8.6 8.60001 0 4.7496 3.85035 8.6 8.6 8.6 4.7496 0 8.6-3.8504 8.6-8.6 0-4.74966-3.8504-8.60001-8.6-8.60001zm-10.6 8.60001c0-5.85423 4.74578-10.60001 10.6-10.60001 5.8542 0 10.6 4.74578 10.6 10.60001 0 5.8542-4.7458 10.6-10.6 10.6-5.85422 0-10.6-4.7458-10.6-10.6zm6.41876-5.61374c.44942-.32101 1.07397-.21692 1.39497.23249l2.78627 3.90075 2.7863-3.90075c.321-.44941.9455-.5535 1.3949-.23249.4495.32101.5535.94556.2325 1.39497l-2.9848 4.17877h1.4511c.5523 0 1 .4477 1 1s-.4477 1-1 1h-1.88v.88h1.88c.5523 0 1 .4477 1 1s-.4477 1-1 1h-1.88v.44c0 .5523-.4477 1-1 1s-1-.4477-1-1v-.44h-1.88c-.55228 0-1-.4477-1-1s.44772-1 1-1h1.88v-.88h-1.88c-.55228 0-1-.4477-1-1s.44772-1 1-1h1.4511l-2.98483-4.17877c-.32101-.44941-.21692-1.07396.23249-1.39497z" fill="currentColor" fill-rule="evenodd"/></svg>