<svg fill="none" height="24" viewBox="0 0 24 24" width="24" xmlns="http://www.w3.org/2000/svg"><path clip-rule="evenodd" d="m11.9999 3.39999c-4.74965 0-8.6 3.85035-8.6 8.60001 0 4.7496 3.85035 8.6 8.6 8.6 4.7496 0 8.6-3.8504 8.6-8.6 0-4.74966-3.8504-8.60001-8.6-8.60001zm-10.6 8.60001c0-5.85423 4.74578-10.60001 10.6-10.60001 5.8542 0 10.6 4.74578 10.6 10.60001 0 5.8542-4.7458 10.6-10.6 10.6-5.85422 0-10.6-4.7458-10.6-10.6zm6.92727-4.8c0-.55229.44772-1 1-1h4.58183c.8401 0 1.6647.2987 2.288.85847.627.56295 1.0029 1.35101 1.0029 2.19867s-.3759 1.63576-1.0029 2.19866c-.6233.5598-1.4479.8585-2.288.8585h-3.5818v.7428h3.5818c.5523 0 1 .4478 1 1 0 .5523-.4477 1-1 1h-3.5818v1.7429c0 .5523-.44774 1-1.00003 1-.55228 0-1-.4477-1-1v-1.7429h-.52727c-.55228 0-1-.4477-1-1 0-.5522.44772-1 1-1h.52727v-.7428h-.52727c-.55228 0-1-.4477-1-1s.44772-1 1-1h.52727zm2.00003 3.1143h3.5818c.375 0 .7159-.1348.9518-.34659.2323-.20863.3391-.46706.3391-.71057s-.1068-.50194-.3391-.71057c-.2359-.21181-.5768-.34657-.9518-.34657h-3.5818z" fill="currentColor" fill-rule="evenodd"/></svg>