<svg fill="none" height="24" viewBox="0 0 24 24" width="24" xmlns="http://www.w3.org/2000/svg"><path clip-rule="evenodd" d="m11.1362 4.64868c1.2887-.63177 2.7204-.80954 4.1075-.50051 1.3847.3085 2.6364 1.08183 3.6088 2.19339.3637.41568.3215 1.04743-.0942 1.41107-.4156.36364-1.0474.32146-1.411-.09422-.7155-.81778-1.6022-1.34949-2.5385-1.5581-.934-.20808-1.9025-.092-2.7922.34418-.893.43779-1.6803 1.18628-2.24419 2.17629-.07041.12361-.13681.25011-.19912.37921h4.32661c.5523 0 1 .44771 1 1 0 .55231-.4477 1.00001-1 1.00001h-4.92888c-.04647.3284-.07024.6628-.07024 1s.02377.6716.07024 1h4.92888c.5523 0 1 .4477 1 1s-.4477 1-1 1h-4.32661c.06231.1291.12871.2556.19912.3792.56389.99 1.35119 1.7385 2.24419 2.1763.8897.4362 1.8582.5522 2.7922.3442.9363-.2086 1.823-.7404 2.5385-1.5581.3636-.4157.9954-.4579 1.411-.0943.4157.3637.4579.9954.0942 1.4111-.9724 1.1116-2.2241 1.8849-3.6088 2.1934-1.3871.309-2.8188.1313-4.1075-.5005-1.28538-.6302-2.35778-1.6762-3.10167-2.9823-.24772-.4349-.45623-.8936-.62414-1.369h-1.51049c-.55228 0-1-.4477-1-1s.44772-1 1-1h1.05564c-.03638-.3309-.05476-.6649-.05476-1 0-.3352.01838-.6691.05476-1h-1.05564c-.55228 0-1-.4477-1-1.00001 0-.55229.44772-1 1-1h1.51049c.16792-.47543.37642-.93412.62414-1.36905.74389-1.30607 1.81629-2.3521 3.10167-2.98226z" fill="currentColor" fill-rule="evenodd"/></svg>