<svg fill="none" height="24" viewBox="0 0 24 24" width="24" xmlns="http://www.w3.org/2000/svg"><path clip-rule="evenodd" d="m11.9999 3.39999c-4.74965 0-8.6 3.85035-8.6 8.60001 0 4.7496 3.85035 8.6 8.6 8.6 4.7496 0 8.6-3.8504 8.6-8.6 0-4.74966-3.8504-8.60001-8.6-8.60001zm-10.6 8.60001c0-5.85423 4.74578-10.60001 10.6-10.60001 5.8542 0 10.6 4.74578 10.6 10.60001 0 5.8542-4.7458 10.6-10.6 10.6-5.85422 0-10.6-4.7458-10.6-10.6zm6-4.20001c0-.55228.44772-1 1-1h7.2c.5523 0 1 .44772 1 1 0 .55229-.4477 1-1 1h-2.0342c.1203.23671.2157.4858.2845.74286h1.7497c.5523 0 1 .44771 1 .99995 0 .5523-.4477 1-1 1h-1.7497c-.1627.6073-.4729 1.1701-.912 1.63-.5918.6201-1.3765 1.0088-2.2186 1.0948l2.3309 2.4419c.3814.3995.3666 1.0325-.0329 1.4138-.3994.3814-1.0324.3667-1.4138-.0328l-3.92725-4.1143c-.27636-.2895-.35347-.7159-.19602-1.0839s.51914-.6066.91937-.6066h1.9636c.4138 0 .8206-.1718 1.128-.4938.073-.0765.1389-.1599.1969-.2491h-3.2885c-.55228 0-1-.4477-1-1 0-.55224.44772-.99995 1-.99995h3.2885c-.058-.08913-.1239-.17255-.1969-.24902-.3074-.32207-.7142-.49384-1.128-.49384h-1.9636c-.55228 0-1-.44771-1-1z" fill="currentColor" fill-rule="evenodd"/></svg>