<svg fill="none" height="24" viewBox="0 0 24 24" width="24" xmlns="http://www.w3.org/2000/svg"><path clip-rule="evenodd" d="m6.41884 4.18625c.44941-.32101 1.07396-.21691 1.39497.2325l4.18629 5.86075 4.1862-5.86075c.3211-.44941.9456-.55351 1.395-.2325s.5535.94556.2325 1.39497l-4.5848 6.41878h2.7711c.5523 0 1 .4477 1 1s-.4477 1-1 1h-3v2h3c.5523 0 1 .4477 1 1s-.4477 1-1 1h-3v1c0 .5523-.4477 1-1 1s-1-.4477-1-1v-1h-3.00002c-.55229 0-1-.4477-1-1s.44771-1 1-1h3.00002v-2h-3.00002c-.55229 0-1-.4477-1-1s.44771-1 1-1h2.77112l-4.58486-6.41878c-.321-.44941-.21691-1.07396.2325-1.39497z" fill="currentColor" fill-rule="evenodd"/></svg>