<svg fill="none" height="24" viewBox="0 0 24 24" width="24" xmlns="http://www.w3.org/2000/svg"><path clip-rule="evenodd" d="m11.9999 3.39999c-4.74965 0-8.6 3.85035-8.6 8.60001 0 4.7496 3.85035 8.6 8.6 8.6 4.7496 0 8.6-3.8504 8.6-8.6 0-4.74966-3.8504-8.60001-8.6-8.60001zm-10.6 8.60001c0-5.85423 4.74578-10.60001 10.6-10.60001 5.8542 0 10.6 4.74578 10.6 10.60001 0 5.8542-4.7458 10.6-10.6 10.6-5.85422 0-10.6-4.7458-10.6-10.6zm12.0506-4.35946c-.3752-.15379-.7905-.18013-1.1822-.07499-.3916.10514-.7379.33595-.9857.65698-.2472.32032-.3826.71278-.3857 1.11734v1.84813h2.4931c.5523 0 1 .4477 1 1s-.4477 1-1 1h-2.4931v1.4951c0 .0373-.0021.0746-.0062.1116-.0032.0286-.0068.0571-.0108.0855.5037.0229 1.0028.118 1.482.2833.0306.0106.0608.0227.0903.0362.4285.1964.8942.2981 1.3655.2981s.9371-.1017 1.3655-.2981c.5021-.2301 1.0956-.0096 1.3258.4924.2301.5021.0096 1.0957-.4924 1.3258-.6899.3162-1.4399.4799-2.1989.4799-.7407 0-1.473-.156-2.1492-.4575-.4359-.1441-.8975-.1951-1.3547-.1493-.2996.0299-.5928.1009-.87154.2103-.20126.1266-.41719.2304-.64399.3089-.48564.1681-1.01963-.0592-1.23501-.5258-.21539-.4666-.04205-1.0205.4009-1.2811.16621-.0978.33728-.1861.51239-.2648.06787-.0535.12975-.1148.18425-.183.12447-.1555.20576-.3409.23613-.5372v-1.4303h-.49703c-.55228 0-1-.4477-1-1s.44772-1 1-1h.49703v-1.85749c.00508-.84355.28699-1.66209.80237-2.3299.5154-.66782 1.2358-1.14796 2.0505-1.36667s1.6787-.16391 2.4592.15601c.7805.31991 1.4345.88723 1.8613 1.61481.2795.47636.1199 1.08908-.3565 1.36855-.4763.27947-1.089.11986-1.3685-.35649-.2052-.34977-.5196-.62249-.8948-.77628z" fill="currentColor" fill-rule="evenodd"/></svg>