<svg fill="none" height="24" viewBox="0 0 24 24" width="24" xmlns="http://www.w3.org/2000/svg"><path clip-rule="evenodd" d="m4.31966 3.40002c-.5081 0-.92.4119-.92.92 0 .50811.4119.92.92.92s.92-.41189.92-.92c0-.5081-.4119-.92-.92-.92zm-2.92.92c0-1.61267 1.30733-2.92 2.92-2.92 1.2614 0 2.33599.79984 2.74427 1.92h9.87197c.4082-1.12016 1.4828-1.91999 2.7442-1.91999 1.6127 0 2.92 1.30732 2.92 2.91999 0 1.61268-1.3073 2.92-2.92 2.92-1.2614 0-2.336-.79983-2.7442-1.92h-4.6558v5.67998h4.6558c.4082-1.12015 1.4828-1.91998 2.7442-1.91998 1.6127 0 2.92 1.30738 2.92 2.91998 0 1.6127-1.3073 2.92-2.92 2.92-1.2614 0-2.336-.7998-2.7442-1.92h-4.6558v5.68h4.6558c.4082-1.1201 1.4828-1.92 2.7442-1.92 1.6127 0 2.92 1.3074 2.92 2.92 0 1.6127-1.3073 2.92-2.92 2.92-1.2614 0-2.336-.7998-2.7442-1.92h-4.6958c-1.0824 0-1.96-.8775-1.96-1.96v-13.39998h-3.21617c-.40828 1.12017-1.48287 1.92-2.74427 1.92-1.61267 0-2.92-1.30733-2.92-2.92zm18.28044-.91999c-.5081 0-.92.41189-.92.91999 0 .50811.4119.92.92.92s.92-.41189.92-.92c0-.5081-.4119-.91999-.92-.91999zm0 7.67997c-.5081 0-.92.4119-.92.92s.4119.92.92.92.92-.4119.92-.92-.4119-.92-.92-.92zm0 7.68c-.5081 0-.92.4119-.92.92s.4119.92.92.92.92-.4119.92-.92-.4119-.92-.92-.92z" fill="currentColor" fill-rule="evenodd"/></svg>