<svg fill="none" height="24" viewBox="0 0 24 24" width="24" xmlns="http://www.w3.org/2000/svg"><path clip-rule="evenodd" d="m19.6799 3.40002c-.5081 0-.92.4119-.92.92 0 .50811.4119.92.92.92s.92-.41189.92-.92c0-.5081-.4119-.92-.92-.92zm-2.7443-.08c.4083-1.12017 1.4829-1.92 2.7443-1.92 1.6127 0 2.92 1.30733 2.92 2.92 0 1.61268-1.3073 2.92-2.92 2.92-1.2614 0-2.336-.79983-2.7443-1.92h-4.6557v5.67998h4.6557c.4083-1.12015 1.4829-1.91998 2.7443-1.91998 1.6127 0 2.92 1.30738 2.92 2.91998 0 1.6127-1.3073 2.92-2.92 2.92-1.2614 0-2.336-.7998-2.7443-1.92h-4.6557v5.68h4.6557c.4083-1.1201 1.4829-1.92 2.7443-1.92 1.6127 0 2.92 1.3074 2.92 2.92 0 1.6127-1.3073 2.92-2.92 2.92-1.2614 0-2.336-.7998-2.7443-1.92h-4.6957c-1.0825 0-1.96-.8775-1.96-1.96v-5.72h-3.21572c-.40829 1.1202-1.48288 1.92-2.74428 1.92-1.61267 0-2.92-1.3073-2.92-2.92 0-1.6126 1.30733-2.91998 2.92-2.91998 1.2614 0 2.33599.79983 2.74428 1.91998h3.21572v-5.71998c0-1.08247.8775-1.96 1.96-1.96zm-12.6157 7.75998c-.5081 0-.92.4119-.92.92s.4119.92.92.92.92-.4119.92-.92-.4119-.92-.92-.92zm15.36 0c-.5081 0-.92.4119-.92.92s.4119.92.92.92.92-.4119.92-.92-.4119-.92-.92-.92zm0 7.68c-.5081 0-.92.4119-.92.92s.4119.92.92.92.92-.4119.92-.92-.4119-.92-.92-.92z" fill="currentColor" fill-rule="evenodd"/></svg>