<svg fill="none" height="24" viewBox="0 0 24 24" width="24" xmlns="http://www.w3.org/2000/svg"><path clip-rule="evenodd" d="m3.7999 3.60002c0-1.21502.98498-2.2 2.2-2.2h12c1.215 0 2.2.98498 2.2 2.2v2.4c0 1.21503-.985 2.2-2.2 2.2h-12c-1.21502 0-2.2-.98497-2.2-2.2zm2.2-.2c-.11045 0-.2.08955-.2.2v2.4c0 .11046.08955.2.2.2h12c.1105 0 .2-.08954.2-.2v-2.4c0-.11045-.0895-.2-.2-.2zm-.68 8.87998v4.6557c1.12017.4083 1.92 1.4829 1.92 2.7443 0 1.6127-1.30733 2.92-2.92 2.92s-2.92-1.3073-2.92-2.92c0-1.2614.79983-2.336 1.92-2.7443v-4.6957c0-1.0825.87752-1.96 1.96-1.96h13.44c1.0825 0 1.96.8775 1.96 1.96v4.6957c1.1202.4083 1.92 1.4829 1.92 2.7443 0 1.6127-1.3073 2.92-2.92 2.92s-2.92-1.3073-2.92-2.92c0-1.2614.7998-2.336 1.92-2.7443v-4.6557h-5.68v4.6557c1.1202.4083 1.92 1.4829 1.92 2.7443 0 1.6127-1.3073 2.92-2.92 2.92s-2.92-1.3073-2.92-2.92c0-1.2614.79983-2.336 1.92-2.7443v-4.6557zm-1 6.48c-.5081 0-.92.4119-.92.92s.4119.92.92.92.92-.4119.92-.92-.4119-.92-.92-.92zm7.68 0c-.5081 0-.92.4119-.92.92s.4119.92.92.92.92-.4119.92-.92-.4119-.92-.92-.92zm7.68 0c-.5081 0-.92.4119-.92.92s.4119.92.92.92.92-.4119.92-.92-.4119-.92-.92-.92z" fill="currentColor" fill-rule="evenodd"/></svg>