<svg fill="none" height="24" viewBox="0 0 24 24" width="24" xmlns="http://www.w3.org/2000/svg"><path clip-rule="evenodd" d="m6.42367 5.39822c.18894-.25076.48469-.39822.79866-.39822h13.09767c1.2592 0 2.28 1.02079 2.28 2.28v10.24c0 1.2592-1.0208 2.28-2.28 2.28h-13.09767c-.31398 0-.60972-.1475-.79866-.3982l-4.36889-5.7982c-.53691-.7126-.53691-1.6946 0-2.4072zm1.29727 1.60178-4.06884 5.4 4.06884 5.4h12.59906c.1546 0 .28-.1254.28-.28v-10.24c0-.15464-.1254-.28-.28-.28zm2.29196 2.13289c.3905-.39052 1.0237-.39052 1.4142 0l1.8529 1.85291 1.8529-1.85291c.3905-.39052 1.0237-.39052 1.4142 0 .3905.39053.3905 1.02371 0 1.41421l-1.8529 1.8529 1.8529 1.8529c.3905.3905.3905 1.0237 0 1.4142s-1.0237.3905-1.4142 0l-1.8529-1.8529-1.8529 1.8529c-.3905.3905-1.0237.3905-1.4142 0-.39053-.3905-.39053-1.0237 0-1.4142l1.8529-1.8529-1.8529-1.8529c-.39053-.3905-.39053-1.02368 0-1.41421z" fill="currentColor" fill-rule="evenodd"/></svg>