<svg fill="none" height="24" viewBox="0 0 24 24" width="24" xmlns="http://www.w3.org/2000/svg"><path clip-rule="evenodd" d="m13.7006 2.83011c-.0154-.00037-.0309-.00037-.0464 0h-3.1222c-.0155-.00036-.0309-.00036-.0463 0h-3.98483c-.31282 0-.60762.14638-.79669.39561l-4.10097 5.40582c-.28721.37861-.26831.90706.04523 1.26417l9.59996 10.93399c.1899.2162.4637.3402.7515.3402s.5616-.124.7515-.3402l9.6-10.93399c.3108-.354.3324-.87691.0518-1.25534l-4.0078-5.40582c-.1886-.25442-.4866-.40444-.8033-.40444zm-4.64982 2h-2.05333l-2.58373 3.40582h3.32253zm-1.29182 5.40579h-3.15032l4.9675 5.6578zm6.70624 5.6105 4.926-5.6105h-3.0921zm-.2702-5.6105h-4.33541l2.14871 6.6899zm.0668-1.99997h-4.38175l1.31455-3.40582h1.79zm2.136 0-1.2772-3.40582h1.9681l2.525 3.40582z" fill="currentColor" fill-rule="evenodd"/></svg>