<svg fill="none" height="24" viewBox="0 0 24 24" width="24" xmlns="http://www.w3.org/2000/svg"><path clip-rule="evenodd" d="m11.9999 3.40002c-4.74965 0-8.6 3.85036-8.6 8.59998 0 4.7497 3.85035 8.6 8.6 8.6 4.7497 0 8.6-3.8503 8.6-8.6 0-4.74962-3.8503-8.59998-8.6-8.59998zm-10.6 8.59998c0-5.85419 4.74578-10.59998 10.6-10.59998 5.8542 0 10.6 4.74579 10.6 10.59998 0 5.8542-4.7458 10.6-10.6 10.6-5.85422 0-10.6-4.7458-10.6-10.6zm10.6-1.4c-.7732 0-1.4.6268-1.4 1.4s.6268 1.4 1.4 1.4 1.4-.6268 1.4-1.4-.6268-1.4-1.4-1.4zm-3.4 1.4c0-1.8777 1.5222-3.39998 3.4-3.39998s3.4 1.52228 3.4 3.39998c0 1.8778-1.5222 3.4-3.4 3.4s-3.4-1.5222-3.4-3.4z" fill="currentColor" fill-rule="evenodd"/></svg>