<svg fill="none" height="24" viewBox="0 0 24 24" width="24" xmlns="http://www.w3.org/2000/svg"><path clip-rule="evenodd" d="m9.60069 2.30933c1.36971-1.21245 3.42871-1.21245 4.79841 0l.7636.67593-.4678.52846.4678-.52846c.2708.23973.6141.38192.9751.40391l1.0179.06199c1.8259.1112 3.2818 1.56714 3.393 3.393l.062 1.0179c.022.36102.1642.70429.4039.97512l.676.7636c1.2124 1.36972 1.2124 3.42872 0 4.79842l-.676.7636c-.2397.2708-.3819.6141-.4039.9751l-.062 1.0179c-.1112 1.8259-1.5671 3.2818-3.393 3.393l-1.0179.062c-.361.022-.7043.1642-.9751.4039l-.7636.676c-1.3697 1.2124-3.4287 1.2124-4.79841 0l-.7636-.676c-.27083-.2397-.6141-.3819-.97512-.4039l-1.01791-.062c-1.82585-.1112-3.28179-1.5671-3.39299-3.393l-.06199-1.0179c-.02199-.361-.16418-.7043-.40391-.9751l.74878-.6628-.74878.6628-.67593-.7636c-1.21245-1.3697-1.21245-3.4287 0-4.79841l.74878.66281-.74878-.66282.67593-.7636c.23973-.27083.38192-.6141.40391-.97512l.06199-1.0179c.1112-1.82586 1.56714-3.2818 3.39299-3.393l1.01791-.06199c.36102-.02199.70429-.16418.97512-.40391zm3.47281 1.49757c-.6129-.54254-1.5343-.54254-2.1472 0l-.7636.67593c-.60522.53575-1.37236.8535-2.17915.90264l-1.01791.06199c-.81702.04976-1.46851.70125-1.51827 1.51827l-.06199 1.01791c-.04914.8068-.3669 1.57393-.90264 2.17916l-.67594.7636c-.54253.6129-.54253 1.5343 0 2.1472l.67594.7636c.53574.6052.8535 1.3724.90264 2.1791l.06199 1.018c.04976.817.70125 1.4685 1.51827 1.5182l1.01791.062c.80679.0492 1.57393.3669 2.17915.9027l.7636.6759c.6129.5425 1.5343.5425 2.1472 0l.7636-.6759c.6052-.5358 1.3724-.8535 2.1792-.9027l1.0179-.062c.817-.0497 1.4685-.7012 1.5182-1.5183l.062-1.0179c.0492-.8068.3669-1.5739.9027-2.1791l.6759-.7636c.5425-.6129.5425-1.5343 0-2.1472l-.6759-.7636c-.5358-.60523-.8535-1.37236-.9027-2.17916l-.062-1.01791c-.0497-.81702-.7012-1.46851-1.5182-1.51827l-1.0179-.06199c-.8068-.04914-1.574-.36689-2.1792-.90264l.6628-.74878-.6628.74878zm3.2335 3.88599c.3905.39052.3905 1.02369 0 1.41421l-7.19999 7.2c-.39053.3905-1.02369.3905-1.41422 0-.39052-.3905-.39052-1.0237 0-1.4142l7.20001-7.20001c.3905-.39053 1.0237-.39053 1.4142 0zm-8.07087.53149c.39249-.38855 1.02564-.38535 1.41419.00714l.01415.01429c.38853.39249.38533 1.02565-.00714 1.41419-.39249.3886-1.02565.3854-1.4142-.00714l-.01415-.01429c-.38854-.39249-.38534-1.02565.00715-1.41419zm7.52477 6.18052.0141.0143c.3885.3925.3853 1.0256-.0072 1.4142-.3925.3885-1.0256.3853-1.4142-.0072l-.0141-.0143c-.3886-.3925-.3853-1.0257.0072-1.4142s1.0256-.3853 1.4142.0072z" fill="currentColor" fill-rule="evenodd"/></svg>