<svg fill="none" height="24" viewBox="0 0 24 24" width="24" xmlns="http://www.w3.org/2000/svg"><path clip-rule="evenodd" d="m13.6886 1.64989c.9468-.55654 2.119-.14574 2.568.8126l-.9055.42431m-.827.5919-1.7199 1.011c-.5515.32418-1.2292.33343-1.7894.02338l-1.74421-.96542-.83313 1.8984c-.25055.5709-.77434.99171-1.40985 1.08536l-1.99599.29416.40672 2.10213c.11739.60671-.06667 1.24319-.50874 1.68909l-1.48413 1.4969 1.51923 1.4565c.45369.435.65296 1.0672.5504 1.6765l-.35525 2.1104 2.0001.2411c.63811.0769 1.17291.4843 1.43769 1.0494l.87802 1.8737 1.71994-1.011c.5515-.3242 1.2292-.3334 1.7894-.0234l1.7442.9654.8331-1.8984c.2506-.5709.7744-.9917 1.4099-1.0853l1.996-.2942-.4067-2.1021c-.1174-.6067.0666-1.2432.5087-1.6891l1.4841-1.4969-1.5192-1.4565c-.4537-.43499-.653-1.06718-.5504-1.67645l.8307.13984-.8307-.13984.3553-2.11049-2.0002-.24105c-.6381-.07691-1.1729-.48429-1.4376-1.04935zm-7.01138-.90232c.42453-.96735 1.5846-1.41053 2.54618-.87828l1.8272 1.01132 1.8025-1.05953m3.4891 2.77816-.9211-1.96556zm0 0 2.0657.24896c1.0819.1304 1.7609 1.15668 1.5902 2.17049l-.3675 2.18353 1.557 1.49267c.7565.7253.7702 1.945.0334 2.6881l-1.5211 1.5342.4206 2.1735c.1952 1.0092-.4583 2.0511-1.535 2.2098l-2.0603.3036-.8736 1.9907c-.4245.9674-1.5846 1.4106-2.5462.8783l-1.8272-1.0113-1.8025 1.0595c-.94683.5566-2.11898.1458-2.56804-.8126l-.92104-1.9655-2.06572-.249c-1.08193-.1304-1.76089-1.1567-1.59024-2.1705l.36755-2.1835-1.557-1.4927c-.75647-.7253-.77017-1.945-.03342-2.6881l1.5211-1.53418-.42055-2.17356c-.19525-1.00917.45826-2.05107 1.53496-2.20975l2.06028-.30363.87364-1.9907m-.90666 2.06596c.00003-.00008.00007-.00016.0001-.00024zm9.70124 3.05069c.3905.39053.3905 1.02369 0 1.41421l-7.19998 7.19996c-.39052.3906-1.02369.3906-1.41421 0-.39052-.3905-.39052-1.0236 0-1.4142l7.19999-7.19997c.3905-.39052 1.0237-.39052 1.4142 0zm-8.07086.53149c.39249-.38855 1.02565-.38535 1.4142.00714l.01414.01429c.38852.3925.38532 1.02565-.00714 1.4142-.39249.38855-1.02565.38535-1.41419-.00714l-.01415-.01429c-.38855-.39249-.38535-1.02565.00714-1.4142zm6.11056 6.17338c.3925-.3886 1.0256-.3854 1.4142.0071l.0141.0143c.3886.3925.3853 1.0257-.0072 1.4142-.3925.3886-1.0256.3853-1.4142-.0072l-.0141-.0142c-.3885-.3925-.3853-1.0257.0072-1.4142z" fill="currentColor" fill-rule="evenodd"/></svg>