<svg fill="none" height="24" viewBox="0 0 24 24" width="24" xmlns="http://www.w3.org/2000/svg"><path clip-rule="evenodd" d="m10.9127 1.82124c.616-.56166 1.5584-.56166 2.1744 0l1.3181 1.20193 1.7426-.38183c.8142-.17842 1.6304.29278 1.883 1.08718l.5406 1.69998 1.7.5406c.7944.25261 1.2656 1.06876 1.0871 1.88303l-.3818 1.74253 1.202 1.31814c.5616.616.5616 1.5584 0 2.1744l-1.202 1.3181.3818 1.7426c.1785.8142-.2927 1.6304-1.0871 1.883l-1.7.5406-.5406 1.7c-.2526.7944-1.0688 1.2656-1.883 1.0871l-1.7426-.3818-1.3181 1.2019c-.616.5617-1.5584.5617-2.1744 0l-1.31813-1.2019-1.74253.3818c-.81428.1785-1.63042-.2927-1.88304-1.0871l-.54059-1.7-1.69998-.5406c-.7944-.2526-1.2656-1.0688-1.08718-1.883l.38182-1.7426-1.20193-1.3181c-.56165-.616-.56165-1.5584 0-2.1744l.73894.6738-.73894-.6738 1.20193-1.31814-.38182-1.74253c-.17842-.81427.29278-1.63042 1.08718-1.88303l1.69998-.5406.54059-1.69998c.25262-.7944 1.06877-1.2656 1.88304-1.08718l1.74253.38183 1.31813-1.20193.4828.52948zm3.6403 19.02086c-.0002.0001-.0003.0003-.0005.0005zm6.289-6.289.0005-.0005zm-8.8421-11.01657-1.2055 1.09924c-.387.35282-.92107.49593-1.43258.38385l-1.59365-.3492-.49441 1.55474c-.15869.49902-.54967.89-1.04869 1.04869l-1.55474.49441.3492 1.59365c.11208.51151-.03103 1.04559-.38385 1.43249l-1.09924 1.2056 1.09924 1.2055c.35282.387.49593.9211.38385 1.4326l-.3492 1.5936 1.55474.4944c.49902.1587.89.5497 1.04869 1.0487l.49441 1.5548 1.59365-.3492c.51151-.1121 1.04558.031 1.43258.3838l1.2055 1.0993 1.2055-1.0993c.387-.3528.9211-.4959 1.4326-.3838l1.5936.3492.4944-1.5548c.1587-.499.5497-.89 1.0487-1.0487l1.5548-.4944-.3492-1.5936c-.1121-.5115.031-1.0456.3838-1.4326l1.0993-1.2055-1.0993-1.2056c-.3528-.3869-.4959-.92098-.3838-1.43249l.3492-1.59365-1.5548-.49441c-.499-.15869-.89-.54967-1.0487-1.04869l-.4944-1.55474-1.5936.3492c-.5115.11208-1.0456-.03103-1.4326-.38385zm8.7009 8.20307-.0005.0005zm-8.9613 8.9613c.0002-.0002.0004-.0003.0005-.0005zm4.5675-13.00801c.3905.39052.3905 1.02369 0 1.41421l-7.19999 7.2c-.39053.3905-1.02369.3905-1.41422 0-.39052-.3905-.39052-1.0237 0-1.4142l7.20001-7.20001c.3905-.39053 1.0237-.39053 1.4142 0zm-8.07087.53149c.39249-.38855 1.02564-.38535 1.41419.00714l.01415.01429c.38853.39249.38533 1.02565-.00714 1.41419-.39249.3886-1.02565.3854-1.4142-.00714l-.01415-.01429c-.38854-.39249-.38534-1.02565.00715-1.41419zm6.11057 6.17332c.3925-.3885 1.0256-.3853 1.4142.0072l.0141.0143c.3885.3925.3853 1.0256-.0072 1.4142-.3925.3885-1.0256.3853-1.4142-.0072l-.0141-.0143c-.3886-.3925-.3853-1.0257.0072-1.4142z" fill="currentColor" fill-rule="evenodd"/></svg>