<svg fill="none" height="24" viewBox="0 0 24 24" width="24" xmlns="http://www.w3.org/2000/svg"><path clip-rule="evenodd" d="m3 2c.55228 0 1 .44772 1 1v2.91892c0 .50965.42258.94594.9726.94594h14.0548c.55 0 .9726-.43629.9726-.94594v-2.91892c0-.55228.4477-1 1-1s1 .44772 1 1v2.91892c0 1.63978-1.3438 2.94594-2.9726 2.94594h-14.0548c-1.62885 0-2.9726-1.30616-2.9726-2.94594v-2.91892c0-.55228.44772-1 1-1zm-1 10.0001c0-.5523.44772-1 1-1h.06007c.55228 0 1 .4477 1 1 0 .5522-.44772 1-1 1h-.06007c-.55228 0-1-.4478-1-1zm4.42492 0c0-.5523.44771-1 1-1h.06006c.55229 0 1 .4477 1 1 0 .5522-.44771 1-1 1h-.06006c-.55229 0-1-.4478-1-1zm4.54508 0c0-.5523.4477-1 1-1h.06c.5523 0 1 .4477 1 1 0 .5522-.4477 1-1 1h-.06c-.5523 0-1-.4478-1-1zm4.485 0c0-.5523.4477-1 1-1h.06c.5523 0 1 .4477 1 1 0 .5522-.4477 1-1 1h-.06c-.5523 0-1-.4478-1-1zm4.4849 0c0-.5523.4477-1 1-1h.0601c.5523 0 1 .4477 1 1 0 .5522-.4477 1-1 1h-.0601c-.5523 0-1-.4478-1-1zm-14.9673 5.135c-.55002 0-.9726.4363-.9726.946v2.9189c0 .5523-.44772 1-1 1s-1-.4477-1-1v-2.9189c0-1.6398 1.34375-2.946 2.9726-2.946h14.0548c1.6288 0 2.9726 1.3062 2.9726 2.946v2.9189c0 .5523-.4477 1-1 1s-1-.4477-1-1v-2.9189c0-.5097-.4226-.946-.9726-.946z" fill="currentColor" fill-rule="evenodd"/></svg>