<svg fill="none" height="24" viewBox="0 0 25 24" width="25" xmlns="http://www.w3.org/2000/svg"><path d="m8.89148 3.00015c.04212.0005.08532.00243.12824.00557 1.70938.27577 2.64928 1.96517 2.78548 3.45493.199 1.35182-.4384 3.0893-2.02648 3.39221-.23035.04099-.46971.02226-.69488-.03484-1.91236-.59932-2.76816-2.71614-2.49173-4.46953.08035-1.13244.99374-2.36391 2.29937-2.34834zm7.24702.07247c1.0629.02438 1.8909 1.03192 2.0593 1.97902.3551 1.87642-.5582 4.20787-2.6498 4.80122-.1959.03982-.3985.04392-.5964.01533-1.4137-.2202-2.0126-1.70157-1.9535-2.89746.0426-1.57753.9194-3.4016 2.6722-3.84515.1602-.03971.3164-.05645.4682-.05296zm-11.87857 5.32942c1.83875.10282 3.09936 1.81756 3.27907 3.41866.24333 1.1548-.41538 2.6994-1.82519 2.7916-1.96579-.0227-3.30685-1.9859-3.36257-3.6752-.12434-1.11719.57981-2.47337 1.90869-2.53506zm16.09407.38047c.7823-.00629 1.5517.43166 1.8073 1.17487.682 1.98812-.6875 4.50612-2.9405 4.92382-.9403.1504-1.7665-.5245-1.9997-1.3365-.4941-1.7368.5208-3.75356 2.2382-4.54198.2799-.14677.5886-.21774.8947-.22021zm-8.2431 3.56499c1.5336.0031 3.0912.7305 4.0843 1.8132 1.0725 1.262 1.9512 2.7306 2.2949 4.3232.4176 1.1465-.5289 2.4658-1.8401 2.4738-1.5775.0409-2.9332-.9715-4.5018-1.0467-1.3309-.1896-2.5225.4574-3.71898.8808-1.01873.4073-2.42643.2512-2.94654-.7735-.40911-1.0444.19306-2.158.6919-3.0856 1.01744-1.5054 2.10744-3.0877 3.77562-4.0277.6687-.3873 1.4117-.559 2.1607-.5575z" fill="currentColor"/></svg>