<svg fill="none" height="24" viewBox="0 0 24 24" width="24" xmlns="http://www.w3.org/2000/svg"><path clip-rule="evenodd" d="m4.7999 10.6c-.7732 0-1.4.6268-1.4 1.4s.6268 1.4 1.4 1.4 1.4-.6268 1.4-1.4-.6268-1.4-1.4-1.4zm-3.4 1.4c0-1.8778 1.52223-3.39999 3.4-3.39999s3.4 1.52219 3.4 3.39999-1.52223 3.4-3.4 3.4-3.4-1.5222-3.4-3.4zm10.6-1.4c-.7732 0-1.4.6268-1.4 1.4s.6268 1.4 1.4 1.4 1.4-.6268 1.4-1.4-.6268-1.4-1.4-1.4zm-3.4 1.4c0-1.8778 1.5222-3.39999 3.4-3.39999s3.4 1.52219 3.4 3.39999-1.5222 3.4-3.4 3.4-3.4-1.5222-3.4-3.4zm10.6-1.4c-.7732 0-1.4.6268-1.4 1.4s.6268 1.4 1.4 1.4 1.4-.6268 1.4-1.4-.6268-1.4-1.4-1.4zm-3.4 1.4c0-1.8778 1.5222-3.39999 3.4-3.39999s3.4 1.52219 3.4 3.39999-1.5222 3.4-3.4 3.4-3.4-1.5222-3.4-3.4z" fill="currentColor" fill-rule="evenodd"/></svg>