<svg fill="none" height="24" viewBox="0 0 24 24" width="24" xmlns="http://www.w3.org/2000/svg"><path clip-rule="evenodd" d="m12.0011 2c.5523 0 1 .44772 1 1v9.5313l2.865-2.85975c.3909-.39017 1.024-.3896 1.4142.00128.3902.39087.3896 1.02407-.0013 1.41417l-4.5714 4.5632c-.3904.3897-1.0226.3897-1.413 0l-4.57138-4.5632c-.39088-.3901-.39145-1.0233-.00128-1.41417.39017-.39088 1.02334-.39145 1.41421-.00128l2.86495 2.85975v-9.5313c0-.55228.4477-1 1-1zm7.9989 12.2044c.5523 0 1 .4477 1 1v3.6881c0 .8078-.304 1.5923-.8604 2.1786-.5581.5881-1.3266.9289-2.1396.9289h-12c-.81304 0-1.58149-.3408-2.13958-.9289-.5564-.5863-.86042-1.3708-.86042-2.1786v-3.6881c0-.5523.44772-1 1-1s1 .4477 1 1v3.6881c0 .3101.1174.5977.31115.8019.19206.2023.44103.3056.68885.3056h12c.2478 0 .4968-.1033.6889-.3056.1937-.2042.3111-.4918.3111-.8019v-3.6881c0-.5523.4477-1 1-1z" fill="currentColor" fill-rule="evenodd"/></svg>