<svg fill="none" height="24" viewBox="0 0 24 24" width="24" xmlns="http://www.w3.org/2000/svg"><path clip-rule="evenodd" d="m11.2857 4c-2.59213 0-4.71427 2.13056-4.71427 4.78455 0 .20391.01251.40441.03671.60081.03503.28437-.0536.5701-.24342.78474-.10061.1138-.22452.2017-.36143.2593-.16721.0801-.35516.1129-.54308.0919-.08042-.009-.16245-.0137-.24592-.0137-1.21143 0-2.21429.9975-2.21429 2.2538 0 1.161.90368 2.0226 2.21429 2.0226h2.80133c.55229 0 1 .4478 1 1 0 .5523-.44771 1-1 1h-2.80133c-2.2398 0-4.21429-1.5895-4.21429-4.0226 0-2.1204 1.54287-3.89392 3.57517-4.20531.11914-3.63051 3.06699-6.55609 6.71053-6.55609 2.2813 0 4.2914 1.14926 5.5026 2.89599.0703-.00247.1409-.00372.2117-.00372 3.3252 0 6 2.72538 6 6.06153 0 3.1024-2.2847 5.3549-5.1424 5.7687-.0475.0068-.0954.0103-.1433.0103h-2.5893c-.5523 0-1-.4477-1-1s.4477-1 1-1h2.5138c1.9533-.312 3.3612-1.8045 3.3612-3.779 0-2.2547-1.8023-4.06153-4-4.06153-.1999 0-.3957.01481-.5866.04324-.4117.06129-.8182-.13876-1.0208-.50229-.813-1.4587-2.3512-2.43322-4.1069-2.43322zm.3572 4.86915c.5522 0 1 .44772 1 1v8.69395l.7547-.7648c.388-.393 1.0211-.3972 1.4142-.0093.3931.388.3973 1.0211.0093 1.4142l-2.4665 2.4992c-.3879.3931-1.0209.3973-1.414.0095l-2.5335-2.4992c-.39318-.3879-.39749-1.021-.00963-1.4142s1.02101-.3975 1.41418-.0096l.83125.8199v-8.73965c0-.55228.4477-1 1-1z" fill="currentColor" fill-rule="evenodd"/></svg>