<svg fill="none" height="24" viewBox="0 0 24 24" width="24" xmlns="http://www.w3.org/2000/svg"><path clip-rule="evenodd" d="m12.0012 2c.5523 0 1 .44772 1 1v9.6551l3.2535-3.00986c.4054-.37505 1.0381-.35044 1.4132.05498.375.40538.3504 1.03808-.055 1.41318l-4.9326 4.5631c-.3833.3546-.9749.3546-1.3582 0l-4.93259-4.5631c-.40541-.3751-.43003-1.0078-.05498-1.41318.37505-.40542 1.00773-.43003 1.41315-.05498l3.25352 3.00986v-9.6551c0-.55228.4477-1 1-1zm-8.71663 17.684c.38587-.3951 1.01899-.4026 1.41411-.0167.21545.2104.5126.3327.82727.3327h12.94815c.3146 0 .6118-.1223.8272-.3327.3951-.3859 1.0283-.3784 1.4141.0167.3859.3952.3784 1.0283-.0167 1.4142-.594.58-1.3946.9018-2.2246.9018h-12.94815c-.83002 0-1.63067-.3218-2.22463-.9018-.39512-.3859-.40262-1.019-.01675-1.4142z" fill="currentColor" fill-rule="evenodd"/></svg>