<svg fill="none" height="24" viewBox="0 0 24 24" width="24" xmlns="http://www.w3.org/2000/svg"><path clip-rule="evenodd" d="m17.3888 1.62639c.8342-.834692 2.1871-.83526 3.0221-.00127l1.9622 1.95996c.8354.83435.8359 2.18795.0013 3.02301l-9.263 9.26781c-.2977.2978-.6767.5011-1.0895.5843l-4.13789.8337c-.32836.0661-.66805-.0365-.90483-.2734-.23679-.2369-.33922-.5767-.27287-.905l.83525-4.1329c.08326-.4119.28614-.7902.58325-1.0875zm1.6087 1.41377c-.0536-.05358-.1406-.05354-.1942.00008l-9.26391 9.26876c-.01909.0191-.03211.0434-.03746.0698l-.537 2.6571 2.66187-.5363c.0266-.0054.0509-.0184.07-.0376l9.263-9.26776c.0536-.05363.0536-.14054-.0001-.19413zm-13.5856 1.76353c-1.33209 0-2.4119 1.07982-2.4119 2.41179v11.37272c0 1.332 1.07981 2.4118 2.4119 2.4118h11.373c1.3321 0 2.4119-1.0798 2.4119-2.4118v-5.6864c0-.5522.4477-1 1-1s1 .4478 1 1v5.6864c0 2.4366-1.9753 4.4118-4.4119 4.4118h-11.373c-2.4366 0-4.4119-1.9752-4.4119-4.4118v-11.37272c0-2.43659 1.9753-4.41179 4.4119-4.41179h5.6865c.5523 0 1 .44772 1 1s-.4477 1-1 1z" fill="currentColor" fill-rule="evenodd"/></svg>