<svg fill="none" height="24" viewBox="0 0 24 24" width="24" xmlns="http://www.w3.org/2000/svg"><path clip-rule="evenodd" d="m14.7249 4.0932c.8587-.85921 2.2514-.8598 3.1108-.0013l2.0704 2.06807c.8599.85885.8604 2.25216.0013 3.11172l-9.7736 9.77901c-.30646.3066-.69662.5159-1.12154.6015l-4.36599.8797c-.32836.0662-.66805-.0365-.90483-.2734-.23679-.2369-.33923-.5767-.27288-.905l.88131-4.3608c.08569-.4241.29451-.8135.60034-1.1194zm1.6974 1.41371c-.0781-.07805-.2047-.07799-.2828.00012l-1.3602 1.36096 2.3521 2.35209 1.3614-1.36221c.0781-.07814.0781-.20481-.0001-.28288zm-.7047 5.12779-2.3521-2.35211-7.00069 7.00451c-.0278.0278-.04679.0632-.05458.1017l-.58305 2.8851 2.89003-.5823c.03863-.0078.0741-.0268.10195-.0547z" fill="currentColor" fill-rule="evenodd"/></svg>