<svg fill="none" height="24" viewBox="0 0 24 24" width="24" xmlns="http://www.w3.org/2000/svg"><path clip-rule="evenodd" d="m2 7.33333c0-1.80636 1.42111-3.33333 3.25-3.33333h13.5c1.8289 0 3.25 1.52697 3.25 3.33333v9.33337c0 1.8063-1.4211 3.3333-3.25 3.3333h-13.5c-1.82889 0-3.25-1.527-3.25-3.3333zm3.35751-1.33333 6.58529 4.7279c.0209.015.0403.0198.0572.0198s.0363-.0048.0572-.0198l6.5853-4.7279zm14.64249 1.47635c-.0324.03055-.0671.0593-.1043.08597l-6.6721 4.79028c-.7338.5268-1.7134.5268-2.4472 0l-6.67211-4.79028c-.03715-.02667-.07193-.05542-.10429-.08597v9.19035c0 .7709.59361 1.3333 1.25 1.3333h13.5c.6564 0 1.25-.5624 1.25-1.3333z" fill="currentColor" fill-rule="evenodd"/></svg>