<svg fill="none" height="24" viewBox="0 0 24 24" width="24" xmlns="http://www.w3.org/2000/svg"><path clip-rule="evenodd" d="m18.6508 4.24075c.4193.35942.4679.99072.1085 1.41004l-.9851 1.14921h2.2258c.5523 0 1 .44772 1 1 0 .55229-.4477 1-1 1h-3.9401l-5.4857 6.4h9.4258c.5523 0 1 .4477 1 1s-.4477 1-1 1h-11.14006l-2.10068 2.4508c-.35943.4193-.99073.4679-1.41005.1085-.41933-.3595-.46789-.9908-.10847-1.4101l.98504-1.1492h-2.22578c-.55228 0-1-.4477-1-1s.44772-1 1-1h3.94007l5.48573-6.4h-9.4258c-.55228 0-1-.44771-1-1 0-.55228.44772-1 1-1h11.1401l2.1006-2.45079c.3595-.41932.9908-.46789 1.4101-.10846z" fill="currentColor" fill-rule="evenodd"/></svg>