<svg fill="none" height="24" viewBox="0 0 24 24" width="24" xmlns="http://www.w3.org/2000/svg"><path clip-rule="evenodd" d="m14.8572 2.99999c0-.55228.4477-.99999 1-.99999l5.1428.00003c.2652 0 .5195.10536.7071.2929.1875.18754.2929.44189.2929.70711l-.0001 5.1426c0 .55228-.4477.99999-1 .99999-.5523-.00001-1-.44773-1-1.00002v-2.72834l-5.2924 5.29243c-.3905.3905-1.0237.3905-1.4142 0s-.3905-1.0237 0-1.41422l5.2925-5.29247-2.7286-.00001c-.5523 0-1-.44772-1-1.00001zm-12.56427-.70708c.18754-.18753.44189-.29289.70711-.29288l5.14272.00007c.55228 0 .99999.44772.99999 1.00001-.00001.55228-.44773.99999-1.00002.99999l-2.72846-.00004 5.29323 5.29325c.3905.39052.3905 1.02369 0 1.41419s-1.02367.3905-1.41419 0l-5.2933-5.29327-.00001 2.7285c0 .55228-.44772.99999-1.00001.99999-.55228 0-.99999-.44772-.99999-1l.00003-5.1427c0-.26522.10536-.51957.2929-.70711zm8.41457 10.99999c.3905.3905.3905 1.0237 0 1.4142l-5.29286 5.2929h2.72862c.55229 0 1 .4477 1 1-.00001.5523-.44772 1-1.00001 1h-5.14281c-.26522 0-.51958-.1054-.70711-.2929-.18754-.1876-.29289-.4419-.29289-.7071l.00007-5.1426c.00001-.5523.44773-1 1.00001-1 .55229 0 1 .4477.99999 1l-.00004 2.7283 5.29284-5.2928c.39052-.3905 1.02369-.3905 1.41419 0zm2.5858 0c.3905-.3905 1.0237-.3905 1.4142 0l5.2925 5.2925v-2.7285c0-.5523.4477-1 1-1s1 .4477 1 1v5.1427c0 .2652-.1054.5195-.2929.7071-.1876.1875-.4419.2929-.7071.2929l-5.1428-.0001c-.5522 0-1-.4477-.9999-1 0-.5523.4477-1 1-1h2.7284l-5.2924-5.2924c-.3905-.3905-.3905-1.0237 0-1.4142z" fill="currentColor" fill-rule="evenodd"/></svg>