<svg fill="none" height="24" viewBox="0 0 24 24" width="24" xmlns="http://www.w3.org/2000/svg"><path clip-rule="evenodd" d="m4.6928 3.79289c.39052-.39052 1.02369-.39052 1.41421 0l14.99999 15.00001c.3905.3905.3905 1.0237 0 1.4142s-1.0237.3905-1.4142 0l-1.9148-1.9148c-1.5102.925-3.4236 1.5591-5.7944 1.5203-4.00156-.0654-6.65063-1.9199-8.27706-3.7485-.80771-.9081-1.36483-1.8099-1.72112-2.486-.17862-.339-.30816-.6238-.3945-.8281-.0432-.1023-.0757-.1846-.0982-.2437-.01126-.0295-.02003-.0533-.02639-.0709l-.00777-.0217-.00255-.0073-.00096-.0028-.00039-.0011c-.00017-.0005-.00034-.001.94524-.3264-.9543-.2988-.9542-.2991-.95409-.2995l.00078-.0025.00139-.0043.00401-.0125.01302-.0392c.01093-.0324.02642-.0772.04674-.133.04062-.1117.10065-.2682.18224-.4601.16292-.3833.41329-.9113.76889-1.50718.64505-1.08096 1.65336-2.41353 3.14021-3.50042l-.91029-.91029c-.39053-.39053-.39053-1.02369 0-1.41422zm2.34554 3.75977c-1.34679.91088-2.2674 2.10031-2.85802 3.09004-.30163.5055-.51212.9504-.64573 1.2647-.02345.0552-.04449.1062-.0632.1528.06644.1515.15998.3513.28338.5855.29948.5683.76929 1.3282 1.44619 2.0892 1.3428 1.5098 3.49372 3.0236 6.81534 3.078 1.7498.0286 3.1611-.3789 4.2969-.9854l-2.2159-2.2159c-.5794.4459-1.3094.7101-2.0974.7101-1.8519 0-3.4-1.4678-3.4-3.3354 0-.8014.28909-1.5357.76458-2.10751zm3.75536 3.75534c-.1243.2002-.1938.4318-.1938.6783 0 .7119.6009 1.3354 1.4 1.3354.2379 0 .4596-.056.6535-.154zm-7.4491.4402c-.00015-.0004-.00012-.0004 0 0zm-.9447.3279-.95409-.2995-.0984.3142.10691.3107zm9.6-5.9761c-.381 0-.745.02012-1.0925.0577-.5491.05937-1.04233-.33762-1.1017-.88671-.05937-.54908.3376-1.04233.8867-1.1017.4202-.04544.8559-.06929 1.3075-.06929 4.0692 0 6.7296 1.93063 8.3447 3.8428.8016.94904 1.3486 1.89464 1.696 2.6031.1742.3552.2997.6539.3829.8679.0416.107.0728.1931.0943.2548.0108.0309.0191.0556.0252.0739l.0073.0224.0024.0075.0008.0028.0004.0011c.0002.0005.0003.001-.954.2998.949.3152.949.3154.9489.3156l-.001.0031-.0017.005-.0049.0143c-.004.0115-.0094.0268-.0162.0458-.0136.0379-.0329.0903-.0584.1558-.0509.1308-.1263.314-.2289.5371-.2047.4453-.5199 1.0543-.9675 1.7243-.3067.4593-.9277.5829-1.387.2761-.4592-.3068-.5828-.9278-.276-1.387.3786-.5668.6441-1.0806.8134-1.4488.0431-.0939.0798-.1779.1105-.2506-.0654-.1629-.1596-.3821-.2863-.6404-.294-.5996-.7566-1.3981-1.4281-2.19307-1.3311-1.5759-3.4706-3.13333-6.8168-3.13333zm9.6 5.9761.9489.3156.1018-.3066-.0964-.3078zm-.9536.3011c.0001.0004.0002.0005 0 0z" fill="currentColor" fill-rule="evenodd"/></svg>