<svg fill="none" height="24" viewBox="0 0 24 24" width="24" xmlns="http://www.w3.org/2000/svg"><path clip-rule="evenodd" d="m1.3999 5.48005c0-1.49687 1.80979-2.24651 2.86823-1.18806l6.51997 6.52001c.6562.6561.6562 1.7199 0 2.3761l-6.51997 6.52c-1.05844 1.0584-2.86823.3088-2.86823-1.1881zm2 .77213v11.49572l5.74784-5.7479zm9.3197-.77213c0-1.49688 1.8098-2.24651 2.8682-1.18806l6.52 6.52001c.6561.6561.6561 1.7199 0 2.3761l-6.52 6.52c-1.0584 1.0584-2.8682.3088-2.8682-1.1881zm2 .77213v11.49572l5.7478-5.7479zm5.974 5.97402c-.0001-.0001-.0002-.0002-.0004-.0004zm-.0004-.452c.0002-.0001.0003-.0002.0004-.0003z" fill="currentColor" fill-rule="evenodd"/></svg>