<svg fill="none" height="24" viewBox="0 0 24 24" width="24" xmlns="http://www.w3.org/2000/svg"><path clip-rule="evenodd" d="m4 5c0-1.65685 1.34315-3 3-3h9c1.6569 0 3 1.34315 3 3v14.8829c0 1.296-1.5328 1.9821-2.4993 1.1187l-5.0007-4.4671-5.0007 4.4671c-.96654.8634-2.4993.1773-2.4993-1.1187zm3-1c-.55228 0-1 .44772-1 1v13.7658l4.8338-4.318c.3795-.339.9529-.339 1.3324 0l4.8338 4.318v-13.7658c0-.55228-.4477-1-1-1zm.7899 2.48395c0-.55229.44772-1 1-1h5.4167c.5523 0 1 .44771 1 1 0 .55228-.4477 1-1 1h-5.4167c-.55228 0-1-.44772-1-1z" fill="currentColor" fill-rule="evenodd"/></svg>