<svg fill="none" height="24" viewBox="0 0 24 24" width="24" xmlns="http://www.w3.org/2000/svg"><path clip-rule="evenodd" d="m2.2999 4.8c.00001-1.87775 1.52224-3.39998 3.4-3.39998h10.8003c1.8777 0 3.4 1.52223 3.4 3.4v4.8c0 .55228-.4477.99998-1 .99998s-1-.4477-1-.99998v-4.8c0-.77319-.6268-1.4-1.4-1.4h-10.8003c-.7732 0-1.4.6268-1.4 1.4l-.0001 14.39998c0 .7732.6268 1.4 1.4 1.4h6c.5523 0 1 .4477 1 1s-.4477 1-1 1h-6.00001c-1.87777 0-3.4-1.5223-3.39999-3.4001zm4.20028 2.40002c0-.55228.44771-1 1-1h7.20002c.5523 0 1 .44772 1 1 0 .55229-.4477 1-1 1h-7.20002c-.55229 0-1-.44771-1-1zm0 3.59998c0-.5523.44771-.99998 1-.99998h7.20002c.5523 0 1 .44768 1 .99998s-.4477 1-1 1h-7.20002c-.55229 0-1-.4477-1-1zm10.84722 2.2493c.4605-.5171 1.1297-.8221 1.9249-.8221.7886 0 1.4354.3275 1.8636.8617.4048.505.5643 1.1284.5643 1.6902v3.7193c0 1.081-.5634 2.0295-1.2782 2.6799-.7158.6513-1.6956 1.1095-2.7155 1.1095-1.0191 0-2.0013-.4576-2.7197-1.1076-.7173-.649-1.2866-1.5978-1.2866-2.6818v-2.9444c0-.5523.4477-1 1-1s1 .4477 1 1v2.9444c0 .3709.2063.8168.6285 1.1988.421.3809.942.5906 1.3778.5906.4351 0 .9522-.209 1.3695-.5888.4182-.3805.6242-.8267.6242-1.2006v-3.7193c0-.2084-.062-.3609-.1248-.4393-.0281-.0351-.0578-.0583-.0927-.0748-.0347-.0165-.0991-.0378-.2104-.0378-.2584 0-.3722.0859-.4312.1521-.0758.0852-.1346.2267-.1346.3998v3.5643c0 .5523-.4477 1-1 1-.5522 0-1-.4477-1-1v-3.5643c0-.5971.1973-1.2316.6409-1.7298zm-10.84722 1.3507c0-.5523.44771-1 1-1h3.60002c.5523 0 1 .4477 1 1s-.4477 1-1 1h-3.60002c-.55229 0-1-.4477-1-1z" fill="currentColor" fill-rule="evenodd"/></svg>