<svg fill="none" height="24" viewBox="0 0 24 24" width="24" xmlns="http://www.w3.org/2000/svg"><path clip-rule="evenodd" d="m2.2059 4.8c.00002-1.87775 1.52224-3.39998 3.4-3.39998h10.8003c1.8777 0 3.4 1.52223 3.4 3.4v8.39998c0 .5523-.4477 1-1 1s-1-.4477-1-1v-8.39998c0-.77319-.6268-1.4-1.4-1.4h-10.8003c-.77319 0-1.39999.6268-1.4 1.4l-.00009 14.39998c0 .7732.62679 1.4 1.39999 1.4h6c.5523 0 1 .4477 1 1s-.4477 1-1 1h-6c-1.87777 0-3.4-1.5223-3.39999-3.4001zm4.20029 2.40002c0-.55228.44771-1 1-1h7.20001c.5523 0 1 .44772 1 1 0 .55229-.4477 1-1 1h-7.20001c-.55229 0-1-.44771-1-1zm0 3.59998c0-.5523.44771-.99998 1-.99998h7.20001c.5523 0 1 .44768 1 .99998s-.4477 1-1 1h-7.20001c-.55229 0-1-.4477-1-1zm0 3.6c0-.5523.44771-1 1-1h3.60001c.5523 0 1 .4477 1 1s-.4477 1-1 1h-3.60001c-.55229 0-1-.4477-1-1zm6.59961 3.3941c0-.5522.4477-1 1-1h6.7882c.5523 0 1 .4478 1 1 0 .5523-.4477 1-1 1h-6.7882c-.5523 0-1-.4477-1-1z" fill="currentColor" fill-rule="evenodd"/></svg>