<svg fill="none" height="24" viewBox="0 0 24 24" width="24" xmlns="http://www.w3.org/2000/svg"><path clip-rule="evenodd" d="m7.63996 4.32001c.00001-1.61267 1.30733-2.91999 2.92004-2.91999h7.2557c.553 0 1.0697.23262 1.4388.6209.2738.28803.6954.71854 1.0925 1.07386.367.32837.9184.89305 1.2291 1.2153l-.7199.69405m.7199-.69405c.3531.36623.5441.85225.5441 1.35224l-.0003 10.17778c0 1.6126-1.3073 2.9199-2.92 2.9199h-2.84v.9201c0 1.6126-1.3073 2.9199-2.92 2.9199h-8.64003c-1.61267 0-2.92-1.3074-2.91999-2.92l.00008-11.51999c.00001-1.61267 1.30733-2.91998 2.92-2.91998h2.84v-.92002m-2.84 2.92002c-.5081 0-.92.41189-.92.91999l-.00008 11.51998c0 .5081.4119.92.92.92h8.64002c.5081 0 .92-.4119.92-.92l.0001-1.907c-.0001-.0043-.0001-.0086-.0001-.013 0-.0043 0-.0087.0001-.013l.0001-6.667h-1.8799c-1.0825 0-1.96-.8775-1.96-1.95997v-1.88zm4.84-2v-.92001c0-.5081.41194-.92.92004-.92h5.7202v1.88001c0 1.08247.8775 1.96 1.96 1.96h1.8799l-.0002 8.59997c0 .5081-.4119.92-.92.92h-2.8399l.0002-6.6731c0-.0023 0-.0046 0-.0069s0-.0045 0-.0068v-.57088c0-.49999-.191-.98601-.5441-1.35223-.3107-.32225-.8621-.88694-1.2291-1.21531-.3972-.35532-.8187-.78583-1.0925-1.07386-.3691-.38828-.8858-.62089-1.4388-.62089zm2.88024 2.48688c.2258.22603.4807.47242.7332.69836.1813.16223.4337.41051.6755.65476h-1.4087zm7.1687-2.48688c-.2418-.24425-.4942-.49253-.6755-.65476-.2525-.22594-.5074-.47233-.7332-.69836v1.35312z" fill="currentColor" fill-rule="evenodd"/></svg>