<svg fill="none" height="24" viewBox="0 0 24 24" width="24" xmlns="http://www.w3.org/2000/svg"><path clip-rule="evenodd" d="m2.2999 4.8c.00001-1.87775 1.52224-3.39998 3.4-3.39998h10.8003c1.8777 0 3.4 1.52224 3.4 3.4v5.39998c0 .5523-.4478 1-1 1-.5523 0-1-.4477-1-1v-5.39998c0-.77319-.6268-1.4-1.4-1.4h-10.8003c-.7732 0-1.4.6268-1.4 1.4l-.0001 14.39998c0 .7732.6268 1.4 1.4 1.4h4.2c.5523 0 1 .4477 1 1s-.4477 1-1 1h-4.20001c-1.87777 0-3.4-1.5223-3.39999-3.4001zm13.2003 9.6c0-.5523.4477-1 1-1h2.4271c1.5314 0 2.7729 1.2415 2.7729 2.7729s-1.2415 2.7729-2.7729 2.7729h-4.821l.7452.7488c.3896.3915.3881 1.0246-.0033 1.4142-.3915.3896-1.0246.3881-1.4142-.0034l-2.4426-2.4542c-.3881-.39-.3883-1.0203-.0004-1.4105l2.3322-2.3457c.3894-.3917 1.0225-.3935 1.4142-.0041s.3935 1.0225.0041 1.4142l-.637.6407h4.8228c.4269 0 .7729-.3461.7729-.7729 0-.4269-.346-.7729-.7729-.7729h-2.4271c-.5523 0-1-.4477-1-1z" fill="currentColor" fill-rule="evenodd"/></svg>