<svg fill="none" height="24" viewBox="0 0 24 24" width="24" xmlns="http://www.w3.org/2000/svg"><path clip-rule="evenodd" d="m3.19995 6.00002c0-2.54051 2.05949-4.6 4.6-4.6h8.40005c2.5405 0 4.5999 2.05949 4.5999 4.6v11.99998c0 2.5405-2.0594 4.6-4.5999 4.6h-8.40005c-2.54051 0-4.6-2.0595-4.6-4.6zm4.6-2.6c-1.43594 0-2.6 1.16406-2.6 2.6v11.99998c0 1.436 1.16406 2.6 2.6 2.6h8.40005c1.4359 0 2.6-1.164 2.6-2.6v-11.99998c0-1.43594-1.1641-2.6-2.6-2.6zm4.20005 4.8c-.4419 0-.8.35818-.8.8v.8h1.6v-.8c0-.44182-.3582-.8-.8-.8zm2.8 1.63628v-.83628c0-1.54639-1.2537-2.8-2.8-2.8-1.5464 0-2.80005 1.25361-2.80005 2.8v.83628c-1.02405.1881-1.8 1.0853-1.8 2.1637v3.6c0 1.215.98497 2.2 2.2 2.2h4.80005c1.215 0 2.2-.985 2.2-2.2v-3.6c0-1.0784-.776-1.9756-1.8-2.1637zm-5.20005 1.9637c-.11046 0-.2.0896-.2.2v3.6c0 .1105.08954.2.2.2h4.80005c.1104 0 .2-.0895.2-.2v-3.6c0-.1104-.0896-.2-.2-.2z" fill="currentColor" fill-rule="evenodd"/></svg>