<svg fill="none" height="24" viewBox="0 0 24 24" width="24" xmlns="http://www.w3.org/2000/svg"><path clip-rule="evenodd" d="m1.6998 4.8c.00001-1.87775 1.52224-3.39998 3.4-3.39998h10.8003c1.8777 0 3.4 1.52224 3.4 3.4v6.59998c0 .5523-.4477 1-1 1s-1-.4477-1-1v-6.59998c0-.77319-.6268-1.4-1.4-1.4h-10.8003c-.77319 0-1.4.6268-1.4 1.4l-.00009 14.39998c-.00001.7732.62679 1.4 1.39999 1.4h4.80001c.55229 0 .99999.4477.99999 1s-.4477 1-.99999 1h-4.80002c-1.87777 0-3.4-1.5223-3.39998-3.4001zm20.2826 8.869c.4037.3768.4256 1.0096.0487 1.4133l-5.6 6c-.185.1983-.4426.3129-.7138.3176-.2711.0046-.5326-.101-.7243-.2928l-2.2-2.2c-.3905-.3905-.3905-1.0237 0-1.4142s1.0237-.3905 1.4142 0l1.4681 1.4681 4.8937-5.2433c.3769-.4037 1.0096-.4256 1.4134-.0487z" fill="currentColor" fill-rule="evenodd"/></svg>