<svg fill="none" height="24" viewBox="0 0 24 24" width="24" xmlns="http://www.w3.org/2000/svg"><path clip-rule="evenodd" d="m2.59995 4.8c.00001-1.87775 1.52224-3.39998 3.4-3.39998h10.80025c1.8778 0 3.4 1.52223 3.4 3.4v6.59998c0 .5523-.4477 1-1 1s-1-.4477-1-1v-6.59998c0-.77319-.6268-1.4-1.4-1.4h-10.80025c-.7732 0-1.4.6268-1.4 1.4l-.0001 14.39998c0 .7732.6268 1.4 1.4 1.4h4.80005c.5522 0 1 .4477 1 1s-.4478 1-1 1h-4.80006c-1.87777 0-3.4-1.5223-3.39999-3.4001zm14.74915 10.0912c.39-.3881 1.0203-.3883 1.4105-.0003l2.3457 2.3321c.3916.3894.3935 1.0226.0041 1.4142-.3894.3917-1.0226.3935-1.4142.0041l-.6407-.6369v3.5956c0 .5523-.4477 1-1 1s-1-.4477-1-1v-3.5939l-.7489.7453c-.3914.3896-1.0246.3881-1.4142-.0034-.3896-.3914-.388-1.0246.0034-1.4142z" fill="currentColor" fill-rule="evenodd"/></svg>