<svg fill="none" height="24" viewBox="0 0 24 24" width="24" xmlns="http://www.w3.org/2000/svg"><path clip-rule="evenodd" d="m7.33333 4c-.77097 0-1.33333.59361-1.33333 1.25v13.5c0 .6564.56236 1.25 1.33333 1.25h9.33337c.7709 0 1.3333-.5936 1.3333-1.25v-9.125h-3.6667c-1.162 0-2.1666-.91743-2.1666-2.125v-3.5zm6.83337.25022v3.24978c0 .02261.0079.04875.0358.07565.0286.02752.0728.04935.1308.04935h3.3512c-.0198-.02195-.0405-.04335-.0621-.06416l-3.2998-3.18199c-.0485-.04676-.1006-.08974-.1559-.12863zm-10.1667.99978c0-1.82889 1.52697-3.25 3.33333-3.25h6.03347c.8726 0 1.7164.3339 2.3441.93917l3.2998 3.18198c.6289.60645.9893 1.4369.9893 2.31083v10.31802c0 1.8289-1.527 3.25-3.3333 3.25h-9.33337c-1.80636 0-3.33333-1.4211-3.33333-3.25z" fill="currentColor" fill-rule="evenodd"/></svg>