<svg fill="none" height="24" viewBox="0 0 24 24" width="24" xmlns="http://www.w3.org/2000/svg"><path clip-rule="evenodd" d="m3.1998 4.8c.00001-1.87775 1.52224-3.39998 3.4-3.39998h10.8003c1.8777 0 3.4 1.52223 3.4 3.4v7.79998c0 .5523-.4477 1-1 1s-1-.4477-1-1v-7.79998c0-.77319-.6268-1.4-1.4-1.4h-10.8003c-.77319 0-1.4.6268-1.4 1.4l-.00009 14.39998c-.00001.7732.62679 1.4 1.39999 1.4h4.2c.5523 0 1 .4477 1 1s-.4477 1-1 1h-4.20001c-1.87777 0-3.4-1.5223-3.39998-3.4001zm4.20028 2.40002c0-.55228.44772-1 1-1h7.20002c.5523 0 1 .44772 1 1 0 .55229-.4477 1-1 1h-7.20002c-.55228 0-1-.44771-1-1zm0 3.59998c0-.5523.44772-.99998 1-.99998h7.20002c.5523 0 1 .44768 1 .99998s-.4477 1-1 1h-7.20002c-.55228 0-1-.4477-1-1zm0 3.6c0-.5523.44772-1 1-1h3.60002c.5523 0 1 .4477 1 1s-.4477 1-1 1h-3.60002c-.55228 0-1-.4477-1-1zm6.89292 1.6929c.3905-.3905 1.0237-.3905 1.4142 0l1.6929 1.6929 1.6929-1.6929c.3905-.3905 1.0237-.3905 1.4142 0s.3905 1.0237 0 1.4142l-1.6929 1.6929 1.6929 1.6929c.3905.3905.3905 1.0237 0 1.4142-.3905.3906-1.0237.3906-1.4142 0l-1.6929-1.6929-1.6929 1.6929c-.3905.3906-1.0237.3906-1.4142 0-.3905-.3905-.3905-1.0237 0-1.4142l1.6929-1.6929-1.6929-1.6929c-.3905-.3905-.3905-1.0237 0-1.4142z" fill="currentColor" fill-rule="evenodd"/></svg>