<svg fill="none" height="24" viewBox="0 0 24 24" width="24" xmlns="http://www.w3.org/2000/svg"><path clip-rule="evenodd" d="m3.1998 4.8c.00001-1.87775 1.52224-3.39998 3.4-3.39998h11.2002c1.6569 0 3.0001 1.34318 3 3.00006l-.0002 14.80002c-.0001 1.8777-1.5223 3.3999-3.4001 3.3999h-10.80001c-1.87777 0-3.4-1.5223-3.39998-3.4001zm3.4-1.39998c-.77319 0-1.4.6268-1.4 1.4l-.00009 14.39998c-.00001.7732.62679 1.4 1.39999 1.4h10.8c.7732 0 1.4-.6268 1.4001-1.3999l.0002-14.80006c0-.55229-.4477-1.00002-1-1.00002z" fill="currentColor" fill-rule="evenodd"/></svg>