<svg fill="none" height="24" viewBox="0 0 24 24" width="24" xmlns="http://www.w3.org/2000/svg"><path clip-rule="evenodd" d="m3.19999 4.8c.00002-1.87775 1.52224-3.39998 3.4-3.39998h9.06971c.6205 0 1.2016.26108 1.6173.69835.3437.36165.8761.90551 1.3801 1.35641.4507.40327 1.1337 1.10238 1.5231 1.50633.3956.41041.6101.95542.6101 1.51677v3.72212c0 .5523-.4478 1-1 1-.5523 0-1-.4477-1-1v-1.99998h-2.6c-1.2151 0-2.2-.98497-2.2-2.2v-2.6h-7.40031c-.77319 0-1.39999.6268-1.4 1.39999v5.39999c0 .5523-.44771 1-1 1-.55228 0-1-.4477-1-1zm12.80031-1.15343v2.35345c0 .11046.0895.2.2.2h2.4058c-.3946-.40674-.9301-.94832-1.2726-1.25475-.4847-.43367-.9781-.92996-1.3332-1.2987zm-14.6004 11.35343c0-.5523.44772-1 1-1h19.2c.5523 0 1 .4477 1 1s-.4477 1-1 1h-19.2c-.55228 0-1-.4477-1-1zm2.80038 3.2c.55228 0 1 .4477 1 1v2.4c0 .5523-.44772 1-1 1-.55229 0-1-.4477-1-1v-2.4c0-.5523.44771-1 1-1zm4.2 0c.55228 0 1 .4477 1 1v1.2c0 .5523-.44772 1-1 1-.55229 0-1-.4477-1-1v-1.2c0-.5523.44771-1 1-1zm4.20002 0c.5523 0 1 .4477 1 1v2.4c0 .5523-.4477 1-1 1s-1-.4477-1-1v-2.4c0-.5523.4477-1 1-1zm4.2 0c.5523 0 1 .4477 1 1v1.2c0 .5523-.4477 1-1 1s-1-.4477-1-1v-1.2c0-.5523.4477-1 1-1zm4.2 0c.5523 0 1 .4477 1 1v2.4c0 .5523-.4477 1-1 1s-1-.4477-1-1v-2.4c0-.5523.4477-1 1-1z" fill="currentColor" fill-rule="evenodd"/></svg>