<svg fill="none" height="24" viewBox="0 0 24 24" width="24" xmlns="http://www.w3.org/2000/svg"><path clip-rule="evenodd" d="m8.09909 2.5514c1.34906-.7534 2.87521-1.15138 4.42611-1.15138h.0249c4.862.01436 8.8433 3.85349 8.8433 8.64068 0 2.2374-.3157 6.469-1.011 8.7364-.1619.528-.7212.8248-1.2492.6629-.528-.162-.8248-.7213-.6629-1.2493.6058-1.9755.9231-5.9652.9231-8.15 0-3.62989-3.0334-6.62867-6.8478-6.64068h-.0204c-1.2096 0-2.4.31061-3.45095.89753-.48219.26929-1.09138.09669-1.36066-.38549-.26928-.48219-.09669-1.09138.3855-1.36066zm-1.8415 2.85817c.46906.29154.61297.90814.32143 1.3772-.64463 1.03713-.979 2.21602-.979 3.41623 0 .1195.01353.6117.02813 1.1008.00712.2387.01425.4688.01959.6392l.0089.281c.00035.0107.00052.0215.00052.0322 0 1.5165-.40925 3.0076-1.19095 4.3227-.28219.4748-.89581.6309-1.37056.3487s-.63085-.8958-.34866-1.3705c.59587-1.0025.90739-2.1352.91015-3.2855l-.00841-.2659c-.00537-.1711-.01253-.4022-.01969-.6422-.01398-.4682-.02902-1.0025-.02902-1.1605 0-1.57431.43926-3.11876 1.28037-4.47201.29154-.46906.90814-.61297 1.3772-.32142zm1.32908 4.68843c.00553-2.27152 1.82411-4.83912 4.93853-4.83912 1.5623 0 2.7619.68585 3.5495 1.66756.7668.95561 1.1292 2.16806 1.1319 3.27416.0013.5523-.4453 1.0011-.9976 1.0024-.5523.0014-1.0011-.4453-1.0024-.9976-.0017-.70373-.2393-1.46335-.6918-2.02734-.4316-.53789-1.0705-.91918-1.9896-.91918-1.848 0-2.93469 1.5036-2.93853 2.84292v1.0914c0 2.6515-.29653 5.4265-2.11718 7.779-.33802.4368-.9661.5168-1.40286.1788-.43677-.338-.51681-.9661-.17879-1.4029 1.39697-1.805 1.69883-4.0073 1.69883-6.5549v-1.0927zm4.96053-1.03586c.5522 0 1 .44772 1 .99996v2.2026c0 3.5488-1.1171 7.0088-3.1978 9.9172-.3213.4491-.94592.5528-1.3951.2314-.44918-.3213-.55281-.9459-.23148-1.3951 1.84028-2.5724 2.82438-5.6263 2.82438-8.7535v-2.2026c0-.55224.4477-.99996 1-.99996zm3.6594 3.73786c.5523 0 1 .4477 1 1 0 1.3361-.3281 2.9404-.7311 4.2852-.2038.6799-.4339 1.3177-.6659 1.8473-.2179.4976-.4796.9994-.7744 1.3245-.371.4091-1.0035.4399-1.4125.0689-.4091-.3711-.44-1.0035-.0689-1.4126.0612-.0675.2166-.3101.4239-.7833.1933-.4413.3967-1.0007.582-1.6189.375-1.2514.6469-2.6471.6469-3.7111 0-.5523.4477-1 1-1z" fill="currentColor" fill-rule="evenodd"/></svg>