<svg fill="none" height="24" viewBox="0 0 24 24" width="24" xmlns="http://www.w3.org/2000/svg"><path clip-rule="evenodd" d="m12.3432 2.20001c-2.50377 0-4.90772 1.00768-6.68224 2.80571-1.77495 1.79847-2.77443 4.24049-2.77443 6.78948h-1l1-.0008c.00118 1.5051-.24952 2.9997-.74164 4.4203-.18079.5219-.75039.7984-1.27225.6176-.521858-.1808-.798352-.7504-.617567-1.2723.41889-1.2092.632465-2.482.631453-3.764v-.0008c0-3.07099 1.203884-6.01885 3.350954-8.19436 2.1475-2.17595 5.06296-3.400828 8.10572-3.400828 3.0428 0 5.9583 1.224878 8.1058 3.400828 2.147 2.17552 3.3509 5.12344 3.3509 8.19446v.0005c-.0012 2.2491-.2165 4.4929-.643 6.7002-.1048.5423-.6293.8969-1.1715.7921-.5423-.1047-.8969-.6293-.7922-1.1715.4024-2.0826.6056-4.1996.6067-6.3218-.0001-2.54887-.9996-4.99073-2.7744-6.78908-1.7745-1.79803-4.1785-2.80571-6.6823-2.80571zm-.0066 3.81014c-.2364-.00165-.4728.01204-.7076.04099-.5481.06759-1.0472-.32197-1.1148-.8701-.0676-.54814.322-1.04728.8701-1.11486.3194-.03939.641-.0581.9628-.05601 2.0441.00095 4.0016.82443 5.4429 2.28486 1.4415 1.46065 2.2493 3.43887 2.2496 5.49897.0025 1.2802-.075 2.5603-.2319 3.8305-.0676.5482-.5669.9376-1.115.87-.5481-.0677-.9376-.5669-.8699-1.115.1467-1.188.2192-2.3853.2168-3.5825v-.002c0-1.5384-.6034-3.01119-1.6731-4.09509-1.0693-1.08343-2.5166-1.68974-4.0229-1.68974h-.007zm7.703 5.78385v.001h-1l1-.002zm-11.10444-5.92294c.34758.4292.28142 1.0589-.14778 1.40647-.66701.54017-1.20646 1.22647-1.57741 2.00861-.37087.78196-.56351 1.63916-.5631 2.50786m2.28829-5.92294c-.34757-.42919-.97727-.49536-1.40647-.14778zm-1.40647-.14778c-.90103.72968-1.62728 1.65472-2.12579 2.70582zm3.03681 4.59102c-.3961.6063-.5433 1.3339-.5433 1.7079 0 .5523-.44769 1-.99997 1-.55229 0-1-.4477-1-1 0-.7249.24067-1.84.86885-2.80172.65665-1.00524 1.77462-1.88377 3.45252-1.88377 1.3707 0 2.442.48804 3.1947 1.35106.7193.82465 1.0685 1.90043 1.2293 2.95703.0804.5283.0437 1.3088-.0474 2.1496-.0946.8723-.2597 1.908-.4818 2.9959-.4416 2.1622-1.1248 4.6106-1.9732 6.4319-.2331.5007-.828.7175-1.3287.4843-.5006-.2332-.7174-.8281-.4842-1.3287.7543-1.6194 1.3994-3.8962 1.8265-5.9876.2122-1.0389.3664-2.0121.453-2.8113.0901-.8306.0965-1.3842.0586-1.6331-.1318-.8659-.3894-1.5193-.7593-1.9434-.3364-.38566-.8366-.66569-1.6875-.66569-.8678 0-1.4105.41476-1.7781.97759zm-5.1626-1.8852c-.49849 1.05108-.75671 2.2018-.75603 3.3668zm6.9458 2.403c.5523 0 1 .4478 1 1 0 4.233-1.2464 8.3916-2.6619 10.9485-.2675.4832-.87605.6581-1.35923.3906-.48319-.2675-.65804-.8761-.39055-1.3592 1.25188-2.2614 2.41168-6.0867 2.41168-9.9799 0-.5522.4477-1 1-1zm-5.70183.9623c.00327 2.632-.59402 5.2297-1.74579 7.5901-.24219.4964-.8409.7024-1.33725.4602-.49634-.2421-.70238-.8409-.46019-1.3372 1.0178-2.0859 1.54617-4.3828 1.54323-6.7109v-.0007m4.34567 2.5217c.54161.1081.89304.6348.78495 1.1764-.43842 2.1968-1.23042 4.306-2.34463 6.2432-.27535.4788-.88667.6437-1.36541.3683-.47875-.2753-.64364-.8867-.36829-1.3654 1.00565-1.7485 1.72096-3.6531 2.11701-5.6376.10809-.5416.63477-.893 1.17637-.7849zm9.37806 3.9218c.5345.1388.8553.6847.7165 1.2193-.1823.7017-.3883 1.4009-.6044 2.0823-.167.5265-.7292.8179-1.2556.6509s-.8178-.7292-.6508-1.2556c.2079-.6553.4034-1.3199.575-1.9804.1388-.5346.6847-.8553 1.2193-.7165z" fill="currentColor" fill-rule="evenodd"/></svg>