<svg fill="none" height="24" viewBox="0 0 24 24" width="24" xmlns="http://www.w3.org/2000/svg"><path clip-rule="evenodd" d="m12.7073 1.69292-.7071.7071-.7071-.70711c.1875-.18753.4418-.29289.7071-.29289.2652.00001.5195.10537.7071.2929zm-.7072 2.16068c-.1154.12577-.2423.26576-.3788.41872-.6603.7401-1.5388 1.77801-2.41505 2.97176-.87838 1.19669-1.74038 2.531-2.37935 3.86462-.64472 1.3457-1.02685 2.618-1.02685 3.71 0 1.4863.61388 2.8641 1.63048 3.9015-.02012-.1672-.03048-.3376-.03048-.5108 0-.865.29288-1.7355.66067-2.5031.37354-.7797.86157-1.5293 1.33321-2.1718.4738-.6455.94527-1.2022 1.29747-1.597.1766-.1979.3245-.3565.4293-.4667.0524-.0552.0942-.0983.1235-.1283l.0344-.0351.0098-.0098.0029-.003.001-.001c.0002-.0002.0007-.0007.7078.7064.7071-.7071.7073-.7069.7074-.7068l.0014.0014.0029.003.0098.0099.0344.035c.0293.03.0711.0731.1235.1283.1048.1102.2527.2688.4293.4668.3521.3947.8236.9514 1.2974 1.5969.4717.6426.9597 1.3921 1.3332 2.1718.3678.7676.6606 1.6381.6606 2.5031 0 .1732-.0103.3437-.0304.5109 1.0166-1.0375 1.6304-2.4153 1.6304-3.9016 0-1.092-.3821-2.3643-1.0268-3.71-.6389-1.33363-1.5009-2.66794-2.3793-3.86463-.8761-1.19375-1.7546-2.23166-2.4149-2.97176-.1365-.15295-.2634-.29294-.3789-.41871zm0 8.1464.7074-.7068c-.1875-.1875-.4422-.2932-.7074-.2932s-.5202.106-.7078.2936zm0 1.4777c-.2931.3376-.6443.7639-.9939 1.2402-.4283.5836-.8403 1.2233-1.14181 1.8525-.30721.6412-.46434 1.1993-.46434 1.639 0 1.2617 1.10995 2.3906 2.60005 2.3906 1.49 0 2.5999-1.1289 2.5999-2.3906 0-.4397-.1571-.9978-.4643-1.639-.3014-.6292-.7134-1.2689-1.1418-1.8525-.3496-.4763-.7007-.9026-.9938-1.2402zm0 9.1223c4.465 0 8.1999-3.4341 8.1999-7.7813 0-1.5173-.5178-3.102-1.2231-4.5741-.711-1.4841-1.649-2.92829-2.5706-4.18394-.9238-1.25859-1.8453-2.34685-2.535-3.11984-.3453-.38706-.6338-.69649-.8371-.91027-.1016-.10692-.182-.19-.2377-.247-.0278-.02851-.0495-.0505-.0645-.06569l-.0175-.01767-.0049-.00494-.0015-.0015c-.0002-.00018-.0008-.00083-.7079.70627-.7071-.70711-.707-.70729-.7071-.70711l-.0073.00727-.0175.01767c-.015.01519-.0367.03718-.0645.06569-.0557.057-.1361.14008-.2377.247-.2033.21378-.4918.52321-.8371.91027-.68971.77299-1.61123 1.86124-2.53504 3.11984-.92165 1.25564-1.85968 2.69984-2.57073 4.18395-.7053 1.4721-1.22318 3.0568-1.22318 4.5741 0 4.3471 3.73502 7.7813 8.20005 7.7813z" fill="currentColor" fill-rule="evenodd"/></svg>