<svg fill="none" height="24" viewBox="0 0 24 24" width="24" xmlns="http://www.w3.org/2000/svg"><path clip-rule="evenodd" d="m11.0967 2.11023c.4539-.65409 1.2142-.81443 1.8137-.64756.6051.16844 1.1902.71708 1.1911 1.548l.0104 5.85539c0 .04555.0171.09318.0643.13825.0488.04664.1265.08495.2265.08653l4.1763.0518c1.2372.00584 2.0905 1.38316 1.3578 2.49266l-.0044.0065c-.0022.0034-.0045.0068-.0068.0102l-7.0057 10.2334-.0036.0052c-.4538.6541-1.2142.8144-1.8136.6476-.6028-.1678-1.18572-.7128-1.19108-1.5383l-.00004-.0097-.01037-5.8536c0-.0006 0-.0012 0-.0018 0-.0456-.01711-.0932-.06431-.1383-.04887-.0467-.12665-.085-.22681-.0865l-4.18051-.0519c-.00266 0-.00533 0-.008-.0001-1.18891-.0243-2.12776-1.3573-1.33349-2.51l7.00511-10.23258zm-4.94014 10.75677 3.48277.0432.007.0001c1.19117.0211 2.25387.949 2.25487 2.2227l.0083 4.6879 5.947-8.6871-3.4804-.0431c-.0008 0-.0016-.0001-.0023-.0001-1.1941-.0175-2.2609-.9466-2.2619-2.22277l-.0083-4.68786z" fill="currentColor" fill-rule="evenodd"/></svg>