<svg fill="none" height="24" viewBox="0 0 24 24" width="24" xmlns="http://www.w3.org/2000/svg"><path clip-rule="evenodd" d="m6.375 4c-1.31167 0-2.375 1.06332-2.375 2.375v11.25c0 1.3117 1.06332 2.375 2.375 2.375h11.25c1.3117 0 2.375-1.0633 2.375-2.375v-11.25c0-1.31168-1.0633-2.375-2.375-2.375zm-4.375 2.375c0-2.41625 1.95876-4.375 4.375-4.375h11.25c2.4162 0 4.375 1.95876 4.375 4.375v11.25c0 2.4162-1.9588 4.375-4.375 4.375h-11.25c-2.41625 0-4.375-1.9588-4.375-4.375zm8.3125.125c.5523 0 1 .44771 1 1v9c0 .5523-.4477 1-1 1-.55228 0-1-.4477-1-1v-9c0-.55229.44772-1 1-1zm3.375 0c.5523 0 1 .44772 1 1v9c0 .5523-.4477 1-1 1s-1-.4477-1-1v-9c0-.55228.4477-1 1-1z" fill="currentColor" fill-rule="evenodd"/></svg>