<svg fill="none" height="24" viewBox="0 0 24 24" width="24" xmlns="http://www.w3.org/2000/svg"><path clip-rule="evenodd" d="m11.9999 2.59998c.5523 0 1 .44771 1 1v2.4c0 .55228-.4477 1-1 1s-1-.44772-1-1v-2.4c0-.55229.4477-1 1-1zm-10.06185 3.71304c.33074-.17222.72983-.14612 1.03531.06772l6 4.19996c.26732.1872.42653.4929.42654.8192.00001.3264-.15918.6321-.42649.8193l-5.99929 4.2c-.30546.2138-.70452.24-1.03526.0678s-.53822-.5141-.53825-.8869l-.00071-8.40004c-.00003-.37289.20742-.71483.53815-.88704zm20.12285-.00006c.3308.17218.5383.51406.5383.88693l.0007 8.40001c0 .3729-.2074.7148-.5382.887-.3307.1723-.7298.1461-1.0353-.0677l-6-4.2c-.2673-.1871-.4265-.4929-.4265-.8192s.1592-.6321.4265-.8192l5.9993-4.20002c.3054-.21385.7045-.23999 1.0352-.06782zm-18.66084 2.80778.00039 4.55856 3.25573-2.2793zm13.94354 2.27916 3.2561 2.2793-.0003-4.55855zm-5.3437-2.19992c.5523 0 1 .44771 1 1.00002v2.4c0 .5523-.4477 1-1 1s-1-.4477-1-1v-2.4c0-.55231.4477-1.00002 1-1.00002zm0 6.60002c.5523 0 1 .4477 1 1v2.4c0 .5523-.4477 1-1 1s-1-.4477-1-1v-2.4c0-.5523.4477-1 1-1z" fill="currentColor" fill-rule="evenodd"/></svg>