<svg fill="none" height="24" viewBox="0 0 24 24" width="24" xmlns="http://www.w3.org/2000/svg"><path clip-rule="evenodd" d="m11.9999 2.59998c.5523 0 1 .44771 1 1v2.4c0 .55228-.4477 1-1 1s-1-.44772-1-1v-2.4c0-.55229.4477-1 1-1zm-10.30713 3.89292c.18753-.18756.4419-.29292.70713-.29292h5.4c.55229 0 1 .44771 1 1v8.40002c0 .5523-.44771 1-1 1h-5.39929c-.55225 0-.99996-.4477-1-.9999l-.00071-8.40004c-.00002-.26523.10533-.51961.29287-.70716zm1.70722 1.70708.00053 6.40002h3.39938v-6.40002zm11.79991-1c0-.55229.4477-1 1-1h5.3993c.5522 0 .9999.44766 1 .99991l.0007 8.40001c0 .2652-.1053.5196-.2929.7072-.1875.1875-.4419.2929-.7071.2929h-5.4c-.5523 0-1-.4477-1-1zm2 1v6.40002h3.3999l-.0005-6.40002zm-5.2 1c.5523 0 1 .44771 1 1.00002v2.4c0 .5523-.4477 1-1 1s-1-.4477-1-1v-2.4c0-.55231.4477-1.00002 1-1.00002zm0 6.60002c.5523 0 1 .4477 1 1v2.4c0 .5523-.4477 1-1 1s-1-.4477-1-1v-2.4c0-.5523.4477-1 1-1z" fill="currentColor" fill-rule="evenodd"/></svg>