<svg fill="none" height="24" viewBox="0 0 24 24" width="24" xmlns="http://www.w3.org/2000/svg"><path clip-rule="evenodd" d="m1.40023 4.19999c0-1.30595 1.04238-2.4 2.37142-2.4h4.23614c1.10947 0 2.14911.54131 2.78541 1.45023l1.7848 2.54978 6.6217.00013c1.8777.00004 3.3999 1.52217 3.4 3.39984l.0004 9.59983c.0001 1.8779-1.5222 3.4002-3.4 3.4002h-14.40044c-1.87783 0-3.40009-1.5223-3.4-3.4002zm1.99995 3.6-.00052 10.99991c-.00004.7732.62677 1.4001 1.4 1.4001h14.40044c.7732 0 1.4-.6269 1.4-1.4001l-.0004-9.59983c-.0001-.77316-.6269-1.39992-1.4-1.39994zm6.73652-2-.98198-1.40285c-.26198-.37426-.69009-.59715-1.14693-.59715h-4.23614c-.18579 0-.37142.15955-.37142.4v1.6zm3.0268 5.65461c-.7319-.366-1.5935-.366-2.3255 0l-.8372.4187v2.7269c0 .059.0444.3014.4924.7623.3427.3524.8431.7521 1.5126 1.2028.6904-.4482 1.1846-.8022 1.5243-1.1308.395-.3821.4707-.6231.4707-.8343v-2.7269zm2.8373-.1994v3.345c0 .9438-.4582 1.6701-1.0801 2.2718-.5947.5752-1.4336 1.1273-2.386 1.7287-.3261.206-.7417.206-1.0679 0-.9915-.6261-1.81832-1.2379-2.4077-1.8442-.56893-.5853-1.05832-1.3103-1.05832-2.1563v-3.345c0-.3788.21401-.725.55279-.8944l1.39003-.69502c1.295-.64752 2.8193-.64751 4.1144 0l1.39.69502c.3388.1694.5528.5157.5528.8944z" fill="currentColor" fill-rule="evenodd"/></svg>