<svg fill="none" height="24" viewBox="0 0 24 24" width="24" xmlns="http://www.w3.org/2000/svg"><path clip-rule="evenodd" d="m6.59974 3.32947c-.11045 0-.2.08954-.2.2v1.25879h2.91867c.27666 0 .54096.11461.72999.31658l2.4687 2.63705h5.6826v-4.21242c0-.11046-.0895-.2-.2-.2zm13.59996 4.41242v-4.21242c0-1.21503-.9849-2.2-2.2-2.2h-11.39996c-1.21502 0-2.2.98497-2.2 2.2v1.25879h-.79955c-1.21453 0-2.20042.98389-2.20004 2.2.00029.94255.00063 2.24414.00062 3.15784l-.00009 9.1244c-.00002 1.8777 1.52222 3.4 3.39999 3.4h14.39873c1.8777 0 3.4-1.5221 3.4-3.3999l.0003-9.32864c0-1.21505-.9849-2.20007-2.2-2.20007zm-16.59951-.95363c-.1113 0-.20008.08965-.20004.19938.00029.94255.00063 2.24442.00062 3.15856l-.00009 9.1243c-.00001.7732.6268 1.4 1.4 1.4h14.39872c.7732 0 1.4-.6267 1.4-1.3999l.0003-9.3287c0-.11046-.0895-.20001-.2-.20001h-8.3163c-.2766 0-.5409-.11461-.73-.31658l-2.46865-2.63705z" fill="currentColor" fill-rule="evenodd"/></svg>