<svg fill="none" height="24" viewBox="0 0 24 24" width="24" xmlns="http://www.w3.org/2000/svg"><path clip-rule="evenodd" d="m3.57334 4.82953c-.1113 0-.20008.08966-.20005.19938.00029.94255.00063 2.24442.00063 3.15852l-.00009 9.12427c-.00001.7733.62679 1.4001 1.39999 1.4001h9.25218c.5523 0 1 .4477 1 1s-.4477 1-1 1h-9.25219c-1.87778 0-3.4-1.5223-3.39998-3.4001l.00009-9.12428c0-.91375-.00034-2.21534-.00063-3.15789-.00037-1.21611.98551-2.2 2.20005-2.2h5.71821c.27666 0 .54096.11461.73005.31658l2.4686 2.63706h7.8827c1.215 0 2.2.98497 2.2 2.2v3.18753c0 .5523-.4477 1-1 1s-1-.4477-1-1v-3.18753c0-.11046-.0896-.2-.2-.2h-8.3163c-.2767 0-.541-.11462-.7301-.31659l-2.46861-2.63705zm15.59916 8.34097c.5523 0 1 .4477 1 1v3.5939l.7489-.7453c.3914-.3896 1.0246-.3881 1.4142.0034.3896.3914.3881 1.0246-.0034 1.4142l-2.4542 2.4426c-.39.3881-1.0203.3883-1.4105.0003l-2.3457-2.3321c-.3917-.3894-.3935-1.0226-.0041-1.4142.3893-.3917 1.0225-.3935 1.4142-.0041l.6406.6369v-3.5956c0-.5523.4478-1 1-1z" fill="currentColor" fill-rule="evenodd"/></svg>