<svg fill="none" height="24" viewBox="0 0 24 24" width="24" xmlns="http://www.w3.org/2000/svg"><path clip-rule="evenodd" d="m3.60044 5.05878c-.1113 0-.20008.08966-.20005.19938.00029.94255.00063 2.24442.00063 3.15852l-.00009 9.12432c-.00001.7732.62679 1.4 1.4 1.4h7.28277c.5523 0 1 .4477 1 1s-.4477 1-1 1h-7.28277c-1.87779 0-3.40002-1.5223-3.4-3.4l.00009-9.12433c0-.91375-.00034-2.21534-.00063-3.15789-.00037-1.21611.98551-2.2 2.20005-2.2h5.71821c.27666 0 .54096.11461.73005.31658l2.4686 2.63705h7.8827c1.215 0 2.2.98498 2.2 2.2v3.18759c0 .5523-.4477 1-1 1s-1-.4477-1-1v-3.18759c0-.11045-.0896-.2-.2-.2h-8.3163c-.2767 0-.541-.11461-.73-.31658l-2.46871-2.63705zm13.79956 9.14122c-1.1046 0-2 .8954-2 2s.8954 2 2 2 2-.8954 2-2-.8954-2-2-2zm-4 2c0-2.2092 1.7908-4 4-4 2.2091 0 4 1.7908 4 4 0 .7418-.2019 1.4364-.5538 2.032l.8609.8609c.3905.3905.3905 1.0237 0 1.4142s-1.0237.3905-1.4142 0l-.8609-.8609c-.5956.3519-1.2902.5538-2.032.5538-2.2092 0-4-1.7909-4-4z" fill="currentColor" fill-rule="evenodd"/></svg>