<svg fill="none" height="24" viewBox="0 0 24 24" width="24" xmlns="http://www.w3.org/2000/svg"><path clip-rule="evenodd" d="m1.3999 5.42108c0-1.10457.89543-2 2-2h5.65947c.53044 0 1.03913.21072 1.41423.58579l1.4353 1.43526h6.6699c1.1046 0 2 .89544 2 2v2.0751c1.1646.21312 1.923 1.42377 1.531 2.59947l-2.3649 7.0947c-.2722.8167-1.0365 1.3676-1.8973 1.3676h-14.4477c-1.10457 0-2-.8955-2-2zm3.03722 13.15792c.01354-.1732.05134-.3438.1125-.5069l2.73378-7.2901c.29273-.7806 1.03897-1.29776 1.87266-1.29776h9.42274v-2.04211h-6.6699c-.5305 0-1.0392-.21071-1.4143-.58578l-1.43523-1.43527h-5.65947v13.15792zm4.71894-7.0948-2.66053 7.0948h11.35207l2.3649-7.0948z" fill="currentColor" fill-rule="evenodd"/></svg>