<svg fill="none" height="24" viewBox="0 0 24 24" width="24" xmlns="http://www.w3.org/2000/svg"><path clip-rule="evenodd" d="m3.10312 5.0589c-.1113 0-.20008.08966-.20004.19938.00029.94255.00063 2.24442.00062 3.15852l-.00009 9.1243c-.00001.7732.6268 1.4 1.4 1.4h7.79909c.5523 0 1 .4477 1 1s-.4477 1-1 1h-7.79909c-1.87778 0-3.400017-1.5222-3.399999-3.4l.000091-9.12431c.000006-.91375-.000335-2.21534-.000626-3.15789-.000375-1.21611.985514-2.2 2.200044-2.2h5.71822c.27666 0 .54095.11461.73003.31658l2.46863 2.63706h7.8827c1.215 0 2.2.98497 2.2 2.2v3.18756c0 .5523-.4477 1-1 1s-1-.4477-1-1v-3.18756c0-.11046-.0896-.2-.2-.2h-8.3163c-.2767 0-.541-.11462-.7301-.31659l-2.46862-2.63705zm11.20548 11.535c0-.5523.4477-1 1-1h6.7882c.5523 0 1 .4477 1 1 0 .5522-.4477 1-1 1h-6.7882c-.5523 0-1-.4478-1-1z" fill="currentColor" fill-rule="evenodd"/></svg>