<svg fill="none" height="24" viewBox="0 0 24 24" width="24" xmlns="http://www.w3.org/2000/svg"><path clip-rule="evenodd" d="m3.10312 4.63245c-.1113 0-.20008.08965-.20004.19938.00029.94255.00063 2.24442.00062 3.15852l-.00009 9.12435c-.00001.7732.6268 1.4 1.4 1.4h7.79909c.5523 0 1 .4477 1 1s-.4477 1-1 1h-7.79909c-1.87778 0-3.400017-1.5223-3.399999-3.4001l.000091-9.12427c.000006-.91374-.000335-2.21533-.000626-3.15788-.000375-1.21611.985514-2.2 2.200044-2.2h5.71822c.27666 0 .54095.11461.73003.31658l2.46863 2.63705h7.8827c1.215 0 2.2.98498 2.2 2.2v3.18762c0 .5522-.4477 1-1 1s-1-.4478-1-1v-3.18762c0-.11045-.0896-.2-.2-.2h-8.3163c-.2767 0-.541-.11461-.7301-.31658l-2.46862-2.63705zm15.59958 7.94685c.5523 0 1 .4477 1 1v2.3941h2.3941c.5523 0 1 .4477 1 1s-.4477 1-1 1h-2.3941v2.3941c0 .5523-.4477 1-1 1s-1-.4477-1-1v-2.3941h-2.3941c-.5523 0-1-.4477-1-1s.4477-1 1-1h2.3941v-2.3941c0-.5523.4477-1 1-1z" fill="currentColor" fill-rule="evenodd"/></svg>