<svg fill="none" height="24" viewBox="0 0 24 24" width="24" xmlns="http://www.w3.org/2000/svg"><path clip-rule="evenodd" d="m3.60044 5.05878c-.1113 0-.20008.08965-.20005.19938.00029.94255.00063 2.24442.00063 3.15852l-.00009 9.12432c-.00001.7732.62679 1.4 1.39999 1.4h14.39878c.7732 0 1.3999-.6267 1.4-1.3999l.0003-9.32868c0-.11046-.0896-.20001-.2-.20001h-8.3163c-.2767 0-.541-.11461-.73-.31658l-2.46871-2.63705zm-2.20005.2c-.00037-1.21611.98551-2.2 2.20005-2.2h5.71821c.27666 0 .54096.11461.73005.31658l2.4686 2.63705h7.8827c1.215 0 2.2.98502 2.2 2.20007l-.0003 9.32872c-.0001 1.8777-1.5223 3.3999-3.4 3.3998h-14.39878c-1.87778 0-3.40001-1.5222-3.39999-3.4l.00009-9.12433c0-.91375-.00034-2.21534-.00063-3.15789zm9.89511 4.83262c.39-.38814 1.0202-.3883 1.4104-.0004l2.3458 2.3322c.3916.3894.3935 1.0225.0041 1.4142s-1.0226.3935-1.4142.0041l-.6407-.637v3.5957c0 .5523-.4477 1-1 1s-1-.4477-1-1v-3.5939l-.7489.7453c-.39142.3895-1.02459.388-1.41418-.0034-.38959-.3915-.38808-1.0246.00338-1.4142z" fill="currentColor" fill-rule="evenodd"/></svg>