<svg fill="none" height="24" viewBox="0 0 24 24" width="24" xmlns="http://www.w3.org/2000/svg"><path clip-rule="evenodd" d="m5.99995 3c.55229-.00003 1.00002.44767 1.00005.99995l.00019 3.77724h6.11921c.4257-1.36783 1.7017-2.36093 3.2097-2.36093 1.8562 0 3.3609 1.50474 3.3609 3.36093 0 1.85621-1.5047 3.36091-3.3609 3.36091-1.508 0-2.784-.9931-3.2097-2.36091h-6.11912l.00022 4.44391c.00008 1.6568 1.34321 2.9998 3 2.9998h3.1189c.4257-1.3678 1.7017-2.3609 3.2097-2.3609 1.8562 0 3.3609 1.5047 3.3609 3.3609s-1.5047 3.3609-3.3609 3.3609c-1.508 0-2.784-.993-3.2097-2.3609h-3.1189c-2.76132 0-4.99986-2.2384-5-4.9997l-.00026-5.42206c-.00016-.0073-.00024-.01461-.00024-.02195 0-.0073.00008-.01458.00023-.02184l-.00023-4.7553c-.00003-.55229.44767-1.00002.99995-1.00005zm10.32915 4.41626c-.7517 0-1.361.60931-1.361 1.36093 0 .75163.6093 1.36091 1.361 1.36091.7516 0 1.3609-.60928 1.3609-1.36091 0-.75162-.6093-1.36093-1.3609-1.36093zm0 9.44374c-.7517 0-1.361.6093-1.361 1.3609s.6093 1.3609 1.361 1.3609c.7516 0 1.3609-.6093 1.3609-1.3609s-.6093-1.3609-1.3609-1.3609z" fill="currentColor" fill-rule="evenodd"/></svg>