<svg fill="none" height="24" viewBox="0 0 24 24" width="24" xmlns="http://www.w3.org/2000/svg"><path clip-rule="evenodd" d="m6.49579 5c-.82451 0-1.49579.66998-1.49579 1.5s.67128 1.5 1.49579 1.5 1.49579-.66998 1.49579-1.5-.67128-1.5-1.49579-1.5zm-3.49579 1.5c0-1.93141 1.56353-3.5 3.49579-3.5s3.49579 1.56859 3.49579 3.5c0 1.57031-1.03354 2.90078-2.45849 3.34339v.66631c0 2.7577 2.23131 4.9903 4.98021 4.9903h1.6399c.4296-1.445 1.7663-2.5 3.351-2.5 1.9323 0 3.4958 1.5686 3.4958 3.5s-1.5635 3.5-3.4958 3.5c-1.5847 0-2.9214-1.055-3.351-2.5h-1.6399c-3.85665 0-6.98021-3.1313-6.98021-6.9903v-.64405c-1.46333-.41872-2.53309-1.76807-2.53309-3.36565zm14.5042 8.5c-.8245 0-1.4958.67-1.4958 1.5s.6713 1.5 1.4958 1.5 1.4958-.67 1.4958-1.5-.6713-1.5-1.4958-1.5z" fill="currentColor" fill-rule="evenodd"/></svg>