<svg fill="none" height="24" viewBox="0 0 24 24" width="24" xmlns="http://www.w3.org/2000/svg"><path clip-rule="evenodd" d="m11.9599 10.2662c-.9575 0-1.7337.7762-1.7337 1.7337s.7762 1.7337 1.7337 1.7337 1.7337-.7762 1.7337-1.7337-.7762-1.7337-1.7337-1.7337zm-3.59832.7337c.43717-1.57645 1.88262-2.73366 3.59832-2.73366 1.6508 0 3.0513 1.07133 3.5443 2.55666h6.0957c.5523 0 1 .4477 1 1s-.4477 1-1 1h-5.9973c-.3748 1.6661-1.8634 2.9107-3.6427 2.9107-1.7157 0-3.16115-1.1572-3.59832-2.7337h-5.96168c-.55228 0-1-.4477-1-1 0-.5522.44772-1 1-1z" fill="currentColor" fill-rule="evenodd"/></svg>