<svg fill="none" height="24" viewBox="0 0 24 24" width="24" xmlns="http://www.w3.org/2000/svg"><path clip-rule="evenodd" d="m5.7599 9.64001c-1.30339 0-2.36 1.05659-2.36 2.35999s1.05661 2.36 2.36 2.36 2.36-1.0566 2.36-2.36-1.05661-2.35999-2.36-2.35999zm-4.36 2.35999c0-2.40795 1.95204-4.35999 4.36-4.35999 1.48104 0 2.78961.73846 3.57759 1.86725.73601-.56836 1.65941-.90725 2.66241-.90725s1.9264.33888 2.6624.90723c.788-1.12878 2.0966-1.86723 3.5776-1.86723 2.408 0 4.36 1.95204 4.36 4.35999 0 2.408-1.952 4.36-4.36 4.36s-4.36-1.952-4.36-4.36c0-.1478.0074-.2939.0217-.438-.4308-.5849-1.1227-.962-1.9017-.962s-1.4709.3771-1.9017.9621c.0143.144.0217.2901.0217.4379 0 2.408-1.95204 4.36-4.36 4.36s-4.36-1.952-4.36-4.36zm16.84-2.35999c-1.3034 0-2.36 1.05659-2.36 2.35999s1.0566 2.36 2.36 2.36 2.36-1.0566 2.36-2.36-1.0566-2.35999-2.36-2.35999z" fill="currentColor" fill-rule="evenodd"/></svg>