<svg fill="none" height="24" viewBox="0 0 24 24" width="24" xmlns="http://www.w3.org/2000/svg"><path clip-rule="evenodd" d="m19.7415 1.14978c.3591.41962.31 1.05088-.1096 1.40996l-.392.33547c1.3999 1.74932 2.2381 3.97013 2.2381 6.38526 0 5.13863-3.7902 9.39193-8.7275 10.11693v1.8025h4.2364c.5523 0 1 .4478 1 1 0 .5523-.4477 1-1 1h-10.72207c-.55228 0-1-.4477-1-1 0-.5522.44772-1 1-1h4.48567v-1.7015c-2.1969-.0715-4.3011-.6254-5.99743-1.9508l-.5007.5354c-.37723.4034-1.01004.4246-1.41342.0473-.40339-.3772-.42459-1.01-.04736-1.4134l1.1659-1.2467c.18585-.1988.44466-.3132.71673-.3169s.53391.1036.72512.2972c1.42063 1.4382 3.44403 2.0559 5.85266 2.0559 4.5431 0 8.226-3.6829 8.226-8.22593 0-2.25349-.9048-4.29368-2.3733-5.78039-.1951-.19751-.2993-.46723-.2877-.7446s.1381-.53743.349-.71792l1.1655-.99741c.4197-.359073 1.0509-.309994 1.41.10963zm-9.0195 2.85017c-2.76145 0-5.00002 2.23857-5.00002 5 0 2.76145 2.23857 4.99995 5.00002 4.99995 2.7614 0 5-2.2385 5-4.99995 0-2.76143-2.2386-5-5-5zm-7.00002 5c0-3.866 3.134-7 7.00002-7 3.866 0 7 3.134 7 7 0 3.86595-3.134 6.99995-7 6.99995-3.86602 0-7.00002-3.134-7.00002-6.99995z" fill="currentColor" fill-rule="evenodd"/></svg>