<svg fill="none" height="24" viewBox="0 0 24 24" width="24" xmlns="http://www.w3.org/2000/svg"><path clip-rule="evenodd" d="m4.68574 8.75444c-.44079.99192-.68574 2.09016-.68574 3.24556s.24495 2.2536.68574 3.2456c.72107-.3505 1.56923-.6447 2.50825-.8736-.08626-.7626-.13149-1.5575-.13149-2.372s.04523-1.6094.13149-2.37203c-.93902-.22884-1.78718-.52304-2.50825-.87353zm1.04145-1.72002c.51117.23295 1.11651.44145 1.79808.61497.20035-.8852.46137-1.69881.77434-2.41417.06423-.1468.13118-.2907.20087-.43122-1.08425.52827-2.0313 1.29437-2.77329 2.23042zm6.27281-5.03442c-5.52285 0-10 4.47715-10 10 0 5.5228 4.47715 10 10 10 5.5228 0 10-4.4772 10-10 0-5.52285-4.4772-10-10-10zm0 2c-.2128 0-.4943.09436-.8376.42621-.3481.3365-.7072.87171-1.0305 1.61065-.25046.57253-.46762 1.24039-.63959 1.98255.83589.10809 1.73729.16809 2.68409.16809.8192 0 1.6037-.0449 2.3408-.12682-.1735-.75868-.394-1.44069-.6491-2.02382-.3233-.73894-.6824-1.27415-1.0305-1.61065-.3433-.33185-.6248-.42621-.8376-.42621zm4.4928 3.73033c-.2026-.91657-.4699-1.758-.7924-2.49511-.0642-.1468-.1312-.2907-.2009-.43122 1.1282.54966 2.1078 1.3568 2.8624 2.34495-.5381.22282-1.1669.42017-1.8691.58138zm-1.6542 2.30657c-.8536.0989-1.7474.1506-2.6622.1506-1.0411 0-2.0539-.0669-3.01049-.19386-.06726.63956-.10341 1.31126-.10341 2.00636s.03615 1.3668.10341 2.0064c.95659-.127 1.96939-.1939 3.01049-.1939.9148 0 1.8086.0517 2.6622.1506.0644-.6265.0989-1.2837.0989-1.9631s-.0345-1.3366-.0989-1.9631zm1.9763 4.2552c.0805-.7382.1226-1.5061.1226-2.2921s-.0421-1.5539-.1226-2.29207c.9479-.21016 1.8125-.48526 2.5585-.81703.4035.95581.6266 2.0064.6266 3.1091s-.2231 2.1533-.6266 3.1091c-.746-.3318-1.6106-.6069-2.5585-.817zm-2.2977 1.6472c-.7371-.0819-1.5216-.1268-2.3408-.1268-.9468 0-1.8482.06-2.68409.1681.17197.7421.38913 1.41.63959 1.9825.3233.739.6824 1.2742 1.0305 1.6107.3433.3318.6248.4262.8376.4262s.4943-.0944.8376-.4262c.3481-.3365.7072-.8717 1.0305-1.6107.2551-.5831.4756-1.2651.6491-2.0238zm.9823 3.2567c.0697-.1405.1367-.2844.2009-.4312.3225-.7371.5898-1.5786.7924-2.4951.7022.1612 1.331.3585 1.8691.5814-.7546.9881-1.7342 1.7952-2.8624 2.3449zm-6.99902 0c-.06969-.1405-.13664-.2844-.20087-.4312-.31297-.7154-.57399-1.529-.77434-2.4142-.68157.1735-1.28691.382-1.79808.615.74199.936 1.68905 1.7021 2.77329 2.2304z" fill="currentColor" fill-rule="evenodd"/></svg>