<svg fill="none" height="24" viewBox="0 0 24 24" width="24" xmlns="http://www.w3.org/2000/svg"><path clip-rule="evenodd" d="m4.06189 11h3.02354c.10153-2.20211.53582-4.21425 1.21418-5.76478.06423-.1468.13118-.2907.20087-.43122-2.37924 1.15921-4.09787 3.46365-4.43859 6.196zm7.93811-9c-5.52285 0-10 4.47715-10 10 0 5.5228 4.47715 10 10 10 5.5228 0 10-4.4772 10-10 0-5.52285-4.4772-10-10-10zm0 2c-.2128 0-.4943.09436-.8376.42621-.3481.33651-.7072.87171-1.0305 1.61065-.5533 1.26475-.94404 2.99467-1.04415 4.96314h5.82455c-.1002-1.96847-.4909-3.69839-1.0442-4.96314-.3233-.73894-.6824-1.27414-1.0305-1.61065-.3433-.33185-.6248-.42621-.8376-.42621zm4.9146 7c-.1016-2.20211-.5359-4.21425-1.2142-5.76478-.0642-.1468-.1312-.2907-.2009-.43122 2.3793 1.15921 4.0979 3.46365 4.4386 6.196zm-2.0023 2h-5.82455c.10011 1.9685.49085 3.6984 1.04415 4.9631.3233.739.6824 1.2742 1.0305 1.6107.3433.3318.6248.4262.8376.4262s.4943-.0944.8376-.4262c.3481-.3365.7072-.8717 1.0305-1.6107.5533-1.2647.944-2.9946 1.0442-4.9631zm.5872 6.196c.0697-.1405.1367-.2844.2009-.4312.6783-1.5505 1.1126-3.5627 1.2142-5.7648h3.0235c-.3407 2.7324-2.0593 5.0368-4.4386 6.196zm-6.99902 0c-.06969-.1405-.13664-.2844-.20087-.4312-.67836-1.5505-1.11265-3.5627-1.21418-5.7648h-3.02354c.34072 2.7324 2.05936 5.0368 4.43859 6.196z" fill="currentColor" fill-rule="evenodd"/></svg>