<svg fill="none" height="24" viewBox="0 0 24 24" width="24" xmlns="http://www.w3.org/2000/svg"><path clip-rule="evenodd" d="m4.09714 10.7496c-.06394.4074-.09714.825-.09714 1.2504 0 .6234.0713 1.2301.2062 1.8125.00442-.0001.00885-.0001.01328-.0001h2.91911c-.05012-.5892-.07609-1.1952-.07609-1.8124 0-.4225.01217-.8398.03593-1.25h-2.97343c-.00932 0-.0186-.0001-.02786-.0004zm.59058-1.9996h2.62587c.21055-1.31573.54723-2.51183.98602-3.51478.06423-.1468.13118-.2907.20087-.43122-1.68981.82331-3.04639 2.2243-3.81276 3.946zm7.31228-6.75c-5.52285 0-10 4.47715-10 10 0 5.5228 4.47715 10 10 10 5.5228 0 10-4.4772 10-10 0-5.52285-4.4772-10-10-10zm0 2c-.2128 0-.4943.09436-.8376.42621-.3481.33651-.7072.87171-1.0305 1.61065-.33019.75477-.60249 1.6752-.78968 2.71314h5.31558c-.1872-1.03794-.4595-1.95837-.7897-2.71314-.3233-.73894-.6824-1.27414-1.0305-1.61065-.3433-.33185-.6248-.42621-.8376-.42621zm4.6864 4.75c-.2105-1.31573-.5472-2.51183-.986-3.51478-.0642-.1468-.1312-.2907-.2009-.43122 1.6898.82331 3.0464 2.2243 3.8128 3.946zm-1.7885 2h-5.7958c-.02601.4065-.0396.8239-.0396 1.25 0 .6251.02925 1.2314.08406 1.8124h5.70684c.0549-.581.0841-1.1873.0841-1.8124 0-.4261-.0136-.8435-.0396-1.25zm1.9635 3.0624c.0501-.5892.0761-1.1952.0761-1.8124 0-.4225-.0122-.8398-.0359-1.25h2.9734c.0093 0 .0186-.0001.0279-.0004.0639.4074.0971.825.0971 1.2504 0 .6234-.0713 1.2301-.2062 1.8124zm-2.3158 2h-5.09121c.17751.8097.40827 1.5353.67751 2.1507.3233.739.6824 1.2742 1.0305 1.6107.3433.3318.6248.4262.8376.4262s.4943-.0944.8376-.4262c.3481-.3365.7072-.8717 1.0305-1.6107.2692-.6154.5-1.341.6775-2.1507zm.9539 3.3836c.0697-.1405.1367-.2844.2009-.4312.3754-.8581.6761-1.8576.887-2.9524h2.4475c-.795 1.4639-2.0336 2.6519-3.5354 3.3836zm-6.99902 0c-.06969-.1405-.13664-.2844-.20087-.4312-.37541-.8581-.67608-1.8576-.88696-2.9524h-2.44756c.79499 1.4639 2.03359 2.6519 3.53539 3.3836z" fill="currentColor" fill-rule="evenodd"/></svg>