<svg fill="none" height="24" viewBox="0 0 24 24" width="24" xmlns="http://www.w3.org/2000/svg"><path clip-rule="evenodd" d="m20.6654 1.89111c.3591.41962.31 1.05088-.1096 1.40996l-.5418.46359c1.6155 1.9732 2.5859 4.49759 2.5859 7.24714 0 6.322-5.125 11.4469-11.4469 11.4469-2.71446 0-5.3213-.6178-7.37244-2.2652l-.65026.6953c-.37723.4034-1.01004.4246-1.41342.0474-.40339-.3772-.42459-1.01-.04736-1.4134l1.3202-1.4118c.18585-.1987.44466-.3131.71673-.3168.27207-.0038.53391.1035.72512.2971 1.64199 1.6624 3.97284 2.3674 6.72143 2.3674 5.2174 0 9.4469-4.2295 9.4469-9.4469 0-2.58794-1.0393-4.93117-2.7256-6.63839-.1951-.19751-.2993-.46723-.2876-.7446.0116-.27737.138-.53743.3489-.71792l1.3198-1.1294c.4197-.35908 1.0509-.31 1.41.10962zm-10.1126 3.00898c-3.2 0-5.79408 2.59408-5.79408 5.79401 0 3.2 2.59408 5.7941 5.79408 5.7941 3.1999 0 5.794-2.5941 5.794-5.7941 0-3.19993-2.5941-5.79401-5.794-5.79401zm-7.79408 5.79401c0-4.3045 3.48951-7.79401 7.79408-7.79401 4.3045 0 7.794 3.48951 7.794 7.79401 0 4.3046-3.4895 7.7941-7.794 7.7941-4.30457 0-7.79408-3.4895-7.79408-7.7941z" fill="currentColor" fill-rule="evenodd"/></svg>