<svg fill="none" height="24" viewBox="0 0 24 24" width="24" xmlns="http://www.w3.org/2000/svg"><path clip-rule="evenodd" d="m11.7805 4c-4.29706 0-7.7805 3.48344-7.7805 7.7805 0 .798.12013 1.5679.3433 2.2927h2.31524c.45799 0 .82926-.3713.82926-.8293v-2.378c0-1.56261 1.26671-2.82932 2.8293-2.82932h1.8292c.458 0 .8293-.37127.8293-.82926v-3.10976c0-.00211 0-.00422 0-.00633-.3896-.06007-.7887-.09123-1.1951-.09123zm3.1951.68419c1.82.82063 3.2681 2.32091 4.0202 4.17883.2072.51193.7902.75895 1.3021.55172.512-.20722.759-.79022.5518-1.30215-1.4502-3.5825-4.963-6.11259-9.0692-6.11259-5.40163 0-9.7805 4.37887-9.7805 9.7805 0 5.4016 4.37887 9.7805 9.7805 9.7805.5523 0 1-.4477 1-1s-.4477-1-1-1c-2.71044 0-5.09717-1.386-6.49016-3.4878h1.3682c1.56256 0 2.82926-1.2667 2.82926-2.8293v-2.378c0-.458.37128-.8293.8293-.8293h1.8292c1.5626 0 2.8293-1.26672 2.8293-2.82928zm2.5122 8.09631c-1.4083 0-2.5122 1.1112-2.5122 2.4358 0 .3346.1349.7833.4283 1.3255.2861.5288.6803 1.0685 1.0949 1.5643.3488.417.6996.7882.989 1.078.2894-.2898.6402-.661.989-1.078.4146-.4958.8088-1.0355 1.0949-1.5643.2935-.5422.4283-.9909.4283-1.3255 0-1.3246-1.1039-2.4358-2.5122-2.4358zm0 7.7805c-.6562.7546-.6563.7544-.6565.7543l-.0014-.0012-.003-.0027-.0098-.0086-.0341-.0302c-.0289-.0258-.0701-.0627-.1216-.11-.1031-.0944-.2483-.2302-.4217-.3998-.3455-.338-.8088-.8162-1.2751-1.3736-.4634-.5542-.9473-1.2074-1.3197-1.8955-.3651-.6747-.6693-1.4667-.6693-2.2774 0-2.4704 2.041-4.4358 4.5122-4.4358s4.5122 1.9654 4.5122 4.4358c0 .8107-.3042 1.6027-.6693 2.2774-.3724.6881-.8563 1.3413-1.3197 1.8955-.4663.5574-.9296 1.0356-1.2751 1.3736-.1734.1696-.3186.3054-.4217.3998-.0515.0473-.0926.0842-.1216.11l-.0341.0302-.0098.0086-.003.0027-.001.0009c-.0002.0001-.0007.0006-.6569-.754zm0 0 .6569.754c-.3763.3272-.9371.3275-1.3134.0003zm0-6.3343c.5523 0 1 .4477 1 1v.066c0 .5523-.4477 1-1 1s-1-.4477-1-1v-.066c0-.5523.4477-1 1-1z" fill="currentColor" fill-rule="evenodd"/></svg>