<svg fill="none" height="24" viewBox="0 0 24 24" width="24" xmlns="http://www.w3.org/2000/svg"><path clip-rule="evenodd" d="m11 4c-4.41828 0-8 3.58172-8 8 0 .827.12548 1.6246.35844 2.375h2.39156c.48325 0 .875-.3917.875-.875v-2.4375c0-1.58782 1.28718-2.875 2.875-2.875h1.875c.4833 0 .875-.39175.875-.875v-3.1875c0-.00931.0001-.01859.0004-.02784-.4074-.06395-.825-.09716-1.2504-.09716zm3.25.68779c2.5079 1.11634 4.3356 3.48483 4.6881 6.31091.0683.5481.568.937 1.116.8686.5481-.0683.9369-.568.8686-1.116-.6153-4.93395-4.8224-8.7513-9.9227-8.7513-5.52285 0-10 4.47715-10 10 0 5.5228 4.47715 10 10 10 .8617 0 1.6994-.1092 2.4993-.3151.5348-.1377.8568-.6828.7191-1.2177-.1376-.5349-.6828-.8568-1.2177-.7192-.6384.1643-1.3086.252-2.0007.252-2.80354 0-5.27026-1.4421-6.69881-3.625h1.44881c1.58782 0 2.875-1.2872 2.875-2.875v-2.4375c0-.4832.39175-.875.875-.875h1.875c1.5878 0 2.875-1.28718 2.875-2.875zm1.4502 9.78191 1.6632 4.478.6199-1.6531c.1046-.2789.328-.4967.6096-.594l1.4396-.4977zm-2.2268-.2514c-.4686-1.2617.7814-2.481 2.0311-1.981l6.3876 2.5554c1.3342.5338 1.2888 2.4378-.0693 2.9074l-2.132.7371-.8765 2.3373c-.5043 1.3448-2.4076 1.3418-2.9077-.0046z" fill="currentColor" fill-rule="evenodd"/></svg>