<svg fill="none" height="24" viewBox="0 0 24 24" width="24" xmlns="http://www.w3.org/2000/svg"><path clip-rule="evenodd" d="m10.9762 1.56625c.6309-.37593 1.4169-.37593 2.0478 0l9.5839 5.71146c.7015.41803.8989 1.26566.5922 1.92547v4.74642c0 .5523-.4477 1-1 1s-1-.4477-1-1v-3.2558l-1.2611.7515v5.9474c0 .7076-.3738 1.3624-.983 1.7222l-5.392 3.1839c-.9715.5737-2.1826.5538-3.1348-.0514l-4.94797-3.1452c-.57739-.3671-.9271-1.0038-.9271-1.6879v-5.6752l-3.16187-1.8843c-.976137-.58172-.976142-1.99536 0-2.57709zm-4.42207 11.36475v4.4833l4.94797 3.1452c.3174.2018.7211.2084 1.045.0172l5.3919-3.184v-4.7555l-4.915 2.9291c-.6309.3759-1.4169.3759-2.0478 0zm14.30917-4.36474-8.8632-5.28196-8.86324 5.28196 8.86324 5.28194z" fill="currentColor" fill-rule="evenodd"/></svg>