<svg fill="none" height="24" viewBox="0 0 24 24" width="24" xmlns="http://www.w3.org/2000/svg"><path clip-rule="evenodd" d="m20.74 9.3634-8.8633-5.28196-8.86324 5.28196 8.86324 5.2819zm1.7445-1.28854c.9762.58172.9762 1.99534 0 2.57704l-2.6688 1.5905v5.9475c0 .7075-.3739 1.3624-.9831 1.7221l-5.392 3.184c-.9715.5736-2.1826.5538-3.1347-.0515l-4.94806-3.1452c-.57739-.367-.9271-1.0037-.9271-1.6879v-5.6752l-3.16187-1.8843c-.976138-.5817-.976144-1.99532 0-2.57704l9.58403-5.71147c.6308-.37593 1.4169-.37593 2.0477 0zm-16.05376 5.65324v4.4833l4.94806 3.1453c.3173.2017.721.2083 1.0449.0171l5.392-3.1839v-4.7556l-4.9151 2.9291c-.6308.3759-1.4169.3759-2.0477 0z" fill="currentColor" fill-rule="evenodd"/></svg>