<svg fill="none" height="24" viewBox="0 0 24 24" width="24" xmlns="http://www.w3.org/2000/svg"><path clip-rule="evenodd" d="m9.49773 3.01361c.54477.09079.91277.60602.82197 1.15079l-.47257 2.8356h5.97237l.5274-3.1644c.0908-.54477.6061-.91279 1.1508-.82199.5448.09079.9128.60602.822 1.15079l-.4726 2.8356h2.1529c.5523 0 1 .44772 1 1 0 .55229-.4477 1-1 1h-2.4862l-1 6h3.4862c.5523 0 1 .4477 1 1s-.4477 1-1 1h-3.8195l-.5274 3.1644c-.0908.5448-.6061.9128-1.1508.822-.5448-.0908-.9128-.606-.822-1.1508l.4726-2.8356h-5.97244l-.5274 3.1644c-.0908.5448-.60602.9128-1.15079.822s-.91279-.606-.822-1.1508l.4726-2.8356h-2.15287c-.55228 0-1-.4477-1-1s.44772-1 1-1h2.48621l1-6h-3.48621c-.55228 0-1-.44771-1-1 0-.55228.44772-1 1-1h3.81954l.5274-3.1644c.09079-.54477.60602-.91279 1.15079-.82199zm.01606 5.98639-1 6h5.97241l1-6z" fill="currentColor" fill-rule="evenodd"/></svg>