<svg fill="none" height="24" viewBox="0 0 24 24" width="24" xmlns="http://www.w3.org/2000/svg"><path clip-rule="evenodd" d="m1.86182 3.6001c0-.55229.44771-1 1-1h5.53846c.55228 0 1 .44771 1 1 0 .55228-.44772 1-1 1h-1.76923v6.3077h10.46155v-6.3077h-1.7692c-.5523 0-1-.44772-1-1 0-.55229.4477-1 1-1h5.5384c.5523 0 1 .44771 1 1 0 .55228-.4477 1-1 1h-1.7692v14.6154h1.7692c.5523 0 1 .4477 1 1s-.4477 1-1 1h-5.5384c-.5523 0-1-.4477-1-1s.4477-1 1-1h1.7692v-6.3077h-10.46155v6.3077h1.76923c.55228 0 1 .4477 1 1s-.44772 1-1 1h-5.53846c-.55229 0-1-.4477-1-1s.44771-1 1-1h1.76923v-14.6154h-1.76923c-.55229 0-1-.44772-1-1z" fill="currentColor" fill-rule="evenodd"/></svg>