<svg fill="none" height="24" viewBox="0 0 24 24" width="24" xmlns="http://www.w3.org/2000/svg"><path clip-rule="evenodd" d="m16.7796 2.77756c.7701-.00669 1.5339.14006 2.2467.43169s1.3604.72229 1.9049 1.26687c.5446.54458.9753 1.19216 1.2669 1.90496s.4384 1.47654.4317 2.24666-.1667 1.53116-.4707 2.23886c-.3027.7046-.7421 1.3422-1.2928 1.8759l-8.1881 8.1893c-.1875.1875-.4419.2929-.7072.2929-.2652 0-.5196-.1054-.7071-.2929l-8.19361-8.1948-.00006-.0001c-1.08733-1.0876-1.69816-2.5626-1.69816-4.10058 0-1.53795.61083-3.01293 1.69816-4.10059l.00021-.00022c1.08766-1.08733 2.56265-1.69816 4.1006-1.69816 1.53786 0 3.01276.61076 4.10036 1.69797l.6996.699.694-.69335c.5336-.55066 1.1712-.99006 1.8758-1.29274.7076-.30398 1.4687-.46398 2.2388-.47067zm1.4894 2.28276c-.4671-.19107-.9674-.28722-1.472-.28283-.5046.00438-1.0032.10921-1.4668.30836-.46.1976-.8764.48413-1.2252.84309l-.0083.0085c-.0041.00427-.0083.0085-.0125.01269l-1.4064 1.40521c-.3904.39012-1.0231.39012-1.4136 0l-1.40636-1.40521c-.00007-.00006-.00013-.00013-.0002-.00019-.7126-.71239-1.67897-1.11259-2.6866-1.11259-1.00762 0-1.97399.4002-2.6866 1.11259-.71225.71258-1.11237 1.67886-1.11237 2.68638 0 1.0076.40018 1.97398 1.11253 2.68658l7.4864 7.4875 7.4865-7.4875.0031-.0031c.0031-.0031.0062-.0061.0093-.0092.363-.3505.6525-.7698.8516-1.2334.1992-.46364.304-.96227.3084-1.46684.0044-.50456-.0918-1.00494-.2828-1.47195-.1911-.467-.4733-.89128-.8301-1.24807s-.781-.63895-1.248-.83002z" fill="currentColor" fill-rule="evenodd"/></svg>