<svg fill="none" height="24" viewBox="0 0 24 24" width="24" xmlns="http://www.w3.org/2000/svg"><path clip-rule="evenodd" d="m7.09402 5.6798 2.60068 2.60068c1.4074-.87397 3.2032-.87397 4.6106 0l2.6007-2.60067c-2.8779-2.23974-6.93408-2.23974-9.81198-.00001zm11.22618 1.41422-2.6007 2.60068c.874 1.4074.874 3.2032 0 4.6106l2.6007 2.6007c2.2397-2.8779 2.2397-6.93408 0-9.81198zm-1.4142 11.22618-2.6007-2.6007c-1.4074.874-3.2032.874-4.6106 0l-2.60068 2.6007c2.8779 2.2397 6.93408 2.2397 9.81198 0zm-11.22619-1.4142 2.60067-2.6007c-.87397-1.4074-.87397-3.2032 0-4.6106l-2.60068-2.60068c-2.23973 2.8779-2.23973 6.93408.00001 9.81198zm-.75088-11.97707c3.90525-3.90524 10.23687-3.90524 14.14217 0 3.9052 3.90525 3.9052 10.23687 0 14.14217-3.9053 3.9052-10.23692 3.9052-14.14217 0-3.90524-3.9053-3.90524-10.23692 0-14.14217zm8.75047 5.39167c-.9275-.92747-2.4313-.92747-3.3588 0-.92747.9275-.92747 2.4313 0 3.3588.9275.9275 2.4313.9275 3.3588 0s.9275-2.4313 0-3.3588z" fill="currentColor" fill-rule="evenodd"/></svg>