<svg fill="none" height="24" viewBox="0 0 24 24" width="24" xmlns="http://www.w3.org/2000/svg"><path clip-rule="evenodd" d="m12 4c-4.41828 0-8 3.58172-8 8 0 4.4183 3.58172 8 8 8 4.4183 0 8-3.5817 8-8 0-4.41828-3.5817-8-8-8zm-10 8c0-5.52285 4.47715-10 10-10 5.5228 0 10 4.47715 10 10 0 5.5228-4.4772 10-10 10-5.52285 0-10-4.4772-10-10zm10-4.0625c-.6728 0-1.25.56095-1.25 1.29249 0 .55229-.4477 1.00001-1 1.00001-.55228 0-1-.44772-1-1.00001 0-1.80067 1.4375-3.29249 3.25-3.29249s3.25 1.49182 3.25 3.29249c0 1.45341-.9365 2.70561-2.2508 3.13451-.0001.2063-.0002.4395-.0002.6863 0 .5523-.4477 1-1 1s-1-.4477-1-1c0-.4224.0003-.8048.0005-1.0816l.0005-.4476c.0008-.5518.4483-.9991 1-.9991.6728 0 1.25-.56096 1.25-1.2925 0-.73155-.5772-1.2925-1.25-1.2925zm-.001 7.5625c.5523 0 1 .4477 1 1v.0396c0 .5522-.4477 1-1 1s-1-.4478-1-1v-.0396c0-.5523.4477-1 1-1z" fill="currentColor" fill-rule="evenodd"/></svg>