<svg fill="none" height="24" viewBox="0 0 24 24" width="24" xmlns="http://www.w3.org/2000/svg"><path clip-rule="evenodd" d="m6.375 4c-1.31168 0-2.375 1.06332-2.375 2.37498v11.25002c0 1.3117 1.06332 2.375 2.375 2.375h11.25c1.3117 0 2.375-1.0633 2.375-2.375v-11.25002c0-1.31166-1.0633-2.37498-2.375-2.37498zm-4.375 2.37498c0-2.41624 1.95876-4.37498 4.375-4.37498h11.25c2.4162 0 4.375 1.95874 4.375 4.37498v11.25002c0 2.4163-1.9588 4.375-4.375 4.375h-11.25c-2.41624 0-4.375-1.9587-4.375-4.375zm10.001 1.5625c-.6728 0-1.25.56094-1.25 1.29248 0 .55228-.4477 1.00004-1.00002 1.00004-.55229 0-1-.44776-1-1.00004 0-1.80067 1.43752-3.29248 3.25002-3.29248s3.25 1.49181 3.25 3.29248c0 1.45334-.9365 2.70554-2.2508 3.13454-.0001.2063-.0002.4394-.0002.6863 0 .5522-.4477 1-1 1s-1-.4478-1-1c0-.4224.0002-.8048.0005-1.0816l.0005-.4477c.0008-.5517.4482-.9991 1-.9991.6728 0 1.25-.56091 1.25-1.29244 0-.73154-.5772-1.29248-1.25-1.29248zm-.001 7.56242c.5523 0 1 .4477 1 1v.0396c0 .5523-.4477 1-1 1s-1-.4477-1-1v-.0396c0-.5523.4477-1 1-1z" fill="currentColor" fill-rule="evenodd"/></svg>