<svg fill="none" height="24" viewBox="0 0 24 24" width="24" xmlns="http://www.w3.org/2000/svg"><path clip-rule="evenodd" d="m12.1352 4.03954c-.0779-.05272-.1925-.05272-.2704-.00001l-7.80004 5.27486c-.05288.03577-.06476.07775-.06476.10166v9.87215c0 .3464.31023.7118.8.7118h3.2v-5.8472c0-1.2293 1.03292-2.1412 2.2-2.1412h3.6c1.1671 0 2.2.9119 2.2 2.1412v5.8472h3.2c.4898 0 .8-.3654.8-.7118v-9.87215c0-.02391-.0119-.06589-.0648-.10166zm7.0648 17.96046c1.4985 0 2.8-1.1674 2.8-2.7118v-9.87215c0-.71489-.3642-1.366-.9444-1.75838l-7.8-5.27486c-.7547-.51041-1.7565-.51041-2.5112 0l-7.80002 5.27486c-.58022.39238-.94438 1.0435-.94438 1.75838v9.87215c0 1.5444 1.30155 2.7118 2.8 2.7118zm-5.2-2v-5.8472c0-.0223-.0078-.0511-.0406-.0823-.0337-.032-.0878-.0589-.1594-.0589h-3.6c-.0716 0-.1257.0269-.1594.0589-.0328.0312-.0406.06-.0406.0823v5.8472z" fill="currentColor" fill-rule="evenodd"/></svg>