<svg fill="none" height="24" viewBox="0 0 24 24" width="24" xmlns="http://www.w3.org/2000/svg"><path clip-rule="evenodd" d="m10.2593 2.82726c.2519-.25325.8229-.82726 1.7407-.82726s1.4888.57401 1.7407.82726c.0275.02765.0512.05148.0712.07032.0067.00635.0133.0128.0199.01933l1.0087 1.00775c.3899-.48702.9891-.79966 1.6595-.79966h1.125c1.171 0 2.125.95397 2.125 2.125v3.58046l1.3381 1.33714.0145.0149c.019.0197.039.0403.06.0618.3162.3252.8374.8609.8374 1.7557 0 1.1824-.9304 2.125-2.125 2.125h-.125v5.75c0 1.171-.954 2.125-2.125 2.125h-2.8125c-.2835 0-.6184-.057-.921-.2674-.3133-.2179-.471-.5157-.5486-.7667-.0719-.2324-.0869-.4616-.0919-.6219-.0035-.111-.0025-.2437-.0016-.3537.0003-.0427.0006-.082.0006-.1153v-4.5c0-.0313-.0119-.0617-.0376-.0874s-.0561-.0376-.0874-.0376h-2.25c-.0313 0-.0617.0119-.0874.0376s-.0376.0561-.0376.0874v4.5c0 1.1736-.9514 2.125-2.125 2.125h-2.25c-1.17103 0-2.125-.954-2.125-2.125v-5.75h-.125c-1.19457 0-2.125-.9426-2.125-2.125 0-.8948.52115-1.4305.83744-1.7557.02094-.0215.04099-.0421.05992-.0618l.01456-.0149 7.25628-7.25061c.0065-.00656.0132-.01303.0199-.01941.02-.01884.0437-.04267.0712-.07032zm1.3131 1.51392-7.2395 7.23392c-.00513.0053-.01017.0106-.01512.0157-.08236.0858-.14194.1478-.19503.2078-.05522.0624-.08468.102-.10159.1285-.01453.0228-.01728.0321-.01755.0331h-.00002c-.00033.0011-.00105.0036-.00177.0086-.00075.0052-.00182.0151-.00182.0312 0 .0548.01855.0814.03121.0941.01217.0122.03787.0309.09379.0309h1.125c.55228 0 1 .4477 1 1v6.75c0 .0313.01189.0617.03758.0874.02568.0257.05616.0376.08742.0376h2.25c.06904 0 .125-.056.125-.125v-4.5c0-1.171.95397-2.125 2.125-2.125h2.25c1.171 0 2.125.954 2.125 2.125v4.5c0 .041-.0003.0842-.0006.125h2.3756c.0313 0 .0617-.0119.0874-.0376s.0376-.0561.0376-.0874v-6.75c0-.5523.4477-1 1-1h1.125c.0559 0 .0816-.0187.0938-.0309.0127-.0127.0312-.0393.0312-.0941 0-.0161-.0011-.026-.0018-.0312-.0007-.005-.0015-.0075-.0018-.0086-.0003-.001-.003-.0103-.0176-.0331-.0169-.0265-.0463-.0661-.1015-.1285-.0531-.06-.1127-.122-.1951-.2078l-.0151-.0157-1.624-1.62287c-.1876-.18756-.2931-.44202-.2931-.70736v-3.99487c0-.03126-.0119-.06174-.0376-.08742-.0257-.02569-.0561-.03758-.0874-.03758h-1.125c-.0313 0-.0617.01189-.0874.03758-.0257.02568-.0376.05616-.0376.08742v.62212c0 .40438-.2435.76895-.6171.92379-.3735.15484-.8036.06947-1.0897-.21632l-2.2405-2.23836c-.034-.03221-.0674-.06462-.0966-.09284-.0055-.0054-.0109-.01064-.0162-.0157-.0376-.03646-.069-.06658-.0991-.09443-.0605-.05603-.1004-.08809-.1305-.10861-.0273-.01863-.0408-.02362-.0451-.02507l-.0001-.00005c-.0029-.00097-.0135-.00453-.0401-.00453s-.0372.00356-.0401.00453l-.0001.00005c-.0043.00145-.0178.00644-.0451.02507-.0301.02052-.07.05258-.1305.10861-.0301.02785-.0615.05797-.0991.09443-.0053.00506-.0107.0103-.0162.0157-.0292.02821-.0626.06059-.0965.09279z" fill="currentColor" fill-rule="evenodd"/></svg>