<svg fill="none" height="24" viewBox="0 0 24 24" width="24" xmlns="http://www.w3.org/2000/svg"><path clip-rule="evenodd" d="m2.91162 1.40039c.55228 0 1 .44771 1 1v1.40893c.06731-.00594.13411-.00893.2-.00893h4.8l.01168.00003c.99298.0053 2.1883.68579 2.1883 1.95997v2.74822l8.776.00001.0117.00002c.993.0053 2.1883.68579 2.1883 1.95996v2.9266.0075c-.0047 1.2694-1.1973 1.9472-2.1883 1.9525h-.0117-3.456v2.8852.0075c-.0047 1.2693-1.1973 1.9472-2.1883 1.9525h-.0117-10.11998c-.06589 0-.13269-.003-.2-.0089v1.4089c0 .5523-.44772 1-1 1-.55229 0-1-.4477-1-1v-19.20001c0-.55229.44771-1 1-1zm1 16.75371c.03777.0214.10502.0463.2.0463h10.11998.0056c.092-.001.1574-.0253.1944-.0463v-2.7537c-.0326-.0186-.0881-.0401-.1661-.0452h-10.35388zm0-4.799 10.31948-.001c.0251 0 .05.0004.075.0011h5.5815.0056c.092-.001.1574-.0253.1944-.0462v-2.7541c-.037-.021-.1024-.0453-.1944-.0463h-.0056-15.97598zm.1944-7.55468c-.09202.00095-.15738.02524-.1944.04622v2.66198h4.99928c.00024-.00001.00048-.00001.00072-.00001l.0056-.00003c.09203-.00095.15738-.02524.1944-.04621v-2.61573c-.03702-.02098-.10237-.04527-.1944-.04622l-.0056-.00003h-4.8z" fill="currentColor" fill-rule="evenodd"/></svg>