<svg fill="none" height="24" viewBox="0 0 24 24" width="24" xmlns="http://www.w3.org/2000/svg"><path clip-rule="evenodd" d="m2 6.375c0-2.41625 1.95875-4.375 4.375-4.375h11.25c2.4162 0 4.375 1.95875 4.375 4.375v11.25c0 2.4162-1.9588 4.375-4.375 4.375h-11.25c-2.41625 0-4.375-1.9588-4.375-4.375zm4.375-2.375c-1.31168 0-2.375 1.06332-2.375 2.375v11.25c0 .1258.00977.2492.0286.3697l3.88929-3.8893c.39053-.3905 1.02369-.3905 1.41422 0l1.54289 1.5429 4.3554-4.3554c.3905-.3905 1.0237-.3905 1.4142 0l3.3554 3.3554v-8.2733c0-1.31168-1.0633-2.375-2.375-2.375zm13.625 13.3995c-.0974-.0474-.1887-.1115-.2696-.1924l-3.7929-3.7929-4.3554 4.3554c-.3905.3905-1.0237.3905-1.4142 0l-1.5429-1.5429-3.44891 3.4489c.3519.2062.7616.3244 1.19891.3244h11.25c1.3117 0 2.375-1.0633 2.375-2.375zm-11.9375-10.0245c-.3797 0-.6875.3078-.6875.6875s.3078.6875.6875.6875.6875-.3078.6875-.6875-.3078-.6875-.6875-.6875zm-2.6875.6875c0-1.48427 1.20323-2.6875 2.6875-2.6875s2.6875 1.20323 2.6875 2.6875-1.20323 2.6875-2.6875 2.6875-2.6875-1.20323-2.6875-2.6875z" fill="currentColor" fill-rule="evenodd"/></svg>