<svg fill="none" height="24" viewBox="0 0 24 24" width="24" xmlns="http://www.w3.org/2000/svg"><path clip-rule="evenodd" d="m2 6.35294c0-2.40406 1.94888-4.35294 4.35294-4.35294h7.26466c.5523 0 1 .44772 1 1s-.4477 1-1 1h-7.26466c-1.29949 0-2.35294 1.05345-2.35294 2.35294v11.17646c0 1.1749.86105 2.1486 1.9865 2.3246l9.1811-8.641c.3936-.3705 1.0103-.3611 1.3924.0211l3.3224 3.3223v-3.7329c0-.5523.4477-.99997 1-.99997.5522 0 1 .44767 1 .99997v6.7059c0 2.4041-1.9489 4.3529-4.353 4.3529h-11.17646c-2.40406 0-4.35294-1.9488-4.35294-4.3529zm17.8824 10.95656c-.0961-.0472-.1861-.1108-.266-.1906l-3.7846-3.7846-6.95728 6.548h8.65488c1.2995 0 2.353-1.0534 2.353-2.3529zm-3.0601-15.01661c.3905-.39052 1.0237-.39052 1.4142 0l1.5282 1.52819 1.5282-1.52819c.3905-.39052 1.0237-.39052 1.4142 0 .3905.39053.3905 1.02369 0 1.41422l-1.5282 1.52818 1.5282 1.52819c.3905.39053.3905 1.02369 0 1.41421-.3905.39053-1.0237.39053-1.4142 0l-1.5282-1.52818-1.5282 1.52818c-.3905.39053-1.0237.39053-1.4142 0-.3905-.39052-.3905-1.02368 0-1.41421l1.5282-1.52819-1.5282-1.52818c-.3905-.39053-.3905-1.02369 0-1.41422zm-8.79289 5.06005c-.3736 0-.67647.30287-.67647.67647s.30287.67647.67647.67647c.37361 0 .67647-.30287.67647-.67647s-.30286-.67647-.67647-.67647zm-2.67647.67647c0-1.47817 1.1983-2.67647 2.67647-2.67647 1.47818 0 2.67649 1.1983 2.67649 2.67647s-1.19831 2.67649-2.67649 2.67649c-1.47817 0-2.67647-1.19832-2.67647-2.67649z" fill="currentColor" fill-rule="evenodd"/></svg>