<svg fill="none" height="24" viewBox="0 0 24 24" width="24" xmlns="http://www.w3.org/2000/svg"><g fill="currentColor"><path clip-rule="evenodd" d="m14.2755 10.4972c.5702-.53212 1.4568-.52589 2.0193.0142l1.7399 1.6703c.3778.365.5913.8679.5913 1.3934v3.5807c0 .8111-.6576 1.4687-1.4688 1.4687h-10.31247c-.81117 0-1.46875-.6576-1.46875-1.4687v-1.9534c0-.397.12191-.783.34717-1.1067.10233-.147.21573-.2497.28573-.309h.00001l2.01597-1.7081c.00002-.0001.00005-.0001.00007-.0001l.00039-.0004.0004-.0004.0096-.0098.00071-.0007c.57363-.5801 1.51238-.5805 2.08647-.0011l.0067.0068.0007.0007.0007.0007.0082.0085.0004.0003.0003.0004.0001.0001 1.274 1.1034 2.8607-2.6886zm-1.8485 4.482-.0013.0012c-.5877.5485-1.4984.5189-2.0512-.0457l-.0007-.0008-.0007-.0007-.0091-.0094c-.0001 0-.0001 0-.0001-.0001l-1.28727-1.1149-1.70065 1.441v1.3747h9.25002v-3.0228l-1.3522-1.2981z" fill-rule="evenodd"/><path d="m16.3723 5.93683c.5523 0 1 .44771 1 .99999v.27246c0 .55229-.4477 1.00001-1 1.00001h-.3218c-.5522 0-1-.44772-1-1.00001v-.27246c0-.55228.4478-.99999 1-.99999z"/><path clip-rule="evenodd" d="m17.626 1.99951c2.4162 0 4.375 1.95875 4.375 4.375v11.24999c0 2.4163-1.9588 4.375-4.375 4.375h-11.25003c-2.41624 0-4.37499-1.9587-4.37499-4.375v-11.24999c0-2.41625 1.95875-4.375 4.37499-4.375zm-11.25003 2c-1.31167 0-2.37499 1.06332-2.37499 2.375v11.24999c0 1.3117 1.06332 2.375 2.37499 2.375h11.25003c1.3117 0 2.375-1.0633 2.375-2.375v-11.24999c0-1.31168-1.0633-2.375-2.375-2.375z" fill-rule="evenodd"/></g></svg>