<svg fill="none" height="24" viewBox="0 0 24 24" width="24" xmlns="http://www.w3.org/2000/svg"><path clip-rule="evenodd" d="m6.59991 4.59998c-.44183 0-.8.35817-.8.8 0 .44182.35817.8.8.8s.8-.35818.8-.8c0-.44183-.35817-.8-.8-.8zm-2.8.8c0-1.5464 1.2536-2.8 2.8-2.8s2.8 1.2536 2.8 2.8c0 1.54639-1.2536 2.8-2.8 2.8s-2.8-1.25361-2.8-2.8zm10.11999 4.4c.3038 0 .5911.13809.7809.37532l7.68 9.6c.2401.3002.2869.7114.1204 1.0579-.1665.3464-.5169.5668-.9013.5668h-19.19999c-.3844 0-.73478-.2204-.9013-.5668-.16652-.3465-.1197-.7577.12043-1.0579l5.28-6.6c.18977-.2372.47709-.3753.78087-.3753.30379 0 .5911.1381.78087.3753l1.13913 1.4239 3.53909-4.4239c.1898-.23723.4771-.37532.7809-.37532zm0 2.60082-3.5391 4.4239c-.1898.2372-.47711.3753-.78089.3753s-.5911-.1381-.78087-.3753l-1.13913-1.4239-3.19937 3.9992h15.03876z" fill="currentColor" fill-rule="evenodd"/></svg>