<svg fill="none" height="24" viewBox="0 0 24 24" width="24" xmlns="http://www.w3.org/2000/svg"><path clip-rule="evenodd" d="m18.986 2c.5522 0 1 .44771 1 1v2.01429h2.0142c.5523 0 1 .44772 1 1 0 .55229-.4477 1-1 1h-2.0142v2.0143c0 .55228-.4478 1.00001-1 1.00001-.5523 0-1-.44773-1-1.00001v-2.0143h-2.0143c-.5523 0-1-.44771-1-1 0-.55228.4477-1 1-1h2.0143v-2.01429c0-.55228.4477-1 1-1zm-16.98576 5.08001c0-2.31802 1.87913-4.19714 4.19715-4.19714h6.92711c.5523 0 1 .44771 1 1 0 .55228-.4477 1-1 1h-6.92711c-1.21345 0-2.19715.98369-2.19715 2.19714v10.65709c0 1.0893.79263 1.9934 1.83256 2.1671l8.7378-8.2238c.3936-.3705 1.0103-.3611 1.3925.0211l3.0886 3.0886v-2.3815c0-.5523.4477-1 1-1 .5522 0 1 .4477 1 1v5.3285c0 2.3181-1.8792 4.1972-4.1972 4.1972h-10.65711c-2.31802 0-4.19715-1.8791-4.19715-4.1972zm17.05146 10.47589c-.0863-.0456-.1674-.1047-.24-.1774l-3.5769-3.5768-6.51584 6.1326h8.13554c1.2135 0 2.1972-.9837 2.1972-2.1972zm-11.25574-9.47589c-.33059 0-.59857.26799-.59857.59857s.26798.59857.59857.59857c.33058 0 .59857-.26799.59857-.59857s-.26799-.59857-.59857-.59857zm-2.59857.59857c0-1.43515 1.16342-2.59857 2.59857-2.59857s2.59854 1.16342 2.59854 2.59857c0 1.43512-1.16339 2.59852-2.59854 2.59852s-2.59857-1.1634-2.59857-2.59852z" fill="currentColor" fill-rule="evenodd"/></svg>