<svg fill="none" height="24" viewBox="0 0 24 24" width="24" xmlns="http://www.w3.org/2000/svg"><path clip-rule="evenodd" d="m22.6001 19.2c0 .5522-.4477 1-1 1l-19.2-.0001c-.55228 0-1-.4477-1-1 0-.5522.44772-1 1-1l19.2.0001c.5523 0 1 .4477 1 1zm0-6c0 1.215-.985 2.1999-2.2 2.1999h-3.6c-1.215 0-2.2-.9849-2.2-2.2v-3.59995c0-1.21503.985-2.2 2.2-2.2h3.6c1.215 0 2.2.98497 2.2 2.2zm-2.2.2c.1105 0 .2-.0896.2-.2v-3.60005c0-.11046-.0895-.2-.2-.2h-3.6c-.1105 0-.2.08954-.2.2v3.59995c0 .1105.0895.2.2.2zm-18-.4001h8.4c.5523 0 1 .4478 1 1 0 .5523-.4477 1-1 1h-8.4c-.55228 0-1-.4477-1-1 0-.5522.44772-1 1-1zm9.4-4.19995c0 .55228-.4477 1-1 1h-8.4c-.55228 0-1-.44772-1-1 0-.55229.44772-1 1-1h8.4c.5523 0 1 .44771 1 1zm10.8-5.2c0 .55229-.4477 1-1 1h-19.2c-.55228 0-1-.44771-1-1 0-.55228.44772-1 1-1h19.2c.5523 0 1 .44772 1 1z" fill="currentColor" fill-rule="evenodd"/></svg>