<svg fill="none" height="24" viewBox="0 0 24 24" width="24" xmlns="http://www.w3.org/2000/svg"><path clip-rule="evenodd" d="m4.7999 3.40015c-.72548 0-1.4.6344-1.4 1.52631v14.14734c0 .8919.67452 1.5263 1.4 1.5263h14.4c.7255 0 1.4-.6344 1.4-1.5263v-14.14734c0-.89191-.6745-1.52631-1.4-1.52631zm-3.4 1.52631c0-1.89858 1.47452-3.52631 3.4-3.52631h14.4c1.9255 0 3.4 1.62773 3.4 3.52631v14.14734c0 1.8986-1.4745 3.5263-3.4 3.5263h-14.4c-1.92548 0-3.4-1.6277-3.4-3.5263zm12.6344 2.67416c.3464.01193.6619.20236.8338.50327l4 7.00001c.1769.3095.1756.6897-.0033.9981-.1789.3083-.5084.498-.8649.498h-11.99999c-.3688 0-.70766-.203-.88168-.5281-.17402-.3252-.15494-.7197.04963-1.0266l3-4.5c.16618-.2492.43537-.4109.73351-.4404.29813-.0295.5938.0762.80564.288l1.13749 1.1375 2.3234-3.48507c.1922-.28837.5201-.45664.8664-.44471zm-.0999 2.90038-2.1024 3.1537c-.1662.2493-.4354.4109-.7336.4405-.2981.0295-.5938-.0762-.8056-.2881l-1.13747-1.1374-1.28691 1.9303h8.40828z" fill="currentColor" fill-rule="evenodd"/></svg>