<svg fill="none" height="24" viewBox="0 0 24 24" width="24" xmlns="http://www.w3.org/2000/svg"><path clip-rule="evenodd" d="m2 12c0-5.52285 4.47715-10 10-10 5.5228 0 10 4.47715 10 10 0 5.5228-4.4772 10-10 10-5.52285 0-10-4.4772-10-10zm10-8c-4.41828 0-8 3.58172-8 8 0 1.7043.53296 3.2842 1.4413 4.582l2.47659-2.4766c.39053-.3905 1.02369-.3905 1.41422 0l1.54289 1.5429 4.3554-4.3554c.3905-.3905 1.0237-.3905 1.4142 0l3.0169 3.0169c.2202-.7313.3385-1.5067.3385-2.3098 0-4.41828-3.5817-8-8-8zm6.7768 12.2535-2.8393-2.8393-4.3554 4.3554c-.3905.3905-1.0237.3905-1.4142 0l-1.5429-1.5429-1.84004 1.8401c1.40042 1.2049 3.22264 1.9332 5.21504 1.9332 2.8552 0 5.3611-1.4958 6.7768-3.7465zm-9.5893-7.7535c-.3797 0-.6875.3078-.6875.6875s.3078.6875.6875.6875.6875-.3078.6875-.6875-.3078-.6875-.6875-.6875zm-2.6875.6875c0-1.48427 1.20323-2.6875 2.6875-2.6875 1.4843 0 2.6875 1.20323 2.6875 2.6875 0 1.4843-1.2032 2.6875-2.6875 2.6875-1.48427 0-2.6875-1.2032-2.6875-2.6875z" fill="currentColor" fill-rule="evenodd"/></svg>