<svg fill="none" height="24" viewBox="0 0 24 24" width="24" xmlns="http://www.w3.org/2000/svg"><path clip-rule="evenodd" d="m1.39988 3.59998c0-.55229.44772-1 1-1h19.20002c.5523 0 1 .44771 1 1 0 .55228-.4477 1-1 1h-19.20002c-.55228 0-1-.44772-1-1zm.51471 3.92538c.31795-.17625.7065-.16606 1.01479.02659l4.80047 3.00005c.29239.1827.47003.5032.47003.848.00001.3448-.17761.6652-.47.848l-4.8 3c-.30825.1926-.69678.2028-1.01473.0266s-.51524-.511-.51527-.8745l-.00047-6.00005c-.00002-.36353.19723-.69844.51518-.87469zm1.48497 2.67884.00018 2.3916 1.91328-1.1958zm18.20034-.40422h-9.6c-.5523 0-1-.44772-1-1 0-.55229.4477-1 1-1h9.6c.5523 0 1 .44771 1 1 0 .55228-.4477 1-1 1zm-10.6 4.20002c0-.5523.4477-1 1-1h9.6c.5523 0 1 .4477 1 1s-.4477 1-1 1h-9.6c-.5523 0-1-.4477-1-1zm-9.60002 5.2c0-.5523.44772-1 1-1h19.20002c.5523 0 1 .4477 1 1s-.4477 1-1 1h-19.20002c-.55228 0-1-.4477-1-1z" fill="currentColor" fill-rule="evenodd"/></svg>