<svg fill="none" height="24" viewBox="0 0 24 24" width="24" xmlns="http://www.w3.org/2000/svg"><path clip-rule="evenodd" d="m7.20005 3.39996c-.7732 0-1.4.6268-1.4 1.4v14.40004c0 .7732.6268 1.4 1.4 1.4h9.59995c.7732 0 1.4-.6268 1.4-1.4v-14.40002c0-.7732-.6268-1.4-1.3999-1.4h-.2203c.0515.25205.0063.52375-.1477.7547l-1.6 2.4c-.1855.2782-.4977.4453-.8321.4453h-4c-.3343 0-.64654-.1671-.832-.4453l-1.6-2.4c-.15397-.23095-.19919-.50266-.14774-.75472zm2.26851.00001 1.06664 1.60001h2.9297l1.0666-1.60001zm-5.66851 1.39999c0-1.87777 1.52223-3.4 3.4-3.4l9.60005.00002c1.8777 0 3.4 1.52223 3.4 3.4v14.40002c0 1.8777-1.5223 3.4-3.4001 3.4h-9.59995c-1.87777 0-3.4-1.5223-3.4-3.4z" fill="currentColor" fill-rule="evenodd"/></svg>