<svg fill="none" height="24" viewBox="0 0 24 24" width="24" xmlns="http://www.w3.org/2000/svg"><path clip-rule="evenodd" d="m8.50899 3.40002c-2.82167 0-5.10909 2.28742-5.10909 5.10909 0 2.82169 2.28742 5.10909 5.10909 5.10909 1.18585 0 2.27481-.4028 3.14151-1.0796.3891-.3039.9417-.2783 1.3011.0601l3.2248 3.037c.2006.1889.3144.4523.3144.728v1.6181h1.6182c.5523 0 1 .4478 1 1v1.6182h1.4909v-3.8221l-6.6889-6.689c-.1876-.18749-.2929-.44184-.2929-.70706v-.87273c0-2.82167-2.2874-5.10909-5.10911-5.10909zm-7.10909 5.10909c0-3.92624 3.18285-7.10909 7.10909-7.10909 3.92621 0 7.10911 3.18285 7.10911 7.10909v.45852l6.396 6.39607c.3751.375.5858.8837.5858 1.4142v3.8221c0 1.1046-.8954 2-2 2h-2.4909c-.5523 0-1-.4477-1-1v-1.6182h-1.6182c-.5523 0-1-.4477-1-1v-2.1862l-2.3246-2.1892c-1.0687.6422-2.32073 1.0118-3.65721 1.0118-3.92624 0-7.10909-3.1828-7.10909-7.10909zm5.27883-1.90909c0-.55228.44772-1 1-1h.12117c.55229 0 1 .44772 1 1 0 .55229-.44771 1-1 1h-.12117c-.55228 0-1-.44771-1-1z" fill="currentColor" fill-rule="evenodd"/></svg>