<svg fill="none" height="24" viewBox="0 0 24 24" width="24" xmlns="http://www.w3.org/2000/svg"><path clip-rule="evenodd" d="m1.3999 8.4c0-1.87777 1.52223-3.4 3.4-3.4h14.4c1.8778 0 3.4 1.52223 3.4 3.4v7.2c0 1.8778-1.5222 3.4-3.4 3.4h-14.4c-1.87777 0-3.4-1.5222-3.4-3.4zm3.4-1.4c-.7732 0-1.4.6268-1.4 1.4v7.2c0 .7732.6268 1.4 1.4 1.4h14.4c.7732 0 1.4-.6268 1.4-1.4v-7.2c0-.7732-.6268-1.4-1.4-1.4zm.8 3.2c0-.55228.44772-1 1-1h.02813c.55228 0 1 .44772 1 1 0 .5523-.44772 1-1 1h-.02813c-.55228 0-1-.4477-1-1zm3.6 0c0-.55228.44772-1 1-1h.0281c.5523 0 1 .44772 1 1 0 .5523-.4477 1-1 1h-.0281c-.55228 0-1-.4477-1-1zm3.6 0c0-.55228.4477-1 1-1h.0281c.5523 0 1 .44772 1 1 0 .5523-.4477 1-1 1h-.0281c-.5523 0-1-.4477-1-1zm3.5719 0c0-.55228.4477-1 1-1h.0281c.5523 0 1 .44772 1 1 0 .5523-.4477 1-1 1h-.0281c-.5523 0-1-.4477-1-1zm-8.9719 3.6c0-.5523.44772-1 1-1h.02813c.55228 0 1 .4477 1 1s-.44772 1-1 1h-.02813c-.55228 0-1-.4477-1-1zm3.6 0c0-.5523.4477-1 1-1h.0281c.5523 0 1 .4477 1 1s-.4477 1-1 1h-.0281c-.5523 0-1-.4477-1-1zm3.6 0c0-.5523.4477-1 1-1h.0281c.5523 0 1 .4477 1 1s-.4477 1-1 1h-.0281c-.5523 0-1-.4477-1-1z" fill="currentColor" fill-rule="evenodd"/></svg>