<svg fill="none" height="24" viewBox="0 0 24 24" width="24" xmlns="http://www.w3.org/2000/svg"><path clip-rule="evenodd" d="m2.5999 6.23078c0-1.70518 1.41978-3.03077 3.1-3.03077h12.6c1.6802 0 3.1 1.32559 3.1 3.03077v9.20912c.7123.3641 1.2 1.1052 1.2 1.9601v1.2c0 1.215-.985 2.2-2.2 2.2h-16.8c-1.21502 0-2.2-.985-2.2-2.2v-1.2c0-.8549.48767-1.596 1.2-1.9601zm2 8.96922h14.8v-8.96922c0-.53794-.4606-1.03077-1.1-1.03077h-12.6c-.63937 0-1.1.49283-1.1 1.03077zm-1 2c-.11045 0-.2.0896-.2.2v1.2c0 .1105.08955.2.2.2h16.8c.1105 0 .2-.0895.2-.2v-1.2c0-.1104-.0895-.2-.2-.2z" fill="currentColor" fill-rule="evenodd"/></svg>