<svg fill="none" height="24" viewBox="0 0 24 24" width="24" xmlns="http://www.w3.org/2000/svg"><path clip-rule="evenodd" d="m11.544 1.51012c.2863-.14679.6259-.14679.9123 0l9.6 4.92074c.3338.17113.5438.51474.5438.88991s-.21.71877-.5438.8899l-9.6 4.92073c-.2864.1468-.626.1468-.9123 0l-9.60003-4.92073c-.33387-.17113-.54386-.51473-.54386-.8899s.20999-.71878.54386-.88991zm-6.9516 5.81065 7.4077 3.79703 7.4077-3.79703-7.4077-3.79703zm-3.08219 4.19823c.25192-.4915.85457-.6857 1.34605-.4338l9.14384 4.687 9.1439-4.687c.4915-.2519 1.0941-.0577 1.346.4338s.0577 1.0941-.4337 1.3461l-9.6 4.9207c-.2864.1468-.626.1468-.9123 0l-9.60003-4.9207c-.49148-.252-.68568-.8546-.43376-1.3461zm0 4.7041c.25192-.4914.85457-.6856 1.34605-.4337l9.14384 4.6869 9.1439-4.6869c.4915-.2519 1.0941-.0577 1.346.4337.2519.4915.0577 1.0942-.4337 1.3461l-9.6 4.9207c-.2864.1468-.626.1468-.9123 0l-9.60003-4.9207c-.49148-.2519-.68568-.8546-.43376-1.3461z" fill="currentColor" fill-rule="evenodd"/></svg>