<svg fill="none" height="24" viewBox="0 0 24 24" width="24" xmlns="http://www.w3.org/2000/svg"><path clip-rule="evenodd" d="m11.5438 1.51012c.2863-.14679.6259-.14679.9122 0l9.6 4.92074c.3339.17113.5439.51474.5439.88991s-.21.71877-.5439.8899l-2.804 1.43729 2.804 1.43724c.3339.1712.5439.5148.5439.89 0 .3751-.21.7187-.5439.8899l-2.8525 1.4621 2.8525 1.4622c.3339.1711.5439.5147.5439.8899 0 .3751-.21.7188-.5439.8899l-9.6 4.9207c-.2863.1468-.6259.1468-.9122 0l-9.60004-4.9207c-.33387-.1711-.54386-.5148-.54386-.8899 0-.3752.20999-.7188.54386-.8899l2.85256-1.4622-2.85256-1.4621c-.33387-.1712-.54386-.5148-.54386-.8899 0-.3752.20999-.7188.54386-.89l2.80403-1.43724-2.80403-1.43729c-.33387-.17113-.54386-.51473-.54386-.8899s.20999-.71878.54386-.88991zm-4.60372 9.26158-2.34789 1.2035 7.40771 3.797 7.4077-3.797-2.3479-1.2035-4.6037 2.3597c-.2863.1468-.6259.1468-.9122 0zm.04852 4.6792-2.39641 1.2284 7.40771 3.797 7.4077-3.797-2.3964-1.2284-4.5552 2.3349c-.2863.1468-.6259.1468-.9122 0zm-2.39641-8.13013 7.40771 3.79703 7.4077-3.79703-7.4077-3.79703z" fill="currentColor" fill-rule="evenodd"/></svg>