<svg fill="none" height="24" viewBox="0 0 24 24" width="24" xmlns="http://www.w3.org/2000/svg"><path clip-rule="evenodd" d="m5.9999 3.40002c-1.43594 0-2.6 1.16406-2.6 2.6v6.20028h5.82424c1.42216 0 2.57496 1.1528 2.57496 2.575v5.8247h6.2008c1.4359 0 2.6-1.164 2.6-2.6v-11.99997c0-1.43594-1.1641-2.6-2.6-2.6zm3.79924 17.19998v-5.8247c0-.3176-.25744-.575-.575-.575h-5.82424v3.7997c0 1.436 1.16406 2.6 2.6 2.6zm-8.39924-14.59998c0-2.54051 2.05949-4.6 4.6-4.6l12 .00001c2.5405 0 4.6 2.05949 4.6 4.6v11.99997c0 2.5405-2.0595 4.6-4.6 4.6h-12c-2.54051 0-4.6-2.0595-4.6-4.6z" fill="currentColor" fill-rule="evenodd"/></svg>