<svg fill="none" height="24" viewBox="0 0 24 24" width="24" xmlns="http://www.w3.org/2000/svg"><path clip-rule="evenodd" d="m5.9999 3.40002c-1.43594 0-2.6 1.16406-2.6 2.6v7.99998h17.2v-7.99997c0-1.43594-1.1641-2.6-2.6-2.6zm14.6 12.59998h-17.2v2c0 1.436 1.16406 2.6 2.6 2.6h12c1.4359 0 2.6-1.164 2.6-2.6zm-19.2-9.99998c0-2.54051 2.05949-4.6 4.6-4.6l12 .00001c2.5405 0 4.6 2.05949 4.6 4.6v11.99997c0 2.5405-2.0595 4.6-4.6 4.6h-12c-2.54051 0-4.6-2.0595-4.6-4.6z" fill="currentColor" fill-rule="evenodd"/></svg>