<svg fill="none" height="24" viewBox="0 0 24 24" width="24" xmlns="http://www.w3.org/2000/svg"><path clip-rule="evenodd" d="m6.80719 2.40002c0-.55228.44771-1 1-1h8.60571c.5523 0 1 .44772 1 1 0 .55229-.4477 1-1 1h-3.1545v9.08938c0 .5523-.4477 1-1 1s-1-.4477-1-1v-9.08938h-3.45121c-.55229 0-1-.44771-1-1zm-.33704 10.92068c.39053.3906.39053 1.0237 0 1.4142l-1.65603 1.6561h14.37158l-1.656-1.6561c-.3906-.3905-.3906-1.0236 0-1.4142.3905-.3905 1.0236-.3905 1.4142 0l3.3631 3.3632c.1875.1875.2929.4419.2929.7071s-.1054.5195-.2929.7071l-3.3631 3.3631c-.3906.3905-1.0237.3905-1.4143 0-.3905-.3905-.3905-1.0237.0001-1.4142l1.656-1.656h-14.37158l1.65603 1.656c.39053.3905.39053 1.0237 0 1.4142-.39052.3905-1.02369.3905-1.41421 0l-3.36314-3.3631c-.39053-.3905-.39053-1.0237 0-1.4142l3.36314-3.3632c.39052-.3905 1.02369-.3905 1.41421 0z" fill="currentColor" fill-rule="evenodd"/></svg>