<svg fill="none" height="24" viewBox="0 0 24 24" width="24" xmlns="http://www.w3.org/2000/svg"><path clip-rule="evenodd" d="m5.85387 2.59998c.26522 0 .51957.10535.70711.29289l3.45392 3.45397c.3906.39052.3906 1.02369 0 1.41421-.39048.39053-1.02364.39053-1.41417 0l-1.74686-1.74686v11.29011l1.74686-1.7469c.39053-.3905 1.02369-.3905 1.41417 0 .3906.3905.3906 1.0237 0 1.4142l-3.45392 3.454c-.18754.1875-.44189.2929-.70711.2929s-.51957-.1054-.70711-.2929l-3.45396-3.454c-.39053-.3905-.39053-1.0237 0-1.4142.39052-.3905 1.02369-.3905 1.41421 0l1.74686 1.7469v-11.29011l-1.74686 1.74686c-.39052.39053-1.02369.39053-1.41421 0-.39053-.39052-.39053-1.02369 0-1.41421l3.45396-3.45397c.18754-.18754.44189-.29289.70711-.29289zm5.90793 4.45397c0-.55229.4477-1 1-1h8.8381c.5523 0 1 .44771 1 1v2.13333c0 .55228-.4477 1.00002-1 1.00002s-1-.44774-1-1.00002v-1.13333h-2.2667v8.36195h2.0476c.5523 0 1 .4477 1 1 0 .5522-.4477 1-1 1h-6.0952c-.5523 0-1-.4478-1-1 0-.5523.4477-1 1-1h2.0476v-8.36195h-2.5714v.82857c0 .55228-.4477 1-1 1s-1-.44772-1-1z" fill="currentColor" fill-rule="evenodd"/></svg>