<svg fill="none" height="24" viewBox="0 0 24 24" width="24" xmlns="http://www.w3.org/2000/svg"><path clip-rule="evenodd" d="m2.3999 1.40002c.55229 0 1 .44772 1 1v19.19998c0 .5523-.44771 1-1 1-.55228 0-1-.4477-1-1v-19.19998c0-.55228.44772-1 1-1zm19.2 0c.5523 0 1 .44772 1 1v19.19998c0 .5523-.4477 1-1 1s-1-.4477-1-1v-19.19998c0-.55228.4477-1 1-1zm-9.6 4.20003c.4 0 .7616.2384.9191.60608l4.3715 10.19997c.2175.5077-.0176 1.0955-.5253 1.3131-.5076.2176-1.0955-.0176-1.313-.5252l-1.4056-3.2797h-4.09343l-1.40556 3.2797c-.21756.5076-.80543.7428-1.31306.5252s-.74279-.8054-.52523-1.3131l4.37138-10.19997c.1576-.36768.5192-.60608.9192-.60608zm-1.1896 6.31425h2.3792l-1.1896-2.77566z" fill="currentColor" fill-rule="evenodd"/></svg>