<svg fill="none" height="24" viewBox="0 0 24 24" width="24" xmlns="http://www.w3.org/2000/svg"><path clip-rule="evenodd" d="m12 4.59998c-2.76142 0-5 2.23857-5 5 0 2.76142 2.23858 5.00002 5 5.00002 2.7614 0 5-2.2386 5-5.00002 0-2.76143-2.2386-5-5-5zm-7 5c0-3.866 3.13401-7 7-7 3.866 0 7 3.134 7 7 0 2.63202-1.4527 4.92482-3.6 6.12032v3.4797c0 1.215-.985 2.2-2.2 2.2h-2.4c-1.21503 0-2.2-.985-2.2-2.2v-3.4797c-2.14733-1.1955-3.6-3.4883-3.6-6.12032zm5.6 6.85992v2.7401c0 .1104.0895.2.2.2h2.4c.1105 0 .2-.0896.2-.2v-2.7401c-.4524.0919-.9205.1401-1.4.1401s-.9476-.0482-1.4-.1401z" fill="currentColor" fill-rule="evenodd"/></svg>