<svg fill="none" height="24" viewBox="0 0 24 24" width="24" xmlns="http://www.w3.org/2000/svg"><path clip-rule="evenodd" d="m2.39966 1.40002c.55228 0 1 .44772 1 1v18.19998h18.20004c.5522 0 1 .4477 1 1s-.4478 1-1 1h-19.20004c-.55229 0-1-.4477-1-1v-19.19998c0-.55228.44771-1 1-1zm13.10974 4.6c0-.55228.4477-1 1-1h5.0912c.5522 0 1 .44772 1 1v5.09118c0 .5523-.4478 1-1 1-.5523 0-1-.4477-1-1v-2.67774l-5.4938 5.49384c-.3906.3905-1.0237.3905-1.4142 0l-2.2929-2.2929-3.49294 3.4929c-.39052.3905-1.02368.3905-1.41421 0-.39052-.3906-.39052-1.0237 0-1.4143l4.20005-4.19996c.3905-.39052 1.0236-.39052 1.4142 0l2.2929 2.29286 4.7859-4.78588h-2.6762c-.5523 0-1-.44771-1-1z" fill="currentColor" fill-rule="evenodd"/></svg>