<svg fill="none" height="24" viewBox="0 0 24 24" width="24" xmlns="http://www.w3.org/2000/svg"><path clip-rule="evenodd" d="m2.3999 1.40002c.55229 0 1 .44772 1 1v18.19998h18.2c.5523 0 1 .4477 1 1s-.4477 1-1 1h-19.2c-.55228 0-1-.4477-1-1v-19.19998c0-.55228.44772-1 1-1zm4.04472 6.3446c.36197-.41713.99355-.46185 1.41068-.09988l3.7446 3.24936 2.4874-2.15847c.376-.32629.9348-.32629 1.3108 0l5.6572 4.90907c.4171.362.4618.9936.0999 1.4107-.362.4172-.9936.4619-1.4107.0999l-5.0018-4.3404-2.4874 2.1585c-.3761.3263-.9348.3263-1.3108 0l-4.4-3.8181c-.41713-.36197-.46185-.99355-.09988-1.41068z" fill="currentColor" fill-rule="evenodd"/></svg>