<svg fill="none" height="24" viewBox="0 0 24 24" width="24" xmlns="http://www.w3.org/2000/svg"><path clip-rule="evenodd" d="m2.98202 8.06375c1.02988-1.04513 2.43025-1.61111 3.8709-1.61111h3.15858c.5523 0 1 .44771 1 1 0 .55228-.4477 1-1 1h-3.15858c-.91864 0-1.80172.36073-2.44634 1.01489-.65478.66447-1.02099 1.54737-1.00624 2.48777.00016.0105.00016.021 0 .0314-.01479.9404.35156 1.8234 1.00624 2.4878.67235.6823 1.52107 1.0343 2.42726 1.0343h3.15856c.5523 0 1 .4477 1 1s-.4477 1-1 1h-3.15859c-1.4532 0-2.81172-.575-3.85179-1.6305-1.01597-1.031-1.6008-2.4205-1.58166-3.9073-.01908-1.4867.56552-2.87607 1.58166-3.90725l.64796.63851zm10.00628-.55315c0-.55228.4477-1 1-1h3.1586c1.4564.00002 2.833.59658 3.8518 1.63049 1.0166 1.03169 1.5985 2.41871 1.6006 3.88001.0213 1.4897-.5636 2.8821-1.5815 3.9152-1.0299 1.0451-2.4303 1.6111-3.8709 1.6111h-3.1586c-.5523 0-1-.4477-1-1s.4477-1 1-1h3.1586c.9186 0 1.8017-.3608 2.4463-1.0149.6548-.6645 1.021-1.5474 1.0063-2.4878l-.0002-.0157c0-.93-.3692-1.8184-1.0252-2.48413-.6556-.66538-1.5242-1.03425-2.4272-1.03427h-3.1586c-.5523 0-1-.44771-1-1zm3.7398 5.4472h-9.47575c-.55229 0-1-.4477-1-1s.44771-1 1-1h9.47575c.5523 0 1 .4477 1 1s-.4477 1-1 1z" fill="currentColor" fill-rule="evenodd"/></svg>