<svg fill="none" height="24" viewBox="0 0 24 24" width="24" xmlns="http://www.w3.org/2000/svg"><path clip-rule="evenodd" d="m15.9144 14.5166c.3905.3905 1.0237.3905 1.4142 0l2.2334-2.2335c1.0187-1.0187 1.6087-2.40911 1.598-3.87636-.0107-1.45025-.5817-2.84842-1.6502-3.88678-1.0347-1.03183-2.427-1.6011-3.8754-1.61174-1.4515-.01067-2.8467.5409-3.8765 1.57071l-2.23348 2.23345c-.39052.39053-.39052 1.02369 0 1.41422.39053.39052 1.02368.39052 1.41418 0l2.2335-2.23345c.6385-.63851 1.5135-.99185 2.4476-.98498.9347.00687 1.8239.37398 2.4815 1.03159l.0112.011c.6754.65456 1.0408 1.53782 1.0476 2.47068.0068.91837-.3626 1.79786-1.0122 2.44746l-2.2334 2.2334c-.3905.3906-.3905 1.0237 0 1.4143zm-2.8528 1.384-2.2335 2.2334c-.6408.6408-1.48978.9921-2.44765.985-.93271-.0068-1.81618-.3722-2.47064-1.0476-.00729-.0075-.01469-.0149-.02221-.0222-.67541-.6545-1.04076-1.5378-1.04762-2.4706-.00675-.9184.36261-1.7979 1.01218-2.4475l2.23346-2.2335c.39052-.3905.39052-1.02365 0-1.41417-.39053-.39053-1.02369-.39053-1.41421 0l-2.23346 2.23347c-1.0187 1.0187-1.6087 2.4091-1.59792 3.8763.01064 1.4477.57969 2.8435 1.64445 3.8813 1.03779 1.0648 2.43384 1.6338 3.88128 1.6445 1.48177.0109 2.84894-.5432 3.87654-1.5707l2.2335-2.2335c.3905-.3905.3905-1.0237 0-1.4142s-1.0237-.3905-1.4142 0zm-5.1556.1337c.39052.3905 1.02369.3905 1.41421 0l6.70039-6.7004c.3905-.39052.3905-1.02369 0-1.41421-.3906-.39052-1.0237-.39052-1.4142 0l-6.7004 6.70041c-.39053.3905-.39053 1.0236 0 1.4142z" fill="currentColor" fill-rule="evenodd"/></svg>