<svg fill="none" height="24" viewBox="0 0 24 24" width="24" xmlns="http://www.w3.org/2000/svg"><path clip-rule="evenodd" d="m2.87265 3.50502c.5853-.58042 1.37738-.90501 2.20154-.90501h3.70588c.55229 0 1 .44771 1 1 0 .55228-.44771 1-1 1h-3.70588c-.29911 0-.58429.1179-.79326.32513-.20869.20695-.32439.48584-.32439.77487v12.59999c0 .289.1157.5679.32439.7749.20897.2072.49415.3251.79326.3251h3.70588c.55229 0 1 .4477 1 1s-.44771 1-1 1h-3.70588c-.82416 0-1.61624-.3246-2.20154-.905-.58559-.5807-.91611-1.3701-.91611-2.195v-12.59999c0-.82489.33052-1.61428.91611-2.19499zm12.89475 2.97188c.3993-.38148 1.0323-.36699 1.4138.03237l4.5852 4.80003c.3692.3865.3692.995 0 1.3814l-4.5852 4.8c-.3815.3994-1.0145.4139-1.4138.0324-.3994-.3815-.4139-1.0145-.0324-1.4138l2.9701-3.1093h-9.66184c-.55228 0-1-.4477-1-1s.44772-1 1-1h9.66184l-2.9701-3.10926c-.3815-.39936-.367-1.03235.0324-1.41384z" fill="currentColor" fill-rule="evenodd"/></svg>