<svg fill="none" height="24" viewBox="0 0 24 24" width="24" xmlns="http://www.w3.org/2000/svg"><path clip-rule="evenodd" d="m9.26904 3.50502c.58531-.58042 1.37736-.90501 2.20156-.90501h7.4118c.8241 0 1.6162.32459 2.2015.90501.5856.58071.9161 1.3701.9161 2.19499v12.59999c0 .8249-.3305 1.6143-.9161 2.195-.5853.5804-1.3774.905-2.2015.905h-7.4118c-.8242 0-1.61625-.3246-2.20156-.905-.58558-.5807-.9161-1.3701-.9161-2.195v-2.1c0-.5523.44772-1 1-1 .55229 0 .99996.4477.99996 1v2.1c0 .289.1157.5679.3244.7749.209.2072.4942.3251.7933.3251h7.4118c.2991 0 .5842-.1179.7932-.3251.2087-.207.3244-.4859.3244-.7749v-12.59999c0-.28903-.1157-.56792-.3244-.77487-.209-.20723-.4941-.32513-.7932-.32513h-7.4118c-.2991 0-.5843.1179-.7933.32513-.2087.20695-.3244.48584-.3244.77487v2.1c0 .55228-.44767 1-.99996 1-.55228 0-1-.44772-1-1v-2.1c0-.82489.33052-1.61428.9161-2.19499zm-2.38251 4.64084c.38889.39216.38624 1.02532-.00592 1.4142l-1.45204 1.43994h10.27733c.5523 0 1 .4477 1 1s-.4477 1-1 1h-10.27733l1.45204 1.4399c.39216.3889.39481 1.0221.00592 1.4142-.38889.3922-1.02205.3949-1.4142.006l-3.17647-3.15c-.18935-.1878-.29586-.4434-.29586-.7101s.10651-.5223.29586-.7101l3.17647-3.14995c.39215-.38889 1.02531-.38624 1.4142.00591z" fill="currentColor" fill-rule="evenodd"/></svg>