<svg fill="none" height="24" viewBox="0 0 24 24" width="24" xmlns="http://www.w3.org/2000/svg"><path clip-rule="evenodd" d="m4 5.18182c0-1.81945 1.55669-3.18182 3.33333-3.18182h9.33337c1.7766 0 3.3333 1.36237 3.3333 3.18182v11.99998c0 1.4663-1.011 2.6357-2.3333 3.0344v.7838c0 .5523-.4477 1-1 1s-1-.4477-1-1v-.6364h-6.75003v.6364c0 .5523-.44772 1-1 1-.55229 0-1-.4477-1-1v-.6615c-1.59643-.1932-2.91667-1.4811-2.91667-3.1567zm12.6667 13.18178c.8006 0 1.3333-.5913 1.3333-1.1818v-11.99998c0-.59052-.5327-1.18182-1.3333-1.18182h-9.33337c-.80068 0-1.33333.5913-1.33333 1.18182v11.99998c0 .5905.53265 1.1818 1.33333 1.1818zm-7.00003-13.09087c.55233 0 1.00003.44771 1.00003 1v9.81817c0 .5523-.4477 1-1.00003 1-.55229 0-1-.4477-1-1v-9.81817c0-.55229.44771-1 1-1zm4.66663 0c.5523 0 1 .44771 1 1v9.81817c0 .5523-.4477 1-1 1s-1-.4477-1-1v-9.81817c0-.55229.4477-1 1-1z" fill="currentColor" fill-rule="evenodd"/></svg>