<svg fill="none" height="24" viewBox="0 0 24 24" width="24" xmlns="http://www.w3.org/2000/svg"><path clip-rule="evenodd" d="m9.97681 5.55532c-.03105.02973-.03931.05809-.03931.08143v1.27351h4.5313v-1.27351c0-.02334-.0083-.0517-.0394-.08143-.0318-.03046-.0821-.05532-.1482-.05532h-4.1562c-.0661 0-.1164.02486-.14819.05532zm6.49199 1.35494v-1.27351c0-1.22081-1.021-2.13675-2.1876-2.13675h-4.1562c-1.16651 0-2.1875.91594-2.1875 2.13675v1.27351h-2.5625c-1.82235 0-3.375 1.42488-3.375 3.27354v6.8205c0 1.8486 1.55265 3.2735 3.375 3.2735h14.25c1.8224 0 3.375-1.4249 3.375-3.2735v-6.8205c0-1.84866-1.5527-3.27354-3.375-3.27354zm-1.4063 2h-5.71875v9.36754h5.71875v-2.547h-1.9687c-.5523 0-1-.4477-1-1v-3.9787c0-.5522.4477-.99996 1-.99996h1.9687zm2 .84188h1.375c.5523 0 1 .44776 1 .99996v3.9787c0 .5523-.4477 1-1 1h-1.375v2.547h2.5625c.801 0 1.375-.6109 1.375-1.2735v-6.8205c0-.66266-.574-1.27354-1.375-1.27354h-2.5625zm.375 3.97866v-1.9787h-3.3437v1.9787zm-10.09375 4.547v-9.36754h-1.96875c-.801 0-1.375.61088-1.375 1.27354v6.8205c0 .6626.574 1.2735 1.375 1.2735z" fill="currentColor" fill-rule="evenodd"/></svg>