<svg fill="none" height="24" viewBox="0 0 24 24" width="24" xmlns="http://www.w3.org/2000/svg"><path clip-rule="evenodd" d="m5.25 4c-.69036 0-1.25.55964-1.25 1.25s.55964 1.25 1.25 1.25h13.5c.6904 0 1.25-.55964 1.25-1.25s-.5596-1.25-1.25-1.25zm14.75 4.25092c-.3848.16047-.807.24908-1.25.24908h-13.5c-.44295 0-.8652-.08861-1.25-.24908v10.49908c0 .6904.55964 1.25 1.25 1.25h13.5c.6904 0 1.25-.5596 1.25-1.25zm-18-3.00092v13.5c0 1.7949 1.45507 3.25 3.25 3.25h13.5c1.7949 0 3.25-1.4551 3.25-3.25v-13.5c0-1.79493-1.4551-3.25-3.25-3.25h-13.5c-1.79493 0-3.25 1.45507-3.25 3.25zm3.9375 9c0-.5523.44772-1 1-1h4.5c.5523 0 1 .4477 1 1s-.4477 1-1 1h-4.5c-.55228 0-1-.4477-1-1zm0 3.375c0-.5523.44772-1 1-1h2.8125c.5523 0 1 .4477 1 1s-.4477 1-1 1h-2.8125c-.55228 0-1-.4477-1-1z" fill="currentColor" fill-rule="evenodd"/></svg>