<svg fill="none" height="24" viewBox="0 0 24 24" width="24" xmlns="http://www.w3.org/2000/svg"><path clip-rule="evenodd" d="m11.4858 3.14233c.3026-.18145.6785-.18996.9891-.02239l8.4265 4.54688c.6646.35862 1.0986 1.04854 1.0986 1.82064v8.35414c0 1.7831-1.4947 3.1584-3.25 3.1584h-13.5c-1.75533 0-3.25-1.3753-3.25-3.1584 0 0 0 .0001 0 0v-7.84757c0-.7365.39559-1.40172 1.01454-1.77281zm-7.4858 14.69927c0 .601.52005 1.1584 1.25 1.1584h13.5c.73 0 1.25-.5574 1.25-1.1584v-6.5125l-7.4554 4.841c-.3258.2115-.7446.2153-1.0741.0096l-.3669-.2285c-.2341-.1456-.5692-.3537-.9728-.6034-.80733-.4996-1.8878-1.1654-2.98171-1.8307-1.09522-.6662-2.19865-1.3288-3.05379-1.8235-.03217-.0187-.06394-.037-.0953-.0551zm.5351-8.20011c.17405.09787.36253.20565.56179.32093.87455.50598 1.99299 1.17778 3.09153 1.84588 1.09983.669 2.18498 1.3376 2.99478 1.8388.3152.195.5887.3647.8054.4993l7.5837-4.92419-7.5463-4.07187z" fill="currentColor" fill-rule="evenodd"/></svg>