<svg fill="none" height="24" viewBox="0 0 24 24" width="24" xmlns="http://www.w3.org/2000/svg"><path clip-rule="evenodd" d="m5.47202 6 6.54948 5.4151 6.9801-5.38634c-.0824-.01892-.1667-.02876-.2516-.02876zm14.52798 1.78456-4.7739 3.68394 4.7739 4.7714zm-1.0811 10.20254-5.2824-5.2798c-.0023-.0023-.0046-.0046-.0069-.0069l-1.0187.7861c-.3698.2855-.888.2767-1.2481-.021l-.9635-.7966c-.0023.0025-.0046.0051-.0069.0076l-4.88937 5.3235h13.24697c.0567 0 .1132-.0044.1689-.0129zm-14.91821-1.308 4.85515-5.2863-4.85584-4.01479v9.25439c0 .0156.00023.0312.00069.0467zm-2.00069-9.31145c0-1.81126 1.40766-3.36765 3.25-3.36765h13.5c1.8423 0 3.25 1.55638 3.25 3.36765v9.26475c0 1.8112-1.4077 3.3676-3.25 3.3676h-13.5c-1.84234 0-3.25-1.5564-3.25-3.3676z" fill="currentColor" fill-rule="evenodd"/></svg>