<svg fill="none" height="24" viewBox="0 0 24 24" width="24" xmlns="http://www.w3.org/2000/svg"><path clip-rule="evenodd" d="m2 6.17647c0-2.3066 1.86987-4.17647 4.17647-4.17647h11.64703c2.3066 0 4.1765 1.86987 4.1765 4.17647v11.64703c0 2.3066-1.8699 4.1765-4.1765 4.1765h-11.64703c-2.3066 0-4.17647-1.8699-4.17647-4.1765zm2.00841-.19263c-.00557.06347-.00841.12772-.00841.19263v11.64703c0 .3734.09404.7249.25972 1.032l6.31728-6.3173zm1.11513-1.71265 14.61646 14.58481c.1659-.3072.26-.6588.26-1.0325v-11.64703c0-1.20203-.9744-2.17647-2.1765-2.17647h-11.64703c-.38194 0-.74091.09838-1.05293.27119zm12.92036 15.71781-6.0512-6.0381-6.03792 6.0379c.07289.0074.14685.0112.22169.0112h11.64703c.0744 0 .1479-.0037.2204-.011z" fill="currentColor" fill-rule="evenodd"/></svg>