<svg fill="none" height="24" viewBox="0 0 24 24" width="24" xmlns="http://www.w3.org/2000/svg"><path clip-rule="evenodd" d="m12.0001 3.40002c-3.59705 0-6.51304 2.91599-6.51304 6.51305 0 1.01933.38847 2.20713 1.0577 3.47123.66242 1.2512 1.55776 2.4989 2.47278 3.6173.91236 1.1151 1.82746 2.0813 2.51576 2.7696.1712.1712.328.3248.4668.4589.1388-.1341.2956-.2877.4668-.4589.6883-.6883 1.6034-1.6545 2.5158-2.7696.915-1.1184 1.8103-2.3661 2.4727-3.6173.6693-1.2641 1.0577-2.4519 1.0577-3.47123 0-3.59706-2.9159-6.51305-6.513-6.51305zm0 18.19998c-.6644.7474-.6645.7473-.6647.7471l-.0021-.0019-.0052-.0046-.0184-.0165c-.0157-.0141-.0384-.0346-.0675-.0611-.0582-.053-.1422-.1303-.2485-.2298-.2124-.1989-.5138-.487-.8746-.8478-.72046-.7205-1.68358-1.7368-2.64947-2.9174-.96325-1.1773-1.94617-2.5383-2.69244-3.9479-.73947-1.3968-1.29013-2.922-1.29013-4.40703 0-4.70163 3.81142-8.51305 8.51304-8.51305 4.7016 0 8.513 3.81142 8.513 8.51305 0 1.48503-.5506 3.01023-1.2901 4.40703-.7463 1.4096-1.7292 2.7706-2.6924 3.9479-.9659 1.1806-1.929 2.1969-2.6495 2.9174-.3608.3608-.6622.6489-.8746.8478-.1062.0995-.1903.1768-.2485.2298-.0291.0265-.0518.047-.0675.0611l-.0184.0165-.0052.0046-.0015.0014c-.0002.0002-.0009.0008-.6653-.7466zm0 0 .6644.7474-.6644.5906-.6647-.5909zm.0003-13.39982c-.7732 0-1.4.6268-1.4 1.4 0 .77322.6268 1.40002 1.4 1.40002s1.4-.6268 1.4-1.40002c0-.7732-.6268-1.4-1.4-1.4zm-3.39999 1.4c0-1.87777 1.52219-3.4 3.39999-3.4s3.4 1.52223 3.4 3.4c0 1.87772-1.5222 3.40002-3.4 3.40002s-3.39999-1.5223-3.39999-3.40002z" fill="currentColor" fill-rule="evenodd"/></svg>