<svg fill="none" height="24" viewBox="0 0 24 24" width="24" xmlns="http://www.w3.org/2000/svg"><path clip-rule="evenodd" d="m12.0001 3.4082c-3.59705 0-6.51304 2.91599-6.51304 6.51305 0 .94245.36088 1.85805.9944 2.80085.63867.9504 1.50667 1.8599 2.43872 2.7918.1322.1322.26628.2654.40119.3994.78683.7815 1.60193 1.5911 2.23823 2.397.1449.1835.286.3733.419.5691.1329-.1908.2735-.3755.4178-.5541.6296-.7791 1.4342-1.5614 2.2125-2.3181.1508-.1465.3005-.2921.4477-.4365.938-.9196 1.8109-1.8222 2.4528-2.7771.6354-.9451 1.0037-1.8828 1.0037-2.87235 0-3.59706-2.9159-6.51305-6.513-6.51305zm-8.51304 6.51305c0-4.70163 3.81142-8.51305 8.51304-8.51305 4.7016 0 8.513 3.81142 8.513 8.51305 0 1.51475-.5707 2.83805-1.3439 3.98825-.7668 1.1405-1.7721 2.1674-2.7124 3.0893-.1624.1593-.3222.3149-.4789.4673-.779.7582-1.4788 1.4393-2.026 2.1163-.6604.8172-.9517 1.4581-.9518 2.0095 0 .5522-.4477.9999-1 .9999h-.0609c-.5523 0-1-.4477-1-1 0-.557-.2929-1.2108-.94927-2.0421-.55494-.7029-1.26961-1.4134-2.06199-2.2012-.13841-.1377-.27918-.2776-.42189-.4203-.93098-.9309-1.926-1.9617-2.68461-3.0906-.76375-1.1366-1.33438-2.4394-1.33438-3.91635zm8.51334-1.7129c-.7732 0-1.4.62681-1.4 1.4 0 .77325.6268 1.40005 1.4 1.40005s1.4-.6268 1.4-1.40005c0-.77319-.6268-1.4-1.4-1.4zm-3.39999 1.4c0-1.87776 1.52219-3.4 3.39999-3.4s3.4 1.52224 3.4 3.4c0 1.87775-1.5222 3.40005-3.4 3.40005s-3.39999-1.5223-3.39999-3.40005z" fill="currentColor" fill-rule="evenodd"/></svg>