<svg fill="none" height="24" viewBox="0 0 24 24" width="24" xmlns="http://www.w3.org/2000/svg"><path clip-rule="evenodd" d="m4.45455 3c0-.55228.44771-1 1-1h15.54545c.3498 0 .6741.18276.8554.48195.1812.29919.1929.67132.0308.9813l-2.2124 4.2324 2.2124 4.23245c.1621.3099.1504.6821-.0308.9813-.1813.2991-.5056.4819-.8554.4819h-14.54545v6.6087h1.45454c.55229 0 1 .4477 1 1s-.44771 1-1 1h-4.90909c-.55228 0-1-.4477-1-1s.44772-1 1-1h1.45455zm2 8.3913h12.89435l-1.6897-3.23239c-.1517-.29021-.1517-.6363 0-.92651l1.6897-3.2324h-12.89435z" fill="currentColor" fill-rule="evenodd"/></svg>