<svg fill="none" height="24" viewBox="0 0 24 24" width="24" xmlns="http://www.w3.org/2000/svg"><path clip-rule="evenodd" d="m11.5605 2.10169c.3431-.1678.7519-.12552 1.0533.10897l5.4 4.2c.2461.19134.3888.48646.3861.79812-.0028.31166-.1507.60422-.4.79123l-4.8 3.59999c-.0633.0475-.1305.0864-.2.1168v5.2832c0 .5523-.4477 1-1 1s-1-.4477-1-1v-13.99999c0-.38194.2176-.73051.5606-.89832zm1.4394 7.14832 2.7526-2.06445-2.7526-2.14091zm-3.61393 3.87449c.09186.5445-.27516 1.0605-.81976 1.1523-1.68093.2836-3.04891.7595-3.96689 1.3165-.95885.5818-1.19942 1.0982-1.19942 1.4067 0 .2039.09496.4887.4562.8446.36477.3593.94389.729 1.74019 1.0608 1.58824.6617 3.85167 1.0946 6.40361 1.0946 2.5519 0 4.8154-.4329 6.4036-1.0946.7963-.3318 1.3754-.7015 1.7402-1.0608.3612-.3559.4562-.6407.4562-.8446 0-.3085-.2406-.8249-1.1994-1.4067-.918-.557-2.286-1.0329-3.9669-1.3165-.5446-.0918-.9116-.6078-.8198-1.1523.0919-.5446.6078-.9117 1.1524-.8198 1.8373.3099 3.4693.8492 4.6718 1.5788 1.1616.7048 2.1619 1.7463 2.1619 3.1165 0 .9006-.4423 1.6681-1.0526 2.2694-.6068.5978-1.4336 1.09-2.3746 1.4821-1.8862.786-4.4228 1.2485-7.1728 1.2485s-5.28656-.4625-7.17284-1.2485c-.94095-.3921-1.76772-.8843-2.37453-1.4821-.61033-.6013-1.05263-1.3688-1.05263-2.2694 0-1.3702 1.00033-2.4117 2.16194-3.1165 1.20246-.7296 2.83448-1.2689 4.67175-1.5788.54459-.0919 1.06053.2752 1.15238.8198z" fill="currentColor" fill-rule="evenodd"/></svg>