<svg fill="none" height="24" viewBox="0 0 24 24" width="24" xmlns="http://www.w3.org/2000/svg"><path clip-rule="evenodd" d="m1.39991 5.99996c0-2.54051 2.05949-4.6 4.6-4.6h11.99999c2.5405 0 4.6 2.0595 4.6 4.60001v12.00013c0 2.5405-2.0595 4.6-4.6 4.6h-12c-2.54051 0-4.6-2.0595-4.6-4.6v-1.1988c0-.0005 0-.0009 0-.0013 0-.0005 0-.0009 0-.0013v-4.7969c0-.0006 0-.0012 0-.0018 0-.0007 0-.0013 0-.0019v-4.79586c0-.00076 0-.00152 0-.00228 0-.00075 0-.00151 0-.00227zm1.99999 2.2v2.80004h2.8v-2.80004zm2.8-1.99999h-2.79999v-.20001c0-1.43594 1.16406-2.6 2.6-2.6h.19999zm2 4.80003h7.6v-7.60004h-7.6zm9.6-7.60004v2.80001h2.8v-.2c0-1.43595-1.1641-2.60001-2.6-2.60001zm2.8 4.8h-2.8v2.80004h2.8zm0 4.80004h-2.8v2.8h2.8zm0 4.8h-2.8v2.8001h.2c1.4359 0 2.6-1.1641 2.6-2.6zm-4.8 2.8001v-7.6001h-7.6v7.6001zm-9.6 0v-2.8001h-2.8v.2001c0 1.4359 1.16406 2.6 2.6 2.6zm-2.8-4.8001h2.8v-2.8h-2.8z" fill="currentColor" fill-rule="evenodd"/></svg>