<svg fill="none" height="24" viewBox="0 0 24 24" width="24" xmlns="http://www.w3.org/2000/svg"><path clip-rule="evenodd" d="m4.7999 3.40002c-.7732 0-1.4.62681-1.4 1.40001v9.39127c0 .7732.6268 1.4 1.4 1.4h1.87826c.55229 0 1 .4477 1 1v2.5945l3.30164-3.3016c.1875-.1875.4418-.2929.7071-.2929h7.513c.7732 0 1.4-.6268 1.4-1.4v-9.39128c0-.77319-.6268-1.4-1.4-1.4zm-3.4 1.40001c0-1.87777 1.52223-3.40001 3.4-3.40001h14.4c1.8778 0 3.4 1.52224 3.4 3.4v9.39128c0 1.8778-1.5222 3.4-3.4 3.4h-7.0988l-4.71583 4.7158c-.286.286-.71612.3716-1.08979.2168-.37368-.1548-.61732-.5194-.61732-.9239v-4.0087h-.87826c-1.87776 0-3.4-1.5222-3.4-3.4zm4.8 2.39999c0-.55228.44772-1 1-1h8.4c.5523 0 1 .44772 1 1 0 .55229-.4477 1-1 1h-8.4c-.55228 0-1-.44771-1-1zm0 4.79998c0-.5523.44772-1 1-1h4.8c.5523 0 1 .4477 1 1s-.4477 1-1 1h-4.8c-.55228 0-1-.4477-1-1z" fill="currentColor" fill-rule="evenodd"/></svg>