<svg fill="none" height="24" viewBox="0 0 24 24" width="24" xmlns="http://www.w3.org/2000/svg"><path clip-rule="evenodd" d="m11.9992 3.40002c-4.74968 0-8.60003 3.85036-8.60003 8.59998 0 4.7497 3.85035 8.6 8.60003 8.6 1.5309 0 2.9655-.3991 4.2087-1.0982.2227-.1253.4848-.1605.7327-.0986l3.4601.8651-.607-4.2489c-.0265-.1854-.0003-.3745.0754-.5458.2051-.464.3933-1.3173.5328-2.1454.0667-.3956.1177-.7566.1521-1.0189.0171-.1309.03-.2365.0386-.3088l.0064-.0555c-.0296-4.72433-3.8685-8.54498-8.5998-8.54498zm9.6 8.59998.9942.1076c.0038-.0358.0058-.0717.0058-.1076 0-5.85419-4.7458-10.59998-10.6-10.59998-5.85425 0-10.60003 4.74579-10.60003 10.59998 0 5.8542 4.74578 10.6 10.60003 10.6 1.7384 0 3.3816-.4192 4.8313-1.1627l4.528 1.132c.323.0807.665-.0046.9122-.2276.2473-.223.3673-.5544.3202-.884l-.7795-5.4567c.2587-.7032.4424-1.6262.5627-2.3406.0717-.4257.1263-.8118.1629-1.0913.0183-.14.0323-.254.0417-.3336l.0107-.0927.0029-.0252.0007-.0069.0004-.0031c0-.0001 0 0-.9942-.1076zm-12.70714-3.10708c.39053-.39053 1.02369-.39053 1.41424 0l1.6929 1.69288 1.6929-1.69288c.3905-.39053 1.0237-.39053 1.4142 0 .3905.39052.3905 1.02369 0 1.41418l-1.6929 1.6929 1.6929 1.6929c.3905.3905.3905 1.0237 0 1.4142-.3905.3906-1.0237.3906-1.4142 0l-1.6929-1.6929-1.6929 1.6929c-.39055.3906-1.02371.3906-1.41424 0-.39052-.3905-.39052-1.0237 0-1.4142l1.69294-1.6929-1.69294-1.6929c-.39052-.39049-.39052-1.02366 0-1.41418z" fill="currentColor" fill-rule="evenodd"/></svg>