<svg fill="none" height="24" viewBox="0 0 24 24" width="24" xmlns="http://www.w3.org/2000/svg"><path clip-rule="evenodd" d="m17.9999 2.80005c-1.4359 0-2.6 1.16406-2.6 2.6s1.1641 2.6 2.6 2.6 2.6-1.16406 2.6-2.6-1.1641-2.6-2.6-2.6zm-4.6 2.6c0-2.54051 2.0595-4.600001 4.6-4.600001s4.6 2.059491 4.6 4.600001-2.0595 4.59995-4.6 4.59995-4.6-2.05944-4.6-4.59995zm-8.6-1.4c-.7732 0-1.4.6268-1.4 1.4v9.39135c0 .7732.6268 1.4 1.4 1.4h1.87826c.55229 0 1 .4477 1 1v2.5944l3.30164-3.3016c.1875-.1875.4418-.2928.7071-.2928h7.513c.7732 0 1.4-.6268 1.4-1.4v-2.7914c0-.5522.4477-1 1-1s1 .4478 1 1v2.7914c0 1.8777-1.5222 3.4-3.4 3.4h-7.0988l-4.71583 4.7158c-.286.286-.71612.3715-1.08979.2167-.37368-.1548-.61732-.5194-.61732-.9238v-4.0087h-.87826c-1.87776 0-3.4-1.5223-3.4-3.4v-9.39135c0-1.87777 1.52223-3.4 3.4-3.4h6c.5523 0 1 .44771 1 1 0 .55228-.4477 1-1 1z" fill="currentColor" fill-rule="evenodd"/></svg>