<svg fill="none" height="24" viewBox="0 0 24 24" width="24" xmlns="http://www.w3.org/2000/svg"><path clip-rule="evenodd" d="m8.38374 2.89852c.95947-.95947 2.26076-1.4985 3.61766-1.4985s2.6582.53903 3.6177 1.4985 1.4985 2.26079 1.4985 3.61768v5.4882c0 1.3569-.539 2.6583-1.4985 3.6177-.9595.9595-2.2608 1.4985-3.6177 1.4985s-2.65819-.539-3.61766-1.4985c-.95947-.9594-1.49849-2.2608-1.49849-3.6177v-5.4882c0-1.35689.53902-2.65821 1.49849-3.61768zm3.61766.5015c-.8264 0-1.619.32832-2.20345.91271-.58439.5844-.9127 1.37701-.9127 2.20347v5.4882c0 .8265.32831 1.6191.9127 2.2035.58445.5844 1.37705.9127 2.20345.9127.8265 0 1.6191-.3283 2.2035-.9127s.9127-1.377.9127-2.2035v-5.4882c0-.82646-.3283-1.61907-.9127-2.20347-.5844-.58439-1.377-.91271-2.2035-.91271zm-9.65237 8.98688c.54652-.0795 1.05405.2991 1.1336.8456.29783 2.0464 1.3225 3.9172 2.88655 5.2701 1.56404 1.3529 3.56289 2.0974 5.63092 2.0974 2.0679 0 4.0668-.7445 5.6308-2.0974 1.5641-1.3529 2.5888-3.2237 2.8866-5.2701.0795-.5465.5871-.9251 1.1336-.8456.5465.0796.9251.5871.8455 1.1336-.367 2.522-1.6298 4.8275-3.5572 6.4947-1.9275 1.6673-4.3908 2.5848-6.9393 2.5848-2.54855 0-5.01187-.9175-6.93934-2.5848-1.92747-1.6672-3.19024-3.9727-3.55728-6.4947-.07955-.5465.29902-1.054.84555-1.1336z" fill="currentColor" fill-rule="evenodd"/></svg>