<svg fill="none" height="24" viewBox="0 0 24 24" width="24" xmlns="http://www.w3.org/2000/svg"><path clip-rule="evenodd" d="m2.59294 1.69292c.39053-.39053 1.02369-.39053 1.41422 0l12.64074 12.64078c.7782-.9393 1.2891-2.0796 1.4668-3.3006.0795-.5465.5871-.925 1.1336-.8455s.9251.5871.8455 1.1336c-.2399 1.6488-.9477 3.1847-2.0269 4.4315l3.3403 3.3402c.3905.3905.3905 1.0237 0 1.4142-.3906.3906-1.0237.3906-1.4143 0l-3.4019-3.4019c-1.2053.872-2.6138 1.419-4.0888 1.59v2.9048c0 .5523-.4478 1-1 1-.5523 0-1-.4477-1-1v-2.9048c-1.72356-.1998-3.35619-.9129-4.68001-2.058-1.57768-1.3647-2.61128-3.2517-2.91172-5.316-.07954-.5465.29903-1.0541.84556-1.1336.54652-.0795 1.05405.299 1.13359.8455.23123 1.5888 1.02673 3.0412 2.24098 4.0915s2.76607 1.6284 4.3716 1.6284c1.3029 0 2.5705-.3808 3.651-1.0856l-1.7429-1.7429c-.5872.2912-1.2391.447-1.9071.447-1.1381 0-2.22965-.4522-3.03445-1.257s-1.25693-1.8963-1.25693-3.0345v-2.27998c0-.02404.00085-.04788.00252-.07149l-4.6214-4.6214c-.39052-.39052-.39052-1.02369 0-1.41421zm6.61888 8.03309v.35399c0 .6077.24142 1.1906.67114 1.6203.42974.4297 1.01254.6712 1.62024.6712.1112 0 .2215-.0081.3302-.0239zm-.74307-7.06906c.8048-.80479 1.89635-1.25693 3.03445-1.25693 1.1382 0 2.2297.45214 3.0345 1.25693.8048.8048 1.257 1.89635 1.257 3.0345v3.30857c0 .55229-.4477.99998-1 .99998s-1-.44769-1-.99998v-3.30857c0-.60772-.2414-1.19056-.6712-1.62028-.4297-.42973-1.0125-.67115-1.6203-.67115-.6077 0-1.1905.24142-1.62024.67115-.39052.39052-1.02369.39052-1.41421 0-.39052-.39053-.39052-1.02369 0-1.41422z" fill="currentColor" fill-rule="evenodd"/></svg>