<svg fill="none" height="24" viewBox="0 0 24 24" width="24" xmlns="http://www.w3.org/2000/svg"><path clip-rule="evenodd" d="m3.49293 1.69292c.39052-.39053 1.02369-.39053 1.41421 0l14.50816 14.50818c.5113-.9123.8562-1.9173 1.0092-2.9686.0795-.5465.587-.9251 1.1336-.8456.5465.0796.9251.5871.8455 1.1336-.2158 1.4831-.7415 2.8914-1.5299 4.139l1.4334 1.4334c.3906.3905.3906 1.0237 0 1.4142-.3905.3906-1.0236.3906-1.4142 0l-1.2533-1.2533c-.2501.2663-.5147.5205-.7933.7614-1.9274 1.6673-4.3908 2.5848-6.9393 2.5848-2.54847 0-5.01179-.9175-6.93926-2.5848-1.92747-1.6672-3.19024-3.9727-3.55728-6.4947-.07954-.5465.29902-1.054.84555-1.1336.54653-.0795 1.05406.2991 1.1336.8456.29783 2.0464 1.3225 3.9172 2.88655 5.2701 1.56404 1.3529 3.56289 2.0974 5.63084 2.0974 2.068 0 4.0669-.7445 5.6309-2.0974.242-.2093.4711-.4311.6866-.6639l-2.4655-2.4655c-.0746.0853-.1523.1683-.2329.2489-.9595.9595-2.2608 1.4985-3.6177 1.4985s-2.65821-.539-3.61768-1.4985c-.95947-.9594-1.49849-2.2608-1.49849-3.6177v-5.4882c0-.03525.00182-.07007.00538-.10438l-3.30468-3.30469c-.39053-.39052-.39053-1.02369 0-1.41421zm5.2993 6.71351v3.59797c0 .8265.32831 1.6191.91271 2.2035.58436.5844 1.37696.9127 2.20346.9127s1.6191-.3283 2.2035-.9127c.0809-.0809.1568-.1657.2277-.2541zm.45633-6.26065c.79484-.48374 1.71384-.74576 2.65984-.74576 1.3569 0 2.6582.53903 3.6177 1.4985s1.4985 2.26079 1.4985 3.61768v2.48382c0 .55229-.4477.99998-1 .99998s-1-.44769-1-.99998v-2.48382c0-.82646-.3283-1.61907-.9127-2.20347-.5844-.58439-1.377-.91271-2.2035-.91271-.5761 0-1.1358.15954-1.6201.45425-.47179.28712-1.087.13741-1.37412-.33437-.28712-.47179-.13741-1.087.33438-1.37412z" fill="currentColor" fill-rule="evenodd"/></svg>