<svg fill="none" height="24" viewBox="0 0 24 24" width="24" xmlns="http://www.w3.org/2000/svg"><path clip-rule="evenodd" d="m8.96654 2.65695c.8048-.80479 1.89636-1.25693 3.03446-1.25693 1.1382 0 2.2297.45214 3.0345 1.25693.8048.8048 1.257 1.89635 1.257 3.0345v4.38855c0 1.1382-.4522 2.2297-1.257 3.0345s-1.8963 1.257-3.0345 1.257c-1.1381 0-2.22966-.4522-3.03446-1.257s-1.25693-1.8963-1.25693-3.0345v-4.38855c0-1.13815.45213-2.2297 1.25693-3.0345zm3.03446.74307c-.6077 0-1.1905.24142-1.6202.67115-.42978.42972-.67119 1.01256-.67119 1.62028v4.38855c0 .6077.24141 1.1906.67119 1.6203.4297.4297 1.0125.6712 1.6202.6712.6078 0 1.1906-.2415 1.6203-.6712s.6712-1.0126.6712-1.6203v-4.38855c0-.60772-.2415-1.19056-.6712-1.62028-.4297-.42973-1.0125-.67115-1.6203-.67115zm-7.74719 6.78758c.54653-.0795 1.05406.299 1.1336.8455.23123 1.5888 1.02673 3.0412 2.24098 4.0915s2.76611 1.6284 4.37151 1.6284c1.6055 0 3.1573-.5781 4.3716-1.6284 1.2142-1.0503 2.0097-2.5027 2.241-4.0915.0795-.5465.587-.925 1.1336-.8455.5465.0795.9251.5871.8455 1.1336-.3004 2.0643-1.334 3.9513-2.9117 5.316-1.3238 1.1451-2.9564 1.8582-4.68 2.058v2.9048c0 .5523-.4477 1-1 1-.5522 0-1-.4477-1-1v-2.9048c-1.72348-.1998-3.35611-.9129-4.67993-2.058-1.57767-1.3647-2.61128-3.2517-2.91171-5.316-.07954-.5465.29903-1.0541.84555-1.1336z" fill="currentColor" fill-rule="evenodd"/></svg>