<svg fill="none" height="24" viewBox="0 0 24 24" width="24" xmlns="http://www.w3.org/2000/svg"><path clip-rule="evenodd" d="m8.3999 1.40002c.55229 0 1 .44772 1 1v4.09608c0 1.72141-1.44161 3.04804-3.13324 3.04804h-3.86649c-.55229 0-1-.44771-1-1 0-.55228.44771-1 1-1h3.86649c.66468 0 1.13324-.50724 1.13324-1.04804v-4.09608c0-.55228.44772-1 1-1zm7.2 0c.5523 0 1 .44772 1 1v4.09608c0 .5408.4686 1.04804 1.1332 1.04804h3.8665c.5523 0 1 .44772 1 1 0 .55229-.4477 1-1 1h-3.8665c-1.6916 0-3.1332-1.32663-3.1332-3.04804v-4.09608c0-.55228.4477-1 1-1zm-14.2 14.05588c0-.5523.44772-1 1-1h3.8665c1.69164 0 3.13324 1.3266 3.13324 3.048v4.0961c0 .5523-.44771 1-1 1-.55228 0-1-.4477-1-1v-4.0961c0-.5407-.46856-1.048-1.13324-1.048h-3.8665c-.55228 0-1-.4477-1-1zm13.2003 2.048c0-1.7214 1.4416-3.048 3.1332-3.048h3.8665c.5523 0 1 .4477 1 1s-.4477 1-1 1h-3.8665c-.6647 0-1.1332.5073-1.1332 1.048v4.0961c0 .5523-.4478 1-1 1-.5523 0-1-.4477-1-1z" fill="currentColor" fill-rule="evenodd"/></svg>