<svg fill="none" height="24" viewBox="0 0 24 24" width="24" xmlns="http://www.w3.org/2000/svg"><path clip-rule="evenodd" d="m10.0662 1.69308c.2608.26086.3569.64418.2499.99724-.2452.80891-.37742 1.66808-.37742 2.55994 0 4.86574 3.94442 8.81014 8.81012 8.81014.8923 0 1.7518-.1323 2.561-.3777.3531-.1071.7364-.0111.9973.2498s.357.6442.25.9972c-1.3453 4.4379-5.4673 7.6701-10.3468 7.6701-5.97028 0-10.81015-4.8399-10.81015-10.8102 0-4.87902 3.23153-9.00068 7.66872-10.34633.35306-.10707.73639-.01105.99733.24981zm-2.06106 2.35251c-2.74377 1.49316-4.60499 4.40217-4.60499 7.74401 0 4.8657 3.94444 8.8102 8.81015 8.8102 3.3423 0 6.2516-1.8617 7.7446-4.606-.3962.044-.7986.0666-1.2061.0666-5.9702 0-10.81012-4.8399-10.81012-10.81014 0-.40697.02254-.80894.06646-1.20467z" fill="currentColor" fill-rule="evenodd"/></svg>