<svg fill="none" height="24" viewBox="0 0 24 24" width="24" xmlns="http://www.w3.org/2000/svg"><path clip-rule="evenodd" d="m7.06483 3.3657c1.31559-1.26297 3.09157-1.96568 4.93517-1.96568s3.6196.70271 4.9352 1.96568c1.317 1.26431 2.0648 2.98798 2.0648 4.79432v7.67998c0 1.8064-.7478 3.53-2.0648 4.7943-1.3156 1.263-3.0916 1.9657-4.9352 1.9657s-3.61958-.7027-4.93517-1.9657c-1.31699-1.2643-2.06483-2.9879-2.06483-4.7943v-7.67998c0-1.80634.74784-3.53001 2.06483-4.79432zm4.93517.03432c-1.339 0-2.61527.51101-3.55011 1.40846-.93345.89611-1.44989 2.10259-1.44989 3.35154v7.67998c0 1.249.51644 2.4555 1.44989 3.3516.93484.8974 2.21111 1.4084 3.55011 1.4084s2.6153-.511 3.5501-1.4084c.9335-.8961 1.4499-2.1026 1.4499-3.3516v-7.67998c0-1.24895-.5164-2.45543-1.4499-3.35154-.9348-.89745-2.2111-1.40846-3.5501-1.40846zm0 3.4c.5523 0 1 .44772 1 1v2.39998c0 .5523-.4477 1-1 1s-1-.4477-1-1v-2.39998c0-.55228.4477-1 1-1z" fill="currentColor" fill-rule="evenodd"/></svg>