<svg fill="none" height="24" viewBox="0 0 24 24" width="24" xmlns="http://www.w3.org/2000/svg"><path clip-rule="evenodd" d="m11.2928 1.69292c.3905-.39053 1.0237-.39053 1.4142 0l3.3632 3.36314c.3905.39052.3905 1.02369 0 1.41421-.3906.39053-1.0237.39053-1.4143 0l-1.656-1.65603v6.18576h6.1858l-1.6561-1.65601c-.3905-.39053-.3905-1.02369 0-1.41422.3906-.39052 1.0237-.39052 1.4143 0l3.3631 3.36313c.1875.1876.2929.4419.2929.7071s-.1054.5196-.2929.7071l-3.3631 3.3632c-.3906.3905-1.0237.3905-1.4143 0-.3905-.3906-.3905-1.0237 0-1.4142l1.6561-1.6561h-6.1858v6.1858l1.656-1.656c.3906-.3906 1.0237-.3906 1.4142 0 .3906.3905.3906 1.0237 0 1.4142l-3.3631 3.3631c-.1875.1876-.4419.2929-.7071.2929s-.5196-.1053-.7071-.2929l-3.36315-3.3631c-.39052-.3905-.39052-1.0237 0-1.4142.39053-.3906 1.02369-.3906 1.41422 0l1.65603 1.656v-6.1858h-6.18578l1.65603 1.6561c.39053.3905.39053 1.0236 0 1.4142-.39052.3905-1.02369.3905-1.41421 0l-3.36314-3.3632c-.39053-.3905-.39053-1.0237 0-1.4142l3.36314-3.36313c.39052-.39052 1.02369-.39052 1.41421 0 .39053.39053.39053 1.02369 0 1.41422l-1.65603 1.65601h6.18578v-6.18576l-1.65604 1.65603c-.39052.39053-1.02368.39053-1.41421 0-.39052-.39052-.39052-1.02369 0-1.41421z" fill="currentColor" fill-rule="evenodd"/></svg>