<svg fill="none" height="24" viewBox="0 0 24 24" width="24" xmlns="http://www.w3.org/2000/svg"><path clip-rule="evenodd" d="m22.2244 1.61892c.2373.18977.3755.47717.3755.78106v14.54452c-.0002.9942-.3395 1.957-.9593 2.7387-.6194.781-1.483 1.337-2.4534 1.5886-.9701.2515-1.9987.1863-2.928-.1865-.9298-.373-1.713-1.0352-2.223-1.8905-.5104-.856-.7164-1.8548-.5824-2.8401.1341-.9852.5995-1.8945 1.3171-2.5891.7171-.6941 1.6459-1.1356 2.6407-1.2624.9837-.1253 1.9842.0631 2.8507.5393.1104.0545.2279.1281.3375.2027l.0001-9.59447-10.014 2.25939v10.88558c.0003.0145.0003.029 0 .0434v1.2833c-.0002.9942-.3395 1.9569-.95936 2.7386-.61935.781-1.48299 1.3371-2.45336 1.5886-.97011.2515-1.99868.1863-2.92804-.1865-.92974-.373-1.71301-1.0352-2.22298-1.8905-.51035-.856-.71642-1.8548-.58234-2.8401.13406-.9851.5995-1.8945 1.31708-2.5891.71706-.6941 1.64591-1.1356 2.64072-1.2624.98368-.1253 1.98411.0631 2.85066.5393.11038.0546.22798.1281.3376.2028v-8.51298c0-.93497.64778-1.74518 1.55982-1.95096l11.2341-2.53467c.2965-.06688.6072.00466.8446.19443zm-13.63852 15.47848c-.02905-.038-.06585-.0831-.11179-.1351-.1238-.14-.27933-.2914-.4454-.4377-.16504-.1454-.32899-.2757-.4635-.374-.09932-.0725-.15905-.1103-.1823-.125-.01358-.0086-.01471-.0093-.00399-.0045-.02635-.0118-.05218-.0248-.0774-.0389-.4967-.2776-1.07747-.3903-1.65108-.3172-.57347.0731-1.10098.3268-1.50249.7154-.40098.3882-.65382.8886-.72637 1.4217-.07251.5329.03805 1.076.31844 1.5462.28078.471.7182.8454 1.24977 1.0586.53196.2134 1.12368.2513 1.68155.1067.5576-.1446 1.04425-.4616 1.38809-.8953.34332-.4329.5263-.9588.52647-1.4959 0-.0001 0 .0001 0 0zm12.01392-1.1779c-.029-.038-.0659-.0831-.1118-.1351-.1238-.1401-.2794-.2914-.4454-.4377-.165-.1454-.3289-.2757-.4634-.3739-.0993-.0726-.1591-.1103-.1823-.125-.0136-.0086-.0147-.0093-.004-.0045-.0263-.0118-.0522-.0248-.0774-.0389-.4967-.2777-1.0774-.3903-1.6511-.3172-.5734.073-1.1009.3268-1.5024.7154-.401.3882-.6539.8886-.7264 1.4217-.0725.5329.038 1.0759.3184 1.5462.2808.471.7182.8453 1.2498 1.0586.532.2134 1.1237.2513 1.6815.1067.5576-.1446 1.0443-.4616 1.3881-.8953.3433-.4329.5263-.9588.5265-1.4958z" fill="currentColor" fill-rule="evenodd"/></svg>