<svg fill="none" height="24" viewBox="0 0 24 24" width="24" xmlns="http://www.w3.org/2000/svg"><path clip-rule="evenodd" d="m5.24997 4c-.69034 0-1.24997.55963-1.24997 1.24996v9.00024c0 .6903.55963 1.25 1.24998 1.25l8.11902-.0001c.2749 0 .5376.1131.7265.3128l2.5295 2.6745v-1.9872c0-.5523.4477-1 1-1l1.1251-.0001c.6903 0 1.2499-.5596 1.2499-1.2499v-2.2498c0-.5523.4477-1 1-1s1 .4477 1 1v2.2498c0 1.7948-1.455 3.2499-3.2499 3.2499h-.1251v3.4999c0 .4095-.2497.7777-.6302.9291-.3805.1515-.8149.0556-1.0963-.242l-3.9601-4.187-7.68841.0001c-1.79491 0-3.24999-1.4551-3.24999-3.25v-9.00024c0-1.7949 1.45506-3.24996 3.24997-3.24996h6.18743c.5523 0 1 .44772 1 1s-.4477 1-1 1zm12.93753.00028c-1.001 0-1.8124.81147-1.8124 1.81246s.8114 1.81246 1.8124 1.81246 1.8125-.81147 1.8125-1.81246-.8115-1.81246-1.8125-1.81246zm-3.8124 1.81246c0-2.10556 1.7069-3.81246 3.8124-3.81246 2.1056 0 3.8125 1.7069 3.8125 3.81246s-1.7069 3.81246-3.8125 3.81246c-2.1055 0-3.8124-1.7069-3.8124-3.81246z" fill="currentColor" fill-rule="evenodd"/></svg>