<svg fill="none" height="24" viewBox="0 0 24 24" width="24" xmlns="http://www.w3.org/2000/svg"><path clip-rule="evenodd" d="m15.9409 1.40003c.2652-.00077.5199.10385.708.29084l5.6331 5.60055c.188.187.2941.44104.2949.70626l.023 7.94342c.0008.2652-.1039.5198-.2908.7079l-5.6006 5.6331c-.187.1881-.441.2942-.7063.2949l-7.94333.023c-.26521.0008-.51987-.1038-.70795-.2908l-5.63308-5.6006c-.18807-.187-.29417-.441-.29493-.7062l-.023-7.94341c-.00077-.26521.10385-.51987.29084-.70795l5.60055-5.63307c.18699-.18808.44104-.29417.70626-.29494zm-7.52334 2.02179-5.01646 5.0456.0206 7.11498 5.04559 5.0164 7.11491-.0206 5.0165-5.0456-.0206-7.11492-5.0456-5.01646z" fill="currentColor" fill-rule="evenodd"/></svg>