<svg fill="none" height="19" viewBox="0 0 18 19" width="18" xmlns="http://www.w3.org/2000/svg" xmlns:xlink="http://www.w3.org/1999/xlink"><filter id="a" color-interpolation-filters="sRGB" filterUnits="userSpaceOnUse" height="17.6954" width="17.4682" x=".220996" y=".625"><feFlood flood-opacity="0" result="BackgroundImageFix"/><feColorMatrix in="SourceAlpha" result="hardAlpha" type="matrix" values="0 0 0 0 0 0 0 0 0 0 0 0 0 0 0 0 0 0 127 0"/><feOffset dy="1"/><feGaussianBlur stdDeviation=".4"/><feColorMatrix type="matrix" values="0 0 0 0 0 0 0 0 0 0 0 0 0 0 0 0 0 0 0.5 0"/><feBlend in2="BackgroundImageFix" mode="normal" result="effect1_dropShadow_525_2801"/><feBlend in="SourceGraphic" in2="effect1_dropShadow_525_2801" mode="normal" result="shape"/></filter><g filter="url(#a)"><path d="m5.37952 8.91984c-.1-.37-.2-.85-.41-1.55s-.34-.86-.47-1.23-.3-.72-.5-1.18c-.1832-.46994-.33683-.95088-.46-1.44-.08324-.4122.01918-.84014.28-1.17.35886-.35018.87668-.48344 1.36-.35.37865.16559.69907.44073.92.79.29504.47167.53653.97478.72 1.5.28174.71963.48622 1.46716.61 2.23l.09.45s0-1.12 0-1.16c0-1-.06-1.82 0-2.94 0-.13.06-.59.08-.72.02585-.43004.28212-.81252.67-1 .44529-.199787.95472-.199787 1.4 0 .39858.17843.66468.56401.68998 1 0 .11.09 1 .09 1.11v2.17c0 .23 0 1.63 0 1.47.0236-1.31954.1372-2.63593.34-3.94.1185-.40856.406-.74699.79-.93.475-.18706 1.0145-.09457 1.4.24.2882.31629.4578.72269.48 1.15v1.25 2.12s0 .3 0 .18c.09-.28.19-.54.27-.74s.24-.61.36-.86c.1221-.23834.2591-.46879.41-.69.1569-.25427.392-.45078.67-.56.2505-.09682.5293-.08885.7739.02213.2445.11097.4341.31561.5261.56787.0596.36425.0596.73575 0 1.1-.0666.55943-.1838 1.11168-.35 1.65-.13.45-.27 1.23-.34 1.6s-.23 1.37996-.36 1.81996c-.1925.5249-.4584 1.0199-.79 1.47-.4852.5403-.8863 1.1504-1.19 1.81-.0747.3279-.1083.6638-.1 1-.0016.3107.0388.6202.12.92-.4088.0436-.8211.0436-1.23 0-.39-.06-.87-.84-1-1.08-.0643-.1288-.196-.2103-.34-.2103s-.2757.0815-.34.2103c-.23.38-.70998 1.07-1.04998 1.11-.67.08-2.05 0-3.14 0 0 0 .19-1-.23-1.36s-.83-.78-1.14-1.06l-.83-.92c-.28-.36-.63-1.09-1.24-2-.35-.5-1-1.08996-1.28-1.57996-.23507-.39768-.30337-.87217-.19-1.32.16981-.59464.76067-.96554 1.37-.86.4635.03054.90192.22146 1.24.54.26771.23164.51836.48229.75.75.16.19.2.28.38.51s.3.46.21.12" fill="currentColor"/><path d="m5.37952 8.91984c-.1-.37-.2-.85-.41-1.55s-.34-.86-.47-1.23-.3-.72-.5-1.18c-.1832-.46994-.33683-.95088-.46-1.44-.08324-.4122.01918-.84014.28-1.17.35886-.35018.87668-.48344 1.36-.35.37865.16559.69907.44073.92.79.29504.47167.53653.97478.72 1.5.28174.71963.48622 1.46716.61 2.23l.09.45s0-1.12 0-1.16c0-1-.06-1.82 0-2.94 0-.13.06-.59.08-.72.02585-.43004.28212-.81252.67-1 .44529-.199787.95472-.199787 1.4 0 .39858.17843.66468.56401.68998 1 0 .11.09 1 .09 1.11v2.17c0 .23 0 1.63 0 1.47.0236-1.31954.1372-2.63593.34-3.94.1185-.40856.406-.74699.79-.93.475-.18706 1.0145-.09457 1.4.24.2882.31629.4578.72269.48 1.15v1.25 2.12s0 .3 0 .18c.09-.28.19-.54.27-.74s.24-.61.36-.86c.1221-.23834.2591-.46879.41-.69.1569-.25427.392-.45078.67-.56.2505-.09682.5293-.08885.7739.02213.2445.11097.4341.31561.5261.56787.0596.36425.0596.73575 0 1.1-.0666.55943-.1838 1.11168-.35 1.65-.13.45-.27 1.23-.34 1.6s-.23 1.37996-.36 1.81996c-.1925.5249-.4584 1.0199-.79 1.47-.4852.5403-.8863 1.1504-1.19 1.81-.0747.3279-.1083.6638-.1 1-.0016.3107.0388.6202.12.92-.4088.0436-.8211.0436-1.23 0-.39-.06-.87-.84-1-1.08-.0643-.1288-.196-.2103-.34-.2103s-.2757.0815-.34.2103c-.23.38-.70998 1.07-1.04998 1.11-.67.08-2.05 0-3.14 0 0 0 .19-1-.23-1.36s-.83-.78-1.14-1.06l-.83-.92c-.28-.36-.63-1.09-1.24-2-.35-.5-1-1.08996-1.28-1.57996-.23507-.39768-.30337-.87217-.19-1.32.16981-.59464.76067-.96554 1.37-.86.4635.03054.90192.22146 1.24.54.26771.23164.51836.48229.75.75.16.19.2.28.38.51s.3.46.21.12" stroke="#fff" stroke-linecap="round" stroke-linejoin="round" stroke-width=".75"/><g fill="currentColor"><path d="m12.7495 13.0808v-3.45181c0-.20661-.1679-.37411-.375-.37411s-.375.1675-.375.37411v3.45181c0 .2066.1679.3741.375.3741s.375-.1675.375-.3741z"/><path d="m10.7595 13.0806-.01-3.45357c-.0006-.20612-.169-.37274-.3761-.37215-.2071.0006-.37448.16818-.37389.3743l.00999 3.45352c.0006.2062.169.3728.3761.3722s.3745-.1682.3739-.3743z"/><path d="m8.00465 9.62978.02 3.44462c.00121.2086.17008.3767.37718.3755.20711-.0012.37401-.1713.3728-.3799l-.02-3.44463c-.00121-.2086-.17008-.37671-.37718-.37549-.20711.00122-.37402.17131-.3728.3799z"/></g></g></svg>