<svg fill="none" height="24" viewBox="0 0 24 24" width="24" xmlns="http://www.w3.org/2000/svg"><path clip-rule="evenodd" d="m11.4999 1.534c.3094-.17863.6906-.17863 1 0l8.3138 4.8c.3094.17863.5.50876.5.86602v9.59998c0 .3573-.1906.6874-.5.866l-8.3138 4.8c-.3094.1787-.6906.1787-1 0l-8.31386-4.8c-.30941-.1786-.5-.5087-.5-.866v-9.59998c0-.35726.19059-.68739.5-.86602zm-6.09924 5.83079 6.59924 4.06101 6.5992-4.06101-6.5992-3.81007zm13.91304 1.90859v6.94932l-6.3138 3.6453v-6.7092zm-8.3138 3.88542-6.31386-3.88542v6.94932l6.31386 3.6453z" fill="currentColor" fill-rule="evenodd"/></svg>