<svg fill="none" height="24" viewBox="0 0 24 24" width="24" xmlns="http://www.w3.org/2000/svg"><path clip-rule="evenodd" d="m11.348 1.534c.3094-.17863.6906-.17863 1 0l8.3139 4.8c.3094.17863.5.50876.5.86602v4.79998c0 .5523-.4477 1-1 1s-1-.4477-1-1v-2.95803l-6.3139 4.10093v6.7251l.2995-.1729c.4783-.2762 1.0898-.1123 1.366.366.2761.4783.1123 1.0899-.366 1.366l-1.7995 1.0389c-.3094.1787-.6906.1787-1 0l-8.31382-4.8c-.3094-.1786-.5-.5087-.5-.866v-9.59998c0-.35726.1906-.68739.5-.86602l3.94475-2.2775c.10507-.09464.22772-.16441.35872-.20711zm-3.69546 4.44299-2.40374 1.3878 6.5848 4.05221 2.2666-1.47223zm8.30416 2.76191-6.33527-3.89865 2.22657-1.28553 6.4008 3.69548zm-5.1087 4.4199-6.31382-3.88542v6.94932l6.31382 3.6453zm5.0919 1.5152c.3905-.3905 1.0237-.3905 1.4142 0l1.2024 1.2024 1.202-1.2021c.3906-.3905 1.0237-.3905 1.4143 0 .3905.3905.3905 1.0237 0 1.4142l-1.2021 1.2021 1.2018 1.2018c.3905.3905.3905 1.0237 0 1.4142-.3905.3906-1.0237.3906-1.4142 0l-1.2018-1.2018-1.2021 1.2021c-.3905.3905-1.0237.3905-1.4142 0-.3906-.3905-.3906-1.0237 0-1.4142l1.202-1.2021-1.2023-1.2023c-.3905-.3906-.3905-1.0237 0-1.4143z" fill="currentColor" fill-rule="evenodd"/></svg>