<svg fill="none" height="24" viewBox="0 0 24 24" width="24" xmlns="http://www.w3.org/2000/svg"><path clip-rule="evenodd" d="m9.08224 1.69292c.39052-.39053 1.02366-.39053 1.41416 0l7.4848 7.48474c.1121.11206.2064.23659.2823.36953.4169.52351.6331 1.15411.6495 1.78641.0205.7907-.2717 1.5915-.8765 2.1963l-5.161 5.161c-1.17 1.17-3.06692 1.17-4.2369 0l-5.16102-5.161c-.60477-.6048-.89696-1.4056-.87648-2.1963.01915-.7393.31166-1.47577.87648-2.04059.07073-.07072 1.74282-1.71229 3.38795-3.3271l2.56144-2.51405-.34473-.34473c-.39053-.39052-.39053-1.02369 0-1.41421zm1.75896 3.17322-2.57467 2.52707c-.82459.8094-1.65329 1.6229-2.28411 2.24233l-.73705.72396h11.08923zm5.5373 7.49336-4.9172 4.9172c-.389.3889-1.0196.3889-1.4085 0l-4.91723-4.9172zm1.7524 2.2988c.233-.3676.6486-.6268 1.1317-.6268.4827 0 .8985.2588 1.1318.6271l.0102.0164c.1201.198.3749.6324.6031 1.0998.1139.2331.2292.4908.3182.7415.0808.2278.1745.5429.1745.8591 0 1.2328-.9991 2.2442-2.2378 2.2442-1.2389 0-2.2379-1.0115-2.2379-2.2442 0-.3153.0946-.6304.1748-.8559.0887-.2496.2038-.5071.3174-.7404.2279-.4678.4824-.9042.6036-1.1041zm1.1325 2.1044c-.0733.1563-.1351.3019-.1795.4268-.0477.1342-.0571.1949-.0589.199.0069.1312.1168.2311.2376.2311.1247 0 .2378-.1065.2378-.2442 0 .0074.0002.0112-.0001.0112-.0013.0002-.0094-.0607-.0593-.2015-.044-.124-.105-.2679-.1776-.4224zm-15.65278 4.8373c0-.5523.44771-1 1-1h10.61048c.5523 0 1 .4477 1 1s-.4477 1-1 1h-10.61048c-.55229 0-1-.4477-1-1z" fill="currentColor" fill-rule="evenodd"/></svg>