<svg fill="none" height="24" viewBox="0 0 24 24" width="24" xmlns="http://www.w3.org/2000/svg"><path clip-rule="evenodd" d="m11.9999 3.40002c-4.74965 0-8.6 3.85036-8.6 8.59998 0 4.7497 3.85035 8.6 8.6 8.6.7909 0 1.5554-.1065 2.2805-.3054.5225-.1432.9435-.7008.9435-1.4694v-.1892c0-.1683-.0392-.3343-.1144-.4848-.7618-1.5234-.1443-3.3759 1.3792-4.1376.4282-.2141.9004-.3256 1.3792-.3256h.6266c1.2585 0 2.1054-.8043 2.1054-1.688 0-4.74962-3.8504-8.59998-8.6-8.59998zm-10.6 8.59998c0-5.85419 4.74578-10.59998 10.6-10.59998 5.8542 0 10.6 4.74579 10.6 10.59998 0 2.3444-2.1358 3.688-4.1054 3.688h-.6266c-.1683 0-.3343.0392-.4848.1145-.5355.2677-.7525.9188-.4848 1.4543.2141.4282.3256.9004.3256 1.3792v.1892c0 1.4325-.8142 2.9593-2.4145 3.3982l-.2645-.9644.2645.9644c-.8959.2457-1.8382.3766-2.8095.3766-5.85422 0-10.6-4.7458-10.6-10.6zm10.6003-6.99998c.5522 0 1 .44772 1 1v.03323c0 .55229-.4478 1-1 1-.5523 0-1-.44771-1-1v-.03323c0-.55228.4477-1 1-1zm-4.94973 2.05007c.39053-.39053 1.02369-.39053 1.41422 0l.02349.02349c.39053.39053.39053 1.02369 0 1.41422-.39052.39052-1.02368.39052-1.41421 0l-.0235-.0235c-.39052-.39052-.39052-1.02369 0-1.41421zm9.89953.00037c.3905.39052.3905 1.02368 0 1.41421l-.0235.0235c-.3905.39053-1.0237.39053-1.4142.00001-.3906-.39052-.3906-1.02368-.0001-1.41421l.0235-.0235c.3906-.39053 1.0237-.39053 1.4143-.00001zm-11.9501 4.94984c0-.5523.44772-1 1-1h.03323c.55229 0 1 .4477 1 1s-.44771 1-1 1h-.03323c-.55228 0-1-.4477-1-1zm3.48828 3.5119c.39053.3906.39053 1.0237 0 1.4143l-.02349.0235c-.39053.3905-1.02369.3905-1.41422 0-.39052-.3906-.39052-1.0237 0-1.4143l.0235-.0235c.39053-.3905 1.02369-.3905 1.41421 0z" fill="currentColor" fill-rule="evenodd"/></svg>