<svg fill="none" height="24" viewBox="0 0 24 24" width="24" xmlns="http://www.w3.org/2000/svg"><path clip-rule="evenodd" d="m10.6235 3.04217c.3905.39049.3906 1.02366.0001 1.41421l-5.14121 5.14196c-2.54399 2.54396-2.80063 5.90986-.51922 8.10006 2.36829 2.2735 5.78053 1.9875 8.13023-.4601l.0143-.0146 6.5234-6.5233c1.2918-1.29186 1.2918-3.3863 0-4.67812-1.2918-1.29181-3.3863-1.29181-4.6781 0l-1.3827 1.38268-.0021.00209-5.50571 5.47325c-.45602.4533-.45711 1.1908-.00243 1.6455.45372.4537 1.18936.4537 1.64309 0l7.09985-7.09986c.3905-.39053 1.0237-.39053 1.4142 0 .3905.39052.3905 1.02369 0 1.41421l-7.0998 7.09985c-1.23481 1.2348-3.23678 1.2348-4.47156 0-1.23736-1.2374-1.23439-3.2444.00663-4.4781l5.50363-5.47116.0021-.00209 1.3806-1.38058c2.0728-2.07286 5.4336-2.07286 7.5065 0 2.0728 2.07286 2.0728 5.43363 0 7.50653l-6.5164 6.5163c-2.9904 3.1081-7.66454 3.665-10.9508.5102-3.306501-3.1742-2.615983-7.8509.48997-10.95686.00002-.00002-.00002.00001 0 0l5.14117-5.14196c.3905-.39056 1.02366-.39061 1.41426-.00011z" fill="currentColor" fill-rule="evenodd"/></svg>