<svg fill="none" height="24" viewBox="0 0 24 24" width="24" xmlns="http://www.w3.org/2000/svg"><path clip-rule="evenodd" d="m3.80005 4.40002c0-1.65685 1.34315-3 3-3h10.39995c1.6569 0 3.0001 1.34315 3.0001 3v15.19998c0 1.6569-1.3432 3-3 3h-10.40005c-1.65685 0-3-1.3431-3-3zm3-1c-.55229 0-1 .44772-1 1v15.19998c0 .5523.44771 1 1 1h10.40005c.5522 0 1-.4477 1-1v-15.19998c0-.55228-.4478-1-1.0001-1zm5.19995 3.6c-.7732 0-1.4.62681-1.4 1.4 0 .7732.6268 1.4 1.4 1.4s1.4-.6268 1.4-1.4c0-.77319-.6268-1.4-1.4-1.4zm-3.39995 1.4c0-1.87776 1.52225-3.4 3.39995-3.4 1.8778 0 3.4 1.52224 3.4 3.4 0 1.87778-1.5222 3.39998-3.4 3.39998-1.8777 0-3.39995-1.5222-3.39995-3.39998zm0 8.39998c0-.5523.44771-1 1-1h4.79995c.5523 0 1 .4477 1 1s-.4477 1-1 1h-4.79995c-.55229 0-1-.4477-1-1z" fill="currentColor" fill-rule="evenodd"/></svg>