<svg fill="none" height="24" viewBox="0 0 24 24" width="24" xmlns="http://www.w3.org/2000/svg"><path clip-rule="evenodd" d="m1.3999 8.73331c0-1.73049 1.40284-3.13333 3.13334-3.13333h14.93336c1.7305 0 3.1333 1.40284 3.1333 3.13333v6.53329c0 1.7305-1.4028 3.1334-3.1333 3.1334h-14.93336c-1.7305 0-3.13334-1.4029-3.13334-3.1334zm3.13334-1.13333c-.62593 0-1.13334.50741-1.13334 1.13333v6.53329c0 .626.50741 1.1334 1.13334 1.1334h14.93336c.6259 0 1.1333-.5074 1.1333-1.1334v-6.53329c0-.62592-.5074-1.13333-1.1333-1.13333zm.99555 4.40002c0-.5523.44772-1 1-1h.14003c.55228 0 1 .4477 1 1s-.44772 1-1 1h-.14003c-.55228 0-1-.4477-1-1zm5.47111 0c0-.5523.4477-1 1-1h.14c.5523 0 1 .4477 1 1s-.4477 1-1 1h-.14c-.5523 0-1-.4477-1-1zm5.3295 0c0-.5523.4477-1 1-1h.14c.5523 0 1 .4477 1 1s-.4477 1-1 1h-.14c-.5523 0-1-.4477-1-1z" fill="currentColor" fill-rule="evenodd"/></svg>