<svg fill="none" height="24" viewBox="0 0 24 24" width="24" xmlns="http://www.w3.org/2000/svg"><path clip-rule="evenodd" d="m1.3999 6.00002c0-2.54051 2.05949-4.6 4.6-4.6h12c2.5405 0 4.6 2.05949 4.6 4.6v11.99998c0 2.5405-2.0595 4.6-4.6 4.6h-12c-2.54051 0-4.6-2.0595-4.6-4.6zm4.6-2.6c-1.43594 0-2.6 1.16406-2.6 2.6v11.99998c0 1.436 1.16406 2.6 2.6 2.6h12c1.4359 0 2.6-1.164 2.6-2.6v-11.99998c0-1.43594-1.1641-2.6-2.6-2.6zm3.6 4c.5523 0 1 .44772 1 1v7.19998c0 .5523-.4477 1-1 1-.55228 0-1-.4477-1-1v-7.19998c0-.55228.44772-1 1-1zm4.8 0c.5523 0 1 .44772 1 1v7.19998c0 .5523-.4477 1-1 1s-1-.4477-1-1v-7.19998c0-.55228.4477-1 1-1z" fill="currentColor" fill-rule="evenodd"/></svg>