<svg fill="none" height="24" viewBox="0 0 24 24" width="24" xmlns="http://www.w3.org/2000/svg"><path clip-rule="evenodd" d="m1.3999 12c0-5.85419 4.74578-10.59998 10.6-10.59998 5.8542 0 10.6 4.74579 10.6 10.59998 0 5.8542-4.7458 10.6-10.6 10.6-5.85422 0-10.6-4.7458-10.6-10.6zm10.6-8.59998c-4.74965 0-8.6 3.85036-8.6 8.59998 0 4.7497 3.85035 8.6 8.6 8.6 4.7496 0 8.6-3.8503 8.6-8.6 0-4.74962-3.8504-8.59998-8.6-8.59998zm-2.4 4c.5523 0 1 .44772 1 1v7.19998c0 .5523-.4477 1-1 1-.55228 0-1-.4477-1-1v-7.19998c0-.55228.44772-1 1-1zm4.8 0c.5523 0 1 .44772 1 1v7.19998c0 .5523-.4477 1-1 1s-1-.4477-1-1v-7.19998c0-.55228.4477-1 1-1z" fill="currentColor" fill-rule="evenodd"/></svg>