<svg fill="none" height="24" viewBox="0 0 24 24" width="24" xmlns="http://www.w3.org/2000/svg"><path clip-rule="evenodd" d="m16.199 3.54151c-.0879-.0879-.2305-.0879-.3184 0l-2.1656 2.16565c-.0879.0879-.0879.23041 0 .31831l5.1976 5.19753c.0879.0879.2304.0879.3183 0l2.1656-2.16562c.0879-.08789.0879-.23041 0-.3183zm-1.7326-1.41421c.869-.86895 2.2778-.86895 3.1468 0l5.1975 5.19756c.869.86895.869 2.27779 0 3.14674l-2.1656 2.1657c-.3562.3561-.8031.5663-1.2664.6305l-1.8311 5.1605c-.3341.9413-1.1384 1.6377-2.1178 1.8336l-11.97123 2.3943c-.32457.0649-.66022-.035-.89648-.2668s-.34251-.5655-.28377-.8913l2.18463-12.11472c.18754-1.04001.93749-1.88965 1.94618-2.20487l5.26487-1.64526c.0683-.45394.2773-.89079.6268-1.2403zm-2.1709 5.3071-5.28982 1.65307c-.29775.09305-.51912.34385-.57448.65084l-1.61794 8.97229 2.98629-2.9863c-.69944-1.3057-.49842-2.9667.60306-4.0681 1.34737-1.3474 3.53189-1.3474 4.87929 0 1.3473 1.3473 1.3473 3.5319 0 4.8792-1.1015 1.1015-2.7625 1.3025-4.06814.6031l-2.90879 2.9088 8.73263-1.7465c.2891-.0579.5265-.2634.6251-.5413l1.8223-5.1356-5.1842-5.18422c-.0018-.00175-.0035-.00352-.0053-.00528zm-12.095549-4.67815c0-.55228.447715-1 .999999-1h5.28836c.55229 0 1 .44772 1 1s-.44771 1-1 1h-5.28836c-.552284 0-.999999-.44772-.999999-1zm11.667649 10.31415c-.5663-.5663-1.4845-.5663-2.05078 0-.56632.5663-.56632 1.4845 0 2.0508.56628.5663 1.48448.5663 2.05078 0 .5664-.5663.5664-1.4845 0-2.0508z" fill="currentColor" fill-rule="evenodd"/></svg>