<svg fill="none" height="24" viewBox="0 0 24 24" width="24" xmlns="http://www.w3.org/2000/svg"><path clip-rule="evenodd" d="m3.84413.31189c.55229 0 1 .447715 1 1v1.64418h1.64418c.55229 0 1 .44772 1 1 0 .55229-.44771 1-1 1h-1.64418v1.64418c0 .55229-.44771 1-1 1-.55228 0-1-.44771-1-1v-1.64418h-1.64418c-.552283 0-.999999-.44771-.999999-1 0-.55228.447715-1 .999999-1h1.64418v-1.64418c0-.552285.44772-1 1-1zm12.35597 4.4296c-.0879-.0879-.2304-.0879-.3183 0l-2.1656 2.16565c-.0879.0879-.0879.23041 0 .31831l5.1975 5.19755c.0879.0879.2304.0879.3183 0l2.1657-2.1656c.0879-.0879.0879-.2304 0-.31835zm-1.7325-1.41422c.869-.86894 2.2778-.86895 3.1467 0l5.1976 5.19757c.869.86895.869 2.27776 0 3.14676l-2.1656 2.1656c-.3562.3562-.8032.5664-1.2664.6306l-1.8312 5.1605c-.334.9413-1.1383 1.6377-2.1177 1.8336l-11.97126 2.3942c-.32456.065-.66022-.0349-.89648-.2667-.23626-.2319-.3425-.5656-.28376-.8913l2.18462-12.1147c.18754-1.04006.9375-1.88969 1.94618-2.20491l5.2649-1.64527c.0683-.45393.2772-.89079.6268-1.24029zm-2.1709 5.30711-5.28985 1.65312c-.29774.093-.51912.3438-.57448.6508l-1.61794 8.9722 2.98629-2.9863c-.69943-1.3056-.49842-2.9666.60306-4.0681 1.34737-1.3473 3.53192-1.3473 4.87922 0 1.3474 1.3474 1.3474 3.5319 0 4.8793-1.1014 1.1015-2.7624 1.3025-4.06806.6031l-2.9088 2.9088 8.73266-1.7466c.2891-.0578.5265-.2634.6251-.5412l1.8223-5.1356-5.1842-5.18424c-.0018-.00176-.0036-.00352-.0053-.00528zm-.4279 5.63602c-.5663-.5664-1.4845-.5664-2.05081 0-.56632.5663-.56632 1.4845 0 2.0508.56631.5663 1.48451.5663 2.05081 0s.5663-1.4845 0-2.0508z" fill="currentColor" fill-rule="evenodd"/></svg>