<svg fill="none" height="24" viewBox="0 0 24 24" width="24" xmlns="http://www.w3.org/2000/svg"><path clip-rule="evenodd" d="m16.199 3.54151c-.0879-.0879-.2304-.0879-.3183 0l-2.1657 2.16565c-.0879.0879-.0879.23041 0 .31831l5.1976 5.19753c.0879.0879.2304.0879.3183 0l2.1656-2.16562c.0879-.08789.0879-.23041 0-.3183zm-1.7326-1.41421c.869-.86895 2.2778-.86895 3.1468 0l5.1976 5.19756c.8689.86895.8689 2.27779 0 3.14674l-2.1657 2.1657c-.3562.3561-.8031.5663-1.2664.6305l-1.8311 5.1605c-.334.9413-1.1384 1.6377-2.1178 1.8336l-11.97122 2.3943c-.32456.0649-.66022-.035-.89648-.2668-.23625-.2318-.3425-.5655-.28376-.8913l2.18462-12.11472c.18755-1.04001.9375-1.88965 1.94619-2.20487l5.26485-1.64526c.0684-.45394.2773-.89079.6268-1.2403zm-2.1709 5.3071-5.2898 1.65307c-.29775.09305-.51912.34385-.57448.65085l-1.61795 8.97228 2.98629-2.9863c-.69943-1.3057-.49841-2.9667.60306-4.0681 1.34737-1.3474 3.53188-1.3474 4.87928 0 1.3473 1.3473 1.3473 3.5319 0 4.8792-1.1015 1.1015-2.7624 1.3025-4.06812.6031l-2.90879 2.9088 8.73261-1.7465c.2891-.0579.5265-.2634.6251-.5413l1.8223-5.1356-5.1842-5.18422c-.0018-.00175-.0035-.00352-.0053-.00528zm-.4278 5.636c-.5664-.5663-1.4845-.5663-2.05087 0-.56632.5663-.56632 1.4845.00001 2.0508.56636.5663 1.48446.5663 2.05086 0 .5663-.5663.5663-1.4845 0-2.0508z" fill="currentColor" fill-rule="evenodd"/></svg>