<svg fill="none" height="24" viewBox="0 0 24 24" width="24" xmlns="http://www.w3.org/2000/svg"><path clip-rule="evenodd" d="m16.7439 4.05705-10.81545 11.19325 3.04228 2.6076 10.97217-10.60185c.8779-.88381.876-2.31195-.0055-3.1935-.8815-.88153-2.3097-.88337-3.1935-.0055zm-9.42147 15.02215-3.43103 1.0293.94743-3.1581zm8.00177-16.43086c1.6644-1.664419 4.363-1.664424 6.0274 0 1.6644 1.66443 1.6644 4.36299 0 6.02742l-.0122.01203-12.2446 11.83141c-.11484.1109-.25458.1928-.40753.2386l-5.99999 1.8c-.35237.1058-.73433.0095-.99446-.2507-.26013-.2601-.35643-.6421-.25072-.9944l1.8-6c.04589-.153.12773-.2927.23869-.4075l11.83141-12.24462z" fill="currentColor" fill-rule="evenodd"/></svg>