<svg fill="none" height="24" viewBox="0 0 24 24" width="24" xmlns="http://www.w3.org/2000/svg"><path clip-rule="evenodd" d="m19.0611 3.40425-6.0612.75729v6.84306h7.6v-6.31657c0-.68062-.6412-1.34891-1.5388-1.28378zm3.5388 1.28378c0-1.95354-1.7501-3.43979-3.723-3.27546-.0137.00114-.0274.00256-.041.00426l-14.38877 1.79775c-1.64869.1712-3.04723 1.50904-3.04723 3.2726v11.03472c0 1.7636 1.39852 3.1014 3.0472 3.2726l14.3888 1.7978c.1824.0228.3654-.0053.5299-.0784 1.7226-.0167 3.2341-1.4721 3.2341-3.3128zm-2 8.31657h-7.6v6.843l5.5997.6996c.1697-.0655.3561-.0843.5391-.051.6901.1254 1.4612-.4632 1.4612-1.2951zm-9.6 6.5931v-6.5931h-7.6v4.5173c0 .6306.51393 1.2094 1.25946 1.2839.00818.0008.01636.0017.02452.0028zm-7.6-8.5931h7.6v-6.59318l-6.31602.78913c-.00816.00102-.01634.00193-.02452.00275-.74553.07452-1.25946.65332-1.25946 1.28388z" fill="currentColor" fill-rule="evenodd"/></svg>