<svg fill="none" height="24" viewBox="0 0 26 24" width="26" xmlns="http://www.w3.org/2000/svg"><path clip-rule="evenodd" d="m6.46372 4.73002-.00987.00428-.00474.00194-.0184.00784-.07503.03235c-.06606.02871-.16275.07121-.28251.12526-.24003.10832-.57022.26188-.93095.44272-.73767.36981-1.49993.80353-1.9245 1.16826-.31097.31926-.41905.61238-.40985 1.00136.02193.32839.02513 1.26656.02503 1.99714-.00001.11605.0935.20638.2036.20638h3.12555c.11046 0 .2-.08954.2-.2v-1.2114c0-.77534.55856-1.45171 1.34316-1.57477.98857-.15504 3.31639-.49458 5.03429-.53113 1.9547-.04159 4.6253.35635 5.6896.52936.7807.12689 1.333.80164 1.333 1.57201v1.23413c0 .10927.0876.19831.1969.19998l3.0112.04601c.1109.0017.202-.0872.203-.19813l.0194-2.10686c-.0003-.31356-.0891-.55625-.2914-.79696-.432-.50886-1.0503-.96327-2.1049-1.44346l-.0027-.00124c-1.778-.81598-4.8374-1.83499-8.0316-1.83507-1.5948-.00003-3.17094.329-4.36571.66823-.59327.16845-1.08298.33665-1.422.46177-.16932.06248-.30051.11402-.38764.14918-.04355.01758-.07604.03105-.09674.03973l-.02208.00933zm-.79093-1.83697-.00455.00193-.02352.01002c-.02016.00861-.04916.02107-.08602.03709-.07369.03202-.17901.07833-.30823.13664-.25793.1164-.61362.28178-1.00456.47777-.75141.37669-1.74041.91855-2.37365 1.47578-.01596.01404-.03146.02859-.04649.04362-.70644.70644-1.048299 1.53676-1.016348 2.52074.000518.01594.001416.03186.002695.04775.015581.19364.020895 1.05509.020786 1.86651-.000164 1.2148.982867 2.2066 2.203587 2.2066l3.12556.0001c1.21503 0 2.2-.985 2.2-2.20005v-.86366c1.09875-.16564 3.01565-.42421 4.41995-.45409 1.5811-.03364 3.7785.26265 4.9801.44895v.887c0 1.20195.9646 2.18135 2.1663 2.19975l3.0112.046c1.2201.0187 2.2223-.9593 2.2335-2.17946l.0195-2.11143v-.00819c.0009-.78899-.2553-1.48983-.7627-2.09233l-.0023-.00266c-.6845-.807-1.5821-1.41545-2.8011-1.97066-1.9411-.89067-5.2913-2.01667-8.8644-2.01675-1.8473-.00004-3.61924.37721-4.91207.74428-.65053.1847-1.18949.36965-1.56818.50941-.18954.06994-.33947.12877-.44375.17086-.05215.02105-.09293.03793-.12159.04994l-.0338.0143zm6.53851 9.15665c.3903-.3904 1.0232-.3905 1.4138-.0003l3.4408 3.4372c.3907.3903.3911 1.0235.0007 1.4142-.3903.3908-1.0235.3911-1.4142.0008l-1.734-1.7323v6.4306c0 .5523-.4477 1-1 1s-1-.4477-1-1v-6.4289l-1.8929 1.8929c-.39055.3906-1.02372.3906-1.41424 0-.39052-.3905-.39052-1.0237 0-1.4142z" fill="currentColor" fill-rule="evenodd"/></svg>