<svg fill="none" height="24" viewBox="0 0 24 24" width="24" xmlns="http://www.w3.org/2000/svg"><path clip-rule="evenodd" d="m17.6477 1.62578c.3905-.39053 1.0237-.39053 1.4142 0l3.8919 3.89186c.3904.39039.3905 1.02327.0003 1.41386l-3.4372 3.4408c-.3904.3907-1.0235.391-1.4143.0007-.3907-.39031-.391-1.02347-.0007-1.4142l1.7323-1.73405h-6.4307c-.5522 0-1-.44771-1-1 0-.55228.4478-1 1-1h6.4289l-2.1847-2.18476c-.3905-.39052-.3905-1.02369 0-1.41421zm-12.92853 2.64247-1.59315 1.5899c-.22321.22276-.3328.45774-.36004.77225-.05432.66529.06157 1.42378.46772 2.50898l.00105.0028c.66415 1.79092 1.67289 3.48032 3.22193 5.34382 1.85591 2.2104 4.08412 3.9496 6.61932 5.1748.9525.4545 2.1076.9271 3.3055 1.0036l.0026.0001c.0317.0021.0731.0025.1504.0025.4634 0 .754-.13 1.0286-.4174.186-.2145.5738-.6085.8861-.9217.1693-.1699.3291-.3286.4465-.4448l.0438-.0433c.0184-.055.0361-.1174.0482-.1798.0077-.0399.0115-.0718.0132-.096l-2.5112-2.506-.9167.9148c-.0021.0021-.0045.0045-.007.007-.1128.113-.6083.6096-1.4155.6096-.3302 0-.6328-.0831-.9129-.2228-.0334-.0167-.0604-.0322-.0774-.0422-.0087-.0052-.0168-.0102-.023-.014-.0122-.0068-.0243-.014-.0362-.0214-.09-.0557-.206-.1145-.3863-.2045l-.0141-.007c-.1807-.0901-.4169-.208-.6532-.3574-1.6092-1.0157-3.05296-2.3309-4.40546-3.9892-.01152-.0131-.02271-.0265-.03354-.0403-.75399-.9554-1.28094-1.7967-1.66079-2.71498-.0089-.02151-.01705-.04333-.02442-.06542l-.01414-.04231-.00491-.01512c-.05713-.18052-.1467-.50704-.10118-.89941.04681-.40359.2256-.79403.55365-1.137.0481-.05477.08868-.08948.1054-.10378.00027-.00023.00107-.00091.00134-.00114.10428-.09326.17084-.15077.21836-.19024.0158-.01313.02932-.0241.04119-.03359.01453-.0148.03181-.03252.05513-.05643.03022-.03098.07056-.07233.12813-.13116.00683-.00698.01377-.01386.0208-.02064.08303-.08.15781-.15552.24154-.2401.0466-.04707.09598-.09694.1511-.15195.00729-.00728.01411-.01425.02047-.02092-.00636-.00667-.01318-.01365-.02047-.02092l-1.28616-1.28354-.0108-.01095c-.07217-.07426-.14473-.14782-.21984-.22396-.07434-.07535-.15178-.15385-.22807-.23244-.28549-.29424-.54442-.55678-.81249-.80676-.00826-.00771-.01639-.01555-.02439-.02353l-.00671-.00669c-.00385.00335-.00784.00689-.01197.01063zm15.07073 15.13735c.9.4359.9001.4357.9002.4354l.0009-.0017.0012-.0027.0031-.0064.0081-.0175c.0063-.0136.0142-.0311.0234-.0522.0183-.0421.0419-.0992.0676-.1681.0503-.1349.1137-.3291.157-.5532.0714-.3698.16-1.1985-.4612-1.8144-.0007-.0007-.0014-.0014-.0021-.0021l-2.5879-2.5827c-.228-.2436-.7097-.6492-1.3987-.6492-.7112 0-1.2126.44-1.4178.6448l-.9235.9215c-.0106.0107-.017.0169-.022.0215-.0028-.0016-.0059-.0034-.0091-.0052-.1696-.103-.3544-.1951-.5031-.2693l-.0184-.0092c-.1943-.097-.3475-.1742-.4912-.2652l-.001-.0006c-1.4074-.8883-2.6992-2.057-3.94153-3.5843-.00508-.0062-.01025-.0124-.01548-.0186-.65636-.8347-1.06394-1.50251-1.34962-2.18376.00001.00004-.00002-.00004 0 0m-4.4663-6.42513c.34547-.32366.82293-.60404 1.39979-.60404.69733 0 1.18101.4085 1.39423.62128l.00235.00235c.30192.28219.58569.57063.87095.86464.06975.07186.14113.14423.21637.2205l.00284.00287c.07176.07275.14695.14896.22259.22676l1.28078 1.27816c.34467.34396.66816.8237.66816 1.43658 0 .61287-.32349 1.09261-.66816 1.43658-.03711.03704-.07768.07798-.1203.12099-.09068.09152-.19065.19243-.28648.28509-.04589.04691-.08377.08573-.11394.11665-.0278.0285-.04907.05029-.06404.06554l-.00419.00426c-.0277.02824-.07391.07534-.13107.12215-.01292.01057-.02383.01908-.02914.0232l-.00938.00727c-.0013.00102-.00523.00409-.01424.01157-.01974.0164-.06195.05238-.14689.12813-.00126.00127-.00252.00254-.00379.00381-.00428.00427-.00805.00819-.01137.01177m-4.45507-6.38611c-.00768.00719-.01525.01451-.02269.02194zm-.02269.02194-1.60653 1.60325zm-1.60653 1.60325c-.55847.55732-.872901 1.23402-.940119 2.01887zm-.940119 2.01887-.000291.00347zm-.000291.00347c-.086626 1.05467.117829 2.11961.58723 3.37421zm.58723 3.37421c.75842 2.04445 1.89742 3.92735 3.56019 5.92735l.00305.0037c2.03476 2.4239 4.48831 4.3415 7.28469 5.6925l.0043.002c.9969.4759 2.4405 1.0929 4.0391 1.1955.1045.007.2088.007.2738.0069h.0093c.999 0 1.8279-.3454 2.5011-1.0637.0109-.0117.0215-.0236.0318-.0357.1146-.1346.4524-.4809.7983-.8278.1652-.1657.3216-.3211.4369-.4352l.1374-.1358.0499-.0491.0007-.0007c.0819-.0804.1495-.1748.1995-.278l-.9002-.4354" fill="currentColor" fill-rule="evenodd"/></svg>