<svg fill="none" height="24" viewBox="0 0 24 24" width="24" xmlns="http://www.w3.org/2000/svg"><g fill="currentColor"><path clip-rule="evenodd" d="m19.8274 2.31837c.3908-.38596 1.0206-.38444 1.4096.00455.389.389.3905 1.01875.0046 1.40963l-.0046.00459-9.2196 9.21956c.0497.0279.0977.0603.1434.0975l.005.0041.0107.0088c.4517.3701 1.4955 1.0975 2.0011 1.4177l.013.0082c.1383.0875.2859.1621.475.2564l.0598.0299c.1336.0667.2918.1471.4394.236.0017-.0016.0036-.0036.0058-.0058l.8977-.8958.0096-.0096c.2066-.2042.6964-.6254 1.3883-.6254l.0082.0001c.6763.0031 1.1483.4011 1.3714.6395l2.5188 2.5136c.6129.6091.5244 1.4266.4547 1.7876-.0424.2197-.1046.41-.1538.5422-.0252.0675-.0484.1234-.0663.1647-.009.0207-.0168.038-.023.0514-.0031.0067-.0057.0124-.008.0172-.0011.0023-.0021.0045-.003.0064-.0005.0009-.0009.0018-.0013.0026-.05.1038-.1182.199-.2003.2797 0 0 0 0-.0001 0 0 .0001 0 .0001-.0001.0002s-.0003.0003-.0005.0005c-.0006.0005-.0013.0013-.0024.0023-.0021.0021-.0053.0052-.0095.0093-.0083.0082-.0207.0204-.0366.0361-.0318.0313-.0776.0766-.1336.132-.112.1108-.264.2618-.4245.4229-.3313.3323-.6538.6628-.7692.7968l-.0053.0062c-.0091.0107-.0183.0211-.0278.0313l-.0041.0044c-.6599.7042-1.4731 1.0429-2.4516 1.0429-.0616 0-.1676.0004-.2744-.0066-1.5484-.0988-2.9469-.6924-3.9164-1.1541l-.0228-.0108c-.0014-.0007-.0028-.0014-.0043-.0021-1.7459-.8435-3.71354-2.4405-5.07232-3.6241l-.03199-.0279-.00486-.0042c-.06096-.0539-.1138-.1136-.15841-.1775l-4.17582 4.1758-.00459.0046c-.39088.386-1.02063.3844-1.40963-.0046-.39052-.3905-.39052-1.0237 0-1.4142l17.40002-17.39998zm-10.42221 13.25053c.02769.0194.05466.0403.0808.0628l.00489.0042.03198.0279c1.35674 1.1816 3.14554 2.6139 4.62594 3.3295.9215.4398 2.0351.8952 3.1889.9719l.0163.0011c.0297.0019.069.0023.1443.0023.443 0 .718-.1233.9793-.3968.1819-.2096.5593-.5929.8622-.8968.1646-.1651.32-.3195.4341-.4324.0132-.0131.0258-.0256.0379-.0375.0168-.051.0328-.108.0438-.1649.0057-.0293.0093-.0552.0114-.0773l-2.4122-2.4073-.8714.8696c-.0956.0954-.5882.6075-1.4025.6075-.3259 0-.6243-.082-.8999-.2195-.0333-.0166-.0601-.032-.077-.042-.0084-.005-.0163-.0098-.0223-.0135-.0121-.0068-.024-.0138-.0357-.0211-.0808-.05-.1839-.1029-.3411-.1815l-.0322-.0161c-.177-.0883-.4137-.2055-.6506-.3553-.5411-.3415-1.6731-1.1269-2.2155-1.5715l-.0127-.0104-.0049-.0042c-.0968-.0808-.1745-.176-.2325-.28z" fill-rule="evenodd"/><path d="m6.03529 2.03003.00807.00002c.67932.0031 1.15131.39805 1.362.60715l.00495.00492.00202.00202c.29387.2747.56998.55537.84721.84109l.02547.02619c.05963.0612.1207.12311.18471.18799.07051.07148.14457.14653.21909.22317l1.24491 1.24238.00791.00792c.33477.33648.64977.80685.64977 1.4083 0 .60144-.315 1.07183-.64977 1.40831l-.00791.00793c-.11225.11202-.25829.26211-.39531.39464-.08552.0874-.14261.14613-.17293.17701-.02619.02665-.07389.07593-.13371.12492-.01284.01051-.02367.01895-.02888.023-.00842.00654-.0052.004-.00907.00702-.00096.00075-.00444.00345-.01319.01072-.01879.01561-.0594.05021-.14145.12338-.00094.00094-.00187.00189-.00281.00283.00175.00612.00376.01288.00609.02041.18186.43343.4141.85969.72955 1.32745.30879.4579.18796 1.0794-.26992 1.3882s-1.07941.1879-1.38821-.2699c-.38518-.5712-.6865-1.1204-.92703-1.69916l-.00567-.01368c-.00834-.02017-.01602-.0406-.02303-.06127l-.00139-.00413-.01374-.04114c-.00084-.00251-.00166-.00503-.00248-.00755l-.00243-.00757c-.05595-.17679-.14439-.49868-.09947-.88594.04622-.39854.22276-.78351.5454-1.12097.04837-.05502.08906-.08968.10533-.1036.00019-.00016.00038-.00032.00057-.00048.10136-.09064.16628-.14674.21281-.18539.0149-.01238.02775-.02283.03909-.0319.03237-.033.07883-.08087.17698-.18116l.00514-.00522c.00517-.0052.01039-.01034.01566-.01543l.01171-.01129c.12037-.11647.22398-.22412.36962-.36946l.00058-.00058-.00057-.00057-1.25026-1.24771c-.00182-.00181-.00363-.00362-.00543-.00545l-.00538-.00549c-.07019-.07224-.14079-.1438-.21395-.21797-.06774-.06866-.13785-.13972-.20753-.21137l-.01393-.01434-.00018-.00018c-.27312-.2815-.52074-.53262-.77645-.7717l-.01218-.01138c-.00394-.00367-.00785-.00738-.01172-.01111l-1.54007 1.53693c-.21226.21182-.31592.43404-.34187.73311-.05197.6363.0573 1.36291.44378 2.40234l.01024.02743c.50929 1.37328 1.22672 2.68318 2.24393 4.06178l.00382.0052c.32334.4441.2279 1.0666-.21477 1.3932-.4444.3279-1.07048.2335-1.39839-.2109l-.01305-.0177c-1.10351-1.4985-1.91057-2.9612-2.48991-4.51777l-.00683-.01838c-.4568-1.2213-.65659-2.26036-.57197-3.2906l.00029-.00348.00078-.00902c.06753-.76566.37577-1.42657.92119-1.97087l1.56167-1.55848.00561-.00555c.00563-.00553.01132-.011.01708-.01639l.00797-.00744c.33842-.31449.80614-.58729 1.37184-.58729z"/></g></svg>