<svg fill="none" height="24" viewBox="0 0 24 24" width="24" xmlns="http://www.w3.org/2000/svg"><g fill="currentColor"><path clip-rule="evenodd" d="m5.7233 12.2838c2.52477-.8799 5.1851-1.2082 7.8978-.9758l.0319.0028.0048.0004c2.2343.2057 4.0834.6601 5.8011 1.4483 1.0526.4796 1.84 1.01 2.4439 1.7189l.0071.0084.0023.0026c.455.5403.6866 1.1711.6877 1.8781v.0084l-.002 1.9467c0 .0105-.0002.021-.0005.0315-.0139.4265-.1395.9237-.5198 1.3068l-.0045.0045c-.4596.4596-1.0427.5094-1.3164.5104l-.0064.0001c-.0002 0-.0003 0-.0005 0-.3571.012-.7063.0091-1.0572.0038-.0853-.0013-.1719-.0019-.2639-.0025-.0881-.0006-.1811-.0012-.2755-.0026l-1.5513.0016c-.4367.0005-.968-.0984-1.3773-.5077-.4092-.4092-.5081-.9405-.5077-1.3773v-.027c-.0001-.1337-.0022-.308.0004-.4661-.0011-.1062-.0022-.179-.0025-.2169-.0003-.032-.0014-.0988.0061-.174.0016-.0161.0032-.0293.004-.0354.0012-.0101.0007-.0055.0012-.0098.0001-.0006.0002-.0012.0003-.0024.0001-.0013.0004-.0041.0009-.009.0012-.0132.0032-.0381.0061-.0825-.555-.2196-1.1791-.3677-2.0411-.471-.0048-.0004-.0097-.0008-.0145-.0012l-.0064-.0007c-1.6602-.1708-3.1317-.0976-4.50222.2103l-.01612.0036-.00122.0003c-.12577.0283-.25061.0684-.41207.1223l-.03279.0109c-.11106.0371-.25175.0847-.39707.1247l-.00105 1.0356c-.00027.2577-.03746.8784-.51049 1.3514-.45712.4571-1.04111.5059-1.34483.4962l-3.13782.0032c-.82505.0025-1.31063-.6085-1.49651-.8833-.11532-.1706-.19835-.3342-.25185-.4513-.02739-.06-.04865-.1113-.06387-.1499-.00764-.0194-.01385-.0358-.01863-.0487-.00239-.0065-.00444-.0121-.00613-.0169-.00084-.0023-.0016-.0045-.00228-.0064-.00033-.0009-.00065-.0018-.00094-.0027-.00015-.0004-.00029-.0008-.00043-.0012-.00007-.0002-.00017-.0005-.0002-.0006-.0001-.0002-.00014-.0005.94445-.3286l-.94464.3281c-.03764-.1084-.05635-.2224-.05532-.3371v-.0002c0-.0001 0-.0004 0-.0007.00001-.0006.00002-.0016.00003-.0029.00002-.0025.00006-.0065.0001-.0116.00008-.0103.0002-.0256.00035-.0453.00029-.0393.00066-.096.00102-.1654.00071-.1389.00135-.3277.00102-.5279-.00067-.4159-.0057-.8181-.01692-.9681l-.00054-.007c-.00112-.0139-.00195-.0278-.00248-.0417l-.00022-.006c-.02873-.885.28084-1.6348.91333-2.2673l.01575-.0157c.03951-.0395.10005-.0995.16503-.1565 1.05358-.9271 2.32595-1.436 3.22299-1.7534zm.73719 7.1141-.00025-.2474zm7.01651-6.0949c-2.4464-.2132-4.83233.0809-7.09349.8687-.84656.2996-1.80759.7043-2.55761 1.3608l-.01083.0095c-.01426.0125-.03288.0305-.06914.0666l-.01665.0166c-.25388.2539-.33539.4714-.32909.7701.01749.2507.0211.7275.0217 1.1025.00034.2062-.00031.3997-.00104.5415-.00004.0061-.00007.0122-.00011.0181.01657.0312.0352.063.05521.0926.00081.0012.00162.0024.00242.0036l2.83064-.0029.00099-.9688c.00013-.1221-.01373-.793.53045-1.3372l.00511-.0051c.21669-.2149.46863-.3574.73916-.4478l.00645-.0021c.03193-.0105.05875-.0177.07597-.0221.00811-.0021.01586-.004.02211-.0055.01258-.0034.02523-.0067.03794-.0097.08074-.0189.1802-.0513.34578-.1067l.03165-.0105c.1591-.0532.36847-.1224.59684-.1744l.01163-.0027c1.60821-.3635 3.29621-.4418 5.13401-.2553.0165.0011.0329.0026.0494.0045 1.0372.1222 1.8756.3132 2.6729.6415l.0188.0078.0041.0017c.0201.0084.0399.0175.0595.0273l.0342.0171.0071.0035c.0023.0012.0047.0025.0071.0037l.0071.0037c.1517.0792.4203.2337.6457.5183.2361.2981.3741.6726.3844 1.1076.0044.0711.0004.123-.0013.1441-.0067.1197-.0123.1964-.0173.2513-.0014.0147-.0027.0277-.004.0393.0004.0405.0013.0986.0026.2164v.0073c0 .0073 0 .0147-.0001.022-.0023.1191-.0011.2249-.0006.3562l1.4417-.0015.0077.0001h.0076l.0332.0005c.0773.001.1549.0015.2354.002.0794.0006.1618.0011.2445.0022l.0355.0005h.0002l.0654.001c.2881.004.5513.0054.8101-.0014l.0019-1.8057v-.0055c-.0008-.2339-.0651-.409-.2163-.5891-.3498-.412-.855-.7881-1.7348-1.1909l-.0209-.0096c-.0009-.0004-.0018-.0008-.0027-.0012-1.4714-.6753-3.0913-1.0849-5.1482-1.2745z" fill-rule="evenodd"/><path d="m11.7964 7.11832c1.2803.00173 2.5023.38924 3.541 1.11917l.0123.00864.0052.00374c.4467.31975.552.94064.2346 1.38998-.3173.44935-.9377.55765-1.3884.24358l-.0053-.00372-.0083-.00582c-.7013-.4929-1.5226-.7544-2.3939-.75556l-.0103-.00001c-.8811.0009-1.7113.26486-2.41285.76498l-.00528.00373c-.4493.31607-1.07013.21047-1.38948-.23749-.3206-.4497-.21595-1.07416.23375-1.39476l.01227-.00872c1.04405-.74049 2.27639-1.12643 3.55959-1.12774z"/><path d="m11.7818 3.81006c2.1351-.00218 4.1786.64431 5.9043 1.86882.4504.3196.5565.94382.2369 1.39423s-.9439.55646-1.3943.23685c-1.3831-.98146-3.0203-1.5015-4.744-1.4999-1.7232.00445-3.36533.52602-4.75062 1.51041-.4502.31991-1.0745.21428-1.39441-.23591-.3199-.4502-.21428-1.07449.23592-1.3944 1.72807-1.22797 3.77475-1.87476 5.90471-1.88009z"/></g></svg>