<svg fill="none" height="24" viewBox="0 0 24 24" width="24" xmlns="http://www.w3.org/2000/svg"><path d="m4.74701 1.98779c.69294.00317 1.17368.40932 1.38606.62127l.00238.00237c.30191.28219.58567.57062.87092.86462l.0131.01348c.06559.06744.13274.13552.20327.20702.0726.07359.14876.15077.22537.22957l1.28084 1.27822.00808.00809c.34162.34338.66008.8204.66008 1.42849 0 .60808-.31846 1.08511-.66008 1.42849l-.00808.00808c-.11604.1158-.26579.26974-.40661.40592-.08827.09021-.1469.15054-.17815.18236-.0271.02759-.07512.07715-.13526.1264-.01291.01058-.02383.01908-.02914.02321-.00851.00661-.00538.00415-.00938.00727-.00121.00095-.005.0039-.01424.01157-.01974.0164-.06196.05238-.14692.12816-.00007.00007-.00014.00014-.0002.0002l-.00356.00357c-.00428.00427-.00805.0082-.01137.01178.00267.01032.0063.02312.01124.03903.28569.68129.69331 1.34914 1.34975 2.18394.00518.0061.0103.0122.01534.0184l.01457.0179c1.23298 1.5125 2.51498 2.6725 3.91048 3.5559l.0175.0111c.1437.091.2968.1683.4912.2652l.0616.0308c.1404.0701.3064.1545.4599.2478.0032.0018.0062.0035.0091.0052.005-.0047.0114-.0109.022-.0216l.9235-.9215.0048-.0049c.2082-.2068.7073-.6399 1.413-.6399h.0082c.6846.0032 1.1633.4065 1.3903.6491l2.5905 2.5852c.6208.6159.5323 1.4444.4609 1.8141-.0433.2241-.1067.4183-.157.5532-.0257.0689-.0494.126-.0676.1681-.0092.0211-.0171.0386-.0234.0522-.0031.0068-.0058.0127-.0081.0175-.0508.1073-.12.2056-.2047.2888s-.0001.0001-.0001.0002c-.0002.0001-.0004.0003-.0006.0005-.0005.0005-.0014.0013-.0024.0024-.0022.0021-.0055.0053-.0098.0096-.0086.0084-.0213.021-.0377.0371-.0327.0322-.0799.0788-.1375.1358-.1152.1141-.2717.2695-.4368.4352-.3405.3415-.6732.6824-.7928.8213l-.0055.0065c-.0103.0121-.021.024-.0319.0357-.6732.7183-1.502 1.0637-2.5011 1.0637-.0636 0-.1716.0004-.2804-.0067-1.5872-.1013-3.0217-.7099-4.0183-1.1845l-.0235-.0112-.0042-.002c-2.79094-1.3483-5.24036-3.2611-7.27279-5.6783l-.01192-.0142-.00305-.0037c-1.6628-2-2.80181-3.8829-3.56023-5.92747-.469369-1.25454-.673811-2.31945-.587189-3.37408l.000292-.00348.000799-.00919c.06888-.78094.383038-1.45453.939318-2.00968l1.60653-1.60324.0028-.00278c.00654-.00648.01317-.01287.01989-.01916l.00812-.00758c.34481-.32044.81932-.59646 1.39168-.59646zm-.01928 2.04434c-.00386.00335-.00786.0069-.01199.01064l-1.59314 1.58989c-.22324.22279-.33282.4578-.36005.77237-.05408.66266.0607 1.41779.46298 2.49615l.00579.01551c.66414 1.79081 1.67282 3.48021 3.22176 5.34361 1.85597 2.2105 4.08422 3.9498 6.61962 5.175.9487.4527 2.0985.9234 3.2913 1.0027l.0167.001c.0317.0021.0731.0025.1503.0025.4635 0 .7541-.13 1.0287-.4175.186-.2145.5738-.6084.8861-.9216.1693-.1699.3291-.3286.4464-.4448.0154-.0152.03-.0297.0439-.0434.0184-.055.0361-.1173.0481-.1797.0078-.0399.0116-.0718.0133-.096l-2.5112-2.506-.9167.9148c-.0978.0976-.5973.6166-1.4225.6166-.3276 0-.6281-.0818-.9063-.2195l-.0066-.0033c-.0335-.0167-.0604-.0322-.0774-.0422-.0087-.0052-.0168-.0102-.023-.014-.0106-.0059-.021-.012-.0314-.0183l-.0048-.0031c-.0844-.0522-.1916-.1071-.3533-.188l-.033-.0165c-.1823-.0909-.4245-.2109-.6667-.3641-1.6095-1.0157-3.05344-2.331-4.40609-3.9895-.01152-.0131-.0227-.0265-.03352-.0403-.75105-.9516-1.27683-1.7901-1.65634-2.70421l-.00446-.01076c-.0089-.02152-.01705-.04334-.02442-.06542-.00235-.00704-.00471-.01409-.00706-.02114l-.00708-.02117c-.00125-.00377-.00249-.00755-.00371-.01134l-.0012-.00378c-.05713-.18053-.14669-.50705-.10118-.89942.04681-.40361.22562-.79407.55371-1.13705.04859-.05532.08949-.09017.10587-.10418.00029-.00024.00057-.00048.00086-.00073.10425-.09323.17079-.15073.21831-.19019.01579-.01312.0293-.02409.04117-.03357.03334-.03398.08125-.08336.18328-.18761l.00515-.00522c.00516-.0052.01038-.01034.01565-.01542.12925-.12454.23848-.23821.39264-.39206l.0033-.0033c.00606-.00609.01177-.01196.01717-.01762-.0054-.00565-.01111-.01152-.01717-.01761l-.0033-.0033-1.28616-1.28354c-.00272-.00272-.00543-.00545-.00812-.0082l-.00268-.00275c-.0723-.0744-.145-.14809-.22026-.22438-.06969-.07064-.14174-.14368-.21334-.21729l-.01431-.01473c-.00006-.00006-.00012-.00013-.00018-.00019-.28102-.28964-.53615-.54839-.79975-.79485l-.01256-.01173c-.00723-.00674-.01436-.01358-.02138-.02053l-.00301-.00299c-.00223-.00223-.00447-.00447-.0067-.00669zm11.40817-2.18338c.3907-.38616 1.0205-.38496 1.4097.00384.3907.39032.391 1.02349.0007 1.41421l-1.7323 1.73405h6.4307l.0065.00003c.5493.00348.9935.44985.9935.99997 0 .55229-.4477 1-1 1.00001h-6.4289l2.1847 2.18475.0046.00459c.386.39088.3844 1.0206-.0046 1.4096s-1.0187.3905-1.4096.0046l-.0046-.0046-3.8918-3.89184c-.3904-.39038-.3906-1.02327-.0004-1.41385l3.4373-3.4408z" fill="currentColor"/></svg>