<svg fill="none" height="24" viewBox="0 0 24 24" width="24" xmlns="http://www.w3.org/2000/svg"><path clip-rule="evenodd" d="m5.25266 6.66706c-1.16012 1.46578-1.85276 3.3185-1.85276 5.33304 0 2.0145.69265 3.8672 1.85279 5.333l5.33301-5.333zm1.41421-1.41423 4.33303 4.33305.0001-6.12834c-1.62584.18825-3.11345.82993-4.33313 1.79529zm6.33313-1.79528-.0001 8.54255c0 .2652-.1054.5196-.2929.7071l-6.0401 6.0401c1.46578 1.1601 3.3185 1.8528 5.333 1.8528 4.7496 0 8.6-3.8504 8.6-8.6 0-4.41143-3.3214-8.04707-7.5999-8.54255zm-11.6001 8.54255c0-5.85428 4.74582-10.60011 10.6001-10.60008 5.8542.00004 10.5999 4.74584 10.5999 10.60008 0 5.8542-4.7458 10.6-10.6 10.6-5.85422 0-10.6-4.7458-10.6-10.6z" fill="currentColor" fill-rule="evenodd"/></svg>