<svg fill="none" height="24" viewBox="0 0 24 24" width="24" xmlns="http://www.w3.org/2000/svg"><path clip-rule="evenodd" d="m6.28602 2.19354c.81985-.36913 1.74479-.17608 2.48409.2755l.02949.01802 10.7105 7.60504c.7528.4308 1.4885 1.1113 1.4899 2.0967.0013.9779-.7278 1.6909-1.4806 2.1667l-10.62681 7.167-.04554.0243c-.76909.4104-1.71392.6611-2.55775.2265-.86958-.4478-1.18587-1.3862-1.2419-2.2937l-.00181-.0292-.04503-14.97929c-.01813-.99341.4036-1.88052 1.28546-2.27757zm.77601 1.87208c-.02355.04346-.06634.15487-.06172.37304l.00019.00907.0449 14.93597c.03073.4376.13219.5783.16295.6109.03866.0076.2273.0302.65429-.1898l10.56506-7.1254.0139-.0087c.2792-.1753.433-.3221.5092-.4213.0164-.0213.0278-.0386.0357-.0519-.0051-.0072-.0115-.0157-.0195-.0255-.066-.0811-.2085-.2095-.4805-.3611l-.0477-.0266-10.73761-7.62428c-.35611-.20912-.561-.15769-.59408-.1428-.01084.00488-.02535.01199-.04508.0484z" fill="currentColor" fill-rule="evenodd"/></svg>