<svg fill="none" height="24" viewBox="0 0 24 24" width="24" xmlns="http://www.w3.org/2000/svg"><path clip-rule="evenodd" d="m12.6063 3.88054c-.1311-.30592-.5628-.31131-.7015-.00875l-7.30248 15.93181c-.14798.3229.18429.6562.50761.5092l6.77227-3.0782c.2711-.1233.5831-.1193.851.011l6.1479 2.989c.3196.1553.6605-.1696.5205-.4963zm-2.5196-.8421c.8615-1.87951 3.5436-1.84607 4.358.05435l6.7952 15.85781c.8695 2.029-1.248 4.0478-3.2333 3.0827l-5.725-2.7834-6.34406 2.8837c-2.00852.9129-4.07263-1.1577-3.15333-3.1633z" fill="currentColor" fill-rule="evenodd"/></svg>