<svg fill="none" height="24" viewBox="0 0 24 24" width="24" xmlns="http://www.w3.org/2000/svg"><path clip-rule="evenodd" d="m20.569 4.13507c.1237-.30901-.1778-.61812-.4898-.50224l-16.42918 6.10187c-.33293.12366-.33367.5943-.00113.719l6.96541 2.612c.2789.1046.4966.3281.5939.6096l2.2337 6.4608c.1161.3358.587.347.719.0171zm-1.1862-2.3771c1.9382-.71985 3.8111 1.20034 3.0432 3.11998l-6.4082 16.01815c-.8199 2.0495-3.7448 1.9797-4.4661-.1065l-2.08002-6.0163-6.52504-2.4469c-2.065794-.7747-2.061183-3.69841.00705-4.46656z" fill="currentColor" fill-rule="evenodd"/></svg>