<svg fill="none" height="24" viewBox="0 0 24 24" width="24" xmlns="http://www.w3.org/2000/svg"><path clip-rule="evenodd" d="m12 3c.5523 0 1 .44772 1 1v7.5c0 .5523-.4477 1-1 1s-1-.4477-1-1v-7.5c0-.55228.4477-1 1-1zm-4.54191 2.33827c.36547.41407.32606 1.046-.08801 1.41147-1.45489 1.28412-2.37008 3.15969-2.37008 5.25026 0 3.866 3.13401 7 7 7 3.866 0 7-3.134 7-7 0-2.09057-.9152-3.96614-2.3701-5.25026-.4141-.36547-.4535-.9974-.088-1.41147s.9974-.45347 1.4115-.08801c1.8668 1.64766 3.0466 4.06154 3.0466 6.74974 0 4.9706-4.0294 9-9 9-4.97056 0-9-4.0294-9-9 0-2.6882 1.17983-5.10208 3.04662-6.74974.41407-.36546 1.04601-.32606 1.41147.08801z" fill="currentColor" fill-rule="evenodd"/></svg>