<svg fill="none" height="24" viewBox="0 0 24 24" width="24" xmlns="http://www.w3.org/2000/svg"><path clip-rule="evenodd" d="m4.7999 4c-.7732 0-1.4.6268-1.4 1.4v8.4c0 .7732.6268 1.4 1.4 1.4h4.77693c.01544-.0004.03093-.0004.04644 0h9.57663c.7732 0 1.4-.6268 1.4-1.4v-8.4c0-.7732-.6268-1.4-1.4-1.4zm3.357 13.2-1.29333 3.4489c-.19392.5171.06809 1.0935.58521 1.2874.51712.194 1.09353-.0681 1.28745-.5852l1.55667-4.1511h3.5052l1.885 4.1471c.2286.5028.8214.7251 1.3242.4966s.7251-.8214.4966-1.3242l-1.5089-3.3195h3.2049c1.8778 0 3.4-1.5222 3.4-3.4v-8.4c0-1.87777-1.5222-3.4-3.4-3.4h-14.4c-1.87777 0-3.4 1.52223-3.4 3.4v8.4c0 1.8778 1.52223 3.4 3.4 3.4zm3.7887-11.6c.5523 0 1 .44772 1 1v3.5939l.7489-.74527c.3914-.38959 1.0246-.38808 1.4142.00338.3896.39145.3881 1.02459-.0034 1.41419l-2.4543 2.4426c-.3899.3881-1.0202.3883-1.4104.0004l-2.34575-2.3322c-.39166-.3894-.39349-1.02256-.0041-1.41422.38939-.39165 1.02255-.39349 1.41425-.0041l.6406.63702v-3.5957c0-.55228.4477-1 1-1z" fill="currentColor" fill-rule="evenodd"/></svg>