<svg fill="none" height="24" viewBox="0 0 24 24" width="24" xmlns="http://www.w3.org/2000/svg"><path clip-rule="evenodd" d="m9.12766 7c-2.83193 0-5.12766 2.29573-5.12766 5.1277 0 .0584.00169.1204.00507.1854.74363-.9545 1.90397-1.5684 3.2077-1.5684 2.24439 0 4.06383 1.8194 4.06383 4.0638s-1.81944 4.0638-4.06383 4.0638c-.78706 0-1.52186-.2237-2.14427-.6111-.0839-.0198-.1666-.0509-.24606-.0938-1.05163-.5683-1.73609-1.7722-2.14893-2.8272-.42933-1.0973-.67351-2.3153-.67351-3.2125 0-3.93654 3.19116-7.1277 7.12766-7.1277.55228 0 1.00004.44772 1.00004 1s-.44776 1-1.00004 1zm10.72344 0c-2.832 0-5.1277 2.29573-5.1277 5.1277 0 .0584.0017.1204.0051.1854.7436-.9545 1.9039-1.5684 3.2077-1.5684 2.2444 0 4.0638 1.8194 4.0638 4.0638s-1.8194 4.0638-4.0638 4.0638c-.7871 0-1.5219-.2237-2.1443-.6111-.0839-.0198-.1666-.0509-.2461-.0938-1.0516-.5683-1.7361-1.7722-2.1489-2.8272-.4293-1.0973-.6735-2.3153-.6735-3.2125 0-3.93654 3.1912-7.1277 7.1277-7.1277.5522 0 1 .44772 1 1s-.4478 1-1 1zm-12.63833 5.7447c-1.13983 0-2.06383.924-2.06383 2.0638s.924 2.0638 2.06383 2.0638c1.13982 0 2.06383-.924 2.06383-2.0638s-.92401-2.0638-2.06383-2.0638zm10.72343 0c-1.1399 0-2.0639.924-2.0639 2.0638s.924 2.0638 2.0639 2.0638c1.1398 0 2.0638-.924 2.0638-2.0638s-.924-2.0638-2.0638-2.0638z" fill="currentColor" fill-rule="evenodd"/></svg>