<svg fill="none" height="24" viewBox="0 0 24 24" width="24" xmlns="http://www.w3.org/2000/svg"><path clip-rule="evenodd" d="m3.19995 4.8c0-1.40726 1.0166-2.8 2.56-2.8h12.48005c1.5434 0 2.5599 1.39274 2.5599 2.8v16.2c0 .3719-.2064.7132-.5358.8858-.3295.1726-.7276.1481-1.0334-.0636l-2.0307-1.4059-2.0308 1.4059c-.3425.2371-.796.2371-1.1385 0l-2.0307-1.4059-2.03084 1.4059c-.34244.2371-.79597.2371-1.13842 0l-2.03079-1.4059-2.03079 1.4059c-.30581.2117-.70385.2362-1.03332.0636-.32946-.1726-.53589-.5139-.53589-.8858zm2.56-.8c-.17973 0-.56.21904-.56.8v14.2914l1.03079-.7136c.34245-.2371.79598-.2371 1.13842 0l2.03079 1.4059 2.03075-1.4059c.3425-.2371.796-.2371 1.1385 0l2.0308 1.4059 2.0307-1.4059c.3425-.2371.796-.2371 1.1385 0l1.0308.7136v-14.2914c0-.58096-.3803-.8-.56-.8z" fill="currentColor" fill-rule="evenodd"/></svg>