<svg fill="none" height="24" viewBox="0 0 24 24" width="24" xmlns="http://www.w3.org/2000/svg"><path clip-rule="evenodd" d="m9.49279 1.69292c.39053-.39053 1.02371-.39053 1.41421 0l2.4 2.4c.3905.39052.3905 1.02369 0 1.41421l-2.4 2.4c-.3905.39053-1.02368.39053-1.41421 0-.39052-.39052-.39052-1.02369 0-1.41421l.69291-.6929h-4.1858c-1.43594 0-2.6 1.16406-2.6 2.60001v7.20007c0 1.436 1.16406 2.6 2.6 2.6.55229 0 1 .4477 1 1s-.44771 1-1 1c-2.54051 0-4.6-2.0595-4.6-4.6v-7.20008c.00001-2.54051 2.05949-4.6 4.6-4.6h4.1858l-.69291-.69289c-.39052-.39052-.39052-1.02369 0-1.41421zm6.70711 2.1071h1.8c2.5405 0 4.6 2.0595 4.6 4.60001v7.20007c0 2.5405-2.0595 4.6-4.6 4.6h-5.3857l.6928.6928c.3905.3905.3905 1.0237 0 1.4142s-1.0237.3906-1.4142 0l-2.39999-2.3998c-.18754-.1876-.2929-.4419-.29291-.7071 0-.2653.10535-.5196.29288-.7072l2.40002-2.4001c.3905-.3905 1.0237-.3905 1.4142 0s.3905 1.0237 0 1.4142l-.693.693h5.3859c1.4359 0 2.6-1.164 2.6-2.6v-7.20007c0-1.43595-1.1641-2.60001-2.6-2.60001h-1.8c-.5523 0-1-.44771-1-1 0-.55228.4477-1 1-1z" fill="currentColor" fill-rule="evenodd"/></svg>