<svg fill="none" height="24" viewBox="0 0 24 24" width="24" xmlns="http://www.w3.org/2000/svg"><path clip-rule="evenodd" d="m3 4c0-.55228.44772-1 1-1 9.3888 0 17 7.6112 17 17 0 .5523-.4477 1-1 1s-1-.4477-1-1c0-8.2843-6.7157-15-15-15-.55228 0-1-.44772-1-1zm0 8c0-.5523.44772-1 1-1 4.97056 0 9 4.0294 9 9 0 .5523-.4477 1-1 1s-1-.4477-1-1c0-3.866-3.13401-7-7-7-.55228 0-1-.4477-1-1zm0 8c0-.5523.44772-1 1-1h.04688c.55228 0 1 .4477 1 1s-.44772 1-1 1h-.04688c-.55228 0-1-.4477-1-1z" fill="currentColor" fill-rule="evenodd"/></svg>