<svg fill="none" height="24" viewBox="0 0 24 24" width="24" xmlns="http://www.w3.org/2000/svg"><path clip-rule="evenodd" d="m16.8106 3.48863c-.1181-.11814-.3097-.11814-.4278 0l-12.89429 12.89427c-.11814.1182-.11814.3097 0 .4279l3.70066 3.7006c.11814.1182.30969.1182.42783 0l1.73073-1.7307c-.03454-.0265-.06774-.0556-.09935-.0872l-1.84204-1.842c-.39053-.3905-.39053-1.0237 0-1.4142.39052-.3906 1.02369-.3906 1.41421 0l1.84205 1.842c.0316.0316.0607.0648.0872.0994l1.361-1.3611c-.0345-.0265-.0677-.0555-.0994-.0871l-1.842-1.8421c-.39052-.3905-.39052-1.0237 0-1.4142.3905-.3905 1.0237-.3905 1.4142 0l1.8421 1.8421c.0316.0316.0606.0648.0871.0993l1.3611-1.361c-.0346-.0265-.0678-.0556-.0994-.0872l-1.842-1.842c-.3906-.3906-.3906-1.0237 0-1.41425.3905-.39053 1.0237-.39053 1.4142 0l1.842 1.84205c.0316.0316.0607.0648.0872.0993l1.361-1.361c-.0345-.0265-.0677-.0555-.0993-.0872l-1.8421-1.842c-.3905-.39052-.3905-1.02369 0-1.41421.3905-.39053 1.0237-.39053 1.4142 0l1.8421 1.84204c.0316.03161.0606.06481.0871.09935l1.4724-1.47236c.1181-.11814.1181-.30968 0-.42782zm-1.842-1.41421c.8992-.89919 2.3571-.89919 3.2562 0l3.7007 3.70066c.8992.89919.8992 2.35707 0 3.25626l-12.89429 12.89426c-.89919.8992-2.35706.8992-3.25625 0l-3.70067-3.7006c-.89919-.8992-.89918-2.3571 0-3.2563z" fill="currentColor" fill-rule="evenodd"/></svg>