<svg fill="none" height="24" viewBox="0 0 24 24" width="24" xmlns="http://www.w3.org/2000/svg"><path clip-rule="evenodd" d="m6.93715 2h-2.00858c-1.61742 0-2.92857 1.31115-2.92857 2.92857v14.14283c0 1.6174 1.31115 2.9286 2.92857 2.9286h14.14283c1.6174 0 2.9286-1.3112 2.9286-2.9286v-10.77257c0-.77671-.3085-1.5216-.8578-2.07081l-3.3702-3.37025c-.5492-.54922-1.2941-.85777-2.0708-.85777h-8.7637c-.00012 0-.00023 0-.00035 0zm-.99965 2v2.375c0 1.1736.95139 2.125 2.125 2.125h7.875c1.1736 0 2.125-.9514 2.125-2.125v-.39829l1.6655 1.66553.7071-.70711-.7071.70711c.1742.17414.272.41032.272.6566v10.77256c0 .5129-.4157.9286-.9286.9286h-1.0089v-5.1875c0-1.1736-.9514-2.125-2.125-2.125h-7.875c-1.1736 0-2.125.9514-2.125 2.125v5.0625c0 .0423.00263.0841.00774.125h-1.01667c-.51285 0-.92857-.4157-.92857-.9286v-14.14283c0-.51285.41572-.92857.92857-.92857zm1.99226 16h8.13274v-5.1875c0-.069-.056-.125-.125-.125h-7.875c-.06904 0-.125.056-.125.125v5.0625c0 .0423-.00263.0841-.00774.125zm8.13404-15.92626c-.0009.01697-.0013.03407-.0013.05126v2.25c0 .06904-.056.125-.125.125h-7.875c-.06904 0-.125-.05597-.125-.125v-2.375h7.7637c.1258 0 .249.02554.3626.07374z" fill="currentColor" fill-rule="evenodd"/></svg>