<svg fill="none" height="24" viewBox="0 0 24 24" width="24" xmlns="http://www.w3.org/2000/svg"><path clip-rule="evenodd" d="m2 4.92857c0-1.61742 1.31115-2.92857 2.92857-2.92857h10.77263c.7767 0 1.5216.30855 2.0708.85777l3.3702 3.37025c.5493.54921.8578 1.2941.8578 2.07081v10.77257c0 1.6174-1.3112 2.9286-2.9286 2.9286h-14.14283c-1.61742 0-2.92857-1.3112-2.92857-2.9286zm3.9375-.92857v2.375c0 1.1736.95139 2.125 2.125 2.125h6.75c.5523 0 1-.44772 1-1s-.4477-1-1-1h-6.75c-.06904 0-.125-.05597-.125-.125v-2.375h7.7637c.2462 0 .4824.09783.6566.27197l3.3702 3.37027c.1742.17413.272.41032.272.6566v10.77256c0 .5129-.4157.9286-.9286.9286h-1.0089v-5.1875c0-1.1736-.9514-2.125-2.125-2.125h-7.875c-1.1736 0-2.125.9514-2.125 2.125v5.0625c0 .0423.00263.0841.00774.125h-1.01667c-.51285 0-.92857-.4157-.92857-.9286v-14.14283c0-.51285.41572-.92857.92857-.92857zm1.99226 16h8.13274v-5.1875c0-.069-.056-.125-.125-.125h-7.875c-.06904 0-.125.056-.125.125v5.0625c0 .0423-.00263.0841-.00774.125z" fill="currentColor" fill-rule="evenodd"/></svg>