<svg fill="none" height="24" viewBox="0 0 24 24" width="24" xmlns="http://www.w3.org/2000/svg"><path clip-rule="evenodd" d="m4.53324 3.40002c-.62593 0-1.13334.50741-1.13334 1.13334v7.66664h5c1.8778 0 3.4 1.5223 3.4 3.4v5h7.6667c.6259 0 1.1333-.5074 1.1333-1.1333v-14.93334c0-.62592-.5074-1.13333-1.1333-1.13333zm14.93336 19.19998c1.7305 0 3.1333-1.4028 3.1333-3.1333v-14.93334c0-1.73049-1.4028-3.13333-3.1333-3.13333l-14.93336-.00001c-1.7305 0-3.13334 1.40285-3.13334 3.13334v8.66654 6.2668c0 1.7305 1.40284 3.1333 3.13334 3.1333zm-9.6667-2v-5c0-.7732-.6268-1.4-1.4-1.4h-5v5.2667c0 .6259.50741 1.1333 1.13334 1.1333zm2.7234-14.59998c0-.55228.4477-1 1-1l4.4766.00001c.5523 0 1 .44771 1 1v4.79997c0 .5523-.4477 1-1 1s-1-.4477-1-1v-2.38576l-3.6262 3.62626c-.3905.3905-1.0237.3905-1.4142 0-.3906-.3906-.3906-1.0237 0-1.4143l3.6262-3.62618h-2.0624c-.5523 0-1-.44771-1-1z" fill="currentColor" fill-rule="evenodd"/></svg>