<svg fill="none" height="24" viewBox="0 0 24 24" width="24" xmlns="http://www.w3.org/2000/svg"><path clip-rule="evenodd" d="m1.3999 4.53336c0-1.73049 1.40284-3.13334 3.13334-3.13334h14.93336c1.7305 0 3.1333 1.40285 3.1333 3.13334v14.93334c0 1.7305-1.4028 3.1333-3.1333 3.1333h-14.93336c-1.7305 0-3.13334-1.4028-3.13334-3.1333zm19.2 5.26666v-5.26666c0-.62593-.5074-1.13334-1.1333-1.13334h-5.2667v5c0 .7732.6268 1.4 1.4 1.4zm-8.4-6.4v5c0 1.87778 1.5222 3.39998 3.4 3.39998h5v7.6667c0 .6259-.5074 1.1333-1.1333 1.1333h-14.93336c-.62593 0-1.13334-.5074-1.13334-1.1333v-14.93334c0-.62593.50741-1.13334 1.13334-1.13334zm-.1596 8.55958c.3906.3905.3906 1.0237 0 1.4142l-3.62618 3.6262h2.06238c.5523 0 1 .4477 1 1s-.4477 1-1 1h-4.4766c-.55228 0-1-.4477-1-1v-4.8c0-.5523.44772-1 1-1 .55229 0 1 .4477 1 1v2.3858l3.6262-3.6262c.3906-.3905 1.0237-.3905 1.4142 0z" fill="currentColor" fill-rule="evenodd"/></svg>