<svg fill="none" height="24" viewBox="0 0 24 24" width="24" xmlns="http://www.w3.org/2000/svg"><path clip-rule="evenodd" d="m5.9999 3.40002c-1.43594 0-2.6 1.16406-2.6 2.6s1.16406 2.6 2.6 2.6 2.6-1.16406 2.6-2.6-1.16406-2.6-2.6-2.6zm-4.6 2.6c0-2.54051 2.05949-4.6 4.6-4.6s4.6 2.05949 4.6 4.6c0 .87574-.2447 1.69432-.6695 2.39109l2.8424 2.31849 8.195-6.68449c.428-.34908 1.0579-.28513 1.407.14284.3491.42798.2851 1.0579-.1428 1.40699l-7.8771 6.42506 7.8771 6.4251c.4279.3491.4919.979.1428 1.407s-.979.4919-1.407.1428l-8.195-6.6844-2.8424 2.3184c.4248.6968.6695 1.5154.6695 2.3911 0 2.5405-2.05949 4.6-4.6 4.6s-4.6-2.0595-4.6-4.6 2.05949-4.6 4.6-4.6c.93833 0 1.81103.281 2.53859.7633l2.65221-2.1633-2.65221-2.16329c-.72756.48239-1.60026.76329-2.53859.76329-2.54051 0-4.6-2.05947-4.6-4.59998zm4.6 9.39998c-1.43594 0-2.6 1.1641-2.6 2.6 0 1.436 1.16406 2.6 2.6 2.6s2.6-1.164 2.6-2.6c0-1.4359-1.16406-2.6-2.6-2.6z" fill="currentColor" fill-rule="evenodd"/></svg>