<svg fill="none" height="24" viewBox="0 0 24 24" width="24" xmlns="http://www.w3.org/2000/svg"><path clip-rule="evenodd" d="m11.4401 4.60001c-3.77763 0-6.84 3.06237-6.84 6.83999 0 3.7776 3.06237 6.84 6.84 6.84 1.8626 0 3.5514-.7445 4.7849-1.9522.0016-.0016.0032-.0031.0048-.0047 1.2653-1.2413 2.0503-2.9705 2.0503-4.8831 0-3.77762-3.0624-6.83999-6.84-6.83999zm6.8777 12.39409c1.2273-1.5178 1.9623-3.4501 1.9623-5.5541 0-4.88219-3.9578-8.83999-8.84-8.83999s-8.84 3.9578-8.84 8.83999c0 4.8822 3.9578 8.84 8.84 8.84 2.0574 0 3.9507-.7029 5.4528-1.8816l2.8119 2.7203c.3969.384 1.03.3735 1.414-.0234s.3735-1.03-.0234-1.414zm-7.9177-9.79409c0-.55229.4477-1 1-1 2.5405 0 4.6 2.05949 4.6 4.59999 0 .5523-.4477 1-1 1s-1-.4477-1-1c0-1.43593-1.1641-2.59999-2.6-2.59999-.5523 0-1-.44772-1-1z" fill="currentColor" fill-rule="evenodd"/></svg>