<svg fill="none" height="24" viewBox="0 0 24 24" width="24" xmlns="http://www.w3.org/2000/svg"><path clip-rule="evenodd" d="m11.4401 4.60001c-3.77763 0-6.84 3.06237-6.84 6.83999 0 3.7776 3.06237 6.84 6.84 6.84 1.8626 0 3.5513-.7445 4.7848-1.9521.0016-.0016.0033-.0033.005-.0049 1.2653-1.2413 2.0502-2.9705 2.0502-4.883 0-3.77762-3.0624-6.83999-6.84-6.83999zm6.8777 12.39409c1.2273-1.5178 1.9623-3.4501 1.9623-5.5541 0-4.88219-3.9578-8.83999-8.84-8.83999s-8.84 3.9578-8.84 8.83999c0 4.8822 3.9578 8.84 8.84 8.84 2.0574 0 3.9507-.7029 5.4528-1.8816l2.8119 2.7203c.3969.384 1.03.3735 1.414-.0234s.3735-1.03-.0234-1.414z" fill="currentColor" fill-rule="evenodd"/></svg>