<svg fill="none" height="24" viewBox="0 0 26 24" width="26" xmlns="http://www.w3.org/2000/svg"><path clip-rule="evenodd" d="m8.23491 6.40926c-.77696-1.7759 1.07698-3.55883 2.82119-2.71315l13.2553 6.42679c1.568.7602 1.568 2.9939 0 3.7541l-13.2553 6.4268c-1.7442.8457-3.59815-.9372-2.82119-2.7131l2.43089-5.5562.0079.0034-.0079-.0034c.0096-.022.0096-.047 0-.069zm4.19149 6.59074-2.3592 5.3923c-.0085.0196-.0103.0314-.0107.0363-.0005.0053-.0002.0095.0008.0138.0023.0099.0101.0281.0291.0464s.0375.0254.0475.0273c.0044.0008.0086.001.0138.0003.0049-.0007.0167-.0029.0359-.0122l11.3525-5.5042zm9.1096-2h-9.1096l-2.3592-5.39237c-.0085-.01955-.0103-.03137-.0107-.03631-.0005-.00526-.0002-.00946.0008-.0138.0023-.0099.0101-.02808.0291-.04638.019-.01829.0375-.02539.0475-.02725.0044-.00082.0086-.00101.0138-.00031.0049.00065.0167.00285.0359.01216zm-18.62355-2.87647c0-.55229.44772-1 1-1h2.43431c.55229 0 1 .44771 1 1 0 .55228-.44771 1-1 1h-2.43431c-.55228 0-1-.44772-1-1zm-2.399999 4.02287c0-.5523.447715-1 .999999-1h4.83431c.55229 0 1 .4477 1 1s-.44771 1-1 1h-4.83431c-.552284 0-.999999-.4477-.999999-1zm2.399999 4.0229c0-.5523.44772-1 1-1h2.43431c.55229 0 1 .4477 1 1s-.44771 1-1 1h-2.43431c-.55228 0-1-.4477-1-1z" fill="currentColor" fill-rule="evenodd"/></svg>