<svg fill="none" height="24" viewBox="0 0 24 24" width="24" xmlns="http://www.w3.org/2000/svg"><path clip-rule="evenodd" d="m4.7999 3.40002c-.7732 0-1.4.62681-1.4 1.4v14.39998c0 .7732.6268 1.4 1.4 1.4h14.4c.7732 0 1.4-.6268 1.4-1.4v-14.39998c0-.77319-.6268-1.4-1.4-1.4zm-3.4 1.4c0-1.87776 1.52223-3.4 3.4-3.4h14.4c1.8778 0 3.4 1.52224 3.4 3.4v14.39998c0 1.8778-1.5222 3.4-3.4 3.4h-14.4c-1.87777 0-3.4-1.5222-3.4-3.4zm8.00583 3.43114c-.0021.00361-.00583.01067-.00583.02826v2.57048h1.116c.5523 0 1 .4477 1 1s-.4477 1-1 1h-1.116v2.4117c0 .0194.00418.0263.00595.0292.00344.0056.01092.0142.0236.0213.01268.0072.02384.0091.03046.0092.00341 0 .01146 0 .02808-.0101l6.28391-3.8084c.0168-.0102.0205-.0174.022-.0203.003-.0059.0065-.0169.0059-.0316-.0005-.0148-.0048-.0254-.0082-.031-.0018-.0028-.006-.0097-.0236-.0186l-6.28392-3.17367c-.01571-.00793-.02369-.00778-.02786-.00754-.00683.0004-.01729.0029-.0287.00992s-.01836.01522-.02179.02115zm-2.00583 7.01044c0 1.6038 1.75315 2.5912 3.1247 1.76l6.2839-3.8085c1.3821-.8376 1.3037-2.8684-.1388-3.59699l-6.284-3.17371c-1.36884-.69134-2.9858.3035-2.9858 1.83702z" fill="currentColor" fill-rule="evenodd"/></svg>