<svg fill="none" height="24" viewBox="0 0 24 24" width="24" xmlns="http://www.w3.org/2000/svg"><path clip-rule="evenodd" d="m3.81772 5.347c-.36282.32168-.41782.54465-.41782.65302 0 .10838.055.33134.41782.65303.36167.32065.94206.65509 1.74508.95623 1.59867.5995 3.8743.99074 6.4371.99074s4.8384-.39124 6.4371-.99074c.803-.30114 1.3834-.63558 1.7451-.95623.3628-.32169.4178-.54465.4178-.65303 0-.10837-.055-.33134-.4178-.65302-.3617-.32065-.9421-.6551-1.7451-.95623-1.5987-.5995-3.8743-.99075-6.4371-.99075s-4.83843.39125-6.4371.99075c-.80302.30113-1.38341.63558-1.74508.95623zm16.78218 3.45217c-.4393.25767-.9326.48475-1.4607.68277-1.8758.70346-4.4002 1.11806-7.1393 1.11806-2.73913 0-5.2635-.4146-7.13935-1.11806-.52805-.19802-1.02137-.4251-1.46065-.68277v2.00083c0 .1084.055.3314.41782.653.36167.3207.94206.6551 1.74508.9563 1.59867.5995 3.8743.9907 6.4371.9907s4.8384-.3912 6.4371-.9907c.803-.3012 1.3834-.6356 1.7451-.9563.3628-.3216.4178-.5446.4178-.653zm2-2.79915v4.79998c0 .8858-.4823 1.6099-1.091 2.1496-.6099.5407-1.4354.982-2.3697 1.3323-1.6451.617-3.7891 1.0118-6.1393 1.0995v.5681c1.0736.3298 1.9207 1.177 2.2506 2.2505h6.3494c.5523 0 1 .4477 1 1s-.4477 1-1 1h-6.3494c-.4271 1.3898-1.7209 2.4-3.2506 2.4s-2.82353-1.0102-3.25056-2.4h-6.34944c-.55228 0-1-.4477-1-1s.44772-1 1-1h6.34944c.32988-1.0735 1.177-1.9207 2.25056-2.2505v-.5681c-2.3502-.0877-4.49419-.4825-6.13935-1.0995-.93423-.3503-1.75973-.7916-2.36964-1.3323-.60874-.5397-1.09101-1.2638-1.09101-2.1496v-4.79998c0-.88573.48227-1.60982 1.09101-2.14954.60991-.54074 1.43541-.98203 2.36964-1.33237 1.87585-.70344 4.40022-1.11809 7.13935-1.11809 2.7391 0 5.2635.41465 7.1393 1.11809.9343.35034 1.7598.79163 2.3697 1.33237.6087.53972 1.091 1.26381 1.091 2.14954zm-10.6 11.79998c-.7732 0-1.4.6268-1.4 1.4s.6268 1.4 1.4 1.4 1.4-.6268 1.4-1.4-.6268-1.4-1.4-1.4z" fill="currentColor" fill-rule="evenodd"/></svg>