<svg fill="none" height="24" viewBox="0 0 24 24" width="24" xmlns="http://www.w3.org/2000/svg"><path clip-rule="evenodd" d="m7.1999 3.40002c-2.09873 0-3.80007 1.7014-3.8 3.80013.00007 2.09863 1.70137 3.79985 3.8 3.79985h9.6002c2.0986 0 3.8-1.7013 3.8-3.79998s-1.7014-3.8-3.8-3.8zm12.8569 8.59998c1.535-1.0435 2.5433-2.80398 2.5433-4.79998 0-3.20325-2.5968-5.8-5.8-5.8h-9.6002c-3.20332 0-5.8001 2.59687-5.8 5.80019.00007 1.99592 1.0083 3.75639 2.54322 4.79979-1.53502 1.0436-2.54328 2.8041-2.54322 4.8002.00011 3.2032 2.59682 5.7998 5.8 5.7998h9.6002c3.2032 0 5.8-2.5967 5.8-5.8 0-1.996-1.0083-3.7565-2.5433-4.8zm-12.8569 1c-2.09873 0-3.80007 1.7014-3.8 3.8001s1.70137 3.7999 3.8 3.7999h9.6002c2.0986 0 3.8-1.7013 3.8-3.8s-1.7014-3.8-3.8-3.8zm-.60015-6.89021c.55228 0 1 .44771 1 1v.09023c0 .55229-.44772 1-1 1-.55229 0-1-.44771-1-1v-.09023c0-.55229.44771-1 1-1zm3.79995 1.09023c0-.55228.4478-1 1-1h6c.5523 0 1 .44772 1 1 0 .55229-.4477 1-1 1h-6c-.5522 0-1-.44771-1-1zm-3.79995 8.59998c.55228 0 1 .4477 1 1v.0903c0 .5522-.44772 1-1 1-.55229 0-1-.4478-1-1v-.0903c0-.5523.44771-1 1-1zm3.79995 1c0-.5523.4478-1 1-1h6c.5523 0 1 .4477 1 1s-.4477 1-1 1h-6c-.5522 0-1-.4477-1-1z" fill="currentColor" fill-rule="evenodd"/></svg>