<svg fill="none" height="24" viewBox="0 0 24 24" width="24" xmlns="http://www.w3.org/2000/svg"><path clip-rule="evenodd" d="m11.3486 1.69123c.39-.38813 1.0203-.38829 1.4105-.00036l2.3457 2.33216c.3917.38939.3935 1.02256.0041 1.41421-.3894.39166-1.0225.39349-1.4142.0041l-.6407-.63697v3.59565c0 .55229-.4477 1-1 1s-1-.44771-1-1v-3.59391l-.7488.74528c-.39149.38959-1.02465.38808-1.41425-.00337-.38959-.39146-.38807-1.02462.00338-1.41421zm-4.1487 11.30877c-2.09873 0-3.80007 1.7014-3.8 3.8001s1.70137 3.7999 3.8 3.7999h9.6002c2.0986 0 3.8-1.7013 3.8-3.8s-1.7014-3.8-3.8-3.8zm-5.8 3.8002c-.0001-3.2033 2.59668-5.8002 5.8-5.8002h9.6002c3.2032 0 5.8 2.5968 5.8 5.8 0 3.2033-2.5968 5.8-5.8 5.8h-9.6002c-3.20318 0-5.79989-2.5966-5.8-5.7998zm5.19985-1.0002c.55228 0 1 .4477 1 1v.0903c0 .5522-.44772 1-1 1-.55229 0-1-.4478-1-1v-.0903c0-.5523.44771-1 1-1zm3.79995 1c0-.5523.4478-1 1-1h6c.5523 0 1 .4477 1 1s-.4477 1-1 1h-6c-.5522 0-1-.4477-1-1z" fill="currentColor" fill-rule="evenodd"/></svg>