<svg fill="none" height="24" viewBox="0 0 24 24" width="24" xmlns="http://www.w3.org/2000/svg"><path clip-rule="evenodd" d="m11.3523 1.63816c.3735-.31751.922-.31751 1.2955 0 1.2716 1.08112 2.2434 1.59503 3.1802 1.8592.9617.27121 1.958.30266 3.3721.30266.5522 0 1 .44772 1 1v9.22798c0 1.0413-.1823 1.9442-.5708 2.7563-.387.8092-.9511 1.4701-1.6321 2.0653-.6728.5881-1.4842 1.1324-2.3845 1.6968-.4298.2695-.8468.5237-1.2829.7896-.5473.3337-1.1248.6858-1.7958 1.1095-.3262.206-.7417.206-1.0679 0-.671-.4237-1.2485-.7758-1.79581-1.1095-.43611-.2659-.85306-.5201-1.28291-.7896-.90031-.5644-1.71163-1.1087-2.38453-1.6968-.68094-.5952-1.24501-1.2561-1.63207-2.0653-.38846-.8121-.57073-1.715-.57073-2.7563v-9.22798c0-.55228.44771-1 1-1 1.41409 0 2.41039-.03145 3.37207-.30266.93675-.26417 1.90858-.77808 3.18018-1.8592zm6.8478 4.15339c-1.0114-.02216-1.9616-.1004-2.915-.36927-1.0869-.30653-2.1281-.8442-3.2851-1.7351-1.1569.8909-2.19806 1.42857-3.28503 1.7351-.95338.26887-1.90354.34711-2.91492.36927v8.23645c0 .8.13803 1.398.37494 1.8933.23832.4982.6047.951 1.14406 1.4224.5474.4784 1.24623.9537 2.13069 1.5082.35092.22.76486.4728 1.21126.7455.4256.2599.8808.5379 1.339.8227.4583-.2848.9135-.5628 1.3391-.8227.4464-.2727.8603-.5255 1.2113-.7455.8844-.5545 1.5832-1.0298 2.1307-1.5082.5393-.4714.9057-.9242 1.144-1.4224.2369-.4953.375-1.0933.375-1.8933z" fill="currentColor" fill-rule="evenodd"/></svg>