<svg fill="none" height="24" viewBox="0 0 24 24" width="24" xmlns="http://www.w3.org/2000/svg"><path clip-rule="evenodd" d="m13.1628 3.88698c-.732-.36599-1.5935-.36599-2.3255 0l-5.03725 2.51862v7.41c0 .6925.41813 1.612 1.57796 2.8052 1.04953 1.0797 2.59442 2.2685 4.62409 3.5814 2.0608-1.3126 3.5964-2.367 4.6418-3.3782 1.1068-1.0706 1.5562-1.9888 1.5562-3.0084v-7.41zm7.0373 1.90065v8.02797c0 1.7523-.8319 3.1557-2.1657 4.4459-1.3065 1.2638-3.1954 2.5159-5.5004 3.9716-.3262.206-.7417.206-1.0679 0-2.34415-1.4804-4.22098-2.8797-5.52221-4.2183-1.28077-1.3176-2.14384-2.7198-2.14384-4.1992v-8.02803c0-.37878.214-.72504.55279-.89443l5.59003-2.79502c1.29503-.64751 2.81933-.64751 4.11433 0l5.5901 2.79502c.3387.16939.5528.51571.5528.89449zm-8.2001 1.39994c.5523 0 1 .44771 1 1v1.70014h1.7001c.5522 0 1 .44769 1 .99999s-.4478 1-1 1h-1.7001v1.6999c0 .5523-.4477 1-1 1-.5522 0-1-.4477-1-1v-1.6999h-1.69995c-.55229 0-1-.4477-1-1s.44771-.99999 1-.99999h1.69995v-1.70014c0-.55229.4478-1 1-1z" fill="currentColor" fill-rule="evenodd"/></svg>