<svg fill="none" height="24" viewBox="0 0 24 24" width="24" xmlns="http://www.w3.org/2000/svg"><path clip-rule="evenodd" d="m13.1628 3.88698c-.732-.36599-1.5935-.36599-2.3255 0l-5.03725 2.51862v7.41c0 .6925.41813 1.612 1.57796 2.8052 1.04953 1.0797 2.59442 2.2685 4.62409 3.5814 2.0608-1.3126 3.5964-2.367 4.6418-3.3782 1.1068-1.0706 1.5562-1.9888 1.5562-3.0084v-7.41zm7.0373 1.90065v8.02797c0 1.7523-.8319 3.1557-2.1657 4.4459-1.3065 1.2638-3.1954 2.5159-5.5004 3.9716-.3262.206-.7417.206-1.0679 0-2.34415-1.4804-4.22098-2.8797-5.52221-4.2183-1.28077-1.3176-2.14384-2.7198-2.14384-4.1992v-8.02803c0-.37878.214-.72504.55279-.89443l5.59003-2.79502c1.29503-.64751 2.81933-.64751 4.11433 0l5.5901 2.79502c.3387.16939.5528.51571.5528.89449zm-4.4929 2.89283c.3905.39052.3905 1.02369 0 1.41424l-3.6 3.6c-.3906.3905-1.0237.3905-1.4143 0l-1.79996-1.8c-.39052-.3906-.39052-1.0237 0-1.4142.39053-.3906 1.02369-.3906 1.41426 0l1.0928 1.0929 2.8929-2.89294c.3906-.39052 1.0237-.39052 1.4143 0z" fill="currentColor" fill-rule="evenodd"/></svg>