<svg fill="none" height="24" viewBox="0 0 24 24" width="24" xmlns="http://www.w3.org/2000/svg"><path clip-rule="evenodd" d="m17.9661 3.27462c.4007-.38017 1.0336-.36358 1.4138.03704l2.3455 2.47176c.3661.38586.3661.99083 0 1.37668l-2.3455 2.47176c-.3802.40064-1.0131.41724-1.4138.03705-.4006-.38016-.4172-1.01311-.037-1.41373l.7434-.78342h-1.1649c-.767 0-1.4868.37042-1.9326.99456l-1.0738 1.50324c-.321.44944-.9455.55354-1.3949.23254-.4495-.32106-.5535-.94561-.2325-1.39502l1.0737-1.50324c.8212-1.14973 2.1472-1.83208 3.5601-1.83208h1.1649l-.7434-.78342c-.3802-.40062-.3636-1.03356.037-1.41372zm-15.9661 3.57875c0-.55228.44772-1 1-1h2.79472c1.41291 0 2.73885.68235 3.56009 1.83208l6.22019 8.70825c.4458.6241 1.1656.9945 1.9326.9945h1.1649l-.7434-.7834c-.3802-.4006-.3636-1.0335.037-1.4137.4007-.3802 1.0336-.3636 1.4138.037l2.3455 2.4718c.3661.3859.3661.9908 0 1.3767l-2.3455 2.4717c-.3802.4007-1.0131.4173-1.4138.0371-.4006-.3802-.4172-1.0131-.037-1.4137l.7434-.7835h-1.1649c-1.4129 0-2.7389-.6823-3.5601-1.832l-6.22016-8.70827c-.44581-.62414-1.16561-.99456-1.93262-.99456h-2.79472c-.55228 0-1-.44771-1-1zm8.0818 7.90883c.4494.321.5535.9455.2325 1.3949l-.95949 1.3433c-.82124 1.1498-2.14718 1.8321-3.56009 1.8321h-2.79472c-.55228 0-1-.4477-1-1s.44772-1 1-1h2.79472c.76701 0 1.48681-.3704 1.93262-.9945l.95951-1.3433c.32101-.4495.94556-.5536 1.39495-.2325z" fill="currentColor" fill-rule="evenodd"/></svg>