<svg fill="none" height="24" viewBox="0 0 24 24" width="24" xmlns="http://www.w3.org/2000/svg"><path clip-rule="evenodd" d="m2.59995 3.41055c0-1.11038.90014-2.01053 2.01053-2.01053h3.03158c1.11038 0 2.01052.90015 2.01052 2.01053v.51579h7.09472v-.51579c0-1.11038.9002-2.01053 2.0105-2.01053h3.0316c1.1104 0 2.0105.90015 2.0105 2.01053v3.03158c0 1.11038-.9001 2.01053-2.0105 2.01053h-.7454l-1.8722 7.09474h.2176c1.1104 0 2.0106.9001 2.0106 2.0105v3.0316c0 1.1104-.9002 2.0105-2.0106 2.0105h-3.0316c-1.1103 0-2.0105-.9001-2.0105-2.0105v-.5158h-7.09472v.5158c0 1.1104-.90014 2.0105-2.01052 2.0105h-3.03158c-1.11039 0-2.010529-.9001-2.010529-2.0105v-3.0316c0-1.1104.900139-2.0105 2.010529-2.0105h.68631l1.98235-7.09474h-.26866c-1.11039 0-2.01053-.90015-2.01053-2.01053zm4.3558 5.04211-1.98236 7.09474h.26867c1.11038 0 2.01052.9001 2.01052 2.0105v.5158h7.09472v-.5158c0-1.1104.9002-2.0105 2.0105-2.0105h.7455l1.8722-7.09474h-.2177c-1.1103 0-2.0105-.90015-2.0105-2.01053v-.51579h-7.09472v.51579c0 1.11038-.90014 2.01053-2.01052 2.01053zm.69683-5.04211c0-.00204-.00019-.00299-.00023-.00318-.00022-.00054-.00117-.00258-.00285-.00426s-.00312-.00244-.00365-.00267c-.00019-.00004-.00175-.00042-.00379-.00042h-3.03158c-.00204 0-.00299.00019-.00318.00023-.00054.00023-.00259.00118-.00427.00286-.00167.00168-.00244.00311-.00266.00365-.00004.00019-.00042.00175-.00042.00379v3.03158c0 .00204.00019.00299.00023.00318.00023.00054.00117.00258.00285.00426s.00312.00244.00366.00267c.00013.00003.00127.00032.00231.00038.00041.00002.0009.00004.00148.00004h3.03158c.0011 0 .00188-.00006.0024-.00012.00044-.00005-.00009.00002 0 0l.00139-.0003c.00053-.00023.00197-.00099.00365-.00267s.00244-.00311.00267-.00365c.00003-.00019.00041-.00175.00041-.00379zm12.64252 3.04211c-.0148-.00033-.0295-.00033-.0442 0h-1.4931c-.002 0-.0029-.00019-.0031-.00023-.0006-.00023-.0026-.00118-.0043-.00286s-.0024-.00312-.0027-.00365c0-.00019-.0004-.00175-.0004-.00379v-3.03158c0-.00204.0002-.00299.0002-.00318.0003-.00054.0012-.00258.0029-.00426s.0031-.00244.0037-.00267c.0001-.00002.0011-.00029.0018-.00035.0005-.00004.0011-.00007.0019-.00007h3.0316c.0021 0 .003.00019.0032.00023.0005.00023.0026.00118.0043.00286.0016.00168.0024.00312.0026.00365.0001.00019.0004.00175.0004.00379v3.03158c0 .00104 0 .0018-.0001.00232.0001-.0001 0 .00049 0 0l-.0003.00147c-.0002.00053-.001.00197-.0026.00365-.0007.00064-.0013.00115-.0018.00154-.0009.00064-.0016.00099-.0019.00113-.0002.00004-.0017.00042-.0038.00042zm-2.4429 11.09474h-1.4944c-.002 0-.0029.0002-.0031.0002-.0006.0002-.0026.0012-.0043.0029s-.0024.0031-.0027.0036c0 .0002-.0004.0018-.0004.0038v3.0316c0 .002.0002.003.0002.0032.0003.0005.0012.0026.0029.0042.0017.0017.0031.0025.0037.0027.0001 0 .0017.0004.0037.0004h3.0316c.0021 0 .003-.0002.0032-.0002.0005-.0002.0026-.0012.0043-.0029.0016-.0016.0024-.0031.0026-.0036.0001-.0002.0005-.0018.0005-.0038v-3.0316c0-.002-.0002-.003-.0003-.0032-.0002-.0005-.0012-.0025-.0028-.0042-.0011-.0011-.0022-.0019-.0029-.0023-.0003-.0002.0002.0001 0 0l-.0014-.0006c-.0002 0-.0011-.0002-.0032-.0002h-1.493c-.0147.0003-.0294.0003-.0442 0zm-15.65202.0073c-.00004.0002-.00023.0012-.00023.0032v3.0316c0 .002.00019.003.00023.0032.00023.0005.00117.0026.00285.0042.00168.0017.00312.0025.00366.0027.00019 0 .00175.0004.00379.0004h3.03158c.00204 0 .00299-.0002.00318-.0002.00053-.0002.00258-.0012.00426-.0029.00098-.0009.00165-.0018.00208-.0025.00031-.0005.00049-.0009.00059-.0011.00003-.0002.00041-.0018.00041-.0038v-3.0316c0-.0013-.00008-.0022-.00015-.0027-.00003-.0003.00001 0 0 0l-.00026-.0011c-.00023-.0005-.00099-.0019-.00267-.0036s-.00312-.0025-.00365-.0027c-.00019 0-.00175-.0004-.00379-.0004h-3.03158c-.00204 0-.00299.0002-.00318.0002-.00054.0002-.00259.0012-.00427.0029-.00167.0017-.00262.0037-.00285.0042z" fill="currentColor" fill-rule="evenodd"/></svg>