<svg fill="none" height="24" viewBox="0 0 24 24" width="24" xmlns="http://www.w3.org/2000/svg"><path clip-rule="evenodd" d="m11.9999 3.40002c-4.74965 0-8.6 3.85035-8.6 8.59998 0 4.7497 3.85035 8.6 8.6 8.6 4.7496 0 8.6-3.8503 8.6-8.6 0-4.74963-3.8504-8.59998-8.6-8.59998zm-10.6 8.59998c0-5.85419 4.74578-10.59998 10.6-10.59998 5.8542 0 10.6 4.74579 10.6 10.59998 0 5.8542-4.7458 10.6-10.6 10.6-5.85422 0-10.6-4.7458-10.6-10.6zm6.72-2.87998c0-.55228.44772-1 1-1h.09563c.55228 0 .99997.44772.99997 1v.07688c0 .55228-.44769 1-.99997 1h-.09563c-.55228 0-1-.44772-1-1zm5.76 0c0-.55228.4477-1 1-1h.085c.5523 0 1 .44772 1 1v.07688c0 .55228-.4477 1-1 1h-.085c-.5523 0-1-.44772-1-1zm1.9744 4.94888c.4696.2907.6146.907.3239 1.3766-.8697 1.4051-2.4098 2.3545-4.1783 2.3545s-3.30858-.9494-4.17833-2.3545c-.29068-.4696-.14564-1.0859.32396-1.3766.46959-.2907 1.08592-.1456 1.3766.324.53017.8564 1.44797 1.4071 2.47777 1.4071s1.9476-.5507 2.4778-1.4071c.2906-.4696.907-.6147 1.3766-.324z" fill="currentColor" fill-rule="evenodd"/></svg>