<svg fill="none" height="24" viewBox="0 0 24 24" width="24" xmlns="http://www.w3.org/2000/svg"><path clip-rule="evenodd" d="m11.9999 3.40002c-4.74965 0-8.6 3.85035-8.6 8.59998 0 4.7497 3.85035 8.6 8.6 8.6 4.7496 0 8.6-3.8503 8.6-8.6 0-4.74963-3.8504-8.59998-8.6-8.59998zm-10.6 8.59998c0-5.85419 4.74578-10.59998 10.6-10.59998 5.8542 0 10.6 4.74579 10.6 10.59998 0 5.8542-4.7458 10.6-10.6 10.6-5.85422 0-10.6-4.7458-10.6-10.6zm6.72-2.87998c0-.55228.44772-1 1-1h.09563c.55228 0 .99997.44772.99997 1v.07688c0 .55228-.44769 1-.99997 1h-.09563c-.55228 0-1-.44772-1-1zm5.76 0c0-.55228.4477-1 1-1h.085c.5523 0 1 .44772 1 1v.07688c0 .55228-.4477 1-1 1h-.085c-.5523 0-1-.44772-1-1zm-6.20805 5.79918c0-.5523.44772-1 1-1h6.65605c.5523 0 1 .4477 1 1s-.4477 1-1 1h-6.65605c-.55228 0-1-.4477-1-1z" fill="currentColor" fill-rule="evenodd"/></svg>