<svg fill="none" height="24" viewBox="0 0 24 24" width="24" xmlns="http://www.w3.org/2000/svg"><path clip-rule="evenodd" d="m8.10421 2.04826c.39053-.39052 1.02369-.39052 1.41421 0l2.48068 2.48071 2.4807-2.48071c.3906-.39052 1.0237-.39052 1.4142 0 .3906.39053.3906 1.02369 0 1.41422l-2.8949 2.89491v3.91101l3.3875-1.95569 1.0596-3.95453c.1429-.53346.6913-.85005 1.2247-.7071.5335.14294.8501.69127.7071 1.22474l-.908 3.3887 3.3887.908c.5335.14294.8501.69128.7071 1.22478-.1429.5334-.6912.85-1.2247.7071l-3.9545-1.0596-3.3867 1.9552 3.3867 1.9553 3.9545-1.0596c.5335-.1429 1.0818.1737 1.2247.7071.143.5335-.1736 1.0818-.7071 1.2248l-3.3887.908.908 3.3887c.143.5334-.1736 1.0818-.7071 1.2247-.5334.143-1.0818-.1736-1.2247-.7071l-1.0596-3.9545-3.3875-1.9558v3.911l2.8949 2.8949c.3906.3906.3906 1.0237 0 1.4143-.3905.3905-1.0236.3905-1.4142 0l-2.4807-2.4807-2.48068 2.4807c-.39052.3905-1.02368.3905-1.41421 0-.39052-.3906-.39052-1.0237 0-1.4143l2.89489-2.8949v-3.9101l-3.38585 1.9549-1.05961 3.9545c-.14294.5335-.69128.8501-1.22474.7071-.53347-.1429-.85005-.6913-.70711-1.2247l.908-3.3887-3.3887-.908c-.53347-.143-.85005-.6913-.70711-1.2248.14294-.5334.69128-.85 1.22475-.7071l3.95452 1.0596 3.38666-1.9553-3.38666-1.9552-3.95452 1.0596c-.53347.1429-1.08181-.1737-1.22475-.7071-.14294-.5335.17364-1.08184.70711-1.22478l3.3887-.908-.908-3.3887c-.14294-.53347.17364-1.0818.70711-1.22475.53346-.14294 1.0818.17364 1.22474.70711l1.05961 3.95453 3.38585 1.95479v-3.91011l-2.89489-2.89491c-.39052-.39053-.39052-1.02369 0-1.41422z" fill="currentColor" fill-rule="evenodd"/></svg>