<svg fill="none" height="24" viewBox="0 0 24 24" width="24" xmlns="http://www.w3.org/2000/svg"><path clip-rule="evenodd" d="m9.10716 7.69289c.39052.39052.39052 1.02369 0 1.41421l-2.8929 2.8929 2.8929 2.8929c.39052.3905.39052 1.0237 0 1.4142-.39053.3905-1.02369.3905-1.41422 0l-3.6-3.6c-.18753-.1875-.29289-.4419-.29289-.7071s.10536-.5196.29289-.7071l3.6-3.60001c.39053-.39053 1.02369-.39053 1.41422 0zm5.78574 0c.3906-.39053 1.0237-.39053 1.4143 0l3.6 3.60001c.3905.3905.3905 1.0237 0 1.4142l-3.6 3.6c-.3906.3905-1.0237.3905-1.4143 0-.3905-.3905-.3905-1.0237 0-1.4142l2.8929-2.8929-2.8929-2.8929c-.3905-.39052-.3905-1.02369 0-1.41421z" fill="currentColor" fill-rule="evenodd"/></svg>