<svg fill="none" height="24" viewBox="0 0 24 24" width="24" xmlns="http://www.w3.org/2000/svg"><path clip-rule="evenodd" d="m5.80564 5c.55229 0 1 .44772 1 1v9.707l2.27056-2.1081c.40473-.3758 1.0375-.3523 1.4132.0524.3758.4048.3523 1.0375-.0524 1.4133l-3.95095 3.6682c-.38896.3612-.99227.3555-1.3744-.0128l-3.80564-3.6683c-.397637-.3833-.409272-1.0163-.02599-1.414.38328-.3976 1.01634-.4092 1.41397-.026l2.11165 2.0355v-9.6472c0-.55228.44772-1 1-1zm6.63586 1.62732c0-.55229.4477-1 1-1h8.5585c.5523 0 1 .44771 1 1 0 .55228-.4477 1-1 1h-8.5585c-.5523 0-1-.44772-1-1zm0 4.81478c0-.5523.4477-1 1-1h6.1132c.5523 0 1 .4477 1 1s-.4477 1-1 1h-6.1132c-.5523 0-1-.4477-1-1zm0 4.8148c0-.5523.4477-1 1-1h3.6679c.5523 0 1 .4477 1 1s-.4477 1-1 1h-3.6679c-.5523 0-1-.4477-1-1z" fill="currentColor" fill-rule="evenodd"/></svg>