<svg fill="none" height="24" viewBox="0 0 24 24" width="24" xmlns="http://www.w3.org/2000/svg"><path clip-rule="evenodd" d="m11.2928 4.09288c.3905-.39052 1.0237-.39052 1.4142 0l3.6 3.6c.3905.39053.3905 1.02369 0 1.41421-.3905.39053-1.0237.39053-1.4142 0l-2.8929-2.89289-2.89289 2.89289c-.39053.39053-1.02369.39053-1.41421 0-.39053-.39052-.39053-1.02368 0-1.41421zm-3.6 10.80002c.39052-.3905 1.02369-.3905 1.41421 0l2.89289 2.8929 2.8929-2.8929c.3905-.3905 1.0237-.3905 1.4142 0s.3905 1.0237 0 1.4142l-3.6 3.6c-.1875.1875-.4419.2929-.7071.2929s-.5196-.1054-.7071-.2929l-3.6-3.6c-.39053-.3905-.39053-1.0237 0-1.4142z" fill="currentColor" fill-rule="evenodd"/></svg>