<svg fill="none" height="24" viewBox="0 0 24 24" width="24" xmlns="http://www.w3.org/2000/svg"><path clip-rule="evenodd" d="m1.3999 2.40002c0-.55228.44772-1 1-1h19.2c.5523 0 1 .44772 1 1 0 .55229-.4477 1-1 1h-19.2c-.55228 0-1-.44771-1-1zm0 7.79998c0-1.87774 1.52223-3.39998 3.4-3.39998h14.4c1.8778 0 3.4 1.52224 3.4 3.39998v3.6c0 1.8778-1.5222 3.4-3.4 3.4h-14.4c-1.87777 0-3.4-1.5222-3.4-3.4zm3.4-1.39998c-.7732 0-1.4.62681-1.4 1.39998v3.6c0 .7732.6268 1.4 1.4 1.4h14.4c.7732 0 1.4-.6268 1.4-1.4v-3.6c0-.77317-.6268-1.39998-1.4-1.39998zm-3.4 12.79998c0-.5523.44772-1 1-1h19.2c.5523 0 1 .4477 1 1s-.4477 1-1 1h-19.2c-.55228 0-1-.4477-1-1z" fill="currentColor" fill-rule="evenodd"/></svg>