<svg fill="none" height="24" viewBox="0 0 24 24" width="24" xmlns="http://www.w3.org/2000/svg"><path clip-rule="evenodd" d="m3 6.375c0-2.43103 1.99764-4.375 4.42857-4.375h9.14283c2.431 0 4.4286 1.94397 4.4286 4.375v11.25c0 2.431-1.9976 4.375-4.4286 4.375h-9.14283c-2.43093 0-4.42857-1.944-4.42857-4.375zm4.42857-2.375c-1.35617 0-2.42857 1.07811-2.42857 2.375v11.25c0 1.2969 1.0724 2.375 2.42857 2.375h9.14283c1.3562 0 2.4286-1.0781 2.4286-2.375v-11.25c0-1.29689-1.0724-2.375-2.4286-2.375zm3.57143 2.375c0-.55228.4477-1 1-1h.081c.5522 0 1 .44772 1 1v.07207c0 .55229-.4478 1-1 1h-.081c-.5523 0-1-.44771-1-1zm1 5.5c-1.3562 0-2.42857 1.0781-2.42857 2.375s1.07237 2.375 2.42857 2.375 2.4286-1.0781 2.4286-2.375-1.0724-2.375-2.4286-2.375zm-4.42857 2.375c0-2.431 1.99764-4.375 4.42857-4.375 2.4309 0 4.4286 1.944 4.4286 4.375s-1.9977 4.375-4.4286 4.375c-2.43093 0-4.42857-1.944-4.42857-4.375z" fill="currentColor" fill-rule="evenodd"/></svg>