<svg fill="none" height="24" viewBox="0 0 24 24" width="24" xmlns="http://www.w3.org/2000/svg"><g fill="currentColor"><path d="m13.1201 14.2565c0 .7172-.5814 1.2987-1.2987 1.2987-.7172 0-1.2987-.5815-1.2987-1.2987 0-.7173.5815-1.2987 1.2987-1.2987.7173 0 1.2987.5814 1.2987 1.2987z"/><path clip-rule="evenodd" d="m8.22403 2c0-.55228.44771-1 1-1h4.93507c.5523 0 1 .44772 1 1s-.4477 1-1 1h-4.93507c-.55229 0-1-.44772-1-1zm9.90327 1.37082c.3905-.39053 1.0237-.39053 1.4142 0l2.3377 2.33766c.3905.39052.3905 1.02369 0 1.41421-.3905.39053-1.0237.39053-1.4142 0l-.4618-.46172-.7435.7435c1.3339 1.64501 2.1332 3.74123 2.1332 6.02413 0 5.2861-4.2853 9.5714-9.5715 9.5714-5.28613 0-9.5714-4.2853-9.5714-9.5714 0-5.28618 4.28527-9.57146 9.5714-9.57146 2.2829 0 4.3791.79922 6.0241 2.13312l.7435-.74351-.4617-.46172c-.3905-.39053-.3905-1.02369 0-1.41421zm-6.3059 2.48632c-4.18156 0-7.5714 3.38985-7.5714 7.57146 0 4.1816 3.38984 7.5714 7.5714 7.5714 4.1816 0 7.5715-3.3898 7.5715-7.5714 0-4.18161-3.3899-7.57146-7.5715-7.57146zm0 2.98377c.5523 0 1 .44772 1 1v2.34519c.7686.3719 1.2987 1.1593 1.2987 2.0704 0 1.2695-1.0291 2.2987-2.2987 2.2987-1.2695 0-2.29867-1.0292-2.29867-2.2987 0-.9111.53007-1.6985 1.29867-2.0704v-2.34519c0-.55228.4477-1 1-1zm-.2876 5.33469c-.0072.0257-.0111.0528-.0111.0809 0 .165.1338.2987.2987.2987.165 0 .2987-.1337.2987-.2987 0-.0281-.0038-.0552-.0111-.0809-.0911.0273-.1876.0419-.2876.0419-.0999 0-.1965-.0146-.2876-.0419z" fill-rule="evenodd"/></g></svg>