<svg fill="none" height="24" viewBox="0 0 24 24" width="24" xmlns="http://www.w3.org/2000/svg"><path clip-rule="evenodd" d="m2 6.375c0-2.41625 1.95875-4.375 4.375-4.375h11.25c2.4162 0 4.375 1.95875 4.375 4.375v11.25c0 2.4162-1.9588 4.375-4.375 4.375h-11.25c-2.41625 0-4.375-1.9588-4.375-4.375zm4.375-2.375c-1.31168 0-2.375 1.06332-2.375 2.375v11.25c0 1.3117 1.06332 2.375 2.375 2.375h11.25c1.3117 0 2.375-1.0633 2.375-2.375v-11.25c0-1.31168-1.0633-2.375-2.375-2.375zm1.25 5.89062c0-1.25127 1.01435-2.26562 2.26562-2.26562h4.21878c1.2512 0 2.2656 1.01435 2.2656 2.26562v4.21878c0 1.2512-1.0144 2.2656-2.2656 2.2656h-4.21878c-1.25127 0-2.26562-1.0144-2.26562-2.2656zm2.26562-.26562c-.1467 0-.26562.11892-.26562.26562v4.21878c0 .1467.11892.2656.26562.2656h4.21878c.1467 0 .2656-.1189.2656-.2656v-4.21878c0-.1467-.1189-.26562-.2656-.26562z" fill="currentColor" fill-rule="evenodd"/></svg>