<svg fill="none" height="24" viewBox="0 0 24 24" width="24" xmlns="http://www.w3.org/2000/svg"><path clip-rule="evenodd" d="m19.303 5.69727c-.3713 0-.7274.1475-.9899.41005-.2626.26255-.4101.61864-.4101.98995 0 .55228-.4477 1-1 1s-1-.44772-1-1c0-.90174.3582-1.76654.9959-2.40417.6376-.63762 1.5024-.99583 2.4041-.99583.9018 0 1.7666.35821 2.4042.99583.6376.63763.9958 1.50243.9958 2.40417 0 .66423-.2895 1.17802-.5887 1.55879-.2162.27521-.4988.55119-.7308.7778-.0622.0607-.1207.11786-.1734.17051-.0213.02137-.0437.04177-.0669.06112l-1.4781 1.23181h2.0379c.5523 0 1 .4477 1 1s-.4477 1-1 1h-4.8c-.421 0-.7969-.2637-.9402-.6596-.1434-.3959-.0234-.8391.3-1.1087l3.5656-2.97125c.0829-.0826.1583-.15642.2274-.22407.2075-.20314.3581-.35069.4859-.5133.1508-.19194.1613-.27815.1613-.32311 0-.37131-.1475-.7274-.41-.98995-.2626-.26255-.6187-.41005-.99-.41005zm-17.6102 1.80775c.39052-.39052 1.02368-.39052 1.41421 0l4.97975 4.97978 4.97974-4.97978c.3905-.39052 1.0237-.39052 1.4142 0 .3905.39053.3905 1.02369 0 1.41422l-4.97973 4.97976 4.97973 4.9797c.3905.3906.3905 1.0237 0 1.4142-.3905.3906-1.0237.3906-1.4142 0l-4.97974-4.9797-4.97975 4.9797c-.39053.3906-1.02369.3906-1.41421 0-.39053-.3905-.39053-1.0236 0-1.4142l4.97974-4.9797-4.97974-4.97976c-.39053-.39053-.39053-1.02369 0-1.41422z" fill="currentColor" fill-rule="evenodd"/></svg>