<svg fill="none" height="24" viewBox="0 0 24 24" width="24" xmlns="http://www.w3.org/2000/svg"><path clip-rule="evenodd" d="m13.6454 3.40229c-.2232-.01717-.4428.06405-.601.22233l-9.41991 9.41988c-.29945.2994-.29945.7849 0 1.0844l6.24654 6.2465c.29947.2995.78497.2995 1.08437 0l9.4199-9.4198c.1583-.1583.2395-.3779.2223-.601l-.4461-5.8004c-.0291-.3771-.3287-.67672-.7058-.70573zm-2.0153-1.19188c.5712-.57113 1.3633-.86417 2.1687-.80223l5.8003.44619c1.3607.10466 2.4418 1.18578 2.5465 2.54643l.4461 5.8004c.062.8053-.2311 1.5975-.8022 2.1686l-9.4199 9.4199c-1.0804 1.0805-2.83228 1.0805-3.91278 0l-6.24654-6.2466c-1.0805-1.0805-1.0805-2.8323 0-3.9128zm3.7174 5.43697c.0028-.55227.4528-.9977 1.005-.99489l.0064.00003c.5523.00281.9978.4528.9949 1.00508-.0028.55228-.4528.99771-1.005.9949l-.0064-.00004c-.5523-.00281-.9977-.4528-.9949-1.00508z" fill="currentColor" fill-rule="evenodd"/></svg>