<svg fill="none" height="26" viewBox="0 0 26 26" width="26" xmlns="http://www.w3.org/2000/svg"><path clip-rule="evenodd" d="m13 0c.5523 0 1 .447715 1 1v1.44648c5.0561.47311 9.0804 4.49743 9.5535 9.55352h1.4465c.5523 0 1 .4477 1 1s-.4477 1-1 1h-1.4466c-.0977 1.042-.3463 2.0414-.7243 2.9751-.2072.512-.7902.759-1.3021.5518-.512-.2073-.759-.7903-.5518-1.3022.2833-.6998.4773-1.4459.5674-2.2247h-1.3426c-.5523 0-1-.4477-1-1s.4477-1 1-1h1.3425c-.4574-3.9505-3.592-7.08508-7.5425-7.54255v1.34255c0 .55228-.4477 1-1 1s-1-.44772-1-1v-1.34265c-.6958.08048-1.3655.24388-1.9993.47978-.51765.19263-1.09341-.0708-1.28604-.5884-.19263-.51761.07081-1.09336.58841-1.286.85323-.31753 1.75773-.5282 2.69693-.61618v-1.44655c0-.552285.4477-1 1-1zm-9.07029 3.2579c.40986-.37019 1.0422-.33804 1.41239.07181l16.8 18.59999c.3702.4099.338 1.0422-.0718 1.4124-.4099.3702-1.0422.338-1.4124-.0718l-16.8-18.60001c-.37019-.40986-.33804-1.0422.07181-1.41239zm.54332 5.21509c.51194.20723.75895.79022.55173 1.30216-.28331.69985-.47728 1.44605-.56734 2.22485h1.34258c.55228 0 1 .4477 1 1s-.44772 1-1 1h-1.34247c.45749 3.9504 3.59202 7.0849 7.54247 7.5424v-1.3424c0-.5523.4477-1 1-1s1 .4477 1 1v1.3425c.5829-.0674 1.1474-.193 1.6877-.3706.5247-.1725 1.0898.1131 1.2623.6377.1724.5247-.1131 1.0898-.6378 1.2623-.7388.2428-1.513.4065-2.3122.4814v1.4467c0 .5523-.4477 1-1 1s-1-.4477-1-1v-1.4466c-5.05603-.4731-9.08031-4.4974-9.55344-9.5534h-1.44656c-.552285 0-1-.4477-1-1s.447715-1 1-1h1.44661c.09762-1.0421.34627-2.04146.72427-2.97528.20723-.51194.79022-.75895 1.30215-.55173z" fill="currentColor" fill-rule="evenodd"/></svg>