<svg fill="none" height="26" viewBox="0 0 26 26" width="26" xmlns="http://www.w3.org/2000/svg"><path clip-rule="evenodd" d="m13 0c.5523 0 1 .447715 1 1v1.44648c5.0561.47311 9.0804 4.49743 9.5535 9.55352h1.4465c.5523 0 1 .4477 1 1s-.4477 1-1 1h-1.4466c-.4731 5.056-4.4974 9.0803-9.5534 9.5534v1.4466c0 .5523-.4477 1-1 1s-1-.4477-1-1v-1.4466c-5.05603-.4731-9.08031-4.4974-9.55344-9.5534h-1.44656c-.552285 0-1-.4477-1-1s.447715-1 1-1h1.44655c.47307-5.05609 4.49737-9.08041 9.55345-9.55352v-1.44648c0-.552285.4477-1 1-1zm-1 4.45745c-3.95049.45747-7.08506 3.59205-7.54249 7.54255h1.34249c.55228 0 1 .4477 1 1s-.44772 1-1 1h-1.34247c.45749 3.9504 3.59202 7.0849 7.54247 7.5424v-1.3424c0-.5523.4477-1 1-1s1 .4477 1 1v1.3424c3.9504-.4575 7.085-3.592 7.5425-7.5424h-1.3425c-.5523 0-1-.4477-1-1s.4477-1 1-1h1.3425c-.4574-3.9505-3.592-7.08508-7.5425-7.54255v1.34255c0 .55228-.4477 1-1 1s-1-.44772-1-1zm1 5.94255c-1.4359 0-2.6 1.1641-2.6 2.6s1.1641 2.6 2.6 2.6 2.6-1.1641 2.6-2.6-1.1641-2.6-2.6-2.6zm-4.6 2.6c0-2.5405 2.0595-4.6 4.6-4.6s4.6 2.0595 4.6 4.6-2.0595 4.6-4.6 4.6-4.6-2.0595-4.6-4.6z" fill="currentColor" fill-rule="evenodd"/></svg>