<svg fill="none" height="24" viewBox="0 0 24 24" width="24" xmlns="http://www.w3.org/2000/svg"><path clip-rule="evenodd" d="m5.60005 4.79846c0-1.87862 1.52308-3.39844 3.4-3.39844 1.87775 0 3.39995 1.52224 3.39995 3.4v8.73028c.3998.4169.785.9278 1.0942 1.4785.3893.6933.7058 1.535.7058 2.3912 0 2.8719-2.3281 5.2-5.19995 5.2-2.87188 0-5.2-2.3281-5.2-5.2 0-1.5727.69895-2.9821 1.8-3.9345zm3.4-1.39844c-.77405 0-1.4.62609-1.4 1.39844v9.15434c0 .3269-.15978.6332-.4279.8202-.83147.58-1.3721 1.5404-1.3721 2.627 0 1.7673 1.43269 3.2 3.2 3.2 1.76735 0 3.19995-1.4327 3.19995-3.2 0-.3877-.1538-.885-.4497-1.4121-.2907-.5176-.6723-.9813-1.0172-1.2899-.2119-.1897-.3331-.4607-.3331-.7452v-9.15278c0-.77319-.62675-1.4-1.39995-1.4zm7.79995 2.4c-.7732 0-1.4.62681-1.4 1.4 0 .7732.6268 1.4 1.4 1.4s1.4-.6268 1.4-1.4c0-.77319-.6268-1.4-1.4-1.4zm-3.4 1.4c0-1.87776 1.5223-3.4 3.4-3.4 1.8778 0 3.4 1.52224 3.4 3.4 0 1.87777-1.5222 3.39998-3.4 3.39998-1.8777 0-3.4-1.52221-3.4-3.39998zm-5.39995 10.19998c0-.5523.44771-1 1-1h.05625c.55228 0 1 .4477 1 1s-.44772 1-1 1h-.05625c-.55229 0-1-.4477-1-1z" fill="currentColor" fill-rule="evenodd"/></svg>