<svg fill="none" height="24" viewBox="0 0 24 24" width="24" xmlns="http://www.w3.org/2000/svg"><path clip-rule="evenodd" d="m5.3 4.79846c0-1.87862 1.52308-3.39844 3.4-3.39844 1.8778 0 3.4 1.52224 3.4 3.4v8.73028c.3998.4169.785.9278 1.0942 1.4785.3892.6933.7058 1.535.7058 2.3912 0 2.8719-2.3281 5.2-5.2 5.2-2.87188 0-5.2-2.3281-5.2-5.2 0-1.5727.69895-2.9821 1.8-3.9345zm3.4-1.39844c-.77405 0-1.4.62609-1.4 1.39844v9.15434c0 .3269-.15978.6332-.4279.8202-.83147.58-1.3721 1.5404-1.3721 2.627 0 1.7673 1.43269 3.2 3.2 3.2 1.7673 0 3.2-1.4327 3.2-3.2 0-.3877-.1538-.885-.4497-1.4121-.2907-.5176-.6724-.9813-1.0172-1.2899-.212-.1897-.3331-.4607-.3331-.7452v-9.15278c0-.77319-.6268-1.4-1.4-1.4zm8.0166 4.29228c-.3913-.16245-.8312-.16279-1.2227-.00095l-.4119.17024c-.5104.21095-1.0952-.0318-1.3062-.54221-.2109-.51041.0318-1.09519.5422-1.30614l.4119-.17024c.8818-.36445 1.8723-.36368 2.7535.00213.3913.16245.8312.1628 1.2227.00095l.4119-.17023c.5104-.21096 1.0952.0318 1.3062.54221.2109.5104-.0318 1.09519-.5422 1.30614l-.4119.17023c-.8818.36446-1.8723.36369-2.7535-.00213zm0 3.8626c-.3913-.1625-.8312-.1628-1.2227-.001l-.4119.1703c-.5104.2109-1.0952-.0318-1.3062-.5422-.2109-.5104.0318-1.0952.5422-1.30618l.4119-.17023c.8818-.36445 1.8723-.36368 2.7535.00213.3913.16245.8312.1628 1.2227.00095l.4119-.17023c.5104-.21096 1.0952.0318 1.3062.54216.2109.5105-.0318 1.0952-.5422 1.3062l-.4119.1702c-.8818.3645-1.8723.3637-2.7535-.0021zm-9.0166 5.8451c0-.5523.44772-1 1-1h.05625c.55229 0 1 .4477 1 1s-.44771 1-1 1h-.05625c-.55228 0-1-.4477-1-1z" fill="currentColor" fill-rule="evenodd"/></svg>