<svg fill="none" height="24" viewBox="0 0 24 24" width="24" xmlns="http://www.w3.org/2000/svg"><path clip-rule="evenodd" d="m8.73602 4c-.18574.00001-.3678.05175-.52578.14942-.15799.09767-.28566.23742-.36869.40358l-3.5 7c-.00003.0001.00004-.0001 0 0-.07611.1524-.11213.3219-.10445.4921.00769.1703.05877.3357.14839.4807.08961.145.2148.2646.36366.3476.14885.083.31645.1266.48687.1266m3.5-9c-.00002 0 .00001 0 0 0zm0 0h4.01768c.0816.00007.163.01014.2422.03l3.0032.7508.0009 7.9165-3.2238 4.8357c.0001-.0001-.0001.0001 0 0-.489.7329-.757 1.5886-.7752 2.467h-.002c-.2652 0-.5196-.1054-.7071-.2929s-.2929-.4419-.2929-.7071v-4h1.001c.5523 0 1-.4477 1-1s-.4477-1-1-1h-2c-.00032 0-.00065 0-.00098 0h-4.763m3.763 2h-3.763c-.5113 0-1.01415-.1307-1.46074-.3797s-.82214-.6079-1.09099-1.0428c-.26885-.435-.42208-.9314-.44515-1.4421-.02307-.5108.08479-1.019.31334-1.4764l3.5-7c.00004-.00007-.00003.00007 0 0 .24909-.49838.63215-.91776 1.10606-1.21074.47398-.29302 1.0202-.44824 1.57744-.44826h4.01802c.2451.00015.4898.03033.7276.08986l3.6405.91014h1.8779c.7957 0 1.5587.31607 2.1213.87868s.8787 1.32567.8787 2.12132v6c0 .7957-.3161 1.5587-.8787 2.1213s-1.3256.8787-2.1213.8787h-2.1315l-2.4284 3.6427c-.2872.4303-.4401.9354-.4401 1.4533 0 1.052-.8534 1.904-1.905 1.904h-.096c-.7956 0-1.5587-.3161-2.1213-.8787-.56261-.5626-.87868-1.3256-.87868-2.1213zm9.00098-2h1c.2652 0 .5196-.1054.7071-.2929.1876-.1875.2929-.4419.2929-.7071v-6c0-.26522-.1053-.51957-.2929-.70711-.1875-.18753-.4419-.29289-.7071-.29289h-1.0009z" fill="currentColor" fill-rule="evenodd"/></svg>