<svg fill="none" height="24" viewBox="0 0 24 24" width="24" xmlns="http://www.w3.org/2000/svg"><path clip-rule="evenodd" d="m5.01172 4.45972c-1.5529 0-2.81177 1.25887-2.81177 2.81176l.00001 9.45692c0 1.5529 1.25887 2.8118 2.81177 2.8118h6.15037c.4581-1.4773 1.8351-2.55 3.4629-2.55 1.6277 0 3.0047 1.0727 3.4628 2.55h.9004c1.5529 0 2.8117-1.2589 2.8117-2.8118v-9.45692c0-1.55289-1.2588-2.81176-2.8117-2.81176h-.9004c-.4581 1.4773-1.8351 2.55-3.4628 2.55-1.6278 0-3.0048-1.0727-3.4629-2.55zm-4.811769 2.81176c0-2.65746 2.154299-4.81176 4.811769-4.81176h6.98928c.5414 0 .9844.4308.9996.97195.0246.87545.7426 1.57805 1.6244 1.57805.8817 0 1.5997-.7026 1.6243-1.57805.0152-.54115.4582-.97195.9996-.97195h1.7393c2.6574 0 4.8117 2.1543 4.8117 4.81176v9.45692c0 2.6575-2.1542 4.8118-4.8117 4.8118h-1.7393c-.5414 0-.9844-.4308-.9996-.972-.0246-.8754-.7426-1.578-1.6243-1.578-.8818 0-1.5998.7026-1.6244 1.578-.0152.5412-.4582.972-.9996.972h-6.98927c-2.65747 0-4.811766-2.1543-4.811766-4.8118zm14.199549.68185c.5522 0 1 .44772 1 1v.19384c0 .55228-.4478 1.00003-1 1.00003-.5523 0-1-.44775-1-1.00003v-.19384c0-.55228.4477-1 1-1zm0 2.99017c.5522 0 1 .4477 1 1v.1938c0 .5523-.4478 1-1 1-.5523 0-1-.4477-1-1v-.1938c0-.5523.4477-1 1-1zm.0005 3.0028c.5522 0 1 .4478 1 1v.1939c0 .5523-.4478 1-1 1-.5523 0-1-.4477-1-1v-.1939c0-.5522.4477-1 1-1z" fill="currentColor" fill-rule="evenodd"/></svg>