<svg fill="none" height="24" viewBox="0 0 24 24" width="24" xmlns="http://www.w3.org/2000/svg"><path clip-rule="evenodd" d="m1.3999 3.41055c0-1.11038.90015-2.01053 2.01053-2.01053h3.03158c1.11038 0 2.01052.90015 2.01052 2.01053v.51579h7.09477v-.51579c0-1.11038.9001-2.01053 2.0105-2.01053h3.0316c1.1104 0 2.0105.90015 2.0105 2.01053v3.03158c0 1.11038-.9001 2.01053-2.0105 2.01053h-.5158v7.09474h.5158c1.1104 0 2.0105.9001 2.0105 2.0105v3.0316c0 1.1104-.9001 2.0105-2.0105 2.0105h-3.0316c-1.1104 0-2.0105-.9001-2.0105-2.0105v-.5158h-7.09477v.5158c0 1.1104-.90014 2.0105-2.01052 2.0105h-3.03158c-1.11038 0-2.01053-.9001-2.01053-2.0105v-3.0316c0-1.1104.90015-2.0105 2.01053-2.0105h.51579v-7.09474h-.51579c-1.11038 0-2.01053-.90015-2.01053-2.01053zm4.52632 5.04211v7.09474h.51579c1.11038 0 2.01052.9001 2.01052 2.0105v.5158h7.09477v-.5158c0-1.1104.9001-2.0105 2.0105-2.0105h.5158v-7.09474h-.5158c-1.1104 0-2.0105-.90015-2.0105-2.01053v-.51579h-7.09477v.51579c0 1.11038-.90014 2.01053-2.01052 2.01053zm.52631-5.04211c0-.00204-.00019-.00299-.00023-.00318-.00022-.00054-.00117-.00258-.00285-.00426s-.00312-.00244-.00365-.00267c-.00019-.00004-.00175-.00042-.00379-.00042h-3.03158c-.00204 0-.00299.00019-.00318.00023-.00054.00023-.00259.00118-.00426.00286-.00168.00168-.00244.00311-.00267.00365-.00004.00019-.00042.00175-.00042.00379v3.03158c0 .00204.00019.00299.00023.00318.00023.00054.00118.00258.00286.00426.00167.00168.00311.00244.00365.00267.00019.00004.00175.00042.00379.00042h3.03158c.00204 0 .00299-.00019.00318-.00023.00053-.00023.00258-.00118.00426-.00286s.00244-.00311.00267-.00365c.00004-.00019.00041-.00175.00041-.00379zm14.13687 3.04211c.002 0 .003-.00019.0032-.00023.0005-.00023.0025-.00118.0042-.00286s.0025-.00311.0027-.00365c0-.00019.0004-.00175.0004-.00379v-3.03158c0-.00204-.0002-.00299-.0002-.00318-.0003-.00054-.0012-.00258-.0029-.00426s-.0031-.00244-.0036-.00267c-.0002-.00004-.0018-.00042-.0038-.00042h-3.0316c-.002 0-.003.00019-.0032.00023-.0005.00023-.0026.00118-.0042.00286-.0017.00168-.0025.00311-.0027.00365-.0001.00019-.0004.00175-.0004.00379v3.03158c0 .00137.0001.00225.0001.00274.0001.00024 0-.00006 0 0l.0003.00105c.0002.00054.001.00197.0027.00365.0016.00168.0031.00244.0036.00267.0002.00004.0018.00042.0038.00042zm-3.0316 11.09474c-.002 0-.003.0002-.0032.0002-.0005.0002-.0026.0012-.0042.0029-.0017.0017-.0025.0031-.0027.0036-.0001.0002-.0004.0018-.0004.0038v3.0316c0 .002.0002.003.0002.0032.0002.0005.0012.0026.0029.0042.0007.0008.0014.0013.002.0018.0007.0005.0013.0008.0016.0009.0002 0 .0018.0004.0038.0004h3.0316c.0013 0 .0021-.0001.0026-.0001.0003-.0001 0 0 0 0l.0012-.0003c.0005-.0002.0019-.001.0036-.0027.0017-.0016.0025-.0031.0027-.0036 0-.0002.0004-.0018.0004-.0038v-3.0316c0-.002-.0002-.003-.0002-.0032-.0003-.0005-.0012-.0025-.0029-.0042-.001-.001-.0019-.0017-.0026-.0021-.0004-.0003-.0008-.0005-.001-.0006-.0002 0-.0018-.0004-.0038-.0004zm-14.15767.0073c-.00004.0002-.00023.0012-.00023.0032v3.0316c0 .002.00019.003.00023.0032.00023.0005.00118.0026.00286.0042.00167.0017.00311.0025.00365.0027.00019 0 .00175.0004.00379.0004h3.03158c.00204 0 .00299-.0002.00318-.0002.00053-.0002.00258-.0012.00426-.0029.00168-.0016.00244-.0031.00267-.0036.00004-.0002.00041-.0018.00041-.0038v-3.0316c0-.002-.00019-.003-.00023-.0032-.00022-.0005-.00117-.0025-.00285-.0042s-.00312-.0025-.00365-.0027c-.00014 0-.00127-.0003-.00231-.0004-.00041 0-.0009 0-.00148 0h-3.03158c-.00204 0-.00299.0002-.00318.0002-.00054.0002-.00259.0012-.00426.0029-.00168.0017-.00263.0037-.00286.0042z" fill="currentColor" fill-rule="evenodd"/></svg>