<svg fill="none" height="24" viewBox="0 0 24 24" width="24" xmlns="http://www.w3.org/2000/svg"><path clip-rule="evenodd" d="m13.6879 16.8c0 .5523.4477 1 1 1h6.912c.5523 0 1-.4477 1-1v-6.6461c0-.55229-.4477-1-1-1s-1 .44771-1 1v4.2973l-7.5229-7.23352c-.3871-.37222-.9991-.37222-1.3862 0l-3.9149 3.76432-4.68289-4.50278c-.3981-.3828-1.03115-.37038-1.41394.02772-.38279.39811-.37038 1.03115.02772 1.41394l5.376 5.16922c.38712.3722.99911.3722 1.38622 0l3.91489-3.76431 6.7332 6.47421h-4.4292c-.5523 0-1 .4478-1 1z" fill="currentColor" fill-rule="evenodd"/></svg>