<svg fill="none" height="24" viewBox="0 0 24 24" width="24" xmlns="http://www.w3.org/2000/svg"><path clip-rule="evenodd" d="m2.94333 1.64596c.41647-.36273 1.04813-.31917 1.41086.0973l16.72261 19.20004c.3627.4164.3191 1.0481-.0973 1.4108-.4165.3627-1.0482.3192-1.4109-.0973l-6.6983-7.6906v6.0338h3.1169c.5523 0 1 .4478 1 1 0 .5523-.4477 1-1 1h-8.0516c-.55229 0-1-.4477-1-1 0-.5522.44771-1 1-1h2.9347v-8.2903c0-.013.0003-.026.0008-.039l-5.65163-6.48882v1.53657c0 .55228-.44772 1-1 1-.55229 0-1-.44772-1-1v-1.82164c0-.54089.19266-1.03766.51137-1.4241l-.88481-1.01589c-.36273-.41647-.31917-1.04813.0973-1.41086zm5.85033 2.61214c0-.55228.44772-1 1-1h7.97874c1.2364 0 2.2387 1.00231 2.2387 2.23871v2.33169c0 .55229-.4477 1-1 1s-1-.44771-1-1v-2.33169c0-.13183-.1069-.23871-.2387-.23871h-4.9021v1.47742c0 .55229-.4477 1-1 1s-1-.44771-1-1v-1.47742h-1.07664c-.55228 0-1-.44771-1-1z" fill="currentColor" fill-rule="evenodd"/></svg>