<svg fill="none" height="24" viewBox="0 0 24 24" width="24" xmlns="http://www.w3.org/2000/svg"><path clip-rule="evenodd" d="m5 5.82874c0-1.12035.90822-2.02857 2.02857-2.02857h10.22523c1.1203 0 2.0285.90822 2.0285 2.02857v1.93614c0 .55228-.4477 1-1 1-.5522 0-1-.44772-1-1v-1.93614c0-.00579-.0009-.00878-.0018-.01081-.0011-.0027-.0032-.00608-.0065-.00939s-.0067-.0054-.0094-.00653c-.002-.00086-.005-.00184-.0108-.00184h-3.9009v12.40003h2.4185c.5523 0 1 .4477 1 1s-.4477 1-1 1h-6.68569c-.55228 0-1-.4477-1-1s.44772-1 1-1h2.26719v-12.40003h-4.32433c-.00579 0-.00878.00098-.01081.00184-.0027.00114-.00608.00322-.00939.00653s-.0054.00669-.00654.00939c-.00085.00203-.00183.00502-.00183.01081v1.51261c0 .55228-.44772 1-1 1s-1-.44772-1-1z" fill="currentColor" fill-rule="evenodd"/></svg>