<svg fill="none" height="24" viewBox="0 0 24 24" width="24" xmlns="http://www.w3.org/2000/svg"><path clip-rule="evenodd" d="m9.36945 2.0489c.14637-.3903.51949-.64888.93635-.64888h2.2588c.3973 0 .7569.2352.9162.59919l7.6437 17.47139h.4754c.5523 0 1 .4477 1 1s-.4477 1-1 1h-1.1065c-.015.0003-.0299.0003-.0448 0h-4.4726c-.0152.0004-.0303.0004-.0454 0h-2.2366c-.5523 0-1-.4477-1-1s.4477-1 1-1h.7496l-1.5441-3.647h-6.55954l-1.36765 3.647h.81583c.55228 0 1 .4477 1 1s-.44772 1-1 1h-2.23579c-.01542.0004-.03088.0004-.04637 0h-1.10608c-.55228 0-1-.4477-1-1s.44772-1 1-1h.43641zm-2.27949 11.7747h4.96284l-2.63171-6.2164zm3.35124-8.9368 6.1742 14.5838h2.3261l-7.0309-16.07058h-.9118z" fill="currentColor" fill-rule="evenodd"/></svg>