<svg fill="none" height="24" viewBox="0 0 24 24" width="24" xmlns="http://www.w3.org/2000/svg"><path clip-rule="evenodd" d="m10.8 4c-1.95838 0-3.53333 1.57395-3.53333 3.5v1.125c0 .55229-.44772 1-1 1-.55229 0-1-.44771-1-1v-1.125c0-3.04451 2.48433-5.5 5.53333-5.5h2.7747c3.6749 0 6.6667 2.95917 6.6667 6.625 0 .55229-.4477 1-1 1s-1-.44771-1-1c0-2.54737-2.0824-4.625-4.6667-4.625zm-7.8 8c0-.5523.44772-1 1-1h17c.5523 0 1 .4477 1 1s-.4477 1-1 1h-2.0228c.7895.95 1.2645 2.1687 1.2645 3.5 0 3.0445-2.4843 5.5-5.5333 5.5h-2.7748c-3.22092 0-5.91376-2.271-6.53324-5.2996-.11067-.5411.23824-1.0694.77933-1.1801.54108-.1107 1.06943.2382 1.1801.7793.43085 2.1065 2.31174 3.7004 4.57381 3.7004h2.7748c1.9583 0 3.5333-1.5739 3.5333-3.5 0-1.9262-1.5747-3.5-3.5329-3.5h-10.7088c-.55228 0-1-.4477-1-1z" fill="currentColor" fill-rule="evenodd"/></svg>