<svg fill="none" height="24" viewBox="0 0 24 24" width="24" xmlns="http://www.w3.org/2000/svg"><path clip-rule="evenodd" d="m17.8235 3.08153c.0562.03091.1121.06246.1679.09465l.5483.3166c.0559.03223.1113.06496.1662.09817.0575.02835.1118.06207.1624.10048 4.2018 2.6584 5.5908 8.18447 3.082 12.52977-.6815 1.1803-2.1908 1.5848-3.3711.9033l-4.1275-2.383c-.0117-.0065-.0234-.0132-.0349-.0202l-1.1781-.6801-1.6567 2.8695c1.0952.3948 2.12.9759 3.0271 1.7226l2.0265 1.6683c.4264.351.4875.9812.1365 1.4076-.3511.4264-.9813.4875-1.4076.1365l-2.0266-1.6683c-1.1818-.973-2.6121-1.5961-4.12938-1.7991-.00001 0 0 0 0 0l-.07758-.0104c-1.49429-.1999-3.01478.0155-4.39475.6226l-2.53345 1.1146c-.50553.2224-1.09562-.0072-1.318022-.5127-.222397-.5055.007125-1.0956.512652-1.318l2.53345-1.1146c1.71613-.7549 3.607-1.0228 5.46529-.7742l.07758.0104c.03.004.05997.0081.08991.0124.00639-.0122.01305-.0243.02-.0363l1.9231-3.3309-1.1091-.6404c-.0122-.0067-.0243-.0136-.0362-.0208l-4.19513-2.4221c-1.18036-.68148-1.58478-2.1908-.9033-3.37115 2.50877-4.34532 7.98893-5.905499 12.39213-3.59575.0586.0246.1151.05485.1684.09053zm-2.6778 1.07258c-3.1-.79443-6.47216.52536-8.15068 3.43264-.12919.22377-.05252.5099.17125.6391l3.03213 1.75061c.4889-1.35772 1.4613-2.61305 2.4559-3.6404.8019-.82833 1.682-1.57313 2.4914-2.18195zm-3.1734 6.84649 2.88 1.6628c.762-.7276 1.3545-1.9663 1.7651-3.46574.3948-1.44157.5762-2.95646.6295-4.08441-.9294.62186-2.1224 1.54659-3.1556 2.61392-1.076 1.11142-1.8534 2.2495-2.119 3.27343zm7.1737-4.52323c-.1075 1.00826-.2966 2.14216-.5996 3.2485-.3785 1.38223-.9719 2.86183-1.9159 3.96413l2.9487 1.7024c.2237.1292.5099.0526.6391-.1712 1.6709-2.8941 1.1402-6.4551-1.0723-8.74383z" fill="currentColor" fill-rule="evenodd"/></svg>