<svg fill="none" height="24" viewBox="0 0 24 24" width="24" xmlns="http://www.w3.org/2000/svg"><path clip-rule="evenodd" d="m3.57143 4c0-.55228.44771-1 1-1h3.42857c.55228 0 1 .44772 1 1s-.44772 1-1 1h-.72441c.00667.04666.01012.09435.01012.14286v5.71424c0 2.6037 2.11066 4.7143 4.71429 4.7143 2.6036 0 4.7143-2.1106 4.7143-4.7143v-5.71424c0-.04851.0034-.0962.0101-.14286h-.7244c-.5523 0-1-.44772-1-1s.4477-1 1-1h3.4286c.5523 0 1 .44772 1 1 0 .55229-.4477 1-1 1h-.7244c.0066.04666.0101.09435.0101.14286v5.71424c0 3.7082-3.0061 6.7143-6.7143 6.7143s-6.71429-3.0061-6.71429-6.7143v-5.71424c0-.04851.00346-.0962.01013-.14286h-.72441c-.55229 0-1-.44772-1-1zm-.57143 16c0-.5523.44772-1 1-1h16c.5523 0 1 .4477 1 1s-.4477 1-1 1h-16c-.55228 0-1-.4477-1-1z" fill="currentColor" fill-rule="evenodd"/></svg>