<svg fill="none" height="24" viewBox="0 0 24 24" width="24" xmlns="http://www.w3.org/2000/svg"><path clip-rule="evenodd" d="m1.3999 4.80002c0-1.87776 1.52223-3.4 3.4-3.4h14.4c1.8778 0 3.4 1.52224 3.4 3.4v14.39998c0 1.8778-1.5222 3.4-3.4 3.4h-14.4c-1.87777 0-3.4-1.5222-3.4-3.4zm3.4-1.4c-.7732 0-1.4.62681-1.4 1.4v14.39998c0 .7732.6268 1.4 1.4 1.4h14.4c.7732 0 1.4-.6268 1.4-1.4v-14.39998c0-.77319-.6268-1.4-1.4-1.4zm3.90288 2.20458c.55228 0 1 .44771 1 1v3.29771c0 1.26899 1.02872 2.29769 2.29772 2.29769s2.2977-1.0287 2.2977-2.29769v-3.29771c0-.55229.4477-1 1-1s1 .44771 1 1v3.29771c0 2.37359-1.9242 4.29769-4.2977 4.29769-2.37358 0-4.29772-1.9241-4.29772-4.29769v-3.29771c0-.55229.44771-1 1-1zm-1.90229 11.1955c0-.5523.44771-1 1-1h9.23361c.5523 0 1 .4477 1 1s-.4477 1-1 1h-9.23361c-.55229 0-1-.4477-1-1z" fill="currentColor" fill-rule="evenodd"/></svg>