<svg fill="none" height="24" viewBox="0 0 24 24" width="24" xmlns="http://www.w3.org/2000/svg"><path clip-rule="evenodd" d="m11.1999 3.40002c-.7732 0-1.4.62681-1.4 1.4v4c0 .26522-.10535.51957-.29289.70711s-.44189.29289-.70711.29289h-4c-.7732 0-1.4.62678-1.4 1.39998v8c0 .7732.6268 1.4 1.4 1.4h8c.7732 0 1.4-.6268 1.4-1.4v-4c0-.5523.4477-1 1-1h4c.7732 0 1.4-.6268 1.4-1.4v-7.99997c0-.7732-.6268-1.4-1.4-1.4zm-3.4 1.4c0-1.87776 1.52224-3.4 3.4-3.4l8 .00001c1.8778 0 3.4 1.52223 3.4 3.4v7.99997c0 1.8778-1.5222 3.4-3.4 3.4h-3v3c0 1.8778-1.5222 3.4-3.4 3.4h-7.99992c-1.87777 0-3.40008-1.5222-3.40008-3.4v-8c0-1.87774 1.52224-3.39998 3.4-3.39998h3z" fill="currentColor" fill-rule="evenodd"/></svg>