<svg fill="none" height="24" viewBox="0 0 24 24" width="24" xmlns="http://www.w3.org/2000/svg"><path clip-rule="evenodd" d="m11.3219 2.26594c.3833-.35459.9749-.35459 1.3581 0l4.9327 4.56318c.4054.37505.43 1.00773.0549 1.41314-.375.40541-1.0077.43003-1.4131.05498l-3.2535-3.00985v9.65511c0 .5523-.4478 1-1 1-.5523 0-1-.4477-1-1v-9.65511l-3.25356 3.00985c-.40541.37505-1.0381.35043-1.41315-.05498s-.35043-1.0381.05498-1.41314zm-7.3219 15.70036c.55228 0 1 .4478 1 1v.9128c.16039.0782.34012.1209.52595.1209h12.94815c.1858 0 .3655-.0427.5259-.1209v-.9128c0-.5522.4477-1 1-1s1 .4478 1 1v1.4164c0 .2694-.1086.5273-.3013.7155-.594.58-1.3946.9018-2.2246.9018h-12.94815c-.83002 0-1.63067-.3218-2.22463-.9018-.19269-.1882-.30132-.4461-.30132-.7155v-1.4164c0-.5522.44772-1 1-1z" fill="currentColor" fill-rule="evenodd"/></svg>