<svg fill="none" height="24" viewBox="0 0 24 24" width="24" xmlns="http://www.w3.org/2000/svg"><path clip-rule="evenodd" d="m11.2943 2.29225c.3904-.38967 1.0225-.38967 1.4129 0l4.5714 4.56318c.3909.39018.3915 1.02334.0013 1.41422-.3902.39087-1.0233.39145-1.4142.00127l-2.865-2.85979v9.53137c0 .5523-.4477 1-1 1-.5522 0-1-.4477-1-1v-9.53137l-2.86492 2.85979c-.39087.39018-1.02404.3896-1.41421-.00127-.39017-.39088-.3896-1.02405.00128-1.41422zm-7.2943 11.91215c.55228 0 1 .4477 1 1v3.6881c0 .3101.1174.5977.31115.8019.19206.2023.44103.3056.68885.3056h12c.2478 0 .4968-.1033.6889-.3056.1937-.2042.3111-.4918.3111-.8019v-3.6881c0-.5523.4477-1 1-1s1 .4477 1 1v3.6881c0 .8078-.304 1.5923-.8604 2.1786-.5581.5881-1.3266.9289-2.1396.9289h-12c-.81305 0-1.58149-.3408-2.13958-.9289-.5564-.5863-.86042-1.3708-.86042-2.1786v-3.6881c0-.5523.44772-1 1-1z" fill="currentColor" fill-rule="evenodd"/></svg>