<svg fill="none" height="24" viewBox="0 0 24 24" width="24" xmlns="http://www.w3.org/2000/svg"><path clip-rule="evenodd" d="m11.3571 6c-2.37072 0-4.14281 1.74425-4.14281 3.71889 0 .15455.01046.30641.03068.45521.03887.2861-.04778.575-.23768.7924-.10868.1245-.2451.2186-.39603.2763-.15507.0671-.32628.0945-.4979.0771-.07204-.0074-.1456-.0111-.2205-.0111-1.12813 0-1.89286.8199-1.89286 1.6543 0 .7449.66191 1.4658 1.89286 1.4658.55228 0 1 .4477 1 1s-.44772 1-1 1c-1.96442 0-3.89286-1.2787-3.89286-3.4658 0-1.8682 1.44837-3.30757 3.22577-3.59988.1985-3.06198 2.94378-5.36322 6.13133-5.36322 2.025 0 3.8476.91563 4.9746 2.36181.0559-.00157.112-.00236.1683-.00236 2.9548 0 5.5 2.21709 5.5 5.12905 0 2.4348-1.7809 4.1921-3.9897 4.7495-.5355.1351-1.0791-.1894-1.2143-.7249-.1351-.5355.1894-1.0792.7249-1.2143 1.5295-.386 2.4791-1.4907 2.4791-2.8103 0-1.64889-1.4843-3.12905-3.5-3.12905-.1796 0-.3554.01206-.5268.03518-.392.05291-.7784-.13026-.9856-.46726-.6932-1.12749-2.0409-1.92737-3.6305-1.92737zm-.1865 5.4995c.3854-.3648.9888-.365 1.3744-.0003l2.9546 2.7938c.4012.3794.4189 1.0123.0395 1.4136-.3795.4013-1.0124.419-1.4137.0396l-1.2674-1.1985v4.4523c0 .5523-.4477 1-1 1s-1-.4477-1-1v-4.4508l-1.26434 1.1966c-.40111.3797-1.03404.3623-1.41368-.0388-.37965-.4011-.36225-1.0341.03886-1.4137z" fill="currentColor" fill-rule="evenodd"/></svg>