<svg fill="none" height="24" viewBox="0 0 24 24" width="24" xmlns="http://www.w3.org/2000/svg"><path clip-rule="evenodd" d="m11.8747 4.15636-3.34418 3.28633h1.49798c.5523 0 1 .44771 1 1v3.83791h1.6923v-3.83791c0-.55229.4477-1 1-1h1.498zm-1.1411-1.68274c.3109-.3161.7143-.47362 1.1411-.47362s.8302.15753 1.1411.47363l4.2955 4.22123c.209.2009.3941.47322.4658.8204.0725.35123.0083.67896-.1114.95068-.1152.2644-.3008.52504-.5851.71447-.2872.19133-.6035.26228-.8982.26228h-1.4616v3.23321c0 .4445-.1777.8397-.4818 1.1384-.3036.2985-.6976.4663-1.1336.4663h-2.4615c-.436 0-.82993-.1678-1.1336-.4663-.30401-.2987-.48178-.6939-.48178-1.1384v-3.23321h-1.46154c-.29478 0-.61102-.07095-.8982-.26228-.28433-.18943-.46997-.45007-.5851-.71448-.11968-.27171-.18394-.59944-.11143-.95067.07169-.34719.25682-.61952.46585-.82042zm-5.7336 14.58318h3.33375c.00761.0025.02546.0096.05518.0279.06585.0408.15225.1141.25676.2294.14415.1592.30493.3008.47958.4256.48742.3483 1.04503.5266 1.64393.5266h2.4616c.5989 0 1.1565-.1783 1.6439-.5266.1747-.1248.3355-.2664.4796-.4256.1045-.1153.1909-.1886.2568-.2294.0297-.0183.0475-.0254.0551-.0279h3.3338v1.9432h-14zm10.6706-.0012c0 .0001-.0007.0003-.0019.0005zm-7.34117 0s.00061.0001.00188.0005zm-4.76111-1.4475c.37042-.364.8417-.5513 1.35476-.5513h3.41897c.86408 0 1.47125.5673 1.78595.9147.0431.0476.0956.0949.1602.141.1472.1052.2979.1538.481.1538h2.4616c.1831 0 .3338-.0486.481-.1538.0646-.0461.1171-.0934.1602-.141.3147-.3474.9219-.9147 1.786-.9147h3.4189c.5131 0 .9844.1873 1.3548.5513.3711.3647.5683.836.5683 1.3558v2.129c0 .5198-.1972.9911-.5683 1.3558-.3704.364-.8417.5513-1.3548.5513h-14.15382c-.51306 0-.98435-.1873-1.35476-.5513-.37109-.3647-.56832-.836-.56832-1.3558v-2.129c0-.5198.19723-.9911.56832-1.3558z" fill="currentColor" fill-rule="evenodd"/></svg>