<svg fill="none" height="24" viewBox="0 0 24 24" width="24" xmlns="http://www.w3.org/2000/svg"><path clip-rule="evenodd" d="m9.66317 6.7832c-1.09577 0-1.98407.8883-1.98407 1.98407s.8883 1.98403 1.98407 1.98403c1.09573 0 1.98403-.88826 1.98403-1.98403s-.8883-1.98407-1.98403-1.98407zm-3.98407 1.98407c0-2.20034 1.78373-3.98407 3.98407-3.98407 2.20033 0 3.98403 1.78373 3.98403 3.98407 0 2.20033-1.7837 3.98403-3.98403 3.98403-2.20034 0-3.98407-1.7837-3.98407-3.98403zm8.9925-3.10342c.2616-.48637.868-.66856 1.3544-.40692 1.2472.67093 2.0987 1.99046 2.0987 3.51037 0 1.4759-.8031 2.7631-1.9913 3.4505-.4781.2765-1.0898.1131-1.3664-.3649-.2765-.4781-.1131-1.0898.3649-1.3663.5957-.3446.9928-.98617.9928-1.7193 0-.75486-.4212-1.41286-1.0462-1.74904-.4864-.26164-.6685-.86803-.4069-1.35441zm2.0553 7.62945c.247-.4939.8476-.6942 1.3416-.4472 1.055.5275 1.9007 1.0821 2.6223 1.8037s1.2762 1.5673 1.8037 2.6223c.247.494.0467 1.0947-.4472 1.3416-.494.247-1.0947.0468-1.3417-.4472-.4672-.9343-.9073-1.5807-1.429-2.1025-.5218-.5217-1.1681-.9618-2.1025-1.429-.494-.247-.6942-.8477-.4472-1.3417zm-15.18452 4.4093c1.34679-2.2464 4.16761-3.5725 8.12079-3.5725 3.95313 0 6.77403 1.3261 8.12083 3.5725.2839.4737.1302 1.0879-.3435 1.3719s-1.0879.1302-1.3719-.3435c-.8505-1.4186-2.8454-2.6009-6.40543-2.6009s-5.55495 1.1823-6.40545 2.6009c-.28398.4737-.89819.6275-1.37187.3435-.47367-.284-.62745-.8982-.34347-1.3719z" fill="currentColor" fill-rule="evenodd"/></svg>