<svg fill="none" height="24" viewBox="0 0 24 24" width="24" xmlns="http://www.w3.org/2000/svg"><path clip-rule="evenodd" d="m11 5c-1.06014 0-2 1.00718-2 2.05501 0 1.00064.89374 1.94499 2 1.94499 1.1063 0 2-.94435 2-1.94499 0-1.04783-.9399-2.05501-2-2.05501zm-4 2.05501c0-2.0614 1.74643-4.05501 4-4.05501 2.2536 0 4 1.99361 4 4.05501 0 2.1086-1.7926 3.94499-4 3.94499-2.20745 0-4-1.83639-4-3.94499zm-2.99946 9.47169c.01168-.0256.07042-.1432.32318-.3416.33666-.2642.86969-.5487 1.57425-.81 1.40146-.5198 3.28338-.8751 5.10203-.8751.6077 0 1.251.0342 1.8957.1017.5493.0576 1.0413-.341 1.0988-.8902.0576-.5493-.341-1.0413-.8902-1.0989-.7107-.0745-1.4236-.1126-2.1043-.1126-2.04734 0-4.16543.3946-5.79746.9999-.81219.3012-1.5543.6729-2.11357 1.1119-.5239.4111-1.08897 1.0439-1.08897 1.8882 0 1.5682 1.25079 2.6991 2.75584 3.3849 1.55999.7107 3.71288 1.1151 6.24416 1.1151 1.0382 0 2.0079-.068 2.8964-.1955.5467-.0785.9263-.5853.8478-1.132-.0785-.5466-.5853-.9262-1.1319-.8477-.7861.1128-1.6603.1752-2.6123.1752-2.34751 0-4.19462-.3791-5.41494-.9351-1.24468-.5671-1.56965-1.1704-1.58452-1.5382zm14.29946-3.7268c.5523 0 1 .4477 1 1v1.7001h1.7c.5523 0 1 .4477 1 1s-.4477 1-1 1h-1.7v1.6999c0 .5522-.4477 1-1 1s-1-.4478-1-1v-1.6999h-1.7c-.5523 0-1-.4477-1-1s.4477-1 1-1h1.7v-1.7001c0-.5523.4477-1 1-1z" fill="currentColor" fill-rule="evenodd"/></svg>