<svg fill="none" height="24" viewBox="0 0 24 24" width="24" xmlns="http://www.w3.org/2000/svg"><path clip-rule="evenodd" d="m9.27964 4.42908c-1.22279 0-2.21405.99126-2.21405 2.21405s.99126 2.21406 2.21405 2.21406c1.22276 0 2.21406-.99127 2.21406-2.21406s-.9913-2.21405-2.21406-2.21405zm-4.21405 2.21405c0-2.32736 1.8867-4.21405 4.21405-4.21405 2.32736 0 4.21406 1.88669 4.21406 4.21405s-1.8867 4.21407-4.21406 4.21407c-2.32735 0-4.21405-1.88671-4.21405-4.21407zm9.53761-3.17851c.329-.44353.9554-.53631 1.3989-.20722 1.0326.76615 1.705 1.99762 1.705 3.38591s-.6724 2.61975-1.705 3.38589c-.4435.3291-1.0699.2363-1.3989-.2072-.3291-.44353-.2364-1.06986.2072-1.39895.546-.40513.8967-1.05138.8967-1.77974 0-.72837-.3507-1.37462-.8967-1.77974-.4436-.32909-.5363-.95542-.2072-1.39895zm-13.20294 13.89158c.00027-2.3272 1.88689-4.2136 4.21406-4.2136h7.19718c2.3276 0 4.2143 1.8869 4.2141 4.2144l-.0003 3.2138c0 .5523-.4478 1-1.0001.9999-.5523 0-.9999-.4478-.9999-1.0001l.0003-3.2137c.0001-1.2229-.9912-2.2143-2.2141-2.2143h-7.19718c-1.22269 0-2.21392.9911-2.21406 2.2138l-.00036 3.2144c-.00006.5523-.44783 1-1.00011.9999s-.99995-.4478-.99989-1.0001zm15.98554-3.2134c0-.5523.4478-1 1-1 2.3276 0 4.2143 1.8869 4.2141 4.2144l-.0003 3.2138c0 .5523-.4478.9999-1.0001.9999-.5523-.0001-.9999-.4478-.9999-1.0001l.0003-3.2138c.0001-1.2228-.9912-2.2142-2.2141-2.2142-.5522 0-1-.4477-1-1z" fill="currentColor" fill-rule="evenodd"/></svg>