<svg fill="none" height="24" viewBox="0 0 24 24" width="24" xmlns="http://www.w3.org/2000/svg"><path clip-rule="evenodd" d="m11.9999 3.40002c-1.4359 0-2.6 1.16406-2.6 2.6s1.1641 2.6 2.6 2.6 2.6-1.16406 2.6-2.6-1.1641-2.6-2.6-2.6zm-4.6 2.6c0-2.54051 2.05949-4.6 4.6-4.6 2.5405 0 4.6 2.05949 4.6 4.6s-2.0595 4.59998-4.6 4.59998c-2.54051 0-4.6-2.05947-4.6-4.59998zm-3.23019 8.88848c1.82103-1.4131 4.46055-2.2123 7.83019-2.2123 3.3696 0 6.0092.7992 7.8302 2.2123 1.8432 1.4302 2.7698 3.4333 2.7698 5.6239 0 1.0513-.7894 2.0876-1.9788 2.0876h-17.24237c-1.18938 0-1.97883-1.0363-1.97883-2.0876 0-2.1906.92662-4.1937 2.76981-5.6239zm1.2261 1.58c-1.34538 1.044-1.99591 2.459-1.99591 4.0439 0 .0424.01138.0713.02106.0876h17.15784c.0097-.0163.0211-.0452.0211-.0876 0-1.5849-.6505-2.9999-1.9959-4.0439-1.3675-1.0611-3.528-1.7923-6.6041-1.7923-3.07607 0-5.23655.7312-6.60409 1.7923z" fill="currentColor" fill-rule="evenodd"/></svg>