<svg fill="none" height="24" viewBox="0 0 24 24" width="24" xmlns="http://www.w3.org/2000/svg"><path clip-rule="evenodd" d="m16.3777 1.911c.27-.48176.8795-.65339 1.3613-.38335 1.6748.93883 2.911 2.53641 2.911 4.47231s-1.2362 3.53348-2.911 4.47234c-.4818.27-1.0913.0984-1.3613-.3834-.2701-.48175-.0984-1.09121.3833-1.36125 1.2377-.69373 1.889-1.71335 1.889-2.72769 0-1.01435-.6513-2.03396-1.889-2.72769-.4817-.27005-.6534-.87951-.3833-1.36127zm-5.7277 1.48896c-1.43594 0-2.6 1.16406-2.6 2.6s1.16406 2.6 2.6 2.6c1.4359 0 2.6-1.16406 2.6-2.6s-1.1641-2.6-2.6-2.6zm-4.6 2.6c0-2.54051 2.05949-4.6 4.6-4.6 2.5405 0 4.6 2.05949 4.6 4.6s-2.0595 4.60004-4.6 4.60004c-2.54051 0-4.6-2.05953-4.6-4.60004zm-4.7996 11.99944c.00029-2.5403 2.0597-4.5994 4.6-4.5994h6.5996c.5523 0 1 .4477 1 1 0 .5522-.4477 1-1 1h-6.5996c-1.43582 0-2.59983 1.1638-2.6 2.5997l-.0004 3.6004c-.00006.5523-.44783.9999-1.00011.9999-.55229-.0001-.99995-.4479-.99989-1.0002zm14.0996-2.3994c0-.5523.4477-1 1-1h5.4c.5523 0 1 .4477 1 1 0 .5522-.4477 1-1 1h-5.4c-.5523 0-1-.4478-1-1z" fill="currentColor" fill-rule="evenodd"/></svg>