<svg fill="none" height="24" viewBox="0 0 24 24" width="24" xmlns="http://www.w3.org/2000/svg"><path clip-rule="evenodd" d="m21.7474 2.33564c.3669.41278.3298 1.04485-.083 1.41177l-2.5342 2.25265 2.5342 2.25258c.2135.18977.3356.46177.3356.74741s-.1221.55765-.3356.74741l-2.5344 2.25274 2.5345 2.2538c.2135.1898.3356.4618.3355.7474-.0001.2857-.1223.5577-.3358.7474l-2.5338 2.2514 2.534 2.2524c.4127.3669.4499.999.083 1.4118s-.999.4499-1.4118.083l-3.375-3c-.2135-.1898-.3356-.4618-.3356-.7475 0-.2856.1222-.5577.3358-.7474l2.534-2.2516-2.5343-2.2536c-.2134-.1898-.3355-.4618-.3355-.7474s.1222-.5575.3356-.7473l2.5342-2.25255-2.5342-2.25257c-.2135-.18977-.3356-.46177-.3356-.74741s.1221-.55764.3356-.74741l3.375-3.00005c.4128-.36692 1.0449-.32975 1.4118.08303zm-9.303 2.68954c.3491.16547.5717.51727.5717.90365v12.31217c0 .3864-.2226.7382-.5718.9037-.3492.1654-.7625.1149-1.0615-.1299l-4.09899-3.3544-4.28353.0012c-.26527 0-.51969-.1053-.70729-.2928-.1876-.1876-.29299-.442-.29299-.7072v-5.15338c0-.55228.44772-1 1-1h4.28379l4.09911-3.35339c.2991-.24465.7123-.29512 1.0615-.12965zm-1.4283 3.01372-2.7422 2.2433c-.17865.1462-.40236.226-.63318.226h-3.64072v3.1531l3.64044-.001c.23097-.0001.45485.0798.6336.2261l2.74206 2.244z" fill="currentColor" fill-rule="evenodd"/></svg>