<svg fill="none" height="24" viewBox="0 0 24 24" width="24" xmlns="http://www.w3.org/2000/svg"><path clip-rule="evenodd" d="m1.3999 6.80009c-.00005-1.6569 1.34311-3.0001 3-3.0001h14.2404c1.6569 0 3 1.34314 3 3v1.68067c.5337.021.96.46032.96.99921v5.28003c0 .5389-.4263.9782-.96.9992v1.4409c0 1.6568-1.3431 3-3 3h-14.24006c-1.65681 0-2.99995-1.3431-3-2.9999zm19.2004 6.95981v-3.28h-2.12c-.9057 0-1.64.7342-1.64 1.64 0 .9057.7343 1.64 1.64 1.64zm-.96 2v1.4401c0 .5523-.4477 1-1 1h-14.24006c-.55227 0-.99998-.4477-1-1l-.00034-10.39998c-.00002-.5523.44771-1.00003 1-1.00003h14.2404c.5523 0 1 .44771 1 1v1.67988h-1.16c-2.0103 0-3.64 1.62973-3.64 3.64003s1.6297 3.64 3.64 3.64z" fill="currentColor" fill-rule="evenodd"/></svg>