<svg fill="none" height="24" viewBox="0 0 24 24" width="24" xmlns="http://www.w3.org/2000/svg"><path clip-rule="evenodd" d="m17.3631.711937c.2747.186033.4393.496233.4393.828043v4.98667h1.6667c1.7305 0 3.1333 1.40285 3.1333 3.13333v10.24002c0 1.9661-1.5939 3.56-3.56 3.56h-14.08001c-1.966 0-3.55979-1.5937-3.56-3.5596l-.00468-12.36369c.00097-.29708.13129-.50122.17918-.57073.06003-.08712.1212-.14669.15329-.17629.06614-.06101.12909-.10356.15969-.12367.06897-.04533.14406-.0864.20527-.1185.12986-.06811.30422-.15121.5053-.24331.40697-.18642.98006-.43548 1.65732-.72321 1.35721-.57659 3.1631-1.32127 4.96464-2.05671 1.8025-.73583 3.6046-1.46401 4.9558-2.00812.6757-.27208 1.2388-.4982 1.633-.656325l.6192-.24809c.0001-.000047.0007-.000274.372.928225l-.372-.928225c.3081-.12321.6579-.085851.9327.100182zm-1.5607 2.306623c-.2631.10575-.5575.22415-.8771.35284-1.3495.54345-3.1485 1.27034-4.94701 2.00455-.95716.39073-1.9131.78309-2.80053 1.1507h8.62464zm-12.40432 5.50809h16.07102c.6259 0 1.1333.50741 1.1333 1.13333v10.24002c0 .8615-.6984 1.56-1.56 1.56h-14.08001c-.86156 0-1.56-.6985-1.56-1.56zm13.80812 5.52945c.3905.3906.3905 1.0237 0 1.4143l-.0167.0167c-.3905.3905-1.0237.3905-1.4142 0s-.3905-1.0237 0-1.4142l.0167-.0167c.3905-.3905 1.0236-.3906 1.4142-.0001z" fill="currentColor" fill-rule="evenodd"/></svg>