<svg fill="none" height="24" viewBox="0 0 24 24" width="24" xmlns="http://www.w3.org/2000/svg"><path clip-rule="evenodd" d="m13.8591 1.79884c.4354-.27988 1.0124-.18131 1.3302.22724l3.0597 3.93394h1.4309c1.0825 0 1.96.87752 1.96 1.96v2.36078c.5337.021.96.4603.96.9992v5.28c0 .5389-.4263.9782-.96.9992v2.8408c0 1.0825-.8775 1.96-1.96 1.96h-16.32c-1.08248 0-1.96-.8775-1.96-1.96v-12.47998c0-1.08248.87752-1.96 1.96-1.96h4.0263zm-6.19387 6.16118c.0104.00016.02081.00016.03123 0h10.05454c.0064.00006.0128.00006.0192 0h1.8697v2.31998h-1.16c-2.0103 0-3.64 1.6297-3.64 3.64s1.6297 3.64 3.64 3.64h1.16v2.8h-16.24v-12.39998zm8.05007-2h-4.6306l3.087-1.98452zm2.7646 6.31998c-.9057 0-1.64.7343-1.64 1.64 0 .9058.7343 1.64 1.64 1.64h2.12v-3.28z" fill="currentColor" fill-rule="evenodd"/></svg>