<svg fill="none" height="24" viewBox="0 0 24 24" width="24" xmlns="http://www.w3.org/2000/svg"><path clip-rule="evenodd" d="m9.67991 4.00012-.40183 1.20548h5.27992l-.4018-1.20548zm6.99299 1.22549-.7349-2.20451c-.2032-.60972-.7738-1.02098-1.4165-1.02098h-5.20691c-.6427 0-1.21329.41126-1.41653 1.02098l-.73483 2.20451c-1.21992.15541-2.16299 1.19729-2.16299 2.45944v8.87675c0 1.2914.98732 2.3522 2.2483 2.4688l.64953 1.9485c.20323.6098.77382 1.021 1.41652 1.021h5.20691c.6427 0 1.2133-.4112 1.4165-1.021l.6496-1.9485c1.2609-.1166 2.2483-1.1774 2.2483-2.4688v-8.87675c0-1.26215-.9431-2.30403-2.163-2.45944zm-.7866 11.81559c-.0155-.0003-.031-.0003-.0464 0h-7.84366c-.01546-.0003-.03096-.0003-.0465 0h-.47004c-.2648 0-.47946-.2146-.47946-.4794v-8.87675c0-.26479.21466-.47945.47946-.47945h8.8767c.2648 0 .4795.21466.4795.47945v8.87675c0 .2648-.2147.4794-.4795.4794zm-6.52603 2h5.11553l-.3196.9589h-4.47629z" fill="currentColor" fill-rule="evenodd"/></svg>