<svg fill="none" height="24" viewBox="0 0 24 24" width="24" xmlns="http://www.w3.org/2000/svg"><path clip-rule="evenodd" d="m8.44657 4.54449c.93326-.98238 2.21033-1.54449 3.55343-1.54449s2.6202.56211 3.5534 1.54449c.9316.98063 1.4466 2.3002 1.4466 3.66604v4.21057c0 1.3658-.515 2.6854-1.4466 3.666-.6977.7344-1.5875 1.2339-2.5534 1.4393v1.4736h.6c.5523 0 1 .4477 1 1s-.4477 1-1 1h-3.2c-.55228 0-1-.4477-1-1s.44772-1 1-1h.6v-1.4736c-.9659-.2054-1.85574-.7049-2.55343-1.4393-.9316-.9806-1.44657-2.3002-1.44657-3.666v-4.21057c0-1.36584.51497-2.68541 1.44657-3.66604zm3.55343.45551c-.7786 0-1.5364.32511-2.10343.92198-.56868.59862-.89657 1.42098-.89657 2.28855v4.21057c0 .8675.32789 1.6899.89657 2.2885.56703.5969 1.32483.922 2.10343.922s1.5364-.3251 2.1034-.922c.5687-.5986.8966-1.421.8966-2.2885v-4.21057c0-.86757-.3279-1.68993-.8966-2.28855-.567-.59687-1.3248-.92198-2.1034-.92198zm-1.2907 1.92632c.3332-.35068.7963-.5579 1.2907-.5579s.9575.20722 1.2907.5579c.3315.34893.5093.81173.5093 1.28421 0 .47247-.1778.93527-.5093 1.2842-.3332.35068-.7963.55787-1.2907.55787s-.9575-.20719-1.2907-.55787c-.3315-.34893-.5093-.81172-.5093-1.2842s.1778-.93528.5093-1.28421zm1.3782 1.42539c.0296-.01196.0541-.0292.0718-.04789.0314-.03309.0407-.0675.0407-.09329 0-.0258-.0093-.06021-.0407-.09329-.0177-.0187-.0422-.03594-.0718-.0479-.0256-.01032-.055-.01671-.0875-.01671s-.0619.00639-.0875.01671c-.0296.01196-.0541.0292-.0718.0479-.0314.03308-.0407.06749-.0407.09329 0 .02579.0093.0602.0407.09329.0177.01869.0422.03593.0718.04789.0256.01032.055.01671.0875.01671s.0619-.00639.0875-.01671z" fill="currentColor" fill-rule="evenodd"/></svg>