<svg fill="none" height="24" viewBox="0 0 24 24" width="24" xmlns="http://www.w3.org/2000/svg"><path clip-rule="evenodd" d="m3.81113 5.67036c-.36365.31676-.41123.5301-.41123.62265 0 .09254.04758.30588.41123.62264.36134.31474.9421.64367 1.74625.93994 1.60043.58963 3.87803.97426 6.44252.97426 2.5645 0 4.8421-.38463 6.4425-.97426.8042-.29627 1.3849-.6252 1.7463-.93994.3636-.31676.4112-.5301.4112-.62264 0-.09255-.0476-.30589-.4112-.62265-.3614-.31474-.9421-.64367-1.7463-.93994-1.6004-.58963-3.878-.97426-6.4425-.97426-2.56449 0-4.84209.38463-6.44252.97426-.80415.29627-1.38491.6252-1.74625.93994zm1.05484-2.81662c1.87409-.69045 4.39649-1.09758 7.13393-1.09758 2.7374 0 5.2598.40713 7.1339 1.09758.9331.34378 1.7583.77697 2.3685 1.30852.6079.52952 1.0976 1.24662 1.0976 2.13075 0 .88412-.4897 1.60122-1.0976 2.13075-.6102.53154-1.4354.96474-2.3685 1.30852-1.8741.69042-4.3965 1.09752-7.1339 1.09752-2.73744 0-5.25984-.4071-7.13393-1.09752-.93311-.34378-1.75823-.77698-2.36847-1.30852-.60791-.52953-1.0976-1.24663-1.0976-2.13075 0-.88413.48969-1.60123 1.0976-2.13075.61024-.53155 1.43536-.96474 2.36847-1.30852zm-1.8492 8.90996c.27488-.479.88603-.6445 1.36505-.3696 1.49421.8574 4.27896 1.4959 7.58648 1.4959 3.3076 0 6.0923-.6385 7.5865-1.4959.479-.2749 1.0902-.1094 1.3651.3696s.1094 1.0902-.3697 1.3651c-1.9199 1.1017-5.1008 1.7612-8.5819 1.7612-3.48104 0-6.662-.6595-8.5819-1.7612-.47902-.2749-.64451-.8861-.36963-1.3651zm1.46722 4.3911c.22168-.5059.81145-.7362 1.31729-.5145 1.20493.528 3.47008.9264 6.16702.9264 2.697 0 4.9621-.3984 6.1671-.9264.5058-.2217 1.0956.0086 1.3173.5145.2216.5058-.0087 1.0956-.5146 1.3173-1.569.6876-4.151 1.0946-6.9698 1.0946-2.81875 0-5.40075-.407-6.96978-1.0946-.50584-.2217-.73621-.8115-.51453-1.3173zm13.29101 4.3757c.1247.538-.2104 1.0753-.7484 1.2-1.4021.325-3.1633.5133-5.0587.5133-1.7636 0-3.4093-.163-4.75707-.4467-.54044-.1137-.88635-.6441-.7726-1.1845.11376-.5405.64408-.8864 1.18453-.7726 1.19026.2505 2.69544.4038 4.34514.4038 1.7754 0 3.3813-.1775 4.6071-.4617.538-.1247 1.0752.2104 1.2.7484z" fill="currentColor" fill-rule="evenodd"/></svg>