<svg fill="none" height="24" viewBox="0 0 24 24" width="24" xmlns="http://www.w3.org/2000/svg"><path clip-rule="evenodd" d="m12.0905 3.69333c1.2094-1.20499 2.8806-1.81384 4.5841-1.67348l.0201.00168.0067.0006c.2726.02509.4855.14643.5692.19605.1173.06961.2258.15116.3166.22817.0916.07772.1853.16776.2686.26365.0627.07227.1943.23102.2735.44297l.0018.00501.0009.0025c.1883.51595.0609 1.09566-.3301 1.48508l-1.6257 1.61952 1.5584 1.5584 1.5825-1.5825.0019-.00191.0046-.00452c.3885-.38292.9633-.50902 1.4773-.32244l.0005.00019.0006.00021c.1646.0599.302.15091.3805.20663.0946.0672.1896.1455.2766.22755.0845.0797.1817.18198.2672.30012.0603.08315.2247.31827.2527.64194l.0017.02002c.1409 1.69436-.4671 3.35503-1.6667 4.55893l-.0142.0142-.0002.0002c-1.4883 1.4824-3.584 1.9868-5.4855 1.5252l-.0111-.0027-7.053 7.5703c-.01643.0179-.03275.0346-.04886.0502-1.2988 1.2863-3.39953 1.3094-4.71081.0116l-.0077-.0076-.00015-.0002c-1.30896-1.3043-1.30905-3.4256.00006-4.7298l.00536-.0053c.0022-.0022.00441-.0043.00663-.0064.00191-.0019.00406-.004.00637-.0063l.00544-.0052c.00182-.0017.00365-.0035.00549-.0052l7.54857-7.0961c-.4681-1.90074.0395-3.99608 1.5301-5.48127zm3.4736.35842c-.7747.12868-1.4955.49403-2.0619 1.05838v.00002c-1.0865 1.08241-1.3772 2.66503-.8657 4.01758.1503.39746.033.84649-.2925 1.11967-.0488.041-.0955.083-.1408.1271l-.009.0088c-.0056.0055-.0112.0109-.0169.0163l-7.78594 7.3192c-.00124.0012-.00259.0026-.00404.004-.51762.523-.51549 1.3688.00671 1.8893l.00611.006c.5194.5108 1.3606.5115 1.89137-.0118l7.28259-7.8167.003-.0032c.007-.0075.0141-.0148.0213-.022.0388-.0389.078-.0826.1184-.1322l.0032-.0039c.2716-.3302.7234-.4512 1.124-.3007 1.3625.5122 2.9561.2213 4.0441-.8625.5571-.55526.9202-1.25831 1.0544-2.01379l.0016-.00889-1.5024 1.50238c-.3905.3905-1.0237.3905-1.4142 0l-2.9739-2.97395c-.1878-.18777-.2932-.44251-.2929-.70805.0002-.26554.1061-.52008.2942-.7075z" fill="currentColor" fill-rule="evenodd"/></svg>